<svg id="Layer_1" data-name="Layer 1" xmlns="http://www.w3.org/2000/svg" viewBox="0 0 251 129"><defs><style>.cls-1{fill:#fff;}</style></defs><title>LD_website logo</title><path class="cls-1" d="M91.24,89.74c-3.1,0-4.55,2.92-4.55,5.92,0,3.49,1.69,5.92,4.55,5.92,3.1,0,4.55-2.92,4.55-5.92C95.79,92.18,94.1,89.74,91.24,89.74Z"/><path class="cls-1" d="M163.49,41.33a1.34,1.34,0,0,0-.79.24,1,1,0,0,0-.4.82,1.35,1.35,0,0,0,1.5,1.08,1.33,1.33,0,0,0,.79-0.23,1,1,0,0,0,.4-0.81,0.91,0.91,0,0,0-.17-0.54A1.67,1.67,0,0,0,163.49,41.33Z"/><path class="cls-1" d="M131.93,89.74c-3.1,0-4.55,2.92-4.55,5.92,0,3.49,1.69,5.92,4.55,5.92,3.1,0,4.55-2.92,4.55-5.92C136.48,92.18,134.78,89.74,131.93,89.74Z"/><path class="cls-1" d="M160.89,31.79a1.76,1.76,0,0,0,.91-0.31,1.31,1.31,0,0,0,.7-1.07,1,1,0,0,0-.16-0.54,0.92,0.92,0,0,0-.81-0.45,1.67,1.67,0,0,0-.88.29,1.37,1.37,0,0,0-.72,1.11,1,1,0,0,0,.15.51A0.91,0.91,0,0,0,160.89,31.79Z"/><path class="cls-1" d="M151.55,24.73a1.49,1.49,0,0,0,1.2-1.55,1,1,0,0,0-1-1.13,1.45,1.45,0,0,0-1.2,1.53,1.33,1.33,0,0,0,.15.64A1,1,0,0,0,151.55,24.73Z"/><path class="cls-1" d="M116,80.24a1.1,1.1,0,0,0,.31-0.78,1.08,1.08,0,0,0-.27-0.75,1.65,1.65,0,0,0-1.28-.33H114.1v2.25h0.24A2.28,2.28,0,0,0,116,80.24Z"/><path class="cls-1" d="M163.1,47.47c0.28,0,.4-0.14.59-0.57l0.11-.27-1-.46-0.06.14a1.64,1.64,0,0,0-.19.61,0.55,0.55,0,0,0,0,.21A0.59,0.59,0,0,0,163.1,47.47Z"/><path class="cls-1" d="M160.51,39.72a13.67,13.67,0,1,0-21.82,11,4.79,4.79,0,0,1,5.56,2.45A13.67,13.67,0,0,0,160.51,39.72Zm-12.67-9.87,1.48,1v0.1l-0.34.14c-0.07,0-.07.09,0,0.12L149.8,32h0.08l0.63-.93a0.08,0.08,0,0,0,0-.13L150,30.83V30.72l1.1-1.55h0.18l1.1,1.55v0.11L152,30.9a0.08,0.08,0,0,0,0,.13L152.58,32h0.08l0.89-.75s0-.09,0-0.12l-0.34-.15v-0.1l1.42-1,0.12,0-0.87,2.65a10.32,10.32,0,0,0-5.28,0l-0.87-2.65Zm5.85,3.42c0,0.26-1.1.47-2.46,0.47s-2.46-.21-2.46-0.47,1.1-.47,2.46-0.47S153.69,33,153.69,33.27Zm-6.57,3.86a1.83,1.83,0,0,1,.81-1.69,2.77,2.77,0,0,1,1.39-.27h4.24v8.5H149c-1.06,0-1.68.24-1.73,1.18h-0.1V37.13Zm-0.59,0v7.73h-0.1c-0.05-.95-0.68-1.18-1.73-1.18h-4.58v-8.5h4.21a2.77,2.77,0,0,1,1.39.27A1.83,1.83,0,0,1,146.54,37.13ZM140,33.27c0-.26,1.1-0.47,2.46-0.47s2.46,0.21,2.46.47-1.1.47-2.46,0.47S140,33.53,140,33.27ZM139,29.85l1.48,1v0.1l-0.34.15c-0.07,0-.07.09,0,0.12L141,32h0.08L141.7,31a0.08,0.08,0,0,0,0-.13l-0.42-.07V30.72l1.1-1.55h0.18l1.1,1.55v0.11l-0.42.07a0.08,0.08,0,0,0,0,.13L143.76,32h0.08l0.89-.75s0-.09,0-0.12l-0.34-.15v-0.1l1.42-1,0.12,0-0.87,2.65a10.33,10.33,0,0,0-5.28,0l-0.87-2.65Zm7.8,21.69c-1.36,0-2.46-.21-2.46-0.47s1.1-.47,2.46-0.47,2.46,0.21,2.46.47S148.19,51.54,146.83,51.54Zm2.64-1.19a10.32,10.32,0,0,0-5.28,0l-0.87-2.65,0.12,0,1.48,1v0.1l-0.34.15c-0.07,0-.07.09,0,0.12l0.83,0.75h0.08l0.63-.93a0.08,0.08,0,0,0,0-.13l-0.42-.07V48.52l1.1-1.55h0.18l1.1,1.55v0.11l-0.42.07a0.08,0.08,0,0,0,0,.13l0.63,0.93h0.08l0.89-.75s0-.09,0-0.12l-0.34-.15v-0.1l1.42-1,0.12,0Zm5.57-5H148.3a1.84,1.84,0,0,1-2.93,0h-6.72V44.73L138.1,45a0.53,0.53,0,1,1-.23-0.54l0.78-.34v-0.7l-0.53.16a0.54,0.54,0,1,1-.17-0.56l0.71-.22V42l-0.55.09a0.54,0.54,0,1,1-.1-0.58l0.65-.11V40.72l-0.57,0a0.53,0.53,0,1,1,0-.59l0.59,0v-0.8l-0.6,0a0.54,0.54,0,1,1,0-.59l0.58,0V38L138,37.88a0.53,0.53,0,1,1,.1-0.58l0.55,0.1V36.68l-0.74-.23a0.53,0.53,0,0,1-.34.12,0.54,0.54,0,1,1,.51-0.69l0.56,0.17V35.79h0.59v9h6.5L145.81,45a1.25,1.25,0,0,0,2.05,0l0.07-.18h6.51v-9H155v9.57Z"/><path class="cls-1" d="M141.93,53.25l-0.75-.44a2.75,2.75,0,0,0-3.37.84c1.09,0.57,2.11,1,2.59,1.2a0.65,0.65,0,0,1,.4.62,0.66,0.66,0,0,1-.66.66,0.64,0.64,0,0,1-.36-0.11,18.23,18.23,0,0,1-2.35-1.71,2.78,2.78,0,0,0-.2,1,2.9,2.9,0,0,0,1.56,2.53,18.25,18.25,0,0,0,8.5,2.31,15.06,15.06,0,0,0,10.56-3.79C150.45,58.45,144.32,54.71,141.93,53.25Zm2.71,4.54a0.49,0.49,0,1,1,.49-0.49A0.49,0.49,0,0,1,144.65,57.79Zm5,0.81a0.49,0.49,0,1,1,.49-0.49A0.49,0.49,0,0,1,149.62,58.61Z"/><path class="cls-1" d="M145.66,54.62a21.2,21.2,0,0,0,3.49,1.25,4.68,4.68,0,0,1,.73-2.22,14.3,14.3,0,0,1-3,.33A1.44,1.44,0,0,0,145.66,54.62Z"/><path class="cls-1" d="M159,50.06a1.36,1.36,0,0,0,.58,1,1.3,1.3,0,0,0,.83.33,1.42,1.42,0,0,0,1.14-.75l0.16-.19-2-1.62-0.24.3A1.55,1.55,0,0,0,159,50.06Z"/><path class="cls-1" d="M145.13,54.37a1.54,1.54,0,0,1,.41-0.45,17.35,17.35,0,0,1-2-.36C144,53.79,144.61,54.12,145.13,54.37Z"/><path class="cls-1" d="M147.3,60.75a16,16,0,0,1-2.71-.25,8.55,8.55,0,0,1-.61,1.35,1.34,1.34,0,0,1,1.34,1.35,1.31,1.31,0,0,1-1.37,1.35,1.29,1.29,0,0,1-.32,0c0.17,1.13,1.49,2.4,3.18,3,1.7-.57,3-1.84,3.17-3a1.29,1.29,0,0,1-.33,0,1.33,1.33,0,0,1-1.37-1.35,1.32,1.32,0,0,1,1.37-1.35h0.08a9.92,9.92,0,0,1-.37-1.21A20.27,20.27,0,0,1,147.3,60.75Z"/><path class="cls-1" d="M136.51,52.92l0.77,0.45a3.38,3.38,0,0,1,4.17-1.07h0a13.56,13.56,0,0,0,2,.67A4.19,4.19,0,0,0,136.51,52.92Z"/><path class="cls-1" d="M131.57,30.61a0.6,0.6,0,0,0-.29-0.08,0.72,0.72,0,0,0-.58.52l-0.16.28,1,0.54,0.07-.13a1.46,1.46,0,0,0,.24-0.65,0.53,0.53,0,0,0,0-.15A0.58,0.58,0,0,0,131.57,30.61Z"/><path class="cls-1" d="M136.64,55.33a3.31,3.31,0,0,1,.32-1.42l-0.69-.61a4.21,4.21,0,0,0,4.52,6.14,15.76,15.76,0,0,1-2.31-1.1A3.41,3.41,0,0,1,136.64,55.33Z"/><path class="cls-1" d="M135.14,52.18l0.13-.13c0.23,0.19.48,0.38,0.74,0.55a4.83,4.83,0,0,1,2-1.66,14.28,14.28,0,1,1,13,2.4c-0.75.23-1.23,1.49-1.32,2.67a16.16,16.16,0,0,0,9.05-.5,19.81,19.81,0,1,0-23.61.22c0-.14,0-0.27,0-0.41a4.73,4.73,0,0,1,.67-2.43A9.29,9.29,0,0,1,135.14,52.18ZM161.85,51a1.79,1.79,0,0,1-1.51.92,1.82,1.82,0,0,1-1.14-.43,1.78,1.78,0,0,1-.73-1.39,2.26,2.26,0,0,1,.65-1.41l0.5-.63,2.78,2.22Zm2.28-4a1.15,1.15,0,0,1-1.06,1,1,1,0,0,1-.92-0.56,0.92,0.92,0,0,1-.07-0.37,0.88,0.88,0,0,1,0-.09,0.59,0.59,0,0,1-.15.09,1.67,1.67,0,0,1-.57.05H160.2l0.24-.55h1a0.65,0.65,0,0,0,.81-0.48l0.07-.15L161,45.36l0.23-.51,3.24,1.46Zm0.72-3.35a2,2,0,0,1-3.06-1.36,1.55,1.55,0,0,1,.64-1.28,1.84,1.84,0,0,1,1.09-.33,1.8,1.8,0,0,1,2,1.67A1.58,1.58,0,0,1,164.85,43.72Zm0.81-4.46-0.49,0-0.11-1.41-1,.08,0.11,1.32-0.48,0L163.6,38l-1.61.13,0-.56,3.55-.29Zm-1.19-6.12-1,1.11,1.44,0.32,0.19,0.58-2-.47-1.39,1.67-0.2-.6,1.05-1.23L161,34.15l-0.19-.58L163,34.07l1.3-1.55Zm-4.13-3.9a2.09,2.09,0,0,1,1.11-.35,1.55,1.55,0,0,1,1.34.75,1.57,1.57,0,0,1,.25.85,1.85,1.85,0,0,1-.93,1.5,2.13,2.13,0,0,1-1.12.36,1.55,1.55,0,0,1-1.33-.74,1.57,1.57,0,0,1-.25-0.85A1.85,1.85,0,0,1,160.34,29.24Zm-1.84-2.46a0.49,0.49,0,1,1-.51.47A0.49,0.49,0,0,1,158.49,26.78Zm-2.87-3.71,1.7,1-0.25.42-1.22-.72-0.5.85,1.14,0.67-0.24.41L155.12,25l-0.82,1.39-0.49-.29Zm-5.54-.13a1.75,1.75,0,0,1,1.65-1.39,1.56,1.56,0,0,1,1.39.8,1.79,1.79,0,0,1,.2.87,2.13,2.13,0,0,1-1,1.82,1.52,1.52,0,0,1-.74.18,1.57,1.57,0,0,1-1.39-.81,1.8,1.8,0,0,1-.21-0.9A2.08,2.08,0,0,1,150.08,22.94Zm-3.27-.73a0.49,0.49,0,1,1-.49.49A0.49,0.49,0,0,1,146.81,22.21Zm-5.39-.5L142.63,23l0.31-1.72,0.6-.17-0.48,2.38,0.39,1.35-0.54.16-0.38-1.34-1.69-1.77Zm-1.92.64,0.23,0.43-0.9.47L140.24,26l-0.51.26-1.42-2.73-0.9.47-0.23-.43Zm-3.81,2.24,2.16,2.83-0.45.35-2.16-2.83ZM132.9,27a1.33,1.33,0,0,1,1-.52L134,27a1.06,1.06,0,0,0-.7.35,0.69,0.69,0,0,0-.2.44,0.39,0.39,0,0,0,.14.3,1,1,0,0,0,.93-0.13,2.12,2.12,0,0,1,.78-0.2,0.93,0.93,0,0,1,.64.24,1,1,0,0,1,.36.76,1.22,1.22,0,0,1-.35.84,1.78,1.78,0,0,1-1.07.56l-0.12-.48a1.51,1.51,0,0,0,.8-0.41,0.7,0.7,0,0,0,.19-0.45,0.47,0.47,0,0,0-.17-0.36,0.44,0.44,0,0,0-.32-0.11,2.16,2.16,0,0,0-.73.23,1.14,1.14,0,0,1-1.3,0,0.89,0.89,0,0,1-.32-0.68A1.24,1.24,0,0,1,132.9,27Zm-2.62,3.81a1.2,1.2,0,0,1,1.06-.87,1,1,0,0,1,.51.14,0.86,0.86,0,0,1,.49.79,1,1,0,0,1,0,.19,0.6,0.6,0,0,1,.17-0.09,1.64,1.64,0,0,1,.57,0l1.17,0.1-0.29.53-1-.09A0.65,0.65,0,0,0,132,32l-0.08.14,1.3,0.71-0.27.49-3.14-1.7Zm-1.2,2.8,0.47,0.13-0.43,1.43,1,0.26,0.37-1.3,0.46,0.13-0.37,1.29,1.08,0.3,0.4-1.41,0.48,0.14-0.54,2-3.45-.94ZM128,39.85l2.93-.82-2.83-1.09V37.35l3.52,1.43,0,0.59L128,40.44V39.85Zm0.21,2.34,3.52-.52,0.08,0.56-3.52.52Zm1.23,4.67,1.94-2.36-2.48.87-0.18-.5,3.37-1.18,0.19,0.51-1.93,2.35,2.43-1,0.18,0.5-3.33,1.28Zm4.48,3.38-1.77,1.26L131.84,51l1.84-1.31a0.75,0.75,0,0,0,.45-0.62A0.87,0.87,0,0,0,134,48.6a0.72,0.72,0,0,0-.61-0.34,1.51,1.51,0,0,0-.73.37L131,49.76l-0.32-.46,1.58-1.07a2.18,2.18,0,0,1,1.12-.52,1.29,1.29,0,0,1,1,.62,1.49,1.49,0,0,1,.28.86A1.21,1.21,0,0,1,133.94,50.23Z"/><path class="cls-1" d="M148.25,92.77a2.7,2.7,0,0,0-1.62-2.61,4.79,4.79,0,0,0-1.94-.25h-1v5.82h1.59C147.72,95.73,148.25,94.22,148.25,92.77Z"/><path class="cls-1" d="M76,12.48v100H176v-100H76Zm45.46,69.07a4.05,4.05,0,0,0-1.11-.64,3.39,3.39,0,0,1-1.07-.67,1.37,1.37,0,0,1-.36-1,1.64,1.64,0,0,1,1.83-1.58,2.25,2.25,0,0,1,1.68.63l-0.35.43a2.14,2.14,0,0,0-1.28-.46,1,1,0,0,0-1.19.95,0.78,0.78,0,0,0,.28.61,3.39,3.39,0,0,0,.83.47,4.21,4.21,0,0,1,1.33.78,1.5,1.5,0,0,1,.45,1.08,1.74,1.74,0,0,1-1.94,1.76,2.79,2.79,0,0,1-1.8-.64l0.33-.49a2.91,2.91,0,0,0,1.45.52,1.06,1.06,0,0,0,1.24-1.09A0.93,0.93,0,0,0,121.46,81.55ZM108.14,77.8h3.27v0.6h-2.56v2h2.4V81h-2.4V83.2h2.63v0.62h-3.34v-6Zm-5.9,0L104,83.11l1.81-5.31h0.7l-2.11,6h-0.83l-2.07-6h0.75Zm-3.07,0h0.72v6H99.17v-6Zm-6.8,0h0.74l2.91,5,0-5h0.66v6H95.91L93,78.89l0,4.93H92.37v-6Zm-6.62,0h0.72V81.6a1.68,1.68,0,0,0,.36,1.32,1.55,1.55,0,0,0,1.11.4,1.43,1.43,0,0,0,1-.38c0.41-.41.39-0.86,0.39-1.95V77.8h0.71v3c0,1.14,0,2-.54,2.55a2.19,2.19,0,0,1-1.61.58,2.28,2.28,0,0,1-1.63-.6,2.55,2.55,0,0,1-.52-2V77.8Zm5.49,24.42a6.56,6.56,0,1,1,6.66-6.62A6.47,6.47,0,0,1,91.24,102.22Zm20.94-.21h-5.57v-0.46l1.2-.25c0.42-.07.35-0.21,0.14-0.5l-3.1-4.37h-0.07l-3.14,4.34c-0.21.28-.28,0.38,0.1,0.49l1.13,0.28V102H98.4v-0.46l1.13-.28a1.76,1.76,0,0,0,1-.56l3.88-4.87-3.88-5.15a1.58,1.58,0,0,0-1-.63l-1.06-.28V89.32h5.57v0.46l-1.2.25c-0.42.07-.32,0.25-0.11,0.53l2.86,4.09h0.07l2.93-4.09c0.21-.28.28-0.39-0.11-0.49l-1.13-.28V89.32h4.48v0.46l-1.13.28a1.75,1.75,0,0,0-1,.56l-3.67,4.62,4.09,5.39a1.6,1.6,0,0,0,1,.63l1.06,0.28V102Zm1.21-24.21h1.3a2.41,2.41,0,0,1,1.88.47,1.63,1.63,0,0,1,.47,1.2,1.45,1.45,0,0,1-.37,1,1.61,1.61,0,0,1-1,.47,0.79,0.79,0,0,1,.5.24,2.71,2.71,0,0,1,.46.8l0.8,1.79h-0.75L116,82.26c-0.43-1-.62-1.06-1.49-1.06H114.1v2.62h-0.71v-6ZM123.5,92.49H123l-0.6-1.91a0.73,0.73,0,0,0-.78-0.67h-4v5.46h3.07a0.76,0.76,0,0,0,.81-0.63l0.32-1.09h0.53v4.23h-0.53l-0.32-1.27a0.74,0.74,0,0,0-.81-0.64h-3.07v4.65a0.53,0.53,0,0,0,.53.6l1.45,0.32V102h-5.68v-0.46l1.3-.32a0.55,0.55,0,0,0,.53-0.6V90.69a0.55,0.55,0,0,0-.53-0.6l-1.3-.32V89.32h9.59v3.18Zm1.7-8.68h-0.72v-6h0.72v6Zm6.72,18.41a6.56,6.56,0,1,1,6.66-6.62A6.47,6.47,0,0,1,131.93,102.22ZM126.82,78.4V77.8h4.29v0.6h-1.78v5.41h-0.72V78.4h-1.79Zm5.13-.6h0.83l1.48,2.82,1.44-2.82h0.78l-1.91,3.64v2.38h-0.71V81.44Zm3.38-21.25a20.41,20.41,0,1,1,23.85-.61h0A15.18,15.18,0,0,1,150,60.58a10,10,0,0,0,.52,1.56h0l-0.41.41a0.75,0.75,0,0,0-.4-0.12,0.76,0.76,0,1,0,0,1.52,1.14,1.14,0,0,0,.86-0.49,2.72,2.72,0,0,1,.1.8c0,1.46-1.6,3.15-3.81,3.84-2.22-.71-3.81-2.38-3.81-3.84a3.16,3.16,0,0,1,.1-0.79,1.08,1.08,0,0,0,.86.49,0.76,0.76,0,1,0-.36-1.43l-0.43-.43h0a9.66,9.66,0,0,0,.83-1.71,20.55,20.55,0,0,1-2.29-.61A4.8,4.8,0,0,1,135.33,56.55ZM151,80.39V81h-2.32v2.84H148v-6h3.19v0.6h-2.48v2H151Zm-5,.39c0,1.86-1.11,3.15-2.74,3.15a2.81,2.81,0,0,1-2.69-3.09c0-1.86,1.13-3.15,2.75-3.15A2.79,2.79,0,0,1,146,80.78ZM153.19,102h-3a0.94,0.94,0,0,1-.85-0.53l-2.64-3.7c-0.74-1.06-1-1.44-1.94-1.44h-1v4.3a0.53,0.53,0,0,0,.53.6l1.44,0.32V102H140v-0.46l1.31-.32a0.55,0.55,0,0,0,.53-0.6V90.69a0.55,0.55,0,0,0-.53-0.6L140,89.78V89.32h5.54a7.63,7.63,0,0,1,2.64.35,3.34,3.34,0,0,1,2.15,3.07c0,1.55-1.16,2.86-3.1,3.31v0.07c0.39,0.18.6,0.43,2,2.23l1.73,2.29a1.46,1.46,0,0,0,1,.63l1.27,0.28V102Zm11.21-.78a8.88,8.88,0,0,1-4.16.78h-6v-0.46l1.3-.32a0.55,0.55,0,0,0,.53-0.6V90.69a0.55,0.55,0,0,0-.53-0.6l-1.3-.32V89.32h6a9,9,0,0,1,3.74.63,6.16,6.16,0,0,1,3.49,5.78A5.84,5.84,0,0,1,164.4,101.23Z"/><path class="cls-1" d="M162.92,90.48a6.28,6.28,0,0,0-3.17-.57h-1.83v10.93c0,0.46.11,0.57,0.56,0.57H160a5.63,5.63,0,0,0,3.35-.78c1.3-1,1.9-2.68,1.9-4.87S164.68,91.51,162.92,90.48Z"/><path class="cls-1" d="M141.29,80.8c0,1.49.85,2.51,2,2.51s2-1.07,2-2.56-0.83-2.45-2-2.45S141.29,79.3,141.29,80.8Z"/></svg>