<svg id="Layer_1" data-name="Layer 1" xmlns="http://www.w3.org/2000/svg" viewBox="0 0 251 87"><defs><style>.cls-1{fill:#fff;}</style></defs><title>LD_website logo</title><path class="cls-1" d="M155.79,39.65a1.35,1.35,0,0,0-1.07-.39,1.54,1.54,0,0,0-1.15.44,1.72,1.72,0,0,0-.49,1.09h3.07A1.67,1.67,0,0,0,155.79,39.65Z"/><path class="cls-1" d="M143.37,24.16a1.54,1.54,0,0,0-1.15.44,1.73,1.73,0,0,0-.49,1.09h3.07a1.66,1.66,0,0,0-.36-1.13A1.36,1.36,0,0,0,143.37,24.16Z"/><path class="cls-1" d="M151.61,24.55a3.23,3.23,0,0,0-.66-0.23,3.13,3.13,0,0,0-.64-0.06,1.46,1.46,0,0,0-1.2.53,2.33,2.33,0,0,0-.43,1.5,2.42,2.42,0,0,0,.31,1.39,1.26,1.26,0,0,0,1.08.56,2,2,0,0,0,.79-0.17,3.38,3.38,0,0,0,.74-0.44V24.55Z"/><path class="cls-1" d="M162,43.18a3.79,3.79,0,0,0,.73-0.45V41.21l-1,.07a4.85,4.85,0,0,0-.88.14,1.45,1.45,0,0,0-.63.35,1,1,0,0,0,0,1.36,1.29,1.29,0,0,0,.85.24A2,2,0,0,0,162,43.18Z"/><path class="cls-1" d="M135.52,39.54a1.51,1.51,0,0,0,.11-0.61,1.39,1.39,0,0,0-.13-0.58,0.88,0.88,0,0,0-.37-0.39,1.44,1.44,0,0,0-.51-0.17,4.19,4.19,0,0,0-.68,0h-1.26v2.61h1.1a3.76,3.76,0,0,0,.82-0.07,1.38,1.38,0,0,0,.59-0.28A1.2,1.2,0,0,0,135.52,39.54Z"/><path class="cls-1" d="M141.56,54.41a1.39,1.39,0,0,0-1.15.51,3.07,3.07,0,0,0,0,3.06,1.52,1.52,0,0,0,2.28,0,3.07,3.07,0,0,0,0-3.07A1.39,1.39,0,0,0,141.56,54.41Z"/><path class="cls-1" d="M167.36,28.09a4,4,0,0,0,.73-0.45V26.12l-1,.07a5.15,5.15,0,0,0-.88.14,1.48,1.48,0,0,0-.63.35,1,1,0,0,0,0,1.36,1.29,1.29,0,0,0,.85.24A2,2,0,0,0,167.36,28.09Z"/><path class="cls-1" d="M142.44,39.65a1.36,1.36,0,0,0-1.07-.39,1.55,1.55,0,0,0-1.16.44,1.75,1.75,0,0,0-.49,1.09h3.07A1.68,1.68,0,0,0,142.44,39.65Z"/><path class="cls-1" d="M97.18,49.41a3.58,3.58,0,0,0,.25-1.46,3.38,3.38,0,0,0-.32-1.4,2.12,2.12,0,0,0-.87-0.92A3.49,3.49,0,0,0,95,45.21a10.74,10.74,0,0,0-1.63-.11h-3v6.22H93a8.73,8.73,0,0,0,2-.18,3.34,3.34,0,0,0,1.4-.67A2.91,2.91,0,0,0,97.18,49.41Z"/><path class="cls-1" d="M182,12.1H66.43c-5,0-7.23,2.29-7.23,7.26V61.92c0,5,2.19,7.27,7.23,7.27H182c5,0,7.23-2.29,7.23-7.27V19.36C189.2,14.39,187,12.1,182,12.1Zm-10.42,9.36h0.81V29h-0.81V21.46ZM155,21.73h1v0.94h-1V21.73Zm1,1.85V29H155V23.58h0.91ZM82.68,60.18l-0.46-7.34c-0.15-2.59-.28-5.44-0.33-7.57H81.84c-0.48,2-1.15,4.22-2,6.66l-2.81,8.16H75.12l-2.81-8.16c-0.82-2.44-1.48-4.63-2-6.66H70.3c-0.05,2.13-.18,5-0.33,7.57l-0.46,7.34H67.23l1.21-17.13h3.11l2.94,8.29c0.64,1.9,1.16,3.69,1.59,5.31h0c0.43-1.62.95-3.41,1.59-5.31l2.94-8.29h3.11L85,60.18H82.68Zm16.78,0L94,53.51H90.42v6.67h-2.2V43.05h5a15.19,15.19,0,0,1,2.58.16,4.85,4.85,0,0,1,2,.76,3.81,3.81,0,0,1,1.35,1.46,5.65,5.65,0,0,1-.21,5.49,4.66,4.66,0,0,1-2.48,2l6.08,7.29h-3Zm10.49-2a7.17,7.17,0,0,0,1.9.12A8.85,8.85,0,0,0,116,56.86l0,2.28a9.35,9.35,0,0,1-5,1.28,8.55,8.55,0,0,1-8.66-8.83,8.55,8.55,0,0,1,8.66-8.83,9.35,9.35,0,0,1,5,1.28l0,2.28a8.86,8.86,0,0,0-4.19-1.5,7.13,7.13,0,0,0-1.9.12A6.81,6.81,0,0,0,110,58.19ZM125.21,64v0.05h-1.32V17.21h1.32V64Zm9.31-5.64a3,3,0,0,0,.8.05,3.72,3.72,0,0,0,1.76-.6l0,1a3.91,3.91,0,0,1-2.08.54,3.7,3.7,0,0,1,0-7.4,4,4,0,0,1,2.08.53l0,1a3.73,3.73,0,0,0-1.76-.63,3,3,0,0,0-.8.05A2.86,2.86,0,0,0,134.52,58.37Zm2-14.32-2.28-2.8h-1.51v2.8h-0.92V36.87h2.08a6.38,6.38,0,0,1,1.08.07,2,2,0,0,1,.83.32,1.58,1.58,0,0,1,.57.61,2.37,2.37,0,0,1-.09,2.31,2,2,0,0,1-1,.82l2.55,3.06h-1.26Zm1.29-18.17c-0.06-1.09-.12-2.28-0.14-3.17h0c-0.2.85-.48,1.77-0.82,2.79l-1.18,3.42h-0.82l-1.18-3.42c-0.34-1-.62-1.94-0.82-2.79h0c0,0.89-.08,2.09-0.14,3.17L132.44,29h-1L132,21.78h1.3l1.23,3.47c0.27,0.8.49,1.55,0.67,2.23h0c0.18-.68.4-1.43,0.67-2.23l1.23-3.47h1.31L138.92,29h-1Zm1.74,13.42a2.48,2.48,0,0,1,1.9-.78,2.19,2.19,0,0,1,1.68.64,2.56,2.56,0,0,1,.59,1.81v0.49h-4a2.27,2.27,0,0,0,.15.86,1.6,1.6,0,0,0,.41.6,1.62,1.62,0,0,0,.6.35,2.35,2.35,0,0,0,.76.12,3,3,0,0,0,1.1-.22,2.76,2.76,0,0,0,.79-0.43h0v1a7.56,7.56,0,0,1-.94.32,3.76,3.76,0,0,1-1,.13,2.89,2.89,0,0,1-2.1-.73,2.72,2.72,0,0,1-.75-2.06A3,3,0,0,1,139.51,39.3Zm3.87,19.23a2.55,2.55,0,0,1-3.64,0,3,3,0,0,1-.67-2.07,3,3,0,0,1,.67-2.08,2.55,2.55,0,0,1,3.64,0,3,3,0,0,1,.68,2.08A3,3,0,0,1,143.38,58.53Zm2.31-32.16h-4a2.31,2.31,0,0,0,.15.86,1.61,1.61,0,0,0,.41.6,1.59,1.59,0,0,0,.59.34,2.36,2.36,0,0,0,.76.12,2.94,2.94,0,0,0,1.1-.22,2.72,2.72,0,0,0,.79-0.43h0v1a6.92,6.92,0,0,1-.94.33,3.74,3.74,0,0,1-1,.13,2.89,2.89,0,0,1-2.1-.72,2.74,2.74,0,0,1-.75-2.06,3,3,0,0,1,.72-2.1,2.48,2.48,0,0,1,1.9-.77,2.18,2.18,0,0,1,1.68.64,2.54,2.54,0,0,1,.59,1.81v0.49Zm0.19,16.34h0a3.69,3.69,0,0,0,1,.52,3,3,0,0,0,1,.19,1.88,1.88,0,0,0,.93-0.19,0.66,0.66,0,0,0,.34-0.61,0.62,0.62,0,0,0-.18-0.48,1.67,1.67,0,0,0-.71-0.28l-0.51-.1-0.56-.13a1.87,1.87,0,0,1-1-.55,1.37,1.37,0,0,1-.3-0.9,1.43,1.43,0,0,1,.14-0.63,1.49,1.49,0,0,1,.42-0.53,2,2,0,0,1,.69-0.36,3.08,3.08,0,0,1,.94-0.13,4.21,4.21,0,0,1,1,.12,3.81,3.81,0,0,1,.82.29v1h0a3.3,3.3,0,0,0-.84-0.44,2.89,2.89,0,0,0-1-.18,1.68,1.68,0,0,0-.84.19,0.67,0.67,0,0,0-.13,1.07,1.62,1.62,0,0,0,.66.28l0.56,0.12,0.52,0.11a2,2,0,0,1,1,.5,1.31,1.31,0,0,1,.34,1,1.46,1.46,0,0,1-.61,1.21,2.65,2.65,0,0,1-1.67.47,4.06,4.06,0,0,1-1.1-.14,5.08,5.08,0,0,1-.84-0.31v-1Zm4.75,16.44h-0.91v-0.6a4.63,4.63,0,0,1-.88.56,2.23,2.23,0,0,1-.93.19,1.69,1.69,0,0,1-1.33-.52,2.16,2.16,0,0,1-.47-1.52v-3.5H147v3.06a5.58,5.58,0,0,0,0,.7,1.24,1.24,0,0,0,.16.5,0.76,0.76,0,0,0,.34.31,1.47,1.47,0,0,0,.6.1,2,2,0,0,0,.78-0.18,3.75,3.75,0,0,0,.78-0.47v-4h0.91v5.39Zm0.19-30.24a2.44,2.44,0,0,1-1,.2,1.84,1.84,0,0,1-1.54-.74,3.29,3.29,0,0,1-.57-2.06,3.53,3.53,0,0,1,.19-1.22,2.77,2.77,0,0,1,.53-0.91,2.19,2.19,0,0,1,.77-0.56,2.22,2.22,0,0,1,.91-0.19,2.84,2.84,0,0,1,.76.09,3.46,3.46,0,0,1,.69.28V21.45h0.91V29h-0.91V28.4A3.07,3.07,0,0,1,150.82,28.91Zm1.33,12.49a3,3,0,0,1,.72-2.1,2.47,2.47,0,0,1,1.9-.78,2.19,2.19,0,0,1,1.68.64A2.56,2.56,0,0,1,157,41v0.49h-4a2.25,2.25,0,0,0,.15.86,1.54,1.54,0,0,0,.41.6,1.6,1.6,0,0,0,.59.35,2.36,2.36,0,0,0,.76.12,3,3,0,0,0,1.1-.22,2.74,2.74,0,0,0,.79-0.43h0v1a7.68,7.68,0,0,1-.94.32,3.77,3.77,0,0,1-1,.13,2.89,2.89,0,0,1-2.1-.73A2.72,2.72,0,0,1,152.14,41.4Zm5.51,17.75h-0.91V56.09a5.07,5.07,0,0,0,0-.7,1.22,1.22,0,0,0-.16-0.51,0.73,0.73,0,0,0-.35-0.3,1.5,1.5,0,0,0-.59-0.1,1.87,1.87,0,0,0-.78.18,4.24,4.24,0,0,0-.78.47v4h-0.91V53.76H154v0.6a3.68,3.68,0,0,1,.88-0.55,2.33,2.33,0,0,1,.94-0.2,1.68,1.68,0,0,1,1.34.53,2.22,2.22,0,0,1,.46,1.51v3.49Zm0.59-31.64a3.66,3.66,0,0,1-.2-1.25,2.88,2.88,0,0,1,.73-2.08,2.53,2.53,0,0,1,1.92-.76,3.21,3.21,0,0,1,.91.13,4.74,4.74,0,0,1,.82.32v1h0a3.44,3.44,0,0,0-.85-0.48,2.44,2.44,0,0,0-.86-0.17,1.52,1.52,0,0,0-1.22.52,2.27,2.27,0,0,0-.45,1.52,2.28,2.28,0,0,0,.44,1.5,1.51,1.51,0,0,0,1.22.52,2.32,2.32,0,0,0,.56-0.07,2.35,2.35,0,0,0,.51-0.18l0.37-.21,0.27-.19h0v1a5.81,5.81,0,0,1-.86.34,3.11,3.11,0,0,1-.87.12,3.22,3.22,0,0,1-1.07-.17,2.19,2.19,0,0,1-.83-0.52A2.35,2.35,0,0,1,158.23,27.51Zm0.87,15a1.72,1.72,0,0,1,.26-1,1.77,1.77,0,0,1,.75-0.6,4.1,4.1,0,0,1,1.18-.29c0.46-.05,1-0.09,1.48-0.12V40.34a1.07,1.07,0,0,0-.11-0.51,0.76,0.76,0,0,0-.31-0.32,1.2,1.2,0,0,0-.46-0.15,3.67,3.67,0,0,0-.56,0,4,4,0,0,0-.79.09,6.4,6.4,0,0,0-.91.27h0V38.77c0.18,0,.43-0.1.77-0.16a5.87,5.87,0,0,1,1-.09,4.61,4.61,0,0,1,1,.1,1.88,1.88,0,0,1,.73.32,1.46,1.46,0,0,1,.46.58,2.13,2.13,0,0,1,.16.87v3.67h-0.91V43.48l-0.32.23a2.34,2.34,0,0,1-.4.23,2.88,2.88,0,0,1-.52.18,2.78,2.78,0,0,1-.69.07,1.71,1.71,0,0,1-1.23-.48A1.63,1.63,0,0,1,159.1,42.49Zm5,12.58h0a3.48,3.48,0,0,0-.86-0.48,2.37,2.37,0,0,0-.86-0.17,1.53,1.53,0,0,0-1.22.52,2.8,2.8,0,0,0,0,3,1.51,1.51,0,0,0,1.23.53,2.38,2.38,0,0,0,.56-0.07,2.51,2.51,0,0,0,.51-0.19,3.46,3.46,0,0,0,.37-0.21l0.28-.19h0v1a5.72,5.72,0,0,1-.86.34,3.11,3.11,0,0,1-.87.12,3.27,3.27,0,0,1-1.07-.17,2.19,2.19,0,0,1-.83-0.52A2.33,2.33,0,0,1,160,57.7a3.65,3.65,0,0,1-.19-1.24,2.89,2.89,0,0,1,.73-2.08,2.54,2.54,0,0,1,1.92-.76,3.28,3.28,0,0,1,.91.13,4.77,4.77,0,0,1,.82.32v1Zm0.27-27.67a1.71,1.71,0,0,1,.27-1,1.73,1.73,0,0,1,.75-0.6,4,4,0,0,1,1.18-.3c0.46-.05,1-0.09,1.48-0.12V25.26a1.05,1.05,0,0,0-.11-0.51,0.79,0.79,0,0,0-.31-0.32,1.28,1.28,0,0,0-.47-0.15,4,4,0,0,0-.56,0,3.83,3.83,0,0,0-.8.09,6.32,6.32,0,0,0-.9.27h0V23.68q0.26-.07.76-0.16a5.91,5.91,0,0,1,1-.09,4.77,4.77,0,0,1,1,.09,1.92,1.92,0,0,1,.73.32,1.43,1.43,0,0,1,.46.57,2.2,2.2,0,0,1,.16.88V29h-0.9V28.39l-0.33.23a2.08,2.08,0,0,1-.4.23,2.56,2.56,0,0,1-1.2.26,1.69,1.69,0,0,1-1.23-.49A1.61,1.61,0,0,1,164.42,27.4Zm3,31.75h-0.91V53.76h0.91v5.39Zm0.06-6.3h-1V51.91h1v0.94Zm2-13.21h0l-0.4-.07-0.45,0a1.91,1.91,0,0,0-.81.19,3.64,3.64,0,0,0-.76.48v3.83h-0.91V38.67H167v0.79a4.5,4.5,0,0,1,1-.61,2.09,2.09,0,0,1,.85-0.18h0.34l0.32,0v0.92Zm1.33,19.5H170V51.64h0.81v7.51ZM175.14,40h0a3.5,3.5,0,0,0-.86-0.48,2.38,2.38,0,0,0-.86-0.17,1.53,1.53,0,0,0-1.22.52,2.8,2.8,0,0,0,0,3,1.5,1.5,0,0,0,1.22.53,2.27,2.27,0,0,0,.56-0.07,2.5,2.5,0,0,0,.51-0.18l0.37-.21,0.28-.19h0v1a5.89,5.89,0,0,1-.86.34,3.06,3.06,0,0,1-.87.12,3.16,3.16,0,0,1-1.07-.17,2.13,2.13,0,0,1-.83-0.52,2.3,2.3,0,0,1-.54-0.88,3.66,3.66,0,0,1-.19-1.24,2.87,2.87,0,0,1,.73-2.08,2.53,2.53,0,0,1,1.92-.76,3.22,3.22,0,0,1,.91.13,4.9,4.9,0,0,1,.82.32v1Zm6.79,4.08H181V41a5.27,5.27,0,0,0,0-.7,1.31,1.31,0,0,0-.16-0.51,0.74,0.74,0,0,0-.35-0.3,1.47,1.47,0,0,0-.59-0.1,1.94,1.94,0,0,0-.78.18,4,4,0,0,0-.78.47v4h-0.91V36.55h0.91v2.72a3.64,3.64,0,0,1,.88-0.55,2.34,2.34,0,0,1,.93-0.2,1.68,1.68,0,0,1,1.34.52,2.23,2.23,0,0,1,.46,1.51v3.5Z"/></svg>