<svg id="Layer_1" data-name="Layer 1" xmlns="http://www.w3.org/2000/svg" viewBox="0 0 230 57"><defs><style>.cls-1{fill:#fff;}</style></defs><title>LD_website logo</title><path class="cls-1" d="M43.08,33.69a1.2,1.2,0,0,0-.94-0.44H40.91v6.38h1A1.37,1.37,0,0,0,43,39.15a1.43,1.43,0,0,0,.47-1.09l0-3.41a1.34,1.34,0,0,0-.41-1M43,25a1.69,1.69,0,0,0-1.09-.38h-1v5.58h0.82A1.74,1.74,0,0,0,43,29.78a1.31,1.31,0,0,0,.5-1.06V26a1.22,1.22,0,0,0-.5-1M48,29.4a2.94,2.94,0,0,1-1.2,1.35,5.69,5.69,0,0,1-2.26.74v0.18a6.61,6.61,0,0,1,2.38.5A2.32,2.32,0,0,1,48,33.63a12.21,12.21,0,0,1,.32,3.23v0.79a7.81,7.81,0,0,1-.23,1.94,3.41,3.41,0,0,1-.85,1.56,4.75,4.75,0,0,1-1.88,1.12,11,11,0,0,1-3.23.41H36v-21h6.08a13.35,13.35,0,0,1,3.91.44,3.08,3.08,0,0,1,1.88,1.38A4.89,4.89,0,0,1,48.4,26V27.4a5.16,5.16,0,0,1-.35,2"/><path class="cls-1" d="M54.72,35.45a1.4,1.4,0,0,0-.5,1.06v1.76a1.63,1.63,0,0,0,.21.74,0.79,0.79,0,0,0,.73.35A0.82,0.82,0,0,0,55.92,39a1.08,1.08,0,0,0,.24-0.56V34.22c-0.85.7-1.35,1.12-1.44,1.23m1.35,5.38A2.42,2.42,0,0,1,55,42.45a3.89,3.89,0,0,1-2.14.62,3.23,3.23,0,0,1-2-.65,2.36,2.36,0,0,1-1.09-1.53,19.14,19.14,0,0,1-.2-2.76,8.61,8.61,0,0,1,.24-2.23,3.49,3.49,0,0,1,.85-1.5,12.24,12.24,0,0,1,1.91-1.18c0.94-.53,1.64-0.91,2-1.15a6.09,6.09,0,0,0,1.09-.79,1.63,1.63,0,0,0,.38-0.47,2.14,2.14,0,0,0,.12-0.94c0-.85-0.32-1.29-0.94-1.29a0.84,0.84,0,0,0-.73.44,1.64,1.64,0,0,0-.29,1v1.85H49.57V29.72A3.75,3.75,0,0,1,51,26.64a7,7,0,0,1,4.44-1.15,8.27,8.27,0,0,1,2.41.32,4.59,4.59,0,0,1,1.68.91,3.32,3.32,0,0,1,.94,1.35,4.37,4.37,0,0,1,.32,1.67V41.42a4.64,4.64,0,0,0,.09.73c0,0.32.06,0.5,0.06,0.53H56.33l-0.12-1.85H56.07Z"/><rect class="cls-1" x="62" y="21.7" width="4.64" height="20.98"/><path class="cls-1" d="M74.67,29H73.29V42.68H68.64V29h-1V25.9h0.94A6.83,6.83,0,0,1,69,23.49a2.69,2.69,0,0,1,1.09-1.35,3.44,3.44,0,0,1,1.79-.44H74.7v2.91c-0.94,0-1.41.24-1.41,0.68V25.9h1.38V29Z"/><path class="cls-1" d="M81.75,28.81a1,1,0,0,0-1.5,0,1.49,1.49,0,0,0-.27.94v9a1.34,1.34,0,0,0,.27.85A0.8,0.8,0,0,0,81,40a1,1,0,0,0,1-1.2v-9a1.6,1.6,0,0,0-.24-0.91m4.88,8.93a6.82,6.82,0,0,1-.53,2.82,4,4,0,0,1-1.79,1.85,7,7,0,0,1-3.29.65,7.55,7.55,0,0,1-3.29-.62,3.9,3.9,0,0,1-1.82-1.82,6.54,6.54,0,0,1-.56-2.88v-6.9A6.63,6.63,0,0,1,75.9,28a3.6,3.6,0,0,1,1.79-1.82A7,7,0,0,1,81,25.49a5.91,5.91,0,0,1,4.29,1.32,5.38,5.38,0,0,1,1.35,4v6.9Z"/><path class="cls-1" d="M99,42.68H94.5V40.74A4.56,4.56,0,0,1,93,42.39a4,4,0,0,1-2.26.68,3,3,0,0,1-1.56-.41,2.94,2.94,0,0,1-1.06-1.18,3.84,3.84,0,0,1-.38-1.79V25.9h4.64V38.21a1.2,1.2,0,0,0,.24.71,0.77,0.77,0,0,0,.7.35A1,1,0,0,0,94.09,39a0.76,0.76,0,0,0,.29-0.59V25.9H99V42.68Z"/><path class="cls-1" d="M111.43,34.92h-4.64V30.34a1.06,1.06,0,0,0-.26-0.7,0.87,0.87,0,0,0-.65-0.26,1,1,0,0,0-.65.26,0.79,0.79,0,0,0-.35.68V42.68h-4.64V26h4.52v2a3.86,3.86,0,0,1,3.64-2.44,2.8,2.8,0,0,1,2.17.91,3.4,3.4,0,0,1,.85,2.35v6.11Z"/><path class="cls-1" d="M126.56,33.69a1.19,1.19,0,0,0-.94-0.44h-1.23v6.38h1a1.37,1.37,0,0,0,1.06-.47,1.43,1.43,0,0,0,.47-1.09l0-3.41a1.33,1.33,0,0,0-.41-1M126.44,25a1.69,1.69,0,0,0-1.09-.38h-1v5.58h0.82a1.75,1.75,0,0,0,1.23-.41,1.31,1.31,0,0,0,.5-1.06V26a1.23,1.23,0,0,0-.5-1m5.08,4.41a2.94,2.94,0,0,1-1.21,1.35,5.68,5.68,0,0,1-2.26.74v0.18a6.6,6.6,0,0,1,2.38.5,2.32,2.32,0,0,1,1.09,1.47,12.27,12.27,0,0,1,.32,3.23v0.79a7.81,7.81,0,0,1-.23,1.94,3.41,3.41,0,0,1-.85,1.56,4.75,4.75,0,0,1-1.88,1.12,11,11,0,0,1-3.23.41h-6.17v-21h6.08a13.34,13.34,0,0,1,3.91.44,3.07,3.07,0,0,1,1.88,1.38,4.86,4.86,0,0,1,.53,2.47V27.4a5.16,5.16,0,0,1-.35,2"/><path class="cls-1" d="M139.6,31.9V29.49a1.17,1.17,0,0,0-.26-0.7,0.86,0.86,0,0,0-.71-0.32c-0.68,0-1,.47-1,1.44v2h2Zm4.64,2.85h-6.61v4.2a1,1,0,0,0,.29.7,0.88,0.88,0,0,0,.68.32,0.93,0.93,0,0,0,.74-0.29,1.15,1.15,0,0,0,.26-0.76V36.16h4.64v2.35a4.82,4.82,0,0,1-.32,1.7,4.21,4.21,0,0,1-1,1.5,5.64,5.64,0,0,1-1.76,1,8.25,8.25,0,0,1-2.56.35c-3.73,0-5.61-1.76-5.61-5.26V30.72a6.25,6.25,0,0,1,.56-2.79,3.6,3.6,0,0,1,1.76-1.79,6.75,6.75,0,0,1,3.2-.65,6.41,6.41,0,0,1,4.35,1.23,4.11,4.11,0,0,1,1.38,3.2v4.82Z"/><path class="cls-1" d="M150.53,35.45a1.4,1.4,0,0,0-.5,1.06v1.76a1.62,1.62,0,0,0,.21.74,0.79,0.79,0,0,0,.73.35,0.82,0.82,0,0,0,.76-0.32,1.08,1.08,0,0,0,.23-0.56V34.22c-0.85.7-1.35,1.12-1.44,1.23m1.35,5.38a2.42,2.42,0,0,1-1.09,1.62,3.9,3.9,0,0,1-2.14.62,3.23,3.23,0,0,1-2-.65,2.36,2.36,0,0,1-1.09-1.53,19.14,19.14,0,0,1-.21-2.76,8.61,8.61,0,0,1,.24-2.23,3.51,3.51,0,0,1,.85-1.5,12.27,12.27,0,0,1,1.91-1.18c0.94-.53,1.64-0.91,2-1.15a6,6,0,0,0,1.09-.79,1.66,1.66,0,0,0,.38-0.47,2.16,2.16,0,0,0,.12-0.94c0-.85-0.32-1.29-0.94-1.29a0.84,0.84,0,0,0-.73.44,1.63,1.63,0,0,0-.29,1v1.85h-4.64V29.72a3.75,3.75,0,0,1,1.44-3.09,7,7,0,0,1,4.44-1.15,8.28,8.28,0,0,1,2.41.32,4.61,4.61,0,0,1,1.68.91,3.33,3.33,0,0,1,.94,1.35,4.37,4.37,0,0,1,.32,1.67V41.42a4.8,4.8,0,0,0,.09.73c0,0.32.06,0.5,0.06,0.53h-4.61L152,40.83h-0.15Z"/><path class="cls-1" d="M170.48,42.68a3,3,0,0,1-3.17-3.2V29h-3.67V39c0,0.5.38,0.76,1.15,0.76h0.91v2.91h-3.53a3,3,0,0,1-3.17-3.2V29h-1.56V25.9H159V22.82h4.64V25.9h3.67V22.82H172V25.9H174V29H172V39c0,0.5.38,0.76,1.18,0.76H174v2.91h-3.53Z"/><path class="cls-1" d="M178.92,26.11c0,0.09,0,.21.06,0.35l0.09,0.5c0,0.15.06,0.35,0.09,0.59,0.12,0.65.21,1.23,0.29,1.76s0.15,1.06.2,1.47,0.12,0.88.18,1.32a53,53,0,0,1,.59,5.79h0.12a45.52,45.52,0,0,1,.56-5.94c0.09-.47.12-1,0.18-1.5s0.15-1.06.23-1.59,0.21-1.06.29-1.56,0.21-1,.26-1.41H186c-0.62,2.76-1.59,7.35-2.88,13.72-0.38,1.85-.71,3.23-0.94,4.08a4.6,4.6,0,0,1-.94,1.94,2.57,2.57,0,0,1-.88.59,2.75,2.75,0,0,1-1.18.26h-4.53v-3h2.65a0.63,0.63,0,0,0,.38-0.18,0.51,0.51,0,0,0,.21-0.47c0-.32-0.38-2-1.09-5.17-0.44-1.88-1.26-5.82-2.56-11.81h4.64c0,0.06,0,.12,0,0.21"/></svg>