<svg id="Layer_1" data-name="Layer 1" xmlns="http://www.w3.org/2000/svg" viewBox="0 0 254 99.86"><defs><style>.cls-1{fill:#fff;}.cls-2{fill:#818385;}.cls-3{fill:#dcddde;}.cls-4{fill:#bbbdbf;}.cls-5{fill:#231f20;}</style></defs><title>LD_website logo</title><path class="cls-1" d="M99.76,71.59a1.84,1.84,0,1,0-.65,2.34A1.62,1.62,0,0,0,99.76,71.59Z"/><path class="cls-1" d="M127.2,10.89a42.69,42.69,0,1,0,42.7,42.69A42.69,42.69,0,0,0,127.2,10.89Zm31.53,22.82a4.64,4.64,0,0,1,.64,1.48l-0.85.53a3.08,3.08,0,0,0-.47-1.41,1.72,1.72,0,0,0-2.56-.67,1.76,1.76,0,0,0-.62,2.51,2.15,2.15,0,0,0,.53.59l1.5-1,0.6,0.93-1.91,1.23A4.57,4.57,0,0,1,154,36.39a2.56,2.56,0,0,1,.8-3.71A2.79,2.79,0,0,1,158.74,33.71ZM156.09,30l-0.87.38-1.12-1.26-0.93.82,1.12,1.27-0.68.6-1.12-1.26-1,.9,1.3,1.47-0.67.6-2-2.3,4-3.52Zm-4.53-4.63-2.9,3.31,1.41,1.23-0.6.69-2.23-2,3.5-4Zm-3.7-2.83-2.46,3.64,1.55,1-0.51.75L144,26.36l3-4.4Zm-8.31-1.39a2.79,2.79,0,0,1,1.54-1.46,2.7,2.7,0,0,1,2.12.14,2.73,2.73,0,1,1-3.78,3.52A2.66,2.66,0,0,1,139.54,21.19Zm-5.21-1.52a2.76,2.76,0,0,1,3.6-1.86,3.15,3.15,0,0,1,1.26.65l-0.28.94a2.57,2.57,0,0,0-1.18-.72,1.68,1.68,0,0,0-2.21,1.23,1.69,1.69,0,0,0,1.14,2.21,2.67,2.67,0,0,0,1.37,0L138.1,23a3.3,3.3,0,0,1-1.88,0A2.55,2.55,0,0,1,134.34,19.67Zm-6.1-3.4L129,17.8c0.11,0.23.25,0.54,0.35,0.79h0c0.13-.23.29-0.51,0.42-0.72l0.91-1.44,1.15,0.07-2,3.1-0.13,2.08-1.1-.07,0.13-2.1L127,16.19Zm-1.1,10.13A27.14,27.14,0,1,1,100,53.53,27.14,27.14,0,0,1,127.14,26.4Zm-0.95-10.18-0.17.92-1.42.12L125,21.65l-1.11.09-0.37-4.39-1.55.13-0.08-.9Zm-5.44.6,1,5.22-1.08.21-1-5.22Zm-4.23.94a2.73,2.73,0,0,1,1.37-.08l0.26,0.92a2.61,2.61,0,0,0-1.32,0,0.59,0.59,0,0,0-.53.67c0.27,0.88,2.42.14,2.91,1.74a1.71,1.71,0,0,1-1.4,2.07,3,3,0,0,1-1.76,0l0.18-.89a2.2,2.2,0,0,0,1.28,0,0.69,0.69,0,0,0,.63-0.76c-0.2-.67-1.47-0.41-2.3-0.93a1.38,1.38,0,0,1-.6-0.8A1.6,1.6,0,0,1,116.53,17.75Zm-5.16,2c1.29-.59,2-0.17,2.39.58a1.52,1.52,0,0,1-.31,1.65h0a11.36,11.36,0,0,1,2.43,1.53l-1.14.52a8.29,8.29,0,0,0-2.05-1.31l-0.37.17,0.85,1.86-1,.46L110,20.41Zm-2.87,1.45,0.24,0.92-1.42.9,0.66,1,1.43-.91,0.49,0.77-1.43.91L109.19,26l1.66-1.05,0.48,0.76-2.59,1.65-2.85-4.48ZM101.95,26l2.64,1.46c0.33,0.18.64,0.36,0.91,0.52h0c-0.12-.28-0.23-0.59-0.34-1l-0.92-3,0.86-.73,1.65,5.6-0.63.53L101,26.81Zm-1.69,1.67,3.88,3.62-0.75.81L99.51,28.5Zm-4.33,5.41,3.6-.18c0.34,0,.59,0,0.85,0h0c-0.21-.13-0.5-0.33-0.68-0.46L97.5,30.88,98.13,30l4.33,3.06-0.59.84-3.74.18c-0.33,0-.58,0-0.87,0h0c0.15,0.09.42,0.28,0.61,0.41l2.37,1.68-0.63.89L95.28,34Zm-3,5.58,2.95,1.39a1.27,1.27,0,0,0,.91.1,1.41,1.41,0,0,0,.77-1.64A1.15,1.15,0,0,0,96.93,38l-3-1.41,0.47-1,2.93,1.38a2.11,2.11,0,0,1,1.16,1.14,3,3,0,0,1-1.44,3.2,2,2,0,0,1-1.57-.16l-3-1.43Zm1.08,32-1.26-2.75,4.83-2.21,0.47,1-4,1.83,0.79,1.73Zm3.74,4.69a3.11,3.11,0,0,1-2.3-3.24,2.64,2.64,0,0,1,1.22-1.84,2.76,2.76,0,0,1,2.08-.44,2.79,2.79,0,0,1,1.77,1.25A2.84,2.84,0,0,1,101,73.3,2.92,2.92,0,0,1,97.74,75.35Zm3.62,5.12,0.49-3.74c0-.33.09-0.58,0.14-0.86h0c-0.12.13-.35,0.36-0.52,0.53l-2.09,2-0.78-.8,3.82-3.69,0.79,0.81-0.46,3.6c0,0.34-.09.59-0.14,0.85h0c0.17-.19.42-0.43,0.58-0.58l1.95-1.88,0.78,0.8-3.82,3.69Zm3.77,3.12-1.39-1,3.06-4.33,1.47,1c1.58,1.11,1.87,2.58,1,3.87S106.66,84.68,105.13,83.6Zm8.42,3.93A3.11,3.11,0,0,1,109.9,86a2.64,2.64,0,0,1,.08-2.2,2.69,2.69,0,0,1,3.7-1.33,2.84,2.84,0,0,1,1.57,1.64A2.92,2.92,0,0,1,113.55,87.53Zm6.63,2.7-1-.26-1.53-3.45c-0.13-.3-0.22-0.54-0.32-0.81h0c0,0.17-.11.49-0.17,0.72l-0.73,2.81L115.32,89l1.34-5.14,1.1,0.29,1.48,3.32c0.14,0.31.23,0.55,0.32,0.8h0c0-.25.13-0.58,0.19-0.8l0.68-2.62,1.08,0.28Zm8.43,0.55,0-2.22-2.51,0,0,2.22H125l0-5.31h1.13l0,2.13,2.51,0V85.47h1.12l0,5.31h-1.13ZM136,89.05a3.11,3.11,0,0,1-3.87.88,2.64,2.64,0,0,1-1.23-1.83,2.76,2.76,0,0,1,.4-2.09,2.79,2.79,0,0,1,1.83-1.15,2.84,2.84,0,0,1,2.23.41A2.92,2.92,0,0,1,136,89.05Zm3.65-.33a3.09,3.09,0,0,1-1.79.11l0.14-.9a2.27,2.27,0,0,0,1.31,0,0.7,0.7,0,0,0,.61-0.8c-0.24-.66-1.51-0.33-2.38-0.8a1.36,1.36,0,0,1-.64-0.77,1.62,1.62,0,0,1,1.22-2,2.82,2.82,0,0,1,1.39-.16l0.3,0.9a2.7,2.7,0,0,0-1.34.07,0.6,0.6,0,0,0-.51.7c0.31,0.86,2.47,0,3,1.58A1.74,1.74,0,0,1,139.61,88.72Zm3.72-3.67-0.18.09L144,86.77l-1,.52-2.45-4.71,1.31-.68a1.71,1.71,0,0,1,2.56.61A1.88,1.88,0,0,1,143.32,85.05Zm4-.2-2.94-4.42,0.94-.62,2.94,4.42Zm3.6-2.63-2.87-3.35-1.2,1-0.59-.68,3.36-2.88L150,77.19l-1.1.95,2.87,3.35Zm4.95-4.94-1.32-.47-1.22,1.38L154,79.42l-0.74.83-2.58-5.13,0.57-.64,5.45,1.89Zm1.56-2L153,72.3l0.62-.93,3.66,2.43,1.05-1.59,0.76,0.5Zm3.1-5a3.09,3.09,0,0,1-1.21,1.32l-0.52-.74a2.27,2.27,0,0,0,.92-0.93,0.7,0.7,0,0,0-.12-1c-0.63-.31-1.32.81-2.27,1.08a1.37,1.37,0,0,1-1-.11,1.62,1.62,0,0,1-.54-2.32,2.81,2.81,0,0,1,.89-1.08l0.84,0.44a2.71,2.71,0,0,0-.92,1,0.6,0.6,0,0,0,.12.86c0.82,0.41,1.78-1.71,3.28-1A1.74,1.74,0,0,1,160.55,70.2Zm-0.41-31.88-1.13.51,0.7,1.54-0.83.38-0.7-1.54-1.23.56,0.81,1.79-0.82.37-1.27-2.79,4.83-2.19,1.27,2.8-0.94.11Z"/><path class="cls-1" d="M152.89,77.36l0.78-.88-1-.41a4.35,4.35,0,0,1-.62-0.29h0a4.2,4.2,0,0,1,.34.57Z"/><path class="cls-1" d="M142.17,82.77l-0.21.11,0.8,1.53,0.22-.11a0.83,0.83,0,0,0,.45-1.23A0.85,0.85,0,0,0,142.17,82.77Z"/><path class="cls-1" d="M133.25,85.75a1.84,1.84,0,1,0,1.92,1.5A1.62,1.62,0,0,0,133.25,85.75Z"/><path class="cls-1" d="M107.69,80l-0.49-.35-2,2.84,0.5,0.36a1.66,1.66,0,0,0,2.54-.36A1.65,1.65,0,0,0,107.69,80Z"/><path class="cls-1" d="M113.3,83.26A1.84,1.84,0,1,0,114,85.6,1.62,1.62,0,0,0,113.3,83.26Z"/><polyline class="cls-2" points="182 44.02 176.91 49.1 77.03 57.68 72.03 62.69 182 62.69 182 44.02 182 44.02"/><polyline class="cls-3" points="72 44.02 72 62.69 72.03 62.69 77.03 57.68 176.91 49.1 182 44.02 72 44.02"/><rect class="cls-4" x="74.14" y="46.13" width="105.71" height="14.45"/><polyline class="cls-3" points="179.86 60.57 179.86 60.39 74.33 60.39 74.33 46.31 179.67 46.31 179.67 60.57 179.86 60.57 179.86 60.39 179.86 60.57 180.04 60.57 180.04 45.95 73.96 45.95 73.96 60.76 180.04 60.76 180.04 60.57 179.86 60.57"/><path class="cls-1" d="M112.81,20.92a0.73,0.73,0,0,0-1-.32l-0.42.19,0.64,1.4,0.43-.19A0.8,0.8,0,0,0,112.81,20.92Z"/><path class="cls-1" d="M141.24,24a1.61,1.61,0,0,0,2.21-1,1.6,1.6,0,1,0-2.85-1.36A1.61,1.61,0,0,0,141.24,24Z"/><path class="cls-5" d="M91,55.34l-0.29,1.48q-0.43.13-.89,0.24t-1,.18a15.88,15.88,0,0,1-2.19.14,7.05,7.05,0,0,1-4.18-1.09A3.58,3.58,0,0,1,81,53.2a4,4,0,0,1,1.46-3.33,6.49,6.49,0,0,1,4.13-1.15q0.6,0,1.14,0t1,0.09L89.62,49c0.26,0.06,1.07.28,1.29,0.34l-0.32.09L90,50.77l-0.23-.08-0.18-.07-0.23-.06L89,50.47c-0.31-.07-0.61-0.13-0.92-0.17a7,7,0,0,0-.91-0.06,3.84,3.84,0,0,0-2.51.76,2.59,2.59,0,0,0-.91,2.12,2.29,2.29,0,0,0,.95,1.93,4,4,0,0,0,2.5.72,8.51,8.51,0,0,0,2-.24l0.88-.22a5.56,5.56,0,0,0,1.19-.43L91,55.34"/><polyline class="cls-5" points="103.02 57.47 102.77 57.72 102.77 53.79 98.72 53.79 98.72 57.23 96.14 57.48 95.89 57.72 95.89 48.86 99.2 48.86 98.95 49.1 98.72 52.12 102.77 52.12 102.77 48.86 106.08 48.86 105.83 49.11 105.59 57.23 103.02 57.47"/><path class="cls-5" d="M119.34,57.23l-0.32.24,0,0.24-1-1.82h-5.19l-0.77,1.33-2.38.25-0.54.24,5.48-8.86h2.43l0,0.25,0,0.14,4.64,8h-2.38m-3.83-5.78-1.87,3.12h3.64Z"/><path class="cls-5" d="M133.33,57.23l-0.07.49-1.91-3.25a1.16,1.16,0,0,0-.34-0.31,2.43,2.43,0,0,0-1-.13h-1.62v3.2h-2.31l-0.51.49V48.86h6.39a4.33,4.33,0,0,1,2.41.59,1.85,1.85,0,0,1,.9,1.6,1.83,1.83,0,0,1-.72,1.62,5.32,5.32,0,0,1-2.26.71,8.71,8.71,0,0,1,.86.23,3.14,3.14,0,0,1,.68.3,3.69,3.69,0,0,1,.81.69l1.6,2.63h-2.88M132,50.51a2.81,2.81,0,0,0-1.36-.27H128.3v2.43h1.92a3.92,3.92,0,0,0,1.69-.28,1,1,0,0,0,.58-1A1,1,0,0,0,132,50.51Z"/><polyline class="cls-5" points="140.97 57.23 140.49 57.72 140.49 48.86 143.8 48.86 143.31 49.35 143.31 57.23 140.97 57.23"/><polyline class="cls-5" points="154 50.55 154 57.23 151.67 57.23 151.18 57.72 151.18 50.55 148.62 50.55 148.12 51.04 148.12 48.86 157.54 48.86 157.04 49.35 157.04 50.55 154 50.55"/><path class="cls-1" d="M91.25,57.34q-0.43.13-.89,0.24t-1,.18a15.88,15.88,0,0,1-2.19.14A7.05,7.05,0,0,1,83,56.81a3.58,3.58,0,0,1-1.52-3.09,4,4,0,0,1,1.46-3.33,6.49,6.49,0,0,1,4.13-1.15q0.6,0,1.14,0t1,0.09l0.87,0.15a1.87,1.87,0,0,0,.48-0.06l0.32-.09-0.4,1.91-0.23-.08-0.18-.07-0.23-.06L89.49,51q-0.46-.11-0.92-0.17a7,7,0,0,0-.91-0.06,3.84,3.84,0,0,0-2.51.76,2.59,2.59,0,0,0-.91,2.12,2.29,2.29,0,0,0,.95,1.93,4,4,0,0,0,2.5.72,8.51,8.51,0,0,0,2-.24l0.88-.22A0.63,0.63,0,0,0,91,55.34l0.25-.45,0,2.45"/><polyline class="cls-1" points="102.77 57.72 103.02 57.47 103.04 57.12 103.26 54.28 103.12 53.93 102.77 54.28 99.2 54.28 99.2 57.72 95.89 57.72 96.14 57.48 96.38 49.35 98.95 49.1 99.2 48.86 99.2 52.12 98.93 52.39 99.2 52.61 103.26 52.61 103.26 49.35 105.83 49.11 106.08 48.86 106.08 57.72 102.77 57.72"/><path class="cls-1" d="M119,57.72l0-.24-0.07-.32-0.43-.77-0.25-.33,0,0.33h-5l-0.77,1.33h-3.41l0.54-.24,5.43-8.13h1.82l0.17-.24,0-.25,5.16,8.86H119m-3-5.78-0.28-.34,0.17,0.53-1.47,2.44-0.61.28L114.13,55h3.64Z"/><path class="cls-1" d="M133.26,57.72l-0.06-.36L131.84,55a1.19,1.19,0,0,0-.34-0.31,2.43,2.43,0,0,0-1-.13h-1.62v3.2h-3.3l0.48-.46V49.35h6.39a4.32,4.32,0,0,1,2.41.59,1.85,1.85,0,0,1,.9,1.6,1.83,1.83,0,0,1-.72,1.62,4.25,4.25,0,0,1-1.54.59,6.21,6.21,0,0,1-1.06-.13,1.72,1.72,0,0,1,.33.25q0.45,0.09.86,0.23a3.16,3.16,0,0,1,.68.3,3.71,3.71,0,0,1,.81.69l1.6,2.63h-3.43M132.52,51a2.81,2.81,0,0,0-1.36-.27h-2.37v1.94l-0.36.35,0.36,0.14h1.92a3.93,3.93,0,0,0,1.7-.28,1,1,0,0,0,.58-1A1,1,0,0,0,132.52,51Z"/><polyline class="cls-1" points="140.5 57.72 140.97 57.23 140.97 49.35 143.31 49.35 143.79 48.86 143.79 57.72 140.5 57.72"/><polyline class="cls-1" points="154.49 51.04 154.49 57.72 151.18 57.72 151.67 57.23 151.67 51.04 151.57 50.66 151.18 51.04 148.12 51.04 148.61 50.56 148.61 49.35 157.04 49.35 157.53 48.86 157.53 51.04 154.49 51.04"/><polyline class="cls-5" points="172.8 49.1 172.07 49.39 168.07 53.81 168.07 57.28 165.7 57.29 165.23 57.72 165.23 53.94 165.12 53.81 160.62 48.86 164.18 48.86 164.27 49.1 166.91 52.13 169.56 48.86 173.49 48.86 172.8 49.1"/><polyline class="cls-1" points="168.56 54.3 168.56 57.72 165.23 57.72 165.74 57.25 165.74 54.3 161.25 49.35 164.28 49.12 164.18 48.85 166.99 52.04 167.16 52.37 167.4 52.62 170.04 49.35 172.44 49.35 172.8 49.1 173.49 48.86 168.56 54.3"/><path class="cls-1" d="M91,57.07q-0.43.13-.89,0.24t-1,.18a15.89,15.89,0,0,1-2.19.14,7.06,7.06,0,0,1-4.18-1.09,3.58,3.58,0,0,1-1.52-3.09,4,4,0,0,1,1.46-3.33A6.49,6.49,0,0,1,86.83,49q0.6,0,1.14,0t1,0.09l0.87,0.15,0.73,0.18L90.26,51,90,50.93l-0.18-.07-0.23-.06-0.36-.09q-0.46-.11-0.92-0.17a7.1,7.1,0,0,0-.91-0.06,3.85,3.85,0,0,0-2.51.76A2.59,2.59,0,0,0,84,53.37a2.29,2.29,0,0,0,.95,1.93,4,4,0,0,0,2.5.72,8.5,8.5,0,0,0,2-.24l0.88-.23a7.2,7.2,0,0,0,.7-0.22l0,1.73"/><polyline class="cls-1" points="103.01 57.47 103.01 54.03 98.96 54.03 98.96 57.47 96.14 57.47 96.14 49.1 98.96 49.1 98.96 52.36 103.01 52.36 103.01 49.1 105.83 49.1 105.83 57.47 103.01 57.47"/><path class="cls-1" d="M119,57.47l-0.75-1.33h-5.19l-0.77,1.33h-2.62l5.18-8.37h2.23L122,57.47h-3m-3.26-5.78-1.87,3.12h3.64Z"/><path class="cls-1" d="M133.22,57.47l-1.62-2.76a1.18,1.18,0,0,0-.34-0.31,2.43,2.43,0,0,0-1-.13h-1.62v3.2H125.8V49.1h6.39a4.32,4.32,0,0,1,2.41.59,1.85,1.85,0,0,1,.9,1.6,1.83,1.83,0,0,1-.72,1.62,5.32,5.32,0,0,1-2.26.71q0.45,0.1.86,0.23a3.22,3.22,0,0,1,.68.3,3.73,3.73,0,0,1,.81.69l1.6,2.63h-3.24m-0.94-6.72a2.81,2.81,0,0,0-1.36-.27h-2.37v2.43h1.92a3.92,3.92,0,0,0,1.69-.28,1,1,0,0,0,.58-1A1,1,0,0,0,132.28,50.75Z"/><rect class="cls-1" x="140.73" y="49.1" width="2.82" height="8.37"/><polyline class="cls-1" points="154.24 50.8 154.24 57.47 151.42 57.47 151.42 50.8 148.36 50.8 148.36 49.1 157.29 49.1 157.29 50.8 154.24 50.8"/><polyline class="cls-1" points="168.32 54.06 168.32 57.47 165.5 57.47 165.5 54.06 161 49.1 164.28 49.1 167.16 52.37 169.8 49.1 172.8 49.1 168.32 54.06"/></svg>