<svg id="Layer_1" data-name="Layer 1" xmlns="http://www.w3.org/2000/svg" viewBox="0 0 254 121"><defs><style>.cls-1{fill:#fff;}</style></defs><title>LD_website logo</title><path class="cls-1" d="M98.29,94.51c-2.63,2.58-6.74,3.82-11,3.82C80.88,98.33,72,93.57,72,82,72,69.91,82.51,65.3,89.46,65.3A17.8,17.8,0,0,1,97,66.84c0.05,2.48.25,5,.5,7.44H96.8c-1-4.51-5.21-5.9-8.68-5.9-6.6,0-11.56,4.71-11.56,12C76.56,88,82,95,89,95a17.7,17.7,0,0,0,9.52-3.22l-0.2,2.78"/><path class="cls-1" d="M104.68,78.79c0-1.69-.6-2.13-2.28-2.23v-0.4c2.18-.64,4.91-1.59,6.7-2.23-0.1,1.09-.15,2.78-0.15,4.46H109a7.2,7.2,0,0,1,6.15-4,4,4,0,0,1,1.93.39c0.1,1.09.2,2.43,0.2,4.17a5.47,5.47,0,0,0-3.23-1.19c-3.12,0-5.16,2.88-5.16,6.1V95.25c0,1.19,1.29,1.73,2.68,1.88v0.69c-1.68-.15-3-0.3-4.81-0.3s-3.12.15-4.81,0.3V97.14c1.39-.15,2.68-0.69,2.68-1.88V78.79"/><path class="cls-1" d="M142,85.24c0-6.84-3.77-11.31-11.31-11.31a11.69,11.69,0,0,0-12,12.05c0,7.19,4.71,12.35,11.66,12.35a15,15,0,0,0,10.17-3.42l0.35-3.23c-4,2.83-5.5,3.27-8,3.27-5.75,0-9.62-4.07-9.57-9.72H142m-18.45-2.48a7.16,7.16,0,0,1,7.19-6.35,6,6,0,0,1,6.4,6.35H123.53Z"/><path class="cls-1" d="M146.44,91.44H147c1.74,3.72,4.71,4.41,7.89,4.41,3.77,0,5.75-1.59,5.75-3.77,0-2.58-1.24-3-7.09-4.22-4.66-.94-7.29-2.92-7.29-6.45,0-4.41,3.82-7.49,10.22-7.49a41.23,41.23,0,0,1,6.5.94v5.55h-0.69c-0.89-2.68-3.27-4-6.1-4-3.57,0-6,1.49-6,4.12,0,2.33,2.13,2.92,6.45,3.72,5.21,1,7.64,2.33,7.64,6.7,0,4.66-3.82,7.39-10.31,7.39a15.72,15.72,0,0,1-7.19-1.73l-0.4-5.16"/><path class="cls-1" d="M167.57,74.43h3.22V70.51a9,9,0,0,0,4.27-3.28v7.19h6.74V76.9h-6.74V91.68c0,2.28.4,4.17,2.68,4.17A7.18,7.18,0,0,0,182,94.36l-0.45,2.83a11.13,11.13,0,0,1-4.71,1.14c-4.51,0-6.05-1.93-6.05-6.2V76.9h-3.22V74.43"/><path class="cls-1" d="M74.77,105.47c0-.51-0.22-0.65-0.92-0.76v-0.25c0.51,0,1,.11,1.54.11s0.89-.11,1.34-0.11l6.14,8.44h0v-6.54c0-1.21-.29-1.48-1.26-1.64v-0.25c0.51,0,1,.11,1.52.11s1.19-.11,1.79-0.11v0.25c-0.7.11-.92,0.25-0.92,0.76v10.66H83l-7-9.69h0v7.79c0,1.21.29,1.48,1.27,1.64v0.25c-0.51,0-1-.11-1.52-0.11s-1.19.11-1.79,0.11v-0.25c0.7-.11.92-0.25,0.92-0.76v-9.65"/><path class="cls-1" d="M87.83,115.88c0.71-.11.92-0.25,0.92-0.76v-9.65c0-.51-0.22-0.65-0.92-0.76v-0.25c0.38,0,1.12.11,1.81,0.11s1.43-.11,1.81-0.11v0.25c-0.71.11-.92,0.25-0.92,0.76v9.65c0,0.51.22,0.65,0.92,0.76v0.25c-0.38,0-1.12-.11-1.81-0.11s-1.43.11-1.81,0.11v-0.25"/><path class="cls-1" d="M103.7,114.93a5.72,5.72,0,0,1-4,1.39,5.63,5.63,0,0,1-5.58-6c0-4.39,3.83-6.07,6.36-6.07a6.51,6.51,0,0,1,2.75.56c0,0.9.09,1.81,0.18,2.71h-0.25A3,3,0,0,0,100,105.4a4.1,4.1,0,0,0-4.21,4.35c0,2.78,2,5.33,4.52,5.33a6.44,6.44,0,0,0,3.47-1.17l-0.07,1"/><path class="cls-1" d="M106.59,115.88c0.71-.11.92-0.25,0.92-0.76v-9.65c0-.51-0.22-0.65-0.92-0.76v-0.25c0.38,0,1.12.11,1.8,0.11s1.43-.11,1.81-0.11v0.25c-0.71.11-.92,0.25-0.92,0.76v4H115v-4c0-.51-0.22-0.65-0.92-0.76v-0.25c0.38,0,1.12.11,1.81,0.11s1.43-.11,1.81-0.11v0.25c-0.71.11-.92,0.25-0.92,0.76v9.65c0,0.51.22,0.65,0.92,0.76v0.25c-0.38,0-1.12-.11-1.81-0.11s-1.43.11-1.81,0.11v-0.25c0.71-.11.92-0.25,0.92-0.76v-4.55h-5.71v4.55c0,0.51.22,0.65,0.92,0.76v0.25c-0.38,0-1.12-.11-1.81-0.11s-1.43.11-1.8,0.11v-0.25"/><path class="cls-1" d="M120.27,110.33c0,3.27,2,6,5.66,6a6,6,0,0,0,5.87-6.16c0-2.64-1.59-5.87-5.6-5.87a6.17,6.17,0,0,0-5.93,6.05m1.66-.45c0-3.33,2.42-4.37,3.74-4.37,2.3,0,4.46,2.13,4.46,5.3,0,2.87-1.86,4.28-3.78,4.28C123.58,115.09,121.93,112.43,121.93,109.89Z"/><path class="cls-1" d="M134.94,105.47c0-.51-0.22-0.65-0.92-0.76v-0.25c0.38,0,1.12.11,1.81,0.11s1.43-.11,2-0.11v0.25c-0.92.07-1.16,0.34-1.16,0.76V115h3.43c1.66,0,2.15-.47,2.31-2.15h0.32c-0.09,1-.13,2.12-0.14,3.16H134v-0.25c0.71-.11.92-0.25,0.92-0.76v-9.54"/><path class="cls-1" d="M145.64,112.67a3.38,3.38,0,0,0,3.54,2.64c1.32,0,2.82-.71,2.82-2.31,0-1.45-.87-1.73-2.11-2-3.11-.61-4.79-1.17-4.79-3.38,0-1.79,1.88-3.34,4.79-3.34a7.67,7.67,0,0,1,3,.6c0,0.83,0,1.68.07,2.51H152.6c-0.25-1.57-1.74-2.09-3-2.09-1.95,0-2.94.92-2.94,2.06,0,1.3.71,1.5,2.93,2s4,0.9,4,3.31c0,2-1.52,3.7-4.88,3.7a6.18,6.18,0,0,1-3.29-.85c0-.94,0-1.86-0.11-2.8h0.36"/><path class="cls-1" d="M156,110.33c0,3.27,2,6,5.66,6a6,6,0,0,0,5.88-6.16c0-2.64-1.59-5.87-5.6-5.87a6.17,6.17,0,0,0-5.93,6.05m1.67-.45c0-3.33,2.42-4.37,3.74-4.37,2.29,0,4.46,2.13,4.46,5.3,0,2.87-1.86,4.28-3.78,4.28C159.27,115.09,157.63,112.43,157.63,109.89Z"/><path class="cls-1" d="M171,105.47c0-.51-0.22-0.65-0.92-0.76v-0.25c0.51,0,1,.11,1.54.11s0.89-.11,1.34-0.11l6.15,8.44h0v-6.54c0-1.21-.29-1.48-1.26-1.64v-0.25c0.51,0,1,.11,1.52.11s1.19-.11,1.79-0.11v0.25c-0.71.11-.92,0.25-0.92,0.76v10.66h-1.07l-7-9.69h0v7.79c0,1.21.29,1.48,1.27,1.64v0.25c-0.51,0-1-.11-1.52-0.11s-1.19.11-1.79,0.11v-0.25c0.71-.11.92-0.25,0.92-0.76v-9.65"/><path class="cls-1" d="M118,43.76c0.22,0,.35,0,0.27.15a1.53,1.53,0,0,0-.51.29c-0.11.24,0.23,0.19,0.22,0.36a0.7,0.7,0,0,0-.07.56,0.43,0.43,0,0,0,.5,0,0.79,0.79,0,0,1,.47.16,0.26,0.26,0,0,0,.26-0.31c0-.09,0-0.25.13-0.26a0.23,0.23,0,0,1,.19.23c0,0.07.09,0.54,0.38,0.45a0.68,0.68,0,0,0,.24-0.64,1,1,0,0,1,0-.7c0.16-.05.27,0.33,0.27,0.33s0.08,0.3.3,0.18a0.47,0.47,0,0,0,.14-0.47,4.6,4.6,0,0,1-.22-0.93c0-.12.14-0.28,0.29-0.09s0.17,0.26.32,0.17a0.8,0.8,0,0,0,.13-0.54,3.74,3.74,0,0,1,0-1.28c0.14-.17.27-0.21,0.41-0.11A0.61,0.61,0,0,1,122,42a2.44,2.44,0,0,0-.13,1.33c0.2,0.22.36,0,.43-0.15s0.17-.1.2,0,0.09,0.14-.13.47a0.84,0.84,0,0,0-.15.9,0.28,0.28,0,0,0,.41-0.2c0.07-.22.12-0.43,0.29-0.32a0.6,0.6,0,0,1,0,.54s-0.37.75,0,.9a0.31,0.31,0,0,0,.43-0.27,1.84,1.84,0,0,0,0-.3c0-.12,0-0.3.13-0.27a0.22,0.22,0,0,1,.13.27c0,0.12,0,.54.25,0.51a1.13,1.13,0,0,0,.43-0.24,0.44,0.44,0,0,1,.27.09,0.4,0.4,0,0,0,.35-0.05,0.35,0.35,0,0,0,.08-0.42c-0.07-.23,0-0.27.09-0.36a0.22,0.22,0,0,0,.1-0.33,0.43,0.43,0,0,0-.43-0.2c-0.14,0-.16,0-0.17-0.09a0.34,0.34,0,0,1,.34-0.18c0.12,0,.26.05,0.35-0.28s-0.68-.25-0.76-0.35-0.13-.19,0-0.28,0.25,0,.43,0a0.26,0.26,0,0,0,.19-0.33,0.42,0.42,0,0,0-.46-0.36c-0.34,0-.59.2-0.64,0s0.23-.27.26-0.27a0.16,0.16,0,0,0,.15-0.22,0.46,0.46,0,0,0-.39-0.26,1.33,1.33,0,0,0-.59.09,1.27,1.27,0,0,1-1.11-.09,2.11,2.11,0,0,1-.31-0.31,4.44,4.44,0,0,0,1-.34,1,1,0,0,0,1,.35,0.48,0.48,0,0,0,.27-0.32,2.16,2.16,0,0,1-.88-1.32,0.46,0.46,0,0,0-.38.12,0.75,0.75,0,0,0-.15.87,4.12,4.12,0,0,1-.93.31,1,1,0,0,1,0-.56,2.71,2.71,0,0,1,.85-0.76,0.94,0.94,0,0,0,.48-0.69c-0.08-.32-0.26-0.18-0.37-0.1s-0.22.14-.3,0a0.44,0.44,0,0,1,.16-0.34s0.24-.19.6-0.46a0.46,0.46,0,0,0,.23-0.61,0.33,0.33,0,0,0-.49,0c-0.24.23-.41,0.12-0.45,0a0.35,0.35,0,0,1,.18-0.38,0.65,0.65,0,0,0,.37-0.7,0.24,0.24,0,0,0-.39-0.14l-0.14.22a0.14,0.14,0,0,1-.22,0,0.4,0.4,0,0,1,0-.35,0.26,0.26,0,0,0,0-.39c-0.16-.09-0.16,0-0.24,0s-0.15,0-.18-0.24a0.34,0.34,0,0,0-.29-0.28,0.27,0.27,0,0,0-.31.21s0,0.27-.11.26a0.34,0.34,0,0,1-.21-0.11,0.16,0.16,0,0,0-.22,0,0.37,0.37,0,0,0,0,.36c0.06,0.15.18,0.4,0.06,0.46a0.47,0.47,0,0,1-.37-0.17,0.31,0.31,0,0,0-.37,0,0.33,0.33,0,0,0,0,.53c0.21,0.16.52,0.35,0.39,0.54s-0.27.05-.38,0a0.37,0.37,0,0,0-.47,0,0.41,0.41,0,0,0,0,.62,7.44,7.44,0,0,0,.84.56,0.22,0.22,0,0,1,.11.29c-0.11.18-.39,0-0.39,0a0.25,0.25,0,0,0-.35,0,0.49,0.49,0,0,0,.13.49,3.81,3.81,0,0,0,.77.57,0.83,0.83,0,0,1,.4,1l0,0a4.32,4.32,0,0,1-.94-0.31,0.76,0.76,0,0,0-.15-0.87,0.48,0.48,0,0,0-.39-0.12,2.17,2.17,0,0,1-.88,1.32,0.47,0.47,0,0,0,.27.32,1,1,0,0,0,1-.36,4.26,4.26,0,0,0,.8.29,1.69,1.69,0,0,1-.37.18,8.44,8.44,0,0,1-1.29.31c-0.26.05-.72,0.17-0.69,0.44s0.4,0.16.4,0.16a0.09,0.09,0,0,1,.15.09c0,0.16-.25.16-0.25,0.16a1.17,1.17,0,0,1-.29,0,0.65,0.65,0,0,0-.66.15c-0.13.22-.14,0.45,0.1,0.45s0.76,0,.72.25-0.39.13-.39,0.13-0.68-.2-0.81.18,0.18,0.41.39,0.42"/><path class="cls-1" d="M124.49,40.37a1.8,1.8,0,0,0,.82-0.8,0.85,0.85,0,0,0,.05-0.45,0.13,0.13,0,0,0,0-.18,0.14,0.14,0,0,0-.17-0.05,0.84,0.84,0,0,0-.43-0.13,1.82,1.82,0,0,0-1.08.45,1.82,1.82,0,0,0,.78,1.16"/><path class="cls-1" d="M117.9,39.58a1.79,1.79,0,0,0,.82.8,1.84,1.84,0,0,0,.78-1.16,1.84,1.84,0,0,0-1.08-.45,0.85,0.85,0,0,0-.43.14,0.14,0.14,0,0,0-.17.05,0.13,0.13,0,0,0,0,.18,0.86,0.86,0,0,0,.05.45"/><path class="cls-1" d="M135.68,44.34a1,1,0,1,1,1-1,1,1,0,0,1-1,1m0.53-2.94V35.24H135.1V36h-0.6V36.5h-0.59V36h-1.19V36.5h0.6V37h-0.6v0.54h0.6v0.55h-0.6v0.55h1.19V38.13h0.59v0.54h0.6v2.72A2.05,2.05,0,1,0,136.21,41.4Z"/><path class="cls-1" d="M130,38.26a1,1,0,1,1,1-1,1,1,0,0,1-1,1m1.76,4.28h-0.59V42h-0.6V39.26a2.05,2.05,0,1,0-1.1,0v6.15h1.1V44.72h0.6V44.18h0.59v0.54H133V44.18h-0.6V43.63H133V43.09h-0.6V42.54H133V42h-1.19v0.54Z"/><path class="cls-1" d="M132.28,58.72c-0.15,0-.3,0-0.46,0a3.93,3.93,0,0,1-2.31-.64,4.53,4.53,0,0,0-4.62,0,3.92,3.92,0,0,1-2.31.64l-0.43,0a18.1,18.1,0,0,1-3.05-4,3.14,3.14,0,0,1,1.17.5,4.52,4.52,0,0,0,4.62,0,4.52,4.52,0,0,1,4.62,0,4.52,4.52,0,0,0,4.62,0,3.15,3.15,0,0,1,1.2-.51,18.08,18.08,0,0,1-3.05,4m-5.07,3.47A17.52,17.52,0,0,1,125,61a4.57,4.57,0,0,1,4.46,0A17.7,17.7,0,0,1,127.21,62.19ZM116.14,43.38V34.67h10.74V45.83a3.7,3.7,0,0,0-2,.63,4.52,4.52,0,0,1-4.62,0,3.92,3.92,0,0,0-2.31-.64,4.91,4.91,0,0,0-1.3.17l-0.31.11a21.13,21.13,0,0,1-.19-2.6V43.38Zm20.29,8.25a3.93,3.93,0,0,0-2.31.64,4.51,4.51,0,0,1-4.62,0,4.52,4.52,0,0,0-4.62,0,4.51,4.51,0,0,1-4.62,0,3.93,3.93,0,0,0-2.31-.64h-0.27a24.66,24.66,0,0,1-.85-2.8,5,5,0,0,1,1.11-.13,3.91,3.91,0,0,1,2.31.64,4.52,4.52,0,0,0,4.62,0,4.51,4.51,0,0,1,4.62,0,4.52,4.52,0,0,0,4.62,0,3.91,3.91,0,0,1,2.31-.64,5,5,0,0,1,1.13.13,24.2,24.2,0,0,1-.84,2.8h-0.28Zm1.81-8.12a21.64,21.64,0,0,1-.18,2.58L137.74,46a4.89,4.89,0,0,0-1.3-.17,3.92,3.92,0,0,0-2.31.64,4.52,4.52,0,0,1-4.62,0,3.72,3.72,0,0,0-2-.63V34.67h10.73v8.7S138.25,43.43,138.25,43.52Zm0.63-.16V34H115.51v9.33c0,0.13-.29,14.22,11.57,19.46l0.13,0.06,0.13-.06C139.2,57.59,138.88,43.51,138.88,43.36Z"/><path class="cls-1" d="M112.15,33.65a2.73,2.73,0,0,0,.24,1.09c-1-.48-0.65-2.45-1.56-2.45a0.72,0.72,0,0,0-.66.57c-0.06-.26-0.07-0.88.4-0.88a1.35,1.35,0,0,1,.54.18,2.53,2.53,0,0,1-.42-2,3.48,3.48,0,0,0,.63,1.11,1,1,0,0,0,.37-0.63c0,0.77.65,1.13,0.67,1.85a1.34,1.34,0,0,0,.43-1.14,3.75,3.75,0,0,1,.11-2.15h0a2.72,2.72,0,0,1,.29,1.44c0.87-.32.9-2,0.9-2a0.49,0.49,0,0,1,.33-0.12c0.55,0,.55,1.49-0.71,2a0.42,0.42,0,0,0,.32.13,3.24,3.24,0,0,0,1.29-.36c-0.31,1.08-1.68,1.06-2.16,2a8.56,8.56,0,0,1,1.8-.15,0.94,0.94,0,0,1-.67.34,1.38,1.38,0,0,1,1.3.89,1.55,1.55,0,0,1-1.27-.61,1.1,1.1,0,0,1-.29.65,0.81,0.81,0,0,0-.74-0.77,1,1,0,0,0-1.12,1m0.28,10.08a0.77,0.77,0,0,0,.79-0.22,1.43,1.43,0,0,0,.32-0.77,2,2,0,0,1,.41,1.15,1.17,1.17,0,0,1-.89,1c-0.25.8-.08,3.36,0.77,3.36a0.64,0.64,0,0,0,.68-0.47,1.1,1.1,0,0,1-.79,1.26,5.16,5.16,0,0,1,.93,1.81,0.74,0.74,0,0,1-.39.73,3,3,0,0,1,.9,2.34,2,2,0,0,1-1-1.87s-1.57.22-1.92-.79a2.38,2.38,0,0,0,1.64.24,0.93,0.93,0,0,1-.52-0.67,0.63,0.63,0,0,1,.41-0.57,7.5,7.5,0,0,0-.54-1.23,3.12,3.12,0,0,1-.52-1.36l-0.15-2a2,2,0,0,0-.79-1.51,2.3,2.3,0,0,1-.92-2.24C111.21,42.6,111.59,43.6,112.43,43.72Zm8.67-11.31L121,32.17a3.51,3.51,0,0,1-2.69,1.44,1.47,1.47,0,0,1-1.62-1.19,1.29,1.29,0,0,1-.8-1,1.64,1.64,0,0,0,.37-0.07,0.77,0.77,0,0,0,.61-0.59,1.17,1.17,0,0,0-.37-1,1.14,1.14,0,0,1,.65,1.66,1,1,0,0,1,1-.35,0.81,0.81,0,0,1,.51.39v0a1.16,1.16,0,0,0-.93.15l-0.07.07,0,0a0.52,0.52,0,0,0-.09.16l0,0h0a0.87,0.87,0,0,0,0,.21,1.25,1.25,0,0,0,1.47,1,2.93,2.93,0,0,0,2-1.3v0l-0.38-1.54a12.71,12.71,0,0,1-1.92,2.53,0.79,0.79,0,0,1-.83-0.65,0.49,0.49,0,0,1,.51-0.52,1.8,1.8,0,0,1,.92.42,1.33,1.33,0,0,0-1.69-1.25,1.25,1.25,0,0,0-1.69-1.27,1.27,1.27,0,0,1,.81,1.08,0.6,0.6,0,0,1-.69.52,2.93,2.93,0,0,1-.53-0.06c0.09,0.18.15,0.25,0.26,0.42a1.54,1.54,0,0,0,.8,1.22,2.37,2.37,0,0,0,.66,1,2.61,2.61,0,0,1-1.06.54l-0.44.11a4.88,4.88,0,0,1-.91.09c-1,0-1.51-.42-1.51-0.76s0.15-.36.27-0.36c0.37,0,.24.44,0.25,0.67a0.85,0.85,0,0,0,.66-0.63,2,2,0,0,0,2,.25l-0.61-.32a2,2,0,0,0-.72-0.73,1,1,0,0,0,.63-0.62,7.51,7.51,0,0,0-1.85.1,3.37,3.37,0,0,0,2-2,0.82,0.82,0,0,0-.58,0,2.17,2.17,0,0,0,.43-1.31,2,2,0,0,0-1.29-1.49,2.17,2.17,0,0,1,0-.68,3.49,3.49,0,0,0-1-1.52s0,0.51,0,.8a1.76,1.76,0,0,0-.18.71s-0.21.12-.55-0.38a0.68,0.68,0,0,0-.55-0.43c0,0.27-.11.63-0.11,0.85,0,1.08.7,0.83,0.7,1.35a0.81,0.81,0,0,1-.59.45,0.74,0.74,0,0,0,.45.15c0.26,0,.4-0.14.79-0.14a0.51,0.51,0,0,1,.54.44,1.65,1.65,0,0,1-.42,1.19,5.43,5.43,0,0,0-.47-1.47,3.77,3.77,0,0,0-.5,1.54c0,0.57.12,0.66,0.12,1.29a0.92,0.92,0,0,1-.09.49,2.42,2.42,0,0,1-.52-1.37,1.42,1.42,0,0,0-.54-1.17,2.3,2.3,0,0,1-.09,1.42c-0.48-.6-0.49-1.29-0.79-1.43a6.26,6.26,0,0,1-.15,1.34,3.57,3.57,0,0,0,.22,1c-0.13,0-.72-0.05-0.72.89a1.82,1.82,0,0,0,.35,1.06c0-.2.18-1.14,0.67-1.14s0.15,1.3,1,2.16a1.74,1.74,0,0,0,.82.47c-0.36.28-1.45,0.51-1.51,1.57a1.58,1.58,0,0,1,1.54.06,1.17,1.17,0,0,1-1.08.45,0.84,0.84,0,0,1-.78-0.88,1.11,1.11,0,0,1,.21-0.66,1.81,1.81,0,0,0-1.41.71,1.54,1.54,0,0,0-2.3,1.29c0.3-.22,1.54-0.38,1.54.6a1.23,1.23,0,0,1-.8.74v0a11.65,11.65,0,0,1,1.12.32,4.67,4.67,0,0,0,2-.92c-0.18,1-1.27,1.27-1.69,1.69a2.78,2.78,0,0,0-.61,1.5,3.58,3.58,0,0,1,1.67-.42,4.59,4.59,0,0,0-.11,1c0,2.5,1.92,2.17,1.86,3.91a6,6,0,0,0,1.07,4A0.76,0.76,0,0,0,113,51l0,0a2.83,2.83,0,0,1-1.28-.47c0.44,0.6.37,1.06,0.73,1.42a1.9,1.9,0,0,0,1.53.43,1.78,1.78,0,0,0,1.43,1.74,4.44,4.44,0,0,0,.06-0.82,2.77,2.77,0,0,0-.75-1.7A0.88,0.88,0,0,0,115,51a2.78,2.78,0,0,0-.73-1.85,1.52,1.52,0,0,0,.62-1.34,1.38,1.38,0,0,0-.46-1.2,0.74,0.74,0,0,1-.62.62c-0.35,0-.6-0.84-0.6-1.44a1.66,1.66,0,0,1,.13-0.69,1.22,1.22,0,0,0,1-1.19,2,2,0,0,0-1.07-1.86c0,0.14.35,1-.5,1-0.58,0-.75-0.82-0.81-1.23a1.24,1.24,0,0,1,.86.21,3.56,3.56,0,0,1-.64-1.48,1.33,1.33,0,0,1,.4-1,3.37,3.37,0,0,0,.67,2,1.12,1.12,0,0,0,.1-0.47,1.7,1.7,0,0,0,1.92.81,2,2,0,0,1-.57-1.33,1.52,1.52,0,0,0,1-.47V39.94c-0.42,0-1.35-.14-1.35-0.92a2.41,2.41,0,0,1,1.35-1.94V36.86a2.93,2.93,0,0,0-.18-0.3,1.8,1.8,0,0,1-.86,1,1.8,1.8,0,0,1,.62-1.41h0a1.24,1.24,0,0,1-1.7.06,0.75,0.75,0,0,1,1.08-.14,1,1,0,0,1,0-1,2.28,2.28,0,0,0,1,.36l0.3-1h1.62l1.88-.22a15,15,0,0,0,1.66-1.69Z"/><path class="cls-1" d="M141.12,32.69a0.8,0.8,0,0,0-.74.77,1.09,1.09,0,0,1-.29-0.65,1.55,1.55,0,0,1-1.27.61,1.39,1.39,0,0,1,1.3-.89,1,1,0,0,1-.67-0.34,8.56,8.56,0,0,1,1.8.15c-0.48-.95-1.85-0.92-2.16-2a3.25,3.25,0,0,0,1.29.36,0.42,0.42,0,0,0,.31-0.13c-1.27-.55-1.27-2-0.71-2a0.49,0.49,0,0,1,.33.12s0,1.63.9,2a2.69,2.69,0,0,1,.29-1.44h0a3.73,3.73,0,0,1,.11,2.15,1.35,1.35,0,0,0,.43,1.14c0-.71.68-1.07,0.67-1.85a1,1,0,0,0,.37.63,3.41,3.41,0,0,0,.63-1.11,2.53,2.53,0,0,1-.42,2,1.34,1.34,0,0,1,.54-0.18c0.47,0,.46.62,0.4,0.88a0.73,0.73,0,0,0-.66-0.57c-0.91,0-.52,2-1.56,2.45a2.76,2.76,0,0,0,.24-1.09,1,1,0,0,0-1.12-1m2.37,9.23a2.3,2.3,0,0,1-.92,2.24,2,2,0,0,0-.79,1.51l-0.15,2A3.15,3.15,0,0,1,141.1,49a7.35,7.35,0,0,0-.54,1.23,0.63,0.63,0,0,1,.41.57,0.93,0.93,0,0,1-.52.67,2.39,2.39,0,0,0,1.64-.24c-0.35,1-1.91.79-1.92,0.79a2,2,0,0,1-.95,1.87,3,3,0,0,1,.9-2.34,0.74,0.74,0,0,1-.39-0.73,5.21,5.21,0,0,1,.94-1.81,1.1,1.1,0,0,1-.79-1.26,0.64,0.64,0,0,0,.68.47c0.85,0,1-2.56.77-3.36a1.17,1.17,0,0,1-.89-1,2,2,0,0,1,.41-1.15,1.45,1.45,0,0,0,.32.77,0.77,0.77,0,0,0,.79.22C142.81,43.6,143.18,42.6,143.49,41.93ZM133.27,32.5a15.33,15.33,0,0,0,1.66,1.69l1.88,0.22h1.62l0.3,1a2.27,2.27,0,0,0,1-.36,1,1,0,0,1,0,1,0.75,0.75,0,0,1,1.08.14,1.24,1.24,0,0,1-1.71-.06h0a1.8,1.8,0,0,1,.62,1.41,1.79,1.79,0,0,1-.86-1,2.06,2.06,0,0,0-.18.3v0.21A2.41,2.41,0,0,1,140.08,39c0,0.79-.93.91-1.35,0.92v0.28a1.5,1.5,0,0,0,1,.47,2,2,0,0,1-.57,1.33,1.69,1.69,0,0,0,1.92-.81,1.21,1.21,0,0,0,.1.47,3.36,3.36,0,0,0,.67-2,1.34,1.34,0,0,1,.4,1,3.58,3.58,0,0,1-.64,1.48,1.24,1.24,0,0,1,.86-0.21c-0.06.41-.23,1.23-0.81,1.23-0.85,0-.55-0.9-0.51-1A2,2,0,0,0,140.1,44a1.22,1.22,0,0,0,1,1.19,1.72,1.72,0,0,1,.12.69c0,0.6-.25,1.44-0.6,1.44a0.75,0.75,0,0,1-.62-0.62,1.38,1.38,0,0,0-.46,1.2,1.53,1.53,0,0,0,.61,1.34A2.79,2.79,0,0,0,139.4,51a0.89,0.89,0,0,0,.34.61,2.76,2.76,0,0,0-.75,1.7,4.29,4.29,0,0,0,.06.82,1.78,1.78,0,0,0,1.43-1.74A1.9,1.9,0,0,0,142,52c0.35-.35.28-0.82,0.73-1.42a2.84,2.84,0,0,1-1.28.47l0,0a0.76,0.76,0,0,0-.48-0.93,6,6,0,0,0,1.07-4c-0.06-1.74,1.86-1.41,1.86-3.91a4.59,4.59,0,0,0-.11-1,3.57,3.57,0,0,1,1.67.42,2.78,2.78,0,0,0-.6-1.5c-0.42-.42-1.51-0.65-1.69-1.69a4.67,4.67,0,0,0,2,.92,11.64,11.64,0,0,1,1.12-.32v0a1.23,1.23,0,0,1-.8-0.74c0-1,1.24-.82,1.54-0.6a1.54,1.54,0,0,0-2.31-1.29,1.81,1.81,0,0,0-1.41-.71,1.12,1.12,0,0,1,.21.66,0.84,0.84,0,0,1-.78.88,1.18,1.18,0,0,1-1.08-.45,1.58,1.58,0,0,1,1.54-.06c-0.07-1.06-1.16-1.29-1.52-1.57a1.73,1.73,0,0,0,.82-0.47c0.87-.87.5-2.16,1-2.16s0.63,0.94.67,1.14a1.82,1.82,0,0,0,.34-1.06c0-.94-0.59-0.89-0.72-0.89a3.47,3.47,0,0,0,.22-1,6.15,6.15,0,0,1-.15-1.34c-0.3.14-.31,0.83-0.79,1.43a2.28,2.28,0,0,1-.09-1.42,1.42,1.42,0,0,0-.54,1.17,2.43,2.43,0,0,1-.52,1.37,0.9,0.9,0,0,1-.09-0.49c0-.63.12-0.72,0.12-1.29a3.83,3.83,0,0,0-.49-1.54,5.43,5.43,0,0,0-.47,1.47,1.64,1.64,0,0,1-.42-1.19,0.51,0.51,0,0,1,.54-0.44c0.39,0,.52.14,0.79,0.14a0.74,0.74,0,0,0,.45-0.15,0.81,0.81,0,0,1-.59-0.45c0-.52.7-0.27,0.7-1.35,0-.22-0.11-0.58-0.11-0.85a0.68,0.68,0,0,0-.55.43c-0.34.49-.55,0.38-0.55,0.38a1.78,1.78,0,0,0-.18-0.71c0-.29,0-0.8,0-0.8a3.5,3.5,0,0,0-1,1.52,2.17,2.17,0,0,1,0,.68,2,2,0,0,0-1.29,1.49,2.17,2.17,0,0,0,.43,1.31,0.83,0.83,0,0,0-.59,0,3.38,3.38,0,0,0,2,2,7.53,7.53,0,0,0-1.85-.1,1,1,0,0,0,.63.62,2,2,0,0,0-.72.73l-0.61.32a2,2,0,0,0,2-.25,0.86,0.86,0,0,0,.66.63c0-.23-0.12-0.67.25-0.67,0.12,0,.27.06,0.27,0.36s-0.55.76-1.51,0.76a4.83,4.83,0,0,1-.91-0.09l-0.45-.11a2.61,2.61,0,0,1-1.06-.54,2.4,2.4,0,0,0,.67-1,1.54,1.54,0,0,0,.8-1.22c0.11-.18.16-0.25,0.26-0.42a2.89,2.89,0,0,1-.53.06,0.6,0.6,0,0,1-.69-0.52,1.27,1.27,0,0,1,.81-1.08,1.25,1.25,0,0,0-1.69,1.27A1.33,1.33,0,0,0,135.16,32a1.8,1.8,0,0,1,.91-0.42,0.5,0.5,0,0,1,.51.52,0.79,0.79,0,0,1-.83.65,12.91,12.91,0,0,1-1.92-2.53l-0.38,1.54v0a3,3,0,0,0,2,1.3,1.25,1.25,0,0,0,1.47-1,1,1,0,0,0,0-.21h0l0,0a0.56,0.56,0,0,0-.09-0.16l0,0-0.08-.07a1.16,1.16,0,0,0-.93-0.15v0a0.8,0.8,0,0,1,.51-0.39,1,1,0,0,1,1,.35,1.14,1.14,0,0,1,.65-1.66,1.16,1.16,0,0,0-.38,1,0.77,0.77,0,0,0,.62.59,1.61,1.61,0,0,0,.37.07,1.29,1.29,0,0,1-.8,1A1.47,1.47,0,0,1,136,33.62a3.51,3.51,0,0,1-2.69-1.44l-0.06.23Z"/><path class="cls-1" d="M124.58,28.47l-0.79.09-0.42.05-0.91.14,0.16,1,0.86-.13,0.42-.05,0.75-.08-0.09-1"/><path class="cls-1" d="M127.39,28.35H127l-0.88,0,0,1,0.83,0h0.42l0.87,0,0-1-0.92,0"/><path class="cls-1" d="M127,29.74l-0.81,0-0.42,0-0.27,0-0.76.06-0.74.08,0.1,0.76,0.71-.08,0.74-.06,0.25,0,0.42,0,0.78,0V29.74"/><path class="cls-1" d="M127,32.11l-0.71,0h-0.42l-0.23,0-0.69.05-0.65.07,0.1,0.76L125,33l0.67-.05,0.21,0,0.42,0,0.67,0V32.11"/><path class="cls-1" d="M123.86,32.34l-0.76.12-0.23,0-0.42.07h0l-0.41.09-0.07,0,0.17,0.74h0.06l0.41-.09h0l0.41-.07,0.22,0,0.73-.11-0.1-.76"/><path class="cls-1" d="M123.56,30l-0.85.13-0.27,0-0.41.07-0.09,0-0.41.09-0.12,0,0.17,0.74,0.1,0,0.41-.09h0.08l0.41-.07,0.25,0,0.82-.13-0.1-.75"/><path class="cls-1" d="M128.18,30.95l-0.79,0H127l-0.76,0-0.42,0,0,0.76h0.42l0.73,0h0.42l0.76,0,0.42,0,0-.76h-0.42"/><path class="cls-1" d="M122.24,31.4h-0.07l-0.41.09-0.1,0-0.41.1-0.09,0-0.1-.41,0.1,0L121,30.47l-0.12,0-0.1-.41,0.13,0,0.41-.1,0.13,0,0.41-.09-0.2-1-0.41.09-0.15,0-0.41.1-0.15,0-0.41.09,1.09,4.39,0.41-.1h0.05l-0.17-.74-0.07,0-0.1-.41,0.08,0,0.41-.1,0.08,0,0.41-.09h0.05l-0.14-.75"/><path class="cls-1" d="M125.35,31l-0.53,0-0.7.07-0.42.05-0.8.13-0.25,0,0.14,0.75L123,32l0.77-.12,0.42-.05,0.67-.07,0.51,0L125.35,31"/><path class="cls-1" d="M129.77,28.47l0.79,0.09L131,28.61l0.91,0.14-0.16,1-0.87-.13-0.42-.05-0.75-.08,0.09-1"/><path class="cls-1" d="M127.38,29.74l0.82,0,0.42,0,0.27,0,0.76,0.06,0.74,0.08-0.1.76-0.71-.08-0.74-.06-0.25,0-0.42,0-0.78,0V29.74"/><path class="cls-1" d="M127.38,32.11l0.71,0h0.42l0.23,0,0.69,0.05,0.65,0.07L130,33,129.35,33l-0.67-.05-0.21,0-0.42,0-0.67,0V32.11"/><path class="cls-1" d="M130.5,32.34l0.76,0.12,0.22,0,0.42,0.07h0l0.41,0.09,0.07,0-0.17.74H132.2l-0.41-.09h0l-0.42-.07-0.21,0-0.73-.11,0.1-.76"/><path class="cls-1" d="M130.8,30l0.85,0.13,0.27,0,0.41,0.07,0.09,0,0.41,0.09,0.12,0-0.17.74-0.11,0L132.26,31h-0.08l-0.41-.07-0.25,0-0.82-.13,0.1-.75"/><path class="cls-1" d="M123.3,33.62l0.71-.11,0.42-.05,0.61-.07,0.66-.05,0.2,0,0.42,0,0.65,0h0.4l0.65,0,0.42,0,0.2,0,0.66,0.05,0.61,0.07,0.42,0.05,0.71,0.11H123.3"/><path class="cls-1" d="M133.81,29.14l-0.14,0-0.41-.1-0.15,0-0.41-.09-0.2,1,0.41,0.09L133,30l0.41,0.1,0.13,0-0.1.41-0.12,0-0.17.74,0.1,0-0.1.41-0.09,0-0.41-.1-0.1,0-0.41-.09h-0.07l-0.14.75H132l0.41,0.09,0.08,0,0.41,0.1,0.08,0-0.1.41-0.07,0-0.17.74h0.05l0.41,0.1,1.1-4.39-0.41-.09"/><path class="cls-1" d="M129,31l0.53,0,0.7,0.07,0.42,0.05,0.8,0.13,0.25,0-0.14.75-0.23,0-0.77-.12-0.42-.05-0.67-.07-0.51,0L129,31"/><path class="cls-1" d="M124.26,20.59a0.25,0.25,0,0,1-.24-0.11,2,2,0,0,0,.81-0.5,0.57,0.57,0,0,1-.56.61m10.64,5.77a0.25,0.25,0,0,1-.3,0,1.61,1.61,0,0,0-.61-0.51,0.28,0.28,0,0,1,0-.35,1.52,1.52,0,0,0-.81.08c-0.49,0-.71-1.26-0.71-1.29,0.85-.2,2.19-0.66,2.19-1.62a1.29,1.29,0,0,0-.32-0.92,0.66,0.66,0,0,1,.37-0.46,0.73,0.73,0,0,0-1.08.37,2,2,0,0,0-.89-0.11,0.26,0.26,0,0,1,.06-0.35,0.51,0.51,0,0,0-.78.39l-0.39.06a0.29,0.29,0,0,1,0-.4,0.66,0.66,0,0,0-.84.54l-0.23.06c-0.14-.09,0-0.27.06-0.35a0.73,0.73,0,0,0-.87.53,2.88,2.88,0,0,1-.62.1,0.63,0.63,0,0,1-.44-0.37,1,1,0,0,1,.76-1.17,11.15,11.15,0,0,0,1.28.42,1,1,0,0,0,.66-0.2l-0.17-.22a2.92,2.92,0,0,1,1,.21,2,2,0,0,0,.92-0.18,1.09,1.09,0,0,0-.2-0.21,1.89,1.89,0,0,0,1.16-.59,7.56,7.56,0,0,1-1.15-.14,4.34,4.34,0,0,1-.73,0,0.92,0.92,0,0,0,.19-0.54,2.69,2.69,0,0,1-.79.15c-0.23,0-.44-0.06-0.62-0.06a2.35,2.35,0,0,0-1.86.85A1.8,1.8,0,0,0,128,21.82a1,1,0,0,0,1,1c0.69,0,3.55-.7,4.06-0.7a0.76,0.76,0,0,1,.86.48c0,0.86-1.21.91-2.72,0.91l-2.44,0c-0.49,0-2.7-.12-2.7-0.12V23.06a0.59,0.59,0,0,0,.47-0.39,0.64,0.64,0,0,1-.31-0.49c0-.32.1-0.4,0.1-0.74a1,1,0,0,0-.34-0.5,1.5,1.5,0,0,0,.11-0.35c0-.13,0-0.18,0-0.26s0.12-.16.12-0.31a0.9,0.9,0,0,0-.2-0.48,0.61,0.61,0,0,0,.17-0.67,0.5,0.5,0,0,1-.45.17,0.71,0.71,0,0,0-.09-0.48c-0.57.67-1.94,0.76-2.08,1.11a5.19,5.19,0,0,1-.8.63,1.33,1.33,0,0,0,.14.37,1,1,0,0,1,.87.5h0a1.65,1.65,0,0,1,.13.22l0.08,0.16-0.16.07a0.71,0.71,0,0,1-.72-0.14l-0.19-.1h-0.05a0.65,0.65,0,0,0-.32.2c0,0.24.31,0.18,0.38,0.25s0,0.08,0,.16a1.82,1.82,0,0,0,.15.18,0.3,0.3,0,0,1-.35.32s-1.5-1.78-1.52-1.81a1.51,1.51,0,0,1,0-.91,0.87,0.87,0,0,0-.51-0.68,0.43,0.43,0,0,0-.25.06,0.55,0.55,0,0,1,.1.23,1.35,1.35,0,0,0-.38.57,1.09,1.09,0,0,0-.35-0.13,0.63,0.63,0,0,0-.4.16,0.51,0.51,0,0,0-.51.54,0.44,0.44,0,0,1,.44.07,1.1,1.1,0,0,0,.18.29,0.74,0.74,0,0,0-.5.78,0.92,0.92,0,0,0,.13.4c0.28-.06.33-0.23,0.48-0.23l0.18,0c0.14,0,.29-0.06.47-0.06a0.17,0.17,0,0,1,.19.18,0.8,0.8,0,0,0-.21.52,0.88,0.88,0,0,1,0,.46,0.76,0.76,0,0,0,.67-0.36c0.09,0.28-.19.53-0.09,0.79a3,3,0,0,1,.55-0.08,5,5,0,0,0,0,.6,0.51,0.51,0,0,1,.27,0,0.41,0.41,0,0,0,.3-0.15,0.83,0.83,0,0,1-.23.72,0.45,0.45,0,0,0,.33.16,1.07,1.07,0,0,0,.29-0.13c0.13,0.13-.06.27-0.06,0.4A0.78,0.78,0,0,0,123,24.9a0.51,0.51,0,0,1-.39.68c-0.16.21,0.21,0.21,0.18,0.42l-1.2,2.23a0.47,0.47,0,0,1-.22.06,2.39,2.39,0,0,0-.65-0.2,0.87,0.87,0,0,0-.85.69,0.67,0.67,0,0,0,.13.46,0.47,0.47,0,0,1,.34-0.44,0.71,0.71,0,0,0,.13.38l0.08,0a0.29,0.29,0,0,1,.18-0.2,0.1,0.1,0,0,1,.12.1h0.79a0.22,0.22,0,0,1,.18-0.17,1.68,1.68,0,0,0,.67.11l0.41-.25a0.35,0.35,0,0,0,.1-0.27,0.47,0.47,0,0,1,0-.46,1.23,1.23,0,0,1,.4.37,0.61,0.61,0,0,0,.17-0.43,4.45,4.45,0,0,1-.15-0.44,3.68,3.68,0,0,1,.52.13,0.31,0.31,0,0,0,.19-0.26A1.09,1.09,0,0,1,124,27a1,1,0,0,1,.62,0,0.49,0.49,0,0,0,0-.55,0.57,0.57,0,0,0,.79-0.42,0.36,0.36,0,0,1-.26-0.26,4.25,4.25,0,0,0,2.4-.47,6.1,6.1,0,0,0-.1.76,1.25,1.25,0,0,0,1.42,1l-1.57,1a0.49,0.49,0,0,0-.09.46l1.3-.05a0.76,0.76,0,0,0,.88-0.07,0.3,0.3,0,0,1-.22-0.2,0.35,0.35,0,0,1,.14-0.23,0.45,0.45,0,0,0,.3.27,0.46,0.46,0,0,0,.48-0.24,1.11,1.11,0,0,1-.14-0.61,1.08,1.08,0,0,1,.53.16,0.43,0.43,0,0,0,.47-0.36c-0.06,0-.26,0-0.26-0.12a0.78,0.78,0,0,0-.09-0.28,1.21,1.21,0,0,0,.11-0.28c0-.24-0.76-0.28-0.85-0.46a0.29,0.29,0,0,1,.1-0.27c0-.17-0.38-0.34,0-0.57a1.63,1.63,0,0,0,.42.76c0.65,0.64,2.23.1,2.23,1a0.87,0.87,0,0,1-.92,1,1,1,0,0,0-1.18.75l1.26,0.34a1.39,1.39,0,0,1,.9-0.21,0.72,0.72,0,0,0,0,.56l0.73-.13a0.79,0.79,0,0,0-.07-0.64c0.12-.17.23,0,0.39,0a0.7,0.7,0,0,0,.55-0.64,0.49,0.49,0,0,1-.31.11,0.64,0.64,0,0,1-.45-0.34,0.18,0.18,0,0,1,.22-0.23c0.16,0,.19,0,0.37,0a0.66,0.66,0,0,0,.61-0.4,0.69,0.69,0,0,1-.54-0.32A1.13,1.13,0,0,0,134.9,26.36Z"/><path class="cls-1" d="M122.9,21.24a1,1,0,0,0,.8.26,0.92,0.92,0,0,0-.91-0.63,1.22,1.22,0,0,1-.74-0.42,0.72,0.72,0,0,0,.85.8"/><path class="cls-1" d="M104.6,47l0.13,0.3,0,0a0.43,0.43,0,0,0-.24.65,0.84,0.84,0,0,0,1.26.34,0.87,0.87,0,0,0,.63-1.15,0.45,0.45,0,0,0-.7-0.26l-0.13-.3,0.66-.29a3.09,3.09,0,0,1,.49.78,1.21,1.21,0,0,1-.72,1.76,1.24,1.24,0,0,1-1.77-.73,3.09,3.09,0,0,1-.2-0.86L104.6,47"/><path class="cls-1" d="M103.68,41.58l0-.19c0-.36-0.17-0.52-0.48-0.48a0.41,0.41,0,0,0-.37.56l0,0.22,0.85-.1m-1.18,0c-0.09-.73.06-1.1,0.56-1.15a0.56,0.56,0,0,1,.64.38,0.42,0.42,0,0,1,.37-0.42,1.68,1.68,0,0,0,.52-0.23,0.32,0.32,0,0,0,.08-0.28,0.07,0.07,0,0,1,0,0l0.22,0L105,40.55a7.25,7.25,0,0,1-.87.35,0.38,0.38,0,0,0-.19.44l0,0.2,0.58-.07c0.23,0,.32-0.09.3-0.31V41.12l0.22,0c0,0.2,0,.4.06,0.6s0,0.4.08,0.6l-0.22,0v0c0-.22-0.13-0.26-0.36-0.23l-1.46.17c-0.23,0-.32.09-0.3,0.31v0.05l-0.22,0Z"/><path class="cls-1" d="M102.85,33.35l0.7,0.12,0,0.23-0.11,0c-0.24,0-.31.09-0.37,0.4l-0.09.51,0.79,0.13,0-.15c0-.27,0-0.35-0.27-0.4l0-.22,0.92,0.15,0,0.22c-0.27,0-.34,0-0.38.28l0,0.16,0.88,0.15,0.08-.47c0.07-.41,0-0.51-0.41-0.6l0-.23,0.8,0.14L105,35.84l-0.22,0V35.75c0-.22-0.06-0.28-0.28-0.32l-1.45-.24c-0.23,0-.33,0-0.37.21v0l-0.21,0,0.35-2.06"/><path class="cls-1" d="M105.85,27.28l-0.14.29-0.07,0a0.51,0.51,0,0,0-.51.87,0.4,0.4,0,0,0,.47-0.13l0.42-.39a0.72,0.72,0,0,1,.85-0.2,0.84,0.84,0,0,1,.24,1.28,4,4,0,0,1-.5.79L106,29.43l0.13-.28,0.05,0a0.49,0.49,0,0,0,.71-0.32,0.4,0.4,0,0,0-.14-0.61,0.37,0.37,0,0,0-.45.11l-0.4.35a0.77,0.77,0,0,1-.9.25,0.84,0.84,0,0,1-.24-1.25,3.89,3.89,0,0,1,.49-0.74l0.64,0.31"/><path class="cls-1" d="M108.35,22.3l0.47-.53,0.53-.61,0.58,0.52-0.19.21-0.05,0c-0.25-.22-0.36-0.19-0.56,0L109,22l1.28,1.14c0.17,0.15.28,0.18,0.43,0l0.06-.07,0.16,0.15-0.43.47-0.42.49-0.17-.15L110,24c0.14-.16.11-0.27-0.07-0.42l-1.28-1.13-0.15.17c-0.19.21-.2,0.33,0,0.52l0.08,0.07-0.18.2-0.58-.52,0.53-.58"/><path class="cls-1" d="M119,15l1.61,1.69-0.51-1.47C120,15,119.9,15,119.69,15l0,0-0.07-.21,0.51-.16,0.52-.18,0.07,0.21h0c-0.2.07-.22,0.18-0.15,0.4L121.12,17l-0.68.23-1.6-1.68,0.5,1.46c0.08,0.22.15,0.3,0.36,0.23l0,0,0.07,0.21-0.52.16-0.52.18-0.07-.21,0.05,0c0.2-.07.23-0.18,0.15-0.4l-0.47-1.39c-0.07-.22-0.16-0.29-0.37-0.22l0,0L118,15.38l1-.33"/><path class="cls-1" d="M125.91,13.69l0.6,0v0.22h-0.06c-0.21,0-.26.11-0.25,0.34l0.08,1.47c0,0.23.07,0.33,0.29,0.32h0.05v0.22l-0.6,0-0.6,0V16.06h0c0.22,0,.26-0.11.25-0.35l-0.08-1.47c0-.23-0.07-0.32-0.28-0.31h-0.05V13.71l0.6,0"/><path class="cls-1" d="M133.4,15.2l-0.32-.07v0a0.43,0.43,0,0,0-.4-0.57,0.85,0.85,0,0,0-1,.83,0.87,0.87,0,0,0,.57,1.18,0.45,0.45,0,0,0,.61-0.42l0.32,0.07-0.15.71a3.13,3.13,0,0,1-.92-0.06,1.21,1.21,0,0,1-1-1.61,1.23,1.23,0,0,1,1.62-1,3,3,0,0,1,.82.33l-0.14.66"/><path class="cls-1" d="M138.69,16.45l0.53,0.29-0.11.19,0,0c-0.19-.1-0.28,0-0.39.15l-0.27.48,0.93,0.52,0.27-.48c0.11-.2.11-0.31-0.07-0.42l0,0,0.11-.19,0.52,0.31,0.53,0.29-0.11.19,0,0c-0.19-.11-0.28-0.05-0.39.15l-0.72,1.28c-0.11.2-.11,0.31,0.07,0.42l0,0-0.11.19-0.52-.3-0.53-.29,0.11-.19,0,0c0.19,0.11.28,0,.4-0.16l0.3-.53-0.93-.53-0.3.53c-0.11.2-.12,0.31,0.07,0.42l0,0L138,19l-0.52-.3-0.53-.29,0.11-.19,0,0c0.19,0.11.28,0,.4-0.16l0.72-1.28c0.11-.2.11-0.31-0.07-0.42l0,0,0.11-.19,0.52,0.31"/><path class="cls-1" d="M143.95,21.88c-0.48.46-.57,0.88-0.27,1.2s0.73,0.26,1.22-.2,0.58-.88.28-1.2-0.73-.26-1.22.2m1.35,1.45a1.29,1.29,0,1,1-1.77-1.89A1.29,1.29,0,1,1,145.3,23.33Z"/><path class="cls-1" d="M149.27,27l0.29,0.56-0.2.1-0.05-.1c-0.1-.19-0.21-0.19-0.42-0.09l-1.53.77,0.16,0.32c0.19,0.37.28,0.43,0.68,0.24L148.32,29l-0.72.36-0.9-1.79,0.2-.1,0,0c0.1,0.19.21,0.19,0.42,0.09l1.31-.67c0.21-.11.27-0.2,0.17-0.39l0,0,0.2-.1L149.27,27"/><path class="cls-1" d="M151.05,34.78L151,34.46h0.08a0.51,0.51,0,0,0-.11-1,0.39,0.39,0,0,0-.3.39l-0.11.57a0.72,0.72,0,0,1-.56.67,0.85,0.85,0,0,1-1-.88,4.15,4.15,0,0,1-.07-0.93l0.71-.14,0.06,0.3h-0.06a0.49,0.49,0,0,0-.38.68,0.4,0.4,0,0,0,.48.4,0.37,0.37,0,0,0,.3-0.36l0.11-.52a0.77,0.77,0,0,1,.57-0.73,0.84,0.84,0,0,1,.93.86,3.86,3.86,0,0,1,.05.88l-0.69.14"/><path class="cls-1" d="M150.77,40.08c-0.67-.06-1,0.16-1.08.59s0.28,0.72.95,0.78,1-.15,1.09-0.59-0.29-.72-1-0.78m-0.19,2A1.3,1.3,0,1,1,152,40.9,1.21,1.21,0,0,1,150.58,42.06Z"/><path class="cls-1" d="M150.29,47.85l-2.33.09,1.44,0.59c0.21,0.09.32,0.08,0.4-.12l0,0L150,48.45l-0.22.49c-0.07.17-.14,0.34-0.21,0.51l-0.2-.09,0,0c0.09-.2,0-0.29-0.2-0.38l-1.87-.78,0.28-.66,2.32-.1-1.43-.59c-0.21-.09-0.33-0.08-0.41.12l0,0-0.2-.09c0.08-.16.15-0.33,0.22-0.5s0.14-.33.2-0.51L148.53,46l0,0c-0.08.2,0,.29,0.2,0.38L150.06,47c0.21,0.09.32,0.07,0.41-.13l0,0,0.2,0.09-0.4,1"/><path class="cls-1" d="M115.11,57.3L114,59c-0.13.19-.14,0.3,0,0.43l0.13,0.09-0.13.19-0.55-.38-0.56-.36,0.12-.19,0.13,0.09c0.18,0.12.28,0.07,0.41-.12l0.91-1.37a2.83,2.83,0,0,1-.63,0l0.21-.31a4.41,4.41,0,0,0,.66,0l0.38,0.25"/><path class="cls-1" d="M120.15,60.62a0.48,0.48,0,0,0,.28.69,0.51,0.51,0,0,0,.65-0.43,0.52,0.52,0,0,0-.3-0.72,0.51,0.51,0,0,0-.63.46m-0.66.89,0.28,0.08a0.41,0.41,0,0,0,.29.59c0.43,0.13.68-.09,0.88-0.71a0.71,0.71,0,0,1-.72.11,0.81,0.81,0,0,1-.57-1.1,0.87,0.87,0,0,1,1.2-.6c0.68,0.2.86,0.71,0.6,1.58a1.11,1.11,0,0,1-1.45,1,2.84,2.84,0,0,1-.69-0.35Z"/><path class="cls-1" d="M132.89,61.93a0.51,0.51,0,0,0,.63.46,0.62,0.62,0,0,0-.29-1.17,0.51,0.51,0,0,0-.33.7M134,60.57l-0.29.08a0.41,0.41,0,0,0-.59-0.36c-0.39.1-.49,0.42-0.38,1a0.78,0.78,0,0,1,.56-0.44,0.8,0.8,0,0,1,1,.65,0.88,0.88,0,0,1-.72,1.14,1,1,0,0,1-1.31-1c-0.23-.9,0-1.45.71-1.64a2.62,2.62,0,0,1,.82-0.06Z"/><path class="cls-1" d="M139.4,59.38l0,0a0.4,0.4,0,0,0,.63.17,0.46,0.46,0,0,0,.2-0.67c-0.18-.28-0.44-0.31-0.81-0.08l-0.17-.28h0c0.34-.21.44-0.44,0.29-0.68a0.43,0.43,0,0,0-.63-0.08,0.38,0.38,0,0,0-.13.61l0,0.05-0.26.16L138.23,58a2.47,2.47,0,0,1,.59-0.5c0.53-.33.94-0.3,1.18,0.1a0.53,0.53,0,0,1-.13.73,0.62,0.62,0,0,1,.8.28,0.79,0.79,0,0,1-.44,1.18,3.09,3.09,0,0,1-.73.32l-0.37-.6,0.26-.16"/><path class="cls-1" d="M144.8,53.42a0.61,0.61,0,0,1,.85-0.07,0.61,0.61,0,0,1,.07.86,0.61,0.61,0,1,1-.93-0.79"/><path class="cls-1" d="M109.69,53.5a0.61,0.61,0,0,1-.07.85,0.62,0.62,0,0,1-.86-0.07,0.61,0.61,0,0,1,.93-0.79"/><path class="cls-1" d="M148.74,38.53a21.54,21.54,0,1,0-26.23,21,5.3,5.3,0,0,1-1.2-1.27,20.62,20.62,0,1,1,11.63,0c-0.37.36-.68,0.82-1,1.22a21.58,21.58,0,0,0,16.84-21"/><path class="cls-1" d="M101.4,38.53a25.8,25.8,0,1,1,25.8,25.8,25.83,25.83,0,0,1-25.8-25.8m-0.93,0A26.72,26.72,0,1,0,127.2,11.81,26.76,26.76,0,0,0,100.47,38.53Z"/></svg>