<svg id="Layer_1" data-name="Layer 1" xmlns="http://www.w3.org/2000/svg" viewBox="0 0 251 82"><defs><style>.cls-1{fill:#fff;}</style></defs><title>LD_website logo</title><path class="cls-1" d="M128.24,10.36a0.26,0.26,0,1,1,.26.26,0.26,0.26,0,0,1-.26-0.26"/><path class="cls-1" d="M130.74,10.36a0.49,0.49,0,1,1,.49.49,0.49,0.49,0,0,1-.49-0.49"/><path class="cls-1" d="M133.3,10.36a0.64,0.64,0,1,1,.64.64,0.64,0.64,0,0,1-.64-0.64"/><path class="cls-1" d="M136,10.36a0.7,0.7,0,1,1,.7.69,0.69,0.69,0,0,1-.7-0.69"/><path class="cls-1" d="M138.74,10.36a0.65,0.65,0,1,1,.65.65,0.65,0.65,0,0,1-.65-0.65"/><path class="cls-1" d="M141.59,10.36a0.51,0.51,0,1,1,.51.51,0.51,0.51,0,0,1-.51-0.51"/><path class="cls-1" d="M144.48,10.36a0.35,0.35,0,1,1,.35.35,0.35,0.35,0,0,1-.35-0.35"/><path class="cls-1" d="M147.36,10.36a0.19,0.19,0,1,1,.19.19,0.19,0.19,0,0,1-.19-0.19"/><path class="cls-1" d="M73.78,13.08a0.31,0.31,0,1,1,.31.31,0.31,0.31,0,0,1-.31-0.31"/><path class="cls-1" d="M76.14,13.08a0.67,0.67,0,1,1,.67.67,0.67,0.67,0,0,1-.67-0.67"/><path class="cls-1" d="M78.63,13.08a0.9,0.9,0,1,1,.9.9,0.9,0.9,0,0,1-.9-0.9"/><path class="cls-1" d="M81.25,13.08a1,1,0,1,1,1,1,1,1,0,0,1-1-1"/><path class="cls-1" d="M83.91,13.08A1.06,1.06,0,1,1,85,14.15a1.06,1.06,0,0,1-1.06-1.06"/><path class="cls-1" d="M86.59,13.08a1.1,1.1,0,1,1,1.1,1.1,1.1,1.1,0,0,1-1.1-1.1"/><path class="cls-1" d="M89.31,13.08a1.1,1.1,0,1,1,1.1,1.1,1.1,1.1,0,0,1-1.1-1.1"/><path class="cls-1" d="M92.13,13.08a1,1,0,1,1,1,1,1,1,0,0,1-1-1"/><path class="cls-1" d="M95.21,13.08a0.65,0.65,0,1,1,.65.65,0.65,0.65,0,0,1-.65-0.65"/><path class="cls-1" d="M109,13.08a0.47,0.47,0,1,1,.46.47,0.46,0.46,0,0,1-.46-0.47"/><path class="cls-1" d="M111.61,13.08a0.57,0.57,0,1,1,.57.57,0.57,0.57,0,0,1-.57-0.57"/><path class="cls-1" d="M114.67,13.08a0.23,0.23,0,1,1,.23.23,0.23,0.23,0,0,1-.23-0.23"/><path class="cls-1" d="M122.78,13.08a0.28,0.28,0,1,1,.28.28,0.28,0.28,0,0,1-.28-0.28"/><path class="cls-1" d="M125,13.08a0.76,0.76,0,1,1,.76.77,0.76,0.76,0,0,1-.76-0.77"/><path class="cls-1" d="M127.34,13.08a1.16,1.16,0,1,1,1.16,1.16,1.16,1.16,0,0,1-1.16-1.16"/><path class="cls-1" d="M129.83,13.08a1.4,1.4,0,1,1,1.4,1.4,1.4,1.4,0,0,1-1.4-1.4"/><path class="cls-1" d="M132.43,13.08a1.51,1.51,0,1,1,1.51,1.51,1.51,1.51,0,0,1-1.51-1.51"/><path class="cls-1" d="M135.16,13.08a1.5,1.5,0,1,1,1.5,1.5,1.5,1.5,0,0,1-1.5-1.5"/><path class="cls-1" d="M138,13.08a1.43,1.43,0,1,1,1.43,1.43A1.43,1.43,0,0,1,138,13.08"/><path class="cls-1" d="M140.78,13.08a1.32,1.32,0,1,1,1.32,1.32,1.32,1.32,0,0,1-1.32-1.32"/><path class="cls-1" d="M143.69,13.08a1.13,1.13,0,1,1,1.13,1.13,1.13,1.13,0,0,1-1.13-1.13"/><path class="cls-1" d="M146.64,13.08a0.91,0.91,0,1,1,.91.91,0.91,0.91,0,0,1-.91-0.91"/><path class="cls-1" d="M149.61,13.08a0.66,0.66,0,1,1,.66.66,0.66,0.66,0,0,1-.66-0.66"/><path class="cls-1" d="M152.51,13.08a0.48,0.48,0,1,1,.48.48,0.48,0.48,0,0,1-.48-0.48"/><path class="cls-1" d="M155.27,13.08a0.44,0.44,0,1,1,.44.44,0.44,0.44,0,0,1-.44-0.44"/><path class="cls-1" d="M157.91,13.08a0.52,0.52,0,1,1,.52.52,0.52,0.52,0,0,1-.52-0.52"/><path class="cls-1" d="M160.5,13.08a0.65,0.65,0,1,1,.65.65,0.65,0.65,0,0,1-.65-0.65"/><path class="cls-1" d="M163.1,13.08a0.77,0.77,0,1,1,.77.77,0.77,0.77,0,0,1-.77-0.77"/><path class="cls-1" d="M165.73,13.08a0.86,0.86,0,1,1,.86.86,0.86,0.86,0,0,1-.86-0.86"/><path class="cls-1" d="M168.42,13.08a0.89,0.89,0,1,1,.89.89,0.89,0.89,0,0,1-.89-0.89"/><path class="cls-1" d="M171.21,13.08a0.82,0.82,0,1,1,.82.82,0.82,0.82,0,0,1-.82-0.82"/><path class="cls-1" d="M174.07,13.08a0.68,0.68,0,1,1,.68.68,0.68,0.68,0,0,1-.68-0.68"/><path class="cls-1" d="M177,13.08a0.44,0.44,0,1,1,.44.45,0.44,0.44,0,0,1-.44-0.45"/><path class="cls-1" d="M71.1,15.81a0.27,0.27,0,1,1,.27.27,0.27,0.27,0,0,1-.27-0.27"/><path class="cls-1" d="M73.09,15.81a1,1,0,1,1,1,1,1,1,0,0,1-1-1"/><path class="cls-1" d="M75.34,15.81a1.47,1.47,0,1,1,1.47,1.47,1.47,1.47,0,0,1-1.47-1.47"/><path class="cls-1" d="M77.9,15.81a1.63,1.63,0,1,1,1.63,1.63,1.63,1.63,0,0,1-1.63-1.63"/><path class="cls-1" d="M80.55,15.8a1.7,1.7,0,1,1,1.7,1.7,1.7,1.7,0,0,1-1.7-1.7"/><path class="cls-1" d="M83.25,15.81A1.72,1.72,0,1,1,85,17.53a1.72,1.72,0,0,1-1.72-1.72"/><path class="cls-1" d="M85.94,15.8a1.75,1.75,0,1,1,1.75,1.75,1.75,1.75,0,0,1-1.75-1.75"/><path class="cls-1" d="M88.66,15.8a1.75,1.75,0,1,1,1.75,1.75,1.75,1.75,0,0,1-1.75-1.75"/><path class="cls-1" d="M91.37,15.81a1.77,1.77,0,1,1,1.77,1.77,1.76,1.76,0,0,1-1.77-1.77"/><path class="cls-1" d="M94.11,15.81a1.74,1.74,0,1,1,1.74,1.74,1.74,1.74,0,0,1-1.74-1.74"/><path class="cls-1" d="M97.23,15.8a1.34,1.34,0,1,1,1.34,1.34,1.34,1.34,0,0,1-1.34-1.34"/><path class="cls-1" d="M101.1,15.81a0.19,0.19,0,1,1,.19.19,0.19,0.19,0,0,1-.19-0.19"/><path class="cls-1" d="M105.71,15.8a1,1,0,1,1,1,1,1,1,0,0,1-1-1"/><path class="cls-1" d="M107.87,15.81a1.59,1.59,0,1,1,1.59,1.59,1.59,1.59,0,0,1-1.59-1.59"/><path class="cls-1" d="M110.53,15.81a1.65,1.65,0,1,1,1.65,1.65,1.65,1.65,0,0,1-1.65-1.65"/><path class="cls-1" d="M113.61,15.8a1.29,1.29,0,1,1,1.29,1.29,1.29,1.29,0,0,1-1.29-1.29"/><path class="cls-1" d="M117.1,15.8a0.52,0.52,0,1,1,.52.52,0.52,0.52,0,0,1-.52-0.52"/><path class="cls-1" d="M119.91,15.8a0.43,0.43,0,1,1,.43.43,0.43,0.43,0,0,1-.43-0.43"/><path class="cls-1" d="M122.1,15.81a1,1,0,1,1,1,1,1,1,0,0,1-1-1"/><path class="cls-1" d="M124.29,15.8a1.49,1.49,0,1,1,1.49,1.49,1.49,1.49,0,0,1-1.49-1.49"/><path class="cls-1" d="M126.78,15.8a1.72,1.72,0,1,1,1.72,1.72,1.72,1.72,0,0,1-1.72-1.72"/><path class="cls-1" d="M129.46,15.81a1.77,1.77,0,1,1,1.77,1.77,1.77,1.77,0,0,1-1.77-1.77"/><path class="cls-1" d="M132.18,15.81a1.77,1.77,0,1,1,1.77,1.77,1.77,1.77,0,0,1-1.77-1.77"/><path class="cls-1" d="M134.9,15.81a1.76,1.76,0,1,1,1.77,1.77,1.77,1.77,0,0,1-1.77-1.77"/><path class="cls-1" d="M137.64,15.81a1.74,1.74,0,1,1,1.74,1.74,1.74,1.74,0,0,1-1.74-1.74"/><path class="cls-1" d="M140.42,15.81a1.69,1.69,0,1,1,1.69,1.69,1.69,1.69,0,0,1-1.69-1.69"/><path class="cls-1" d="M143.2,15.81a1.63,1.63,0,1,1,1.63,1.63,1.63,1.63,0,0,1-1.63-1.63"/><path class="cls-1" d="M146,15.81a1.5,1.5,0,1,1,1.5,1.5,1.5,1.5,0,0,1-1.5-1.5"/><path class="cls-1" d="M148.93,15.8a1.34,1.34,0,1,1,1.34,1.34,1.34,1.34,0,0,1-1.34-1.34"/><path class="cls-1" d="M151.81,15.81A1.17,1.17,0,1,1,153,17a1.17,1.17,0,0,1-1.17-1.17"/><path class="cls-1" d="M154.53,15.81A1.18,1.18,0,1,1,155.71,17a1.18,1.18,0,0,1-1.18-1.18"/><path class="cls-1" d="M157.18,15.8a1.25,1.25,0,1,1,1.25,1.25,1.25,1.25,0,0,1-1.25-1.25"/><path class="cls-1" d="M159.82,15.81a1.33,1.33,0,1,1,1.33,1.33,1.33,1.33,0,0,1-1.33-1.33"/><path class="cls-1" d="M162.46,15.81a1.41,1.41,0,1,1,1.41,1.41,1.41,1.41,0,0,1-1.41-1.41"/><path class="cls-1" d="M165.1,15.8a1.49,1.49,0,1,1,1.49,1.49,1.49,1.49,0,0,1-1.49-1.49"/><path class="cls-1" d="M167.75,15.8a1.56,1.56,0,1,1,1.56,1.56,1.56,1.56,0,0,1-1.56-1.56"/><path class="cls-1" d="M170.45,15.81A1.58,1.58,0,1,1,172,17.38a1.58,1.58,0,0,1-1.58-1.58"/><path class="cls-1" d="M173.21,15.81a1.54,1.54,0,1,1,1.54,1.54,1.54,1.54,0,0,1-1.54-1.54"/><path class="cls-1" d="M176.22,15.8a1.25,1.25,0,1,1,1.25,1.25,1.25,1.25,0,0,1-1.25-1.25"/><path class="cls-1" d="M179.63,15.8a0.56,0.56,0,1,1,.56.56,0.56,0.56,0,0,1-.56-0.56"/><path class="cls-1" d="M71,18.53a0.37,0.37,0,1,1,.37.37A0.37,0.37,0,0,1,71,18.53"/><path class="cls-1" d="M72.94,18.53a1.15,1.15,0,1,1,1.15,1.15,1.15,1.15,0,0,1-1.15-1.15"/><path class="cls-1" d="M75.25,18.53a1.56,1.56,0,1,1,1.56,1.56,1.56,1.56,0,0,1-1.56-1.56"/><path class="cls-1" d="M77.81,18.53a1.72,1.72,0,1,1,1.72,1.72,1.72,1.72,0,0,1-1.72-1.72"/><path class="cls-1" d="M80.49,18.53a1.76,1.76,0,1,1,1.76,1.76,1.76,1.76,0,0,1-1.76-1.76"/><path class="cls-1" d="M83.21,18.53A1.77,1.77,0,1,1,85,20.29a1.77,1.77,0,0,1-1.77-1.77"/><path class="cls-1" d="M85.93,18.53a1.77,1.77,0,1,1,1.77,1.77,1.76,1.76,0,0,1-1.77-1.77"/><path class="cls-1" d="M88.64,18.53a1.77,1.77,0,1,1,1.77,1.77,1.77,1.77,0,0,1-1.77-1.77"/><path class="cls-1" d="M91.36,18.53a1.77,1.77,0,1,1,1.77,1.77,1.77,1.77,0,0,1-1.77-1.77"/><path class="cls-1" d="M94.11,18.53a1.74,1.74,0,1,1,1.74,1.74,1.74,1.74,0,0,1-1.74-1.74"/><path class="cls-1" d="M97.16,18.53a1.42,1.42,0,1,1,1.42,1.42,1.42,1.42,0,0,1-1.42-1.42"/><path class="cls-1" d="M101,18.53a0.29,0.29,0,1,1,.29.29,0.29,0.29,0,0,1-.29-0.29"/><path class="cls-1" d="M103.29,18.53a0.72,0.72,0,1,1,.72.72,0.72,0.72,0,0,1-.72-0.72"/><path class="cls-1" d="M105.09,18.53a1.65,1.65,0,1,1,1.65,1.65,1.65,1.65,0,0,1-1.65-1.65"/><path class="cls-1" d="M107.7,18.53a1.76,1.76,0,1,1,1.76,1.76,1.76,1.76,0,0,1-1.76-1.76"/><path class="cls-1" d="M110.41,18.53a1.76,1.76,0,1,1,1.77,1.77,1.76,1.76,0,0,1-1.77-1.77"/><path class="cls-1" d="M113.2,18.53a1.7,1.7,0,1,1,1.7,1.7,1.7,1.7,0,0,1-1.7-1.7"/><path class="cls-1" d="M116.38,18.53a1.24,1.24,0,1,1,1.24,1.24,1.24,1.24,0,0,1-1.24-1.24"/><path class="cls-1" d="M119.54,18.53a0.8,0.8,0,1,1,.8.8,0.8,0.8,0,0,1-.8-0.8"/><path class="cls-1" d="M122,18.53a1.1,1.1,0,1,1,1.1,1.1,1.1,1.1,0,0,1-1.1-1.1"/><path class="cls-1" d="M124.22,18.53a1.56,1.56,0,1,1,1.56,1.56,1.56,1.56,0,0,1-1.56-1.56"/><path class="cls-1" d="M126.76,18.53a1.74,1.74,0,1,1,1.74,1.74,1.74,1.74,0,0,1-1.74-1.74"/><path class="cls-1" d="M129.45,18.53a1.77,1.77,0,1,1,1.77,1.77,1.77,1.77,0,0,1-1.77-1.77"/><path class="cls-1" d="M132.17,18.53a1.77,1.77,0,1,1,1.77,1.77,1.77,1.77,0,0,1-1.77-1.77"/><path class="cls-1" d="M134.89,18.53a1.77,1.77,0,1,1,1.77,1.77,1.77,1.77,0,0,1-1.77-1.77"/><path class="cls-1" d="M137.62,18.53a1.77,1.77,0,1,1,1.77,1.77,1.76,1.76,0,0,1-1.77-1.77"/><path class="cls-1" d="M140.35,18.53a1.75,1.75,0,1,1,1.75,1.75,1.75,1.75,0,0,1-1.75-1.75"/><path class="cls-1" d="M143.09,18.53a1.73,1.73,0,1,1,1.73,1.73,1.73,1.73,0,0,1-1.73-1.73"/><path class="cls-1" d="M145.85,18.53a1.7,1.7,0,1,1,1.7,1.7,1.7,1.7,0,0,1-1.7-1.7"/><path class="cls-1" d="M148.69,18.53a1.58,1.58,0,1,1,1.58,1.58,1.58,1.58,0,0,1-1.58-1.58"/><path class="cls-1" d="M151.49,18.53A1.5,1.5,0,1,1,153,20a1.5,1.5,0,0,1-1.5-1.5"/><path class="cls-1" d="M154.18,18.53a1.53,1.53,0,1,1,1.53,1.53,1.53,1.53,0,0,1-1.53-1.53"/><path class="cls-1" d="M156.84,18.53a1.59,1.59,0,1,1,1.59,1.59,1.59,1.59,0,0,1-1.59-1.59"/><path class="cls-1" d="M159.48,18.53a1.67,1.67,0,1,1,1.67,1.67,1.67,1.67,0,0,1-1.67-1.67"/><path class="cls-1" d="M162.15,18.53a1.72,1.72,0,1,1,1.72,1.72,1.72,1.72,0,0,1-1.72-1.72"/><path class="cls-1" d="M164.85,18.53a1.74,1.74,0,1,1,1.74,1.74,1.74,1.74,0,0,1-1.74-1.74"/><path class="cls-1" d="M167.57,18.53a1.74,1.74,0,1,1,1.74,1.74,1.74,1.74,0,0,1-1.74-1.74"/><path class="cls-1" d="M170.34,18.53a1.7,1.7,0,1,1,1.7,1.7,1.7,1.7,0,0,1-1.7-1.7"/><path class="cls-1" d="M173.23,18.53A1.52,1.52,0,1,1,174.75,20a1.52,1.52,0,0,1-1.52-1.52"/><path class="cls-1" d="M176.34,18.53a1.13,1.13,0,1,1,1.13,1.13,1.13,1.13,0,0,1-1.13-1.13"/><path class="cls-1" d="M179.72,18.53a0.47,0.47,0,1,1,.47.47,0.47,0.47,0,0,1-.47-0.47"/><path class="cls-1" d="M73.28,21.25a0.81,0.81,0,1,1,.81.81,0.81,0.81,0,0,1-.81-0.81"/><path class="cls-1" d="M75.4,21.25a1.41,1.41,0,1,1,1.41,1.41,1.41,1.41,0,0,1-1.41-1.41"/><path class="cls-1" d="M77.86,21.25a1.68,1.68,0,1,1,1.67,1.67,1.67,1.67,0,0,1-1.67-1.67"/><path class="cls-1" d="M80.5,21.25A1.75,1.75,0,1,1,82.25,23a1.75,1.75,0,0,1-1.75-1.75"/><path class="cls-1" d="M83.21,21.25A1.77,1.77,0,1,1,85,23a1.77,1.77,0,0,1-1.77-1.77"/><path class="cls-1" d="M85.93,21.25A1.76,1.76,0,1,1,87.69,23a1.76,1.76,0,0,1-1.76-1.76"/><path class="cls-1" d="M88.68,21.25A1.74,1.74,0,1,1,90.41,23a1.74,1.74,0,0,1-1.74-1.74"/><path class="cls-1" d="M91.52,21.25a1.61,1.61,0,1,1,1.61,1.61,1.61,1.61,0,0,1-1.61-1.61"/><path class="cls-1" d="M94.67,21.25a1.19,1.19,0,1,1,1.19,1.19,1.19,1.19,0,0,1-1.19-1.19"/><path class="cls-1" d="M98.21,21.25a0.37,0.37,0,1,1,.37.37,0.37,0.37,0,0,1-.37-0.37"/><path class="cls-1" d="M102.76,21.25A1.25,1.25,0,1,1,104,22.5a1.25,1.25,0,0,1-1.25-1.25"/><path class="cls-1" d="M105,21.25A1.76,1.76,0,1,1,106.74,23,1.76,1.76,0,0,1,105,21.25"/><path class="cls-1" d="M107.69,21.25A1.77,1.77,0,1,1,109.46,23a1.76,1.76,0,0,1-1.77-1.77"/><path class="cls-1" d="M110.41,21.25A1.76,1.76,0,1,1,112.18,23a1.76,1.76,0,0,1-1.77-1.77"/><path class="cls-1" d="M113.14,21.25A1.76,1.76,0,1,1,114.9,23a1.76,1.76,0,0,1-1.76-1.76"/><path class="cls-1" d="M116,21.25a1.59,1.59,0,1,1,1.59,1.59A1.59,1.59,0,0,1,116,21.25"/><path class="cls-1" d="M119.34,21.25a1,1,0,1,1,1,1,1,1,0,0,1-1-1"/><path class="cls-1" d="M122.35,21.25a0.71,0.71,0,1,1,.71.71,0.71,0.71,0,0,1-.71-0.71"/><path class="cls-1" d="M124.84,21.25a0.95,0.95,0,1,1,.95.94,0.95,0.95,0,0,1-.95-0.94"/><path class="cls-1" d="M127.2,21.25a1.3,1.3,0,1,1,1.3,1.3,1.3,1.3,0,0,1-1.3-1.3"/><path class="cls-1" d="M129.57,21.25a1.65,1.65,0,1,1,1.65,1.65,1.65,1.65,0,0,1-1.65-1.65"/><path class="cls-1" d="M132.18,21.25A1.77,1.77,0,1,1,133.94,23a1.77,1.77,0,0,1-1.77-1.77"/><path class="cls-1" d="M134.89,21.25A1.77,1.77,0,1,1,136.66,23a1.77,1.77,0,0,1-1.77-1.77"/><path class="cls-1" d="M137.62,21.25A1.77,1.77,0,1,1,139.38,23a1.76,1.76,0,0,1-1.77-1.77"/><path class="cls-1" d="M140.35,21.25A1.76,1.76,0,1,1,142.1,23a1.76,1.76,0,0,1-1.76-1.76"/><path class="cls-1" d="M143.11,21.25A1.72,1.72,0,1,1,144.83,23a1.72,1.72,0,0,1-1.72-1.72"/><path class="cls-1" d="M146,21.25a1.57,1.57,0,1,1,1.57,1.57A1.57,1.57,0,0,1,146,21.25"/><path class="cls-1" d="M148.84,21.25a1.42,1.42,0,1,1,1.42,1.42,1.42,1.42,0,0,1-1.42-1.42"/><path class="cls-1" d="M151.6,21.25A1.39,1.39,0,1,1,153,22.64a1.39,1.39,0,0,1-1.39-1.39"/><path class="cls-1" d="M154.18,21.25a1.53,1.53,0,1,1,1.53,1.53,1.53,1.53,0,0,1-1.53-1.53"/><path class="cls-1" d="M156.75,21.25a1.67,1.67,0,1,1,1.67,1.67,1.67,1.67,0,0,1-1.67-1.67"/><path class="cls-1" d="M159.41,21.25A1.74,1.74,0,1,1,161.15,23a1.74,1.74,0,0,1-1.74-1.74"/><path class="cls-1" d="M162.11,21.25A1.76,1.76,0,1,1,163.87,23a1.76,1.76,0,0,1-1.76-1.76"/><path class="cls-1" d="M164.82,21.25A1.77,1.77,0,1,1,166.59,23a1.76,1.76,0,0,1-1.77-1.77"/><path class="cls-1" d="M167.64,21.25a1.67,1.67,0,1,1,1.67,1.67,1.67,1.67,0,0,1-1.67-1.67"/><path class="cls-1" d="M170.79,21.25A1.24,1.24,0,1,1,172,22.48a1.24,1.24,0,0,1-1.24-1.24"/><path class="cls-1" d="M174.06,21.25a0.69,0.69,0,1,1,.69.69,0.69,0.69,0,0,1-.69-0.69"/><path class="cls-1" d="M177.19,21.25a0.28,0.28,0,1,1,.28.28,0.28,0.28,0,0,1-.28-0.28"/><path class="cls-1" d="M73.87,24a0.22,0.22,0,1,1,.22.22A0.22,0.22,0,0,1,73.87,24"/><path class="cls-1" d="M75.91,24a0.9,0.9,0,1,1,.9.9,0.9,0.9,0,0,1-.9-0.9"/><path class="cls-1" d="M78.07,24a1.46,1.46,0,1,1,1.46,1.46A1.46,1.46,0,0,1,78.07,24"/><path class="cls-1" d="M80.56,24a1.69,1.69,0,1,1,1.69,1.69A1.69,1.69,0,0,1,80.56,24"/><path class="cls-1" d="M83.22,24A1.75,1.75,0,1,1,85,25.72,1.75,1.75,0,0,1,83.22,24"/><path class="cls-1" d="M86,24a1.7,1.7,0,1,1,1.7,1.7A1.7,1.7,0,0,1,86,24"/><path class="cls-1" d="M89,24a1.44,1.44,0,1,1,1.44,1.44A1.44,1.44,0,0,1,89,24"/><path class="cls-1" d="M92.35,24a0.78,0.78,0,1,1,.78.78A0.78,0.78,0,0,1,92.35,24"/><path class="cls-1" d="M100.89,24a0.41,0.41,0,1,1,.41.41,0.41,0.41,0,0,1-.41-0.41"/><path class="cls-1" d="M102.44,24A1.58,1.58,0,1,1,104,25.54,1.58,1.58,0,0,1,102.44,24"/><path class="cls-1" d="M105,24a1.77,1.77,0,1,1,1.77,1.77A1.76,1.76,0,0,1,105,24"/><path class="cls-1" d="M107.7,24a1.76,1.76,0,1,1,1.76,1.76A1.76,1.76,0,0,1,107.7,24"/><path class="cls-1" d="M110.41,24a1.76,1.76,0,1,1,1.77,1.77A1.76,1.76,0,0,1,110.41,24"/><path class="cls-1" d="M113.13,24a1.77,1.77,0,1,1,1.77,1.77A1.77,1.77,0,0,1,113.13,24"/><path class="cls-1" d="M115.93,24a1.69,1.69,0,1,1,1.69,1.69A1.69,1.69,0,0,1,115.93,24"/><path class="cls-1" d="M119.14,24a1.2,1.2,0,1,1,1.2,1.2,1.2,1.2,0,0,1-1.2-1.2"/><path class="cls-1" d="M122.55,24a0.51,0.51,0,1,1,.51.51,0.51,0.51,0,0,1-.51-0.51"/><path class="cls-1" d="M125.5,24a0.28,0.28,0,1,1,.28.28A0.28,0.28,0,0,1,125.5,24"/><path class="cls-1" d="M128,24a0.5,0.5,0,1,1,.5.5A0.5,0.5,0,0,1,128,24"/><path class="cls-1" d="M130.14,24A1.08,1.08,0,1,1,131.22,25,1.08,1.08,0,0,1,130.14,24"/><path class="cls-1" d="M132.32,24a1.63,1.63,0,1,1,1.63,1.63A1.63,1.63,0,0,1,132.32,24"/><path class="cls-1" d="M134.9,24a1.76,1.76,0,1,1,1.77,1.77A1.77,1.77,0,0,1,134.9,24"/><path class="cls-1" d="M137.63,24a1.76,1.76,0,1,1,1.76,1.76A1.76,1.76,0,0,1,137.63,24"/><path class="cls-1" d="M140.37,24a1.73,1.73,0,1,1,1.73,1.73A1.73,1.73,0,0,1,140.37,24"/><path class="cls-1" d="M143.31,24a1.52,1.52,0,1,1,1.51,1.51A1.52,1.52,0,0,1,143.31,24"/><path class="cls-1" d="M146.39,24a1.15,1.15,0,1,1,1.15,1.15A1.15,1.15,0,0,1,146.39,24"/><path class="cls-1" d="M149.36,24a0.91,0.91,0,1,1,.91.91,0.91,0.91,0,0,1-.91-0.91"/><path class="cls-1" d="M152,24a1,1,0,1,1,1,1,1,1,0,0,1-1-1"/><path class="cls-1" d="M154.43,24a1.28,1.28,0,1,1,1.28,1.28A1.28,1.28,0,0,1,154.43,24"/><path class="cls-1" d="M156.88,24a1.55,1.55,0,1,1,1.55,1.55A1.55,1.55,0,0,1,156.88,24"/><path class="cls-1" d="M159.42,24a1.73,1.73,0,1,1,1.73,1.73A1.73,1.73,0,0,1,159.42,24"/><path class="cls-1" d="M162.1,24a1.76,1.76,0,1,1,1.77,1.77A1.77,1.77,0,0,1,162.1,24"/><path class="cls-1" d="M164.83,24a1.76,1.76,0,1,1,1.76,1.76A1.76,1.76,0,0,1,164.83,24"/><path class="cls-1" d="M167.73,24a1.58,1.58,0,1,1,1.58,1.58A1.58,1.58,0,0,1,167.73,24"/><path class="cls-1" d="M171.16,24a0.88,0.88,0,1,1,.88.87,0.88,0.88,0,0,1-.88-0.87"/><path class="cls-1" d="M174.51,24a0.24,0.24,0,1,1,.24.24,0.24,0.24,0,0,1-.24-0.24"/><path class="cls-1" d="M76.37,26.69a0.44,0.44,0,1,1,.44.44,0.44,0.44,0,0,1-.44-0.44"/><path class="cls-1" d="M78.34,26.69a1.19,1.19,0,1,1,1.19,1.19,1.19,1.19,0,0,1-1.19-1.19"/><path class="cls-1" d="M80.67,26.69a1.58,1.58,0,1,1,1.58,1.58,1.59,1.59,0,0,1-1.58-1.58"/><path class="cls-1" d="M83.29,26.69A1.68,1.68,0,1,1,85,28.37a1.68,1.68,0,0,1-1.68-1.68"/><path class="cls-1" d="M86.16,26.69a1.54,1.54,0,1,1,1.54,1.54,1.54,1.54,0,0,1-1.54-1.54"/><path class="cls-1" d="M89.5,26.69a0.91,0.91,0,1,1,.91.91,0.91,0.91,0,0,1-.91-0.91"/><path class="cls-1" d="M100.5,26.69a0.79,0.79,0,1,1,.79.79,0.79,0.79,0,0,1-.79-0.79"/><path class="cls-1" d="M102.35,26.69A1.66,1.66,0,1,1,104,28.35a1.66,1.66,0,0,1-1.66-1.66"/><path class="cls-1" d="M105,26.69a1.77,1.77,0,1,1,1.77,1.77A1.76,1.76,0,0,1,105,26.69"/><path class="cls-1" d="M107.69,26.69a1.77,1.77,0,1,1,1.77,1.77,1.76,1.76,0,0,1-1.77-1.77"/><path class="cls-1" d="M110.41,26.69a1.76,1.76,0,1,1,1.77,1.77,1.76,1.76,0,0,1-1.77-1.77"/><path class="cls-1" d="M113.13,26.69a1.77,1.77,0,1,1,1.77,1.77,1.77,1.77,0,0,1-1.77-1.77"/><path class="cls-1" d="M115.89,26.69a1.73,1.73,0,1,1,1.73,1.73,1.73,1.73,0,0,1-1.73-1.73"/><path class="cls-1" d="M119,26.69A1.33,1.33,0,1,1,120.34,28,1.33,1.33,0,0,1,119,26.69"/><path class="cls-1" d="M122.44,26.69a0.62,0.62,0,1,1,.62.62,0.62,0.62,0,0,1-.62-0.62"/><path class="cls-1" d="M125.6,26.69a0.18,0.18,0,1,1,.18.18,0.18,0.18,0,0,1-.18-0.18"/><path class="cls-1" d="M130.6,26.69a0.62,0.62,0,1,1,.62.62,0.62,0.62,0,0,1-.62-0.62"/><path class="cls-1" d="M132.55,26.69a1.39,1.39,0,1,1,1.39,1.39,1.39,1.39,0,0,1-1.39-1.39"/><path class="cls-1" d="M134.91,26.69a1.75,1.75,0,1,1,1.75,1.75,1.75,1.75,0,0,1-1.75-1.75"/><path class="cls-1" d="M137.62,26.69a1.77,1.77,0,1,1,1.77,1.77,1.76,1.76,0,0,1-1.77-1.77"/><path class="cls-1" d="M140.44,26.69a1.67,1.67,0,1,1,1.67,1.67,1.67,1.67,0,0,1-1.67-1.67"/><path class="cls-1" d="M143.62,26.69a1.2,1.2,0,1,1,1.2,1.2,1.2,1.2,0,0,1-1.2-1.2"/><path class="cls-1" d="M146.94,26.69a0.6,0.6,0,1,1,.6.6,0.6,0.6,0,0,1-.6-0.6"/><path class="cls-1" d="M149.95,26.69a0.32,0.32,0,1,1,.32.32,0.32,0.32,0,0,1-.32-0.32"/><path class="cls-1" d="M152.53,26.69a0.46,0.46,0,1,1,.46.46,0.46,0.46,0,0,1-.46-0.46"/><path class="cls-1" d="M154.77,26.69a0.94,0.94,0,1,1,.94.94,0.94,0.94,0,0,1-.94-0.94"/><path class="cls-1" d="M157,26.69a1.41,1.41,0,1,1,1.41,1.41A1.41,1.41,0,0,1,157,26.69"/><path class="cls-1" d="M159.45,26.69a1.7,1.7,0,1,1,1.7,1.7,1.7,1.7,0,0,1-1.7-1.7"/><path class="cls-1" d="M162.1,26.69a1.76,1.76,0,1,1,1.77,1.77,1.77,1.77,0,0,1-1.77-1.77"/><path class="cls-1" d="M164.83,26.69a1.76,1.76,0,1,1,1.76,1.76,1.76,1.76,0,0,1-1.76-1.76"/><path class="cls-1" d="M167.68,26.69a1.63,1.63,0,1,1,1.63,1.63,1.63,1.63,0,0,1-1.63-1.63"/><path class="cls-1" d="M171.07,26.69a1,1,0,1,1,1,1,1,1,0,0,1-1-1"/><path class="cls-1" d="M174.54,26.69a0.21,0.21,0,0,1,.21-0.21,0.21,0.21,0,1,1,0,.42,0.21,0.21,0,0,1-.21-0.21"/><path class="cls-1" d="M78.58,29.41a1,1,0,1,1,1,1,1,1,0,0,1-1-1"/><path class="cls-1" d="M80.76,29.41a1.49,1.49,0,1,1,1.49,1.49,1.49,1.49,0,0,1-1.49-1.49"/><path class="cls-1" d="M83.39,29.41A1.58,1.58,0,1,1,85,31a1.58,1.58,0,0,1-1.58-1.58"/><path class="cls-1" d="M86.34,29.41a1.35,1.35,0,1,1,1.35,1.35,1.35,1.35,0,0,1-1.35-1.35"/><path class="cls-1" d="M89.91,29.41a0.5,0.5,0,1,1,.5.5,0.5,0.5,0,0,1-.5-0.5"/><path class="cls-1" d="M100.19,29.41a1.1,1.1,0,1,1,1.1,1.1,1.1,1.1,0,0,1-1.1-1.1"/><path class="cls-1" d="M102.31,29.41A1.71,1.71,0,1,1,104,31.12a1.71,1.71,0,0,1-1.71-1.71"/><path class="cls-1" d="M105,29.41a1.77,1.77,0,1,1,1.77,1.77A1.76,1.76,0,0,1,105,29.41"/><path class="cls-1" d="M107.69,29.41a1.77,1.77,0,1,1,1.77,1.77,1.76,1.76,0,0,1-1.77-1.77"/><path class="cls-1" d="M110.41,29.41a1.76,1.76,0,1,1,1.77,1.77,1.76,1.76,0,0,1-1.77-1.77"/><path class="cls-1" d="M113.13,29.41a1.77,1.77,0,1,1,1.77,1.77,1.77,1.77,0,0,1-1.77-1.77"/><path class="cls-1" d="M115.87,29.41a1.74,1.74,0,1,1,1.74,1.74,1.74,1.74,0,0,1-1.74-1.74"/><path class="cls-1" d="M118.89,29.41a1.45,1.45,0,1,1,1.45,1.45,1.45,1.45,0,0,1-1.45-1.45"/><path class="cls-1" d="M122.27,29.41a0.79,0.79,0,1,1,.79.79,0.79,0.79,0,0,1-.79-0.79"/><path class="cls-1" d="M125.55,29.41a0.23,0.23,0,1,1,.23.23,0.23,0.23,0,0,1-.23-0.23"/><path class="cls-1" d="M130.83,29.41a0.4,0.4,0,1,1,.4.4,0.4,0.4,0,0,1-.4-0.4"/><path class="cls-1" d="M132.73,29.41a1.21,1.21,0,1,1,1.21,1.21,1.21,1.21,0,0,1-1.21-1.21"/><path class="cls-1" d="M134.95,29.41a1.72,1.72,0,1,1,1.72,1.72,1.72,1.72,0,0,1-1.72-1.72"/><path class="cls-1" d="M137.63,29.41a1.75,1.75,0,1,1,1.75,1.75,1.75,1.75,0,0,1-1.75-1.75"/><path class="cls-1" d="M140.53,29.41A1.57,1.57,0,1,1,142.1,31a1.57,1.57,0,0,1-1.57-1.57"/><path class="cls-1" d="M143.91,29.41a0.91,0.91,0,1,1,.91.91,0.91,0.91,0,0,1-.91-0.91"/><path class="cls-1" d="M147.29,29.41a0.26,0.26,0,1,1,.26.26,0.26,0.26,0,0,1-.26-0.26"/><path class="cls-1" d="M152.81,29.41a0.18,0.18,0,1,1,.18.18,0.18,0.18,0,0,1-.18-0.18"/><path class="cls-1" d="M155,29.41a0.69,0.69,0,1,1,.69.69,0.69,0.69,0,0,1-.69-0.69"/><path class="cls-1" d="M157.09,29.41a1.33,1.33,0,1,1,1.33,1.33,1.34,1.34,0,0,1-1.33-1.33"/><path class="cls-1" d="M159.47,29.41a1.67,1.67,0,1,1,1.67,1.67,1.68,1.68,0,0,1-1.67-1.67"/><path class="cls-1" d="M162.1,29.41a1.76,1.76,0,1,1,1.77,1.77,1.77,1.77,0,0,1-1.77-1.77"/><path class="cls-1" d="M164.82,29.41a1.77,1.77,0,1,1,1.77,1.77,1.76,1.76,0,0,1-1.77-1.77"/><path class="cls-1" d="M167.57,29.41a1.74,1.74,0,1,1,1.74,1.74,1.74,1.74,0,0,1-1.74-1.74"/><path class="cls-1" d="M170.59,29.41A1.45,1.45,0,1,1,172,30.85a1.44,1.44,0,0,1-1.45-1.45"/><path class="cls-1" d="M173.93,29.41a0.82,0.82,0,1,1,.82.82,0.82,0.82,0,0,1-.82-0.82"/><path class="cls-1" d="M78.75,32.13a0.78,0.78,0,1,1,.78.78,0.78,0.78,0,0,1-.78-0.78"/><path class="cls-1" d="M80.87,32.13a1.38,1.38,0,1,1,1.38,1.38,1.37,1.37,0,0,1-1.38-1.38"/><path class="cls-1" d="M83.47,32.13a1.5,1.5,0,1,1,1.5,1.5,1.5,1.5,0,0,1-1.5-1.5"/><path class="cls-1" d="M86.51,32.13a1.18,1.18,0,1,1,1.18,1.18,1.18,1.18,0,0,1-1.18-1.18"/><path class="cls-1" d="M90.08,32.13a0.33,0.33,0,1,1,.33.33,0.33,0.33,0,0,1-.33-0.33"/><path class="cls-1" d="M98.25,32.13a0.32,0.32,0,1,1,.32.32,0.32,0.32,0,0,1-.32-0.32"/><path class="cls-1" d="M100,32.13a1.26,1.26,0,1,1,1.26,1.26A1.27,1.27,0,0,1,100,32.13"/><path class="cls-1" d="M102.3,32.13A1.72,1.72,0,1,1,104,33.85a1.72,1.72,0,0,1-1.72-1.72"/><path class="cls-1" d="M105,32.13a1.76,1.76,0,1,1,1.76,1.76A1.76,1.76,0,0,1,105,32.13"/><path class="cls-1" d="M107.69,32.13a1.77,1.77,0,1,1,1.77,1.77,1.77,1.77,0,0,1-1.77-1.77"/><path class="cls-1" d="M110.42,32.13a1.76,1.76,0,1,1,1.76,1.76,1.76,1.76,0,0,1-1.76-1.76"/><path class="cls-1" d="M113.13,32.13a1.77,1.77,0,1,1,1.77,1.77,1.77,1.77,0,0,1-1.77-1.77"/><path class="cls-1" d="M115.86,32.13a1.76,1.76,0,1,1,1.76,1.76,1.76,1.76,0,0,1-1.76-1.76"/><path class="cls-1" d="M118.77,32.13a1.57,1.57,0,1,1,1.57,1.57,1.57,1.57,0,0,1-1.57-1.57"/><path class="cls-1" d="M122.07,32.13a1,1,0,1,1,1,1,1,1,0,0,1-1-1"/><path class="cls-1" d="M125.45,32.13a0.33,0.33,0,1,1,.33.33,0.33,0.33,0,0,1-.33-0.33"/><path class="cls-1" d="M130.92,32.13a0.3,0.3,0,1,1,.3.3,0.3,0.3,0,0,1-.3-0.3"/><path class="cls-1" d="M132.89,32.13a1.06,1.06,0,1,1,1.06,1.06,1.06,1.06,0,0,1-1.06-1.06"/><path class="cls-1" d="M135,32.13a1.7,1.7,0,1,1,1.7,1.7,1.7,1.7,0,0,1-1.7-1.7"/><path class="cls-1" d="M137.64,32.13a1.74,1.74,0,1,1,1.74,1.74,1.74,1.74,0,0,1-1.74-1.74"/><path class="cls-1" d="M140.62,32.13a1.48,1.48,0,1,1,1.48,1.48,1.48,1.48,0,0,1-1.48-1.48"/><path class="cls-1" d="M144.14,32.13a0.69,0.69,0,1,1,.69.69,0.69,0.69,0,0,1-.69-0.69"/><path class="cls-1" d="M155.14,32.13a0.57,0.57,0,1,1,.57.57,0.57,0.57,0,0,1-.57-0.57"/><path class="cls-1" d="M157.11,32.13a1.32,1.32,0,1,1,1.32,1.32,1.32,1.32,0,0,1-1.32-1.32"/><path class="cls-1" d="M159.47,32.13a1.67,1.67,0,1,1,1.67,1.68,1.68,1.68,0,0,1-1.67-1.68"/><path class="cls-1" d="M162.11,32.13a1.76,1.76,0,1,1,1.76,1.76,1.76,1.76,0,0,1-1.76-1.76"/><path class="cls-1" d="M164.82,32.13a1.77,1.77,0,1,1,1.77,1.77,1.77,1.77,0,0,1-1.77-1.77"/><path class="cls-1" d="M167.55,32.13a1.76,1.76,0,1,1,1.76,1.76,1.76,1.76,0,0,1-1.76-1.76"/><path class="cls-1" d="M170.31,32.13A1.72,1.72,0,1,1,172,33.85a1.72,1.72,0,0,1-1.72-1.72"/><path class="cls-1" d="M173.2,32.13a1.56,1.56,0,1,1,1.56,1.56,1.56,1.56,0,0,1-1.56-1.56"/><path class="cls-1" d="M176.42,32.13a1.06,1.06,0,1,1,1.06,1.06,1.06,1.06,0,0,1-1.06-1.06"/><path class="cls-1" d="M78.86,34.85a0.67,0.67,0,1,1,.67.67,0.67,0.67,0,0,1-.67-0.67"/><path class="cls-1" d="M80.94,34.85a1.31,1.31,0,1,1,1.31,1.31,1.31,1.31,0,0,1-1.31-1.31"/><path class="cls-1" d="M83.55,34.85A1.42,1.42,0,1,1,85,36.27a1.42,1.42,0,0,1-1.42-1.42"/><path class="cls-1" d="M86.66,34.85a1,1,0,1,1,1,1,1,1,0,0,1-1-1"/><path class="cls-1" d="M90.18,34.85a0.23,0.23,0,1,1,.23.23,0.23,0.23,0,0,1-.23-0.23"/><path class="cls-1" d="M98,34.85a0.58,0.58,0,1,1,.58.58A0.58,0.58,0,0,1,98,34.85"/><path class="cls-1" d="M99.91,34.85a1.39,1.39,0,1,1,1.39,1.39,1.39,1.39,0,0,1-1.39-1.39"/><path class="cls-1" d="M102.28,34.85A1.74,1.74,0,1,1,104,36.59a1.74,1.74,0,0,1-1.74-1.74"/><path class="cls-1" d="M105,34.85a1.76,1.76,0,1,1,1.76,1.76A1.76,1.76,0,0,1,105,34.85"/><path class="cls-1" d="M107.71,34.85a1.74,1.74,0,1,1,1.74,1.74,1.74,1.74,0,0,1-1.74-1.74"/><path class="cls-1" d="M110.43,34.85a1.74,1.74,0,1,1,1.74,1.74,1.74,1.74,0,0,1-1.74-1.74"/><path class="cls-1" d="M113.13,34.85a1.77,1.77,0,1,1,1.77,1.77,1.77,1.77,0,0,1-1.77-1.77"/><path class="cls-1" d="M115.86,34.85a1.76,1.76,0,1,1,1.76,1.76,1.76,1.76,0,0,1-1.76-1.76"/><path class="cls-1" d="M118.68,34.85a1.66,1.66,0,1,1,1.66,1.66,1.66,1.66,0,0,1-1.66-1.66"/><path class="cls-1" d="M121.88,34.85A1.18,1.18,0,1,1,123.06,36a1.18,1.18,0,0,1-1.18-1.18"/><path class="cls-1" d="M125.3,34.85a0.48,0.48,0,1,1,.48.48,0.48,0.48,0,0,1-.48-0.48"/><path class="cls-1" d="M131,34.85a0.23,0.23,0,1,1,.23.23,0.23,0.23,0,0,1-.23-0.23"/><path class="cls-1" d="M133,34.85a1,1,0,1,1,1,1,1,1,0,0,1-1-1"/><path class="cls-1" d="M135,34.85a1.65,1.65,0,1,1,1.65,1.65A1.65,1.65,0,0,1,135,34.85"/><path class="cls-1" d="M137.66,34.85a1.72,1.72,0,1,1,1.72,1.72,1.72,1.72,0,0,1-1.72-1.72"/><path class="cls-1" d="M140.7,34.85a1.4,1.4,0,1,1,1.4,1.4,1.4,1.4,0,0,1-1.4-1.4"/><path class="cls-1" d="M144.28,34.85a0.55,0.55,0,1,1,.55.55,0.55,0.55,0,0,1-.55-0.55"/><path class="cls-1" d="M155.23,34.85a0.48,0.48,0,1,1,.48.48,0.48,0.48,0,0,1-.48-0.48"/><path class="cls-1" d="M157.15,34.85a1.28,1.28,0,1,1,1.28,1.28,1.28,1.28,0,0,1-1.28-1.28"/><path class="cls-1" d="M159.47,34.85a1.68,1.68,0,1,1,1.68,1.68,1.68,1.68,0,0,1-1.68-1.68"/><path class="cls-1" d="M162.12,34.85a1.75,1.75,0,1,1,1.75,1.75,1.75,1.75,0,0,1-1.75-1.75"/><path class="cls-1" d="M164.82,34.85a1.77,1.77,0,1,1,1.77,1.77,1.76,1.76,0,0,1-1.77-1.77"/><path class="cls-1" d="M167.55,34.85a1.76,1.76,0,1,1,1.76,1.76,1.76,1.76,0,0,1-1.76-1.76"/><path class="cls-1" d="M170.31,34.85A1.72,1.72,0,1,1,172,36.57a1.72,1.72,0,0,1-1.72-1.72"/><path class="cls-1" d="M173.19,34.85a1.56,1.56,0,1,1,1.56,1.56,1.56,1.56,0,0,1-1.56-1.56"/><path class="cls-1" d="M176.41,34.85a1.06,1.06,0,1,1,1.06,1.06,1.06,1.06,0,0,1-1.06-1.06"/><path class="cls-1" d="M180,34.85a0.19,0.19,0,1,1,.19.19,0.19,0.19,0,0,1-.19-0.19"/><path class="cls-1" d="M79,37.57a0.54,0.54,0,1,1,.54.54A0.54,0.54,0,0,1,79,37.57"/><path class="cls-1" d="M81,37.57a1.22,1.22,0,1,1,1.22,1.22A1.22,1.22,0,0,1,81,37.57"/><path class="cls-1" d="M83.61,37.57A1.36,1.36,0,1,1,85,38.93a1.36,1.36,0,0,1-1.36-1.36"/><path class="cls-1" d="M86.78,37.57a0.91,0.91,0,1,1,.91.91,0.91,0.91,0,0,1-.91-0.91"/><path class="cls-1" d="M97.81,37.57a0.76,0.76,0,1,1,.76.76,0.76,0.76,0,0,1-.76-0.76"/><path class="cls-1" d="M99.81,37.57A1.48,1.48,0,1,1,101.29,39a1.48,1.48,0,0,1-1.48-1.48"/><path class="cls-1" d="M102.27,37.57A1.74,1.74,0,1,1,104,39.32a1.75,1.75,0,0,1-1.74-1.74"/><path class="cls-1" d="M105,37.57a1.76,1.76,0,1,1,1.76,1.76A1.76,1.76,0,0,1,105,37.57"/><path class="cls-1" d="M107.72,37.57a1.74,1.74,0,1,1,1.74,1.74,1.74,1.74,0,0,1-1.74-1.74"/><path class="cls-1" d="M110.43,37.57a1.74,1.74,0,1,1,1.74,1.74,1.75,1.75,0,0,1-1.74-1.74"/><path class="cls-1" d="M113.13,37.57a1.77,1.77,0,1,1,1.77,1.77,1.76,1.76,0,0,1-1.77-1.77"/><path class="cls-1" d="M115.86,37.57a1.76,1.76,0,1,1,1.76,1.76,1.76,1.76,0,0,1-1.76-1.76"/><path class="cls-1" d="M118.64,37.57a1.7,1.7,0,1,1,1.7,1.7,1.7,1.7,0,0,1-1.7-1.7"/><path class="cls-1" d="M121.7,37.57a1.36,1.36,0,1,1,1.36,1.36,1.36,1.36,0,0,1-1.36-1.36"/><path class="cls-1" d="M125.08,37.57a0.7,0.7,0,1,1,.7.7,0.7,0.7,0,0,1-.7-0.7"/><path class="cls-1" d="M128.31,37.57a0.19,0.19,0,1,1,.19.19,0.19,0.19,0,0,1-.19-0.19"/><path class="cls-1" d="M131,37.57a0.19,0.19,0,1,1,.19.19,0.19,0.19,0,0,1-.19-0.19"/><path class="cls-1" d="M133.11,37.57a0.83,0.83,0,1,1,.83.83,0.83,0.83,0,0,1-.83-0.83"/><path class="cls-1" d="M135.06,37.57a1.6,1.6,0,1,1,1.6,1.6,1.6,1.6,0,0,1-1.6-1.6"/><path class="cls-1" d="M137.64,37.57a1.74,1.74,0,1,1,1.74,1.74,1.75,1.75,0,0,1-1.74-1.74"/><path class="cls-1" d="M140.76,37.57a1.35,1.35,0,1,1,1.35,1.35,1.35,1.35,0,0,1-1.35-1.35"/><path class="cls-1" d="M144.38,37.57a0.44,0.44,0,1,1,.44.44,0.44,0.44,0,0,1-.44-0.44"/><path class="cls-1" d="M155.29,37.57a0.42,0.42,0,1,1,.42.42,0.42,0.42,0,0,1-.42-0.42"/><path class="cls-1" d="M157.21,37.57a1.22,1.22,0,1,1,1.22,1.22,1.22,1.22,0,0,1-1.22-1.22"/><path class="cls-1" d="M159.49,37.57a1.66,1.66,0,1,1,1.66,1.66,1.66,1.66,0,0,1-1.66-1.66"/><path class="cls-1" d="M162.12,37.57a1.75,1.75,0,1,1,1.75,1.75,1.75,1.75,0,0,1-1.75-1.75"/><path class="cls-1" d="M164.84,37.57a1.75,1.75,0,1,1,1.75,1.75,1.75,1.75,0,0,1-1.75-1.75"/><path class="cls-1" d="M167.61,37.57a1.7,1.7,0,1,1,1.7,1.7,1.7,1.7,0,0,1-1.7-1.7"/><path class="cls-1" d="M170.68,37.57A1.36,1.36,0,1,1,172,38.92a1.36,1.36,0,0,1-1.35-1.35"/><path class="cls-1" d="M174,37.57a0.76,0.76,0,1,1,.76.76,0.76,0.76,0,0,1-.76-0.76"/><path class="cls-1" d="M177.28,37.57a0.19,0.19,0,1,1,.19.19,0.19,0.19,0,0,1-.19-0.19"/><path class="cls-1" d="M79.11,40.29a0.42,0.42,0,1,1,.42.42,0.42,0.42,0,0,1-.42-0.42"/><path class="cls-1" d="M81.18,40.29a1.07,1.07,0,1,1,1.07,1.07,1.07,1.07,0,0,1-1.07-1.07"/><path class="cls-1" d="M83.75,40.29A1.22,1.22,0,1,1,85,41.51a1.22,1.22,0,0,1-1.22-1.22"/><path class="cls-1" d="M86.93,40.29a0.76,0.76,0,1,1,.76.76,0.76,0.76,0,0,1-.76-0.76"/><path class="cls-1" d="M95.63,40.29a0.22,0.22,0,1,1,.22.22,0.22,0.22,0,0,1-.22-0.22"/><path class="cls-1" d="M97.6,40.29a1,1,0,1,1,1,1,1,1,0,0,1-1-1"/><path class="cls-1" d="M99.77,40.29a1.53,1.53,0,1,1,1.53,1.53,1.53,1.53,0,0,1-1.53-1.53"/><path class="cls-1" d="M102.29,40.29A1.73,1.73,0,1,1,104,42a1.73,1.73,0,0,1-1.73-1.73"/><path class="cls-1" d="M105,40.29A1.75,1.75,0,1,1,106.74,42,1.75,1.75,0,0,1,105,40.29"/><path class="cls-1" d="M107.71,40.29A1.75,1.75,0,1,1,109.46,42a1.75,1.75,0,0,1-1.75-1.75"/><path class="cls-1" d="M110.41,40.29a1.76,1.76,0,1,1,1.77,1.77,1.76,1.76,0,0,1-1.77-1.77"/><path class="cls-1" d="M113.13,40.29a1.77,1.77,0,1,1,1.77,1.77,1.77,1.77,0,0,1-1.77-1.77"/><path class="cls-1" d="M115.85,40.29a1.77,1.77,0,1,1,1.77,1.77,1.77,1.77,0,0,1-1.77-1.77"/><path class="cls-1" d="M118.6,40.29A1.74,1.74,0,1,1,120.34,42a1.74,1.74,0,0,1-1.74-1.74"/><path class="cls-1" d="M121.56,40.29a1.5,1.5,0,1,1,1.5,1.5,1.5,1.5,0,0,1-1.5-1.5"/><path class="cls-1" d="M124.89,40.29a0.89,0.89,0,1,1,.89.89,0.89,0.89,0,0,1-.89-0.89"/><path class="cls-1" d="M128.19,40.29a0.31,0.31,0,1,1,.31.31,0.31,0.31,0,0,1-.31-0.31"/><path class="cls-1" d="M133.21,40.29a0.74,0.74,0,1,1,.74.74,0.74,0.74,0,0,1-.74-0.74"/><path class="cls-1" d="M135.1,40.29a1.56,1.56,0,1,1,1.56,1.56,1.56,1.56,0,0,1-1.56-1.56"/><path class="cls-1" d="M137.66,40.29A1.72,1.72,0,1,1,139.38,42a1.72,1.72,0,0,1-1.72-1.72"/><path class="cls-1" d="M140.8,40.29a1.3,1.3,0,1,1,1.3,1.3,1.3,1.3,0,0,1-1.3-1.3"/><path class="cls-1" d="M144.48,40.29a0.35,0.35,0,1,1,.35.35,0.35,0.35,0,0,1-.35-0.35"/><path class="cls-1" d="M155.36,40.29a0.35,0.35,0,1,1,.35.35,0.35,0.35,0,0,1-.35-0.35"/><path class="cls-1" d="M157.31,40.29a1.12,1.12,0,1,1,1.12,1.12,1.12,1.12,0,0,1-1.12-1.12"/><path class="cls-1" d="M159.54,40.29a1.61,1.61,0,1,1,1.61,1.61,1.61,1.61,0,0,1-1.61-1.61"/><path class="cls-1" d="M162.13,40.29A1.74,1.74,0,1,1,163.87,42a1.74,1.74,0,0,1-1.74-1.74"/><path class="cls-1" d="M164.85,40.29A1.74,1.74,0,1,1,166.59,42a1.74,1.74,0,0,1-1.74-1.74"/><path class="cls-1" d="M167.86,40.29a1.45,1.45,0,1,1,1.45,1.45,1.45,1.45,0,0,1-1.45-1.45"/><path class="cls-1" d="M171.34,40.29A0.69,0.69,0,1,1,172,41a0.69,0.69,0,0,1-.69-0.69"/><path class="cls-1" d="M79.28,43a0.25,0.25,0,1,1,.25.25A0.25,0.25,0,0,1,79.28,43"/><path class="cls-1" d="M81.38,43a0.87,0.87,0,1,1,.87.87A0.87,0.87,0,0,1,81.38,43"/><path class="cls-1" d="M83.94,43a1,1,0,1,1,1,1,1,1,0,0,1-1-1"/><path class="cls-1" d="M87.12,43a0.58,0.58,0,1,1,.58.58A0.58,0.58,0,0,1,87.12,43"/><path class="cls-1" d="M95.5,43a0.35,0.35,0,1,1,.35.35A0.35,0.35,0,0,1,95.5,43"/><path class="cls-1" d="M97.51,43a1.06,1.06,0,1,1,1.06,1.06A1.06,1.06,0,0,1,97.51,43"/><path class="cls-1" d="M99.79,43a1.5,1.5,0,1,1,1.5,1.5,1.5,1.5,0,0,1-1.5-1.5"/><path class="cls-1" d="M102.38,43A1.64,1.64,0,1,1,104,44.65,1.64,1.64,0,0,1,102.38,43"/><path class="cls-1" d="M105.08,43a1.65,1.65,0,1,1,1.65,1.65A1.65,1.65,0,0,1,105.08,43"/><path class="cls-1" d="M107.78,43a1.68,1.68,0,1,1,1.67,1.67A1.67,1.67,0,0,1,107.78,43"/><path class="cls-1" d="M110.49,43a1.69,1.69,0,1,1,1.69,1.69A1.69,1.69,0,0,1,110.49,43"/><path class="cls-1" d="M113.15,43a1.74,1.74,0,1,1,1.74,1.74A1.74,1.74,0,0,1,113.15,43"/><path class="cls-1" d="M115.86,43a1.76,1.76,0,1,1,1.76,1.76A1.76,1.76,0,0,1,115.86,43"/><path class="cls-1" d="M118.58,43a1.76,1.76,0,1,1,1.76,1.76A1.76,1.76,0,0,1,118.58,43"/><path class="cls-1" d="M121.46,43a1.6,1.6,0,1,1,1.6,1.6,1.6,1.6,0,0,1-1.6-1.6"/><path class="cls-1" d="M124.72,43a1.06,1.06,0,1,1,1.06,1.06A1.06,1.06,0,0,1,124.72,43"/><path class="cls-1" d="M128.08,43a0.42,0.42,0,1,1,.42.42,0.42,0.42,0,0,1-.42-0.42"/><path class="cls-1" d="M133.32,43a0.62,0.62,0,1,1,.62.62,0.62,0.62,0,0,1-.62-0.62"/><path class="cls-1" d="M135.18,43a1.49,1.49,0,1,1,1.49,1.49A1.49,1.49,0,0,1,135.18,43"/><path class="cls-1" d="M137.7,43a1.69,1.69,0,1,1,1.69,1.69A1.69,1.69,0,0,1,137.7,43"/><path class="cls-1" d="M140.91,43a1.2,1.2,0,1,1,1.2,1.2,1.2,1.2,0,0,1-1.2-1.2"/><path class="cls-1" d="M144.58,43a0.24,0.24,0,1,1,.24.24,0.24,0.24,0,0,1-.24-0.24"/><path class="cls-1" d="M155.46,43a0.25,0.25,0,1,1,.25.25,0.25,0.25,0,0,1-.25-0.25"/><path class="cls-1" d="M157.43,43a1,1,0,1,1,1,1,1,1,0,0,1-1-1"/><path class="cls-1" d="M159.62,43a1.53,1.53,0,1,1,1.53,1.53A1.53,1.53,0,0,1,159.62,43"/><path class="cls-1" d="M162.16,43a1.71,1.71,0,1,1,1.71,1.71A1.71,1.71,0,0,1,162.16,43"/><path class="cls-1" d="M164.87,43a1.72,1.72,0,1,1,1.72,1.72A1.72,1.72,0,0,1,164.87,43"/><path class="cls-1" d="M168,43a1.34,1.34,0,1,1,1.34,1.34A1.34,1.34,0,0,1,168,43"/><path class="cls-1" d="M171.5,43a0.53,0.53,0,1,1,.53.53A0.53,0.53,0,0,1,171.5,43"/><path class="cls-1" d="M81.65,45.73a0.6,0.6,0,1,1,.6.6,0.6,0.6,0,0,1-.6-0.6"/><path class="cls-1" d="M84.17,45.73a0.81,0.81,0,1,1,.81.81,0.81,0.81,0,0,1-.81-0.81"/><path class="cls-1" d="M87.3,45.73a0.4,0.4,0,1,1,.4.4,0.4,0.4,0,0,1-.4-0.4"/><path class="cls-1" d="M95.44,45.73a0.41,0.41,0,1,1,.41.41,0.41,0.41,0,0,1-.41-0.41"/><path class="cls-1" d="M97.57,45.73a1,1,0,1,1,1,1,1,1,0,0,1-1-1"/><path class="cls-1" d="M100,45.73A1.29,1.29,0,1,1,101.29,47,1.29,1.29,0,0,1,100,45.73"/><path class="cls-1" d="M102.71,45.73A1.31,1.31,0,1,1,104,47a1.31,1.31,0,0,1-1.31-1.31"/><path class="cls-1" d="M105.53,45.73a1.2,1.2,0,1,1,1.2,1.2,1.2,1.2,0,0,1-1.2-1.2"/><path class="cls-1" d="M108.24,45.73a1.22,1.22,0,1,1,1.22,1.22,1.22,1.22,0,0,1-1.22-1.22"/><path class="cls-1" d="M110.82,45.73a1.36,1.36,0,1,1,1.35,1.36,1.35,1.35,0,0,1-1.35-1.36"/><path class="cls-1" d="M113.33,45.73a1.57,1.57,0,1,1,1.57,1.57,1.57,1.57,0,0,1-1.57-1.57"/><path class="cls-1" d="M115.93,45.73a1.69,1.69,0,1,1,1.69,1.69,1.69,1.69,0,0,1-1.69-1.69"/><path class="cls-1" d="M118.6,45.73a1.74,1.74,0,1,1,1.74,1.74,1.74,1.74,0,0,1-1.74-1.74"/><path class="cls-1" d="M121.41,45.73a1.65,1.65,0,1,1,1.65,1.65,1.65,1.65,0,0,1-1.65-1.65"/><path class="cls-1" d="M124.61,45.73a1.17,1.17,0,1,1,1.17,1.18,1.17,1.17,0,0,1-1.17-1.18"/><path class="cls-1" d="M128,45.73a0.49,0.49,0,1,1,.49.49,0.49,0.49,0,0,1-.49-0.49"/><path class="cls-1" d="M133.47,45.73a0.47,0.47,0,1,1,.47.47,0.47,0.47,0,0,1-.47-0.47"/><path class="cls-1" d="M135.33,45.73a1.33,1.33,0,1,1,1.33,1.33,1.33,1.33,0,0,1-1.33-1.33"/><path class="cls-1" d="M137.81,45.73a1.58,1.58,0,1,1,1.58,1.58,1.58,1.58,0,0,1-1.58-1.58"/><path class="cls-1" d="M141.1,45.73a1,1,0,1,1,1,1,1,1,0,0,1-1-1"/><path class="cls-1" d="M157.64,45.73a0.78,0.78,0,1,1,.78.78,0.79,0.79,0,0,1-.78-0.78"/><path class="cls-1" d="M159.76,45.73a1.39,1.39,0,1,1,1.39,1.39,1.39,1.39,0,0,1-1.39-1.39"/><path class="cls-1" d="M162.21,45.73a1.66,1.66,0,1,1,1.66,1.66,1.66,1.66,0,0,1-1.66-1.66"/><path class="cls-1" d="M164.86,45.73a1.73,1.73,0,1,1,1.73,1.73,1.73,1.73,0,0,1-1.73-1.73"/><path class="cls-1" d="M167.77,45.73a1.54,1.54,0,1,1,1.54,1.54,1.54,1.54,0,0,1-1.54-1.54"/><path class="cls-1" d="M171,45.73a1,1,0,1,1,1,1,1,1,0,0,1-1-1"/><path class="cls-1" d="M174.33,45.73a0.42,0.42,0,1,1,.42.42,0.42,0.42,0,0,1-.42-0.42"/><path class="cls-1" d="M81.91,48.45a0.34,0.34,0,1,1,.34.34,0.34,0.34,0,0,1-.34-0.34"/><path class="cls-1" d="M84.44,48.45A0.54,0.54,0,1,1,85,49a0.54,0.54,0,0,1-.54-0.54"/><path class="cls-1" d="M87.5,48.45a0.19,0.19,0,1,1,.19.19,0.19,0.19,0,0,1-.19-0.19"/><path class="cls-1" d="M95.6,48.45a0.26,0.26,0,1,1,.26.26,0.26,0.26,0,0,1-.26-0.26"/><path class="cls-1" d="M97.91,48.45a0.67,0.67,0,1,1,.67.67,0.67,0.67,0,0,1-.67-0.67"/><path class="cls-1" d="M100.53,48.45a0.76,0.76,0,1,1,.76.77,0.76,0.76,0,0,1-.76-0.77"/><path class="cls-1" d="M103.38,48.45a0.64,0.64,0,1,1,.64.64,0.64,0.64,0,0,1-.64-0.64"/><path class="cls-1" d="M106.26,48.45a0.47,0.47,0,1,1,.47.47,0.47,0.47,0,0,1-.47-0.47"/><path class="cls-1" d="M109,48.45a0.42,0.42,0,1,1,.42.42,0.42,0.42,0,0,1-.42-0.42"/><path class="cls-1" d="M111.57,48.45a0.61,0.61,0,1,1,.61.61,0.61,0.61,0,0,1-.61-0.61"/><path class="cls-1" d="M113.88,48.45a1,1,0,1,1,1,1,1,1,0,0,1-1-1"/><path class="cls-1" d="M116.19,48.45a1.42,1.42,0,1,1,1.42,1.42,1.42,1.42,0,0,1-1.42-1.42"/><path class="cls-1" d="M118.69,48.45a1.65,1.65,0,1,1,1.65,1.65,1.65,1.65,0,0,1-1.65-1.65"/><path class="cls-1" d="M121.46,48.45a1.6,1.6,0,1,1,1.6,1.6,1.6,1.6,0,0,1-1.6-1.6"/><path class="cls-1" d="M124.61,48.45a1.17,1.17,0,1,1,1.17,1.17,1.17,1.17,0,0,1-1.17-1.17"/><path class="cls-1" d="M128,48.45a0.46,0.46,0,1,1,.46.46,0.46,0.46,0,0,1-.46-0.46"/><path class="cls-1" d="M133.62,48.45a0.32,0.32,0,1,1,.32.32,0.32,0.32,0,0,1-.32-0.32"/><path class="cls-1" d="M135.57,48.45a1.09,1.09,0,1,1,1.09,1.09,1.09,1.09,0,0,1-1.09-1.09"/><path class="cls-1" d="M138,48.45a1.36,1.36,0,1,1,1.36,1.36A1.35,1.35,0,0,1,138,48.45"/><path class="cls-1" d="M141.36,48.45a0.74,0.74,0,1,1,.74.74,0.74,0.74,0,0,1-.74-0.74"/><path class="cls-1" d="M157.94,48.45a0.49,0.49,0,1,1,.49.49,0.49,0.49,0,0,1-.49-0.49"/><path class="cls-1" d="M160,48.45a1.16,1.16,0,1,1,1.16,1.16A1.16,1.16,0,0,1,160,48.45"/><path class="cls-1" d="M162.32,48.45A1.55,1.55,0,1,1,163.87,50a1.55,1.55,0,0,1-1.55-1.55"/><path class="cls-1" d="M164.91,48.45a1.68,1.68,0,1,1,1.68,1.68,1.68,1.68,0,0,1-1.68-1.68"/><path class="cls-1" d="M167.61,48.45a1.7,1.7,0,1,1,1.7,1.7,1.7,1.7,0,0,1-1.7-1.7"/><path class="cls-1" d="M170.45,48.45A1.58,1.58,0,1,1,172,50a1.58,1.58,0,0,1-1.58-1.58"/><path class="cls-1" d="M173.46,48.45a1.29,1.29,0,1,1,1.29,1.29,1.29,1.29,0,0,1-1.29-1.29"/><path class="cls-1" d="M176.62,48.45a0.85,0.85,0,1,1,.85.86,0.85,0.85,0,0,1-.85-0.86"/><path class="cls-1" d="M179.91,48.45a0.28,0.28,0,1,1,.29.29,0.28,0.28,0,0,1-.29-0.29"/><path class="cls-1" d="M98.37,51.17a0.21,0.21,0,1,1,.21.21,0.21,0.21,0,0,1-.21-0.21"/><path class="cls-1" d="M101.07,51.17a0.22,0.22,0,1,1,.22.22,0.22,0.22,0,0,1-.22-0.22"/><path class="cls-1" d="M114.61,51.17a0.29,0.29,0,1,1,.29.29,0.29,0.29,0,0,1-.29-0.29"/><path class="cls-1" d="M116.79,51.17a0.83,0.83,0,1,1,.83.83,0.83,0.83,0,0,1-.83-0.83"/><path class="cls-1" d="M119.06,51.17a1.28,1.28,0,1,1,1.28,1.28,1.28,1.28,0,0,1-1.28-1.28"/><path class="cls-1" d="M121.7,51.17a1.36,1.36,0,1,1,1.36,1.36,1.36,1.36,0,0,1-1.36-1.36"/><path class="cls-1" d="M124.84,51.17a0.94,0.94,0,1,1,.94.94,0.94,0.94,0,0,1-.94-0.94"/><path class="cls-1" d="M128.22,51.17a0.28,0.28,0,1,1,.28.28,0.28,0.28,0,0,1-.28-0.28"/><path class="cls-1" d="M136,51.17a0.7,0.7,0,1,1,.7.7,0.69,0.69,0,0,1-.7-0.7"/><path class="cls-1" d="M138.48,51.17a0.9,0.9,0,1,1,.9.9,0.9,0.9,0,0,1-.9-0.9"/><path class="cls-1" d="M141.71,51.17a0.4,0.4,0,1,1,.4.4,0.4,0.4,0,0,1-.4-0.4"/><path class="cls-1" d="M158.23,51.17a0.19,0.19,0,1,1,.19.19,0.19,0.19,0,0,1-.19-0.19"/><path class="cls-1" d="M160.43,51.17a0.72,0.72,0,1,1,.72.72,0.72,0.72,0,0,1-.72-0.72"/><path class="cls-1" d="M162.63,51.17a1.24,1.24,0,1,1,1.24,1.24,1.24,1.24,0,0,1-1.24-1.24"/><path class="cls-1" d="M165.07,51.17a1.52,1.52,0,1,1,1.52,1.52,1.52,1.52,0,0,1-1.52-1.52"/><path class="cls-1" d="M167.68,51.17a1.63,1.63,0,1,1,1.63,1.63,1.63,1.63,0,0,1-1.63-1.63"/><path class="cls-1" d="M170.38,51.17A1.65,1.65,0,1,1,172,52.83a1.65,1.65,0,0,1-1.65-1.65"/><path class="cls-1" d="M173.15,51.17a1.61,1.61,0,1,1,1.61,1.61,1.61,1.61,0,0,1-1.61-1.61"/><path class="cls-1" d="M176.08,51.17a1.39,1.39,0,1,1,1.39,1.39,1.39,1.39,0,0,1-1.39-1.39"/><path class="cls-1" d="M179.39,51.17a0.81,0.81,0,1,1,.81.81,0.81,0.81,0,0,1-.81-0.81"/><path class="cls-1" d="M119.84,53.89a0.5,0.5,0,1,1,.5.5,0.5,0.5,0,0,1-.5-0.5"/><path class="cls-1" d="M122.42,53.89a0.64,0.64,0,1,1,.64.64,0.64,0.64,0,0,1-.64-0.64"/><path class="cls-1" d="M125.46,53.89a0.32,0.32,0,1,1,.32.32,0.32,0.32,0,0,1-.32-0.32"/><path class="cls-1" d="M136.44,53.89a0.22,0.22,0,1,1,.22.22,0.22,0.22,0,0,1-.22-0.22"/><path class="cls-1" d="M139.06,53.89a0.33,0.33,0,1,1,.33.33,0.33,0.33,0,0,1-.33-0.33"/><path class="cls-1" d="M160.93,53.89a0.22,0.22,0,1,1,.22.22,0.21,0.21,0,0,1-.22-0.22"/><path class="cls-1" d="M163.26,53.89a0.6,0.6,0,1,1,.6.6,0.6,0.6,0,0,1-.6-0.6"/><path class="cls-1" d="M165.64,53.89a0.95,0.95,0,1,1,.95.94,0.95,0.95,0,0,1-.95-0.94"/><path class="cls-1" d="M168.2,53.89A1.11,1.11,0,1,1,169.31,55a1.11,1.11,0,0,1-1.11-1.11"/><path class="cls-1" d="M170.89,53.89A1.14,1.14,0,1,1,172,55a1.14,1.14,0,0,1-1.14-1.14"/><path class="cls-1" d="M173.67,53.89A1.08,1.08,0,1,1,174.75,55a1.08,1.08,0,0,1-1.08-1.08"/><path class="cls-1" d="M176.59,53.89a0.88,0.88,0,1,1,.88.88,0.88,0.88,0,0,1-.88-0.88"/><path class="cls-1" d="M179.8,53.89a0.4,0.4,0,1,1,.4.4,0.4,0.4,0,0,1-.4-0.4"/><path class="cls-1" d="M169.12,56.61a0.19,0.19,0,1,1,.19.19,0.19,0.19,0,0,1-.19-0.19"/><path class="cls-1" d="M171.84,56.61a0.19,0.19,0,1,1,.19.19,0.19,0.19,0,0,1-.19-0.19"/></svg>