<svg id="Layer_1" data-name="Layer 1" xmlns="http://www.w3.org/2000/svg" xmlns:xlink="http://www.w3.org/1999/xlink" viewBox="0 0 254 100"><defs><style>.cls-1{fill:#fff;}.cls-2{clip-path:url(#clip-path);}</style><clipPath id="clip-path"><path class="cls-1" d="M175.44,115.09s-4.79,1.61-7.33,3.84a9.39,9.39,0,0,0-3.22,5.24,26.43,26.43,0,0,1,3.68-1.61l17.23-5.63s0.67,13.09-7,18.86a26.15,26.15,0,0,0,7.78-3.08c11.38-6.47,10.44-24.65,10.44-24.65Z"/></clipPath></defs><title>LD_website logo</title><polygon class="cls-1" points="81.8 65.41 82.7 66.53 82.7 73.56 84.9 73.56 84.9 65.41 81.8 65.41"/><polygon class="cls-1" points="161.79 65.5 162.68 66.61 162.68 73.64 164.78 73.64 164.78 65.5 161.79 65.5"/><polygon class="cls-1" points="94.9 65.5 95.8 66.68 95.8 73.71 98 73.71 98 65.5 94.9 65.5"/><polygon class="cls-1" points="86.51 67.64 86.92 65.41 93.68 65.41 94.02 67.57 92.87 66.38 91.23 66.38 91.23 73.64 89.13 73.64 89.13 66.29 87.84 66.29 86.51 67.64"/><path class="cls-1" d="M105.5,67.73l-0.16-2c-1.31-.17-2.37-0.65-3.67-0.08s-2.43,2.71-.73,3.9c0.81,0.65,4.48,2.09,1.8,3.29a2.28,2.28,0,0,1-2.69-1.36v1.2a5.39,5.39,0,0,0,2.69,1c2.36,0.17,3.49-2,2.68-3.43a11.78,11.78,0,0,0-2.85-2.08,1.32,1.32,0,0,1,0-2.16,2.2,2.2,0,0,1,2,.41Z"/><polygon class="cls-1" points="106.89 65.33 107.87 66.53 107.87 73.56 110.14 73.56 110.14 69.82 113.16 69.82 113.16 73.56 115.52 73.56 115.52 65.42 113.16 65.42 113.16 68.6 110.14 68.6 110.14 65.33 106.89 65.33"/><polygon class="cls-1" points="132.14 73.64 133.69 66.93 132.95 65.57 135.54 65.57 137.43 69.41 139.62 65.41 141.59 65.41 142.89 73.64 140.68 73.64 139.71 67.64 136.86 73.01 134.09 67.73 132.79 73.64 132.14 73.64"/><polygon class="cls-1" points="144.11 65.41 145 66.37 145 73.64 150.54 73.64 150.54 72.05 149.56 72.76 147.12 72.76 147.12 69.48 149.81 69.48 149.81 68.45 147.12 68.45 147.12 66.37 150.05 66.37 150.05 65.41 144.11 65.41"/><path class="cls-1" d="M173.84,68l-0.17-2c-3.74-1.6-7.32.48-6.51,4.72,0.25,1.36,2.29,2.95,4.07,2.87a5.93,5.93,0,0,0,2.52-.49V71.64c-1.21,1-2.37,1.6-4-.08-1.72-2.15-.58-5.44,2.52-5.19A10.22,10.22,0,0,1,173.84,68"/><polygon class="cls-1" points="184.26 65.41 185.08 66.93 185.08 73.64 185.98 73.64 185.98 68.13 190.78 73.64 192 73.64 192 65.41 190.95 65.41 190.95 70.77 186.47 65.41 184.26 65.41"/><path class="cls-1" d="M68,64.13c2.52,0.4,2.36,3.43.17,4.15,3.1,1,3.1,4.48-.33,5.36H62.82V65.41L62,64.13h6Zm-3.09.71v3.44c1.71,0,2.61-.24,2.7-1.67S66.81,64.53,64.94,64.84Zm0,4.23v3.6c2,0,3.09,0,3.17-1.83S66.91,68.85,64.94,69.08Z"/><path class="cls-1" d="M76.82,65.5c3.11,0,3,3.67.25,4.23l4,3.91H78.2l-3.56-3.43v3.43h-2v-7L71.86,65.5h5Zm-2.11.39v3c1.47,0,2.28-.24,2.36-1.51S76.35,65.8,74.71,65.88Z"/><path class="cls-1" d="M156.74,65.5c3,0,2.84,3.42.24,4l4.31,4.16h-2.93l-3.74-3.75v3.75h-1.87V66.53l-0.75-1h4.74Zm-2,.71v3c1.38,0,2.2-.17,2.29-1.44S156.25,66,154.7,66.21Z"/><path class="cls-1" d="M121.39,73.64l3.9-8.71-0.89-1.28h2.85l4.23,10h-2.35l-1.41-3.36h-3.49l-1.47,3.36h-1.38Zm6.1-4.08-1.38-3.9-1.55,3.9h2.93Z"/><path class="cls-1" d="M175.06,73.64l3.27-7.11-0.76-1H180l3.41,8.14h-1.94l-1.07-2.71h-3l-1.14,2.71h-1.14Zm5.06-3.36L179,67.09l-1.3,3.18h2.45Z"/><polygon class="cls-1" points="94.99 80.36 95.4 78.12 103.54 78.12 103.86 80.27 102.72 79.07 100.46 79.07 100.46 87.54 98.41 87.54 98.41 79 96.29 79 94.99 80.36"/><path class="cls-1" d="M139.54,82l-0.08-2c-3.74-1.68-7.33.49-6.59,4.72A4.38,4.38,0,0,0,137,87.54a5.49,5.49,0,0,0,2.44-.4V85.71c-1.14,1-2.27,1.6-3.9-.16-1.71-2.08-.66-5.44,2.53-5.12A6.84,6.84,0,0,1,139.54,82"/><path class="cls-1" d="M148.1,82.11l-0.08-2c-3.75-1.67-7.34.47-6.61,4.7a4.3,4.3,0,0,0,4.14,2.8,5.69,5.69,0,0,0,2.46-.39V85.78c-1.15,1-2.28,1.6-3.91-.15-1.8-2.08-.66-5.43,2.52-5.11a7,7,0,0,1,1.47,1.59"/><path class="cls-1" d="M119.75,79.63c2.45,0.32,2.29,2.8.16,3.44,3,0.8,2.85,4.07-.24,4.39h-4.81V80.67l-0.82-1h5.71Zm-2.94.56v2.88c1.63,0,2.52-.16,2.61-1.36S118.61,80,116.82,80.19Zm0,3.52v3c2,0,3,0,3-1.51C120,83.79,118.7,83.55,116.82,83.71Z"/><path class="cls-1" d="M123.17,87.46l3.09-6.87-0.74-1h2.53l3.26,8-2-.08-0.82-2h-3.33l-0.89,2h-1.06Zm5-2.88-1.3-3.43-1.39,3.43h2.69Z"/><path class="cls-1" d="M108.51,79.48a4,4,0,1,1,0,8,4,4,0,1,1,0-8m-2.28,4.07c0,1.93,1.06,3.44,2.28,3.44s2.29-1.51,2.29-3.44-1-3.35-2.29-3.35S106.23,81.71,106.23,83.55Z"/><path class="cls-1" d="M154.61,79.48a4,4,0,1,1,0,8,4,4,0,1,1,0-8m-2.28,4.07c0,1.93,1,3.44,2.28,3.44s2.28-1.51,2.28-3.44-1.06-3.35-2.28-3.35S152.33,81.71,152.33,83.55Z"/><path class="cls-1" d="M113.62,58.18c-11.29,0-21.79-11.22-24.44-23.87,10-.55,22.37,3.21,28.12,9-0.4-9.93,3.77-20.44,9.69-26.45,7.31,6.66,9.94,19.33,9.79,26.22,8.34-6.33,17.23-8.66,28-8.26-2.88,12.91-13,23.65-24.84,23.56l8.89-4.88L137.5,57l16.59-14.26L134.37,56l4.81-10-7.53,9.78,1.61-10.34-4.89,10.1-1-30.12L125.63,55.3l-4.73-10,1.93,10.26-7.76-9.14,4.56,9.7L99.68,42.57l17,14.18L105.6,53Z"/><path class="cls-1" d="M175.44,115.09s-4.79,1.61-7.33,3.84a9.39,9.39,0,0,0-3.22,5.24,26.43,26.43,0,0,1,3.68-1.61l17.23-5.63s0.67,13.09-7,18.86a26.15,26.15,0,0,0,7.78-3.08c11.38-6.47,10.44-24.65,10.44-24.65Z"/><g class="cls-2"><rect class="cls-1" x="160.57" y="102.38" width="41.65" height="39.09" transform="translate(-34.53 88.08) rotate(-25)"/></g></svg>