<svg id="Layer_1" data-name="Layer 1" xmlns="http://www.w3.org/2000/svg" viewBox="0 0 254 80"><defs><style>.cls-1{fill:#fff;}.cls-2{fill:#c6c6c6;}</style></defs><title>LD_website logo</title><polyline class="cls-1" points="127.13 16.76 157.36 35.78 127.13 11.4 96.9 35.78 127.13 16.76"/><polyline class="cls-1" points="127.13 25.85 157.36 35.78 127.13 20.37 96.9 35.78 127.13 25.85"/><polyline class="cls-1" points="57.45 42.45 63.81 42.45 63.63 43.6 58.86 43.6 58.86 47.42 62.85 47.42 62.85 48.62 58.86 48.62 58.86 52.88 63.98 52.88 63.98 54.09 57.45 54.09 57.45 42.45"/><path class="cls-1" d="M65.58,45.79l1.29-.35a3.4,3.4,0,0,1,.31,1.32,3.79,3.79,0,0,1,2.66-1.31,2.24,2.24,0,0,1,2.07,1.24,2.43,2.43,0,0,1,.2,1v6.41H70.77V48.37a1.84,1.84,0,0,0-.3-1.41,1.25,1.25,0,0,0-.93-0.35,3.88,3.88,0,0,0-2.34,1.19v6.29H65.9V47.57a3.94,3.94,0,0,0-.32-1.78"/><path class="cls-1" d="M84.64,52.55c0,0.66.1,0.85,0.47,0.85a0.94,0.94,0,0,0,.17,0l0.27,0.86a1.68,1.68,0,0,1-.85.19,1.42,1.42,0,0,1-1-.36,1.47,1.47,0,0,1-.41-1.2v-9a6.15,6.15,0,0,0-.2-1.73l1.32-.25a7.44,7.44,0,0,1,.22,2v8.63"/><path class="cls-1" d="M87.55,45.67l1.37-.22v8.64H87.55V45.67M88.26,42a1,1,0,1,1-1,1.05A1,1,0,0,1,88.26,42Z"/><path class="cls-1" d="M96.67,46l-0.49,1a4.81,4.81,0,0,0-2.12-.61,1.42,1.42,0,0,0-1.59,1.39A1.2,1.2,0,0,0,93.68,49l1.12,0.24c1.53,0.32,2.26,1.1,2.26,2.36,0,1.65-1.29,2.77-3.19,2.77a6.27,6.27,0,0,1-3.11-.85l0.51-1a5.06,5.06,0,0,0,2.68.8,1.5,1.5,0,0,0,1.71-1.46,1.39,1.39,0,0,0-1.39-1.39l-1.05-.22a2.35,2.35,0,0,1-2.14-2.32c0-1.53,1.24-2.59,3-2.59a5.5,5.5,0,0,1,2.58.68"/><path class="cls-1" d="M98.62,41.94l1.32-.25a7.38,7.38,0,0,1,.22,2v2c0,0.54-.05,1.15-0.05,1.15a4.3,4.3,0,0,1,2.82-1.34,2.22,2.22,0,0,1,2.17,1.34,3.77,3.77,0,0,1,.14,1.22v6.06h-1.31V48.25a1.71,1.71,0,0,0-.32-1.25,1.4,1.4,0,0,0-1-.34,3.41,3.41,0,0,0-2.46,1.43v6H98.84V43.67a5.71,5.71,0,0,0-.22-1.73"/><path class="cls-1" d="M114.61,43.74a3.16,3.16,0,0,1,2.21.58,2.24,2.24,0,0,1,.68,1.85,2.34,2.34,0,0,1-.59,1.65,2.08,2.08,0,0,1-1.81.63h-2v-4.7h1.48m-2.83,10.47h1.36V49.58h2a3.85,3.85,0,0,0,2.82-.92A3.44,3.44,0,0,0,119,45.9a3.19,3.19,0,0,0-1.49-2.78,4.27,4.27,0,0,0-2.54-.54h-3.22V54.21Z"/><path class="cls-1" d="M124.77,52.12a2.32,2.32,0,0,1-2.05,1.32,1.34,1.34,0,0,1-1.46-1.54c0-1.29.76-2,2.9-2,0.24,0,.44,0,0.66,0l0,2.21m-4-4.5a4.67,4.67,0,0,1,2.7-1,1.4,1.4,0,0,1,1.14.46,1.84,1.84,0,0,1,.27,1.33V49s-0.24,0-.59,0c-2.83,0-4.48,1.12-4.48,3,0,1.14.63,2.41,2.71,2.41a3.15,3.15,0,0,0,2.44-1.14,1.73,1.73,0,0,0,1.15,1.24l0.68-.95c-0.63-.34-0.71-0.69-0.68-2.07l0.07-2.78a5,5,0,0,0-.19-1.87,2.3,2.3,0,0,0-2.34-1.32,6.37,6.37,0,0,0-3.55,1.14Z"/><path class="cls-1" d="M128.38,45.9l1.32-.36a3,3,0,0,1,.27,1.38,3.07,3.07,0,0,1,2.38-1.41,1.61,1.61,0,0,1,.46.08L132.26,47a1.17,1.17,0,0,0-.37-0.07,2,2,0,0,0-1.41.61,1.52,1.52,0,0,0-.49,1.34v5.29h-1.32V47.69a4.29,4.29,0,0,0-.29-1.8"/><path class="cls-1" d="M138.6,45.76l-0.41,1h-1.77v5.45c0,0.93.26,1.26,1.09,1.26a1.67,1.67,0,0,0,.83-0.17l0.19,0.85a3.14,3.14,0,0,1-1.49.34,2.47,2.47,0,0,1-1.1-.24,1.62,1.62,0,0,1-.81-1.68v-5.8H134v-1h1.1c0-.81.13-2.14,0.13-2.14l1.39-.31a22.88,22.88,0,0,0-.17,2.44h2.12"/><path class="cls-1" d="M140.19,45.91l1.29-.36a3.4,3.4,0,0,1,.31,1.32,3.79,3.79,0,0,1,2.66-1.31,2.24,2.24,0,0,1,2.07,1.24,2.42,2.42,0,0,1,.2,1v6.41h-1.34V48.49a1.85,1.85,0,0,0-.3-1.41,1.25,1.25,0,0,0-.93-0.35,3.89,3.89,0,0,0-2.34,1.19v6.29h-1.29V47.69a3.93,3.93,0,0,0-.32-1.78"/><path class="cls-1" d="M151.85,46.57a1.8,1.8,0,0,1,1.53.75,3.62,3.62,0,0,1,.39,1.88H149.9c0.07-1.75.75-2.63,2-2.63m0.54,6.72a2.39,2.39,0,0,1-2.1-1,3.37,3.37,0,0,1-.39-1.85V50.2h5.28V50c0-2-.24-2.81-1-3.56a3.11,3.11,0,0,0-2.29-.92,3.16,3.16,0,0,0-2.53,1.17,4.52,4.52,0,0,0-1,3.19c0,2.8,1.41,4.5,3.75,4.5A4.22,4.22,0,0,0,155,53.34l-0.51-.85A2.91,2.91,0,0,1,152.39,53.29Z"/><path class="cls-1" d="M156.86,45.9l1.32-.36a3,3,0,0,1,.27,1.38,3.07,3.07,0,0,1,2.38-1.41,1.62,1.62,0,0,1,.46.08L160.74,47a1.17,1.17,0,0,0-.37-0.07,2,2,0,0,0-1.41.61,1.53,1.53,0,0,0-.49,1.34v5.29h-1.32V47.69a4.28,4.28,0,0,0-.29-1.8"/><path class="cls-1" d="M167.71,46.12l-0.49,1a4.78,4.78,0,0,0-2.12-.61,1.41,1.41,0,0,0-1.59,1.39,1.2,1.2,0,0,0,1.22,1.22l1.12,0.24c1.53,0.32,2.26,1.1,2.26,2.36,0,1.64-1.29,2.76-3.19,2.76a6.24,6.24,0,0,1-3.1-.85l0.51-1a5.07,5.07,0,0,0,2.68.8A1.49,1.49,0,0,0,166.71,52a1.39,1.39,0,0,0-1.39-1.39l-1.05-.22A2.35,2.35,0,0,1,162.13,48a2.7,2.7,0,0,1,3-2.6,5.5,5.5,0,0,1,2.58.68"/><path class="cls-1" d="M169.57,42.06l1.32-.25a7.46,7.46,0,0,1,.22,2v2c0,0.54,0,1.15,0,1.15a4.29,4.29,0,0,1,2.81-1.34,2.21,2.21,0,0,1,2.17,1.34,3.82,3.82,0,0,1,.14,1.22v6.06h-1.31V48.37a1.71,1.71,0,0,0-.32-1.25,1.41,1.41,0,0,0-1-.34,3.41,3.41,0,0,0-2.46,1.42v6h-1.32V43.79a5.73,5.73,0,0,0-.22-1.73"/><path class="cls-1" d="M178.48,45.79l1.37-.22v8.63h-1.37V45.79m0.71-3.68a1,1,0,1,1-1,1.05A1,1,0,0,1,179.19,42.11Z"/><path class="cls-1" d="M183.42,48a2.9,2.9,0,0,1,2.26-1.19,1.69,1.69,0,0,1,1.56.93,6.3,6.3,0,0,1,.39,2.43,4.9,4.9,0,0,1-.36,2.14,2,2,0,0,1-1.78,1.05,2.85,2.85,0,0,1-2.07-1.1V48m-1.32-.37V57.74l1.32-.25v-4a3.31,3.31,0,0,0,2.33,1,3,3,0,0,0,2.61-1.54A5.09,5.09,0,0,0,189,50a5,5,0,0,0-.93-3.32,2.89,2.89,0,0,0-2.26-1.05,3.25,3.25,0,0,0-2.49,1.24,6.45,6.45,0,0,0-.09-1.29l-1.36.24A6.09,6.09,0,0,1,182.1,47.59Z"/><path class="cls-1" d="M196.16,46.12l-0.49,1a4.77,4.77,0,0,0-2.12-.61A1.41,1.41,0,0,0,192,47.88a1.2,1.2,0,0,0,1.22,1.22l1.12,0.24c1.53,0.32,2.26,1.1,2.26,2.36,0,1.64-1.29,2.76-3.19,2.76a6.26,6.26,0,0,1-3.11-.85l0.51-1a5.08,5.08,0,0,0,2.68.8A1.5,1.5,0,0,0,195.16,52a1.39,1.39,0,0,0-1.39-1.39l-1.05-.22A2.35,2.35,0,0,1,190.58,48c0-1.53,1.24-2.6,3-2.6a5.5,5.5,0,0,1,2.58.68"/><path class="cls-1" d="M80,52.8a3.24,3.24,0,0,0-2-.48H76.64c-0.42,0-.68-0.15-0.68-0.4s0.39-.58,1.53-1a2.9,2.9,0,0,0,1.58-.37,2.74,2.74,0,0,0,1.26-2.32,2.23,2.23,0,0,0-.51-1.44,1.49,1.49,0,0,0,.58.1,2.25,2.25,0,0,0,1.42-.51L81,45.57a1.93,1.93,0,0,1-1.17.37c-1,0-1.29-.48-2.58-0.48a2.85,2.85,0,0,0-3.12,2.85A2.59,2.59,0,0,0,76,50.76c-1.15.36-1.53,0.76-1.53,1.44s0.6,1.22,1.6,1.22l1.31,0a3,3,0,0,1,1.66.3,1.15,1.15,0,0,1,.46,1c0,1.05-.75,1.48-2.05,1.48a3.57,3.57,0,0,1-1.71-.39,1,1,0,0,1-.46-0.68H73.95c0,1.18,1.05,2.11,3.66,2.11,2.05,0,3.36-.83,3.36-2.67A2,2,0,0,0,80,52.8m-4.41-4.5a1.46,1.46,0,0,1,1.59-1.71,1.38,1.38,0,0,1,1.56,1.66,1.43,1.43,0,0,1-1.53,1.7A1.46,1.46,0,0,1,75.63,48.3Z"/><polyline class="cls-2" points="73.52 59.86 77.07 59.86 77.03 60.4 75.58 60.4 75.58 65.22 74.96 65.22 74.96 60.4 73.52 60.4 73.52 59.86"/><path class="cls-2" d="M77.65,59.63l0.61-.12a3.4,3.4,0,0,1,.1.92v0.91c0,0.25,0,.53,0,0.53a2,2,0,0,1,1.3-.62,1,1,0,0,1,1,.62,1.71,1.71,0,0,1,.06.56v2.79h-0.6V62.53A0.8,0.8,0,0,0,79.94,62a0.64,0.64,0,0,0-.45-0.16,1.57,1.57,0,0,0-1.13.66v2.76H77.75v-4.8a2.65,2.65,0,0,0-.1-0.8"/><path class="cls-2" d="M83.12,61.7a0.83,0.83,0,0,1,.7.34,1.67,1.67,0,0,1,.18.87H82.22c0-.81.34-1.21,0.9-1.21m0.25,3.09a1.1,1.1,0,0,1-1-.48,1.55,1.55,0,0,1-.18-0.85V63.38h2.43V63.29a2.09,2.09,0,0,0-.44-1.64,1.53,1.53,0,0,0-2.22.12,2.07,2.07,0,0,0-.47,1.47c0,1.29.65,2.07,1.73,2.07a1.93,1.93,0,0,0,1.31-.48l-0.23-.39A1.34,1.34,0,0,1,83.37,64.8Z"/><path class="cls-2" d="M87.57,59.86h0.74l1.78,3.42a10.48,10.48,0,0,1,.5,1.12s-0.06-.86-0.07-1.63l0-2.91h0.63v5.36H90.46l-1.72-3.28c-0.34-.65-0.61-1.29-0.61-1.29s0.06,0.76.07,1.46l0,3.11H87.57V59.86"/><path class="cls-2" d="M94.36,64.26a1.07,1.07,0,0,1-.95.61,0.62,0.62,0,0,1-.67-0.71c0-.59.35-0.93,1.34-0.93l0.3,0,0,1m-1.85-2.07a2.14,2.14,0,0,1,1.24-.46,0.64,0.64,0,0,1,.52.21,0.84,0.84,0,0,1,.13.61v0.27H94.13c-1.3,0-2.06.52-2.06,1.4a1.08,1.08,0,0,0,1.25,1.11,1.45,1.45,0,0,0,1.12-.52,0.8,0.8,0,0,0,.53.57l0.31-.44C95,64.78,95,64.61,95,64l0-1.28a2.31,2.31,0,0,0-.09-0.86,1.06,1.06,0,0,0-1.08-.61,2.93,2.93,0,0,0-1.63.52Z"/><path class="cls-2" d="M97.81,61.33l-0.19.46H96.81V64.3c0,0.43.12,0.58,0.5,0.58a0.79,0.79,0,0,0,.38-0.08l0.09,0.39a1.44,1.44,0,0,1-.69.16,1.14,1.14,0,0,1-.51-0.11,0.75,0.75,0,0,1-.38-0.77V61.79H95.7V61.33h0.51c0-.37.06-1,0.06-1l0.64-.14a10.46,10.46,0,0,0-.08,1.12h1"/><path class="cls-2" d="M98.6,61.35l0.63-.1v4H98.6V61.35m0.33-1.7a0.48,0.48,0,1,1-.48.48A0.48,0.48,0,0,1,98.92,59.65Z"/><path class="cls-2" d="M102.54,62.21a2.76,2.76,0,0,1,.18,1.17,2.3,2.3,0,0,1-.12.84,0.84,0.84,0,0,1-.84.58,0.92,0.92,0,0,1-.79-0.39,2.74,2.74,0,0,1-.24-1.27,2.16,2.16,0,0,1,.19-1,0.89,0.89,0,0,1,.79-0.42,0.9,0.9,0,0,1,.83.5m-2.48,1c0,1.28.61,2.07,1.68,2.07a1.7,1.7,0,0,0,1.67-2,2.47,2.47,0,0,0-.36-1.44,1.54,1.54,0,0,0-1.34-.68C100.7,61.21,100.07,62,100.07,63.25Z"/><path class="cls-2" d="M104.06,61.4l0.59-.16a1.58,1.58,0,0,1,.14.61,1.74,1.74,0,0,1,1.23-.6,1,1,0,0,1,1,.57,1.11,1.11,0,0,1,.09.45v3h-0.62V62.59a0.85,0.85,0,0,0-.14-0.65,0.57,0.57,0,0,0-.43-0.16,1.79,1.79,0,0,0-1.08.55v2.9h-0.6v-3a1.81,1.81,0,0,0-.15-0.82"/><path class="cls-2" d="M110.09,64.26a1.07,1.07,0,0,1-.94.61,0.62,0.62,0,0,1-.67-0.71c0-.59.35-0.93,1.33-0.93l0.31,0,0,1m-1.85-2.07a2.15,2.15,0,0,1,1.24-.46,0.64,0.64,0,0,1,.52.21,0.84,0.84,0,0,1,.12.61v0.27h-0.27c-1.3,0-2.06.52-2.06,1.4A1.08,1.08,0,0,0,109,65.32a1.45,1.45,0,0,0,1.12-.52,0.8,0.8,0,0,0,.53.57l0.31-.44c-0.29-.16-0.33-0.32-0.31-1l0-1.28a2.31,2.31,0,0,0-.09-0.86,1.06,1.06,0,0,0-1.08-.61,2.93,2.93,0,0,0-1.63.52Z"/><path class="cls-2" d="M112.33,64.44c0,0.31,0,.39.22,0.39l0.08,0,0.13,0.4a0.77,0.77,0,0,1-.39.09,0.65,0.65,0,0,1-.46-0.16,0.68,0.68,0,0,1-.19-0.56V60.46a2.82,2.82,0,0,0-.09-0.8l0.61-.12a3.41,3.41,0,0,1,.1.92v4"/><path class="cls-2" d="M116.9,60.4a1.75,1.75,0,0,1,.67.11,0.89,0.89,0,0,1,.52.81,1.07,1.07,0,0,1-.27.8,1.35,1.35,0,0,1-1,.27h-0.57v-2h0.62m-1.27,4.82h0.64V62.8a0.66,0.66,0,0,1,.59.34,12.49,12.49,0,0,1,1.37,2.08H119s-1-1.51-1.23-1.82a3.08,3.08,0,0,0-.54-0.6h0.08a1.37,1.37,0,0,0,1.42-1.47,1.41,1.41,0,0,0-.53-1.12,2,2,0,0,0-1.35-.35h-1.25v5.36Z"/><path class="cls-2" d="M120.89,61.7a0.83,0.83,0,0,1,.7.34,1.68,1.68,0,0,1,.18.87H120c0-.81.34-1.21,0.9-1.21m0.25,3.09a1.1,1.1,0,0,1-1-.48,1.56,1.56,0,0,1-.18-0.85V63.38h2.43V63.29a2.08,2.08,0,0,0-.44-1.64,1.53,1.53,0,0,0-2.22.12,2.08,2.08,0,0,0-.47,1.47c0,1.29.65,2.07,1.73,2.07a1.94,1.94,0,0,0,1.31-.48l-0.24-.39A1.34,1.34,0,0,1,121.13,64.8Z"/><path class="cls-2" d="M125.22,62.53a0.66,0.66,0,0,1-.7.78,0.77,0.77,0,0,1,0-1.55,0.63,0.63,0,0,1,.72.77m0.49-1.06c-0.48,0-.6-0.22-1.19-0.22a1.31,1.31,0,0,0-1.44,1.31,1.19,1.19,0,0,0,.88,1.12,0.72,0.72,0,0,0-.7.66,0.61,0.61,0,0,0,.73.56h0.6a1.39,1.39,0,0,1,.76.14,0.53,0.53,0,0,1,.21.47c0,0.49-.35.68-0.95,0.68a1.62,1.62,0,0,1-.79-0.18,0.51,0.51,0,0,1-.23-0.45,0.72,0.72,0,0,1,.11-0.35l-0.64.05a1.19,1.19,0,0,0-.08.41c0,0.55.47,1,1.69,1,0.94,0,1.55-.38,1.55-1.23a0.93,0.93,0,0,0-.43-0.82,1.48,1.48,0,0,0-.94-0.22h-0.62c-0.2,0-.31-0.07-0.31-0.19a0.87,0.87,0,0,1,.7-0.45,1.32,1.32,0,0,0,.73-0.17,1.26,1.26,0,0,0,.58-1.07,1,1,0,0,0-.23-0.66,0.66,0.66,0,0,0,.27,0,1.05,1.05,0,0,0,.66-0.23l-0.37-.38A0.88,0.88,0,0,1,125.71,61.47Z"/><path class="cls-2" d="M128.46,61.7a0.83,0.83,0,0,1,.7.34,1.68,1.68,0,0,1,.18.87h-1.78c0-.81.34-1.21,0.9-1.21m0.25,3.09a1.1,1.1,0,0,1-1-.48,1.55,1.55,0,0,1-.18-0.85V63.38H130V63.29a2.09,2.09,0,0,0-.45-1.64,1.53,1.53,0,0,0-2.22.12,2.08,2.08,0,0,0-.47,1.47c0,1.29.65,2.07,1.73,2.07a1.94,1.94,0,0,0,1.31-.48l-0.23-.39A1.35,1.35,0,0,1,128.71,64.8Z"/><path class="cls-2" d="M130.61,61.4l0.59-.16a1.57,1.57,0,0,1,.14.61,1.74,1.74,0,0,1,1.23-.6,1,1,0,0,1,1,.57,1.09,1.09,0,0,1,.09.45v3H133V62.59a0.85,0.85,0,0,0-.14-0.65,0.57,0.57,0,0,0-.43-0.16,1.8,1.8,0,0,0-1.08.55v2.9h-0.59v-3a1.8,1.8,0,0,0-.15-0.82"/><path class="cls-2" d="M135.9,61.7a0.83,0.83,0,0,1,.7.34,1.71,1.71,0,0,1,.18.87H135c0-.81.34-1.21,0.9-1.21m0.25,3.09a1.11,1.11,0,0,1-1-.48,1.56,1.56,0,0,1-.18-0.85V63.38h2.43V63.29a2.09,2.09,0,0,0-.45-1.64,1.53,1.53,0,0,0-2.22.12,2.08,2.08,0,0,0-.47,1.47c0,1.29.65,2.07,1.72,2.07a1.93,1.93,0,0,0,1.31-.48l-0.23-.39A1.34,1.34,0,0,1,136.15,64.8Z"/><path class="cls-2" d="M138.08,61.39l0.61-.16a1.41,1.41,0,0,1,.13.63,1.41,1.41,0,0,1,1.09-.65,0.72,0.72,0,0,1,.21,0l-0.25.66a0.56,0.56,0,0,0-.17,0,0.93,0.93,0,0,0-.65.28,0.7,0.7,0,0,0-.23.62v2.44h-0.61v-3a2,2,0,0,0-.13-0.83"/><path class="cls-2" d="M142.75,64.26a1.06,1.06,0,0,1-.94.61,0.62,0.62,0,0,1-.67-0.71c0-.59.35-0.93,1.34-0.93l0.3,0,0,1m-1.85-2.07a2.14,2.14,0,0,1,1.24-.46,0.64,0.64,0,0,1,.52.21,0.84,0.84,0,0,1,.13.61v0.27h-0.27c-1.3,0-2.06.52-2.06,1.4a1.08,1.08,0,0,0,1.25,1.11,1.46,1.46,0,0,0,1.12-.52,0.8,0.8,0,0,0,.53.57l0.31-.44c-0.29-.16-0.33-0.32-0.31-1l0-1.28a2.29,2.29,0,0,0-.09-0.86,1.05,1.05,0,0,0-1.08-.61,2.93,2.93,0,0,0-1.63.52Z"/><path class="cls-2" d="M146.25,61.33l-0.19.46h-0.81V64.3c0,0.43.12,0.58,0.5,0.58a0.79,0.79,0,0,0,.38-0.08l0.09,0.39a1.43,1.43,0,0,1-.69.16,1.14,1.14,0,0,1-.51-0.11,0.75,0.75,0,0,1-.37-0.77V61.79h-0.51V61.33h0.51c0-.37.06-1,0.06-1l0.64-.14a10.2,10.2,0,0,0-.08,1.12h1"/><path class="cls-2" d="M147.15,61.35l0.63-.1v4h-0.63V61.35m0.33-1.7a0.48,0.48,0,1,1-.48.48A0.48,0.48,0,0,1,147.48,59.65Z"/><path class="cls-2" d="M151.1,62.21a2.76,2.76,0,0,1,.18,1.17,2.28,2.28,0,0,1-.12.84,0.84,0.84,0,0,1-.84.58,0.93,0.93,0,0,1-.79-0.39,2.75,2.75,0,0,1-.24-1.27,2.14,2.14,0,0,1,.19-1,0.88,0.88,0,0,1,.79-0.42,0.9,0.9,0,0,1,.83.5m-2.48,1c0,1.28.61,2.07,1.68,2.07a1.7,1.7,0,0,0,1.67-2,2.47,2.47,0,0,0-.36-1.44,1.54,1.54,0,0,0-1.34-.68C149.25,61.21,148.62,62,148.62,63.25Z"/><path class="cls-2" d="M152.56,61.4l0.59-.16a1.58,1.58,0,0,1,.14.61,1.75,1.75,0,0,1,1.23-.6,1,1,0,0,1,1,.57,1.11,1.11,0,0,1,.09.45v3H155V62.59a0.84,0.84,0,0,0-.14-0.65,0.57,0.57,0,0,0-.43-0.16,1.8,1.8,0,0,0-1.08.55v2.9h-0.59v-3a1.8,1.8,0,0,0-.15-0.82"/><path class="cls-2" d="M159.1,63l0.84-2.62L160.77,63H159.1m0.45-3.19-1.79,5.36h0.65l0.52-1.65h2l0.51,1.65h0.73l-1.77-5.36h-0.83Z"/><path class="cls-2" d="M168.1,61.7a0.83,0.83,0,0,1,.7.34,1.69,1.69,0,0,1,.18.87H167.2c0-.81.34-1.21,0.9-1.21m0.25,3.09a1.1,1.1,0,0,1-1-.48,1.56,1.56,0,0,1-.18-0.85V63.38h2.43V63.29a2.08,2.08,0,0,0-.45-1.64,1.43,1.43,0,0,0-1.05-.42,1.45,1.45,0,0,0-1.16.54,2.08,2.08,0,0,0-.47,1.47c0,1.29.65,2.07,1.73,2.07a1.94,1.94,0,0,0,1.31-.48l-0.23-.39A1.34,1.34,0,0,1,168.35,64.8Z"/><path class="cls-2" d="M170.32,61.4l0.59-.16a1.57,1.57,0,0,1,.14.61,1.74,1.74,0,0,1,1.23-.6,1,1,0,0,1,1,.57,1.12,1.12,0,0,1,.09.45v3h-0.62V62.59a0.85,0.85,0,0,0-.14-0.65,0.57,0.57,0,0,0-.43-0.16,1.8,1.8,0,0,0-1.08.55v2.9h-0.59v-3a1.81,1.81,0,0,0-.15-0.82"/><path class="cls-2" d="M176.73,61.65l-0.34.42a1,1,0,0,0-.74-0.31,0.84,0.84,0,0,0-.73.44,2.81,2.81,0,0,0-.22,1.27c0,0.87.34,1.35,1,1.35a1.08,1.08,0,0,0,.84-0.42l0.34,0.39a1.52,1.52,0,0,1-1.19.51,1.41,1.41,0,0,1-1.24-.59,2.32,2.32,0,0,1-.37-1.38,2.15,2.15,0,0,1,.58-1.66,1.42,1.42,0,0,1,1.05-.45,1.52,1.52,0,0,1,1.06.42"/><path class="cls-2" d="M177.23,61.42l0.6-.2,0.8,2.52c0.12,0.37.23,1,.23,1h0l0.24-.82,0.76-2.56h0.7l-1.33,4A1.86,1.86,0,0,1,178,66.82l-0.18-.41a1.31,1.31,0,0,0,.9-1.19l-0.25,0c0-.25-0.26-1-0.39-1.4l-0.84-2.44"/><path class="cls-2" d="M165.41,64.63a1.48,1.48,0,0,0-.94-0.22h-0.62c-0.2,0-.31-0.07-0.31-0.19a0.87,0.87,0,0,1,.7-0.45A1.32,1.32,0,0,0,165,63.6a1.26,1.26,0,0,0,.58-1.07,1,1,0,0,0-.23-0.67,0.66,0.66,0,0,0,.26,0,1,1,0,0,0,.66-0.23l-0.37-.38a0.88,0.88,0,0,1-.54.17c-0.48,0-.59-0.22-1.19-0.22a1.31,1.31,0,0,0-1.44,1.31,1.19,1.19,0,0,0,.88,1.12,0.72,0.72,0,0,0-.7.66,0.61,0.61,0,0,0,.73.56h0.6A1.39,1.39,0,0,1,165,65a0.53,0.53,0,0,1,.21.47c0,0.49-.35.68-0.94,0.68a1.62,1.62,0,0,1-.79-0.18,0.51,0.51,0,0,1-.22-0.44h-0.6a1,1,0,0,0,0,.11c0,0.55.47,1,1.69,1,0.94,0,1.55-.38,1.55-1.23a0.93,0.93,0,0,0-.43-0.82m-2-2.07a0.67,0.67,0,0,1,.73-0.79,0.64,0.64,0,0,1,.72.77,0.66,0.66,0,0,1-.7.78A0.67,0.67,0,0,1,163.37,62.56Z"/></svg>