<svg id="Layer_1" data-name="Layer 1" xmlns="http://www.w3.org/2000/svg" viewBox="0 0 254 72"><defs><style>.cls-1{fill:#fff;}</style></defs><title>LD_website logo</title><path class="cls-1" d="M133.87,29.87c0-3.48,2.35-6.85,3.64-6.21C139,24.39,136.41,27.67,133.87,29.87Zm-16,1.27c0-2.8,2.76-8.12,4.45-7.55C124.29,24.26,120.64,29.62,117.85,31.15Zm-2.8,20A1.93,1.93,0,0,1,112.93,49c0-3.64,5.05-7.12,8.87-9C121.12,45.14,119.4,51,115,51.15Zm23.31-11.87a4.86,4.86,0,0,0-5.09,4.66c0,2.12,1.27,3.81,3,3.81a1.09,1.09,0,0,0,1.19-1.1c0-1.1-1.46-1.37-1.35-3a2.07,2.07,0,0,1,2.11-1.81c2,0,3,2,3,4a5.21,5.21,0,0,1-5.1,5.32c-3.56,0-5.85-3.39-5.85-7,0-5.42,3.56-7.54,5.43-8.05,0,0,4.88.87,4.72-1.27-0.07-.94-1.46-1.3-2.48-1.34a6.9,6.9,0,0,0-2.26.36,2.76,2.76,0,0,1-1.25-1.56c3.48-2.63,5.93-5.17,5.93-8.05a2.78,2.78,0,0,0-3-2.88c-3.47,0-6.1,4.41-6.1,8.39a7.26,7.26,0,0,0,.17,2A80.55,80.55,0,0,1,124.6,36a15.24,15.24,0,0,1,.33-2.57c1-1.1,2.41-2.75,2.41-4a1,1,0,0,0-1-1.1c-1.69,0-3,2.54-3.3,4.32-0.76.93-2.29,2.12-3.56,2.12A1.54,1.54,0,0,1,118,33.52c3.22-1.1,7.21-5.51,7.21-9.49a2.57,2.57,0,0,0-2.88-2.71c-3.81,0-7,5.68-7,10.09-1.36,0-1.86-1.44-1.86-2.54a16.84,16.84,0,0,1,.42-2.54,0.69,0.69,0,0,0-.68-0.76c-1.27,0-2,1.7-2,3.65a4.44,4.44,0,0,0,4.24,4.58,3.88,3.88,0,0,0,3.56,3.14,5.18,5.18,0,0,0,3.39-1.19c-0.09.59-.17,1.1-0.25,1.61-3.73,2-6.44,3.31-8.9,5.51a8.81,8.81,0,0,0-3.05,6A4.66,4.66,0,0,0,115,53.78c3.9,0,6.87-3.13,8.31-7.46a33.62,33.62,0,0,0,1.12-7.71,77.8,77.8,0,0,0,7.78-4.92,3.39,3.39,0,0,0,.85,1,10.57,10.57,0,0,0-6,9.75c0,4.41,3,9.32,8.81,9.32A8.07,8.07,0,0,0,144,46C144,42.5,142.09,39.28,138.36,39.28Zm14.57,7.28a0.12,0.12,0,0,1-.16,0,0.1,0.1,0,0,1-.09-0.11,23.21,23.21,0,0,0,1-6.53c0-3.73-1.53-6-3.47-6a2,2,0,0,0-2,2.12c0,2.29,2.8,2.46,2.8,7.46a19.76,19.76,0,0,1-1.1,6.1C146.75,60.22,136.75,65.14,127,65.14a24.19,24.19,0,0,1-8.64-1.35,0.14,0.14,0,0,1,0-.17,0.13,0.13,0,0,1,.13-0.09,21.11,21.11,0,0,0,6.52,1c3.73,0,5.93-1.53,5.93-3.39A2.1,2.1,0,0,0,128.78,59c-2.29,0-2.46,2.88-7.37,2.88a20.35,20.35,0,0,1-6.19-1.1c-10.51-3.22-15.52-13.14-15.51-23a28.25,28.25,0,0,1,1.37-8.64,0.13,0.13,0,0,1,.15,0,0.12,0.12,0,0,1,.09.11,22.27,22.27,0,0,0-1,6.52c0,3.73,1.53,5.93,3.47,5.93a2,2,0,0,0,2-2c0-2.29-2.8-2.54-2.8-7.46a20.28,20.28,0,0,1,1.1-6.19c3.22-10.51,13.14-15.44,22.89-15.51A25.63,25.63,0,0,1,135.65,12a0.13,0.13,0,0,1,0,.15,0.11,0.11,0,0,1-.11.08A18.84,18.84,0,0,0,129,11.14c-3.64,0-5.93,1.52-5.93,3.47a2,2,0,0,0,2.12,2c2.29,0,2.46-2.8,7.37-2.8a20.28,20.28,0,0,1,6.19,1.1c10.6,3.22,15.42,13.22,15.51,22.89A26.6,26.6,0,0,1,152.93,46.56ZM127,8.68a29.16,29.16,0,1,0,29.16,29.16A29.16,29.16,0,0,0,127,8.68Zm0,59.76a30.6,30.6,0,1,1,30.6-30.6A30.59,30.59,0,0,1,127,68.44Z"/></svg>