<svg id="Layer_1" data-name="Layer 1" xmlns="http://www.w3.org/2000/svg" viewBox="0 0 254 94"><defs><style>.cls-1{fill:#fff;}</style></defs><title>LD_website logo</title><path class="cls-1" d="M127.18,54.95l-4,2.1L119.07,55a0.7,0.7,0,0,0-.55,0s0.33,5.3.84,5.69c0,0,3.21-1.57,3.73-1.76,0,0,.71-0.14,4.18,3.21,0,0,.1.34,0.38-0.1l-0.29-7Zm10.37-.08-8.35,2.53a1.06,1.06,0,0,0-.28.93,1,1,0,0,0,.28.94l9-2.7a2,2,0,0,0,.24-1.62s-0.1-.25-0.87-0.08m6.52-38.51c0.09-.58.18-11.38,0.18-11.38a39.32,39.32,0,0,0-7.43,8c-5.22,7.27-4,17.77-4,17.77-8.2-11.69-11-14.14-11-14.14A48.44,48.44,0,0,0,108,6.93L107.69,7c0.78,11,7.34,16.4,7.34,16.4,4.64,5.21,13.23,7.46,13.23,7.46C114,32.36,113.48,42.38,113.48,42.38c-0.66,6.18,9.36,8.54,9.36,8.54a4.84,4.84,0,0,0,.05,5.15c7.35-3.88,6.42-3.09,6.42-3.09-0.49,2.74-.24,2.8-0.24,2.8a0.53,0.53,0,0,0,.56,0l8.46-3.35a15.84,15.84,0,0,0,1.25-1.37c1.06-2.65,1.26-7.46,1.26-7.46a12,12,0,0,0-3.67-10.61l0.19-.3c6-5.69,7-16.39,7-16.39M121.68,39.85a2,2,0,1,1,1.91-2,2,2,0,0,1-1.91,2"/><polygon class="cls-1" points="87 71.33 88.33 71.33 88.33 83.61 93.47 83.61 93.47 84.92 87 84.92 87 71.33"/><path class="cls-1" d="M102,70.68a7,7,0,0,1,7.12,7.13,7,7,0,0,1-2,5.06,7,7,0,0,1-10,0,6.85,6.85,0,0,1-2-5A7.32,7.32,0,0,1,96,74.25a6.86,6.86,0,0,1,2.54-2.62,6.76,6.76,0,0,1,3.48-.95M102,72a5.43,5.43,0,0,0-2.81.78,5.62,5.62,0,0,0-2.07,2.12,6,6,0,0,0-.75,3A5.58,5.58,0,0,0,98.07,82a5.39,5.39,0,0,0,4,1.67,5.66,5.66,0,0,0,2.87-.76,5.5,5.5,0,0,0,2.06-2.1,6,6,0,0,0,.74-3,5.86,5.86,0,0,0-.74-2.92,5.63,5.63,0,0,0-2.09-2.09A5.57,5.57,0,0,0,102,72"/><polygon class="cls-1" points="112.17 84.97 112.17 71.39 112.46 71.39 121.35 81.8 121.35 71.39 122.66 71.39 122.66 84.97 122.36 84.97 113.55 74.69 113.55 84.97 112.17 84.97"/><path class="cls-1" d="M126.15,85V71.39h2.77a14,14,0,0,1,4.35.48,5.85,5.85,0,0,1,3,2.4,7.4,7.4,0,0,1,1.09,4.07,7.21,7.21,0,0,1-.87,3.59,5.58,5.58,0,0,1-2.25,2.29,8.35,8.35,0,0,1-3.88.74h-4.25Zm1.28-1.29H129a14.12,14.12,0,0,0,3.84-.35,4.43,4.43,0,0,0,2.37-1.79,5.58,5.58,0,0,0,.86-3.17,5.92,5.92,0,0,0-.93-3.36,4.72,4.72,0,0,0-2.6-1.91,15.41,15.41,0,0,0-4.13-.39h-0.94v11Z"/><path class="cls-1" d="M146.55,70.68a6.86,6.86,0,0,1,5.08,2.06,7.3,7.3,0,0,1,0,10.13,7,7,0,0,1-10,0,6.85,6.85,0,0,1-2-5,7.33,7.33,0,0,1,.93-3.62,6.84,6.84,0,0,1,2.54-2.62,6.74,6.74,0,0,1,3.48-.95M146.61,72a5.43,5.43,0,0,0-2.81.78,5.64,5.64,0,0,0-2.07,2.12,6,6,0,0,0-.74,3A5.57,5.57,0,0,0,142.63,82a5.39,5.39,0,0,0,4,1.67,5.67,5.67,0,0,0,2.87-.76,5.5,5.5,0,0,0,2.07-2.1,6,6,0,0,0,.74-3,5.85,5.85,0,0,0-.74-2.92A5.77,5.77,0,0,0,146.61,72"/><polygon class="cls-1" points="156.51 84.92 156.51 71.33 156.79 71.33 165.68 81.75 165.68 71.33 167 71.33 167 84.92 166.7 84.92 157.89 74.63 157.89 84.92 156.51 84.92"/></svg>