<svg id="Layer_1" data-name="Layer 1" xmlns="http://www.w3.org/2000/svg" viewBox="0 0 230 82"><defs><style>.cls-1{fill:#fff;}.cls-2{fill:none;stroke:#fff;stroke-miterlimit:2.61;stroke-width:0.16px;}</style></defs><title>LD_website logo</title><path class="cls-1" d="M135.61,20.62H86.39a25.5,25.5,0,0,0,0,51h49.22A25.5,25.5,0,0,0,135.61,20.62Zm0.45,33.18H85.94a7.69,7.69,0,0,1-2.38-15l0.1,0a7.63,7.63,0,0,1,2.28-.35h50.12a7.59,7.59,0,0,1,4.44,1.43A7.69,7.69,0,0,1,136.06,53.8Z"/><path class="cls-1" d="M97.9,46.84a3.4,3.4,0,1,0-3.38-3.4,3.39,3.39,0,0,0,3.38,3.4m-1.74-3.4a1.74,1.74,0,1,1,1.74,1.74,1.74,1.74,0,0,1-1.74-1.74"/><path class="cls-1" d="M117.81,43.08a3.47,3.47,0,0,1,0,.37,3.39,3.39,0,1,1-.18-1.08h-1.84a1.75,1.75,0,1,0,0,2.1H114v-1.4h3.76Z"/><path class="cls-1" d="M106.36,44.41a2.4,2.4,0,1,1-4.81,0h0V40.13h1.64v4.28a0.77,0.77,0,0,0,.77.76,0.75,0.75,0,0,0,.75-0.76V40.13h1.66V44.4h0Z"/><path class="cls-1" d="M122.9,44.41a2.4,2.4,0,1,1-4.81,0h0V40.13h1.64v4.28a0.76,0.76,0,0,0,.76.76,0.75,0.75,0,0,0,.75-0.76V40.13h1.66V44.4h0Z"/><polygon class="cls-1" points="127.08 40.13 127.08 41.65 125.14 41.65 125.14 42.68 127.08 42.68 127.08 44.2 125.14 44.2 125.14 44.2 125.14 45.22 127.07 45.22 127.07 46.75 123.51 46.75 123.51 40.13 127.08 40.13"/><path class="cls-1" d="M129.86,44.17l-0.43-.1c-0.22,0-.71-0.23-0.71-0.23a1.87,1.87,0,0,1-1.12-1.71,2.1,2.1,0,1,1,4.19,0h-1.53v-0.2a0.56,0.56,0,0,0-.56-0.58,0.58,0.58,0,0,0-.42,1,1,1,0,0,0,.49.28,5,5,0,0,1,.9.23h0a2,2,0,0,1,1.2,1.8,2.18,2.18,0,1,1-4.35,0H129a0.74,0.74,0,0,0,0,.17,0.67,0.67,0,1,0,.83-0.65"/><path class="cls-1" d="M92.39,41.64a0.49,0.49,0,0,1,.49.49,0.49,0.49,0,0,1-.49.49H91.77v-1h0.62Zm-0.62,3.59V44h0.62a0.63,0.63,0,0,1,0,1.26H91.77Zm-1.64-5.1v6.62h2.44a1.92,1.92,0,0,0,.92-3.61,1.65,1.65,0,0,0-.92-3H90.13Z"/><polygon class="cls-1" points="109.85 46.76 109.85 44.34 111.75 40.13 110.04 40.13 109.02 42.36 108 40.13 106.28 40.13 108.2 44.34 108.2 46.76 109.85 46.76"/><path class="cls-2" d="M108,47.73v2.76c0,0.5.16,0.76,0.53,0.76s0.57-.25.57-0.76V47.73h1.1v2.81a1.59,1.59,0,0,1-1.68,1.75,1.54,1.54,0,0,1-1.63-1.75V47.73H108Zm3.24,4.48V47.73h1.11v2.11l1.33-2.11h1.22L113.39,50l1.44,2.2H113.5l-1.18-1.94v1.94h-1.11Z"/></svg>