<svg id="Layer_1" data-name="Layer 1" xmlns="http://www.w3.org/2000/svg" viewBox="0 0 254 71"><defs><style>.cls-1,.cls-2{fill:#fff;}.cls-2{fill-rule:evenodd;}</style></defs><title>LD_website logo</title><path class="cls-1" d="M135.06,19.58a13.65,13.65,0,0,0,1.58,2c1.43,1.51,1.67,2.47,1.25,4.24a21.69,21.69,0,0,0-.5,2.61,11.6,11.6,0,0,0-1.13-1.92c-1.15-1.55-1.9-2.91-1.6-4.29a18,18,0,0,0,.41-2.69"/><path class="cls-2" d="M133.77,15.63a5.19,5.19,0,0,0,1.5,1.05,6.14,6.14,0,0,1,3.34,4.25A12.51,12.51,0,0,1,139,25a4.7,4.7,0,0,0-.68-2.27c-1.32-1.71-1.7-2-2.34-2.87a9.83,9.83,0,0,1-1.24-2.36,14.42,14.42,0,0,0-1-1.89"/><path class="cls-1" d="M129.69,12l1.26,0.13a6.17,6.17,0,0,1,4.35,2.13,16.36,16.36,0,0,1,2.43,3.8,7.06,7.06,0,0,0-2-1.79,15.15,15.15,0,0,1-3.68-2.46A12.13,12.13,0,0,0,129.69,12"/><path class="cls-1" d="M132.85,12a10.81,10.81,0,0,0-2.62-1.46,5.86,5.86,0,0,0-3.29-.42,9.78,9.78,0,0,0-2.15.66,9,9,0,0,1,2.37.29,14,14,0,0,0,3.43.41,5.31,5.31,0,0,1,2.27.52"/><path class="cls-1" d="M126.64,9.71s-1-.39-4,0.45A12.79,12.79,0,0,0,119,12a19.71,19.71,0,0,1,2.14-.79,22.24,22.24,0,0,1,2.65-.53,5,5,0,0,1,1.23-.6,6,6,0,0,1,1.65-.4"/><path class="cls-2" d="M131.6,14a13.41,13.41,0,0,1,1.9,2.4,4.82,4.82,0,0,1,.74,4.25,10.9,10.9,0,0,0-.19,3.75,18.54,18.54,0,0,0-1-3.11,10.55,10.55,0,0,1-1-4.7,5.26,5.26,0,0,0-.46-2.6"/><path class="cls-2" d="M126.87,11.51a10.32,10.32,0,0,1,2.62,1,3.31,3.31,0,0,1,1.93,3.13,21.29,21.29,0,0,0,.27,2.68,4.73,4.73,0,0,0-1.25-2,8.06,8.06,0,0,1-1.87-2.84,3.74,3.74,0,0,0-1.7-1.93"/><path class="cls-1" d="M128.39,14.27a9.25,9.25,0,0,0-.89-1.51,3.81,3.81,0,0,0-3.67-1.55,15.23,15.23,0,0,0-2.71.5,6.71,6.71,0,0,1,2.27.65c1.45,0.63,2.06.31,3.3,0.86a5.18,5.18,0,0,1,1.69,1.06"/><path class="cls-2" d="M122,12.33a6.75,6.75,0,0,0-1.78-.35,6.17,6.17,0,0,0-4.17,3.59,8.71,8.71,0,0,0-.42,5.27,8.36,8.36,0,0,1,.78-5.07c1.42-3.2,5.59-3.45,5.59-3.45"/><path class="cls-1" d="M122,21.63a13.62,13.62,0,0,0,1-2.39c0.59-2,1.3-2.68,3-3.2a21.38,21.38,0,0,0,2.51-.87,11.52,11.52,0,0,0-1.1,1.94c-0.77,1.77-1.57,3.1-2.91,3.53a18,18,0,0,0-2.53,1"/><path class="cls-1" d="M119.2,24.72a5.23,5.23,0,0,0,.16-1.83,6.13,6.13,0,0,1,2-5,12.51,12.51,0,0,1,3.33-2.42,4.69,4.69,0,0,0-1.62,1.72c-0.82,2-.88,2.47-1.32,3.46a9.9,9.9,0,0,1-1.43,2.25,14.34,14.34,0,0,0-1.13,1.82"/><path class="cls-1" d="M118.07,30.09s-0.23-.49-0.51-1.15a6.18,6.18,0,0,1-.33-4.83,16.34,16.34,0,0,1,2.07-4,7.06,7.06,0,0,0-.57,2.59,15.15,15.15,0,0,1-.29,4.42,12.09,12.09,0,0,0-.37,3"/><path class="cls-1" d="M116.5,27.34a10.75,10.75,0,0,0,0,3,5.89,5.89,0,0,0,1.28,3.06,9.89,9.89,0,0,0,1.65,1.53,9,9,0,0,1-.93-2.19,14.17,14.17,0,0,0-1.36-3.17,5.32,5.32,0,0,1-.69-2.23"/><path class="cls-1" d="M117.64,33.85s0.15,1,2.38,3.22a12.83,12.83,0,0,0,3.46,2.26,20,20,0,0,1-1.75-1.46,22,22,0,0,1-1.79-2,5,5,0,0,1-1.13-.77,5.94,5.94,0,0,1-1.17-1.23"/><path class="cls-2" d="M118.92,27.38A13.38,13.38,0,0,1,120,24.54a4.82,4.82,0,0,1,3.3-2.77,10.91,10.91,0,0,0,3.35-1.71,18.39,18.39,0,0,0-2.21,2.39,10.53,10.53,0,0,1-3.55,3.24,5.27,5.27,0,0,0-2,1.7"/><path class="cls-2" d="M119.09,32.75a10.3,10.3,0,0,1-.47-2.76,3.31,3.31,0,0,1,1.74-3.23,21.15,21.15,0,0,0,2.19-1.57,4.7,4.7,0,0,0-1.12,2.09,8.07,8.07,0,0,1-1.52,3,3.74,3.74,0,0,0-.82,2.44"/><path class="cls-1" d="M120.72,30.06a9.21,9.21,0,0,0-.86,1.52,3.81,3.81,0,0,0,.49,4,15.22,15.22,0,0,0,1.79,2.09,6.71,6.71,0,0,1-.58-2.29c-0.18-1.57-.76-1.94-0.91-3.29a5.17,5.17,0,0,1,.07-2"/><path class="cls-2" d="M122.23,36.55a6.8,6.8,0,0,0,.59,1.72A6.18,6.18,0,0,0,128,40.09a8.71,8.71,0,0,0,4.78-2.27A8.36,8.36,0,0,1,128,39.68c-3.48.37-5.78-3.12-5.78-3.12"/><path class="cls-1" d="M130.18,31.91a13.72,13.72,0,0,0-2.56.35c-2,.48-3,0.21-4.29-1a21.73,21.73,0,0,0-2-1.74,11.47,11.47,0,0,0,2.23,0c1.92-.22,3.47-0.19,4.51.76a17.89,17.89,0,0,0,2.13,1.7"/><path class="cls-2" d="M134.24,32.77a5.23,5.23,0,0,0-1.66.78,6.12,6.12,0,0,1-5.35.76,12.5,12.5,0,0,1-3.76-1.68,4.69,4.69,0,0,0,2.3.55c2.14-.29,2.58-0.47,3.66-0.59a9.86,9.86,0,0,1,2.67.11,14.42,14.42,0,0,0,2.14.07"/><path class="cls-1" d="M139.45,31.07s-0.31.44-.74,1a6.17,6.17,0,0,1-4,2.7,16.36,16.36,0,0,1-4.51.21,7.08,7.08,0,0,0,2.53-.8,15.2,15.2,0,0,1,4-2,12.07,12.07,0,0,0,2.76-1.17"/><path class="cls-1" d="M137.86,33.8a10.71,10.71,0,0,0,2.58-1.54,5.87,5.87,0,0,0,2-2.64,9.9,9.9,0,0,0,.5-2.19,9,9,0,0,1-1.43,1.9,14.06,14.06,0,0,0-2.07,2.76,5.32,5.32,0,0,1-1.59,1.71"/><path class="cls-1" d="M142.93,29.56s0.81-.64,1.6-3.68a12.79,12.79,0,0,0,.23-4.13,19.58,19.58,0,0,1-.39,2.24,22.51,22.51,0,0,1-.86,2.56,5,5,0,0,1-.1,1.37,6,6,0,0,1-.48,1.63"/><path class="cls-1" d="M136.69,31.69a13.38,13.38,0,0,1-3,.44,4.82,4.82,0,0,1-4-1.48,10.91,10.91,0,0,0-3.16-2,18.39,18.39,0,0,0,3.17.73,10.53,10.53,0,0,1,4.58,1.46,5.26,5.26,0,0,0,2.48.9"/><path class="cls-1" d="M141.25,28.86a10.32,10.32,0,0,1-2.15,1.78,3.31,3.31,0,0,1-3.67.1A21.23,21.23,0,0,0,133,29.64a4.71,4.71,0,0,0,2.37-.07,8.05,8.05,0,0,1,3.39-.2,3.73,3.73,0,0,0,2.52-.51"/><path class="cls-1" d="M138.1,28.79a9.22,9.22,0,0,0,1.75,0A3.81,3.81,0,0,0,143,26.37a15.33,15.33,0,0,0,.92-2.6,6.68,6.68,0,0,1-1.69,1.65c-1.27.94-1.3,1.63-2.39,2.43a5.19,5.19,0,0,1-1.76.94"/><path class="cls-1" d="M143,24.24a6.77,6.77,0,0,0,1.19-1.37,6.17,6.17,0,0,0-1-5.41,8.72,8.72,0,0,0-4.36-3,8.38,8.38,0,0,1,4,3.21c2.06,2.84.19,6.57,0.19,6.57"/><path class="cls-1" d="M68.81,61.84a0.73,0.73,0,0,1-.4.7,5.48,5.48,0,0,1-2.29.42,7.3,7.3,0,0,1-5.25-2.15,8.18,8.18,0,0,1-2.13-5.56A5.73,5.73,0,0,1,65,48.85c2.59,0,4.21.86,4.71,1.62a3.08,3.08,0,0,1,.42,1.32c0,0.18,0,.3.14,0.3s0.18-.1.18-0.42a25.33,25.33,0,0,1,.14-2.85c0-.08,0-0.16-0.24-0.18a10.12,10.12,0,0,1-1.62-.2,17.1,17.1,0,0,0-3.07-.34,9.85,9.85,0,0,0-5.34,1.26A7.6,7.6,0,0,0,57,56a7.82,7.82,0,0,0,2.39,5.71,10.91,10.91,0,0,0,10.85,1.24c0.24-.14.26-0.18,0.26-1.08V59.59c0-.84,0-1.44,0-2.09a1,1,0,0,1,.74-1.14,3,3,0,0,1,.5-0.06,0.14,0.14,0,0,0,.16-0.12c0-.12-0.1-0.16-0.32-0.16-0.6,0-1.87.06-2,.06S68.29,56,67.39,56c-0.22,0-.32,0-0.32.16a0.14,0.14,0,0,0,.16.12,3.72,3.72,0,0,1,.68.06c0.8,0.22.9,0.44,0.9,2.07v3.41Z"/><path class="cls-2" d="M77.86,49.39A0.24,0.24,0,0,1,78,49.15,6,6,0,0,1,79.36,49c2.15,0,3.47,1.5,3.47,4a3.66,3.66,0,0,1-1.22,3.09,2.6,2.6,0,0,1-1.5.38A5.51,5.51,0,0,1,78,56.19a0.26,0.26,0,0,1-.14-0.24V49.39Zm-1.6,8.34c0,1.93,0,3.51-.1,4.35a1.07,1.07,0,0,1-.58,1.1,3.09,3.09,0,0,1-.6.08,0.13,0.13,0,0,0-.16.12c0,0.12.1,0.16,0.32,0.16,0.6,0,1.87-.06,1.89-0.06s1.36,0.06,2.47.06c0.22,0,.32-0.06.32-0.16a0.13,0.13,0,0,0-.16-0.12,8.7,8.7,0,0,1-.9-0.08,1,1,0,0,1-.78-1.1c-0.1-.84-0.1-2.43-0.1-4.35V57.25A0.13,0.13,0,0,1,78,57.09l2.47,0a0.33,0.33,0,0,1,.26.12c0.4,0.52,1.34,1.87,2.19,3,1.14,1.5,1.85,2.49,2.71,2.95a4.09,4.09,0,0,0,2.15.38h1.42c0.36,0,.48,0,0.48-0.16a0.16,0.16,0,0,0-.18-0.12,4.79,4.79,0,0,1-.78-0.06,4.15,4.15,0,0,1-2.45-1.44c-1.16-1.24-2.53-3-4.17-5.13C83.9,55,84.52,53.48,84.52,52a3.51,3.51,0,0,0-1.38-2.73,6.17,6.17,0,0,0-3.67-.88c-0.62,0-2.15.06-2.37,0.06s-1.36-.06-2.27-0.06c-0.22,0-.32,0-0.32.16a0.14,0.14,0,0,0,.16.12,3.72,3.72,0,0,1,.68.06,1,1,0,0,1,.86,1.14c0,0.64,0,1.2,0,4.33v3.53Z"/><path class="cls-2" d="M91.45,55.38c0-4.39,2.51-6.6,5.86-6.6,3.17,0,6.1,2.59,6.1,7.4,0,5.84-3.73,6.88-5.53,6.88-3.61,0-6.42-3-6.42-7.68m-1.91.56c0,3.61,2.29,7.88,7.78,7.88a7.87,7.87,0,0,0,8-8.2c0-4.67-3.37-7.52-7.88-7.52a7.76,7.76,0,0,0-7.9,7.84"/><path class="cls-1" d="M112.76,63.82a6.8,6.8,0,0,0,3.56-.82,4.21,4.21,0,0,0,2.13-3.73c0-2.39-2.67-3.48-4.53-4.47s-3.81-1.6-3.81-3.38,1.48-2.61,3.53-2.61,3,0.53,3.53,1.38a4.35,4.35,0,0,1,.32,1.15c0,0.16,0,.26.16,0.26s0.14-.14.14-0.46c0-1.36.08-2,.08-2.13s0-.14-0.2-0.14a1.52,1.52,0,0,1-.54,0,11.63,11.63,0,0,0-3.33-.78c-3.17,0-4.89,1.46-4.89,3.73,0,2.95,2.25,3.71,3.84,4.51,1.9,0.95,4.29,1.94,4.29,3.83,0,1.42-1.27,2.86-3.89,2.86s-4-1.09-4.23-2.49a4,4,0,0,1-.06-0.69c0-.16,0-0.22-0.14-0.22s-0.14.1-.16,0.32-0.1,1.12-.1,2.13c0,0.54,0,.66.3,0.76a12.18,12.18,0,0,0,4,1"/><path class="cls-1" d="M125.05,50.83a7.7,7.7,0,0,1-.54-1.66,0.4,0.4,0,0,1,.26-0.4,2.32,2.32,0,0,1,.76-0.1c0.14,0,.2,0,0.2-0.14s-0.18-.14-0.54-0.14c-0.76,0-1.67.06-1.87,0.06s-1.38-.06-2.35-0.06c-0.32,0-.52,0-0.52.14a0.13,0.13,0,0,0,.16.14,3.1,3.1,0,0,1,.76.08c0.7,0.2,1,.42,1.44,1.54l4.91,12.29c0.38,1,.48,1.24.72,1.24s0.28-.32.84-1.52c0.46-1,1.36-3.15,2.59-6.08,1-2.47,2-4.87,2.25-5.43a3.87,3.87,0,0,1,1.1-1.89,1.82,1.82,0,0,1,1-.24c0.16,0,.24,0,0.24-0.14s-0.12-.14-0.34-0.14c-0.58,0-1.44.06-1.56,0.06s-1.16-.06-2-0.06c-0.32,0-.44,0-0.44.16s0.1,0.12.22,0.12a2.52,2.52,0,0,1,.76.08,0.49,0.49,0,0,1,.26.46,2.92,2.92,0,0,1-.18.76c-0.44,1.44-3.13,8.44-4.29,11.13Z"/><path class="cls-1" d="M139.75,57.73c0,1.93,0,3.51-.1,4.35a1.07,1.07,0,0,1-.58,1.1,3.09,3.09,0,0,1-.6.08,0.13,0.13,0,0,0-.16.12c0,0.12.1,0.16,0.32,0.16,0.6,0,1.87-.06,2-0.06,0.58,0,3.5.12,6.53,0.12,0.78,0,.94,0,1.08-0.52a19.46,19.46,0,0,0,.26-1.94c0-.14,0-0.3-0.12-0.3s-0.14.08-.18,0.3a1.6,1.6,0,0,1-.9,1.44,5.77,5.77,0,0,1-1.93.22c-3.7,0-3.85-.26-3.91-1.64,0-.42,0-2.75,0-3.43V56a0.13,0.13,0,0,1,.14-0.14c0.34,0,3.91,0,4.45.1a1,1,0,0,1,1,.7,2,2,0,0,1,.08.66,0.15,0.15,0,0,0,.14.18c0.14,0,.14-0.22.14-0.38s0-.88.08-1.28c0.06-.66.16-1,0.16-1.12s0-.16-0.1-0.16a0.6,0.6,0,0,0-.3.26,1.35,1.35,0,0,1-.94.28c-0.46,0-4.51,0-4.77,0-0.1,0-.12-0.06-0.12-0.2V49.37c0-.14,0-0.2.12-0.2s4,0,4.33.06c1.08,0.12,1.28.36,1.43,0.68a2.18,2.18,0,0,1,.12.72c0,0.16,0,.26.16,0.26a0.23,0.23,0,0,0,.14-0.22c0-.24.08-1.12,0.1-1.32,0.06-.56.16-0.8,0.16-0.94s0-.18-0.08-0.18a1.53,1.53,0,0,0-.28.1,5.22,5.22,0,0,1-.86.1c-0.46,0-6,0-6.17,0s-1.36-.06-2.27-0.06c-0.22,0-.32,0-0.32.16a0.14,0.14,0,0,0,.16.12,3.72,3.72,0,0,1,.68.06,1,1,0,0,1,.86,1.14c0,0.64,0,1.2,0,4.33v3.53Z"/><path class="cls-1" d="M154.16,51.21c0.64,0.72,2.91,3.25,5.23,5.75,2.13,2.29,5,5.23,5.23,5.43,1.06,1.06,1.3,1.28,1.46,1.28s0.18-.1.18-1.42l0-11.75c0-1.2.08-1.65,0.74-1.78a1.76,1.76,0,0,1,.48-0.06,0.18,0.18,0,0,0,.22-0.14c0-.12-0.14-0.14-0.36-0.14-0.82,0-1.48.06-1.71,0.06s-1.18-.06-2.09-0.06c-0.24,0-.4,0-0.4.14s0,0.14.16,0.14a5.33,5.33,0,0,1,1,.1c0.62,0.16.76,0.6,0.78,1.91l0.22,10.19c-0.64-.66-2.83-3.11-4.81-5.23-3.09-3.31-6.08-6.54-6.38-6.88a2.44,2.44,0,0,0-.7-0.64c-0.16,0-.22.22-0.22,1l0,11.49c0,1.82-.1,2.41-0.6,2.55a2.87,2.87,0,0,1-.82.12,0.13,0.13,0,0,0-.16.12c0,0.14.12,0.16,0.32,0.16,0.9,0,1.74-.06,1.93-0.06s1,0.06,2.13.06c0.24,0,.36,0,0.36-0.16a0.13,0.13,0,0,0-.16-0.12,4.38,4.38,0,0,1-1-.12c-0.54-.16-0.74-0.68-0.78-2.33Z"/><path class="cls-2" d="M172,55.38c0-4.39,2.51-6.6,5.86-6.6,3.17,0,6.1,2.59,6.1,7.4,0,5.84-3.73,6.88-5.53,6.88-3.61,0-6.42-3-6.42-7.68m-1.91.56c0,3.61,2.29,7.88,7.78,7.88a7.87,7.87,0,0,0,8-8.2c0-4.67-3.37-7.52-7.88-7.52a7.76,7.76,0,0,0-7.9,7.84"/><path class="cls-2" d="M191.42,49.39a0.24,0.24,0,0,1,.16-0.24,6,6,0,0,1,1.34-.12c2.15,0,3.47,1.5,3.47,4a3.66,3.66,0,0,1-1.22,3.09,2.6,2.6,0,0,1-1.5.38,5.51,5.51,0,0,1-2.11-.32,0.26,0.26,0,0,1-.14-0.24V49.39Zm-1.6,8.34c0,1.93,0,3.51-.1,4.35a1.07,1.07,0,0,1-.58,1.1,3.09,3.09,0,0,1-.6.08,0.13,0.13,0,0,0-.16.12c0,0.12.1,0.16,0.32,0.16,0.6,0,1.87-.06,1.89-0.06s1.36,0.06,2.47.06c0.22,0,.32-0.06.32-0.16a0.13,0.13,0,0,0-.16-0.12,8.7,8.7,0,0,1-.9-0.08,1,1,0,0,1-.78-1.1c-0.1-.84-0.1-2.43-0.1-4.35V57.25a0.13,0.13,0,0,1,.14-0.16l2.47,0a0.33,0.33,0,0,1,.26.12c0.4,0.52,1.34,1.87,2.19,3,1.14,1.5,1.85,2.49,2.71,2.95a4.09,4.09,0,0,0,2.15.38h1.42c0.36,0,.48,0,0.48-0.16a0.16,0.16,0,0,0-.18-0.12,4.79,4.79,0,0,1-.78-0.06,4.15,4.15,0,0,1-2.45-1.44c-1.16-1.24-2.53-3-4.17-5.13,1.8-1.66,2.43-3.15,2.43-4.63a3.51,3.51,0,0,0-1.38-2.73,6.17,6.17,0,0,0-3.67-.88c-0.62,0-2.15.06-2.37,0.06s-1.36-.06-2.27-0.06c-0.22,0-.32,0-0.32.16a0.14,0.14,0,0,0,.16.12,3.72,3.72,0,0,1,.68.06,1,1,0,0,1,.86,1.14c0,0.64,0,1.2,0,4.33v3.53Z"/></svg>