<svg id="Layer_1" data-name="Layer 1" xmlns="http://www.w3.org/2000/svg" viewBox="0 0 251 80"><defs><style>.cls-1{fill:#fff;}</style></defs><title>LD_website logo</title><path class="cls-1" d="M146.41,27.49c-1.18,0-2.21.2-2.21,1.5a3.4,3.4,0,0,0,.32,1.5h3.8a3.79,3.79,0,0,0,.3-1.5c0-1.3-1-1.5-2.21-1.5m-3.28,3.45,0.37-.13a4.1,4.1,0,0,1-.54-1.92c0-2.24,1.4-2.78,3.46-2.78s3.46,0.63,3.46,2.88a3.51,3.51,0,0,1-.36,1.5h2.26v1.36h-8.64V30.93Z"/><polyline class="cls-1" points="149.69 62.11 149.69 63.51 142.13 63.51 142.13 65.96 140.87 65.96 140.87 59.64 142.13 59.64 142.13 62.11 149.69 62.11"/><path class="cls-1" d="M145,54.32a0.89,0.89,0,0,0-.82,1.11,3.81,3.81,0,0,0,.32,1.58h5.17v1.35h-8.83V57h2.51a4.47,4.47,0,0,1-.42-1.74c0-1.65.79-2.3,2.11-2.3h4.62l0,1.36H145"/><path class="cls-1" d="M145.27,39c1.84,0,3.32-.3,3.32-2.15s-1.48-2.12-3.32-2.12-3.32.3-3.32,2.14S143.43,39,145.27,39m0,1.46c-2.4,0-4.6-.7-4.6-3.6s2.2-3.59,4.6-3.59,4.59,0.69,4.59,3.59S147.66,40.5,145.27,40.5Z"/><path class="cls-1" d="M144.2,14.82a0.92,0.92,0,0,1,.84-1.08h4.65V12.38h-4.62c-1.33,0-2.11.68-2.11,2.31a4.08,4.08,0,0,0,.54,2l-0.37.13v0.91h6.57V16.36h-5.17a3.63,3.63,0,0,1-.32-1.54"/><path class="cls-1" d="M145.87,23.48V20.62c-0.87,0-1.79.22-1.79,1.32s0.75,1.47,1.79,1.54m1.12,0c1.15-.1,1.6-0.6,1.6-1.92a6.3,6.3,0,0,0-.37-2h1.2a6.1,6.1,0,0,1,.44,2.34c0,2.26-1.38,3-3.46,3s-3.45-.8-3.45-3,1.69-2.66,3.51-2.66H147v4.25Z"/><path class="cls-1" d="M145.93,50.28V47.43c-0.87,0-1.79.22-1.79,1.32s0.75,1.47,1.79,1.53m1.06,0c1.15-.1,1.6-0.61,1.6-1.92a6.29,6.29,0,0,0-.37-2h1.2a6.12,6.12,0,0,1,.44,2.34c0,2.26-1.38,3-3.46,3s-3.45-.8-3.45-3,1.69-2.66,3.51-2.66H147v4.25Z"/><path class="cls-1" d="M155.07,60.57h5.6c2,0,2.13,1.18,2.13,1.92s-0.15,1.91-2.13,1.91h-5.59v1.35h5.77a3,3,0,0,0,3.28-3.26,3,3,0,0,0-3.28-3.27h-5.77v1.35"/><path class="cls-1" d="M155.45,49.84a0.89,0.89,0,1,1-.9.89,0.88,0.88,0,0,1,.9-0.89"/><path class="cls-1" d="M162.67,51.4h-5.3V50h5.18c0.24,0,.34,0,0.34-0.37V49.44h1.19a5.19,5.19,0,0,1,0,.63,1.22,1.22,0,0,1-1.44,1.33"/><path class="cls-1" d="M162.66,25.23h-5.3V23.88h5.18c0.23,0,.34,0,0.34-0.37V23.28h1.19a4.78,4.78,0,0,1,0,.63,1.23,1.23,0,0,1-1.44,1.33"/><polyline class="cls-1" points="157.37 44.05 157.36 42.59 164.1 45.14 164.1 46.25 157.36 48.81 157.36 47.34 162.48 45.7 157.37 44.05"/><path class="cls-1" d="M160.11,38c-0.87,0-1.79.22-1.79,1.31s0.75,1.46,1.79,1.52V38m1.12,2.81c1.15-.1,1.6-0.59,1.6-1.88a6,6,0,0,0-.37-2h1.2a5.8,5.8,0,0,1,.44,2.28c0,2.21-1.38,2.91-3.45,2.91s-3.46-.78-3.46-2.91,1.7-2.6,3.51-2.6h0.53v4.15Z"/><path class="cls-1" d="M158.54,31.9a5,5,0,0,0-.06.91,3,3,0,0,0,.27,1.28h5.19v1.35h-6.59v-0.9l0.37-.13a3.09,3.09,0,0,1-.52-1.62,4.27,4.27,0,0,1,.06-0.87h1.28"/><path class="cls-1" d="M162,26.32c1,0,2.15.65,2.15,2.66a6.61,6.61,0,0,1-.37,2.06h-1.27a6.21,6.21,0,0,0,.39-2.07c0-1-.45-1.35-0.89-1.35s-0.72.15-.82,1.17c-0.17,1.92-.89,2.31-1.87,2.31s-2.08-.61-2.08-2.49a4.9,4.9,0,0,1,.38-2h1.25a6,6,0,0,0-.38,2c0,1,.37,1.21.84,1.21s0.58-.19.67-1.18c0.18-1.89.84-2.33,2-2.33"/><path class="cls-1" d="M164,18.45a6.8,6.8,0,0,1,.09,1.24,1.7,1.7,0,0,1-1.84,1.89h-3.74v1.14h-1.09l-0.07-1.14h-1.65l-0.19-1.33h1.84v-1.8h1.16v1.8h3.58c0.55,0,.76-0.3.76-1a7.49,7.49,0,0,0,0-.83H164"/><polyline class="cls-1" points="162.1 14.58 157.36 12.95 157.36 11.55 166 14.88 166 16.14 163.62 15.22 157.36 17.5 157.36 16 162.1 14.58"/><path class="cls-1" d="M158.45,55a0.9,0.9,0,0,1,.84-1h4.65V52.64h-4.62c-1.33,0-2.11.66-2.11,2.25a3.9,3.9,0,0,0,.54,1.95l-0.37.13v0.89h6.57V56.53h-5.18a3.47,3.47,0,0,1-.31-1.51"/><path class="cls-1" d="M155.45,23.56a0.89,0.89,0,1,1-.9.89,0.88,0.88,0,0,1,.9-0.89"/><path class="cls-1" d="M129.62,11.92H88.77A2.93,2.93,0,0,0,86,14.46V44c0,13,10.35,22.17,23.11,22.17S132.21,57,132.21,44V14.59a2.89,2.89,0,0,0-2.6-2.67M106.14,38.63a10.37,10.37,0,1,1,7.62-12.69A10.46,10.46,0,0,1,106.14,38.63Z"/></svg>