<svg id="Layer_1" data-name="Layer 1" xmlns="http://www.w3.org/2000/svg" viewBox="0 0 251 69"><defs><style>.cls-1,.cls-2{fill:#fff;}.cls-2{fill-rule:evenodd;}</style></defs><title>LD_website logo</title><path class="cls-1" d="M166.8,37l0,0-0.31.14h0.15Zm2.08,0.61a4.86,4.86,0,0,1-.52,1.05,4,4,0,0,0-.32.3h1.41L169,37.69C169,37.69,169,37.62,168.89,37.62Zm-2.19-.52h-0.15c-0.87.36-1,.12-1,0.12a0.69,0.69,0,0,0,.15-0.12h0a0.28,0.28,0,0,0,0-.45,0.45,0.45,0,0,0-.37-0.16,0.46,0.46,0,0,0-.4.61l0,0.07a0.75,0.75,0,0,0,.26.28,1.14,1.14,0,0,0,1,0A3.25,3.25,0,0,0,166.69,37.1Zm3.72,2.55a0.46,0.46,0,0,0,.19.44,0.86,0.86,0,0,0,0-.49A0.24,0.24,0,0,0,170.41,39.66ZM165.75,34l-0.19-.28a0.43,0.43,0,0,1-.14.16l-0.16-.23a1.15,1.15,0,0,0,.16-0.19l-0.06-.09-0.48-.8a0.62,0.62,0,0,1-.16.19l-0.14-.21a1.26,1.26,0,0,0,.16-0.21L164.56,32a1.62,1.62,0,0,1-1.19.66l0.19,0.3a1.6,1.6,0,0,0,.77-0.26L164.44,33a1.42,1.42,0,0,1-.75.28l0.07,0.12,0.45,0.77a1.64,1.64,0,0,0,.77-0.28l0.16,0.26a1.6,1.6,0,0,1-.77.26l0.19,0.3A1.82,1.82,0,0,0,165.75,34Zm-0.21,1.47a0.67,0.67,0,0,0,.4-0.14l0.1-.09h-0.74A0.34,0.34,0,0,0,165.54,35.47Zm12.2-.14-0.44.66v0.07c0.19,0.4.77,0.4,0.7,0.91l0,0.14A4,4,0,0,1,176.37,39h0a1.92,1.92,0,0,1-.67.28,1.18,1.18,0,0,1-1.14-.28h0a2.41,2.41,0,0,1-.22-0.23,3.27,3.27,0,0,1-.66-1.19l-0.54,1.31L173,39l-0.48.54a0.62,0.62,0,0,1-.47.84,1.18,1.18,0,0,1-.84,1,1.08,1.08,0,0,1-.84-1,0.8,0.8,0,0,1-.54-1l-0.4-.4v0h-1.41a0.87,0.87,0,0,1-.88.35L166.59,39h0a7.37,7.37,0,0,1-2-1.61,0.85,0.85,0,0,1-.07-0.26H156.5v5.62H186V35.23h-8.09Zm-11.54-.84a0.72,0.72,0,0,1-.45.59,0.34,0.34,0,0,0-.14-0.12,0.32,0.32,0,0,0-.33,0,0.65,0.65,0,0,0,0,.21v0H166A0.94,0.94,0,0,0,166.2,34.48Zm5.06,3.58s-1.16,1.65-1.74-1l0-.21s0,0.08,0,.21a3.6,3.6,0,0,0,.6,1.87,0.92,0.92,0,0,0,1.17.19,0.93,0.93,0,0,0,1.18-.19A3.53,3.53,0,0,0,173,37.1h0C172.41,39.69,171.25,38.07,171.25,38.07Zm1.61-20.46a3,3,0,0,0-.33-0.54,0.64,0.64,0,0,1-.19-0.7,1.34,1.34,0,0,0,.19-0.28,0.32,0.32,0,0,0,0-.26,1.36,1.36,0,0,0-.66-0.66,1.65,1.65,0,0,0-.84-0.12,1.36,1.36,0,0,0-.73.37,0.82,0.82,0,0,0-.33.8,1.24,1.24,0,0,1,.21.26,0.82,0.82,0,0,1-.28.66l-0.26.07a0.81,0.81,0,0,0-.12.19,1.56,1.56,0,0,1-.26.51h0.54a1.62,1.62,0,0,0,.57-1.1,0.82,0.82,0,0,0,.26-0.33,1,1,0,0,0-.19-0.59,0.67,0.67,0,0,1,.44-0.42,1.56,1.56,0,0,1,.94,0,0.71,0.71,0,0,1,.33.54,0.51,0.51,0,0,1-.33.37c-0.07,0,0,.14,0,0.14a2.15,2.15,0,0,1,.33.33,1.41,1.41,0,0,0,.58,1h0.37C173,17.81,172.94,17.7,172.87,17.6ZM173,37.1c0-.13,0-0.21,0-0.21l0,0.21h0Zm-2.09,0a0.34,0.34,0,0,0,0,.14,0.35,0.35,0,1,0,.7,0,0.38,0.38,0,0,0,0-.14h0a0.37,0.37,0,0,0-.09-0.12l0.32-1.08h-0.26l-0.25.93L171,35.9h-0.26l0.3,1a0.35,0.35,0,0,0-.14.16h0Zm0.32,0a0.09,0.09,0,0,1,0,.19A0.09,0.09,0,0,1,171.25,37.15Zm-0.4,3.46c0.35,0.52.49,0.52,0.84,0A5,5,0,0,1,170.85,40.62Zm0.77-2.88a0.46,0.46,0,0,0,.28.3,0.42,0.42,0,0,0,.49-0.12,2.29,2.29,0,0,0,.34-0.82h-0.68v0.07A1.25,1.25,0,0,1,171.63,37.74Zm-0.12,2.19a0.28,0.28,0,1,0-.25.41A0.36,0.36,0,0,0,171.51,39.93Zm-0.23,0a0,0,0,1,1,0,.09,0,0,0,0,1,0-.09A0,0,0,0,1,171.27,39.89Zm0.63-.28a0.7,0.7,0,0,0,0,.49,0.42,0.42,0,0,0,.21-0.44A0.24,0.24,0,0,0,171.91,39.61ZM166.57,18s0.09,0,.09-0.07v0h-0.38Zm-4.05,9.79-0.06,0h0a0.62,0.62,0,0,1-.19-0.44V22.9h-0.45v4.35a1.25,1.25,0,0,0,.16.49h0l0,0a0.79,0.79,0,0,0,1.14.12A1,1,0,0,1,162.52,27.79Zm18.17-7a0.49,0.49,0,0,1-.14.26l0.35,0.63a0.9,0.9,0,0,1-.31.39H186V20.25h-5.58A2.47,2.47,0,0,1,180.69,20.84Zm-12.81-2.93a0.81,0.81,0,0,0,.68.33,2.59,2.59,0,0,1-.47-0.33h0L168,17.79c-0.09-.14-0.12,0-0.09.07Zm12.22,4.48a0.74,0.74,0,0,1-.72-0.26h0a0.49,0.49,0,0,0-.2-0.14,0.35,0.35,0,0,0-.23.14h0a0.29,0.29,0,0,0,.09.33,1.61,1.61,0,0,1,.4.19,5.06,5.06,0,0,0,0,.87c0.07,0.07.37,0.19,0.37,0s0-.8,0-0.8h1v0.42h0.26v4.64h-0.6l0,0h0a0.58,0.58,0,0,0,.07-0.16V22.9h-0.49v4.68a0.26,0.26,0,0,1-.2.16,1.66,1.66,0,0,1-.55,0h0a0.47,0.47,0,0,0-.22,0h0a0,0,0,0,0,0,0l-0.77,0h0.79a0.91,0.91,0,0,0,1.36,0h0.61a1.17,1.17,0,0,1-1.66.68l0.94,1.9a1.94,1.94,0,0,1,0,1.12H186V22.12h-5.41A1.26,1.26,0,0,1,180.1,22.38ZM175.26,37.1H174a1.74,1.74,0,0,0,.35.91,1.35,1.35,0,0,0,1.17.84,3.11,3.11,0,0,0,1.05-.84,2.11,2.11,0,0,0-.33-0.14A2.05,2.05,0,0,1,175.26,37.1Zm4.34-18,0.24,0.31a5.61,5.61,0,0,1,.58.87H186V17.91h-7.38A7.16,7.16,0,0,1,179.6,19.08Zm-1.84,3.54V20.84c0-.07-0.17-0.35-0.29-0.59a2.68,2.68,0,0,0-.2-0.37c-0.07,0-.07,0-0.14,0a2.44,2.44,0,0,1-.23-0.75,0.57,0.57,0,0,1,0-.23,0.33,0.33,0,0,0,.14-0.28l-1.08.07a3.24,3.24,0,0,1-1.94,0,3,3,0,0,1-.95-0.73h-0.37a2.75,2.75,0,0,1,.85.94l0.47,0.23a7.58,7.58,0,0,1,1.66,1.17,6.09,6.09,0,0,1,1,1.15,4.18,4.18,0,0,1,.38.72,10.94,10.94,0,0,1,.56,1.87h0.82a6,6,0,0,1,0-.84A1,1,0,0,1,177.76,22.61ZM179,27c0.26,0.47.7,0.4,0.84,0.07V24.37c-1,.17-1.29,0-1.37-0.38h-0.82c0.15,0.68.25,1.35,0.32,1.87s0.11,1.05.11,1.05,0,0.38,0,.82h0.23V27.67A0.93,0.93,0,0,1,179,27Zm-0.49-1.15V24.53a1.52,1.52,0,0,0,.63.33v1.31c0,0.4-.63.35-0.63,0V25.87ZM178.86,26V25.19c0-.12-0.12-0.12-0.12,0V26C178.74,26.13,178.86,26.15,178.86,26Zm-0.77,1.71v0c0,0.33,0,.69,0,0.94l0.33-.07a5.65,5.65,0,0,1-.11-0.87v0h-0.23Zm-10.26-9.29s-0.37-.37-0.42-0.52l0,0h-0.19v0A1.2,1.2,0,0,0,167.83,18.45Zm-3.22.63h0.62a0.32,0.32,0,0,0-.26-0.42C164.61,18.59,164.6,18.91,164.61,19.08Zm-2.28,3a0.52,0.52,0,0,0,.54,0,5,5,0,0,1-.84-0.47A0.45,0.45,0,0,0,162.33,22Zm17.25,11-0.19.3a4.9,4.9,0,0,1-1.49,1.87H186V31.49h-5.62A5.64,5.64,0,0,1,179.59,33.06ZM164.11,20.32l0-.07,0.09-.14,0.26,0.07,0.19-.3a1.65,1.65,0,0,1-1.1-.8l-0.21.28a1.41,1.41,0,0,0,.58.59l-0.16.21a1.35,1.35,0,0,1-.56-0.58l-0.46.68-0.13.19a1.9,1.9,0,0,0,.56.59l-0.16.23a1.5,1.5,0,0,1-.56-0.59l-0.21.28a1.79,1.79,0,0,0,1.12.82l0.19-.28a1.33,1.33,0,0,1-.23-0.07l0.16-.23,0.23,0.07,0.58-.87A0.45,0.45,0,0,1,164.11,20.32Zm0.22-1.25a0.57,0.57,0,0,1-.11-0.42,0.55,0.55,0,0,1,.14-0.26c0.56-.45,1.66.09,2.48,0.12,0.07,0,.16,0-0.12-0.12a6.76,6.76,0,0,0-1.65-.5h-0.43l-0.14,0a0.75,0.75,0,0,0-.63.8,1.64,1.64,0,0,0,.09.35h0.37ZM163.64,24a0.34,0.34,0,0,0,.07-0.16V22.9a1.09,1.09,0,0,0,.63-0.47V20.91h-0.21v1.55a1,1,0,0,1-.61.35v1a0.35,0.35,0,0,1-.27.18h0a1.85,1.85,0,0,1-.43.05l-0.09,0A0.88,0.88,0,0,0,163.64,24Zm0.73-4.56a1,1,0,0,0,.68,0,0.41,0.41,0,0,0,.19-0.31h-0.62c0,0.06,0,.1,0,0.1a0.35,0.35,0,0,1-.26-0.07l0,0H164A0.53,0.53,0,0,0,164.37,19.43Zm3-1.53a0.36,0.36,0,0,1,0-.21,0.47,0.47,0,0,0,.37-0.16s0.19-.49-0.21-0.58-0.47.65-.32,1h0.19Zm9.43,5.65L176.92,24h0a17.49,17.49,0,0,1,.28,1.88,15,15,0,0,1,.06,1.87,11.39,11.39,0,0,1-.69,3.65l0,0.09h0a5.9,5.9,0,0,1-1,1.87h0a4.63,4.63,0,0,1-.71.66,3.9,3.9,0,0,1-1.5.87,6.06,6.06,0,0,1-4.66-.26,6,6,0,0,1-1.54-1.26A6.68,6.68,0,0,1,166,31.49h0l-0.13-.35a17.05,17.05,0,0,1-.55-3.39,15.61,15.61,0,0,1,0-1.87q0-.47.09-0.94a7.91,7.91,0,0,0,.19-0.91v0h-0.21a15.14,15.14,0,0,0-.27,1.87,15,15,0,0,0,0,1.87v0a15,15,0,0,0,.58,3.42l0.11,0.28h0a7.6,7.6,0,0,0,1,1.87h0A5.5,5.5,0,0,0,169,35.07a1.6,1.6,0,0,0,.35.16h0c0.24,0.09.51,0.14,0.78,0.23a6.12,6.12,0,0,0,3.11-.23h0a5.59,5.59,0,0,0,1.66-.89,4.83,4.83,0,0,0,1-1h0a5.5,5.5,0,0,0,.54-0.91,10.23,10.23,0,0,0,.41-1h0a12.07,12.07,0,0,0,.71-3.7v0a15.41,15.41,0,0,0,0-1.87,17.48,17.48,0,0,0-.26-1.88h0c0-.26-0.1-0.51-0.16-0.77a0.6,0.6,0,0,1,0-.12,6.73,6.73,0,0,0-.42-1h-0.28A6.64,6.64,0,0,1,176.82,23.55ZM170.2,38c0.52,0.07.7-.12,0.7-0.33a0.66,0.66,0,0,1-.36-0.56h-0.76A1.42,1.42,0,0,0,170.2,38Zm6.63-1.33a0.28,0.28,0,0,0,0,.44h0a0.68,0.68,0,0,0,.16.12s-0.15.27-1-.12h0L175.65,37s0,0,0,0l0.11,0.09h0a3.06,3.06,0,0,0,.52.37,1.16,1.16,0,0,0,1,0,0.62,0.62,0,0,0,.26-0.3,0.26,0.26,0,0,0,0-.07h0a0.44,0.44,0,0,0-.38-0.59A0.52,0.52,0,0,0,176.82,36.66Zm-2.15-18.85-0.11.09h0.2C174.79,17.83,174.76,17.68,174.67,17.81ZM163.78,26V25.19c0-.12-0.14-0.12-0.14,0V26A0.07,0.07,0,1,0,163.78,26ZM166,33.36h0.32l0-.07a6.39,6.39,0,0,1-.73-1.5c-0.07-.11-0.13-0.2-0.18-0.3h-0.52A17.71,17.71,0,0,1,166,33.36Zm0.59,1.31a0.85,0.85,0,0,1-.09.56,2.35,2.35,0,0,1-.45.54,0.23,0.23,0,0,0,.14.21,0.64,0.64,0,0,0,.58.12l0.4-.77a0.18,0.18,0,0,1,.12,0,2.73,2.73,0,0,1,0,1.73h1.15c0.05-.26.09-0.52,0.14-0.75h1.12a4.75,4.75,0,0,0,.05.75h0.76A1.46,1.46,0,0,0,170.2,36a3.84,3.84,0,0,1-1.64-.66l-0.17-.09a6.81,6.81,0,0,1-2.08-1.87H166A6.93,6.93,0,0,1,166.59,34.67Zm-4-3.18h0c0,0.06,0,.12.06,0.19a0.8,0.8,0,0,0,.73.59,0.86,0.86,0,0,0,1-.47,0.66,0.66,0,0,0,0-.3h0a0.64,0.64,0,0,0-.2-0.4,0.32,0.32,0,0,0-.47.19,0.47,0.47,0,0,0,0,.21h0a1.85,1.85,0,0,0,.12.26,0.47,0.47,0,0,1-.33.26,0.81,0.81,0,0,1-.61-0.4,0.58,0.58,0,0,1-.05-0.12h0c-0.2-.58.71-0.9,0.66-1.38h-0.14a0.07,0.07,0,0,1-.07-0.07,3.48,3.48,0,0,0,.8-1,0.08,0.08,0,0,1,0-.07,0.25,0.25,0,0,1-.22,0,1.68,1.68,0,0,0,0-1.12l0.35,0h-0.43C163.75,29.15,162.26,30.09,162.6,31.49Zm4.64,5.74a2,2,0,0,1-1.19.84,1.62,1.62,0,0,0,1.38.73,2,2,0,0,0,1-1.69h-1.15Zm7.52-19.32h-0.2c-0.17.14-.48,0.38-0.5,0.38a0.85,0.85,0,0,0,.7-0.37h0Zm-1.55-2.27a3.84,3.84,0,0,0-.84-0.91,2.41,2.41,0,0,0-1.38-.28l-0.47.09a1.9,1.9,0,0,0-1.38,1.5,0.68,0.68,0,0,0,.16.66,0.31,0.31,0,0,0,.37,0,0.22,0.22,0,0,0,.07-0.14,0.25,0.25,0,0,0-.07-0.12l-0.06-.05-0.08,0a0.25,0.25,0,0,1-.07-0.12,1.22,1.22,0,0,1,.33-0.87,1.92,1.92,0,0,1,1.85-.66,2.89,2.89,0,0,1,1.17.8,0.82,0.82,0,0,1,.14.77,0.42,0.42,0,0,0-.21.14,0.26,0.26,0,0,0,.14.33,0.39,0.39,0,0,0,.33-0.07A1.06,1.06,0,0,0,173.22,15.64Zm7,6.48a0.52,0.52,0,0,0,.32-0.46,6.39,6.39,0,0,1-.84.47h0.52ZM178,20.18l0.26-.07,0.09,0.14,0,0.07a0.45,0.45,0,0,1-.23.07l0.59,0.87,0.23-.07,0.16,0.23a1.31,1.31,0,0,1-.23.07l0.19,0.28a1.79,1.79,0,0,0,1.12-.82L180,20.67a1.5,1.5,0,0,1-.56.59L179.28,21a1.89,1.89,0,0,0,.56-0.59l-0.13-.19-0.46-.68a1.35,1.35,0,0,1-.56.58l-0.16-.21a1.41,1.41,0,0,0,.59-0.59l-0.21-.28a1.65,1.65,0,0,1-1.1.8Zm1.71,1.94c0,0.12.37,0.09,0.54,0H179.7Zm-23.2-8.9V37.1h8.05a0.79,0.79,0,0,1,.33-0.72,1.78,1.78,0,0,1,.77-0.07l0.28,0.12a0.62,0.62,0,0,1,.21.47,0.28,0.28,0,0,0,.21,0,6.2,6.2,0,0,0,.4-0.5,1.51,1.51,0,0,1-.94-0.25,4.38,4.38,0,0,1-.81-1h0a2.47,2.47,0,0,1-.13-0.26,1.11,1.11,0,0,1-.77-0.23c-0.19-.26-0.87-1.31-0.87-1.31l0-.07h0c-0.18-.41-0.4-0.75-0.62-1.17a4.93,4.93,0,0,1-.29-0.7h0a1.82,1.82,0,0,1-.08-0.35,2.06,2.06,0,0,1,.12-0.77c0-.16.91-1.76,0.91-1.76a0.17,0.17,0,0,0,0-.14,1,1,0,0,1-1.62-.68v0h0c0-.15-0.06-0.32-0.08-0.42V25.87h0V24h0V22.71h1.05v0.4h0.33v0.52c0,0.14.19,0.07,0.33,0.07a1.77,1.77,0,0,0,.12-1.17c0-.14.09-0.23,0.4-0.21a0.24,0.24,0,0,0,.1-0.19h0a0.1,0.1,0,0,0,0-.07,0.66,0.66,0,0,0-.61.07h0l-0.11.07a1,1,0,0,1-1-.07,0.64,0.64,0,0,1-.13-0.91,1,1,0,0,1,.14-0.91l0,0h0l0.69-.87,0.22-.31h0a5.26,5.26,0,0,1,1-1.17,2.29,2.29,0,0,1,.71-0.37,2.57,2.57,0,0,1,1.05.21l0.46,0.16h0.38a1.11,1.11,0,0,1,.26-1.07,0.74,0.74,0,0,1,1.05,0c0.16,0.37,0,.49.14,0.73a0.43,0.43,0,0,0,.52.26,0.67,0.67,0,0,0,.52-0.77,2.92,2.92,0,0,1-.37-0.47,1.24,1.24,0,0,1,0-.77,1.21,1.21,0,0,1,.12-0.35,2.32,2.32,0,0,1,1.71-1.22,3.39,3.39,0,0,1,1.83.19A2.08,2.08,0,0,1,173.8,16a2.1,2.1,0,0,1-.07.66l-0.45.52a1.06,1.06,0,0,0,.74.7l0.1,0,0.06,0h0a2,2,0,0,0,.24-0.21,0.15,0.15,0,0,0,0-.16,0.56,0.56,0,0,1,0-.52,0.84,0.84,0,0,1,.87-0.33,1.08,1.08,0,0,1,.21.07,1.27,1.27,0,0,1,.49,1.14h0.07c0.61-.26,1.55-0.68,2.11-0.3a3,3,0,0,1,.41.3H186V13.23H156.5Zm22.33,10.58v-1a1.11,1.11,0,0,1-.61-0.35V20.91H178v1.52a1,1,0,0,0,.61.47v0.94a0.34,0.34,0,0,0,.07.16h0.4A0.4,0.4,0,0,1,178.84,23.81ZM175,16.95c-0.4.09-.21,0.58-0.21,0.58a0.45,0.45,0,0,0,.35.16,0.47,0.47,0,0,1,0,.21h0v0c0,0.14-.47.47-0.44,0.52a1.14,1.14,0,0,0,.63-0.52v0C175.47,17.6,175.5,16.84,175,16.95Zm1.1,1H176v0Zm2.39,1.17h0a1.32,1.32,0,0,0,.12-0.42,0.75,0.75,0,0,0-.51-0.75l-0.12,0a2.18,2.18,0,0,0-1,0h0a8,8,0,0,0-1.25.43c-0.28.12-.21,0.14-0.14,0.14,0.82,0,1.92-.58,2.5-0.14a0.52,0.52,0,0,1,.12.26,0.53,0.53,0,0,1-.12.47l0,0h0a0.51,0.51,0,0,1-.24,0v0h0c0-.12.09-0.57-0.36-0.49a0.34,0.34,0,0,0-.23.49,0.39,0.39,0,0,0,.18.24,1.08,1.08,0,0,0,.68.07A0.63,0.63,0,0,0,178.48,19.08Zm1.15,5-0.09,0a1.83,1.83,0,0,1-.41,0h-0.4A0.88,0.88,0,0,0,179.63,24.09ZM168,18.85c-0.84.12-1.69-.28-2.34-0.21a0.28,0.28,0,0,0,0,.14,1.4,1.4,0,0,1,0,.3h0a3.18,3.18,0,0,1-.8,1.17h0a1.79,1.79,0,0,0-.22.94v1.38a0.71,0.71,0,0,1-.63.52V24h0a0.89,0.89,0,0,1-1.08.45v2.48a0.86,0.86,0,0,0,.12.35,0.32,0.32,0,0,0,.21,0s0-.16.12-0.19a0.84,0.84,0,0,1,.47,0,1.48,1.48,0,0,1,.36.61h0v0a1.81,1.81,0,0,1,0,.87,0.28,0.28,0,0,1,.26.26v0.33l-0.66,1.43c0,0.07,0,.14.07,0.14h0.4a8.5,8.5,0,0,1,.54.68h0.52a4,4,0,0,1-.29-0.75c0-.4-0.19-0.66-0.19-1.1a1.14,1.14,0,0,1-.07-0.54c0-.35-0.06-0.87-0.08-1.31,0,0,0,0,0,0,0-.45,0-0.82,0-0.82s0-.45.06-1.05,0.11-1.27.2-1.87h0c0-.21.07-0.41,0.11-0.58,0.16-.45.32-0.88,0.51-1.29a6.44,6.44,0,0,1,.68-1.19c0.19-.23.41-0.45,0.63-0.68a9.39,9.39,0,0,1,.94-0.82,2.6,2.6,0,0,1,.58-0.35l0.26-.11a9.39,9.39,0,0,1,1.14-1.06h-0.54A3.24,3.24,0,0,1,168,18.85Zm-3.93,7v0.28c0,0.37-.63.42-0.63,0V24.86a1.3,1.3,0,0,0,.63-0.33v1.33Zm8.4-6.7a5,5,0,0,1,2.39,1.08h0A6,6,0,0,1,176,21.54c0.09,0.21.19,0.4,0.28,0.58h0.28l-0.19-.39a5.35,5.35,0,0,0-1.18-1.48h0c-0.16-.15-0.33-0.29-0.51-0.42a6.14,6.14,0,0,0-1.43-.75h-1.11ZM177,32.4a7.74,7.74,0,0,1-.63,1l-0.1.14a6.31,6.31,0,0,1-1.82,1.73,5.23,5.23,0,0,1-2.18.75,7.65,7.65,0,0,0-.18,1.12h0.68a3.38,3.38,0,0,0,.08-0.72h1.05a6.56,6.56,0,0,1,.12.73h1.27L175.18,37a1.81,1.81,0,0,1,0-1.31,0.3,0.3,0,0,1,.26-0.26c0.14,0,.14.07,0.21,0.19a1.12,1.12,0,0,0,.52.8,0.32,0.32,0,0,0,.26-0.14l0.3-.37a1.84,1.84,0,0,1-.63-0.47,1.46,1.46,0,0,1-.06-0.16h0a2.34,2.34,0,0,1,.55-1.87h0a4.4,4.4,0,0,0,.38-0.7c0.24-.36.42-0.79,0.64-1.17h0a2.24,2.24,0,0,1,.71-0.8,1,1,0,0,1,.61.19l0.14,0.61,0,0.19a0.2,0.2,0,0,0,.26-0.07l0-.12,0-.14c-0.07-.58-0.84-0.66-1-1.17l0.14-.33-0.54-.73a0.27,0.27,0,0,0-.19.12v0.14a14,14,0,0,1-.53,2.11A8.76,8.76,0,0,1,177,32.4Zm-5.06-13.67h-1.45a6.32,6.32,0,0,0-1.27.35h0c-0.23.09-.46,0.19-0.7,0.31s-0.66.44-1,.7l-0.18.16h0.33a4.25,4.25,0,0,1,.46-0.35,5.84,5.84,0,0,1,2.1-.82h0a6.32,6.32,0,0,1,.7-0.09,2.89,2.89,0,0,1,1.2.09h1.11a5.84,5.84,0,0,0-1.19-.3C172,18.78,172,18.73,171.91,18.73ZM176.61,24a8.13,8.13,0,0,0-.66-1.87h-0.34a6,6,0,0,1,.64,1.87h0.36Zm-3.42-4,0.48,0.23h0a4.55,4.55,0,0,1,1.82,1.65l0.12,0.22H176a6.74,6.74,0,0,0-.46-0.79,5.25,5.25,0,0,0-1.21-1.08h0a7.18,7.18,0,0,0-2.58-1v1h1.76Zm6,10.2a0.43,0.43,0,0,0-.26.12l0.14,0.21a1.68,1.68,0,0,1,.68.94,0.26,0.26,0,0,1,0,.07,0.61,0.61,0,0,1-.16.3,0.74,0.74,0,0,1-.66.26,1.81,1.81,0,0,1-.26-0.4c0.07-.07.16,0,0.16-0.19a0.31,0.31,0,0,0,0,0h-0.6a0.77,0.77,0,0,0,0,.37,1,1,0,0,0,.73.59,1,1,0,0,0,.91-0.54,0.94,0.94,0,0,0,.15-0.42,3.49,3.49,0,0,0-.48-1.59,4,4,0,0,1-.73-1.85l0,0a1.58,1.58,0,0,0-.07.19c-0.21.33,0.26,0.52,0.07,0.8l-0.33,0c0,0.07-.07.07-0.07,0.14C178.56,29.57,179.28,29.75,179.21,30.22Zm-2.71,5,0.14,0.16a0.49,0.49,0,0,0,.26.14,0.29,0.29,0,0,0,.26-0.14,0.77,0.77,0,0,0,.05-0.16,0.94,0.94,0,0,0,0-.09A0.22,0.22,0,0,0,177.1,35a0.16,0.16,0,0,0-.14,0,0.82,0.82,0,0,0-.28.12,0.66,0.66,0,0,1-.33-0.52V34.48A0.71,0.71,0,0,0,176.5,35.23Zm-6.77-16.55a6.06,6.06,0,0,1,3.23,0l0-.16c-0.09-.12-0.26-0.19-0.37-0.3a1.15,1.15,0,0,1-.42-0.35H171.7a0.44,0.44,0,0,1-.84,0h0a0.44,0.44,0,1,1,.87-0.14,0.42,0.42,0,0,1,0,.14h0.45a3.76,3.76,0,0,1-.43-1,0.53,0.53,0,0,1-.33-0.26V16.2c0.54,0,.37-0.49-0.12-0.49s-0.63.45-.12,0.49v0.49a0.52,0.52,0,0,1-.33.26,3.44,3.44,0,0,1-.45,1h0a1.11,1.11,0,0,1-.42.33c-0.12.14-.28,0.19-0.35,0.3A0.13,0.13,0,0,0,169.73,18.68Zm9,12.57a0.45,0.45,0,0,0-.26,0,0.4,0.4,0,0,0-.18.23h0.6A0.38,0.38,0,0,0,178.7,31.25Zm-0.75.8-0.19.28a1.31,1.31,0,0,0,.16.21l-0.14.21a0.63,0.63,0,0,1-.16-0.19l-0.48.8-0.06.09a1.11,1.11,0,0,0,.16.19l-0.16.23a0.45,0.45,0,0,1-.14-0.16l-0.19.28a1.83,1.83,0,0,0,1.19.68l0.19-.3a1.6,1.6,0,0,1-.77-0.26l0.16-.26a1.64,1.64,0,0,0,.77.28l0.45-.77,0.07-.12a1.42,1.42,0,0,1-.75-0.28l0.12-.21A1.6,1.6,0,0,0,179,33l0.19-.3A1.62,1.62,0,0,1,177.95,32Zm-10.3-10.77c0.07,0,.3.19,0.3,0a1.38,1.38,0,0,1,0-.54,1.8,1.8,0,0,1,.33-0.12,0.57,0.57,0,0,1,.47.19,0.65,0.65,0,0,0,0,.33c0.47,0.14,1-.19,1.52-0.07a0.13,0.13,0,0,0,.12-0.12l-0.12-.21a1.84,1.84,0,0,1-1.19-.19,0.78,0.78,0,0,1,0-.3h-1a5.66,5.66,0,0,0-.52.49A0.54,0.54,0,0,0,167.65,21.28Zm-1.71.84a7.18,7.18,0,0,0-.45,1.17c-0.06.23-.11,0.47-0.16,0.7h0.21a5.85,5.85,0,0,1,.67-1.87h0a12.75,12.75,0,0,1,.85-1.31c0.19-.19.38-0.38,0.59-0.56h-0.33A6.39,6.39,0,0,0,165.94,22.12Zm3.2-1.87a0.38,0.38,0,0,1,.15-0.28,0.9,0.9,0,0,1,.84-0.07,0.24,0.24,0,0,1,.07.14c-0.07,0-.07,0-0.07.12h-0.19a0.42,0.42,0,0,0-.46.09h1.7v-1a5,5,0,0,0-3.08,1h1Zm2.14-2.67a0.21,0.21,0,0,0-.21.19,0.21,0.21,0,0,0,.21.21,0.18,0.18,0,0,0,.14-0.07,0.22,0.22,0,0,0,0-.14A0.2,0.2,0,0,0,171.27,17.58Zm-1.8,2.72v0.12c0.4,0.26,1-.12,1.26.26a0.46,0.46,0,0,1,0,.54c-0.14.07-.21,0.07-0.21,0.19a1.06,1.06,0,0,1,.33.4,0.38,0.38,0,0,1-.12.26,0.34,0.34,0,0,1-.28-0.07l-0.12-.19-0.4-.14-0.33.4a1.12,1.12,0,0,1-.25.07h-0.1A0.17,0.17,0,0,1,169.1,22l0.26-.19c0.07,0,.07-0.07,0-0.14a1.74,1.74,0,0,0-1.12.46h0a0.93,0.93,0,0,1-.44,0h-0.13c-0.15,0-.32,0-0.27-0.18s0.59-.07.45-0.28h-0.33l-0.26-.52a0.18,0.18,0,0,0-.19.14c-0.17.28-.36,0.55-0.53,0.84a5.2,5.2,0,0,0-.59,1.31c0,0.18-.09.37-0.12,0.56a15.29,15.29,0,0,0-.24,1.88h0c0,0.31,0,.61,0,0.89h5.64V20.25h-1.7A0.1,0.1,0,0,0,169.47,20.3Zm1.05,6-0.4.07c-0.19-.07,0-0.14,0-0.28V26l-0.39-.12h-0.42a0.25,0.25,0,0,0-.1.19,0.73,0.73,0,0,1-.58.45h-0.26c-0.07,0-.07-0.07-0.07-0.19l0.4-.21c0.07,0,.07-0.12.07-0.19l-0.12,0h-0.22a1.93,1.93,0,0,1-.71.12c-0.26.12-.4,0.33-0.73,0.52l-1.05-.07-0.07-.12,0.87-.21V25.91l-0.24,0L166,25.77a0.92,0.92,0,0,1-.14-0.84,0.21,0.21,0,0,1,.21,0l0.12,0.59c0.07,0.07.21,0,.33,0.07l0.14-.91a1.06,1.06,0,0,1,1.05,0c0.07,0.14,0,.33.07,0.52a0.63,0.63,0,0,0,.7.4c0.61-.4,1.38-0.07,1.85-0.33V25.12a0.48,0.48,0,0,0-.21-0.12,3.73,3.73,0,0,1-1.69,0,0.28,0.28,0,0,1,0-.33l1.17-.4h0.07v0.07c0,0.14-.07.14-0.21,0.26l-0.66.07a0.31,0.31,0,0,0-.12.14c0.4,0.37,1.1-.07,1.64,0a0.4,0.4,0,0,1,.26.26v0.21a3,3,0,0,0-.33.26,0.14,0.14,0,0,0,.07.14l0.19,0,0,0.09h0a0.4,0.4,0,0,0,.09.12ZM170.69,24h0l0,0a0.49,0.49,0,0,1-.33.07s-0.06,0,0-.1a0.62,0.62,0,0,1,0-.11l-0.66-.26-0.21.07-0.19.3-0.06.1a0.52,0.52,0,0,1-.58.07,0.46,0.46,0,0,1,.21-0.17h-1.09a2.1,2.1,0,0,0-.29.21h-0.87c-0.07,0,0,0-.07,0V24l0.09,0,0.52-.16a1,1,0,0,0-.54-0.21l-0.12-.77a0.16,0.16,0,0,1,.12-0.07l0.14,0.59c0.07,0.07.19,0,.26,0.07l0.14-.8a1.14,1.14,0,0,1,.84-0.12l0.19,0.7c0.66,0.4,1.38-.26,2,0l0.14,0a0.24,0.24,0,0,0,.07-0.28L169,23a0.46,0.46,0,0,1-.26-0.26l0.07-.19,1-.26h0.07a0.32,0.32,0,0,1-.4.26h-0.26a0.27,0.27,0,0,0-.19.26c0.45,0.26,1.24-.33,1.71.12v0.28l-0.28.19V23.5a0.27,0.27,0,0,0,.21.12A0.31,0.31,0,0,1,170.69,24Zm5.22,7.5h0.36c0.08-.21.16-0.42,0.23-0.65a16.44,16.44,0,0,0,.44-3.09,14.64,14.64,0,0,0,0-1.87h0a15,15,0,0,0-.21-1.52c0-.12,0-0.24-0.07-0.35h-0.36l0,0.15c0.12,0.61.21,1.19,0.27,1.72a15,15,0,0,1,.08,1.87,9.56,9.56,0,0,1-.72,3.73h0Zm-10.31-3.75h0a14.12,14.12,0,0,0,.23,2.29,9.59,9.59,0,0,0,.44,1.45,5.94,5.94,0,0,0,1.16,1.87,5.16,5.16,0,0,0,.74.66,8.4,8.4,0,0,0,1.45.73,5.43,5.43,0,0,0,4.19-.4,5.15,5.15,0,0,0,1.28-1l0.24-.28a6.45,6.45,0,0,0,.94-1.59H175.9a6.22,6.22,0,0,1-1.28,1.87,4.76,4.76,0,0,1-4.13,1.3,6,6,0,0,1-2.81-1.3l0,0,0.07,0c2.76,1.48,4.69.88,5.88,0h0a5.39,5.39,0,0,0,.86-0.79,4.55,4.55,0,0,0,.69-1.08h0a10,10,0,0,0,.83-3.75h0a12.64,12.64,0,0,0-.06-1.87h0a11.57,11.57,0,0,0-.35-1.88h0a9.88,9.88,0,0,0-.73-1.87l0-.06a6.08,6.08,0,0,0-1.36-1.81H171.7v7.09h-6.11C165.6,27.48,165.59,27.61,165.59,27.74Zm3.72-1.87h0.42l-0.31-.09ZM169,23.62a2.46,2.46,0,0,0-1.21.37h1.09a0.29,0.29,0,0,0,.12-0.11V23.62Z"/><path class="cls-1" d="M75.08,13.27L89.34,29.68V18.87a10.08,10.08,0,0,0-1.24-5.6h9.67a10,10,0,0,0-1.24,5.6V38.53a25.78,25.78,0,0,0,.33,4.14h-7L75.08,24V37.13a10.11,10.11,0,0,0,1.19,5.55h-10a9.76,9.76,0,0,0,1.24-5.55V18.87c0-2.39-.26-4.19-1.33-5.6h8.9"/><path class="cls-2" d="M113.22,13.23c1.85,0,12.15-1,12.15,9,0,6.39-4.28,10.44-11.4,10.44-0.61,0-1.38,0-2.13-.09v4.57a10.16,10.16,0,0,0,1.26,5.55H102.52a9.76,9.76,0,0,0,1.24-5.55V18.82c0-2.55-.37-4.4-1.26-5.55l10.72,0m0.3,13.62a4,4,0,0,0,4.17-4.07c0-2.22-1.12-3.84-3.91-3.84a16.75,16.75,0,0,0-1.94.14v7.63A11.13,11.13,0,0,0,113.52,26.85Z"/><path class="cls-1" d="M128.48,42.86a8.84,8.84,0,0,0,1.22-4.75V20.34a13.66,13.66,0,0,0-1.29-7.07H139a13.85,13.85,0,0,0-1.29,7.07V36.05h8.36a12.52,12.52,0,0,0,4.07-.59l-0.8,5.76c-0.26,1.4-.89,1.62-2.29,1.62l-18.61,0"/><path class="cls-1" d="M67.71,49.63l3,4.1V50.8a2,2,0,0,0-.26-1.17H72.3A2.17,2.17,0,0,0,72,50.8v4.1a5,5,0,0,0,.07.87H70.8l-3.16-4.38v3.23a2.14,2.14,0,0,0,.23,1.15H66a2.09,2.09,0,0,0,.26-1.15V50.8A1.89,1.89,0,0,0,66,49.63h1.71"/><path class="cls-1" d="M79.51,51.43h0.73a1,1,0,0,0,.42-0.07l0,0.56a0.44,0.44,0,0,1-.52.54H79.51v1.94a0.34,0.34,0,0,0,.33.42,1.33,1.33,0,0,0,.87-0.49V54.8c0,0.66-.21,1.08-1.24,1.08a1,1,0,0,1-1.24-1V52.46H77.77V51.41a2.9,2.9,0,0,0,.45,0V50.35l1.29-.23v1.31"/><path class="cls-1" d="M83.21,50.17a0.69,0.69,0,0,1-.68.66,0.7,0.7,0,0,1-.7-0.68,0.69,0.69,0,1,1,1.38,0"/><path class="cls-1" d="M83.21,54.55a3.1,3.1,0,0,0,.19,1.22H81.75a3.13,3.13,0,0,0,.16-1.22V52.63a1.91,1.91,0,0,0-.19-0.94l1.47-.3v3.16"/><path class="cls-1" d="M91,51.85a2.27,2.27,0,0,1,1.48-.47,1.09,1.09,0,0,1,1.29,1.12v2A3.1,3.1,0,0,0,94,55.76H92.36a3.1,3.1,0,0,0,.19-1.22V53.12a0.54,0.54,0,0,0-.61-0.63,1.21,1.21,0,0,0-.82.33v1.73a3,3,0,0,0,.16,1.22H89.67a3.1,3.1,0,0,0,.19-1.22V52.63a2.21,2.21,0,0,0-.19-0.94l1.31-.3,0,0.47"/><path class="cls-1" d="M101,54.55a2.73,2.73,0,0,0,.19,1.22H99.59a3.13,3.13,0,0,0,.16-1.22v-4.1a1.8,1.8,0,0,0-.19-0.94l1.47-.3v5.34"/><path class="cls-2" d="M75.6,52.74a0.41,0.41,0,0,0-.47-0.47,2,2,0,0,0-1.4.56l-0.19-.61c0-.07,0-0.14,0-0.19,0-.3.82-0.66,1.87-0.66s1.45,0.4,1.45,1.22v1.94a1.14,1.14,0,0,0,.37.91l-0.94.37s-0.09,0-.19,0a0.42,0.42,0,0,1-.3-0.42,1.74,1.74,0,0,1-1.15.42,1.16,1.16,0,0,1-1.24-1.26c0-.87.75-1.36,2.2-1.45v-0.4m-1,1.8a0.45,0.45,0,0,0,.49.47,0.5,0.5,0,0,0,.54-0.35V53.89C74.92,53.91,74.57,54.17,74.57,54.55Z"/><path class="cls-2" d="M88.8,53.61a2.19,2.19,0,1,1-2.18-2.22,2,2,0,0,1,2.18,2.22m-3.07,0a0.93,0.93,0,1,0,1.78,0A0.93,0.93,0,1,0,85.73,53.61Z"/><path class="cls-2" d="M97.16,52.74a0.4,0.4,0,0,0-.47-0.47,2,2,0,0,0-1.4.56l-0.16-.61a0.57,0.57,0,0,1,0-.19c0-.3.8-0.66,1.87-0.66A1.16,1.16,0,0,1,98.4,52.6v1.94a1.21,1.21,0,0,0,.37.91l-0.94.37s-0.09,0-.19,0a0.45,0.45,0,0,1-.3-0.42,1.74,1.74,0,0,1-1.15.42A1.14,1.14,0,0,1,95,54.59c0-.87.73-1.36,2.18-1.45v-0.4m-1.08,1.8a0.45,0.45,0,0,0,.49.47,0.5,0.5,0,0,0,.54-0.35V53.89C96.43,53.91,96.08,54.17,96.08,54.55Z"/><path class="cls-2" d="M106.41,54.62a2.14,2.14,0,0,0,.26,1.15h-1.83a2,2,0,0,0,.26-1.15V50.78a1.83,1.83,0,0,0-.28-1.15l0.89,0h0.19c0.19,0,.56,0,1.17,0a1.75,1.75,0,0,1,2,1.9c0,1.33-.77,2-2.25,2h-0.44v1.08m0.35-2.11a0.93,0.93,0,0,0,1.12-1,0.88,0.88,0,0,0-1.08-.89,2.76,2.76,0,0,0-.4,0v1.85A1.93,1.93,0,0,0,106.76,52.51Z"/><path class="cls-1" d="M111.39,51.76a2.62,2.62,0,0,1,1.38-.37,1.11,1.11,0,0,1,1.31,1.12v2a3.13,3.13,0,0,0,.16,1.22h-1.61a3.1,3.1,0,0,0,.19-1.22v-1.4a0.54,0.54,0,0,0-.61-0.66,1.26,1.26,0,0,0-.82.33v1.73a3,3,0,0,0,.16,1.22H110a3.13,3.13,0,0,0,.16-1.22v-4.1a1.8,1.8,0,0,0-.19-0.94l1.45-.3v2.55"/><path class="cls-1" d="M116.49,51.48a0.32,0.32,0,0,0,0,.19,1.45,1.45,0,0,0,.09.37L117.43,54a4.72,4.72,0,0,0,.87-2.25,1,1,0,0,0,0-.26h1.61a43.56,43.56,0,0,1-2.32,4.43c-0.66,1.05-.89,1.55-1.36,1.55h-1.4A12.56,12.56,0,0,0,116.71,55l-1.38-2.69a6,6,0,0,0-.54-0.84h1.71"/><path class="cls-1" d="M122.86,52.67a1.88,1.88,0,0,0-1.17-.45c-0.26,0-.42.09-0.42,0.26a1.22,1.22,0,0,0,.82.58,1.58,1.58,0,0,1,1.15,1.38,1.52,1.52,0,0,1-1.78,1.4,1.6,1.6,0,0,1-1.5-.54V55.2l0.28-.82a2,2,0,0,0,1.31.61,0.39,0.39,0,0,0,.47-0.33A1.1,1.1,0,0,0,121.2,54a1.49,1.49,0,0,1-1.08-1.36,1.42,1.42,0,0,1,1.66-1.29,1.45,1.45,0,0,1,1.36.49,0.3,0.3,0,0,1,0,.14l-0.26.66"/><path class="cls-1" d="M125.56,50.17a0.69,0.69,0,0,1-.68.66,0.68,0.68,0,1,1,.68-0.66"/><path class="cls-1" d="M125.56,54.55a3.1,3.1,0,0,0,.19,1.22H124.1a3.13,3.13,0,0,0,.16-1.22V52.63a1.91,1.91,0,0,0-.19-0.94l1.48-.3v3.16"/><path class="cls-1" d="M129.89,52.84a1.49,1.49,0,0,0-1-.42,1.06,1.06,0,0,0-1,1.17,1,1,0,0,0,1,1.17,1.6,1.6,0,0,0,1.17-.49l0,0.91c0,0.42-.61.68-1.4,0.68a2,2,0,0,1-2.13-2.22,2.08,2.08,0,0,1,2.15-2.25,1.46,1.46,0,0,1,1.48.61,0.54,0.54,0,0,1-.07.21l-0.28.63"/><path class="cls-2" d="M133.23,52.74a0.42,0.42,0,0,0-.49-0.47,2.09,2.09,0,0,0-1.4.56l-0.16-.61a0.57,0.57,0,0,1,0-.19c0-.3.82-0.66,1.87-0.66s1.45,0.4,1.45,1.22v1.94a1.2,1.2,0,0,0,.35.91l-0.91.37-0.19,0a0.42,0.42,0,0,1-.3-0.42,1.78,1.78,0,0,1-1.15.42A1.16,1.16,0,0,1,131,54.59c0-.87.75-1.36,2.2-1.45v-0.4m-1.1,1.8a0.45,0.45,0,0,0,.49.47,0.5,0.5,0,0,0,.54-0.35V53.89C132.48,53.91,132.13,54.17,132.13,54.55Z"/><path class="cls-1" d="M136.93,54.55a2.72,2.72,0,0,0,.19,1.22h-1.66a2.72,2.72,0,0,0,.19-1.22v-4.1a2.07,2.07,0,0,0-.19-0.94l1.48-.3v5.34"/><path class="cls-1" d="M142.67,49.63a3,3,0,0,0-.26,1.47v3.56h1.36a2.78,2.78,0,0,0,.84-0.14l-0.16.94c0,0.3-.19.35-0.49,0.35-0.56,0-1.36-.09-2.36-0.09-0.28,0-.56,0-0.84,0a1.65,1.65,0,0,0,.26-1V51.1a2.75,2.75,0,0,0-.28-1.47h1.94"/><path class="cls-2" d="M147.58,52.74a0.42,0.42,0,0,0-.49-0.47,2.09,2.09,0,0,0-1.4.56l-0.16-.61a0.59,0.59,0,0,1,0-.19c0-.3.82-0.66,1.87-0.66s1.45,0.4,1.45,1.22v1.94a1.2,1.2,0,0,0,.35.91l-0.91.37-0.19,0a0.43,0.43,0,0,1-.3-0.42,1.78,1.78,0,0,1-1.15.42,1.16,1.16,0,0,1-1.24-1.26c0-.87.75-1.36,2.2-1.45v-0.4m-1,1.8A0.45,0.45,0,0,0,147,55a0.5,0.5,0,0,0,.54-0.35V53.89C146.91,53.91,146.55,54.17,146.55,54.55Z"/><path class="cls-2" d="M151.21,51.67a1.51,1.51,0,0,1,1-.28c1.12,0,1.83.84,1.83,2.18a2.05,2.05,0,0,1-2.13,2.29,2.23,2.23,0,0,1-1.19-.33l-0.73.23V50.45a2,2,0,0,0-.21-0.94l1.48-.3v2.46m0.68,3.16a1,1,0,0,0,.82-1.22,1,1,0,0,0-.84-1.19,0.87,0.87,0,0,0-.66.3v1.76A0.82,0.82,0,0,0,151.89,54.83Z"/><path class="cls-2" d="M159.38,53.61a2.19,2.19,0,1,1-4.38,0,2.19,2.19,0,1,1,4.38,0m-3.09,0a0.93,0.93,0,1,0,1.78,0A0.93,0.93,0,1,0,156.29,53.61Z"/><path class="cls-1" d="M161.61,54.55a3.1,3.1,0,0,0,.19,1.22h-1.64a3.13,3.13,0,0,0,.16-1.22V52.63a1.91,1.91,0,0,0-.19-0.94l1.29-.3,0.07,0.52a1.33,1.33,0,0,1,1-.52,0.3,0.3,0,0,1,.37.26c0,0.12,0,.19,0,0.23l-0.23.77a0.94,0.94,0,0,0-.35-0.07,0.92,0.92,0,0,0-.66.28v1.69"/><path class="cls-2" d="M165.68,52.74a0.4,0.4,0,0,0-.47-0.47,2,2,0,0,0-1.4.56l-0.16-.61a0.74,0.74,0,0,1,0-.19c0-.3.82-0.66,1.9-0.66a1.17,1.17,0,0,1,1.43,1.22v1.94a1.14,1.14,0,0,0,.37.91l-0.94.37s-0.09,0-.19,0a0.45,0.45,0,0,1-.3-0.42,1.74,1.74,0,0,1-1.15.42,1.15,1.15,0,0,1-1.22-1.26c0-.87.73-1.36,2.18-1.45v-0.4m-1,1.8a0.45,0.45,0,0,0,.49.47,0.5,0.5,0,0,0,.54-0.35V53.89C165,53.91,164.65,54.17,164.65,54.55Z"/><path class="cls-1" d="M169.73,51.43h0.7a1.19,1.19,0,0,0,.45-0.07l0,0.56a0.44,0.44,0,0,1-.52.54h-0.59v1.94c0,0.28.09,0.42,0.3,0.42a1.33,1.33,0,0,0,.87-0.49V54.8c0,0.66-.21,1.08-1.24,1.08a1,1,0,0,1-1.22-1V52.46H168V51.41a3,3,0,0,0,.47,0V50.35l1.29-.23v1.31"/><path class="cls-2" d="M175.77,53.61a2.19,2.19,0,1,1-4.38,0,2.19,2.19,0,1,1,4.38,0m-3.09,0a1,1,0,0,0,.89,1.22c0.59,0,.89-0.42.89-1.22a1,1,0,0,0-.89-1.19A1,1,0,0,0,172.68,53.61Z"/><path class="cls-1" d="M178.23,54.55a3.1,3.1,0,0,0,.19,1.22h-1.66a3.1,3.1,0,0,0,.19-1.22V52.63a2.21,2.21,0,0,0-.19-0.94l1.29-.3,0.07,0.52a1.29,1.29,0,0,1,1-.52,0.33,0.33,0,0,1,.4.26,0.51,0.51,0,0,1,0,.23l-0.21.77a0.94,0.94,0,0,0-.35-0.07,0.85,0.85,0,0,0-.66.28v1.69"/><path class="cls-1" d="M181.95,51.48a0.6,0.6,0,0,0,0,.19A0.87,0.87,0,0,0,182,52L182.91,54a4.89,4.89,0,0,0,.84-2.25,0.94,0.94,0,0,0,0-.26h1.62A41.73,41.73,0,0,1,183,55.9c-0.63,1.05-.87,1.55-1.33,1.55h-1.43A11.87,11.87,0,0,0,182.18,55l-1.4-2.69a6.06,6.06,0,0,0-.52-0.84h1.69"/></svg>