<svg id="Layer_1" data-name="Layer 1" xmlns="http://www.w3.org/2000/svg" viewBox="0 0 251 122"><defs><style>.cls-1{fill:#fff;}</style></defs><title>LD_website logo</title><path class="cls-1" d="M114.1,83.52H111.9a4.3,4.3,0,0,0-4.35,4.24v5.32a4.31,4.31,0,0,0,4.37,4.24h2.19a4.3,4.3,0,0,0,4.35-4.22V87.75a4.31,4.31,0,0,0-4.37-4.24m2.1,9.43h0a2.27,2.27,0,0,1-2.26,2.25H112.1A2.25,2.25,0,0,1,109.87,93V87.88a2.21,2.21,0,0,1,2.21-2.25h1.83a2.3,2.3,0,0,1,2.24,2.26Z"/><polyline class="cls-1" points="161.13 79.81 159.05 79.81 159.05 82.13 161.35 82.13 161.35 79.81"/><rect class="cls-1" x="159.05" y="83.58" width="2.31" height="13.68"/><polygon class="cls-1" points="164.84 83.58 164.84 97.26 162.54 97.26 162.53 83.58 162.54 82.13 162.54 79.81 164.62 79.81 164.84 79.81 164.84 82.13 164.84 83.58"/><path class="cls-1" d="M106.86,83.59H104a4.35,4.35,0,0,0-4.41,4.28v9.39H102s0-8.94,0-9a2.81,2.81,0,0,1,.54-1.89,2.35,2.35,0,0,1,1.69-.67h2.87V83.59"/><path class="cls-1" d="M147.6,83.58v2.14h-2.86a2.38,2.38,0,0,0-1.7.66,2.88,2.88,0,0,0-.54,1.9s0,9,0,9H140.1V87.87a4.36,4.36,0,0,1,4.41-4.29h3.09Z"/><path class="cls-1" d="M98,95.08c-0.5,0-1.43,0-2.63,0-3.32-.19-5.17-2.13-5.19-5.48V87.42c0-3.35,1.86-5.3,5.19-5.48,1.2-.06,2.13,0,2.62,0h0.48V79.72H95.23a7.48,7.48,0,0,0-7.54,7.4v2.74a7.48,7.48,0,0,0,7.54,7.4h3.24V95.08"/><path class="cls-1" d="M128.58,85.7V83.58h-5.41a3.7,3.7,0,0,0-3.79,3.68,3.88,3.88,0,0,0,2.35,3.56l3.64,1.4a1.29,1.29,0,0,1,1,1.25,1.68,1.68,0,0,1-1.65,1.65h-5.05v2.14H125a3.71,3.71,0,0,0,3.81-3.68,3.81,3.81,0,0,0-2.32-3.52l-3.66-1.43a1.47,1.47,0,0,1-1.07-1.35,1.49,1.49,0,0,1,.47-1.08,1.8,1.8,0,0,1,1.28-.48l0.46,0h4.56Z"/><path class="cls-1" d="M138.68,85.7V83.58h-5.41a3.7,3.7,0,0,0-3.79,3.68,3.88,3.88,0,0,0,2.34,3.56l3.65,1.4a1.29,1.29,0,0,1,1,1.25,1.67,1.67,0,0,1-1.65,1.65h-5.06v2.14h5.39A3.71,3.71,0,0,0,139,93.58a3.81,3.81,0,0,0-2.32-3.52L133,88.63a1.47,1.47,0,0,1-1.07-1.35,1.5,1.5,0,0,1,.47-1.08,1.8,1.8,0,0,1,1.28-.48l0.46,0h4.55Z"/><path class="cls-1" d="M157.92,92.36V87.87a4.36,4.36,0,0,0-4.42-4.28h-4.95v2.13h4.72a2.51,2.51,0,0,1,1.75.68,2.76,2.76,0,0,1,.55,1.88s0,0.29,0,.52a3.31,3.31,0,0,0-2-.61h-2.17a4.26,4.26,0,0,0-4.31,4.2v0.68a4.27,4.27,0,0,0,4.33,4.2h2.17a4.25,4.25,0,0,0,4.31-4.18V92.36m-2.33.64a2.2,2.2,0,0,1-2.22,2.17h-1.82A2.2,2.2,0,0,1,149.32,93V92.44a2.2,2.2,0,0,1,2.22-2.17h1.82a2.2,2.2,0,0,1,2.22,2.17V93Z"/><path class="cls-1" d="M175.51,14.73H76V96.36h0v1.79a9.23,9.23,0,0,0,9.31,9.13h81.48A9.16,9.16,0,0,0,176,98.15V14.73h-0.49ZM133.67,48.6c2.24,2,5.44,4,11.13,6a53,53,0,0,0,15.72,2.79h4.24v5.84H161.3a61.43,61.43,0,0,1-13.42-1.68,44.55,44.55,0,0,1-6-1.76s-2.47-1-3.4-1.45a35.25,35.25,0,0,1-11.53-8.2l1.33-1.57h5.44ZM129,47.52s3.13-4.32,5.13-5.79h30.62v5.8H129Zm-1.64-8.81a39.74,39.74,0,0,1,13.57-8.84A26.75,26.75,0,0,1,144,28.78a55.68,55.68,0,0,1,17-2.66h3.75V32L162,32a50.07,50.07,0,0,0-19.23,3.46,36.64,36.64,0,0,0-10.18,6.3l-0.12.12c-1.46,1.15-4.81,5.67-4.81,5.67a42.77,42.77,0,0,1-4.49,4.79,36.3,36.3,0,0,1-9.36,6c-0.93.44-3.4,1.48-3.4,1.48a44.75,44.75,0,0,1-6,1.74,65.93,65.93,0,0,1-15.7,1.68H87.46V57.43h2a55.3,55.3,0,0,0,18-2.81c6.65-2.38,9.81-4.88,12.18-7.08a32.81,32.81,0,0,0,3.86-4.31A35.87,35.87,0,0,1,127.35,38.71ZM87.46,26.09h2.61a59.33,59.33,0,0,1,18.15,2.66,26.32,26.32,0,0,1,3.08,1.09,38.84,38.84,0,0,1,13.59,8.84c0.18,0.18.31,0.34,0.48,0.52L124,40.72h-5.48a36.83,36.83,0,0,0-9-5.29A54.57,54.57,0,0,0,89.08,32H87.46V26.09Zm0,15.64h35.67a37,37,0,0,1-5.13,5.8H87.46v-5.8ZM173,95.14h0v2.63c0,4.13-2.26,6.53-6.3,6.76-0.8,0-1.48,0-2.05.05H88.75c-0.62,0-1.76,0-3.24-.05-4.1-.23-6.37-2.64-6.4-6.77V96.82l0-1.68h0l0-21.19H173V95.14Z"/></svg>