<svg id="Layer_1" data-name="Layer 1" xmlns="http://www.w3.org/2000/svg" viewBox="0 0 251 86"><defs><style>.cls-1{fill:#fff;}</style></defs><title>LD_website logo</title><path class="cls-1" d="M150.18,33.52l-4.5,1.93a0.35,0.35,0,0,0-.19.43l0.17,0.48a0.37,0.37,0,0,0,.42.23l4.11-.93a15.8,15.8,0,0,1,0-2.15m0.74-3.83-6.15,1.09a0.36,0.36,0,0,0-.29.38l0.06,0.56a0.35,0.35,0,0,0,.36.31l5.47-.18a15.45,15.45,0,0,1,.54-2.16m-6.15-1.91,6.42,1.15a15.57,15.57,0,0,1,1.08-2.23l-7.36-.24a0.36,0.36,0,0,0-.36.31l-0.07.62a0.36,0.36,0,0,0,.28.38m5.63,9.53-3,2.11a0.35,0.35,0,0,0-.1.46l0.23,0.38a0.37,0.37,0,0,0,.46.14l2.83-1.31a15.54,15.54,0,0,1-.43-1.79m29.91-14.16a0.25,0.25,0,0,0-.32-0.21l-1.21.27,1.45-1a15.52,15.52,0,0,0-.49-2.45,0.26,0.26,0,0,0-.37-0.17l-2.3,1.07,2.18-2.35a15.32,15.32,0,0,0-.94-2,0.27,0.27,0,0,0-.41-0.09l-3,2.27,2.32-3.87A15.69,15.69,0,0,0,176,13.19a0.29,0.29,0,0,0-.42,0l-3.21,3.69,1.84-5.3a15.49,15.49,0,0,0-1.38-.93,0.31,0.31,0,0,0-.42.12h0l-2.82,5.1,0.77-6.09a0.42,0.42,0,0,0-.26-0.42q-0.54-.2-1.11-0.35h0a0.33,0.33,0,0,0-.41.22l-1.89,6.25h0l-0.56-6.73a0.36,0.36,0,0,0-.35-0.32h-1a0.36,0.36,0,0,0-.35.32l-0.58,6.94-2-6.67a0.36,0.36,0,0,0-.41-0.24l-1,.2a0.36,0.36,0,0,0-.28.39l0.92,7.12-3.43-6.3a0.36,0.36,0,0,0-.45-0.15l-0.84.37a0.36,0.36,0,0,0-.19.44l2.46,7-4.8-5.62a0.36,0.36,0,0,0-.47-0.06l-0.69.5a0.36,0.36,0,0,0-.09.47l4,6.5-6-4.64a0.36,0.36,0,0,0-.47,0l-0.54.59a0.36,0.36,0,0,0,0,.48l5.41,5.68-7.06-3.4a0.36,0.36,0,0,0-.46.14l-0.37.64a0.36,0.36,0,0,0,.11.46l6.67,4.55-7.84-1.92a0.35,0.35,0,0,0-.41.23l-0.21.65a0.36,0.36,0,0,0,.2.43l6.92,2.83a15.5,15.5,0,0,1,11.73-7.34,10.24,10.24,0,1,1,1.92,20.4h0a15.52,15.52,0,0,0,14.22-16.33M149.93,42.92a0.35,0.35,0,0,0,0,.47l0.27,0.28a0.37,0.37,0,0,0,.48,0l1.65-1.24q-0.39-.66-0.72-1.36ZM156.87,48a0.35,0.35,0,0,0,.19.43l0.25,0.11a0.37,0.37,0,0,0,.46-0.16L158,48c-0.31-.18-0.61-0.37-0.91-0.56Zm-3.74-2.16a0.35,0.35,0,0,0,.1.46l0.27,0.19a0.37,0.37,0,0,0,.48-0.06l0.75-.86q-0.46-.45-0.87-0.94Z"/><path class="cls-1" d="M94.52,68c-2.08-2.61-2.94-3.7-4.33-5.75l-0.12-.17c-2.28-3.39-4.15-6.17-6.77-8.16a8.68,8.68,0,0,0,5-8.09,8.88,8.88,0,0,0-3.47-7.29,14.68,14.68,0,0,0-9.06-2.61H66V70h6.37a0.42,0.42,0,0,0,.42-0.42V55.93h1.3c2.21,0,4.13.5,8.76,7l4.7,6.65a0.91,0.91,0,0,0,.66.34h7.86M80.38,48.55c-1,1-2.72,1.53-5.14,1.53H72.79V41.61h2.45c5.45,0,6.12,2.32,6.15,4.06a3.84,3.84,0,0,1-1,2.88M117,60.79a9.09,9.09,0,0,1-3.12,6.92,11.58,11.58,0,0,1-7.69,2.69A17.63,17.63,0,0,1,95.8,67.27L95.43,67v-7.6A0.31,0.31,0,0,1,96,59.22c1.27,1.66,4.64,5.32,9.67,5.32,3.61,0,5-2,5-3.24,0-2.61-3-4.25-6.45-6.16C100,52.85,95.23,50.23,95.23,45A8.57,8.57,0,0,1,98.5,38a13.28,13.28,0,0,1,8.37-2.53,16.19,16.19,0,0,1,8.37,2.4l0.4,0.25V45a0.31,0.31,0,0,1-.5.25c-1.21-1.15-4.53-3.86-8.69-3.86-2.82,0-4.79,1.23-4.79,3,0,2.2,2.69,3.58,5.8,5.18,4.27,2.19,9.6,4.93,9.6,11.23m18.08-24.56a0.53,0.53,0,0,0-.44-0.29h-4.19a0.51,0.51,0,0,0-.44.29L115.82,70h6.76a0.52,0.52,0,0,0,.44-0.29l4-9.25h11.88l4,9.25a0.52,0.52,0,0,0,.44.29H150Zm-5.66,18.35,3.44-8,3.44,8h-6.88Z"/><path class="cls-1" d="M177.2,14.64q-0.4-.53-0.85-1l0.87-1a0.35,0.35,0,0,1,.47,0l0.26,0.2a0.37,0.37,0,0,1,.09.47m2.18,8.95,3.27-2.3a0.37,0.37,0,0,0,.11-0.47L183.39,19a0.35,0.35,0,0,0-.45-0.15l-3,1.42a15.57,15.57,0,0,1,.34,1.89m0.89-5.91a0.37,0.37,0,0,0,0-.48l-0.26-.29a0.35,0.35,0,0,0-.47,0l-1.82,1.38a15.33,15.33,0,0,1,.67,1.46ZM180.21,26l4.85-2.08a0.37,0.37,0,0,0,.2-0.44L185.11,23a0.35,0.35,0,0,0-.41-0.24l-4.37,1a15.24,15.24,0,0,1-.12,2.25m-0.64,2.84,6.15-1.09a0.35,0.35,0,0,0,.29-0.38l-0.06-.56a0.35,0.35,0,0,0-.36-0.31l-5.47.18a15.43,15.43,0,0,1-.54,2.16M174.4,10.91a0.37,0.37,0,0,0-.19-0.44L174,10.36a0.35,0.35,0,0,0-.45.15l-0.26.47q0.46,0.3.9,0.63Zm11.31,19.83-6.42-1.15a15.51,15.51,0,0,1-1.08,2.23l7.36,0.24a0.36,0.36,0,0,0,.36-0.31l0.06-.62a0.36,0.36,0,0,0-.29-0.38M185,34.94L178,32.11a15.51,15.51,0,0,1-11.69,7.34h0a10.48,10.48,0,0,1-1.11.06,10.24,10.24,0,0,1-1.08-20.43,15.53,15.53,0,0,0-14,16.59l1.51-.34-1.18.83h0a0.57,0.57,0,0,0-.21.51h0a15.38,15.38,0,0,0,.53,2.42l2.59-1.2-2,2.12h0a0.53,0.53,0,0,0-.09.53h0a15.54,15.54,0,0,0,1,1.93L155.61,40l-2.17,3.61a0.5,0.5,0,0,0,0,.52,15.66,15.66,0,0,0,1.26,1.41l3.42-3.93-1.74,5a0.47,0.47,0,0,0,.17.46A15.74,15.74,0,0,0,158,48l3-5.37-0.76,6.09a0.42,0.42,0,0,0,.25.42q0.55,0.2,1.11.35h0a0.33,0.33,0,0,0,.41-0.22L163.83,43h0l0.56,6.73a0.36,0.36,0,0,0,.35.32h1a0.36,0.36,0,0,0,.35-0.32l0.58-6.94,2,6.67a0.36,0.36,0,0,0,.41.24l1-.2a0.36,0.36,0,0,0,.28-0.39L169.43,42l3.43,6.3a0.36,0.36,0,0,0,.45.15l0.84-.37a0.36,0.36,0,0,0,.19-0.44l-2.46-7,4.8,5.62a0.36,0.36,0,0,0,.47.06l0.69-.5a0.36,0.36,0,0,0,.09-0.47l-4-6.5,6,4.65a0.36,0.36,0,0,0,.47,0l0.53-.59a0.36,0.36,0,0,0,0-.48l-5.41-5.68,7.07,3.4a0.36,0.36,0,0,0,.46-0.14l0.37-.64a0.36,0.36,0,0,0-.11-0.46l-6.67-4.55,7.84,1.92A0.35,0.35,0,0,0,185,36l0.21-.65a0.35,0.35,0,0,0-.2-0.43"/></svg>