<svg id="Layer_1" data-name="Layer 1" xmlns="http://www.w3.org/2000/svg" viewBox="0 0 230 57"><defs><style>.cls-1{fill:#fff;}</style></defs><title>LD_website logo</title><path class="cls-1" d="M130.74,19.66H161V48.84H130.74V19.66Zm19.06,4.06-0.41-.07-0.16,0-0.7-.09-0.49,0c-0.28,0-.56,0-0.84,0h-0.32l-0.67,0-0.37,0-0.53.06-0.15,0-0.17,0-0.2,0-0.25,0-0.36.08a12.48,12.48,0,0,0-2,.61c-0.31.12-.62,0.26-0.91,0.4l-0.69.38-0.62.39-0.33.24-0.28.21c-0.19.15-.38,0.31-0.55,0.46s-0.32.3-.47,0.44l-0.38.4c-0.12.14-.25,0.28-0.36,0.42l-0.37.49-0.25.38c-0.06.09-.11,0.18-0.16,0.27a10,10,0,0,0-.82,1.7,10.82,10.82,0,0,0-.6,2.43c0,0.27-.06.54-0.08,0.82s0,0.43,0,.66,0,0.33,0,.49,0,0.34,0,.5v0.12c0,0.2.06,0.39,0.09,0.58a2.26,2.26,0,0,0,0,.22c0,0.16.07,0.32,0.11,0.47s0.11,0.4.17,0.59,0.17,0.47.26,0.69a10.62,10.62,0,0,0,.48,1c0.11,0.19.21,0.38,0.32,0.56s0.17,0.27.27,0.41l0.36,0.5c0.13,0.17.26,0.33,0.39,0.48a7,7,0,0,0,.48.52l0.09,0.09c0.13,0.12.27,0.26,0.43,0.4l0.34,0.3,0.37,0.28L140,43.09c0.19,0.12.37,0.24,0.58,0.35a10.27,10.27,0,0,0,1.32.65l0.56,0.21,0.59,0.19c0.35,0.11.72,0.19,1.1,0.28l1,0.15c0.33,0,.67.07,1,0.09l0.53,0H147q0.95,0,1.77-.07h0.1l0.64-.07,0.89-.14,0.52-.11c0.26-.05.5-0.12,0.75-0.18l0.5-.15,0.56-.18,0.17-.06,0.34-.13c0.18-.07.4-0.16,0.65-0.28l0.47-.21,0.47-.22,0.19-.1v-4l-0.14.09-0.27.16-0.77.47-0.84.43a13.93,13.93,0,0,1-1.39.59,13,13,0,0,1-2.31.63l-0.24,0-0.54.07-0.75.06h-0.41c-0.28,0-.56,0-0.85,0a10.07,10.07,0,0,1-1-.12,9,9,0,0,1-1.67-.45L143.54,41l-0.16-.07-0.27-.12-0.56-.3-0.27-.17L142,40.16l-0.34-.25-0.31-.26-0.13-.12-0.07-.06,0,0,0,0c-0.17-.18-0.33-0.36-0.48-0.54l-0.23-.3-0.2-.29L140,38c-0.08-.14-0.15-0.28-0.22-0.42s-0.12-.24-0.17-0.36-0.15-.4-0.21-0.59-0.08-.3-0.12-0.44A6.69,6.69,0,0,1,139.1,35c0-.13,0-0.24,0-0.35s0-.29,0-0.41,0-.16,0-0.25a6.55,6.55,0,0,1,.07-0.85c0-.2.07-0.41,0.12-0.63l0.12-.45c0-.15.09-0.29,0.15-0.44s0.07-.19.12-0.3,0.12-.27.19-0.41l0.16-.31a6.9,6.9,0,0,1,.44-0.67l0.18-.24,0.26-.31,0.14-.15a8,8,0,0,1,2.34-1.67l0.39-.16a3.28,3.28,0,0,1,.4-0.15l0.43-.14,0.41-.11L145.4,27l0.45-.07,0.45,0a7.86,7.86,0,0,1,.83,0h0.27l0.59,0,0.39,0L149.09,27l0.58,0.1,0.75,0.18,0.42,0.12,0.47,0.15,0.34,0.12,0.56,0.22,0.71,0.31,0.53,0.26,0.39,0.2,0.54,0.3,0.4,0.22V25.25L154.12,25l-0.64-.24-0.43-.16-0.37-.13-0.45-.15-0.34-.11-0.11,0-0.34-.1L151,24l-0.27-.06-0.46-.1-0.48-.09"/><path class="cls-1" d="M107.48,35.75v5.74h3.83l0.5,0a6.28,6.28,0,0,0,1.42-.28,3.15,3.15,0,0,0,1.23-.75,2.37,2.37,0,0,0,.33-0.41,2.61,2.61,0,0,0,.37-1.2c0-.11,0-0.18,0-0.18a1,1,0,0,0,0-.14,2.55,2.55,0,0,0-.07-0.56,2.37,2.37,0,0,0-.43-0.87,1,1,0,0,0-.14-0.17,2.83,2.83,0,0,0-.33-0.29,3.16,3.16,0,0,0-.67-0.39,4.94,4.94,0,0,0-1.09-.33l-0.65-.1-0.42,0h-3.9Z"/><path class="cls-1" d="M107.48,27v5.44h2l0.4,0a6.79,6.79,0,0,0,1.36-.22l0.29-.1a2.83,2.83,0,0,0,1.06-.65,2.18,2.18,0,0,0,.49-0.75,3.09,3.09,0,0,0,.18-0.82c0-.19,0-0.31,0-0.31a2,2,0,0,0,0-.23,2.47,2.47,0,0,0-.24-1,1.88,1.88,0,0,0-.37-0.51,2.21,2.21,0,0,0-.7-0.47,4.37,4.37,0,0,0-1.54-.34c-0.21,0-.4,0-0.56,0h-2.42Z"/><path class="cls-1" d="M95.87,19.66h30.26V48.84H95.87V19.66Zm7.94,4.09v21h7.72s3.77,0.1,5.84-2a5.34,5.34,0,0,0,.13-7.44,6.69,6.69,0,0,0-3-1.74,5.3,5.3,0,0,0,1.36-1,4.35,4.35,0,0,0,1.26-3.41,5,5,0,0,0-1.45-3.51,6.79,6.79,0,0,0-5.17-1.92h-6.65Z"/><path class="cls-1" d="M72.61,35.75v5.74h3.83l0.5,0a6.16,6.16,0,0,0,1.41-.28,3.19,3.19,0,0,0,1.24-.75A2.36,2.36,0,0,0,79.93,40a2.56,2.56,0,0,0,.37-1.2c0-.11,0-0.18,0-0.18a1,1,0,0,0,0-.14,2.66,2.66,0,0,0-.07-0.56,2.41,2.41,0,0,0-.43-0.87l-0.14-.17a2.72,2.72,0,0,0-.33-0.29,3.2,3.2,0,0,0-.67-0.39,5,5,0,0,0-1.09-.33l-0.64-.1-0.42,0h-3.9Z"/><path class="cls-1" d="M72.61,27v5.44h2l0.4,0a6.77,6.77,0,0,0,1.36-.22l0.29-.1a2.86,2.86,0,0,0,1.07-.65,2.27,2.27,0,0,0,.49-0.75,2.67,2.67,0,0,0,.18-0.82c0-.19,0-0.31,0-0.31a2.24,2.24,0,0,0,0-.23,2.72,2.72,0,0,0-.24-1,2,2,0,0,0-.37-0.51,2.25,2.25,0,0,0-.7-0.47,4.38,4.38,0,0,0-1.54-.34c-0.2,0-.4,0-0.56,0H72.61Z"/><path class="cls-1" d="M61,19.66H91.26V48.84H61V19.66Zm7.94,4.09v21h7.72s3.76,0.1,5.84-2a5.35,5.35,0,0,0,.13-7.44,6.7,6.7,0,0,0-3-1.73,5.51,5.51,0,0,0,1.36-1,4.35,4.35,0,0,0,1.26-3.41,5,5,0,0,0-1.45-3.51,6.77,6.77,0,0,0-5.17-1.92H68.94Z"/></svg>