<svg id="Layer_1" data-name="Layer 1" xmlns="http://www.w3.org/2000/svg" viewBox="0 0 254 80"><defs><style>.cls-1{fill:#fff;}</style></defs><title>LD_website logo</title><path class="cls-1" d="M78.91,21.38c-0.24-1.85-2.66-2-4.21-2S72.07,20,72.07,21c0,0.76.64,1.17,1.64,1.33l4.84,0.78c2.59,0.42,4.56,1.39,4.56,4s-1.79,4.76-7.39,4.76c-3.47,0-8.68-.27-8.72-4.69h4.34c0,1.95,2.7,2.11,4.38,2.11s3-.54,3-1.77-0.88-1.39-2.41-1.63l-3.53-.54C70.36,25,68,24.22,68,21.32c0-3.16,2.58-4.46,7-4.46,2.93,0,7.91.5,8.17,4.52H78.91Z"/><path class="cls-1" d="M85.36,20.8h3.51V31.46H85.36V20.8Zm0-3.79h3.51v2.47H85.36V17Z"/><path class="cls-1" d="M90.6,21.22H94v1.66h0a5.81,5.81,0,0,1,3.49-2,7,7,0,0,1,1.3,0v3.2a7.48,7.48,0,0,0-1.93-.33c-2.39,0-2.79,1.07-2.79,3.15v4.59H90.6V21.22Z"/><path class="cls-1" d="M169.05,21.22h3.39v1.66h0a5.8,5.8,0,0,1,3.49-2,7,7,0,0,1,1.31,0v3.2a7.48,7.48,0,0,0-1.93-.33c-2.39,0-2.79,1.07-2.79,3.15v4.59h-3.51V21.22Z"/><path class="cls-1" d="M108.52,19.94h8.15a1.15,1.15,0,0,1,1.42,1.34c0,1-.34,1.36-1.21,1.36h-8.35v-2.7Zm9.84,5.46c1.6-.57,3.24-1.49,3.24-3.91,0-1.46-.66-4.25-4.59-4.25H104.66V31.46h3.86V25.68h4.8l4.22,5.92h4.72Z"/><path class="cls-1" d="M125.59,26.13c0-2.07,1.25-3.24,3.42-3.24s3.42,1.16,3.42,3.24-1.25,3.24-3.42,3.24-3.42-1.16-3.42-3.24m-3.61,0c0,4,2.82,5.71,7,5.71s7-1.71,7-5.71-2.82-5.71-7-5.71-7,1.71-7,5.71"/><path class="cls-1" d="M141.61,26.18c0-2,1.61-3.08,3.45-3.08s3.47,1.05,3.47,3.08-1.61,3.08-3.47,3.08-3.45-1.05-3.45-3.08m-3.55,5.28h3.55V30.12h0a5.19,5.19,0,0,0,4.18,1.72c3.63,0,6.49-1.86,6.49-5.6,0-3.46-2.71-5.72-6.23-5.72-2.07,0-3.59.63-4.3,1.58h0V17h-3.68V31.46Z"/><path class="cls-1" d="M157.46,25v0c0-.26.58-2.34,3.34-2.34,2.56,0,3.3,1.77,3.3,2.34v0h-6.64Zm6.32,3.27a3,3,0,0,1-2.9,1.38c-2.39,0-3.42-1.54-3.42-2.54v0h10.26V26.75c0-4-2.22-6.32-6.84-6.32-4.21,0-7,1.71-7,5.7s2.82,5.71,7,5.71c3.2,0,5.62-1.06,6.64-3.57h-3.73Z"/><path class="cls-1" d="M180,19.74l3.51-2.24v3.72h2.83v2.35h-2.83v4.54c0,0.83.26,1.11,1.17,1.11,0.62,0,1.15,0,1.71-.08v2.35c-0.66.08-2,.2-2.75,0.2-3.33,0-3.65-1.24-3.65-3.16v-5h-1.4V21.21H180V19.74Z"/><polygon class="cls-1" points="67.57 35.82 74.92 35.82 78.44 49.35 78.51 49.35 82.06 35.82 89.38 35.82 89.38 61.08 84.86 61.08 84.86 48.68 84.79 48.68 80.41 61.08 76.54 61.08 72.16 48.68 72.09 48.68 72.09 61.08 67.57 61.08 67.57 35.82"/><path class="cls-1" d="M98.53,42c0-1.38-.31-2.86-1.53-2.86-1.59,0-1.84,1.59-1.84,4.88,0,3.53.28,5,1.73,5,1.07,0,1.64-1,1.64-3.34h3c0,3.74-1.37,5.86-4.77,5.86C93.54,51.52,92,49.73,92,44s2.1-7.52,5-7.52,4.49,2.16,4.49,5.53h-3Z"/><path class="cls-1" d="M108.8,44.77h0.06L111,52.86h-4.31Zm-8.53,16.3h4.62l1-4.17h5.85l1,4.17h4.62l-5.82-25.26h-5.48Z"/><polygon class="cls-1" points="119.3 61.07 119.3 35.81 123.74 35.81 123.74 56.89 131.58 56.89 131.58 61.07 119.3 61.07"/><path class="cls-1" d="M137.36,39.55h1.84c2.21,0,3.07,2.14,3.07,4.62s-1.2,4.14-2.95,4.14h-2V39.55Zm-4.44,21.52h4.44V52h2.36c4.18,0,7-2.72,7-7.95,0-3.79-1.54-8.28-6-8.28h-7.75V61.08Z"/><rect class="cls-1" x="148.55" y="35.82" width="4.44" height="25.26"/><polygon class="cls-1" points="160.13 35.81 166.73 50.84 166.79 50.84 166.79 35.81 170.83 35.81 170.83 61.08 165.8 61.08 160.38 49.62 160.32 49.62 160.32 61.08 156.28 61.08 156.28 35.81 160.13 35.81"/><polygon class="cls-1" points="186.69 35.82 186.69 40 178.85 40 178.85 45.92 186.23 45.92 186.23 50.11 178.85 50.11 178.85 56.89 187 56.89 187 61.07 174.41 61.07 174.41 35.82 186.69 35.82"/></svg>