<svg id="Layer_1" data-name="Layer 1" xmlns="http://www.w3.org/2000/svg" xmlns:xlink="http://www.w3.org/1999/xlink" viewBox="0 0 230 44.16"><defs><style>.cls-1,.cls-10,.cls-11,.cls-12,.cls-13,.cls-14,.cls-15,.cls-16,.cls-17,.cls-18,.cls-2,.cls-3,.cls-4,.cls-6,.cls-7,.cls-8,.cls-9{fill:#fff;}.cls-1{clip-rule:evenodd;}.cls-2{fill-rule:evenodd;}.cls-4{stroke:#fff;}.cls-10,.cls-11,.cls-12,.cls-13,.cls-14,.cls-15,.cls-16,.cls-17,.cls-18,.cls-4,.cls-6,.cls-7,.cls-8,.cls-9{stroke-linecap:round;stroke-linejoin:round;stroke-width:0px;}.cls-5{clip-path:url(#clip-path);}.cls-6{stroke:#4061ab;}.cls-7{stroke:#5774b7;}.cls-8{stroke:#758dc7;}.cls-9{stroke:#90a5d5;}.cls-10{stroke:#a9b9e0;}.cls-11{stroke:#beccea;}.cls-12{stroke:#d3dbf1;}.cls-13{stroke:#e2e9f7;}.cls-14{stroke:#e8eef9;}.cls-15{stroke:#edf2fb;}.cls-16{stroke:#f2f5fc;}.cls-17{stroke:#f8fafd;}.cls-18{stroke:#f9fbfe;}</style><clipPath id="clip-path"><polygon class="cls-1" points="71.67 22.73 71.7 22.73 71.8 22.75 71.96 22.79 72.15 22.83 72.37 22.88 72.59 22.94 72.82 23 73.03 23.07 73.55 23.27 73.99 23.45 74.34 23.64 74.61 23.82 74.82 23.97 74.99 24.11 75.13 24.21 75.22 24.3 75.43 24.49 75.6 24.7 75.72 24.89 75.81 25.08 75.87 25.2 75.9 25.3 75.93 25.43 75.95 25.52 75.96 25.55 75.96 25.56 75.96 25.58 75.98 25.62 75.98 25.68 75.98 25.75 75.99 25.81 75.99 25.87 75.99 25.91 75.99 25.96 75.99 26.13 75.96 26.26 75.95 26.37 75.86 26.73 75.7 27.07 75.54 27.37 75.36 27.64 75.17 27.86 75.01 28.04 74.87 28.16 74.63 28.39 74.35 28.6 74.05 28.83 73.72 29.07 73.34 29.33 72.9 29.59 72.4 29.87 71.85 30.18 71.23 30.5 70.41 30.92 69.65 31.3 68.92 31.65 68.27 31.95 67.68 32.23 67.13 32.45 66.66 32.65 66.25 32.8 65.9 32.94 65.63 33.03 65.43 33.11 65.31 33.14 65.28 33.15 65.22 33.15 65.08 33.12 64.82 33.09 64.49 33.05 64.06 32.97 63.55 32.88 62.96 32.77 62.29 32.65 61.55 32.5 60.73 32.33 59.85 32.13 58.89 31.92 57.89 31.68 56.83 31.41 55.7 31.1 54.54 30.78 53.32 30.43 53.37 30.42 53.49 30.37 53.69 30.31 53.94 30.24 54.26 30.15 54.63 30.04 55.02 29.92 55.45 29.78 55.89 29.65 56.33 29.51 56.78 29.37 57.22 29.24 57.65 29.1 58.04 28.96 58.41 28.86 58.8 28.72 59.19 28.6 59.59 28.48 60 28.34 60.41 28.2 60.86 28.05 61.33 27.89 61.87 27.7 62.43 27.49 63.06 27.26 63.75 27 64.28 26.81 64.89 26.58 65.54 26.31 66.23 26.02 66.95 25.7 67.68 25.35 68.41 24.99 69.12 24.61 69.8 24.2 70.44 23.77 71.02 23.33 71.52 22.89 71.67 22.73"/></clipPath></defs><title>LD_website logo</title><path class="cls-3" d="M83,30.5a1.11,1.11,0,0,0,.52-1v-9a1.12,1.12,0,0,0-.52-1h4.26c1.91,0,3.76.79,3.76,2.94A2.45,2.45,0,0,1,89,24.77,2.78,2.78,0,0,1,92,27.41c0,2.44-2.58,3.08-4.39,3.08H83Zm3.46-10a4.57,4.57,0,0,0-.7,0v3.82H86.2c1.31,0,2.58-.41,2.58-1.93S87.77,20.51,86.48,20.51Zm0.27,4.86c-0.32,0-.59,0-1,0v4a7.86,7.86,0,0,0,1.46.12,2,2,0,0,0,2.2-2.16C89.44,25.73,88.13,25.37,86.75,25.37Zm9.5-4.86a3.53,3.53,0,0,0-.56.06v3.78l0.52,0a1.93,1.93,0,0,0,2.14-2C98.34,21,97.45,20.51,96.25,20.51Zm5.51,10a4.59,4.59,0,0,1-1.29-.11c-0.74-.21-1.76-1.9-2.17-2.55-0.64-1.06-1.18-2.53-2.61-2.55v4.16a1.09,1.09,0,0,0,.52,1H92.93a1.09,1.09,0,0,0,.52-1v-9a1.12,1.12,0,0,0-.52-1h3.95c1.71,0,3.87.67,3.87,2.73,0,1.73-1.43,2.61-3,2.61,2.28,0,3.61,5.34,6.12,5.36A7.29,7.29,0,0,1,101.76,30.56ZM104,30.5a1.09,1.09,0,0,0,.56-1v-9a1.09,1.09,0,0,0-.56-1h3.37a1.07,1.07,0,0,0-.56,1v9a1.07,1.07,0,0,0,.56,1H104Zm7.3,0a1.09,1.09,0,0,0,.53-1V20.83h-2.41a3.43,3.43,0,0,0-1.7.35l0.74-1.61h8a9.31,9.31,0,0,0,1.94-.15,2.29,2.29,0,0,1-1.75,1.44c-0.64,0-1.68-.06-2.58-0.06v8.71a1.09,1.09,0,0,0,.53,1h-3.32Zm7.51,0a1.08,1.08,0,0,0,.55-1v-9a1.08,1.08,0,0,0-.55-1h3.35a1.07,1.07,0,0,0-.56,1v9a1.07,1.07,0,0,0,.56,1H118.8ZM128.69,28c0-2.08-4.89-2.55-4.89-5.87,0-2,1.94-2.73,3.67-2.73a6.71,6.71,0,0,1,2.56.44l0.14,2a3,3,0,0,0-2.52-1.55A1.43,1.43,0,0,0,126,21.63c0,2.16,5,2.69,5,5.83,0,2.29-2,3.23-4,3.23a6.51,6.51,0,0,1-3.37-.8,9.52,9.52,0,0,1-.08-1.12,9.71,9.71,0,0,1,.11-1.34,3.5,3.5,0,0,0,3.13,2.25A1.61,1.61,0,0,0,128.69,28Zm10.5,2.47a1.13,1.13,0,0,0,.49-1V25.46c-0.58-.06-1.4-0.09-2.32-0.09s-1.75,0-2.35.09v4.05a1.12,1.12,0,0,0,.5,1h-3.25a1.1,1.1,0,0,0,.5-1v-9a1.1,1.1,0,0,0-.5-1h3.25a1.1,1.1,0,0,0-.5,1v3.67c0.61,0.06,1.41.09,2.35,0.09s1.75,0,2.32-.09V20.55a1.13,1.13,0,0,0-.49-1h3.22a1.12,1.12,0,0,0-.47,1v9a1.14,1.14,0,0,0,.47,1h-3.22Z"/><path class="cls-4" d="M83,30.5a1.11,1.11,0,0,0,.52-1v-9a1.12,1.12,0,0,0-.52-1h4.26c1.91,0,3.76.79,3.76,2.94A2.45,2.45,0,0,1,89,24.77,2.78,2.78,0,0,1,92,27.41c0,2.44-2.58,3.08-4.39,3.08H83Zm3.46-10a4.57,4.57,0,0,0-.7,0v3.82H86.2c1.31,0,2.58-.41,2.58-1.93S87.77,20.51,86.48,20.51Zm0.27,4.86c-0.32,0-.59,0-1,0v4a7.86,7.86,0,0,0,1.46.12,2,2,0,0,0,2.2-2.16C89.44,25.73,88.13,25.37,86.75,25.37Zm9.5-4.86a3.53,3.53,0,0,0-.56.06v3.78l0.52,0a1.93,1.93,0,0,0,2.14-2C98.34,21,97.45,20.51,96.25,20.51Zm5.51,10a4.59,4.59,0,0,1-1.29-.11c-0.74-.21-1.76-1.9-2.17-2.55-0.64-1.06-1.18-2.53-2.61-2.55v4.16a1.09,1.09,0,0,0,.52,1H92.93a1.09,1.09,0,0,0,.52-1v-9a1.12,1.12,0,0,0-.52-1h3.95c1.71,0,3.87.67,3.87,2.73,0,1.73-1.43,2.61-3,2.61,2.28,0,3.61,5.34,6.12,5.36A7.29,7.29,0,0,1,101.76,30.56ZM104,30.5a1.09,1.09,0,0,0,.56-1v-9a1.09,1.09,0,0,0-.56-1h3.37a1.07,1.07,0,0,0-.56,1v9a1.07,1.07,0,0,0,.56,1H104Zm7.3,0a1.09,1.09,0,0,0,.53-1V20.83h-2.41a3.43,3.43,0,0,0-1.7.35l0.74-1.61h8a9.31,9.31,0,0,0,1.94-.15,2.29,2.29,0,0,1-1.75,1.44c-0.64,0-1.68-.06-2.58-0.06v8.71a1.09,1.09,0,0,0,.53,1h-3.32Zm7.51,0a1.08,1.08,0,0,0,.55-1v-9a1.08,1.08,0,0,0-.55-1h3.35a1.07,1.07,0,0,0-.56,1v9a1.07,1.07,0,0,0,.56,1H118.8ZM128.69,28c0-2.08-4.89-2.55-4.89-5.87,0-2,1.94-2.73,3.67-2.73a6.71,6.71,0,0,1,2.56.44l0.14,2a3,3,0,0,0-2.52-1.55A1.43,1.43,0,0,0,126,21.63c0,2.16,5,2.69,5,5.83,0,2.29-2,3.23-4,3.23a6.51,6.51,0,0,1-3.37-.8,9.52,9.52,0,0,1-.08-1.12,9.71,9.71,0,0,1,.11-1.34,3.5,3.5,0,0,0,3.13,2.25A1.61,1.61,0,0,0,128.69,28Zm10.5,2.47a1.13,1.13,0,0,0,.49-1V25.46c-0.58-.06-1.4-0.09-2.32-0.09s-1.75,0-2.35.09v4.05a1.12,1.12,0,0,0,.5,1h-3.25a1.1,1.1,0,0,0,.5-1v-9a1.1,1.1,0,0,0-.5-1h3.25a1.1,1.1,0,0,0-.5,1v3.67c0.61,0.06,1.41.09,2.35,0.09s1.75,0,2.32-.09V20.55a1.13,1.13,0,0,0-.49-1h3.22a1.12,1.12,0,0,0-.47,1v9a1.14,1.14,0,0,0,.47,1h-3.22Z"/><path class="cls-3" d="M154.41,30.5a0.58,0.58,0,0,0,.2-0.38,1.2,1.2,0,0,0-.11-0.38l-1-2.73a18.76,18.76,0,0,0-2.06-.08c-0.65,0-1.32,0-2,.08-0.09.24-1.06,2.67-1.06,2.67a2.31,2.31,0,0,0-.17.52,0.36,0.36,0,0,0,.26.3h-2.2a1.77,1.77,0,0,0,.74-0.85l3.61-9.32a0.36,0.36,0,0,0,0-.14,0.75,0.75,0,0,0-.41-0.62h2.84l3.67,10.08a1.73,1.73,0,0,0,.74.85h-3.13Zm-2.85-8.85-1.65,4.25a16.71,16.71,0,0,0,3.19,0Zm6.53,8.85a1.09,1.09,0,0,0,.56-1v-9a1.09,1.09,0,0,0-.56-1h3.37a1.07,1.07,0,0,0-.56,1v9a1.07,1.07,0,0,0,.56,1h-3.37Zm8.47-10a3.54,3.54,0,0,0-.55.06v3.78c0.18,0,.33,0,0.5,0a1.92,1.92,0,0,0,2.14-2C168.65,21,167.75,20.51,166.55,20.51Zm5.78,10a4.59,4.59,0,0,1-1.29-.11c-0.74-.21-1.76-1.9-2.17-2.55-0.64-1.06-1.46-2.55-2.87-2.55v4.16a1.11,1.11,0,0,0,.5,1h-3.26a1.09,1.09,0,0,0,.52-1v-9a1.12,1.12,0,0,0-.52-1h3.95c1.71,0,3.85.67,3.85,2.73a2.69,2.69,0,0,1-2.75,2.61c2.35,0.14,3.78,5.36,6.12,5.36A7.47,7.47,0,0,1,172.34,30.56Zm13.61-9.93-3.31,9.87a1.31,1.31,0,0,1-.7-0.21,8.64,8.64,0,0,1-1-2.12l-1.5-3.78-2.15,6.12h-1l-3.72-9.88a1.9,1.9,0,0,0-.83-1h3.23a0.52,0.52,0,0,0-.23.46,1.25,1.25,0,0,0,.09.38l2.41,6.54,2.58-7.38,2.84,7.1,2.14-6.42a1.07,1.07,0,0,0,.09-0.35,0.4,0.4,0,0,0-.2-0.33h2.14A2,2,0,0,0,185.95,20.63Zm4,1-1.67,4.25a12.7,12.7,0,0,0,1.52.08,12.4,12.4,0,0,0,1.68-.08Zm2.84,8.85a0.47,0.47,0,0,0,.2-0.38,1.55,1.55,0,0,0-.09-0.38l-1-2.73a18.76,18.76,0,0,0-2.06-.08c-0.65,0-1.32,0-2,.08-0.11.24-1,2.67-1,2.67a2,2,0,0,0-.18.52,0.36,0.36,0,0,0,.26.3h-2.2a1.77,1.77,0,0,0,.74-0.85L189,20.33a0.36,0.36,0,0,0,0-.14,0.75,0.75,0,0,0-.41-0.62h2.84l3.67,10.08a1.73,1.73,0,0,0,.74.85h-3.14Zm9.86-9.77L200,25.26v4.25a1.1,1.1,0,0,0,.49,1h-3.22a1.15,1.15,0,0,0,.49-1V25.24l-2.25-3.61c-0.21-.33-1.14-1.9-2.29-1.9a7.16,7.16,0,0,1,1.9-.3,2.11,2.11,0,0,1,2.23,1.11l2.08,3.31c0.17-.33,1.82-3.2,1.82-3.2a2.19,2.19,0,0,0,.33-0.71,0.43,0.43,0,0,0-.23-0.36h2.32A2.86,2.86,0,0,0,202.62,20.72Zm6.05,7.3c0-2.08-4.9-2.55-4.9-5.87,0-2,2-2.73,3.67-2.73a6.79,6.79,0,0,1,2.58.44l0.12,2a3,3,0,0,0-2.52-1.55A1.41,1.41,0,0,0,206,21.63c0,2.16,5,2.69,5,5.83,0,2.29-2,3.23-4,3.23a6.56,6.56,0,0,1-3.38-.8,9.52,9.52,0,0,1-.08-1.12,9.71,9.71,0,0,1,.11-1.34,3.52,3.52,0,0,0,3.14,2.25A1.61,1.61,0,0,0,208.68,28Z"/><path class="cls-4" d="M154.41,30.5a0.58,0.58,0,0,0,.2-0.38,1.2,1.2,0,0,0-.11-0.38l-1-2.73a18.76,18.76,0,0,0-2.06-.08c-0.65,0-1.32,0-2,.08-0.09.24-1.06,2.67-1.06,2.67a2.31,2.31,0,0,0-.17.52,0.36,0.36,0,0,0,.26.3h-2.2a1.77,1.77,0,0,0,.74-0.85l3.61-9.32a0.36,0.36,0,0,0,0-.14,0.75,0.75,0,0,0-.41-0.62h2.84l3.67,10.08a1.73,1.73,0,0,0,.74.85h-3.13Zm-2.85-8.85-1.65,4.25a16.71,16.71,0,0,0,3.19,0Zm6.53,8.85a1.09,1.09,0,0,0,.56-1v-9a1.09,1.09,0,0,0-.56-1h3.37a1.07,1.07,0,0,0-.56,1v9a1.07,1.07,0,0,0,.56,1h-3.37Zm8.47-10a3.54,3.54,0,0,0-.55.06v3.78c0.18,0,.33,0,0.5,0a1.92,1.92,0,0,0,2.14-2C168.65,21,167.75,20.51,166.55,20.51Zm5.78,10a4.59,4.59,0,0,1-1.29-.11c-0.74-.21-1.76-1.9-2.17-2.55-0.64-1.06-1.46-2.55-2.87-2.55v4.16a1.11,1.11,0,0,0,.5,1h-3.26a1.09,1.09,0,0,0,.52-1v-9a1.12,1.12,0,0,0-.52-1h3.95c1.71,0,3.85.67,3.85,2.73a2.69,2.69,0,0,1-2.75,2.61c2.35,0.14,3.78,5.36,6.12,5.36A7.47,7.47,0,0,1,172.34,30.56Zm13.61-9.93-3.31,9.87a1.31,1.31,0,0,1-.7-0.21,8.64,8.64,0,0,1-1-2.12l-1.5-3.78-2.15,6.12h-1l-3.72-9.88a1.9,1.9,0,0,0-.83-1h3.23a0.52,0.52,0,0,0-.23.46,1.25,1.25,0,0,0,.09.38l2.41,6.54,2.58-7.38,2.84,7.1,2.14-6.42a1.07,1.07,0,0,0,.09-0.35,0.4,0.4,0,0,0-.2-0.33h2.14A2,2,0,0,0,185.95,20.63Zm4,1-1.67,4.25a12.7,12.7,0,0,0,1.52.08,12.4,12.4,0,0,0,1.68-.08Zm2.84,8.85a0.47,0.47,0,0,0,.2-0.38,1.55,1.55,0,0,0-.09-0.38l-1-2.73a18.76,18.76,0,0,0-2.06-.08c-0.65,0-1.32,0-2,.08-0.11.24-1,2.67-1,2.67a2,2,0,0,0-.18.52,0.36,0.36,0,0,0,.26.3h-2.2a1.77,1.77,0,0,0,.74-0.85L189,20.33a0.36,0.36,0,0,0,0-.14,0.75,0.75,0,0,0-.41-0.62h2.84l3.67,10.08a1.73,1.73,0,0,0,.74.85h-3.14Zm9.86-9.77L200,25.26v4.25a1.1,1.1,0,0,0,.49,1h-3.22a1.15,1.15,0,0,0,.49-1V25.24l-2.25-3.61c-0.21-.33-1.14-1.9-2.29-1.9a7.16,7.16,0,0,1,1.9-.3,2.11,2.11,0,0,1,2.23,1.11l2.08,3.31c0.17-.33,1.82-3.2,1.82-3.2a2.19,2.19,0,0,0,.33-0.71,0.43,0.43,0,0,0-.23-0.36h2.32A2.86,2.86,0,0,0,202.62,20.72Zm6.05,7.3c0-2.08-4.9-2.55-4.9-5.87,0-2,2-2.73,3.67-2.73a6.79,6.79,0,0,1,2.58.44l0.12,2a3,3,0,0,0-2.52-1.55A1.41,1.41,0,0,0,206,21.63c0,2.16,5,2.69,5,5.83,0,2.29-2,3.23-4,3.23a6.56,6.56,0,0,1-3.38-.8,9.52,9.52,0,0,1-.08-1.12,9.71,9.71,0,0,1,.11-1.34,3.52,3.52,0,0,0,3.14,2.25A1.61,1.61,0,0,0,208.68,28Z"/><polygon class="cls-2" points="71.67 22.73 71.7 22.73 71.8 22.75 71.96 22.79 72.15 22.83 72.37 22.88 72.59 22.94 72.82 23 73.03 23.07 73.55 23.27 73.99 23.45 74.34 23.64 74.61 23.82 74.82 23.97 74.99 24.11 75.13 24.21 75.22 24.3 75.43 24.49 75.6 24.7 75.72 24.89 75.81 25.08 75.87 25.2 75.9 25.3 75.93 25.43 75.95 25.52 75.96 25.55 75.96 25.56 75.96 25.58 75.98 25.62 75.98 25.68 75.98 25.75 75.99 25.81 75.99 25.87 75.99 25.91 75.99 25.96 75.99 26.13 75.96 26.26 75.95 26.37 75.86 26.73 75.7 27.07 75.54 27.37 75.36 27.64 75.17 27.86 75.01 28.04 74.87 28.16 74.63 28.39 74.35 28.6 74.05 28.83 73.72 29.07 73.34 29.33 72.9 29.59 72.4 29.87 71.85 30.18 71.23 30.5 70.41 30.92 69.65 31.3 68.92 31.65 68.27 31.95 67.68 32.23 67.13 32.45 66.66 32.65 66.25 32.8 65.9 32.94 65.63 33.03 65.43 33.11 65.31 33.14 65.28 33.15 65.22 33.15 65.08 33.12 64.82 33.09 64.49 33.05 64.06 32.97 63.55 32.88 62.96 32.77 62.29 32.65 61.55 32.5 60.73 32.33 59.85 32.13 58.89 31.92 57.89 31.68 56.83 31.41 55.7 31.1 54.54 30.78 53.32 30.43 53.37 30.42 53.49 30.37 53.69 30.31 53.94 30.24 54.26 30.15 54.63 30.04 55.02 29.92 55.45 29.78 55.89 29.65 56.33 29.51 56.78 29.37 57.22 29.24 57.65 29.1 58.04 28.96 58.41 28.86 58.8 28.72 59.19 28.6 59.59 28.48 60 28.34 60.41 28.2 60.86 28.05 61.33 27.89 61.87 27.7 62.43 27.49 63.06 27.26 63.75 27 64.28 26.81 64.89 26.58 65.54 26.31 66.23 26.02 66.95 25.7 67.68 25.35 68.41 24.99 69.12 24.61 69.8 24.2 70.44 23.77 71.02 23.33 71.52 22.89 71.67 22.73"/><g class="cls-5"><polygon class="cls-3" points="80.51 25.34 79.69 26.75 58.18 14.32 58.98 12.91 80.51 25.34"/></g><polygon class="cls-2" points="71.67 22.73 71.7 22.73 71.8 22.75 71.96 22.79 72.15 22.83 72.37 22.88 72.59 22.94 72.82 23 73.03 23.07 73.55 23.27 73.99 23.45 74.34 23.64 74.61 23.82 74.82 23.97 74.99 24.11 75.13 24.21 75.22 24.3 75.43 24.49 75.6 24.7 75.72 24.89 75.81 25.08 75.87 25.2 75.9 25.3 75.93 25.43 75.95 25.52 75.96 25.55 75.96 25.56 75.96 25.58 75.98 25.62 75.98 25.68 75.98 25.75 75.99 25.81 75.99 25.87 75.99 25.91 75.99 25.96 75.99 26.13 75.96 26.26 75.95 26.37 75.86 26.73 75.7 27.07 75.54 27.37 75.36 27.64 75.17 27.86 75.01 28.04 74.87 28.16 74.63 28.39 74.35 28.6 74.05 28.83 73.72 29.07 73.34 29.33 72.9 29.59 72.4 29.87 71.85 30.18 71.23 30.5 70.41 30.92 69.65 31.3 68.92 31.65 68.27 31.95 67.68 32.23 67.13 32.45 66.66 32.65 66.25 32.8 65.9 32.94 65.63 33.03 65.43 33.11 65.31 33.14 65.28 33.15 65.22 33.15 65.08 33.12 64.82 33.09 64.49 33.05 64.06 32.97 63.55 32.88 62.96 32.77 62.29 32.65 61.55 32.5 60.73 32.33 59.85 32.13 58.89 31.92 57.89 31.68 56.83 31.41 55.7 31.1 54.54 30.78 53.32 30.43 53.37 30.42 53.49 30.37 53.69 30.31 53.94 30.24 54.26 30.15 54.63 30.04 55.02 29.92 55.45 29.78 55.89 29.65 56.33 29.51 56.78 29.37 57.22 29.24 57.65 29.1 58.04 28.96 58.41 28.86 58.8 28.72 59.19 28.6 59.59 28.48 60 28.34 60.41 28.2 60.86 28.05 61.33 27.89 61.87 27.7 62.43 27.49 63.06 27.26 63.75 27 64.28 26.81 64.89 26.58 65.54 26.31 66.23 26.02 66.95 25.7 67.68 25.35 68.41 24.99 69.12 24.61 69.8 24.2 70.44 23.77 71.02 23.33 71.52 22.89 71.67 22.73"/><g class="cls-5"><polygon class="cls-6" points="80.51 25.34 79.69 26.75 58.18 14.32 58.98 12.91 80.51 25.34"/></g><polygon class="cls-2" points="71.67 22.73 71.7 22.73 71.8 22.75 71.96 22.79 72.15 22.83 72.37 22.88 72.59 22.94 72.82 23 73.03 23.07 73.55 23.27 73.99 23.45 74.34 23.64 74.61 23.82 74.82 23.97 74.99 24.11 75.13 24.21 75.22 24.3 75.43 24.49 75.6 24.7 75.72 24.89 75.81 25.08 75.87 25.2 75.9 25.3 75.93 25.43 75.95 25.52 75.96 25.55 75.96 25.56 75.96 25.58 75.98 25.62 75.98 25.68 75.98 25.75 75.99 25.81 75.99 25.87 75.99 25.91 75.99 25.96 75.99 26.13 75.96 26.26 75.95 26.37 75.86 26.73 75.7 27.07 75.54 27.37 75.36 27.64 75.17 27.86 75.01 28.04 74.87 28.16 74.63 28.39 74.35 28.6 74.05 28.83 73.72 29.07 73.34 29.33 72.9 29.59 72.4 29.87 71.85 30.18 71.23 30.5 70.41 30.92 69.65 31.3 68.92 31.65 68.27 31.95 67.68 32.23 67.13 32.45 66.66 32.65 66.25 32.8 65.9 32.94 65.63 33.03 65.43 33.11 65.31 33.14 65.28 33.15 65.22 33.15 65.08 33.12 64.82 33.09 64.49 33.05 64.06 32.97 63.55 32.88 62.96 32.77 62.29 32.65 61.55 32.5 60.73 32.33 59.85 32.13 58.89 31.92 57.89 31.68 56.83 31.41 55.7 31.1 54.54 30.78 53.32 30.43 53.37 30.42 53.49 30.37 53.69 30.31 53.94 30.24 54.26 30.15 54.63 30.04 55.02 29.92 55.45 29.78 55.89 29.65 56.33 29.51 56.78 29.37 57.22 29.24 57.65 29.1 58.04 28.96 58.41 28.86 58.8 28.72 59.19 28.6 59.59 28.48 60 28.34 60.41 28.2 60.86 28.05 61.33 27.89 61.87 27.7 62.43 27.49 63.06 27.26 63.75 27 64.28 26.81 64.89 26.58 65.54 26.31 66.23 26.02 66.95 25.7 67.68 25.35 68.41 24.99 69.12 24.61 69.8 24.2 70.44 23.77 71.02 23.33 71.52 22.89 71.67 22.73"/><g class="cls-5"><polygon class="cls-3" points="79.69 26.75 79.15 27.69 57.63 15.26 58.18 14.32 79.69 26.75"/></g><polygon class="cls-2" points="71.67 22.73 71.7 22.73 71.8 22.75 71.96 22.79 72.15 22.83 72.37 22.88 72.59 22.94 72.82 23 73.03 23.07 73.55 23.27 73.99 23.45 74.34 23.64 74.61 23.82 74.82 23.97 74.99 24.11 75.13 24.21 75.22 24.3 75.43 24.49 75.6 24.7 75.72 24.89 75.81 25.08 75.87 25.2 75.9 25.3 75.93 25.43 75.95 25.52 75.96 25.55 75.96 25.56 75.96 25.58 75.98 25.62 75.98 25.68 75.98 25.75 75.99 25.81 75.99 25.87 75.99 25.91 75.99 25.96 75.99 26.13 75.96 26.26 75.95 26.37 75.86 26.73 75.7 27.07 75.54 27.37 75.36 27.64 75.17 27.86 75.01 28.04 74.87 28.16 74.63 28.39 74.35 28.6 74.05 28.83 73.72 29.07 73.34 29.33 72.9 29.59 72.4 29.87 71.85 30.18 71.23 30.5 70.41 30.92 69.65 31.3 68.92 31.65 68.27 31.95 67.68 32.23 67.13 32.45 66.66 32.65 66.25 32.8 65.9 32.94 65.63 33.03 65.43 33.11 65.31 33.14 65.28 33.15 65.22 33.15 65.08 33.12 64.82 33.09 64.49 33.05 64.06 32.97 63.55 32.88 62.96 32.77 62.29 32.65 61.55 32.5 60.73 32.33 59.85 32.13 58.89 31.92 57.89 31.68 56.83 31.41 55.7 31.1 54.54 30.78 53.32 30.43 53.37 30.42 53.49 30.37 53.69 30.31 53.94 30.24 54.26 30.15 54.63 30.04 55.02 29.92 55.45 29.78 55.89 29.65 56.33 29.51 56.78 29.37 57.22 29.24 57.65 29.1 58.04 28.96 58.41 28.86 58.8 28.72 59.19 28.6 59.59 28.48 60 28.34 60.41 28.2 60.86 28.05 61.33 27.89 61.87 27.7 62.43 27.49 63.06 27.26 63.75 27 64.28 26.81 64.89 26.58 65.54 26.31 66.23 26.02 66.95 25.7 67.68 25.35 68.41 24.99 69.12 24.61 69.8 24.2 70.44 23.77 71.02 23.33 71.52 22.89 71.67 22.73"/><g class="cls-5"><polygon class="cls-6" points="79.69 26.75 79.15 27.69 57.63 15.26 58.18 14.32 79.69 26.75"/></g><polygon class="cls-2" points="71.67 22.73 71.7 22.73 71.8 22.75 71.96 22.79 72.15 22.83 72.37 22.88 72.59 22.94 72.82 23 73.03 23.07 73.55 23.27 73.99 23.45 74.34 23.64 74.61 23.82 74.82 23.97 74.99 24.11 75.13 24.21 75.22 24.3 75.43 24.49 75.6 24.7 75.72 24.89 75.81 25.08 75.87 25.2 75.9 25.3 75.93 25.43 75.95 25.52 75.96 25.55 75.96 25.56 75.96 25.58 75.98 25.62 75.98 25.68 75.98 25.75 75.99 25.81 75.99 25.87 75.99 25.91 75.99 25.96 75.99 26.13 75.96 26.26 75.95 26.37 75.86 26.73 75.7 27.07 75.54 27.37 75.36 27.64 75.17 27.86 75.01 28.04 74.87 28.16 74.63 28.39 74.35 28.6 74.05 28.83 73.72 29.07 73.34 29.33 72.9 29.59 72.4 29.87 71.85 30.18 71.23 30.5 70.41 30.92 69.65 31.3 68.92 31.65 68.27 31.95 67.68 32.23 67.13 32.45 66.66 32.65 66.25 32.8 65.9 32.94 65.63 33.03 65.43 33.11 65.31 33.14 65.28 33.15 65.22 33.15 65.08 33.12 64.82 33.09 64.49 33.05 64.06 32.97 63.55 32.88 62.96 32.77 62.29 32.65 61.55 32.5 60.73 32.33 59.85 32.13 58.89 31.92 57.89 31.68 56.83 31.41 55.7 31.1 54.54 30.78 53.32 30.43 53.37 30.42 53.49 30.37 53.69 30.31 53.94 30.24 54.26 30.15 54.63 30.04 55.02 29.92 55.45 29.78 55.89 29.65 56.33 29.51 56.78 29.37 57.22 29.24 57.65 29.1 58.04 28.96 58.41 28.86 58.8 28.72 59.19 28.6 59.59 28.48 60 28.34 60.41 28.2 60.86 28.05 61.33 27.89 61.87 27.7 62.43 27.49 63.06 27.26 63.75 27 64.28 26.81 64.89 26.58 65.54 26.31 66.23 26.02 66.95 25.7 67.68 25.35 68.41 24.99 69.12 24.61 69.8 24.2 70.44 23.77 71.02 23.33 71.52 22.89 71.67 22.73"/><g class="cls-5"><polygon class="cls-3" points="79.15 27.69 78.6 28.63 57.09 16.2 57.63 15.26 79.15 27.69"/></g><polygon class="cls-2" points="71.67 22.73 71.7 22.73 71.8 22.75 71.96 22.79 72.15 22.83 72.37 22.88 72.59 22.94 72.82 23 73.03 23.07 73.55 23.27 73.99 23.45 74.34 23.64 74.61 23.82 74.82 23.97 74.99 24.11 75.13 24.21 75.22 24.3 75.43 24.49 75.6 24.7 75.72 24.89 75.81 25.08 75.87 25.2 75.9 25.3 75.93 25.43 75.95 25.52 75.96 25.55 75.96 25.56 75.96 25.58 75.98 25.62 75.98 25.68 75.98 25.75 75.99 25.81 75.99 25.87 75.99 25.91 75.99 25.96 75.99 26.13 75.96 26.26 75.95 26.37 75.86 26.73 75.7 27.07 75.54 27.37 75.36 27.64 75.17 27.86 75.01 28.04 74.87 28.16 74.63 28.39 74.35 28.6 74.05 28.83 73.72 29.07 73.34 29.33 72.9 29.59 72.4 29.87 71.85 30.18 71.23 30.5 70.41 30.92 69.65 31.3 68.92 31.65 68.27 31.95 67.68 32.23 67.13 32.45 66.66 32.65 66.25 32.8 65.9 32.94 65.63 33.03 65.43 33.11 65.31 33.14 65.28 33.15 65.22 33.15 65.08 33.12 64.82 33.09 64.49 33.05 64.06 32.97 63.55 32.88 62.96 32.77 62.29 32.65 61.55 32.5 60.73 32.33 59.85 32.13 58.89 31.92 57.89 31.68 56.83 31.41 55.7 31.1 54.54 30.78 53.32 30.43 53.37 30.42 53.49 30.37 53.69 30.31 53.94 30.24 54.26 30.15 54.63 30.04 55.02 29.92 55.45 29.78 55.89 29.65 56.33 29.51 56.78 29.37 57.22 29.24 57.65 29.1 58.04 28.96 58.41 28.86 58.8 28.72 59.19 28.6 59.59 28.48 60 28.34 60.41 28.2 60.86 28.05 61.33 27.89 61.87 27.7 62.43 27.49 63.06 27.26 63.75 27 64.28 26.81 64.89 26.58 65.54 26.31 66.23 26.02 66.95 25.7 67.68 25.35 68.41 24.99 69.12 24.61 69.8 24.2 70.44 23.77 71.02 23.33 71.52 22.89 71.67 22.73"/><g class="cls-5"><polygon class="cls-7" points="79.15 27.69 78.6 28.63 57.09 16.2 57.63 15.26 79.15 27.69"/></g><polygon class="cls-2" points="71.67 22.73 71.7 22.73 71.8 22.75 71.96 22.79 72.15 22.83 72.37 22.88 72.59 22.94 72.82 23 73.03 23.07 73.55 23.27 73.99 23.45 74.34 23.64 74.61 23.82 74.82 23.97 74.99 24.11 75.13 24.21 75.22 24.3 75.43 24.49 75.6 24.7 75.72 24.89 75.81 25.08 75.87 25.2 75.9 25.3 75.93 25.43 75.95 25.52 75.96 25.55 75.96 25.56 75.96 25.58 75.98 25.62 75.98 25.68 75.98 25.75 75.99 25.81 75.99 25.87 75.99 25.91 75.99 25.96 75.99 26.13 75.96 26.26 75.95 26.37 75.86 26.73 75.7 27.07 75.54 27.37 75.36 27.64 75.17 27.86 75.01 28.04 74.87 28.16 74.63 28.39 74.35 28.6 74.05 28.83 73.72 29.07 73.34 29.33 72.9 29.59 72.4 29.87 71.85 30.18 71.23 30.5 70.41 30.92 69.65 31.3 68.92 31.65 68.27 31.95 67.68 32.23 67.13 32.45 66.66 32.65 66.25 32.8 65.9 32.94 65.63 33.03 65.43 33.11 65.31 33.14 65.28 33.15 65.22 33.15 65.08 33.12 64.82 33.09 64.49 33.05 64.06 32.97 63.55 32.88 62.96 32.77 62.29 32.65 61.55 32.5 60.73 32.33 59.85 32.13 58.89 31.92 57.89 31.68 56.83 31.41 55.7 31.1 54.54 30.78 53.32 30.43 53.37 30.42 53.49 30.37 53.69 30.31 53.94 30.24 54.26 30.15 54.63 30.04 55.02 29.92 55.45 29.78 55.89 29.65 56.33 29.51 56.78 29.37 57.22 29.24 57.65 29.1 58.04 28.96 58.41 28.86 58.8 28.72 59.19 28.6 59.59 28.48 60 28.34 60.41 28.2 60.86 28.05 61.33 27.89 61.87 27.7 62.43 27.49 63.06 27.26 63.75 27 64.28 26.81 64.89 26.58 65.54 26.31 66.23 26.02 66.95 25.7 67.68 25.35 68.41 24.99 69.12 24.61 69.8 24.2 70.44 23.77 71.02 23.33 71.52 22.89 71.67 22.73"/><g class="cls-5"><polygon class="cls-3" points="78.6 28.63 78.06 29.59 56.54 17.16 57.09 16.2 78.6 28.63"/></g><polygon class="cls-2" points="71.67 22.73 71.7 22.73 71.8 22.75 71.96 22.79 72.15 22.83 72.37 22.88 72.59 22.94 72.82 23 73.03 23.07 73.55 23.27 73.99 23.45 74.34 23.64 74.61 23.82 74.82 23.97 74.99 24.11 75.13 24.21 75.22 24.3 75.43 24.49 75.6 24.7 75.72 24.89 75.81 25.08 75.87 25.2 75.9 25.3 75.93 25.43 75.95 25.52 75.96 25.55 75.96 25.56 75.96 25.58 75.98 25.62 75.98 25.68 75.98 25.75 75.99 25.81 75.99 25.87 75.99 25.91 75.99 25.96 75.99 26.13 75.96 26.26 75.95 26.37 75.86 26.73 75.7 27.07 75.54 27.37 75.36 27.64 75.17 27.86 75.01 28.04 74.87 28.16 74.63 28.39 74.35 28.6 74.05 28.83 73.72 29.07 73.34 29.33 72.9 29.59 72.4 29.87 71.85 30.18 71.23 30.5 70.41 30.92 69.65 31.3 68.92 31.65 68.27 31.95 67.68 32.23 67.13 32.45 66.66 32.65 66.25 32.8 65.9 32.94 65.63 33.03 65.43 33.11 65.31 33.14 65.28 33.15 65.22 33.15 65.08 33.12 64.82 33.09 64.49 33.05 64.06 32.97 63.55 32.88 62.96 32.77 62.29 32.65 61.55 32.5 60.73 32.33 59.85 32.13 58.89 31.92 57.89 31.68 56.83 31.41 55.7 31.1 54.54 30.78 53.32 30.43 53.37 30.42 53.49 30.37 53.69 30.31 53.94 30.24 54.26 30.15 54.63 30.04 55.02 29.92 55.45 29.78 55.89 29.65 56.33 29.51 56.78 29.37 57.22 29.24 57.65 29.1 58.04 28.96 58.41 28.86 58.8 28.72 59.19 28.6 59.59 28.48 60 28.34 60.41 28.2 60.86 28.05 61.33 27.89 61.87 27.7 62.43 27.49 63.06 27.26 63.75 27 64.28 26.81 64.89 26.58 65.54 26.31 66.23 26.02 66.95 25.7 67.68 25.35 68.41 24.99 69.12 24.61 69.8 24.2 70.44 23.77 71.02 23.33 71.52 22.89 71.67 22.73"/><g class="cls-5"><polygon class="cls-8" points="78.6 28.63 78.06 29.59 56.54 17.16 57.09 16.2 78.6 28.63"/></g><polygon class="cls-2" points="71.67 22.73 71.7 22.73 71.8 22.75 71.96 22.79 72.15 22.83 72.37 22.88 72.59 22.94 72.82 23 73.03 23.07 73.55 23.27 73.99 23.45 74.34 23.64 74.61 23.82 74.82 23.97 74.99 24.11 75.13 24.21 75.22 24.3 75.43 24.49 75.6 24.7 75.72 24.89 75.81 25.08 75.87 25.2 75.9 25.3 75.93 25.43 75.95 25.52 75.96 25.55 75.96 25.56 75.96 25.58 75.98 25.62 75.98 25.68 75.98 25.75 75.99 25.81 75.99 25.87 75.99 25.91 75.99 25.96 75.99 26.13 75.96 26.26 75.95 26.37 75.86 26.73 75.7 27.07 75.54 27.37 75.36 27.64 75.17 27.86 75.01 28.04 74.87 28.16 74.63 28.39 74.35 28.6 74.05 28.83 73.72 29.07 73.34 29.33 72.9 29.59 72.4 29.87 71.85 30.18 71.23 30.5 70.41 30.92 69.65 31.3 68.92 31.65 68.27 31.95 67.68 32.23 67.13 32.45 66.66 32.65 66.25 32.8 65.9 32.94 65.63 33.03 65.43 33.11 65.31 33.14 65.28 33.15 65.22 33.15 65.08 33.12 64.82 33.09 64.49 33.05 64.06 32.97 63.55 32.88 62.96 32.77 62.29 32.65 61.55 32.5 60.73 32.33 59.85 32.13 58.89 31.92 57.89 31.68 56.83 31.41 55.7 31.1 54.54 30.78 53.32 30.43 53.37 30.42 53.49 30.37 53.69 30.31 53.94 30.24 54.26 30.15 54.63 30.04 55.02 29.92 55.45 29.78 55.89 29.65 56.33 29.51 56.78 29.37 57.22 29.24 57.65 29.1 58.04 28.96 58.41 28.86 58.8 28.72 59.19 28.6 59.59 28.48 60 28.34 60.41 28.2 60.86 28.05 61.33 27.89 61.87 27.7 62.43 27.49 63.06 27.26 63.75 27 64.28 26.81 64.89 26.58 65.54 26.31 66.23 26.02 66.95 25.7 67.68 25.35 68.41 24.99 69.12 24.61 69.8 24.2 70.44 23.77 71.02 23.33 71.52 22.89 71.67 22.73"/><g class="cls-5"><polygon class="cls-3" points="78.06 29.59 77.51 30.53 55.99 18.1 56.54 17.16 78.06 29.59"/></g><polygon class="cls-2" points="71.67 22.73 71.7 22.73 71.8 22.75 71.96 22.79 72.15 22.83 72.37 22.88 72.59 22.94 72.82 23 73.03 23.07 73.55 23.27 73.99 23.45 74.34 23.64 74.61 23.82 74.82 23.97 74.99 24.11 75.13 24.21 75.22 24.3 75.43 24.49 75.6 24.7 75.72 24.89 75.81 25.08 75.87 25.2 75.9 25.3 75.93 25.43 75.95 25.52 75.96 25.55 75.96 25.56 75.96 25.58 75.98 25.62 75.98 25.68 75.98 25.75 75.99 25.81 75.99 25.87 75.99 25.91 75.99 25.96 75.99 26.13 75.96 26.26 75.95 26.37 75.86 26.73 75.7 27.07 75.54 27.37 75.36 27.64 75.17 27.86 75.01 28.04 74.87 28.16 74.63 28.39 74.35 28.6 74.05 28.83 73.72 29.07 73.34 29.33 72.9 29.59 72.4 29.87 71.85 30.18 71.23 30.5 70.41 30.92 69.65 31.3 68.92 31.65 68.27 31.95 67.68 32.23 67.13 32.45 66.66 32.65 66.25 32.8 65.9 32.94 65.63 33.03 65.43 33.11 65.31 33.14 65.28 33.15 65.22 33.15 65.08 33.12 64.82 33.09 64.49 33.05 64.06 32.97 63.55 32.88 62.96 32.77 62.29 32.65 61.55 32.5 60.73 32.33 59.85 32.13 58.89 31.92 57.89 31.68 56.83 31.41 55.7 31.1 54.54 30.78 53.32 30.43 53.37 30.42 53.49 30.37 53.69 30.31 53.94 30.24 54.26 30.15 54.63 30.04 55.02 29.92 55.45 29.78 55.89 29.65 56.33 29.51 56.78 29.37 57.22 29.24 57.65 29.1 58.04 28.96 58.41 28.86 58.8 28.72 59.19 28.6 59.59 28.48 60 28.34 60.41 28.2 60.86 28.05 61.33 27.89 61.87 27.7 62.43 27.49 63.06 27.26 63.75 27 64.28 26.81 64.89 26.58 65.54 26.31 66.23 26.02 66.95 25.7 67.68 25.35 68.41 24.99 69.12 24.61 69.8 24.2 70.44 23.77 71.02 23.33 71.52 22.89 71.67 22.73"/><g class="cls-5"><polygon class="cls-9" points="78.06 29.59 77.51 30.53 55.99 18.1 56.54 17.16 78.06 29.59"/></g><polygon class="cls-2" points="71.67 22.73 71.7 22.73 71.8 22.75 71.96 22.79 72.15 22.83 72.37 22.88 72.59 22.94 72.82 23 73.03 23.07 73.55 23.27 73.99 23.45 74.34 23.64 74.61 23.82 74.82 23.97 74.99 24.11 75.13 24.21 75.22 24.3 75.43 24.49 75.6 24.7 75.72 24.89 75.81 25.08 75.87 25.2 75.9 25.3 75.93 25.43 75.95 25.52 75.96 25.55 75.96 25.56 75.96 25.58 75.98 25.62 75.98 25.68 75.98 25.75 75.99 25.81 75.99 25.87 75.99 25.91 75.99 25.96 75.99 26.13 75.96 26.26 75.95 26.37 75.86 26.73 75.7 27.07 75.54 27.37 75.36 27.64 75.17 27.86 75.01 28.04 74.87 28.16 74.63 28.39 74.35 28.6 74.05 28.83 73.72 29.07 73.34 29.33 72.9 29.59 72.4 29.87 71.85 30.18 71.23 30.5 70.41 30.92 69.65 31.3 68.92 31.65 68.27 31.95 67.68 32.23 67.13 32.45 66.66 32.65 66.25 32.8 65.9 32.94 65.63 33.03 65.43 33.11 65.31 33.14 65.28 33.15 65.22 33.15 65.08 33.12 64.82 33.09 64.49 33.05 64.06 32.97 63.55 32.88 62.96 32.77 62.29 32.65 61.55 32.5 60.73 32.33 59.85 32.13 58.89 31.92 57.89 31.68 56.83 31.41 55.7 31.1 54.54 30.78 53.32 30.43 53.37 30.42 53.49 30.37 53.69 30.31 53.94 30.24 54.26 30.15 54.63 30.04 55.02 29.92 55.45 29.78 55.89 29.65 56.33 29.51 56.78 29.37 57.22 29.24 57.65 29.1 58.04 28.96 58.41 28.86 58.8 28.72 59.19 28.6 59.59 28.48 60 28.34 60.41 28.2 60.86 28.05 61.33 27.89 61.87 27.7 62.43 27.49 63.06 27.26 63.75 27 64.28 26.81 64.89 26.58 65.54 26.31 66.23 26.02 66.95 25.7 67.68 25.35 68.41 24.99 69.12 24.61 69.8 24.2 70.44 23.77 71.02 23.33 71.52 22.89 71.67 22.73"/><g class="cls-5"><polygon class="cls-3" points="77.51 30.53 76.96 31.47 55.45 19.04 55.99 18.1 77.51 30.53"/></g><polygon class="cls-2" points="71.67 22.73 71.7 22.73 71.8 22.75 71.96 22.79 72.15 22.83 72.37 22.88 72.59 22.94 72.82 23 73.03 23.07 73.55 23.27 73.99 23.45 74.34 23.64 74.61 23.82 74.82 23.97 74.99 24.11 75.13 24.21 75.22 24.3 75.43 24.49 75.6 24.7 75.72 24.89 75.81 25.08 75.87 25.2 75.9 25.3 75.93 25.43 75.95 25.52 75.96 25.55 75.96 25.56 75.96 25.58 75.98 25.62 75.98 25.68 75.98 25.75 75.99 25.81 75.99 25.87 75.99 25.91 75.99 25.96 75.99 26.13 75.96 26.26 75.95 26.37 75.86 26.73 75.7 27.07 75.54 27.37 75.36 27.64 75.17 27.86 75.01 28.04 74.87 28.16 74.63 28.39 74.35 28.6 74.05 28.83 73.72 29.07 73.34 29.33 72.9 29.59 72.4 29.87 71.85 30.18 71.23 30.5 70.41 30.92 69.65 31.3 68.92 31.65 68.27 31.95 67.68 32.23 67.13 32.45 66.66 32.65 66.25 32.8 65.9 32.94 65.63 33.03 65.43 33.11 65.31 33.14 65.28 33.15 65.22 33.15 65.08 33.12 64.82 33.09 64.49 33.05 64.06 32.97 63.55 32.88 62.96 32.77 62.29 32.65 61.55 32.5 60.73 32.33 59.85 32.13 58.89 31.92 57.89 31.68 56.83 31.41 55.7 31.1 54.54 30.78 53.32 30.43 53.37 30.42 53.49 30.37 53.69 30.31 53.94 30.24 54.26 30.15 54.63 30.04 55.02 29.92 55.45 29.78 55.89 29.65 56.33 29.51 56.78 29.37 57.22 29.24 57.65 29.1 58.04 28.96 58.41 28.86 58.8 28.72 59.19 28.6 59.59 28.48 60 28.34 60.41 28.2 60.86 28.05 61.33 27.89 61.87 27.7 62.43 27.49 63.06 27.26 63.75 27 64.28 26.81 64.89 26.58 65.54 26.31 66.23 26.02 66.95 25.7 67.68 25.35 68.41 24.99 69.12 24.61 69.8 24.2 70.44 23.77 71.02 23.33 71.52 22.89 71.67 22.73"/><g class="cls-5"><polygon class="cls-10" points="77.51 30.53 76.96 31.47 55.45 19.04 55.99 18.1 77.51 30.53"/></g><polygon class="cls-2" points="71.67 22.73 71.7 22.73 71.8 22.75 71.96 22.79 72.15 22.83 72.37 22.88 72.59 22.94 72.82 23 73.03 23.07 73.55 23.27 73.99 23.45 74.34 23.64 74.61 23.82 74.82 23.97 74.99 24.11 75.13 24.21 75.22 24.3 75.43 24.49 75.6 24.7 75.72 24.89 75.81 25.08 75.87 25.2 75.9 25.3 75.93 25.43 75.95 25.52 75.96 25.55 75.96 25.56 75.96 25.58 75.98 25.62 75.98 25.68 75.98 25.75 75.99 25.81 75.99 25.87 75.99 25.91 75.99 25.96 75.99 26.13 75.96 26.26 75.95 26.37 75.86 26.73 75.7 27.07 75.54 27.37 75.36 27.64 75.17 27.86 75.01 28.04 74.87 28.16 74.63 28.39 74.35 28.6 74.05 28.83 73.72 29.07 73.34 29.33 72.9 29.59 72.4 29.87 71.85 30.18 71.23 30.5 70.41 30.92 69.65 31.3 68.92 31.65 68.27 31.95 67.68 32.23 67.13 32.45 66.66 32.65 66.25 32.8 65.9 32.94 65.63 33.03 65.43 33.11 65.31 33.14 65.28 33.15 65.22 33.15 65.08 33.12 64.82 33.09 64.49 33.05 64.06 32.97 63.55 32.88 62.96 32.77 62.29 32.65 61.55 32.5 60.73 32.33 59.85 32.13 58.89 31.92 57.89 31.68 56.83 31.41 55.7 31.1 54.54 30.78 53.32 30.43 53.37 30.42 53.49 30.37 53.69 30.31 53.94 30.24 54.26 30.15 54.63 30.04 55.02 29.92 55.45 29.78 55.89 29.65 56.33 29.51 56.78 29.37 57.22 29.24 57.65 29.1 58.04 28.96 58.41 28.86 58.8 28.72 59.19 28.6 59.59 28.48 60 28.34 60.41 28.2 60.86 28.05 61.33 27.89 61.87 27.7 62.43 27.49 63.06 27.26 63.75 27 64.28 26.81 64.89 26.58 65.54 26.31 66.23 26.02 66.95 25.7 67.68 25.35 68.41 24.99 69.12 24.61 69.8 24.2 70.44 23.77 71.02 23.33 71.52 22.89 71.67 22.73"/><g class="cls-5"><polygon class="cls-3" points="76.96 31.47 76.42 32.42 54.9 19.99 55.45 19.04 76.96 31.47"/></g><polygon class="cls-2" points="71.67 22.73 71.7 22.73 71.8 22.75 71.96 22.79 72.15 22.83 72.37 22.88 72.59 22.94 72.82 23 73.03 23.07 73.55 23.27 73.99 23.45 74.34 23.64 74.61 23.82 74.82 23.97 74.99 24.11 75.13 24.21 75.22 24.3 75.43 24.49 75.6 24.7 75.72 24.89 75.81 25.08 75.87 25.2 75.9 25.3 75.93 25.43 75.95 25.52 75.96 25.55 75.96 25.56 75.96 25.58 75.98 25.62 75.98 25.68 75.98 25.75 75.99 25.81 75.99 25.87 75.99 25.91 75.99 25.96 75.99 26.13 75.96 26.26 75.95 26.37 75.86 26.73 75.7 27.07 75.54 27.37 75.36 27.64 75.17 27.86 75.01 28.04 74.87 28.16 74.63 28.39 74.35 28.6 74.05 28.83 73.72 29.07 73.34 29.33 72.9 29.59 72.4 29.87 71.85 30.18 71.23 30.5 70.41 30.92 69.65 31.3 68.92 31.65 68.27 31.95 67.68 32.23 67.13 32.45 66.66 32.65 66.25 32.8 65.9 32.94 65.63 33.03 65.43 33.11 65.31 33.14 65.28 33.15 65.22 33.15 65.08 33.12 64.82 33.09 64.49 33.05 64.06 32.97 63.55 32.88 62.96 32.77 62.29 32.65 61.55 32.5 60.73 32.33 59.85 32.13 58.89 31.92 57.89 31.68 56.83 31.41 55.7 31.1 54.54 30.78 53.32 30.43 53.37 30.42 53.49 30.37 53.69 30.31 53.94 30.24 54.26 30.15 54.63 30.04 55.02 29.92 55.45 29.78 55.89 29.65 56.33 29.51 56.78 29.37 57.22 29.24 57.65 29.1 58.04 28.96 58.41 28.86 58.8 28.72 59.19 28.6 59.59 28.48 60 28.34 60.41 28.2 60.86 28.05 61.33 27.89 61.87 27.7 62.43 27.49 63.06 27.26 63.75 27 64.28 26.81 64.89 26.58 65.54 26.31 66.23 26.02 66.95 25.7 67.68 25.35 68.41 24.99 69.12 24.61 69.8 24.2 70.44 23.77 71.02 23.33 71.52 22.89 71.67 22.73"/><g class="cls-5"><polygon class="cls-11" points="76.96 31.47 76.42 32.42 54.9 19.99 55.45 19.04 76.96 31.47"/></g><polygon class="cls-2" points="71.67 22.73 71.7 22.73 71.8 22.75 71.96 22.79 72.15 22.83 72.37 22.88 72.59 22.94 72.82 23 73.03 23.07 73.55 23.27 73.99 23.45 74.34 23.64 74.61 23.82 74.82 23.97 74.99 24.11 75.13 24.21 75.22 24.3 75.43 24.49 75.6 24.7 75.72 24.89 75.81 25.08 75.87 25.2 75.9 25.3 75.93 25.43 75.95 25.52 75.96 25.55 75.96 25.56 75.96 25.58 75.98 25.62 75.98 25.68 75.98 25.75 75.99 25.81 75.99 25.87 75.99 25.91 75.99 25.96 75.99 26.13 75.96 26.26 75.95 26.37 75.86 26.73 75.7 27.07 75.54 27.37 75.36 27.64 75.17 27.86 75.01 28.04 74.87 28.16 74.63 28.39 74.35 28.6 74.05 28.83 73.72 29.07 73.34 29.33 72.9 29.59 72.4 29.87 71.85 30.18 71.23 30.5 70.41 30.92 69.65 31.3 68.92 31.65 68.27 31.95 67.68 32.23 67.13 32.45 66.66 32.65 66.25 32.8 65.9 32.94 65.63 33.03 65.43 33.11 65.31 33.14 65.28 33.15 65.22 33.15 65.08 33.12 64.82 33.09 64.49 33.05 64.06 32.97 63.55 32.88 62.96 32.77 62.29 32.65 61.55 32.5 60.73 32.33 59.85 32.13 58.89 31.92 57.89 31.68 56.83 31.41 55.7 31.1 54.54 30.78 53.32 30.43 53.37 30.42 53.49 30.37 53.69 30.31 53.94 30.24 54.26 30.15 54.63 30.04 55.02 29.92 55.45 29.78 55.89 29.65 56.33 29.51 56.78 29.37 57.22 29.24 57.65 29.1 58.04 28.96 58.41 28.86 58.8 28.72 59.19 28.6 59.59 28.48 60 28.34 60.41 28.2 60.86 28.05 61.33 27.89 61.87 27.7 62.43 27.49 63.06 27.26 63.75 27 64.28 26.81 64.89 26.58 65.54 26.31 66.23 26.02 66.95 25.7 67.68 25.35 68.41 24.99 69.12 24.61 69.8 24.2 70.44 23.77 71.02 23.33 71.52 22.89 71.67 22.73"/><g class="cls-5"><polygon class="cls-3" points="76.42 32.42 75.87 33.36 54.35 20.93 54.9 19.99 76.42 32.42"/></g><polygon class="cls-2" points="71.67 22.73 71.7 22.73 71.8 22.75 71.96 22.79 72.15 22.83 72.37 22.88 72.59 22.94 72.82 23 73.03 23.07 73.55 23.27 73.99 23.45 74.34 23.64 74.61 23.82 74.82 23.97 74.99 24.11 75.13 24.21 75.22 24.3 75.43 24.49 75.6 24.7 75.72 24.89 75.81 25.08 75.87 25.2 75.9 25.3 75.93 25.43 75.95 25.52 75.96 25.55 75.96 25.56 75.96 25.58 75.98 25.62 75.98 25.68 75.98 25.75 75.99 25.81 75.99 25.87 75.99 25.91 75.99 25.96 75.99 26.13 75.96 26.26 75.95 26.37 75.86 26.73 75.7 27.07 75.54 27.37 75.36 27.64 75.17 27.86 75.01 28.04 74.87 28.16 74.63 28.39 74.35 28.6 74.05 28.83 73.72 29.07 73.34 29.33 72.9 29.59 72.4 29.87 71.85 30.18 71.23 30.5 70.41 30.92 69.65 31.3 68.92 31.65 68.27 31.95 67.68 32.23 67.13 32.45 66.66 32.65 66.25 32.8 65.9 32.94 65.63 33.03 65.43 33.11 65.31 33.14 65.28 33.15 65.22 33.15 65.08 33.12 64.82 33.09 64.49 33.05 64.06 32.97 63.55 32.88 62.96 32.77 62.29 32.65 61.55 32.5 60.73 32.33 59.85 32.13 58.89 31.92 57.89 31.68 56.83 31.41 55.7 31.1 54.54 30.78 53.32 30.43 53.37 30.42 53.49 30.37 53.69 30.31 53.94 30.24 54.26 30.15 54.63 30.04 55.02 29.92 55.45 29.78 55.89 29.65 56.33 29.51 56.78 29.37 57.22 29.24 57.65 29.1 58.04 28.96 58.41 28.86 58.8 28.72 59.19 28.6 59.59 28.48 60 28.34 60.41 28.2 60.86 28.05 61.33 27.89 61.87 27.7 62.43 27.49 63.06 27.26 63.75 27 64.28 26.81 64.89 26.58 65.54 26.31 66.23 26.02 66.95 25.7 67.68 25.35 68.41 24.99 69.12 24.61 69.8 24.2 70.44 23.77 71.02 23.33 71.52 22.89 71.67 22.73"/><g class="cls-5"><polygon class="cls-12" points="76.42 32.42 75.87 33.36 54.35 20.93 54.9 19.99 76.42 32.42"/></g><polygon class="cls-2" points="71.67 22.73 71.7 22.73 71.8 22.75 71.96 22.79 72.15 22.83 72.37 22.88 72.59 22.94 72.82 23 73.03 23.07 73.55 23.27 73.99 23.45 74.34 23.64 74.61 23.82 74.82 23.97 74.99 24.11 75.13 24.21 75.22 24.3 75.43 24.49 75.6 24.7 75.72 24.89 75.81 25.08 75.87 25.2 75.9 25.3 75.93 25.43 75.95 25.52 75.96 25.55 75.96 25.56 75.96 25.58 75.98 25.62 75.98 25.68 75.98 25.75 75.99 25.81 75.99 25.87 75.99 25.91 75.99 25.96 75.99 26.13 75.96 26.26 75.95 26.37 75.86 26.73 75.7 27.07 75.54 27.37 75.36 27.64 75.17 27.86 75.01 28.04 74.87 28.16 74.63 28.39 74.35 28.6 74.05 28.83 73.72 29.07 73.34 29.33 72.9 29.59 72.4 29.87 71.85 30.18 71.23 30.5 70.41 30.92 69.65 31.3 68.92 31.65 68.27 31.95 67.68 32.23 67.13 32.45 66.66 32.65 66.25 32.8 65.9 32.94 65.63 33.03 65.43 33.11 65.31 33.14 65.28 33.15 65.22 33.15 65.08 33.12 64.82 33.09 64.49 33.05 64.06 32.97 63.55 32.88 62.96 32.77 62.29 32.65 61.55 32.5 60.73 32.33 59.85 32.13 58.89 31.92 57.89 31.68 56.83 31.41 55.7 31.1 54.54 30.78 53.32 30.43 53.37 30.42 53.49 30.37 53.69 30.31 53.94 30.24 54.26 30.15 54.63 30.04 55.02 29.92 55.45 29.78 55.89 29.65 56.33 29.51 56.78 29.37 57.22 29.24 57.65 29.1 58.04 28.96 58.41 28.86 58.8 28.72 59.19 28.6 59.59 28.48 60 28.34 60.41 28.2 60.86 28.05 61.33 27.89 61.87 27.7 62.43 27.49 63.06 27.26 63.75 27 64.28 26.81 64.89 26.58 65.54 26.31 66.23 26.02 66.95 25.7 67.68 25.35 68.41 24.99 69.12 24.61 69.8 24.2 70.44 23.77 71.02 23.33 71.52 22.89 71.67 22.73"/><g class="cls-5"><polygon class="cls-3" points="75.87 33.36 75.33 34.3 53.81 21.88 54.35 20.93 75.87 33.36"/></g><polygon class="cls-2" points="71.67 22.73 71.7 22.73 71.8 22.75 71.96 22.79 72.15 22.83 72.37 22.88 72.59 22.94 72.82 23 73.03 23.07 73.55 23.27 73.99 23.45 74.34 23.64 74.61 23.82 74.82 23.97 74.99 24.11 75.13 24.21 75.22 24.3 75.43 24.49 75.6 24.7 75.72 24.89 75.81 25.08 75.87 25.2 75.9 25.3 75.93 25.43 75.95 25.52 75.96 25.55 75.96 25.56 75.96 25.58 75.98 25.62 75.98 25.68 75.98 25.75 75.99 25.81 75.99 25.87 75.99 25.91 75.99 25.96 75.99 26.13 75.96 26.26 75.95 26.37 75.86 26.73 75.7 27.07 75.54 27.37 75.36 27.64 75.17 27.86 75.01 28.04 74.87 28.16 74.63 28.39 74.35 28.6 74.05 28.83 73.72 29.07 73.34 29.33 72.9 29.59 72.4 29.87 71.85 30.18 71.23 30.5 70.41 30.92 69.65 31.3 68.92 31.65 68.27 31.95 67.68 32.23 67.13 32.45 66.66 32.65 66.25 32.8 65.9 32.94 65.63 33.03 65.43 33.11 65.31 33.14 65.28 33.15 65.22 33.15 65.08 33.12 64.82 33.09 64.49 33.05 64.06 32.97 63.55 32.88 62.96 32.77 62.29 32.65 61.55 32.5 60.73 32.33 59.85 32.13 58.89 31.92 57.89 31.68 56.83 31.41 55.7 31.1 54.54 30.78 53.32 30.43 53.37 30.42 53.49 30.37 53.69 30.31 53.94 30.24 54.26 30.15 54.63 30.04 55.02 29.92 55.45 29.78 55.89 29.65 56.33 29.51 56.78 29.37 57.22 29.24 57.65 29.1 58.04 28.96 58.41 28.86 58.8 28.72 59.19 28.6 59.59 28.48 60 28.34 60.41 28.2 60.86 28.05 61.33 27.89 61.87 27.7 62.43 27.49 63.06 27.26 63.75 27 64.28 26.81 64.89 26.58 65.54 26.31 66.23 26.02 66.95 25.7 67.68 25.35 68.41 24.99 69.12 24.61 69.8 24.2 70.44 23.77 71.02 23.33 71.52 22.89 71.67 22.73"/><g class="cls-5"><polygon class="cls-13" points="75.87 33.36 75.33 34.3 53.81 21.88 54.35 20.93 75.87 33.36"/></g><polygon class="cls-2" points="71.67 22.73 71.7 22.73 71.8 22.75 71.96 22.79 72.15 22.83 72.37 22.88 72.59 22.94 72.82 23 73.03 23.07 73.55 23.27 73.99 23.45 74.34 23.64 74.61 23.82 74.82 23.97 74.99 24.11 75.13 24.21 75.22 24.3 75.43 24.49 75.6 24.7 75.72 24.89 75.81 25.08 75.87 25.2 75.9 25.3 75.93 25.43 75.95 25.52 75.96 25.55 75.96 25.56 75.96 25.58 75.98 25.62 75.98 25.68 75.98 25.75 75.99 25.81 75.99 25.87 75.99 25.91 75.99 25.96 75.99 26.13 75.96 26.26 75.95 26.37 75.86 26.73 75.7 27.07 75.54 27.37 75.36 27.64 75.17 27.86 75.01 28.04 74.87 28.16 74.63 28.39 74.35 28.6 74.05 28.83 73.72 29.07 73.34 29.33 72.9 29.59 72.4 29.87 71.85 30.18 71.23 30.5 70.41 30.92 69.65 31.3 68.92 31.65 68.27 31.95 67.68 32.23 67.13 32.45 66.66 32.65 66.25 32.8 65.9 32.94 65.63 33.03 65.43 33.11 65.31 33.14 65.28 33.15 65.22 33.15 65.08 33.12 64.82 33.09 64.49 33.05 64.06 32.97 63.55 32.88 62.96 32.77 62.29 32.65 61.55 32.5 60.73 32.33 59.85 32.13 58.89 31.92 57.89 31.68 56.83 31.41 55.7 31.1 54.54 30.78 53.32 30.43 53.37 30.42 53.49 30.37 53.69 30.31 53.94 30.24 54.26 30.15 54.63 30.04 55.02 29.92 55.45 29.78 55.89 29.65 56.33 29.51 56.78 29.37 57.22 29.24 57.65 29.1 58.04 28.96 58.41 28.86 58.8 28.72 59.19 28.6 59.59 28.48 60 28.34 60.41 28.2 60.86 28.05 61.33 27.89 61.87 27.7 62.43 27.49 63.06 27.26 63.75 27 64.28 26.81 64.89 26.58 65.54 26.31 66.23 26.02 66.95 25.7 67.68 25.35 68.41 24.99 69.12 24.61 69.8 24.2 70.44 23.77 71.02 23.33 71.52 22.89 71.67 22.73"/><g class="cls-5"><polygon class="cls-3" points="75.33 34.3 74.78 35.26 53.26 22.83 53.81 21.88 75.33 34.3"/></g><polygon class="cls-2" points="71.67 22.73 71.7 22.73 71.8 22.75 71.96 22.79 72.15 22.83 72.37 22.88 72.59 22.94 72.82 23 73.03 23.07 73.55 23.27 73.99 23.45 74.34 23.64 74.61 23.82 74.82 23.97 74.99 24.11 75.13 24.21 75.22 24.3 75.43 24.49 75.6 24.7 75.72 24.89 75.81 25.08 75.87 25.2 75.9 25.3 75.93 25.43 75.95 25.52 75.96 25.55 75.96 25.56 75.96 25.58 75.98 25.62 75.98 25.68 75.98 25.75 75.99 25.81 75.99 25.87 75.99 25.91 75.99 25.96 75.99 26.13 75.96 26.26 75.95 26.37 75.86 26.73 75.7 27.07 75.54 27.37 75.36 27.64 75.17 27.86 75.01 28.04 74.87 28.16 74.63 28.39 74.35 28.6 74.05 28.83 73.72 29.07 73.34 29.33 72.9 29.59 72.4 29.87 71.85 30.18 71.23 30.5 70.41 30.92 69.65 31.3 68.92 31.65 68.27 31.95 67.68 32.23 67.13 32.45 66.66 32.65 66.25 32.8 65.9 32.94 65.63 33.03 65.43 33.11 65.31 33.14 65.28 33.15 65.22 33.15 65.08 33.12 64.82 33.09 64.49 33.05 64.06 32.97 63.55 32.88 62.96 32.77 62.29 32.65 61.55 32.5 60.73 32.33 59.85 32.13 58.89 31.92 57.89 31.68 56.83 31.41 55.7 31.1 54.54 30.78 53.32 30.43 53.37 30.42 53.49 30.37 53.69 30.31 53.94 30.24 54.26 30.15 54.63 30.04 55.02 29.92 55.45 29.78 55.89 29.65 56.33 29.51 56.78 29.37 57.22 29.24 57.65 29.1 58.04 28.96 58.41 28.86 58.8 28.72 59.19 28.6 59.59 28.48 60 28.34 60.41 28.2 60.86 28.05 61.33 27.89 61.87 27.7 62.43 27.49 63.06 27.26 63.75 27 64.28 26.81 64.89 26.58 65.54 26.31 66.23 26.02 66.95 25.7 67.68 25.35 68.41 24.99 69.12 24.61 69.8 24.2 70.44 23.77 71.02 23.33 71.52 22.89 71.67 22.73"/><g class="cls-5"><polygon class="cls-14" points="75.33 34.3 74.78 35.26 53.26 22.83 53.81 21.88 75.33 34.3"/></g><polygon class="cls-2" points="71.67 22.73 71.7 22.73 71.8 22.75 71.96 22.79 72.15 22.83 72.37 22.88 72.59 22.94 72.82 23 73.03 23.07 73.55 23.27 73.99 23.45 74.34 23.64 74.61 23.82 74.82 23.97 74.99 24.11 75.13 24.21 75.22 24.3 75.43 24.49 75.6 24.7 75.72 24.89 75.81 25.08 75.87 25.2 75.9 25.3 75.93 25.43 75.95 25.52 75.96 25.55 75.96 25.56 75.96 25.58 75.98 25.62 75.98 25.68 75.98 25.75 75.99 25.81 75.99 25.87 75.99 25.91 75.99 25.96 75.99 26.13 75.96 26.26 75.95 26.37 75.86 26.73 75.7 27.07 75.54 27.37 75.36 27.64 75.17 27.86 75.01 28.04 74.87 28.16 74.63 28.39 74.35 28.6 74.05 28.83 73.72 29.07 73.34 29.33 72.9 29.59 72.4 29.87 71.85 30.18 71.23 30.5 70.41 30.92 69.65 31.3 68.92 31.65 68.27 31.95 67.68 32.23 67.13 32.45 66.66 32.65 66.25 32.8 65.9 32.94 65.63 33.03 65.43 33.11 65.31 33.14 65.28 33.15 65.22 33.15 65.08 33.12 64.82 33.09 64.49 33.05 64.06 32.97 63.55 32.88 62.96 32.77 62.29 32.65 61.55 32.5 60.73 32.33 59.85 32.13 58.89 31.92 57.89 31.68 56.83 31.41 55.7 31.1 54.54 30.78 53.32 30.43 53.37 30.42 53.49 30.37 53.69 30.31 53.94 30.24 54.26 30.15 54.63 30.04 55.02 29.92 55.45 29.78 55.89 29.65 56.33 29.51 56.78 29.37 57.22 29.24 57.65 29.1 58.04 28.96 58.41 28.86 58.8 28.72 59.19 28.6 59.59 28.48 60 28.34 60.41 28.2 60.86 28.05 61.33 27.89 61.87 27.7 62.43 27.49 63.06 27.26 63.75 27 64.28 26.81 64.89 26.58 65.54 26.31 66.23 26.02 66.95 25.7 67.68 25.35 68.41 24.99 69.12 24.61 69.8 24.2 70.44 23.77 71.02 23.33 71.52 22.89 71.67 22.73"/><g class="cls-5"><polygon class="cls-3" points="74.78 35.26 74.23 36.2 52.72 23.77 53.26 22.83 74.78 35.26"/></g><polygon class="cls-2" points="71.67 22.73 71.7 22.73 71.8 22.75 71.96 22.79 72.15 22.83 72.37 22.88 72.59 22.94 72.82 23 73.03 23.07 73.55 23.27 73.99 23.45 74.34 23.64 74.61 23.82 74.82 23.97 74.99 24.11 75.13 24.21 75.22 24.3 75.43 24.49 75.6 24.7 75.72 24.89 75.81 25.08 75.87 25.2 75.9 25.3 75.93 25.43 75.95 25.52 75.96 25.55 75.96 25.56 75.96 25.58 75.98 25.62 75.98 25.68 75.98 25.75 75.99 25.81 75.99 25.87 75.99 25.91 75.99 25.96 75.99 26.13 75.96 26.26 75.95 26.37 75.86 26.73 75.7 27.07 75.54 27.37 75.36 27.64 75.17 27.86 75.01 28.04 74.87 28.16 74.63 28.39 74.35 28.6 74.05 28.83 73.72 29.07 73.34 29.33 72.9 29.59 72.4 29.87 71.85 30.18 71.23 30.5 70.41 30.92 69.65 31.3 68.92 31.65 68.27 31.95 67.68 32.23 67.13 32.45 66.66 32.65 66.25 32.8 65.9 32.94 65.63 33.03 65.43 33.11 65.31 33.14 65.28 33.15 65.22 33.15 65.08 33.12 64.82 33.09 64.49 33.05 64.06 32.97 63.55 32.88 62.96 32.77 62.29 32.65 61.55 32.5 60.73 32.33 59.85 32.13 58.89 31.92 57.89 31.68 56.83 31.41 55.7 31.1 54.54 30.78 53.32 30.43 53.37 30.42 53.49 30.37 53.69 30.31 53.94 30.24 54.26 30.15 54.63 30.04 55.02 29.92 55.45 29.78 55.89 29.65 56.33 29.51 56.78 29.37 57.22 29.24 57.65 29.1 58.04 28.96 58.41 28.86 58.8 28.72 59.19 28.6 59.59 28.48 60 28.34 60.41 28.2 60.86 28.05 61.33 27.89 61.87 27.7 62.43 27.49 63.06 27.26 63.75 27 64.28 26.81 64.89 26.58 65.54 26.31 66.23 26.02 66.95 25.7 67.68 25.35 68.41 24.99 69.12 24.61 69.8 24.2 70.44 23.77 71.02 23.33 71.52 22.89 71.67 22.73"/><g class="cls-5"><polygon class="cls-15" points="74.78 35.26 74.23 36.2 52.72 23.77 53.26 22.83 74.78 35.26"/></g><polygon class="cls-2" points="71.67 22.73 71.7 22.73 71.8 22.75 71.96 22.79 72.15 22.83 72.37 22.88 72.59 22.94 72.82 23 73.03 23.07 73.55 23.27 73.99 23.45 74.34 23.64 74.61 23.82 74.82 23.97 74.99 24.11 75.13 24.21 75.22 24.3 75.43 24.49 75.6 24.7 75.72 24.89 75.81 25.08 75.87 25.2 75.9 25.3 75.93 25.43 75.95 25.52 75.96 25.55 75.96 25.56 75.96 25.58 75.98 25.62 75.98 25.68 75.98 25.75 75.99 25.81 75.99 25.87 75.99 25.91 75.99 25.96 75.99 26.13 75.96 26.26 75.95 26.37 75.86 26.73 75.7 27.07 75.54 27.37 75.36 27.64 75.17 27.86 75.01 28.04 74.87 28.16 74.63 28.39 74.35 28.6 74.05 28.83 73.72 29.07 73.34 29.33 72.9 29.59 72.4 29.87 71.85 30.18 71.23 30.5 70.41 30.92 69.65 31.3 68.92 31.65 68.27 31.95 67.68 32.23 67.13 32.45 66.66 32.65 66.25 32.8 65.9 32.94 65.63 33.03 65.43 33.11 65.31 33.14 65.28 33.15 65.22 33.15 65.08 33.12 64.82 33.09 64.49 33.05 64.06 32.97 63.55 32.88 62.96 32.77 62.29 32.65 61.55 32.5 60.73 32.33 59.85 32.13 58.89 31.92 57.89 31.68 56.83 31.41 55.7 31.1 54.54 30.78 53.32 30.43 53.37 30.42 53.49 30.37 53.69 30.31 53.94 30.24 54.26 30.15 54.63 30.04 55.02 29.92 55.45 29.78 55.89 29.65 56.33 29.51 56.78 29.37 57.22 29.24 57.65 29.1 58.04 28.96 58.41 28.86 58.8 28.72 59.19 28.6 59.59 28.48 60 28.34 60.41 28.2 60.86 28.05 61.33 27.89 61.87 27.7 62.43 27.49 63.06 27.26 63.75 27 64.28 26.81 64.89 26.58 65.54 26.31 66.23 26.02 66.95 25.7 67.68 25.35 68.41 24.99 69.12 24.61 69.8 24.2 70.44 23.77 71.02 23.33 71.52 22.89 71.67 22.73"/><g class="cls-5"><polygon class="cls-3" points="74.23 36.2 73.69 37.14 52.17 24.71 52.72 23.77 74.23 36.2"/></g><polygon class="cls-2" points="71.67 22.73 71.7 22.73 71.8 22.75 71.96 22.79 72.15 22.83 72.37 22.88 72.59 22.94 72.82 23 73.03 23.07 73.55 23.27 73.99 23.45 74.34 23.64 74.61 23.82 74.82 23.97 74.99 24.11 75.13 24.21 75.22 24.3 75.43 24.49 75.6 24.7 75.72 24.89 75.81 25.08 75.87 25.2 75.9 25.3 75.93 25.43 75.95 25.52 75.96 25.55 75.96 25.56 75.96 25.58 75.98 25.62 75.98 25.68 75.98 25.75 75.99 25.81 75.99 25.87 75.99 25.91 75.99 25.96 75.99 26.13 75.96 26.26 75.95 26.37 75.86 26.73 75.7 27.07 75.54 27.37 75.36 27.64 75.17 27.86 75.01 28.04 74.87 28.16 74.63 28.39 74.35 28.6 74.05 28.83 73.72 29.07 73.34 29.33 72.9 29.59 72.4 29.87 71.85 30.18 71.23 30.5 70.41 30.92 69.65 31.3 68.92 31.65 68.27 31.95 67.68 32.23 67.13 32.45 66.66 32.65 66.25 32.8 65.9 32.94 65.63 33.03 65.43 33.11 65.31 33.14 65.28 33.15 65.22 33.15 65.08 33.12 64.82 33.09 64.49 33.05 64.06 32.97 63.55 32.88 62.96 32.77 62.29 32.65 61.55 32.5 60.73 32.33 59.85 32.13 58.89 31.92 57.89 31.68 56.83 31.41 55.7 31.1 54.54 30.78 53.32 30.43 53.37 30.42 53.49 30.37 53.69 30.31 53.94 30.24 54.26 30.15 54.63 30.04 55.02 29.92 55.45 29.78 55.89 29.65 56.33 29.51 56.78 29.37 57.22 29.24 57.65 29.1 58.04 28.96 58.41 28.86 58.8 28.72 59.19 28.6 59.59 28.48 60 28.34 60.41 28.2 60.86 28.05 61.33 27.89 61.87 27.7 62.43 27.49 63.06 27.26 63.75 27 64.28 26.81 64.89 26.58 65.54 26.31 66.23 26.02 66.95 25.7 67.68 25.35 68.41 24.99 69.12 24.61 69.8 24.2 70.44 23.77 71.02 23.33 71.52 22.89 71.67 22.73"/><g class="cls-5"><polygon class="cls-16" points="74.23 36.2 73.69 37.14 52.17 24.71 52.72 23.77 74.23 36.2"/></g><polygon class="cls-2" points="71.67 22.73 71.7 22.73 71.8 22.75 71.96 22.79 72.15 22.83 72.37 22.88 72.59 22.94 72.82 23 73.03 23.07 73.55 23.27 73.99 23.45 74.34 23.64 74.61 23.82 74.82 23.97 74.99 24.11 75.13 24.21 75.22 24.3 75.43 24.49 75.6 24.7 75.72 24.89 75.81 25.08 75.87 25.2 75.9 25.3 75.93 25.43 75.95 25.52 75.96 25.55 75.96 25.56 75.96 25.58 75.98 25.62 75.98 25.68 75.98 25.75 75.99 25.81 75.99 25.87 75.99 25.91 75.99 25.96 75.99 26.13 75.96 26.26 75.95 26.37 75.86 26.73 75.7 27.07 75.54 27.37 75.36 27.64 75.17 27.86 75.01 28.04 74.87 28.16 74.63 28.39 74.35 28.6 74.05 28.83 73.72 29.07 73.34 29.33 72.9 29.59 72.4 29.87 71.85 30.18 71.23 30.5 70.41 30.92 69.65 31.3 68.92 31.65 68.27 31.95 67.68 32.23 67.13 32.45 66.66 32.65 66.25 32.8 65.9 32.94 65.63 33.03 65.43 33.11 65.31 33.14 65.28 33.15 65.22 33.15 65.08 33.12 64.82 33.09 64.49 33.05 64.06 32.97 63.55 32.88 62.96 32.77 62.29 32.65 61.55 32.5 60.73 32.33 59.85 32.13 58.89 31.92 57.89 31.68 56.83 31.41 55.7 31.1 54.54 30.78 53.32 30.43 53.37 30.42 53.49 30.37 53.69 30.31 53.94 30.24 54.26 30.15 54.63 30.04 55.02 29.92 55.45 29.78 55.89 29.65 56.33 29.51 56.78 29.37 57.22 29.24 57.65 29.1 58.04 28.96 58.41 28.86 58.8 28.72 59.19 28.6 59.59 28.48 60 28.34 60.41 28.2 60.86 28.05 61.33 27.89 61.87 27.7 62.43 27.49 63.06 27.26 63.75 27 64.28 26.81 64.89 26.58 65.54 26.31 66.23 26.02 66.95 25.7 67.68 25.35 68.41 24.99 69.12 24.61 69.8 24.2 70.44 23.77 71.02 23.33 71.52 22.89 71.67 22.73"/><g class="cls-5"><polygon class="cls-3" points="73.69 37.14 73.14 38.1 51.62 25.67 52.17 24.71 73.69 37.14"/></g><polygon class="cls-2" points="71.67 22.73 71.7 22.73 71.8 22.75 71.96 22.79 72.15 22.83 72.37 22.88 72.59 22.94 72.82 23 73.03 23.07 73.55 23.27 73.99 23.45 74.34 23.64 74.61 23.82 74.82 23.97 74.99 24.11 75.13 24.21 75.22 24.3 75.43 24.49 75.6 24.7 75.72 24.89 75.81 25.08 75.87 25.2 75.9 25.3 75.93 25.43 75.95 25.52 75.96 25.55 75.96 25.56 75.96 25.58 75.98 25.62 75.98 25.68 75.98 25.75 75.99 25.81 75.99 25.87 75.99 25.91 75.99 25.96 75.99 26.13 75.96 26.26 75.95 26.37 75.86 26.73 75.7 27.07 75.54 27.37 75.36 27.64 75.17 27.86 75.01 28.04 74.87 28.16 74.63 28.39 74.35 28.6 74.05 28.83 73.72 29.07 73.34 29.33 72.9 29.59 72.4 29.87 71.85 30.18 71.23 30.5 70.41 30.92 69.65 31.3 68.92 31.65 68.27 31.95 67.68 32.23 67.13 32.45 66.66 32.65 66.25 32.8 65.9 32.94 65.63 33.03 65.43 33.11 65.31 33.14 65.28 33.15 65.22 33.15 65.08 33.12 64.82 33.09 64.49 33.05 64.06 32.97 63.55 32.88 62.96 32.77 62.29 32.65 61.55 32.5 60.73 32.33 59.85 32.13 58.89 31.92 57.89 31.68 56.83 31.41 55.7 31.1 54.54 30.78 53.32 30.43 53.37 30.42 53.49 30.37 53.69 30.31 53.94 30.24 54.26 30.15 54.63 30.04 55.02 29.92 55.45 29.78 55.89 29.65 56.33 29.51 56.78 29.37 57.22 29.24 57.65 29.1 58.04 28.96 58.41 28.86 58.8 28.72 59.19 28.6 59.59 28.48 60 28.34 60.41 28.2 60.86 28.05 61.33 27.89 61.87 27.7 62.43 27.49 63.06 27.26 63.75 27 64.28 26.81 64.89 26.58 65.54 26.31 66.23 26.02 66.95 25.7 67.68 25.35 68.41 24.99 69.12 24.61 69.8 24.2 70.44 23.77 71.02 23.33 71.52 22.89 71.67 22.73"/><g class="cls-5"><polygon class="cls-17" points="73.69 37.14 73.14 38.1 51.62 25.67 52.17 24.71 73.69 37.14"/></g><polygon class="cls-2" points="71.67 22.73 71.7 22.73 71.8 22.75 71.96 22.79 72.15 22.83 72.37 22.88 72.59 22.94 72.82 23 73.03 23.07 73.55 23.27 73.99 23.45 74.34 23.64 74.61 23.82 74.82 23.97 74.99 24.11 75.13 24.21 75.22 24.3 75.43 24.49 75.6 24.7 75.72 24.89 75.81 25.08 75.87 25.2 75.9 25.3 75.93 25.43 75.95 25.52 75.96 25.55 75.96 25.56 75.96 25.58 75.98 25.62 75.98 25.68 75.98 25.75 75.99 25.81 75.99 25.87 75.99 25.91 75.99 25.96 75.99 26.13 75.96 26.26 75.95 26.37 75.86 26.73 75.7 27.07 75.54 27.37 75.36 27.64 75.17 27.86 75.01 28.04 74.87 28.16 74.63 28.39 74.35 28.6 74.05 28.83 73.72 29.07 73.34 29.33 72.9 29.59 72.4 29.87 71.85 30.18 71.23 30.5 70.41 30.92 69.65 31.3 68.92 31.65 68.27 31.95 67.68 32.23 67.13 32.45 66.66 32.65 66.25 32.8 65.9 32.94 65.63 33.03 65.43 33.11 65.31 33.14 65.28 33.15 65.22 33.15 65.08 33.12 64.82 33.09 64.49 33.05 64.06 32.97 63.55 32.88 62.96 32.77 62.29 32.65 61.55 32.5 60.73 32.33 59.85 32.13 58.89 31.92 57.89 31.68 56.83 31.41 55.7 31.1 54.54 30.78 53.32 30.43 53.37 30.42 53.49 30.37 53.69 30.31 53.94 30.24 54.26 30.15 54.63 30.04 55.02 29.92 55.45 29.78 55.89 29.65 56.33 29.51 56.78 29.37 57.22 29.24 57.65 29.1 58.04 28.96 58.41 28.86 58.8 28.72 59.19 28.6 59.59 28.48 60 28.34 60.41 28.2 60.86 28.05 61.33 27.89 61.87 27.7 62.43 27.49 63.06 27.26 63.75 27 64.28 26.81 64.89 26.58 65.54 26.31 66.23 26.02 66.95 25.7 67.68 25.35 68.41 24.99 69.12 24.61 69.8 24.2 70.44 23.77 71.02 23.33 71.52 22.89 71.67 22.73"/><g class="cls-5"><polygon class="cls-3" points="73.14 38.1 72.59 39.04 51.08 26.61 51.62 25.67 73.14 38.1"/></g><polygon class="cls-2" points="71.67 22.73 71.7 22.73 71.8 22.75 71.96 22.79 72.15 22.83 72.37 22.88 72.59 22.94 72.82 23 73.03 23.07 73.55 23.27 73.99 23.45 74.34 23.64 74.61 23.82 74.82 23.97 74.99 24.11 75.13 24.21 75.22 24.3 75.43 24.49 75.6 24.7 75.72 24.89 75.81 25.08 75.87 25.2 75.9 25.3 75.93 25.43 75.95 25.52 75.96 25.55 75.96 25.56 75.96 25.58 75.98 25.62 75.98 25.68 75.98 25.75 75.99 25.81 75.99 25.87 75.99 25.91 75.99 25.96 75.99 26.13 75.96 26.26 75.95 26.37 75.86 26.73 75.7 27.07 75.54 27.37 75.36 27.64 75.17 27.86 75.01 28.04 74.87 28.16 74.63 28.39 74.35 28.6 74.05 28.83 73.72 29.07 73.34 29.33 72.9 29.59 72.4 29.87 71.85 30.18 71.23 30.5 70.41 30.92 69.65 31.3 68.92 31.65 68.27 31.95 67.68 32.23 67.13 32.45 66.66 32.65 66.25 32.8 65.9 32.94 65.63 33.03 65.43 33.11 65.31 33.14 65.28 33.15 65.22 33.15 65.08 33.12 64.82 33.09 64.49 33.05 64.06 32.97 63.55 32.88 62.96 32.77 62.29 32.65 61.55 32.5 60.73 32.33 59.85 32.13 58.89 31.92 57.89 31.68 56.83 31.41 55.7 31.1 54.54 30.78 53.32 30.43 53.37 30.42 53.49 30.37 53.69 30.31 53.94 30.24 54.26 30.15 54.63 30.04 55.02 29.92 55.45 29.78 55.89 29.65 56.33 29.51 56.78 29.37 57.22 29.24 57.65 29.1 58.04 28.96 58.41 28.86 58.8 28.72 59.19 28.6 59.59 28.48 60 28.34 60.41 28.2 60.86 28.05 61.33 27.89 61.87 27.7 62.43 27.49 63.06 27.26 63.75 27 64.28 26.81 64.89 26.58 65.54 26.31 66.23 26.02 66.95 25.7 67.68 25.35 68.41 24.99 69.12 24.61 69.8 24.2 70.44 23.77 71.02 23.33 71.52 22.89 71.67 22.73"/><g class="cls-5"><polygon class="cls-18" points="73.14 38.1 72.59 39.04 51.08 26.61 51.62 25.67 73.14 38.1"/></g><polygon class="cls-2" points="71.67 22.73 71.7 22.73 71.8 22.75 71.96 22.79 72.15 22.83 72.37 22.88 72.59 22.94 72.82 23 73.03 23.07 73.55 23.27 73.99 23.45 74.34 23.64 74.61 23.82 74.82 23.97 74.99 24.11 75.13 24.21 75.22 24.3 75.43 24.49 75.6 24.7 75.72 24.89 75.81 25.08 75.87 25.2 75.9 25.3 75.93 25.43 75.95 25.52 75.96 25.55 75.96 25.56 75.96 25.58 75.98 25.62 75.98 25.68 75.98 25.75 75.99 25.81 75.99 25.87 75.99 25.91 75.99 25.96 75.99 26.13 75.96 26.26 75.95 26.37 75.86 26.73 75.7 27.07 75.54 27.37 75.36 27.64 75.17 27.86 75.01 28.04 74.87 28.16 74.63 28.39 74.35 28.6 74.05 28.83 73.72 29.07 73.34 29.33 72.9 29.59 72.4 29.87 71.85 30.18 71.23 30.5 70.41 30.92 69.65 31.3 68.92 31.65 68.27 31.95 67.68 32.23 67.13 32.45 66.66 32.65 66.25 32.8 65.9 32.94 65.63 33.03 65.43 33.11 65.31 33.14 65.28 33.15 65.22 33.15 65.08 33.12 64.82 33.09 64.49 33.05 64.06 32.97 63.55 32.88 62.96 32.77 62.29 32.65 61.55 32.5 60.73 32.33 59.85 32.13 58.89 31.92 57.89 31.68 56.83 31.41 55.7 31.1 54.54 30.78 53.32 30.43 53.37 30.42 53.49 30.37 53.69 30.31 53.94 30.24 54.26 30.15 54.63 30.04 55.02 29.92 55.45 29.78 55.89 29.65 56.33 29.51 56.78 29.37 57.22 29.24 57.65 29.1 58.04 28.96 58.41 28.86 58.8 28.72 59.19 28.6 59.59 28.48 60 28.34 60.41 28.2 60.86 28.05 61.33 27.89 61.87 27.7 62.43 27.49 63.06 27.26 63.75 27 64.28 26.81 64.89 26.58 65.54 26.31 66.23 26.02 66.95 25.7 67.68 25.35 68.41 24.99 69.12 24.61 69.8 24.2 70.44 23.77 71.02 23.33 71.52 22.89 71.67 22.73"/><g class="cls-5"><polygon class="cls-3" points="72.59 39.04 72.05 39.98 50.53 27.55 51.08 26.61 72.59 39.04"/></g><polygon class="cls-2" points="71.67 22.73 71.7 22.73 71.8 22.75 71.96 22.79 72.15 22.83 72.37 22.88 72.59 22.94 72.82 23 73.03 23.07 73.55 23.27 73.99 23.45 74.34 23.64 74.61 23.82 74.82 23.97 74.99 24.11 75.13 24.21 75.22 24.3 75.43 24.49 75.6 24.7 75.72 24.89 75.81 25.08 75.87 25.2 75.9 25.3 75.93 25.43 75.95 25.52 75.96 25.55 75.96 25.56 75.96 25.58 75.98 25.62 75.98 25.68 75.98 25.75 75.99 25.81 75.99 25.87 75.99 25.91 75.99 25.96 75.99 26.13 75.96 26.26 75.95 26.37 75.86 26.73 75.7 27.07 75.54 27.37 75.36 27.64 75.17 27.86 75.01 28.04 74.87 28.16 74.63 28.39 74.35 28.6 74.05 28.83 73.72 29.07 73.34 29.33 72.9 29.59 72.4 29.87 71.85 30.18 71.23 30.5 70.41 30.92 69.65 31.3 68.92 31.65 68.27 31.95 67.68 32.23 67.13 32.45 66.66 32.65 66.25 32.8 65.9 32.94 65.63 33.03 65.43 33.11 65.31 33.14 65.28 33.15 65.22 33.15 65.08 33.12 64.82 33.09 64.49 33.05 64.06 32.97 63.55 32.88 62.96 32.77 62.29 32.65 61.55 32.5 60.73 32.33 59.85 32.13 58.89 31.92 57.89 31.68 56.83 31.41 55.7 31.1 54.54 30.78 53.32 30.43 53.37 30.42 53.49 30.37 53.69 30.31 53.94 30.24 54.26 30.15 54.63 30.04 55.02 29.92 55.45 29.78 55.89 29.65 56.33 29.51 56.78 29.37 57.22 29.24 57.65 29.1 58.04 28.96 58.41 28.86 58.8 28.72 59.19 28.6 59.59 28.48 60 28.34 60.41 28.2 60.86 28.05 61.33 27.89 61.87 27.7 62.43 27.49 63.06 27.26 63.75 27 64.28 26.81 64.89 26.58 65.54 26.31 66.23 26.02 66.95 25.7 67.68 25.35 68.41 24.99 69.12 24.61 69.8 24.2 70.44 23.77 71.02 23.33 71.52 22.89 71.67 22.73"/><g class="cls-5"><polygon class="cls-18" points="72.59 39.04 72.05 39.98 50.53 27.55 51.08 26.61 72.59 39.04"/></g><polygon class="cls-2" points="71.67 22.73 71.7 22.73 71.8 22.75 71.96 22.79 72.15 22.83 72.37 22.88 72.59 22.94 72.82 23 73.03 23.07 73.55 23.27 73.99 23.45 74.34 23.64 74.61 23.82 74.82 23.97 74.99 24.11 75.13 24.21 75.22 24.3 75.43 24.49 75.6 24.7 75.72 24.89 75.81 25.08 75.87 25.2 75.9 25.3 75.93 25.43 75.95 25.52 75.96 25.55 75.96 25.56 75.96 25.58 75.98 25.62 75.98 25.68 75.98 25.75 75.99 25.81 75.99 25.87 75.99 25.91 75.99 25.96 75.99 26.13 75.96 26.26 75.95 26.37 75.86 26.73 75.7 27.07 75.54 27.37 75.36 27.64 75.17 27.86 75.01 28.04 74.87 28.16 74.63 28.39 74.35 28.6 74.05 28.83 73.72 29.07 73.34 29.33 72.9 29.59 72.4 29.87 71.85 30.18 71.23 30.5 70.41 30.92 69.65 31.3 68.92 31.65 68.27 31.95 67.68 32.23 67.13 32.45 66.66 32.65 66.25 32.8 65.9 32.94 65.63 33.03 65.43 33.11 65.31 33.14 65.28 33.15 65.22 33.15 65.08 33.12 64.82 33.09 64.49 33.05 64.06 32.97 63.55 32.88 62.96 32.77 62.29 32.65 61.55 32.5 60.73 32.33 59.85 32.13 58.89 31.92 57.89 31.68 56.83 31.41 55.7 31.1 54.54 30.78 53.32 30.43 53.37 30.42 53.49 30.37 53.69 30.31 53.94 30.24 54.26 30.15 54.63 30.04 55.02 29.92 55.45 29.78 55.89 29.65 56.33 29.51 56.78 29.37 57.22 29.24 57.65 29.1 58.04 28.96 58.41 28.86 58.8 28.72 59.19 28.6 59.59 28.48 60 28.34 60.41 28.2 60.86 28.05 61.33 27.89 61.87 27.7 62.43 27.49 63.06 27.26 63.75 27 64.28 26.81 64.89 26.58 65.54 26.31 66.23 26.02 66.95 25.7 67.68 25.35 68.41 24.99 69.12 24.61 69.8 24.2 70.44 23.77 71.02 23.33 71.52 22.89 71.67 22.73"/><g class="cls-5"><polygon class="cls-3" points="72.05 39.98 71.5 40.94 49.98 28.51 50.53 27.55 72.05 39.98"/></g><polygon class="cls-2" points="71.67 22.73 71.7 22.73 71.8 22.75 71.96 22.79 72.15 22.83 72.37 22.88 72.59 22.94 72.82 23 73.03 23.07 73.55 23.27 73.99 23.45 74.34 23.64 74.61 23.82 74.82 23.97 74.99 24.11 75.13 24.21 75.22 24.3 75.43 24.49 75.6 24.7 75.72 24.89 75.81 25.08 75.87 25.2 75.9 25.3 75.93 25.43 75.95 25.52 75.96 25.55 75.96 25.56 75.96 25.58 75.98 25.62 75.98 25.68 75.98 25.75 75.99 25.81 75.99 25.87 75.99 25.91 75.99 25.96 75.99 26.13 75.96 26.26 75.95 26.37 75.86 26.73 75.7 27.07 75.54 27.37 75.36 27.64 75.17 27.86 75.01 28.04 74.87 28.16 74.63 28.39 74.35 28.6 74.05 28.83 73.72 29.07 73.34 29.33 72.9 29.59 72.4 29.87 71.85 30.18 71.23 30.5 70.41 30.92 69.65 31.3 68.92 31.65 68.27 31.95 67.68 32.23 67.13 32.45 66.66 32.65 66.25 32.8 65.9 32.94 65.63 33.03 65.43 33.11 65.31 33.14 65.28 33.15 65.22 33.15 65.08 33.12 64.82 33.09 64.49 33.05 64.06 32.97 63.55 32.88 62.96 32.77 62.29 32.65 61.55 32.5 60.73 32.33 59.85 32.13 58.89 31.92 57.89 31.68 56.83 31.41 55.7 31.1 54.54 30.78 53.32 30.43 53.37 30.42 53.49 30.37 53.69 30.31 53.94 30.24 54.26 30.15 54.63 30.04 55.02 29.92 55.45 29.78 55.89 29.65 56.33 29.51 56.78 29.37 57.22 29.24 57.65 29.1 58.04 28.96 58.41 28.86 58.8 28.72 59.19 28.6 59.59 28.48 60 28.34 60.41 28.2 60.86 28.05 61.33 27.89 61.87 27.7 62.43 27.49 63.06 27.26 63.75 27 64.28 26.81 64.89 26.58 65.54 26.31 66.23 26.02 66.95 25.7 67.68 25.35 68.41 24.99 69.12 24.61 69.8 24.2 70.44 23.77 71.02 23.33 71.52 22.89 71.67 22.73"/><g class="cls-5"><polygon class="cls-18" points="72.05 39.98 71.5 40.94 49.98 28.51 50.53 27.55 72.05 39.98"/></g><polygon class="cls-2" points="71.67 22.73 71.7 22.73 71.8 22.75 71.96 22.79 72.15 22.83 72.37 22.88 72.59 22.94 72.82 23 73.03 23.07 73.55 23.27 73.99 23.45 74.34 23.64 74.61 23.82 74.82 23.97 74.99 24.11 75.13 24.21 75.22 24.3 75.43 24.49 75.6 24.7 75.72 24.89 75.81 25.08 75.87 25.2 75.9 25.3 75.93 25.43 75.95 25.52 75.96 25.55 75.96 25.56 75.96 25.58 75.98 25.62 75.98 25.68 75.98 25.75 75.99 25.81 75.99 25.87 75.99 25.91 75.99 25.96 75.99 26.13 75.96 26.26 75.95 26.37 75.86 26.73 75.7 27.07 75.54 27.37 75.36 27.64 75.17 27.86 75.01 28.04 74.87 28.16 74.63 28.39 74.35 28.6 74.05 28.83 73.72 29.07 73.34 29.33 72.9 29.59 72.4 29.87 71.85 30.18 71.23 30.5 70.41 30.92 69.65 31.3 68.92 31.65 68.27 31.95 67.68 32.23 67.13 32.45 66.66 32.65 66.25 32.8 65.9 32.94 65.63 33.03 65.43 33.11 65.31 33.14 65.28 33.15 65.22 33.15 65.08 33.12 64.82 33.09 64.49 33.05 64.06 32.97 63.55 32.88 62.96 32.77 62.29 32.65 61.55 32.5 60.73 32.33 59.85 32.13 58.89 31.92 57.89 31.68 56.83 31.41 55.7 31.1 54.54 30.78 53.32 30.43 53.37 30.42 53.49 30.37 53.69 30.31 53.94 30.24 54.26 30.15 54.63 30.04 55.02 29.92 55.45 29.78 55.89 29.65 56.33 29.51 56.78 29.37 57.22 29.24 57.65 29.1 58.04 28.96 58.41 28.86 58.8 28.72 59.19 28.6 59.59 28.48 60 28.34 60.41 28.2 60.86 28.05 61.33 27.89 61.87 27.7 62.43 27.49 63.06 27.26 63.75 27 64.28 26.81 64.89 26.58 65.54 26.31 66.23 26.02 66.95 25.7 67.68 25.35 68.41 24.99 69.12 24.61 69.8 24.2 70.44 23.77 71.02 23.33 71.52 22.89 71.67 22.73"/><g class="cls-5"><polygon class="cls-3" points="71.5 40.94 70.33 42.97 48.8 30.54 49.98 28.51 71.5 40.94"/></g><polygon class="cls-2" points="71.67 22.73 71.7 22.73 71.8 22.75 71.96 22.79 72.15 22.83 72.37 22.88 72.59 22.94 72.82 23 73.03 23.07 73.55 23.27 73.99 23.45 74.34 23.64 74.61 23.82 74.82 23.97 74.99 24.11 75.13 24.21 75.22 24.3 75.43 24.49 75.6 24.7 75.72 24.89 75.81 25.08 75.87 25.2 75.9 25.3 75.93 25.43 75.95 25.52 75.96 25.55 75.96 25.56 75.96 25.58 75.98 25.62 75.98 25.68 75.98 25.75 75.99 25.81 75.99 25.87 75.99 25.91 75.99 25.96 75.99 26.13 75.96 26.26 75.95 26.37 75.86 26.73 75.7 27.07 75.54 27.37 75.36 27.64 75.17 27.86 75.01 28.04 74.87 28.16 74.63 28.39 74.35 28.6 74.05 28.83 73.72 29.07 73.34 29.33 72.9 29.59 72.4 29.87 71.85 30.18 71.23 30.5 70.41 30.92 69.65 31.3 68.92 31.65 68.27 31.95 67.68 32.23 67.13 32.45 66.66 32.65 66.25 32.8 65.9 32.94 65.63 33.03 65.43 33.11 65.31 33.14 65.28 33.15 65.22 33.15 65.08 33.12 64.82 33.09 64.49 33.05 64.06 32.97 63.55 32.88 62.96 32.77 62.29 32.65 61.55 32.5 60.73 32.33 59.85 32.13 58.89 31.92 57.89 31.68 56.83 31.41 55.7 31.1 54.54 30.78 53.32 30.43 53.37 30.42 53.49 30.37 53.69 30.31 53.94 30.24 54.26 30.15 54.63 30.04 55.02 29.92 55.45 29.78 55.89 29.65 56.33 29.51 56.78 29.37 57.22 29.24 57.65 29.1 58.04 28.96 58.41 28.86 58.8 28.72 59.19 28.6 59.59 28.48 60 28.34 60.41 28.2 60.86 28.05 61.33 27.89 61.87 27.7 62.43 27.49 63.06 27.26 63.75 27 64.28 26.81 64.89 26.58 65.54 26.31 66.23 26.02 66.95 25.7 67.68 25.35 68.41 24.99 69.12 24.61 69.8 24.2 70.44 23.77 71.02 23.33 71.52 22.89 71.67 22.73"/><g class="cls-5"><polygon class="cls-18" points="71.5 40.94 70.33 42.97 48.8 30.54 49.98 28.51 71.5 40.94"/></g><path class="cls-3" d="M76,25.91a2.29,2.29,0,0,0-.06-0.36,1.07,1.07,0,0,0-.2-0.42,3.94,3.94,0,0,0-.52-0.62A4.17,4.17,0,0,0,74.6,24a8.29,8.29,0,0,0-3.28-1.14,31.79,31.79,0,0,0-3.82-.18c-0.62,0-4.66,0-5.71,0-4.6.09-10.24,0.11-11.71,0.11-15.27.06-21.91-.26-29.3-1.75A82.71,82.71,0,0,1,11,18.67c5.54-.18,37.91-1.53,43.81-1.68,3.87-.11,6.62-0.14,8.82,0a27.84,27.84,0,0,1,3.47.38,16.71,16.71,0,0,1,2.88.77,6.86,6.86,0,0,1,3,1.91s0.15,0.17.38,0.46,0.53,0.77.62,0.93a20.41,20.41,0,0,1,1.32,2.25c0.14,0.27.27,0.56,0.39,0.85a3.65,3.65,0,0,1,.2.56,2.56,2.56,0,0,1,.11.64Z"/></svg>