<svg id="Layer_1" data-name="Layer 1" xmlns="http://www.w3.org/2000/svg" viewBox="0 0 251 139"><defs><style>.cls-1{fill:#fff;}</style></defs><title>LD_website logo</title><path class="cls-1" d="M133.73,114.18a2.56,2.56,0,0,0-2.64-2.08c-1.89,0-3.13,1.53-3.13,3.85s1.24,4,3.08,4a2.81,2.81,0,0,0,2.81-2.74h1.41a4.47,4.47,0,0,1-.84,2.28,4,4,0,0,1-3.42,1.68,4.1,4.1,0,0,1-3.45-1.68A5.79,5.79,0,0,1,126.5,116c0-3,1.9-5.1,4.6-5.1a3.84,3.84,0,0,1,4,3.17Z"/><path class="cls-1" d="M137.82,114.46a2.86,2.86,0,0,1,2.12-.86,2.26,2.26,0,0,1,2.48,2.57v4.76h-1.36v-4.54a1.6,1.6,0,0,0-.29-1.16,1.42,1.42,0,0,0-1.09-.41,1.73,1.73,0,0,0-1.86,1.92v4.2h-1.36V111.1h1.36v3.36Z"/><path class="cls-1" d="M148.44,117.28a5.12,5.12,0,0,1-.84.26l-1.39.33A1.19,1.19,0,0,0,145,119a1.16,1.16,0,0,0,1.33,1.09,2,2,0,0,0,2.09-1.86v-0.91ZM144,116.17a2.7,2.7,0,0,1,.57-1.74,3.1,3.1,0,0,1,2.31-.81c1.75,0,2.77.84,2.77,2.32v3.34c0,0.56.07,0.68,0.38,0.68a0.88,0.88,0,0,0,.35-0.07v1a4.89,4.89,0,0,1-.88.1,1,1,0,0,1-1.06-1,3.3,3.3,0,0,1-2.46,1,2.11,2.11,0,0,1-2.33-2.11c0-1.15.72-1.86,2.15-2.15l1.58-.31c0.85-.16,1-0.3,1-0.74,0-.69-0.6-1.12-1.56-1.12a1.54,1.54,0,0,0-1.43.61,1.86,1.86,0,0,0-.16.87H144Z"/><path class="cls-1" d="M152.61,113.81v1.12a4.11,4.11,0,0,1,.59-0.75,2,2,0,0,1,1.27-.56,1.62,1.62,0,0,1,.75.18V115a2.71,2.71,0,0,0-.62-0.07,2.07,2.07,0,0,0-1.93,2.24v3.74h-1.36v-7.12h1.3Z"/><path class="cls-1" d="M156.37,120.93h1.36v-7.12h-1.36v7.12Zm0-8.26h1.36V111.1h-1.36v1.58Z"/><path class="cls-1" d="M162.46,114.89h-1.28v4.47a0.54,0.54,0,0,0,.53.65,2.38,2.38,0,0,0,.75-0.19v1.1a5.29,5.29,0,0,1-1.13.16c-1,0-1.5-.56-1.5-1.73v-4.47h-1v-1.07h1v-2.26h1.36v2.26h1.28v1.07Z"/><path class="cls-1" d="M170,113.81l-3.14,8a1.81,1.81,0,0,1-1.8,1.4A3,3,0,0,1,164,123v-1.11a2.14,2.14,0,0,0,.86.19,1,1,0,0,0,1-.74l0.19-.56-2.95-6.94h1.46l1.58,4.07c0.24,0.62.28,0.72,0.53,1.5,0.16-.53.4-1.27,0.49-1.5l1.47-4.07H170Z"/><path class="cls-1" d="M138.86,55.76a6.51,6.51,0,0,0-3.47-1c-2.28,0-4.37,1.38-4.37,4a3.83,3.83,0,0,0,4,4,4.58,4.58,0,0,0,1.76-.34s0-1.92,0-2.2h-2.74L135.27,58h4.39c0,0.3-.05,5.59-0.05,5.59a12.78,12.78,0,0,1-5,1.12c-3.35,0-6.72-1.76-6.72-6,0-3.66,2.91-6.16,7.14-6.16a12,12,0,0,1,3.81.61v2.59Z"/><path class="cls-1" d="M141.24,64.45V56.33h2.68V58L145,56.33a4.79,4.79,0,0,1,1.45-.21,2.09,2.09,0,0,1,.49,0v2.61a3.13,3.13,0,0,0-1.84-.69,2.2,2.2,0,0,0-1.23.34v6h-2.68Z"/><path class="cls-1" d="M153.46,59.37a1.57,1.57,0,0,0-1.56-1.66,1.78,1.78,0,0,0-1.66,1.66h3.22Zm-3.17,1.43c0.16,0.8.59,2.09,2.82,2.09a7,7,0,0,0,2.63-.54l-1.16,2a10.11,10.11,0,0,1-2.32.26,5.53,5.53,0,0,1-3.4-1,4.31,4.31,0,0,1,3-7.49c1.94,0,4.21.9,4.21,4.4V60.8h-5.73Z"/><path class="cls-1" d="M161.64,60.95c-0.11,0-.54,0-0.8,0-0.71,0-1.71.2-1.71,1.13a1.05,1.05,0,0,0,1.28,1,3.12,3.12,0,0,0,1.23-.28V60.95Zm0.05,3.5c0-.43-0.05-0.84-0.05-1.25l-1.1,1.36a5.63,5.63,0,0,1-1,.08c-1.58,0-3-.77-3-2.53,0-.69.33-2.74,3.78-2.74a10.44,10.44,0,0,1,1.26.1,1.53,1.53,0,0,0-1.74-1.63,6.12,6.12,0,0,0-2.63.64l1.2-2.09a10.14,10.14,0,0,1,2.2-.26c1.55,0,3.47.48,3.47,2.86V63.1c0,0.39,0,1,.07,1.35h-2.51Z"/><path class="cls-1" d="M165.68,56.33h0.21V54.87l2.6-.8v2.27h2V58.2h-2v3.12a1.23,1.23,0,0,0,1.38,1.44,3.65,3.65,0,0,0,1.13-.2l-1.38,1.91a5.52,5.52,0,0,1-1.18.15,2.22,2.22,0,0,1-2.55-2.46v-4h-1.2Z"/><path class="cls-1" d="M114,76.47c2,0,3.12-1.89,3.12-3.7,0-1.61-.69-4-3.12-4-1.58,0-3.16,1.25-3.16,3.86,0,1.82,1,3.79,3.16,3.79m0-9.89c2.82,0,6.27,1.73,6.27,6A6,6,0,0,1,114,78.77c-4.24,0-6.41-2.82-6.41-6.09,0-3,2-6.1,6.39-6.1"/><path class="cls-1" d="M121.45,78.48V70.36h2.68V72l1.13-1.64a4.79,4.79,0,0,1,1.45-.21,2.08,2.08,0,0,1,.49,0v2.61a3.15,3.15,0,0,0-1.84-.69,2.19,2.19,0,0,0-1.23.35v6h-2.68Z"/><path class="cls-1" d="M138.88,78.48V74c0-1-.16-1.87-1.36-1.87a2.51,2.51,0,0,0-1.41.48v5.91h-2.66v-4.7a1.39,1.39,0,0,0-1.3-1.68,3,3,0,0,0-1.48.43v5.95H128V70.36h2.66v1.71l1.17-1.64a5.3,5.3,0,0,1,1.63-.28,2.33,2.33,0,0,1,2.59,2l1.22-1.69a5.84,5.84,0,0,1,1.71-.26,2.34,2.34,0,0,1,2.57,2.42v5.91h-2.66Z"/><path class="cls-1" d="M146.86,71.93c-1,0-1.61.77-1.61,2.49s0.72,2.46,1.61,2.46,1.56-.79,1.58-2.45c0-.67-0.07-2.51-1.58-2.51m2.84,5.86a4.55,4.55,0,0,1-2.87.89,4,4,0,0,1-4.37-4.24,4.16,4.16,0,0,1,4.44-4.27,4,4,0,0,1,4.32,4.3,4.19,4.19,0,0,1-1.51,3.32"/><path class="cls-1" d="M157.81,78.48V74.26c0-1.41-.3-2.14-1.48-2.14a2.29,2.29,0,0,0-1.4.53v5.83h-2.59V70.36h2.59V72.2l1.3-1.79a4.7,4.7,0,0,1,1.51-.25c2.12,0,2.68,1.41,2.68,2.83v5.49h-2.61Z"/><path class="cls-1" d="M167.39,72.48a2,2,0,0,0-1.2-.41c-1.38,0-1.82,1.31-1.82,2.45,0,1.66.9,2.3,1.82,2.3a2.22,2.22,0,0,0,1.2-.36v-4Zm0,6V76.84l-1.11,1.64a3.73,3.73,0,0,1-1.18.19c-2.7,0-3.47-2.53-3.47-4.17,0-2.53,1.6-4.34,3.75-4.34a3.4,3.4,0,0,1,2,.61V66.88H170v11.6h-2.66Z"/><path class="cls-1" d="M132.09,83.77a4.07,4.07,0,0,0-2.63-1A1.32,1.32,0,0,0,127.92,84a1.78,1.78,0,0,0,1.41,1.44l0.84,0.35a3.51,3.51,0,0,1,2.5,3.32,3.56,3.56,0,0,1-.39,1.63,4.37,4.37,0,0,1-4,2.09,9.38,9.38,0,0,1-3.4-.7V89.5a5.24,5.24,0,0,0,3,1.15,1.44,1.44,0,0,0,1.69-1.38c0-.59-0.33-1.05-1.33-1.45l-0.66-.26a3.67,3.67,0,0,1-2.71-3.4c0-.56.39-3.55,4.2-3.55a6.53,6.53,0,0,1,3,.67v2.48Z"/><path class="cls-1" d="M134,84.4h0.21V82.93l2.59-.8V84.4h2v1.87h-2v3.12a1.23,1.23,0,0,0,1.38,1.44,3.59,3.59,0,0,0,1.13-.2L138,92.54a5.38,5.38,0,0,1-1.18.15,2.22,2.22,0,0,1-2.55-2.46v-4H133Z"/><path class="cls-1" d="M140.12,92.51V84.4h2.68V86l1.13-1.64a4.87,4.87,0,0,1,1.44-.21,2.11,2.11,0,0,1,.49,0v2.61a3.13,3.13,0,0,0-1.84-.69,2.2,2.2,0,0,0-1.23.34v6h-2.68Z"/><path class="cls-1" d="M152.46,87.43a1.57,1.57,0,0,0-1.56-1.66,1.78,1.78,0,0,0-1.66,1.66h3.22Zm-3.17,1.43c0.16,0.8.59,2.09,2.82,2.09a7,7,0,0,0,2.63-.54l-1.17,2a10,10,0,0,1-2.32.27,5.52,5.52,0,0,1-3.4-1,4.09,4.09,0,0,1-1.39-3.25,4,4,0,0,1,4.35-4.24c1.94,0,4.21.9,4.21,4.4v0.26h-5.73Z"/><path class="cls-1" d="M161.92,87.43a1.57,1.57,0,0,0-1.56-1.66,1.78,1.78,0,0,0-1.66,1.66h3.22Zm-3.17,1.43c0.16,0.8.59,2.09,2.82,2.09a7,7,0,0,0,2.63-.54l-1.17,2a10,10,0,0,1-2.32.27,5.53,5.53,0,0,1-3.4-1,4.31,4.31,0,0,1,3-7.49c1.94,0,4.21.9,4.21,4.4v0.26h-5.73Z"/><path class="cls-1" d="M165.68,84.4h0.21V82.93l2.6-.8V84.4h2v1.87h-2v3.12a1.23,1.23,0,0,0,1.38,1.44,3.59,3.59,0,0,0,1.13-.2l-1.38,1.91a5.36,5.36,0,0,1-1.18.15,2.22,2.22,0,0,1-2.55-2.46v-4h-1.2Z"/><polygon class="cls-1" points="117.36 106.54 117.36 101.6 112.84 101.6 112.84 106.54 109.82 106.54 109.82 94.94 112.84 94.94 112.84 99.28 117.36 99.28 117.36 94.94 120.4 94.94 120.4 106.54 117.36 106.54"/><path class="cls-1" d="M126.15,100c-1,0-1.61.77-1.61,2.5s0.72,2.46,1.61,2.46,1.56-.79,1.58-2.45c0-.67-0.07-2.51-1.58-2.51m2.84,5.87a4.55,4.55,0,0,1-2.87.89,4,4,0,0,1-4.37-4.24,4.16,4.16,0,0,1,4.44-4.27,4,4,0,0,1,4.32,4.3,4.19,4.19,0,0,1-1.51,3.32"/><path class="cls-1" d="M131.5,104.11a4.33,4.33,0,0,0,2.26.87,1,1,0,0,0,1.09-.85,1.12,1.12,0,0,0-1-.94l-0.74-.26a2.26,2.26,0,0,1-1.69-2.1c0-1,.76-2.6,3.16-2.6a6.19,6.19,0,0,1,2.51.56v2a2.82,2.82,0,0,0-2-.85,0.88,0.88,0,0,0-1,.82,1.11,1.11,0,0,0,.89.87l0.9,0.34a2.26,2.26,0,0,1,1.66,2.17c0,0.62-.38,2.61-3.3,2.61a6.64,6.64,0,0,1-2.78-.59v-2Z"/><path class="cls-1" d="M141.33,104.37a1.82,1.82,0,0,0,1.23.46c1,0,1.76-.87,1.76-2.45,0-1.74-1-2.32-1.82-2.32a2.44,2.44,0,0,0-1.17.33v4Zm0,5.6h-2.68V98.43h2.68v1.62l1.1-1.62a3.28,3.28,0,0,1,1.12-.2c2.84,0,3.52,2.6,3.52,4.12,0,2.35-1.32,4.39-3.78,4.39a3.54,3.54,0,0,1-2-.59V110Z"/><path class="cls-1" d="M149.63,97.47a1.3,1.3,0,0,1-1.3-1.31,1.3,1.3,0,1,1,1.3,1.31m-1.32,1H151v8.11h-2.65V98.43Z"/><path class="cls-1" d="M152.61,98.43h0.21V97l2.59-.8v2.27h2v1.87h-2v3.12a1.24,1.24,0,0,0,1.38,1.44,3.76,3.76,0,0,0,1.13-.2l-1.38,1.9a5.36,5.36,0,0,1-1.18.15,2.22,2.22,0,0,1-2.55-2.46v-4h-1.2Z"/><path class="cls-1" d="M163.63,103c-0.12,0-.55,0-0.81,0-0.71,0-1.71.19-1.71,1.13a1.05,1.05,0,0,0,1.28,1,3.17,3.17,0,0,0,1.23-.28V103Zm0,3.5c0-.43,0-0.84,0-1.25l-1.1,1.36a5.32,5.32,0,0,1-1,.09c-1.58,0-3-.77-3-2.53,0-.69.33-2.74,3.78-2.74a10.6,10.6,0,0,1,1.27.1,1.53,1.53,0,0,0-1.74-1.63,6.12,6.12,0,0,0-2.63.64l1.2-2.09a10,10,0,0,1,2.2-.26c1.54,0,3.47.47,3.47,2.86v4.11c0,0.39,0,1,.06,1.35h-2.51Z"/><rect class="cls-1" x="167.39" y="94.95" width="2.68" height="11.6"/><path class="cls-1" d="M123.62,37.54a0.15,0.15,0,0,1,.09.16s0,0,0,0a0.15,0.15,0,0,0,0-.07,0.1,0.1,0,0,1-.06-0.07s0,0,0,0a0.07,0.07,0,0,0,0-.06s0,0,0,0,0,0-.06,0a0.75,0.75,0,0,1,0,.08"/><path class="cls-1" d="M88.63,51.19s0,0,0,0,0.05,0,.09.06a0.05,0.05,0,0,1,0,0,0.07,0.07,0,0,1,0-.07,0.2,0.2,0,0,0-.08,0,0.07,0.07,0,0,0,0,0"/><path class="cls-1" d="M95.31,57.11s0.05,0,.05,0a0.18,0.18,0,0,0,.08,0,0.41,0.41,0,0,0,0,0,0.25,0.25,0,0,1,0,.05A0.18,0.18,0,0,0,95.31,57a0.74,0.74,0,0,1,0,.07"/><path class="cls-1" d="M102.79,56.25s0-.07.1,0a0.16,0.16,0,0,0,0,.07h0a0,0,0,0,1,0,0s0,0,0,0a0.13,0.13,0,0,0,.08,0,0.13,0.13,0,0,0,0-.06s0,0,0,0a0.21,0.21,0,0,0,0,0l0-.05c0-.05.05-0.15,0.15-0.14a0,0,0,0,1,0,0l0,0a0.06,0.06,0,1,1,.12,0l0.07,0a0.19,0.19,0,0,0,0-.05,0.05,0.05,0,0,0,0,0,0.24,0.24,0,0,0,0,.11s0,0,0,0,0,0,0,0,0,0,0,0,0.22-.06.27,0,0,0,0,0,0,0,.05.05,0-.05.06,0a0.16,0.16,0,0,1,0-.09,0.08,0.08,0,0,0,.08,0,0.13,0.13,0,0,0,0,.06s-0.07,0,0,0a0.16,0.16,0,0,1,.09,0s0,0,0,.06-0.05,0-.06,0a0.15,0.15,0,0,0,.12,0s0,0,0,0a0.1,0.1,0,0,0,0,0,0.61,0.61,0,0,0,.19,0,0.13,0.13,0,0,0,.12,0,0.29,0.29,0,0,1,0,0,0.11,0.11,0,0,0,.14,0,1.19,1.19,0,0,1,.27,0c0.11-.08.31,0,0.41-0.07a3.26,3.26,0,0,0,.51,0,0.12,0.12,0,0,1,0,0,2.17,2.17,0,0,0,.3,0l0,0a0.94,0.94,0,0,0,.43-0.22,1.23,1.23,0,0,0,.25-0.78,0.72,0.72,0,0,0-.78-0.67s-0.09,0-.14,0a2.81,2.81,0,0,0-.63.07,0.45,0.45,0,0,1-.2,0,0.93,0.93,0,0,1-.14-0.06,0.71,0.71,0,0,0-.51,0s0,0,0,0a0.06,0.06,0,0,1,0,.05,2.11,2.11,0,0,0-.42-0.08c-0.22,0-.51,0-0.69,0s-0.29,0-.4,0A4.65,4.65,0,0,1,102,54s-0.14,0-.21,0a0.13,0.13,0,0,0-.1,0,1.56,1.56,0,0,1-.19-0.06h-0.05a1.11,1.11,0,0,0-.34-0.07,0.06,0.06,0,0,0,0,0,3.9,3.9,0,0,1-1.5-.66,0.15,0.15,0,0,1,0,0A0.9,0.9,0,0,1,99.4,53a2.51,2.51,0,0,1-.49-0.42,0.38,0.38,0,0,1-.16-0.16,0.5,0.5,0,0,1-.12-0.11,2,2,0,0,1-.32-0.34,7.29,7.29,0,0,1-.49-0.54l0,0c-0.25-.32-0.52-0.61-0.74-1a1.47,1.47,0,0,0-.8-0.73l0,0a0.58,0.58,0,0,0-.41.05,2,2,0,0,0-.78.18,0.44,0.44,0,0,1-.16.1,1,1,0,0,0-.19,0,1,1,0,0,0-.13.07A0.17,0.17,0,0,1,94.41,50a0.15,0.15,0,0,0-.14,0c-0.14.07-.29,0.12-0.43,0.17s-0.11.32-.2,0.38a0.06,0.06,0,0,1-.08,0,0.5,0.5,0,0,0,0-.11s0,0,0,.08a0.15,0.15,0,0,0-.05,0,0.19,0.19,0,0,0,0,.06s-0.18.18,0,.2a0.18,0.18,0,0,1,.08,0,5.08,5.08,0,0,1,0,.6,0.06,0.06,0,0,0,0,0,2.29,2.29,0,0,1,.23.4s0.06,0,.1,0a0.09,0.09,0,0,0,.11,0,0.26,0.26,0,0,0,.27.32s0,0,0,0a0.08,0.08,0,0,1,0,.07,0.06,0.06,0,0,1,0,0,0.3,0.3,0,0,1,0,.08s0,0,.06,0a0,0,0,0,1,.06,0,0.1,0.1,0,0,1,.08,0s0,0,0,0a0.22,0.22,0,0,1,.09.16h0a0.15,0.15,0,0,1,0,.07s0.06,0,.05.05a0.09,0.09,0,0,1-.08,0,0,0,0,0,1,0,0s0-.16,0-0.17,0,0.05,0,0,0,0,0,0h0.07s0,0.07,0,.09a0.23,0.23,0,0,0,0-.08c0.12,0,0,.14.13,0.13,0-.05-0.1,0,0,0a0.12,0.12,0,0,0,.09,0,0.42,0.42,0,0,0-.05-0.11,0.18,0.18,0,0,0,0,0,0.16,0.16,0,0,0,.1,0s0,0,0,0a0.16,0.16,0,0,1-.09.08,0.11,0.11,0,0,1,0,.08,0.08,0.08,0,0,0,0,0,0,0,0,0,0,.05,0,0.49,0.49,0,0,0,0,.1,0.32,0.32,0,0,1,.13,0,0,0,0,0,0,.06,0,0.16,0.16,0,0,1,0,.09,0.19,0.19,0,0,1,.09,0,0.13,0.13,0,0,0,0,0s0,0,0,.07,0.14,0.07.2,0.14a0.55,0.55,0,0,1,.21.12,0.09,0.09,0,0,0,0,.08h0a0.39,0.39,0,0,1,0,.05s0,0,0,0a0.49,0.49,0,0,1,0,.11s0,0,.07,0a0.05,0.05,0,0,1,0,0,0.1,0.1,0,0,1,0,0s0.09,0,.11.07a0,0,0,0,1,0,0s0,0,.07,0,0,0,0,0,0,0,0,0a0.14,0.14,0,0,0,.05,0,0.08,0.08,0,0,0,0-.08h0a0.31,0.31,0,0,1,.12.12,0.1,0.1,0,0,0,0,0,0,0,0,0,0,0,.05s0,0,0,0a0.41,0.41,0,0,0-.06.05,0.3,0.3,0,0,0,0,.07,0.07,0.07,0,0,0,0-.07s0,0,0,0a0.15,0.15,0,0,0,.11-0.05s0.06,0,.06,0,0,0,0,0,0.05,0,.08,0,0,0,0,0a0.33,0.33,0,0,1,.06.14h0s0,0,0,0a0.09,0.09,0,0,0,0,.05s0,0,0,0,0,0,0,0l0,0.07L96.44,54a0.29,0.29,0,0,1,.14,0s0,0,0,.06a0.07,0.07,0,0,1,0,0,0.09,0.09,0,0,1-.06,0s0,0,0,0a0.39,0.39,0,0,1,.09.09,0.45,0.45,0,0,1,.07,0s0.13,0,.11.1,0,0,0,0a0.09,0.09,0,0,0,0,.06s0,0,0,0a0.14,0.14,0,0,1,.08.1,0,0,0,0,1,0,0s0.07,0,0,.08a0.14,0.14,0,0,1,.1.08,0.36,0.36,0,0,1,.12.09s0,0,0,0v0a0.85,0.85,0,0,1,.18.13h0c0.05,0.08.17,0.11,0.23,0.19s0,0,0,0,0.18,0.1.24,0.15,0,0,0,0c0.25,0.16.57,0.31,0.86,0.46a0.64,0.64,0,0,1,.28.13s0,0,0,0a1.6,1.6,0,0,1,.28.12,0,0,0,0,1,0,0s0.12,0,.16.07,0,0,0,0,0,0,0,0a0.26,0.26,0,0,0,.09.07,0.12,0.12,0,0,1,.06,0s0,0.06,0,.05,0.08-.06.11,0,0,0,0,.05H99.79a0.07,0.07,0,0,0,0,0,0.6,0.6,0,0,1,.12,0,0.05,0.05,0,0,0,.06,0,0.27,0.27,0,0,0,0-.06,0.06,0.06,0,0,0,.08,0s0,0,0,.06h0a0.12,0.12,0,0,1,0,0s0,0,0,0,0,0,0,0,0,0,0,0l0,0a0,0,0,0,1,0,0s0,0,0,0l0-.05s0,0,.06,0a0.35,0.35,0,0,1,0,0,0.19,0.19,0,0,1,0,0,0.24,0.24,0,0,1,.06,0,0.43,0.43,0,0,0,0-.08s0.07,0.07.05,0a0.61,0.61,0,0,0,.08,0,0,0,0,0,0,0,.06,0.37,0.37,0,0,1,.21,0s0,0,0,.05a0,0,0,0,1,0,0s0,0,0,0a0.2,0.2,0,0,1,.05,0s0,0,.1,0a0.4,0.4,0,0,0,.06.08l0.07,0a0.22,0.22,0,0,1,0,0,0.09,0.09,0,0,1,.11,0,0.1,0.1,0,0,1,0-.05,0.07,0.07,0,0,0,.09,0s0,0,0,0,0,0,0,0a0.25,0.25,0,0,1,0-.05h0.11s0,0,0,.07l0.1,0a0.15,0.15,0,0,1,0,.08s0,0,0,.05a0.09,0.09,0,0,0-.09,0,0.5,0.5,0,0,0,.17,0s0,0,.08,0,0,0,0,0a0.29,0.29,0,0,0,0,0s0,0,.08,0a0.2,0.2,0,0,1,0,0l0,0a0.14,0.14,0,0,0,.17,0s0.13,0,.11.07a0.21,0.21,0,0,1-.05,0,0.09,0.09,0,0,1,0,.07s0,0,.05,0a0.33,0.33,0,0,1,.21,0s0,0,0,.05a0.09,0.09,0,0,1,.08,0c0-.06.1,0,0.13-0.06s0,0,0,0a0.11,0.11,0,0,0,.13,0v0a0.6,0.6,0,0,1,.15,0c0.05,0,.13-0.1.18-0.06s0,0,0,0"/><path class="cls-1" d="M96.22,50.62a0.06,0.06,0,0,0,.05,0,0.07,0.07,0,0,0,0,0c0.06-.05-0.07-0.14-0.08-0.05"/><path class="cls-1" d="M109.32,42.9s0,0.08.09,0.06a0.12,0.12,0,0,0,0-.08,0.2,0.2,0,0,1,.07-0.08,0.55,0.55,0,0,1-.06-0.09s0,0,0,0a1.09,1.09,0,0,0,.09-0.12,0.14,0.14,0,0,1,.08.06c0.05,0,0,0,0-.07s0,0,0,0a0.15,0.15,0,0,1,0-.16l0.12,0,0.06-.06,0-.15a0.37,0.37,0,0,0,.11-0.29,0.05,0.05,0,0,0,0-.06,1.26,1.26,0,0,1,.3-0.31,0,0,0,0,1,0,0,1.82,1.82,0,0,1,.38-0.26s0,0,0,0,0,0,0,0a0.78,0.78,0,0,0,.38-0.21c0,0.1.16,0,.23,0s0,0,0,0a0.44,0.44,0,0,1,.29,0l0.26-.06s0,0,0,0a0.25,0.25,0,0,1,.18,0l0,0h0.08a1,1,0,0,0,.5.21,0.23,0.23,0,0,0,.22.13c0.05,0.07.12,0.14,0.17,0.22a1,1,0,0,1,.27.23,1.3,1.3,0,0,1,.39.36,1.88,1.88,0,0,1,.11.31,2.93,2.93,0,0,1,.1.33,0.71,0.71,0,0,1,.08.21,0.42,0.42,0,0,0,0,.22c0,0.06.07,0.12,0.09,0.18a3.33,3.33,0,0,1-.06.43c-0.06.27,0,.61-0.11,0.87a0.09,0.09,0,0,0,0,0,0.67,0.67,0,0,1-.21.37c-0.1.2-.25,0.36-0.35,0.55s-0.27.12-.41,0.21a4,4,0,0,1-.37.24l-0.27.1a0.44,0.44,0,0,1-.13,0h0c-0.06,0-.13,0-0.2.06a1.15,1.15,0,0,1-.31,0,4.73,4.73,0,0,1-.88-0.2,1.76,1.76,0,0,1-.46-0.16l-0.22-.1s0,0,0-.06a0.89,0.89,0,0,1-.17-0.16,0.3,0.3,0,0,0,0-.07l-0.08,0s0,0,.07,0a0.14,0.14,0,0,0,0,0,0.09,0.09,0,0,1,0,0c0-.07-0.05,0-0.08,0a0,0,0,0,1,0,0,0.13,0.13,0,0,1-.15,0,0.77,0.77,0,0,1-.13-0.32,3,3,0,0,1-.12-0.33,0.15,0.15,0,0,1,.14,0,1.36,1.36,0,0,0,0-.2h0a0.3,0.3,0,0,0-.08-0.09,0.62,0.62,0,0,1,0-.07l0,0c0-.08.11-0.29-0.05-0.32a0.11,0.11,0,0,0-.05-0.08,0.3,0.3,0,0,1,.1,0,1.47,1.47,0,0,1-.25-0.4,0.5,0.5,0,0,1,.08,0,0.85,0.85,0,0,1,0-.25c0.06,0,0,0,.06,0a0.18,0.18,0,0,1,0-.09,0.21,0.21,0,0,0-.12-0.12,0.06,0.06,0,0,1,0-.06,0.8,0.8,0,0,1,0-.08h0s0-.1.08-0.09,0-.09,0-0.09,0,0,0-.07m6.23,2.19,0.05,0a0.29,0.29,0,0,0,0-.25,0.88,0.88,0,0,1,0-.31,1.55,1.55,0,0,1,0-.2,3.45,3.45,0,0,0,0-.58s0-.07,0-0.09a3.45,3.45,0,0,0,0-.62,4.66,4.66,0,0,0-.06-0.69c0-.21-0.16-0.41-0.22-0.62s-0.06-.13-0.07-0.21a2.57,2.57,0,0,0-.29-0.65,5.23,5.23,0,0,0-.75-0.77,5.53,5.53,0,0,0-1.12-.63,1.39,1.39,0,0,1-.34-0.13c-0.12,0-.22-0.07-0.33-0.09h-0.05l-0.3-.08-0.25,0a0.44,0.44,0,0,1-.23,0,2.69,2.69,0,0,0-.55,0l-0.29.08c-0.07,0-.09,0-0.15,0a7.56,7.56,0,0,0-.8.12,8.64,8.64,0,0,0-.93.53,0.9,0.9,0,0,0-.36.39s-0.08,0-.09,0a0.08,0.08,0,0,0,0-.07c-0.09,0-.13.06-0.23,0.09s0,0.08.08,0.1a0.43,0.43,0,0,1-.12.14s0,0-.05,0a0.12,0.12,0,0,0,0,.12,0.53,0.53,0,0,1-.13.16,0.63,0.63,0,0,1,0-.12,0.09,0.09,0,0,1-.1,0s0,0,0,.09a0.08,0.08,0,0,1-.06,0s0-.09,0-0.09a0.31,0.31,0,0,1,0,.07c0.06,0,0,.16,0,0.19a0.07,0.07,0,0,0-.08,0,0.3,0.3,0,0,0,0,.1,0,0,0,0,1,.05,0v0s0,0,.06,0a0.11,0.11,0,0,0,0,0c0-.05-0.16,0-0.09,0l0.07,0s0,0.07,0,.05a0.18,0.18,0,0,0,0,0s0,0,0,.07,0,0,0,0l-0.07.05a0.24,0.24,0,0,1,0,0,0.46,0.46,0,0,1-.09,0,0.09,0.09,0,0,1,0,.08,0,0,0,0,1,0,0,0.12,0.12,0,0,0,0,0s-0.06,0-.08,0a0.32,0.32,0,0,1,0,.1c-0.1,0,0-.11-0.1-0.14a0.2,0.2,0,0,1-.07.11,0.08,0.08,0,0,0,.06,0s0,0,0,0a0,0,0,0,0,0,0s0.05,0,.07,0a0.1,0.1,0,0,1,0,.08s0,0-.05,0,0,0,0,.08,0,0,0,0a0.15,0.15,0,0,0,0,.06,0.21,0.21,0,0,1-.05,0,0.36,0.36,0,0,1,.06.09s-0.06.05-.09,0,0,0.06.07,0.1,0,0,0,0,0,0,0,0a0.07,0.07,0,0,1,.05,0,0.53,0.53,0,0,1,0,.07,0,0,0,0,1,0,0s0,0,0-.06a0.18,0.18,0,0,1,0,0,0.19,0.19,0,0,0-.08-0.06,0.33,0.33,0,0,0,0,.07s0,0-.07,0a0,0,0,0,0-.05,0,0,0,0,0,1,0-.07,0.1,0.1,0,0,1,0-.1l-0.09,0s0,0.06,0,0a0.14,0.14,0,0,1,0,.08s0,0,0,0a0.15,0.15,0,0,0,0,0,0.05,0.05,0,0,0-.06,0s0,0,0,0h0a0.15,0.15,0,0,0,.15.12s0,0,0,0a0.22,0.22,0,0,1,0,0,0.12,0.12,0,0,1,.08,0,0.13,0.13,0,0,0,0,.13h0a0.08,0.08,0,0,1,0-.08,0.14,0.14,0,0,1-.08,0s-0.05.09-.12,0.06a0.33,0.33,0,0,0,.11.13,0,0,0,0,1,0,0s0,0.09,0,.12,0,0,0,0a0.12,0.12,0,0,0,0,.07,0.1,0.1,0,0,1-.08,0,0.92,0.92,0,0,0,.09.07c0,0.08-.12.07-0.09,0s0,0,0,0a0.21,0.21,0,0,0,0,0,0.13,0.13,0,0,1,0,0c0,0.05,0,0,.06.05a0.1,0.1,0,0,1,0,0,0.07,0.07,0,0,0-.05-0.05,0.15,0.15,0,0,1,0,.07,0.13,0.13,0,0,1,.15.06,0.1,0.1,0,0,0-.07,0,0.57,0.57,0,0,0,0,.1s0,0,0,0a0.06,0.06,0,0,1,0,0,0.23,0.23,0,0,0,0,.12s0,0,0,0a0.69,0.69,0,0,1,0,.26s0,0,0,.08a0.08,0.08,0,0,0,0,0,0.25,0.25,0,0,0,0,.29l0,0a0.14,0.14,0,0,0,.05.05h0a0.4,0.4,0,0,1,0,.2,0.16,0.16,0,0,0,.05.12s-0.06.07,0,.11a0.37,0.37,0,0,0,.07,0s0,0.13,0,.13a0.34,0.34,0,0,1,0,0,0.05,0.05,0,0,0-.06,0,0.47,0.47,0,0,1,.07,0,0.58,0.58,0,0,1,0,.19,0,0,0,0,0,0,0,0,0,0,0,0,0,.05,0.19,0.19,0,0,0,0,0,0.08,0.08,0,0,1,0,.06,0.13,0.13,0,0,1,.06.1,5.11,5.11,0,0,0,.13.8,1.14,1.14,0,0,0,.11.37h0a1.7,1.7,0,0,1,.17.28,0,0,0,0,1,0,.05h0a0.76,0.76,0,0,1,.13.23s0.05,0,.07,0h0a0.85,0.85,0,0,1,.07.09,2.72,2.72,0,0,0,.51.42,2.14,2.14,0,0,1,.37.25,0.21,0.21,0,0,0,0,.07c0.15,0.06.24,0.14,0.37,0.2s0,0,0,0a0.19,0.19,0,0,0,.05,0c0,0.05.2,0,.19,0.09a1.49,1.49,0,0,0,.66.16,0.57,0.57,0,0,1,0,.08,0.45,0.45,0,0,1,.2.11,0.19,0.19,0,0,1,.2,0c0.22,0,.39,0,0.58,0a2,2,0,0,0,.46,0,0.07,0.07,0,0,0,.05,0,0.27,0.27,0,0,0,0-.08c0.06,0,.05,0,0.08.07a1.14,1.14,0,0,0,.49,0,0,0,0,0,0,0,0,0.06,0.06,0,0,0,0-.05,2.48,2.48,0,0,1,.39-0.09,0,0,0,0,1,0,0c0.18,0,.34-0.13.53-0.17a0.34,0.34,0,0,1,.2-0.08,0.66,0.66,0,0,1,.06-0.05,0.41,0.41,0,0,1,.2,0,1.21,1.21,0,0,0,.3-0.15,0.42,0.42,0,0,1,.21-0.15,0.09,0.09,0,0,1,.09-0.08s0,0,0,0h0s0,0,0,0,0-.08.07-0.06a0.19,0.19,0,0,1,.13-0.16,0.14,0.14,0,0,1,0,.06,0.14,0.14,0,0,0,.09,0,0.17,0.17,0,0,0-.06-0.12s0-.08.07-0.07,0,0,0,0a0,0,0,0,0,0,0,0.08,0.08,0,0,1,0,0s0,0.08,0,.08a0.24,0.24,0,0,0,0,0s0,0,0,0a0.52,0.52,0,0,0,.06,0,0.24,0.24,0,0,0-.06-0.11l0,0a0,0,0,0,1,0-.07,0.16,0.16,0,0,1,0,0,0.17,0.17,0,0,1,0-.15s0,0,0,.05a0.18,0.18,0,0,0,.06-0.07,0.1,0.1,0,0,1,0-.08,0.28,0.28,0,0,1,.1-0.23s0,0,0,0a0.29,0.29,0,0,0,.07,0,0.39,0.39,0,0,1,0-.08s0,0.05,0,.08,0,0,0,0,0,0.05,0,0a1,1,0,0,0,0-.18h0s0,0,0,0,0,0,.06,0a0.54,0.54,0,0,1,0-.2s0,0,0,0a0.17,0.17,0,0,1,0,0,0.16,0.16,0,0,0-.06-0.08,0.88,0.88,0,0,0,0-.11,0,0,0,0,1,0,.05l0.05,0s0,0,0,0a0.23,0.23,0,0,1-.05-0.11,0.1,0.1,0,0,1,.07-0.06,1.31,1.31,0,0,0,0-.2,0.07,0.07,0,0,0,.05-0.05s0,0,0,0a0.09,0.09,0,0,1,0-.09,0.07,0.07,0,0,1,0,0,0.1,0.1,0,0,0,.08,0s0.07,0,.11.05"/><path class="cls-1" d="M101.4,56.17a0.06,0.06,0,0,0,.07,0l0,0s0,0,0,0l-0.09,0a0.1,0.1,0,0,1,0,.06m-7.53-4.6a0.26,0.26,0,0,0,.09.13c0-.08,0-0.18-0.09-0.13m9,4.66s-0.13,0-.18.06a0.6,0.6,0,0,0-.15,0v0a0.11,0.11,0,0,1-.13,0s0,0,0,0-0.14,0-.13.06a0.09,0.09,0,0,0-.08,0s0,0,0-.05a0.33,0.33,0,0,0-.21,0,0.54,0.54,0,0,0-.05,0,0.09,0.09,0,0,0,0-.07,0.21,0.21,0,0,0,.05,0c0-.06-0.08,0-0.11-0.07a0.15,0.15,0,0,1-.17,0l0,0a0.2,0.2,0,0,0,0,0s0,0-.08,0,0,0,0,0,0,0,0,0-0.06,0-.08,0a0.57,0.57,0,0,1-.17,0s0.06,0,.09,0,0-.07,0-0.05a0.13,0.13,0,0,0,0-.08l-0.1,0s0,0,0-.07h-0.1a0.18,0.18,0,0,0,0,.05s0,0,0,0,0,0,0,0a0.07,0.07,0,0,1-.09,0s0,0,0,.05a0.09,0.09,0,0,0-.11,0,0.19,0.19,0,0,0,0,0l-0.07,0a0.41,0.41,0,0,1-.06-0.08c-0.05,0-.09,0-0.1,0a0.21,0.21,0,0,0-.05,0s0,0,0,0a0,0,0,0,0,0,0s0,0,0-.05a0.4,0.4,0,0,0-.21,0,0,0,0,0,1,0-.06,0.4,0.4,0,0,1-.08,0c0,0.05,0,0-.05,0a0.43,0.43,0,0,1,0,.08,0.05,0.05,0,0,1-.06-0.06s0,0,0,0,0-.05-0.06,0l0,0.05s0,0,0,0a0,0,0,0,0,0,0l0,0s0,0,0,0,0,0,0,0,0,0,0,0a0.13,0.13,0,0,0,0,0h0s0,0,0-.06a0.07,0.07,0,0,1-.08,0,0.21,0.21,0,0,1,0,.06,0.05,0.05,0,0,1-.06,0,0.6,0.6,0,0,0-.12,0,0.07,0.07,0,0,1,0,0h0.05s0,0,0-.05-0.13,0-.11,0,0,0,0-.05a0.12,0.12,0,0,0-.06,0,0.22,0.22,0,0,1-.09-0.07s0,0,0,0,0,0,0,0-0.12,0-.16-0.07a0,0,0,0,0,0,0,1.61,1.61,0,0,0-.28-0.12s0,0,0,0a0.67,0.67,0,0,0-.28-0.13c-0.29-.15-0.61-0.3-0.86-0.46,0,0,0,0,0,0s-0.16-.09-0.24-0.15,0,0,0,0a2.74,2.74,0,0,1-.23-0.19h0a0.82,0.82,0,0,0-.18-0.12v0s0,0,0,0A0.36,0.36,0,0,0,97,54.49a0.14,0.14,0,0,0-.1-0.08s0-.06,0-0.07a0,0,0,0,0,0,0,0.14,0.14,0,0,0-.08-0.1s0,0,0,0a0.08,0.08,0,0,1,0-.06s0,0,0,0-0.08-.06-0.11-0.1a0.29,0.29,0,0,0-.07,0,0.41,0.41,0,0,0-.09-0.1s0,0,0,0a0.1,0.1,0,0,0,.06,0,0.07,0.07,0,0,0,0,0s0,0,0-.06a0.26,0.26,0,0,0-.14,0l0.05-.05,0-.07a0.34,0.34,0,0,1,0,0s0,0,0,0a0.09,0.09,0,0,1,0-.05s0,0,0,0h0a0.31,0.31,0,0,0-.06-0.13s0,0,0,0a0.47,0.47,0,0,0-.08,0s0,0,0,0,0,0-.06,0a0.15,0.15,0,0,1-.11.05s0,0,0,0a0.07,0.07,0,0,1,0,.07,0.29,0.29,0,0,1,0-.07,0.61,0.61,0,0,1,.06-0.05s-0.06,0,0,0a0.05,0.05,0,0,1,0-.05,0.21,0.21,0,0,1,0,0A0.32,0.32,0,0,0,96,53.44h0a0.09,0.09,0,0,1,0,.08,0.13,0.13,0,0,1-.05,0s0,0,0,0,0,0,0,0-0.05,0-.07,0a0,0,0,0,0,0,0s-0.07-.11-0.11-0.07a0.09,0.09,0,0,0,0,0,0.05,0.05,0,0,0,0,0s-0.05,0-.07,0a0.42,0.42,0,0,0,0-.11s0,0,0,0a0.27,0.27,0,0,0,0-.05h0a0.09,0.09,0,0,1,0-.08,0.59,0.59,0,0,0-.21-0.12c-0.06-.07-0.14-0.07-0.2-0.14s0-.07,0-0.07a0.14,0.14,0,0,1,0,0,0.17,0.17,0,0,0-.09,0,0.16,0.16,0,0,0,0-.09,0,0,0,0,1-.06,0,0.32,0.32,0,0,0-.13,0,0.49,0.49,0,0,1,0-.1s0,0-.05,0a0.08,0.08,0,0,1,0,0,0.12,0.12,0,0,0,0-.08,0.16,0.16,0,0,0,.09-0.08s0,0,0,0a0.07,0.07,0,0,0-.1.07,0.52,0.52,0,0,1,.05.11,0.12,0.12,0,0,1-.09,0c-0.07.06,0.1,0,.12,0.07a1.06,1.06,0,0,1-.23-0.19,0.22,0.22,0,0,1,0,.08s0-.06,0-0.09H94.47s0,0,0,0,0,0,0,0,0,0.15,0,.17a0,0,0,0,0,0,0,0.09,0.09,0,0,0,.08,0s0,0-.05-0.05a0.14,0.14,0,0,0,0-.07h0a0.22,0.22,0,0,0-.09-0.16s0,0,0,0a0.11,0.11,0,0,0-.08,0,0,0,0,0,0-.06,0s0,0-.06,0a0.31,0.31,0,0,0,0-.08,0,0,0,0,0,0,0,0.09,0.09,0,0,0,0-.08s0,0,0,0A0.26,0.26,0,0,1,94,51.79a0.09,0.09,0,0,1-.11,0s-0.06,0-.1,0a2.38,2.38,0,0,0-.23-0.4,0.07,0.07,0,0,1,0,0,5,5,0,0,0,0-.6,0.16,0.16,0,0,0-.08,0c-0.15,0,0-.15,0-0.2a0.15,0.15,0,0,1,0-.06,0.16,0.16,0,0,1,.05,0s0-.08,0-0.08a0.53,0.53,0,0,1,0,.11,0.06,0.06,0,0,0,.08,0c0.08-.07.11-0.32,0.2-0.38s0.28-.11.43-0.18a0.15,0.15,0,0,1,.14,0,0.19,0.19,0,0,0,.09.07A0.91,0.91,0,0,1,94.63,50a0.82,0.82,0,0,1,.19,0,0.45,0.45,0,0,0,.16-0.1,2,2,0,0,1,.78-0.18,0.56,0.56,0,0,1,.41-0.05l0,0a1.47,1.47,0,0,1,.8.73c0.22,0.34.49,0.64,0.74,1l0,0a6.81,6.81,0,0,0,.49.54,2.1,2.1,0,0,0,.32.34,0.55,0.55,0,0,0,.12.11,0.38,0.38,0,0,0,.16.15,2.43,2.43,0,0,0,.49.42,0.9,0.9,0,0,0,.17.15h0a3.93,3.93,0,0,0,1.51.66,0.07,0.07,0,0,1,0,0,1.1,1.1,0,0,1,.34.07h0.05s0.14,0,.19.06a0.13,0.13,0,0,1,.1,0c0.07,0,.16,0,0.21,0a4.85,4.85,0,0,0,.9.17c0.11,0,.27,0,0.4,0s0.47,0,.69,0a2,2,0,0,1,.42.08,0.07,0.07,0,0,0,0-.05,0.06,0.06,0,0,1,0,0,0.71,0.71,0,0,1,.51,0,0.92,0.92,0,0,0,.14.06,0.45,0.45,0,0,0,.2,0,2.79,2.79,0,0,1,.63-0.07s0.1,0,.14,0a0.72,0.72,0,0,1,.78.67,1.23,1.23,0,0,1-.25.78,0.92,0.92,0,0,1-.43.22l0,0a2.14,2.14,0,0,1-.3,0,0.12,0.12,0,0,0,0,0,3.26,3.26,0,0,1-.51,0c-0.1.07-.3,0-0.41,0.08a1.06,1.06,0,0,0-.27,0,0.11,0.11,0,0,1-.14,0s0,0,0,0a0.13,0.13,0,0,1-.12,0,0.54,0.54,0,0,1-.19,0,0.1,0.1,0,0,1,0,0s0,0,0,0a0.14,0.14,0,0,1-.12,0s0,0,.06,0,0,0,0-.06a0.19,0.19,0,0,0-.09,0s0-.06,0,0a0.15,0.15,0,0,1,0-.06,0.09,0.09,0,0,1-.08,0,0.17,0.17,0,0,0,0,.09s0,0-.06,0,0,0-.05-0.05,0,0,0,0-0.24-.1-0.27,0,0,0,0,0,0,0,0,0,0,0,0,0a0.23,0.23,0,0,1,0-.11,0.05,0.05,0,0,1,0,0,0.19,0.19,0,0,1,0,.05l-0.07,0a0.31,0.31,0,0,1,0-.08,0.24,0.24,0,0,1-.1,0l0,0a0,0,0,0,0,0,0c-0.09,0-.1.08-0.15,0.14l0,0a0.22,0.22,0,0,1,0,0s0,0,0,0a0.13,0.13,0,0,1,0,.06,0.14,0.14,0,0,1-.08,0s0,0,0,0a0,0,0,0,0,0,0,0.24,0.24,0,0,0,0,0,0.18,0.18,0,0,1,0-.07c-0.06,0-.05.05-0.1,0s0,0,0,0"/><path class="cls-1" d="M110.6,51.66a0.12,0.12,0,0,1,0,0,0.11,0.11,0,0,0,0,0,0.16,0.16,0,0,1-.08-0.11s0,0,0,0a1.65,1.65,0,0,1,.15-0.15s0,0,0,0a1.92,1.92,0,0,1,.25,0,0.09,0.09,0,0,1,0,.06h0a0.1,0.1,0,0,0,0-.09,0.28,0.28,0,0,0,0-.07,0.14,0.14,0,0,0,0,0s0,0,0,0a0.62,0.62,0,0,1-.06-0.18l0,0s0,0,0,0,0,0,0,0h0s0,0.1,0,.13a0.08,0.08,0,0,0,0-.05,0.76,0.76,0,0,0,0,.17,0.08,0.08,0,0,1-.05,0,0.08,0.08,0,0,0,0-.06s-0.05,0-.06-0.05a0.27,0.27,0,0,1-.08,0,0.32,0.32,0,0,0,0-.05s0.07,0,.06,0,0,0,0,0,0,0,0-.06,0,0,.06,0a0.1,0.1,0,0,1,0-.14c0.07,0,0,.09,0,0.1a0.08,0.08,0,0,0,0-.05,0,0,0,0,0,.06,0,0.4,0.4,0,0,0-.06-0.08s0,0,0,0a0.13,0.13,0,0,0,0,0,0.45,0.45,0,0,0,.07-0.06,0.48,0.48,0,0,0-.09-0.08s0,0.06.05,0.06a0.23,0.23,0,0,0-.07.11c-0.13,0,0-.17,0-0.26a0.71,0.71,0,0,0,.07-0.08s0.07,0,.06.06a0.1,0.1,0,0,0,.07,0,0,0,0,0,1,0,0l0,0a0.18,0.18,0,0,1,0,0,0,0,0,0,1,0,0s0,0,0,0a0.11,0.11,0,0,0,0,.06,0.1,0.1,0,0,0,.05-0.07,0,0,0,0,0,0,0c0.12-.11.13-0.32,0.25-0.42a0.08,0.08,0,0,0,.07,0,0.71,0.71,0,0,1,.25-0.62,0.54,0.54,0,0,1,.2.08,14.88,14.88,0,0,1,1.26,1.76c0,0.07.07,0.1,0.09,0.16,0.3,0.39.58,0.84,0.88,1.26a1.17,1.17,0,0,1,.19.31l0.14,0.46a5.07,5.07,0,0,0,.1.51c0,0.31,0,.65.07,1s0,0.37,0,.54,0,0.09,0,.13,0,0,0,.06l-0.1,0a0.28,0.28,0,0,0,0,.07c-0.05,0,0,.14,0,0.17a0.12,0.12,0,0,0,0,.08h0a0.09,0.09,0,0,0,0,.08s0,0,0,0a0.16,0.16,0,0,0,0,0,0.07,0.07,0,0,1,0,.08,0.65,0.65,0,0,0,.08.12,0.26,0.26,0,0,1-.09,0,0.15,0.15,0,0,1,0,.07,0.4,0.4,0,0,0,0,.05,0,0,0,0,1,0,0,0.09,0.09,0,0,1,0,.06,0.54,0.54,0,0,1,0,.06,0,0,0,0,0,0,0,0.28,0.28,0,0,1,0,.17s0,0,0,0a0.1,0.1,0,0,0,0,0,0.22,0.22,0,0,0,0,0v0s0,0,0,0,0,0.06,0,0a0,0,0,0,1,0,.07s0,0,0-.07c-0.2,0,.07.23,0,0.32a0.74,0.74,0,0,0-.06-0.06,0.18,0.18,0,0,0-.05.13,0.06,0.06,0,0,1,0,0,1.53,1.53,0,0,0-.16.27s0,0,0,0a2.06,2.06,0,0,1-.68.48l-0.08,0-0.19.07a0.65,0.65,0,0,0-.3.08,0.09,0.09,0,0,1,0,0,1.69,1.69,0,0,0-.39,0,4.36,4.36,0,0,0-.43-0.08s0,0,0,0-0.17,0-.28,0a0.31,0.31,0,0,0-.08-0.07l0,0a0.12,0.12,0,0,1,0,0,3.05,3.05,0,0,1-.51-0.17,0.44,0.44,0,0,0-.16-0.15,1.52,1.52,0,0,1-.31-0.17V57.3a0.71,0.71,0,0,0-.22-0.17,0.08,0.08,0,0,0-.09-0.06,0.63,0.63,0,0,0-.15-0.13,0,0,0,0,1,0,0c-0.07-.13-0.21-0.19-0.29-0.31s-0.07-.1,0-0.17a1.1,1.1,0,0,1-.29-0.28,1.81,1.81,0,0,1-.07-0.2,1.55,1.55,0,0,1-.11-0.46,0.11,0.11,0,0,0,0-.12,0.4,0.4,0,0,0,0-.05s0,0-.05,0a0.1,0.1,0,0,1,0-.08h0a1.83,1.83,0,0,0,0-.21s0,0-.05,0a0,0,0,0,1,0,0s0,0,0,0a0.09,0.09,0,0,0,0-.08,0.26,0.26,0,0,0,0,0s0,0,0,0,0-.09,0-0.06a0.2,0.2,0,0,0,0-.17,0.06,0.06,0,0,0,0-.1,0.33,0.33,0,0,0,0-.09h0a0.15,0.15,0,0,1,.06-0.15,0.2,0.2,0,0,0,0-.13s0,0,0,0a0.23,0.23,0,0,0,0-.1,0.19,0.19,0,0,0,.07,0,0.5,0.5,0,0,0,0-.16s0-.11,0-0.13,0,0,0,0a0,0,0,0,1,0,0s0,0,0,0a0.23,0.23,0,0,0,.1-0.08,0.09,0.09,0,0,0-.05,0,0.12,0.12,0,0,1,0-.08h0a0.11,0.11,0,0,0,0-.07s0,0,.05,0a0.63,0.63,0,0,1-.08-0.1,0.1,0.1,0,0,1,.05,0,0.11,0.11,0,0,0,0-.07s0,0.05,0,.08,0-.12,0-0.12a0,0,0,0,1,0,0s0,0,0,0a0.3,0.3,0,0,0,0-.23c0.09,0.06.06-.07,0.07-0.15a0.15,0.15,0,0,0,0,0,0.19,0.19,0,0,1,0-.09h0.06a0.25,0.25,0,0,1,0-.05,0.5,0.5,0,0,1,.06.19c-0.09.14,0.1,0.22,0.18,0.28S110,53,110,53l0,0s0,0,0,0a0.07,0.07,0,0,0,.07,0,0.45,0.45,0,0,1,0-.12h0a0.11,0.11,0,0,1,0-.08h0a0.06,0.06,0,0,0,0,0s0,0,0,0,0,0,0-.05a0.15,0.15,0,0,0,0,0c0-.05.19,0,0.21,0h0.1s0,0,0,0,0,0,0,0,0-.27-0.13-0.26a0.42,0.42,0,0,1,.09.23,0.08,0.08,0,0,0-.08,0s0,0,0,0l-0.07,0c-0.05,0,0,.06,0,0.08s0,0-.05,0a0,0,0,0,0,0,0s0,0-.06,0a0.14,0.14,0,0,1,0-.09s0,0,0,0a0.13,0.13,0,0,1,.06-0.09,0.38,0.38,0,0,1,0-.12,0.56,0.56,0,0,0,.11-0.17,0.47,0.47,0,0,0,0,.11,0.08,0.08,0,0,0,0,0c0,0.11.16,0,.17-0.08s-0.05-.06-0.08-0.1a0.61,0.61,0,0,0,0,.17,0.15,0.15,0,0,1-.05,0,0.05,0.05,0,0,0,0,0s0,0,0,0a0.42,0.42,0,0,0,0-.12,0.21,0.21,0,0,0-.05.07l-0.07,0c0-.05.11-0.08,0.06-0.14a0.32,0.32,0,0,0,.05-0.18,0.05,0.05,0,0,0,0,0,0.11,0.11,0,0,1,0,.13s0,0.06,0,.09a0.12,0.12,0,0,0-.05,0,0.11,0.11,0,0,0,.09.07,0.16,0.16,0,0,0,0-.13h0a0.19,0.19,0,0,0,0,.18s0,0,.05,0a0.05,0.05,0,0,1,0-.05,0.64,0.64,0,0,0-.17-0.1s0.23,0.23.22,0.24,0,0,0,0a0,0,0,0,1,0,0,0.07,0.07,0,0,0-.05,0s0,0.11-.05.08a0.18,0.18,0,0,0,.14,0,1.74,1.74,0,0,0-.16-0.18,0.35,0.35,0,0,0,0,.05,0.15,0.15,0,0,1,.11,0s0,0,0,0,0,0,0,0,0,0,.06,0a0.24,0.24,0,0,0-.13,0,0.49,0.49,0,0,0,0-.06c0.06,0,0,0,0,0s0.14,0.11.12,0.1-0.1-.07-0.08-0.05,0-.06,0-0.07,0,0,0,0,0.06-.13,0-0.2a0.09,0.09,0,0,1,.05,0s0,0,0-.05,0,0,0,0,0,0-.05,0,0,0,0,0"/><path class="cls-1" d="M100.34,38.35l0,0a0.44,0.44,0,0,1,.1.06s0,0,0-.05a1.43,1.43,0,0,0,.29,0,0,0,0,0,1,0,0c0.22,0,.39.09,0.6,0.1a1.62,1.62,0,0,1,.32.12s0,0,0,0a0.2,0.2,0,0,1,0,.08,0,0,0,0,0,0,0,0.23,0.23,0,0,1,.12.13c0.16,0,.25.24,0.42,0.27,0.16,0.22.35,0.41,0.51,0.63a2,2,0,0,0,0,.27c0,0.06.1,0.1,0.12,0.17s0,0.06,0,.1L103,40.35c0,0.12.1,0.23,0.13,0.35a0.5,0.5,0,0,1,0,.29,0.26,0.26,0,0,1,0,.05,4.53,4.53,0,0,1-1,2.4s0,0,0,.05a4.74,4.74,0,0,1-.82.77,3.32,3.32,0,0,1-.69.42l-0.13.08a4.11,4.11,0,0,0-.4.14,2.14,2.14,0,0,1-.65.06,1.7,1.7,0,0,1-.35-0.14,0.18,0.18,0,0,1-.08,0s0,0,0-.07-0.11-.12-0.21-0.14a0.9,0.9,0,0,0-.25-0.22,0.1,0.1,0,0,0,0-.13,0.74,0.74,0,0,0,0,.11,0.19,0.19,0,0,0-.08,0,0.25,0.25,0,0,0,0-.11,0,0,0,0,1,0,0,0.15,0.15,0,0,1,0,0,0.37,0.37,0,0,0-.15-0.08v0a0.16,0.16,0,0,1,.08,0s0,0-.06,0a0.25,0.25,0,0,0-.06.15,0.14,0.14,0,0,0-.08-0.05s0,0,0,0a0.27,0.27,0,0,0-.09-0.1h0s0.11,0.06,0,.09,0,0,0-.05a0,0,0,0,0,0,0c-0.07,0-.17,0-0.18-0.07a0.15,0.15,0,0,1-.11-0.07h0a0.26,0.26,0,0,1,0,.06H97.81l-0.06-.09h0.12s0.05-.12,0-0.12,0-.08,0-0.09,0,0,0,.06l0,0a0.24,0.24,0,0,1,0-.12s0,0,0,0,0,0,0,.07,0,0,0,0v0a0.31,0.31,0,0,0-.07.08,0.14,0.14,0,0,1,0,.06s0,0,0,0l0.05,0a0.2,0.2,0,0,1,0,0c0.05,0,0-.06.1-0.06a0.06,0.06,0,0,1,0-.06A0.76,0.76,0,0,0,98,43.68a0.07,0.07,0,0,0,0,0s0,0-.06,0,0,0,0,0a0.08,0.08,0,0,1,0,0,0.21,0.21,0,0,0-.05-0.16,1.49,1.49,0,0,0-.16,0,0.05,0.05,0,0,1,0,0c0-.1-0.08-0.07-0.14,0s0-.07,0-0.08,0,0,0-.08a0.09,0.09,0,0,1,0,0s0-.06,0-0.08,0,0,0-.05-0.07-.06-0.12-0.08a0.11,0.11,0,0,1,0,.07,0.29,0.29,0,0,1-.11-0.13s-0.06,0,0-.06,0,0,0,0a0.44,0.44,0,0,1,0-.1,0.39,0.39,0,0,1-.09-0.24,0,0,0,0,0,0,0,0.53,0.53,0,0,0,0-.26s0,0,0,0,0-.11,0-0.16a0.24,0.24,0,0,0-.06,0,0.1,0.1,0,0,0-.05-0.07,0.13,0.13,0,0,0,0,.07s0,0.06-.07,0a0.13,0.13,0,0,0,0,.05s0-.08,0-0.11S97,42,97,42a0.61,0.61,0,0,1-.06-0.28s0,0,0,0,0,0,0,0l0.14,0a0.13,0.13,0,0,1,.08,0,0.15,0.15,0,0,1,0-.05A0.21,0.21,0,0,1,97,41.42l0,0a0.1,0.1,0,0,0,0,0s0-.14,0-0.16,0,0,0,0a0.08,0.08,0,0,1,0-.07c0.05,0,.09,0,0.1-0.09a0.58,0.58,0,0,1,.17,0h0a0.05,0.05,0,0,0,0-.05c0.22-.48.5-1,0.71-1.47a0.12,0.12,0,0,1,0-.07s0,0,0,0a0.2,0.2,0,0,0,.05,0,4.76,4.76,0,0,1,.43-0.44,0.19,0.19,0,0,0,.17-0.12,0.06,0.06,0,0,0,0,0,0.46,0.46,0,0,0,.36-0.18,2.45,2.45,0,0,0,.37-0.09,0.75,0.75,0,0,0,.37-0.14h0a0.17,0.17,0,0,0,0,.06,0.61,0.61,0,0,1,.25-0.08c0-.07.12,0,0.15,0l0.07,0m-3.82,7.17s0-.08.05-0.07,0.06,0.11.11,0.16a0.14,0.14,0,0,0,0-.06s0,0,0,0,0,0,0,0a0,0,0,0,1,.06.06h0a0.11,0.11,0,0,0,0,.05c0.08,0,.06,0,0.08.1s0,0.08,0,.11a0.07,0.07,0,0,0,0,.07l0.06-.05a0.57,0.57,0,0,1,0,.07s0.05,0,.09,0a0.1,0.1,0,0,1,0-.05,0.05,0.05,0,0,0,.05,0s0,0,0,0a0.09,0.09,0,0,1,0,.07h0a0.29,0.29,0,0,1-.07.1,0.24,0.24,0,0,1,.16.12,0.23,0.23,0,0,1,.06,0,0.09,0.09,0,0,0,0,0s0,0,.08,0,0,0.07,0,.07,0.19,0,.16.07,0,0,0,0,0,0,.07,0a0.47,0.47,0,0,1,0,.07s0,0,.08,0,0,0,0-.05,0.09,0,.1.06,0,0-.05,0,0,0.05,0,.05a2.71,2.71,0,0,0,.35,0,0.54,0.54,0,0,0,.38,0s0,0,0,0a0.15,0.15,0,0,1,0,0,0.11,0.11,0,0,1,.12,0,0.54,0.54,0,0,1-.11.08c0,0.24.26,0.15,0.38,0.13a0.63,0.63,0,0,0,.67.11,0.06,0.06,0,0,1,0,0s0.06,0,0,0,0,0,0,0a0.44,0.44,0,0,1,.25,0,0.75,0.75,0,0,1,.26-0.05s0,0,0,0a0.08,0.08,0,0,1,0,0,1.14,1.14,0,0,0,.44-0.06,0.46,0.46,0,0,1,.06,0s0,0,.06,0,0,0,0,0a0,0,0,0,0,0,0l0.37-.11a0.92,0.92,0,0,1,.35-0.1,0.08,0.08,0,0,1,.06-0.05,3.34,3.34,0,0,0,.32-0.14,0.05,0.05,0,0,0,0,0,0.22,0.22,0,0,1,.2-0.11,0.06,0.06,0,0,1,0,0,3.34,3.34,0,0,0,.36-0.26c0.06-.09.11-0.28,0.26-0.22a3.48,3.48,0,0,0,.46-0.41h0v0c0.1-.09.19-0.19,0.3-0.27a5.65,5.65,0,0,0,.51-0.7c0.15-.26.34-0.49,0.51-0.73a1,1,0,0,1,.12-0.23,0.75,0.75,0,0,1,0-.19,0.28,0.28,0,0,1,0-.18,0.19,0.19,0,0,0,0,0,2.58,2.58,0,0,0,.33-1,1.33,1.33,0,0,0,0-.53l0.06,0a6.55,6.55,0,0,0-.25-1.79,0.1,0.1,0,0,1,0-.08,4.24,4.24,0,0,0-.52-0.88,2.11,2.11,0,0,1-.15-0.35,1.09,1.09,0,0,0-.16-0.16,3.82,3.82,0,0,1-.38-0.51c-0.06-.1-0.15-0.18-0.21-0.27a1,1,0,0,0-.24-0.2s0-.06-0.07-0.07l-0.06,0C103,37,103,37,102.92,37a4.06,4.06,0,0,0-1.73-.51,5.46,5.46,0,0,0-.89,0c-0.15,0-.29.08-0.44,0.09l0,0a2.56,2.56,0,0,0-.85.08l-0.36.12c-0.26.1-.51,0.23-0.76,0.35a0.21,0.21,0,0,1,0,0,4,4,0,0,0-1,.75h0c-0.19.22-.37,0.44-0.54,0.68a5.8,5.8,0,0,0-.32.56,5.35,5.35,0,0,0-.35.74c-0.12.35-.26,0.69-0.38,1v0c-0.06.1-.06,0.25-0.13,0.34a2.39,2.39,0,0,0-.06.65,0.1,0.1,0,0,1,0,0,0.67,0.67,0,0,1,0,.32,0.32,0.32,0,0,1,0,.23L95,42.37a0.08,0.08,0,0,1-.06.06c0,0.08,0,.14,0,0.2s0,0,.05,0a0.33,0.33,0,0,0,0-.09,0.16,0.16,0,0,1,.08,0,0.39,0.39,0,0,1,0,.11,0.05,0.05,0,0,0,0,0v0a0.12,0.12,0,0,1,0,.1,0.19,0.19,0,0,0-.06,0s0,0,0,.06,0,0,0,0,0,0.05,0,.1,0,0.07,0,.09a0.08,0.08,0,0,1,0,.08,0.08,0.08,0,0,1,.05.08h0a1.88,1.88,0,0,0,.15.33,0.89,0.89,0,0,0,0,.17,0.08,0.08,0,0,1,0,0,0.54,0.54,0,0,1,.08.18h0a0.31,0.31,0,0,1,.1.17c0.08,0,.17,0,0.23,0s0.08,0.13,0,.19l0.05,0a0.15,0.15,0,0,0,0,0,0.25,0.25,0,0,0,.07,0,0.26,0.26,0,0,0,0,.15s0,0,0,.06h0V44.5a0.07,0.07,0,0,0,0,0,0.11,0.11,0,0,1,.06-0.05s0,0,.05,0,0,0.06,0,.11a0.15,0.15,0,0,0-.11,0,0.37,0.37,0,0,1,.12.14c-0.05,0,0,.1,0,0.13s0.09,0,.09,0,0,0,0,0a0.68,0.68,0,0,1,.15.1s0,0,0,0a0.1,0.1,0,0,0,0,0h0.06a0.08,0.08,0,0,0,0-.07s0,0,.06.07,0,0,0,0a0.66,0.66,0,0,1,.21.14s0,0,0,0a0,0,0,0,1,0,0,0.14,0.14,0,0,0,0,.07s0,0,0,0a0.16,0.16,0,0,1-.08,0,0,0,0,0,1,0,0,0.11,0.11,0,0,0,0,0,0.05,0.05,0,0,0,0,.07"/><path class="cls-1" d="M84.89,42.35a3.3,3.3,0,0,1-.06.71c0,0.15,0,.3,0,0.45a0.74,0.74,0,0,0,0,.1c0,0.17,0,.35,0,0.53s0,0.35,0,.54,0,0.17,0,.24,0,0.23.05,0.34A14.41,14.41,0,0,0,85.19,47a0.43,0.43,0,0,1,0,.17c0.09,0.32.17,0.74,0.27,1.1,0,0.05,0,.12,0,0.17a0.94,0.94,0,0,1,0,.24,0.61,0.61,0,0,1-.23-0.12A2,2,0,0,1,85,48.48s-0.05-.13-0.1-0.18a2.13,2.13,0,0,0-.32-0.14,1,1,0,0,1-.17-0.22l-0.17-.21c-0.11-.14-0.22-0.3-0.33-0.44a1.16,1.16,0,0,1-.15-0.24,3.64,3.64,0,0,1-.34-1c0-.16-0.08-0.33-0.1-0.47s0-.11,0-0.16,0-.1,0-0.14,0-.15,0-0.21a3.1,3.1,0,0,1,0-.31c0-.11,0-0.23,0-0.34a3.76,3.76,0,0,1,0-.84A2.29,2.29,0,0,1,83.68,43l0.06-.1a0.13,0.13,0,0,1,.07-0.08,0.49,0.49,0,0,1,.05-0.19h0.07a0.08,0.08,0,0,0,0-.09h0a1.64,1.64,0,0,1,.49-0.23h0.4m34.69-6.9a0.09,0.09,0,0,1,0-.1s0,0,0,0a0.69,0.69,0,0,1,0-.14,0.42,0.42,0,0,1,.14.14,0.09,0.09,0,0,0,0,0v0.05s-0.05,0,0,0a0.13,0.13,0,0,1,.07,0,0.23,0.23,0,0,1,0,0,0.58,0.58,0,0,0,.32.17s0,0.05,0,.1l0,0s0,0,0,0a0,0,0,0,0,0,0V35.65l0.12,0s0,0,0,0a1.4,1.4,0,0,0,.08.35s0,0,0,0a0.15,0.15,0,0,1,0,.1,0.14,0.14,0,0,1,0,0,0.06,0.06,0,0,0,0,.07s0,0,0,0,0,0,0,.07h0a0.1,0.1,0,0,1,0,0,0.09,0.09,0,0,0,.07,0,0.22,0.22,0,0,0,0,.14,0.69,0.69,0,0,0,0-.21s0,0,0,0,0,0,0,0a0.06,0.06,0,0,1,0,.09s0,0,0,0,0,0,0,0,0,0.08.07,0.07a0.33,0.33,0,0,1,0,.21,0.16,0.16,0,0,0,0,0s0,0.08-.06.11-0.08,0-.1,0,0,0,0,0,0,0.09,0,.09a0.51,0.51,0,0,0,.05.26,0.13,0.13,0,0,0,.08.16s0,0,0,0a0.76,0.76,0,0,0,.09.11,0,0,0,0,1,0,0,0.3,0.3,0,0,1,.09.19l0,0a4.14,4.14,0,0,1,.2.56,0.64,0.64,0,0,1,.11.23l0,0c0,0.16.16,0.27,0.19,0.4a0.17,0.17,0,0,0-.1,0,0.15,0.15,0,0,0-.17,0s0,0,.08,0,0,0,0,0h0s0,0,0-.05a0.12,0.12,0,0,0,.13,0s0,0.08-.05.06a0,0,0,0,1,0,.06,0.31,0.31,0,0,0,.09.15s0,0,0,0,0,0,0,0a0.07,0.07,0,0,1,0,.08,0.32,0.32,0,0,0,.08,0l0,0.08a1.78,1.78,0,0,0-.25-0.21,1,1,0,0,0,.28.26,0.09,0.09,0,0,1,0,.05,0.46,0.46,0,0,1,0,0,0.51,0.51,0,0,1,.05.14s0.05,0,.05,0,0,0,0,0,0,0,0,0a1.08,1.08,0,0,1,.16-0.06,0,0,0,0,1,0,0,0.9,0.9,0,0,1,.18,0,1,1,0,0,1,.13.29,0.12,0.12,0,0,0-.08,0l0,0a0.18,0.18,0,0,0,0,.09,0.23,0.23,0,0,0-.12.09,0.11,0.11,0,0,0,0,0s0,0,0,0a0.37,0.37,0,0,0,.1.24,0,0,0,0,1,0,.06l0,0a0.17,0.17,0,0,1,0,0c0.07,0,0,.08.08,0.09a0.28,0.28,0,0,1,.1,0,0.66,0.66,0,0,1,.09-0.14,0.4,0.4,0,0,1,.05,0,0,0,0,0,0,0,0,0.27,0.27,0,0,0,0,0s0,0,0,0,0,0,0,0,0,0.06,0,.08a0,0,0,0,0,0,0l0,0.07s0,0,0,0a0.27,0.27,0,0,1,.06,0s0,0,0,.07,0-.05,0-0.07a0.2,0.2,0,0,1,0,.09h-0.05s0,0,0,.07l0,0a0.2,0.2,0,0,0,0,.05,0.08,0.08,0,0,1-.12,0,0.48,0.48,0,0,1,0,.14s0,0,0,0a0.38,0.38,0,0,1,0,.14s0,0,0,0,0.11,0.13.06,0.19h0a0.93,0.93,0,0,0,0,.16,0.1,0.1,0,0,0,.06,0s0,0.05,0,.07a0.06,0.06,0,0,0,0,.08s-0.05,0-.08,0,0,0,0,0a2.29,2.29,0,0,1-.09.21,0.07,0.07,0,0,0,0,0,0.48,0.48,0,0,0,.11.29,0.4,0.4,0,0,1,0,.11c-0.17,0-.07.15-0.09,0.25l0.06,0c0.06,0,.13,0,0.2-0.09a0.08,0.08,0,0,1,0,.08,0.75,0.75,0,0,1,0,.2,0.06,0.06,0,0,1-.06,0l-0.07.08c-0.38.16-.75,0.35-1.11,0.55a5.25,5.25,0,0,0-.56.43,1.21,1.21,0,0,0-.22.16,1.38,1.38,0,0,0-.67.76,0.59,0.59,0,0,0,0,.17,0.72,0.72,0,0,0,.6.52,1.5,1.5,0,0,0,.67-0.13l0.08,0s0,0,0,0a0.37,0.37,0,0,1,.12,0,0.27,0.27,0,0,1,0,0,3.5,3.5,0,0,0,.62-0.18s0,0,.06,0a0.12,0.12,0,0,1,.11,0c0.09,0,.18-0.08.28-0.12h0v0a0.55,0.55,0,0,0,.17-0.06,0.38,0.38,0,0,1,0,0,0.2,0.2,0,0,1,0-.05s0,0.05,0,.08,0,0.25,0,.35a0.46,0.46,0,0,1,0,.17,2.81,2.81,0,0,1,0,.69,2.11,2.11,0,0,1,0,.48,0.1,0.1,0,0,0,0,.08,4.27,4.27,0,0,1-.08.52,0.54,0.54,0,0,1,0,.23,2.24,2.24,0,0,1-.07.36,3.1,3.1,0,0,1,0,.48,3,3,0,0,1-.69-0.05l-0.06,0a0,0,0,0,1,0,0,0.57,0.57,0,0,1-.33,0,0.18,0.18,0,0,0,0-.1,1.4,1.4,0,0,0-.36.1,0.47,0.47,0,0,0-.36.24,0.6,0.6,0,0,0-.1.3,1.17,1.17,0,0,0,.08.35,1.35,1.35,0,0,0,.5.61h0a0.12,0.12,0,0,1,0,0s0,0,0,0a1.87,1.87,0,0,0,.43.16,0.72,0.72,0,0,0,.08.07,0.39,0.39,0,0,0,.07,0,0.63,0.63,0,0,0,.15,0,0.24,0.24,0,0,1,0,0,0.45,0.45,0,0,0,.08.1,0.16,0.16,0,0,0,0,0s0,0,0,0,0,0,0,0c-0.07.34-.2,0.62-0.28,1a0.08,0.08,0,0,0,.07,0,0.56,0.56,0,0,1,0,.12h-0.06a0.25,0.25,0,0,0-.06.06,3.5,3.5,0,0,1-.22.6s0,0,0,0a0.14,0.14,0,0,0,0,.05,0.34,0.34,0,0,0-.09.12s0,0,0,0a0.34,0.34,0,0,0-.06.28s-0.06,0-.06,0a0.28,0.28,0,0,1-.12,0s0,0,0,.05-0.2,0-.18.07l0,0a0.09,0.09,0,0,0,.1,0,0.37,0.37,0,0,0,0,.16s0,0-.06,0,0,0,0,0,0,0.07,0,.11,0,0,0,0a0.69,0.69,0,0,0,0,.08,0.28,0.28,0,0,0-.11,0,0.27,0.27,0,0,1,0,0H120.8s0,0,0,0h-0.08a0.24,0.24,0,0,0,0,.16,0.13,0.13,0,0,1,0,0,0.28,0.28,0,0,1,0,.08,0.08,0.08,0,0,1,0-.05,0.64,0.64,0,0,0,.14.1s0-.06,0-0.08a0.68,0.68,0,0,0-.19-0.08s0,0,0,0a0.21,0.21,0,0,1-.06-0.05s0.25,0.13.23,0.14,0-.08,0-0.11a0.12,0.12,0,0,0-.07.14s0,0.06,0,.09,0,0,0,0a0.13,0.13,0,0,0,0,0,0.11,0.11,0,0,1,.08,0,0.93,0.93,0,0,1-.14-0.19s0,0.05,0,.06a1.08,1.08,0,0,0,.2.18,0.27,0.27,0,0,1,0,.06s0,0-.05,0,0,0,0,0,0,0.07-.08,0,0,0,0,.08a0.12,0.12,0,0,0,0,0,0,0,0,0,1,0,0,0,0,0,0,1,0-.07s-0.08-.1-0.13,0,0,0,0,0a0,0,0,0,1,0,0,0.05,0.05,0,0,0-.05,0s0-.06,0-0.11a0.12,0.12,0,0,0,0-.12h-0.05s0,0,0,0a0,0,0,0,1,0,.06s0.05,0,0,.07,0,0-.05,0,0,0,0,0a0.1,0.1,0,0,0-.07,0s0-.11,0-0.13a0.17,0.17,0,0,0-.08-0.08s0,0,0,.07,0,0.05-.06,0a0.35,0.35,0,0,0,0,.11,0,0,0,0,1,0,0,0.46,0.46,0,0,0,0,.07l0,0a0.13,0.13,0,0,0,0,.09,0,0,0,0,0,0,0c0,0.07,0,.07-0.07.11l0,0a0.15,0.15,0,0,1,0,0c-0.06,0-.05.07-0.08,0.12l0,0s0,0-.07,0,0,0,0,.06a0.1,0.1,0,0,1-.05,0,0.5,0.5,0,0,0,0,.1s-0.05.09-.09,0a0.07,0.07,0,0,0,0,.05,0.32,0.32,0,0,0,0,0,0.19,0.19,0,0,1,0,.06,0.2,0.2,0,0,0-.07.15h0s0,0,0,.05h0a0.41,0.41,0,0,0,0,.21s0,0,.05,0a0.33,0.33,0,0,1,0,0s0.06,0,.06,0a0.16,0.16,0,0,1,.05.13s0,0,0,0,0,0,0,0,0,0,0,.07a0.12,0.12,0,0,0-.09,0,1.12,1.12,0,0,0-.06-0.19s0,0.06,0,.05v0a0.13,0.13,0,0,1,0,0,0.07,0.07,0,0,0,0,0,0.54,0.54,0,0,0-.06-0.18h0a0.21,0.21,0,0,1,0,.08s0,0-.07,0,0,0,.06,0,0,0.07,0,.09a0.2,0.2,0,0,0,0,.18s0,0-.06,0a0.33,0.33,0,0,0,0,.07h0s0,0,.05,0,0,0,0,.05,0,0,0,0a0.22,0.22,0,0,0-.05.08h0a0.32,0.32,0,0,1-.18.21s0,0,0,.07,0,0,0,0-0.11.09-.11,0.17a0.11,0.11,0,0,1,0,0c0,0.08,0,.1,0,0.18s0,0,0,0,0,0,0,0l-0.07,0a0.81,0.81,0,0,0-.06.19l0,0s0,0.06-.08,0a0.25,0.25,0,0,1-.09.11s0,0.12-.05.09a0.18,0.18,0,0,0,0,.05,0,0,0,0,1,0,0s-0.07,0-.05.08,0,0,0,0,0,0,0,.05,0,0,0,0a1.52,1.52,0,0,1-.12.13s0-.11-0.08-0.11,0,0,0,0,0,0,0,0,0,0,0,0a0.15,0.15,0,0,0-.07.07s0,0,0,0a0.21,0.21,0,0,0,0,.05s0,0,0,0a0.14,0.14,0,0,0,0,.07s0,0,0,0,0,0,0,0a0.2,0.2,0,0,1-.12.08s0,0,0,0,0,0,0,0a0.69,0.69,0,0,0,0,.13l0,0a0.33,0.33,0,0,1,0,.16,0.52,0.52,0,0,1-.11,0,0.06,0.06,0,0,1,0,0s0,0,0,0a0.13,0.13,0,0,0,0-.07s0,0,0,0a0.43,0.43,0,0,1,0-.07,0.08,0.08,0,0,1-.05.06s0,0,0,0v0.06a0.16,0.16,0,0,1,0,0s0,0,0,.08,0,0-.08,0,0,0,0,.05a0,0,0,0,0,0,0,0.25,0.25,0,0,0,.07.07,0.21,0.21,0,0,0,0,0,0.05,0.05,0,0,1,0,0,0.12,0.12,0,0,0,0,.06s0,0,0-.06a0.07,0.07,0,0,0-.07,0,0.31,0.31,0,0,1,0,0s0,0,0,.06,0,0,0,0l-0.06,0a0.1,0.1,0,0,0,0,0s0,0,0,0a0.43,0.43,0,0,1-.07,0,0.13,0.13,0,0,1-.09-0.07s0,0,0,0a0.74,0.74,0,0,0,0,.12l0,0s0,0,0,.06,0,0,0,0a0.26,0.26,0,0,0,0,.11,0.11,0.11,0,0,1-.09,0s-0.06.09-.1,0.12a0.65,0.65,0,0,0-.07,0,0.09,0.09,0,0,0,0,.07c-0.06,0-.07.06-0.11,0a0.14,0.14,0,0,1,0,0,0.07,0.07,0,0,1,0,0,0,0,0,0,0,0,0s0,0,0,0a0.17,0.17,0,0,1,0,.07c-0.2.09-.36,0.23-0.56,0.32l-0.1.08c-0.09.06-.2,0.09-0.29,0.15a1,1,0,0,1-.18.14,2.35,2.35,0,0,1-.76.46,1.19,1.19,0,0,0-.25.09c-0.14,0-.29.09-0.44,0.12a7.9,7.9,0,0,0-.78.27l-0.11.06a2.53,2.53,0,0,1-.46.23,1.49,1.49,0,0,0-.52.08c-0.15,0-.34.12-0.47,0.13a0.72,0.72,0,0,1-.26.08c-0.56.16-1.08,0.25-1.64,0.36l-1,.09s0,0,0,.06l-0.07,0c0-.1-0.22-0.07-0.23,0l-0.35,0s0,0-.05,0a1.81,1.81,0,0,0-.61,0,4.25,4.25,0,0,1-1.15.17l-0.06,0h-0.13l-0.05,0h-0.13a4.35,4.35,0,0,0-.59,0h-0.4a0.18,0.18,0,0,1-.1,0,0.77,0.77,0,0,1-.34,0,1.22,1.22,0,0,1-.25,0c-0.18,0-.36-0.06-0.55-0.07h-0.07l-0.21,0c-0.35,0-.68,0-1-0.11l-0.48-.07a2.19,2.19,0,0,0-.52,0,2.25,2.25,0,0,1-.6-0.15,0.14,0.14,0,0,0,0-.06,0.21,0.21,0,0,1-.12,0s0,0,0,0l-0.3-.09a3.83,3.83,0,0,0-.73-0.33,3.24,3.24,0,0,1-.45-0.17,4.21,4.21,0,0,1-.5-0.28A0.65,0.65,0,0,1,98.75,59c-0.38-.16-0.73-0.43-1.11-0.61,0,0-.05,0-0.06-0.06a0.66,0.66,0,0,1-.22-0.13,2.53,2.53,0,0,1-.58-0.35,0.4,0.4,0,0,1-.18-0.12,0.62,0.62,0,0,1-.19-0.09l-1-.66a0.39,0.39,0,0,0-.17-0.11c-0.17-.14-0.37-0.25-0.55-0.4a0.25,0.25,0,0,0,0-.05s0,0-.08,0a0,0,0,0,0,0,.05c-0.19-.11-0.34-0.25-0.52-0.36s-0.46-.35-0.67-0.56a4.72,4.72,0,0,1-.49-0.4c-0.1-.1-0.23-0.2-0.34-0.31s-0.4-.37-0.59-0.59a0.69,0.69,0,0,1-.11-0.08,2.05,2.05,0,0,0-.32-0.33c-0.25-.33-0.55-0.61-0.79-0.94-0.15-.17-0.31-0.4-0.46-0.61s-0.11-.11-0.07-0.18a2,2,0,0,0,.27-0.34c0-.1.09-0.21,0.1-0.33A0.63,0.63,0,0,0,90.54,51a0.05,0.05,0,0,1,0,0,0.63,0.63,0,0,0-.14-0.2,1.92,1.92,0,0,0-.7-0.39c-0.08-.06-0.18,0-0.25-0.09s-0.19-.12-0.27-0.19h0c-0.07-.06-0.19,0-0.26-0.09-0.14-.39-0.34-0.72-0.48-1.11a6.18,6.18,0,0,1-.5-1.32c-0.12-.26-0.14-0.6-0.25-0.88a1.2,1.2,0,0,1,0-.14c-0.07-.36-0.12-0.77-0.17-1.17A9.45,9.45,0,0,1,87.4,44c0-.08,0-0.17,0-0.26s0-.42,0-0.64a0.07,0.07,0,0,0,0,0,0.13,0.13,0,0,1,.11.07s0.09,0,.1,0a0.08,0.08,0,0,1,0,0c0.22,0.14.46,0.28,0.7,0.41,0,0,0,0,0,0s0,0,0,0a0.86,0.86,0,0,1,.18.12h0a1.09,1.09,0,0,0,.58.15,1.41,1.41,0,0,0,.42-0.25,1.44,1.44,0,0,0,0-.32A1.37,1.37,0,0,0,89.46,43a1.76,1.76,0,0,0-.13-0.21,5.18,5.18,0,0,0-.46-0.55c-0.08-.08-0.19-0.14-0.27-0.22a0.14,0.14,0,0,1,0,0s-0.1-.07-0.15-0.11l0-.05-0.08,0c-0.05,0-.1-0.1-0.15-0.14A0.71,0.71,0,0,1,88,41.5a0.5,0.5,0,0,1-.18-0.12,1.41,1.41,0,0,1-.27-0.1,0.56,0.56,0,0,1,0-.21s0-.08,0-0.11,0,0,0-.08,0-.34,0-0.45c0.11-.93.26-1.82,0.37-2.74,0.06-.15.1-0.34,0.17-0.48a0.16,0.16,0,0,1,0-.11,2.86,2.86,0,0,1,.16-0.47c0-.25.16-0.44,0.21-0.69a0.52,0.52,0,0,0,0,0c0.16-.48.35-0.95,0.52-1.41a1.15,1.15,0,0,1,.09-0.16,0.51,0.51,0,0,1,.1-0.24,2.28,2.28,0,0,1,.14-0.36,1.25,1.25,0,0,1,.09-0.13c0-.05,0-0.12.06-0.17s0.1-.17.14-0.26h0a0.29,0.29,0,0,1,.1-0.21,0.75,0.75,0,0,1,.16-0.28,0.12,0.12,0,0,1,0-.06,3.67,3.67,0,0,0,.2-0.36c0.08-.13.17-0.24,0.25-0.36a0.33,0.33,0,0,1,0,0s0,0,0,0a2.62,2.62,0,0,1,.36-0.51,0.43,0.43,0,0,1,.14-0.2,8.26,8.26,0,0,1,.55-0.72,0.41,0.41,0,0,0,.07,0c0.17-.26.42-0.44,0.6-0.7,0.1,0,.14-0.15.24-0.2a0.26,0.26,0,0,1,.14-0.14,1.26,1.26,0,0,1,.33-0.3,0.19,0.19,0,0,1,.1-0.1l0.43-.37s0,0,0,0a1.19,1.19,0,0,1,.27-0.25h0a1.16,1.16,0,0,1,.37-0.29A0.18,0.18,0,0,1,94.19,28a0.13,0.13,0,0,1,0-.06A6.06,6.06,0,0,1,95,27.49a0.16,0.16,0,0,0,0,0,0.94,0.94,0,0,1,.22-0.12,2.46,2.46,0,0,1,.45-0.27s0,0,0,0l0,0A1.64,1.64,0,0,0,96,26.84c0.25-.12.52-0.24,0.78-0.38v0s0,0,0,0a0.58,0.58,0,0,1,.26-0.08s0,0,0,0,0.33-.13.45-0.2,0,0,0,0a0,0,0,0,0,0,0C97.8,26,98,26,98.22,25.89s0.16,0,.25-0.1a0.23,0.23,0,0,1,.05,0,0.53,0.53,0,0,1,.22-0.11s0,0,.05,0,0,0,0,0a0,0,0,0,1,0,0s0,0,0,0a0.1,0.1,0,0,1,.1,0,0.41,0.41,0,0,1,.23-0.09l0.1,0c0.12,0,.22-0.07.31-0.08a1.38,1.38,0,0,1,.18-0.07s0,0,0,0a0.33,0.33,0,0,1,.24-0.07,0.63,0.63,0,0,1,.21-0.08,0,0,0,0,1,0,0s0,0,0,0a0.13,0.13,0,0,1,.08,0,2.83,2.83,0,0,1,.6-0.16l0,0s0,0,0,0a0.29,0.29,0,0,0,0,0,0.43,0.43,0,0,1,.19,0,0.08,0.08,0,0,0,0,0,2.5,2.5,0,0,1,.59-0.08,0.07,0.07,0,0,1,.1,0,0.14,0.14,0,0,1,0,0,2.53,2.53,0,0,0,.33-0.06s0,0,0,0a1.42,1.42,0,0,1,.2,0h0c0.18-.06.4,0,0.58-0.09a1,1,0,0,0,.35,0h0.42l0.06,0s0.1,0,.17,0l0.13,0a0.54,0.54,0,0,1,.24,0c-0.23.51-.48,1-0.67,1.53a1.29,1.29,0,0,0-.12.29,2.68,2.68,0,0,0-.17.47c-0.08.13-.11,0.32-0.18,0.46-0.06.31-.19,0.63-0.26,1a3.51,3.51,0,0,0-.08.38,4.87,4.87,0,0,0,0,.63,0.76,0.76,0,0,0,.48.81v0s0,0,0,0a0.07,0.07,0,0,0,0,0,0.06,0.06,0,0,0,0,0,1.55,1.55,0,0,0,.48,0,0.24,0.24,0,0,1,.17,0,0.08,0.08,0,0,1,.08,0,0.1,0.1,0,0,1,.09,0,0.62,0.62,0,0,1,.22-0.13s0,0,0,0a0.4,0.4,0,0,0,.18-0.26,0.71,0.71,0,0,0,.35-0.41,0.19,0.19,0,0,1,.05-0.13s0,0,0,0l0,0s0-.14.08-0.12a0.13,0.13,0,0,1,.07-0.11,0.08,0.08,0,0,1,0,.09,0.22,0.22,0,0,0,.07-0.08c0.1,0,.09-0.15.19-0.13a0.09,0.09,0,0,0,.06-0.06,1,1,0,0,1,0-.23h0s0,0,0,0,0,0,0,0a0.15,0.15,0,0,1,0-.14,0.17,0.17,0,0,1,0,0,0.91,0.91,0,0,0,0-.16,0.06,0.06,0,0,1,.08,0s0,0,0,0,0,0,0,0l0,0a0.23,0.23,0,0,1,0-.06h0a0.09,0.09,0,0,0,0-.1,0.09,0.09,0,0,1,0,.07s0,0,0,0a0.26,0.26,0,0,0,0,.09s0,0,0,0h0s0,0,0,0,0,0,0,0,0-.05,0-0.08A0.14,0.14,0,0,1,106,28a0.06,0.06,0,0,0,0-.06s0,0,0,0-0.07,0-.12,0a0.21,0.21,0,0,0,0-.06,0.11,0.11,0,0,0,.07,0,0.17,0.17,0,0,1,.09-0.2,0.06,0.06,0,0,1,0-.08s0,0,0,0,0-.05.05,0,0,0,0-.08,0.09-.11,0-0.13,0.06-.08.06-0.14a0.23,0.23,0,0,1-.07-0.06,0.28,0.28,0,0,0,0,.11s0,0-.06,0a0.41,0.41,0,0,1-.1-0.17,0.09,0.09,0,0,1,.1,0A0.11,0.11,0,0,0,106,27s0,0,0-.05a0,0,0,0,1,0,0,0,0,0,1,0,.09,0,0.14,0.14,0,0,1,0-.08s0,0,0,0,0-.06,0-0.06-0.06,0-.1,0a0.16,0.16,0,0,0,0-.05,0.26,0.26,0,0,0,.06,0,0.09,0.09,0,0,1,0,0s0-.05,0,0,0,0.07,0,.11a0.71,0.71,0,0,1,.12-0.14,0,0,0,0,0,0,0s0,0,0,0,0,0,.05,0a0.09,0.09,0,0,0,0,0h0a0.52,0.52,0,0,1,0-.05,0.47,0.47,0,0,1,.07,0,0.09,0.09,0,0,1,.09,0s0-.08.1-0.06,0,0,0,0,0-.17.11-0.19a0.34,0.34,0,0,0,0,.06l0,0a0.14,0.14,0,0,1,.18,0s0,0,0,0,0,0,.06,0,0,0,0,0a0.06,0.06,0,0,1,0,0l0.07,0.08a0.57,0.57,0,0,1,.1-0.06s0,0,0,0a0.11,0.11,0,0,0,.07-0.07h0a0.26,0.26,0,0,0,0-.05,0.15,0.15,0,0,0-.07.08s0,0,0,0,0-.07,0-0.15a0.09,0.09,0,0,1,.06-0.07,0,0,0,0,0,0,0s0,0,0,0a0.11,0.11,0,0,1-.08-0.1,0.13,0.13,0,0,0,.06,0s0,0,0,0a0.07,0.07,0,0,0,0,0s0,0,0,0,0.05,0,.08.06a0.19,0.19,0,0,1,.1-0.06,1.51,1.51,0,0,1,.36-0.76s0,0,0,0a0.15,0.15,0,0,0,0-.15,0.18,0.18,0,0,0,.06,0,0.31,0.31,0,0,0,.08-0.24,0.5,0.5,0,0,0,.06-0.22,0,0,0,0,1,0,0,0.51,0.51,0,0,0,0-.33,0.13,0.13,0,0,1,0,0,0.25,0.25,0,0,0,.08.16,0.18,0.18,0,0,0,.12-0.05,0.48,0.48,0,0,0,0-.13,0.52,0.52,0,0,1,.22-0.34s0.06-.08.08-0.12a0.06,0.06,0,0,1,.06,0,0.43,0.43,0,0,1,.3,0,0.07,0.07,0,0,1,0,0,0.21,0.21,0,0,1,.1.08s0,0,0,0,0,0.06-.05.08a0.83,0.83,0,0,0,0,.14,0.44,0.44,0,0,0,.29-0.1,0.35,0.35,0,0,0,.12,0s0,0,0,0a0.17,0.17,0,0,1,.12.06,0.35,0.35,0,0,1,.16,0l0,0h0.09l0.22-.07a0.91,0.91,0,0,1,.29.19,0.24,0.24,0,0,1-.05,0,0.18,0.18,0,0,0,.18.1,0.12,0.12,0,0,0,0,0,0.19,0.19,0,0,0,0-.06l0.06,0a0.11,0.11,0,0,1,0-.05,0.13,0.13,0,0,0,.08,0,0.48,0.48,0,0,1,.1-0.09s0,0,0,.06,0,0,0,0,0.09,0,.11-0.05a0,0,0,0,1,0,0s0,0,0,0,0,0,0,0a0.16,0.16,0,0,1-.11,0s0,0,0,0,0,0.06,0,.09a0.21,0.21,0,0,0,0,.08H110.8a0.48,0.48,0,0,0,0,.06s0,0,0-.05,0.06,0,.08,0l0.08,0a0.2,0.2,0,0,1,.13-0.06,0.12,0.12,0,0,0,0-.07,0.55,0.55,0,0,1,.08,0,0.4,0.4,0,0,1,0,.11,0.37,0.37,0,0,0,.08.1,1.08,1.08,0,0,0,.25.15,0.26,0.26,0,0,0,0,.05s0,0,.05,0a0.73,0.73,0,0,0,.14,0s0,0,0,0,0,0,0,0,0.09,0,.09.06,0,0,0,0a0.41,0.41,0,0,1,.18.1,0.1,0.1,0,0,1,.1,0,0.11,0.11,0,0,0,0,0,0,0,0,0,1,0,0s0,0,0,0a0.2,0.2,0,0,1,.13.1h0a1.28,1.28,0,0,1,.31.22h0c0.24,0.15.46,0.32,0.68,0.48a0.17,0.17,0,0,0,0,.08s0,0,0,0a1.61,1.61,0,0,1,.4.42,0.07,0.07,0,0,1-.07,0,0.19,0.19,0,0,1,0,.11h0a0.72,0.72,0,0,0,.07.12s0.06,0.08.08,0.13,0,0,0,0a0.28,0.28,0,0,1,0,.08,0,0,0,0,0,0,0s0-.07,0-0.07a0.25,0.25,0,0,1,0,.05s0-.06,0-0.08,0,0.07,0,.07,0,0,0,.05,0,0,0,0a0.61,0.61,0,0,1,.06.12,2,2,0,0,0,.23.16l0,0.07a0.43,0.43,0,0,0-.05.06,0.06,0.06,0,0,0,0,0,0.08,0.08,0,0,0-.06.08c0,0.05.15,0,.15,0.11a0.13,0.13,0,0,0,0-.13,0.28,0.28,0,0,1,0,0s0,0,0,0a0.06,0.06,0,0,1,0,0,0.1,0.1,0,0,0,0-.06h-0.05c0-.08,0-0.12,0-0.21L114.55,27s0,0-.06,0,0,0,0,0,0,0.1.07,0.13a0.05,0.05,0,0,1,0,0s0,0.08,0,.14a0.16,0.16,0,0,1,.08,0,0.22,0.22,0,0,1,.17,0s0,0.1,0,.1a0.44,0.44,0,0,0,.06.17s0,0-.06,0,0,0,0,0a0.18,0.18,0,0,0,0,.08s0,0-.07,0a0.1,0.1,0,0,0,0,0,0.12,0.12,0,0,1,0,0s0,0,0,0,0,0,0,0h-0.05s0,0,0-.05,0,0,0,0h0a0.05,0.05,0,0,0,0,0h0.07c0,0.06,0,0,.06.07a0.15,0.15,0,0,0,0,.13c0.06,0,.17.06,0.11,0.13a0.22,0.22,0,0,0,.07-0.13s0,0,0,0a0.08,0.08,0,0,0,0,0,0.7,0.7,0,0,1,.16.22,0.42,0.42,0,0,1-.07,0l0,0s0.06,0,.1,0a0.06,0.06,0,0,1,0,.06,0.09,0.09,0,0,0,.09,0s0,0,0,0a0.05,0.05,0,0,0,0,0,0.05,0.05,0,0,1,0,0s0,0,0,0,0,0,.09,0a0.5,0.5,0,0,0,.12.13,0.08,0.08,0,0,0,0,.06,0.29,0.29,0,0,1,0,0,0.3,0.3,0,0,0,0,.11h0a0.07,0.07,0,0,1,0,.08,0.55,0.55,0,0,0,.08.05s0,0,0,0a0.13,0.13,0,0,1,0,.07,0.07,0.07,0,0,1-.05,0,0.2,0.2,0,0,1,0,.12s0,0,0,0a0.39,0.39,0,0,0,0,0s0,0,.06,0a0.28,0.28,0,0,0,.05-0.06l0.09,0a0.06,0.06,0,0,1,.07,0,0.82,0.82,0,0,0,.12.22s0,0,0-.07,0,0,0,0a0.11,0.11,0,0,1,.07.06s0,0,0,0,0,0,0,0,0,0,0,0a0.15,0.15,0,0,0,.06.07s0,0,0,0,0,0,0,0,0,0,0,.06-0.06,0-.09,0a0.3,0.3,0,0,1,.15.13s0,0,0,0,0,0,0,0a0.08,0.08,0,0,0,0,.11,0.27,0.27,0,0,0,.13.29,0.22,0.22,0,0,0,.06,0,4.61,4.61,0,0,1,.11.46,0.12,0.12,0,0,0,0,.09,0.07,0.07,0,0,0-.05,0s0,0,0,0a1.08,1.08,0,0,0,0,.31,0.26,0.26,0,0,0,.13-0.24s0,0,0,0,0,0,.06,0a0.09,0.09,0,0,0,0,0,1.21,1.21,0,0,0,0,.13,0.58,0.58,0,0,1,.09.14l0,0c0.08,0,.1.17,0.18,0.22a0,0,0,0,1,0,0,0.16,0.16,0,0,1,.07,0,0.32,0.32,0,0,1,0,.12,0.11,0.11,0,0,1,.11.05,0.6,0.6,0,0,0,.11.26s0,0,0,.05,0-.06-0.06-0.07,0,0.08.05,0.08a0.51,0.51,0,0,0-.06.17,0.11,0.11,0,0,0,.05,0s0,0.1,0,.1,0.22-.56.25-0.47,0.08-.13.09-0.18,0,0,0,0a0.09,0.09,0,0,1,0,.05s-0.18.73-.16,0.7,0.22-.76.25-0.75a1.48,1.48,0,0,0-.14.5s0,0,0,0,0-.11,0-0.14a0.14,0.14,0,0,1,0,.06,0.05,0.05,0,0,0,0-.06h0.05a0.45,0.45,0,0,1,0,.07,0.1,0.1,0,0,0,.05,0,0.3,0.3,0,0,0,0,.12,0.13,0.13,0,0,1,0,0,0.15,0.15,0,0,0,0,.08s0,0,0,0,0,0.1.05,0.16a0.41,0.41,0,0,0,.06.18s0,0,0,.05,0,0,0,0a0.07,0.07,0,0,1,0,.07s0.16,0,.12.05a0.55,0.55,0,0,0,.09.07s0,0,0,0,0,0,0,0a0.09,0.09,0,0,1,.08.07H118.1a0.28,0.28,0,0,1,0,.07h0s0,0,0-.07a2.08,2.08,0,0,1,.15.14,0.06,0.06,0,0,0,0,0s0,0,0,0a0,0,0,0,0,0,0,0.13,0.13,0,0,1,0,.05,0,0,0,0,1,0,0c0.06,0.1.11,0.13,0.17,0.22a0.06,0.06,0,0,1,0,0,0.27,0.27,0,0,0,0,.05c0,0.07.09,0.07,0.14,0.09s0.05,0.12,0,.16h0s0,0,0-.07a0.22,0.22,0,0,0,.1.07,0.37,0.37,0,0,1,.1.13s0,0,0,0a0.46,0.46,0,0,1,.06.13s0,0-.08,0,0,0-.06,0l0,0a0.06,0.06,0,0,0,0,.06,0.12,0.12,0,0,0-.08,0,0.23,0.23,0,0,0,.05.07,0.11,0.11,0,0,0,0,0,0.09,0.09,0,0,1,0,.08s0,0,0,0a1.55,1.55,0,0,0,.11.24s0.07,0.11.12,0.14a1,1,0,0,0,.13.26,0.13,0.13,0,0,0,0,0s0,0,0,0a0.32,0.32,0,0,1,.09.21,0.23,0.23,0,0,1,.15.28,1.84,1.84,0,0,1,.19.23,0.32,0.32,0,0,0,.07.26,0,0,0,0,1,0,0s0,0-.07,0a0.1,0.1,0,0,1,0,.07,0.16,0.16,0,0,0-.06-0.05,0.05,0.05,0,0,1,0,.06,0.05,0.05,0,0,1,0-.06s0,0,0,0M85.05,38.8a0.06,0.06,0,0,1,.05,0,0.08,0.08,0,0,1,0,.05h0a0.22,0.22,0,0,1-.1,0,0.31,0.31,0,0,0,0,.1,0.12,0.12,0,0,1-.07,0,0.61,0.61,0,0,1,0,.1s0,0.06,0,.09a0.2,0.2,0,0,0,.07,0,1.5,1.5,0,0,0,0,.17s0,0,0,0h0a0.29,0.29,0,0,1,0,.08,0.13,0.13,0,0,0,0-.11l0,0a0.68,0.68,0,0,0,0,.1h0a0.16,0.16,0,0,0,0,.13s0-.08,0-0.1a0.1,0.1,0,0,0,.05,0,0.5,0.5,0,0,0,0,.17,0.26,0.26,0,0,0-.05,0,0.3,0.3,0,0,1,0,.07,0.37,0.37,0,0,0,0,0s0,0,0,0,0,0.06-.06,0,0,0,0,0A0.16,0.16,0,0,0,85,40,0.25,0.25,0,0,0,85,39.88c0,0.07,0,.16,0,0.24s0.07,0.16,0,.18a0.13,0.13,0,0,0-.14,0,3.3,3.3,0,0,0-1,0c-0.12,0-.26.12-0.39,0.15a0.79,0.79,0,0,0-.29.13L83,40.75c-0.2.12-.35,0.26-0.53,0.38a8,8,0,0,0-.6.69,4.71,4.71,0,0,0-.31.59c0,0.16-.06.29-0.08,0.44a0.24,0.24,0,0,1-.09,0,1.29,1.29,0,0,0-.1.49,1.12,1.12,0,0,0-.23.8s0,0-.06,0a0.48,0.48,0,0,1,0,0h0s0,0,0,0a0.2,0.2,0,0,1,0,.15,0.79,0.79,0,0,1,0,.2h0a0.81,0.81,0,0,1,0,.21c0.05,0,0,0,.06.07a0.07,0.07,0,0,0,0,.05s0,0,0,0A0.18,0.18,0,0,0,81,45s0,0,.06,0a0.44,0.44,0,0,1,.06.06s-0.08,0-.11.06,0.05,0,.05,0,0,0,0,0a0.14,0.14,0,0,0-.05.06s0,0,.05,0a0.26,0.26,0,0,0,0,.21l0.07,0a0.2,0.2,0,0,0,0,.15,0.05,0.05,0,0,0,0,0,0,0,0,0,1,0,0h0a0.12,0.12,0,0,1,0,.17,0.08,0.08,0,0,0-.06,0c0,0.05,0,.07,0,0.11a0.1,0.1,0,0,1,.1,0,1.47,1.47,0,0,1,0,.48,0,0,0,0,0,0,0,0.13,0.13,0,0,0,0,0,0.25,0.25,0,0,0,0,0s0,0,0,0a0.26,0.26,0,0,1,0-.14,0.18,0.18,0,0,1,0,.17h0a0.43,0.43,0,0,0,0,.05h0a0.17,0.17,0,0,1,0,.16,0.12,0.12,0,0,0,.06,0c0-.07,0-0.15,0-0.17a0.74,0.74,0,0,0,0,.14s0,0,0,0a0.48,0.48,0,0,0,0,.21,0.14,0.14,0,0,1,.06,0,0.45,0.45,0,0,0,0,.05,0.12,0.12,0,0,1,0,0l0,0v0.05a0.23,0.23,0,0,1,.08,0s0,0.06,0,.1,0,0,0,0l0,0.05a0,0,0,0,1,0,0,0.38,0.38,0,0,1-.13,0,0.23,0.23,0,0,1,0-.14s0,0,0,0,0,0,0,0a0.13,0.13,0,0,0,0-.11c-0.09,0,0,0,0-.05s0,0,0,0a0,0,0,0,1,0,0,0.7,0.7,0,0,1-.1-0.11,0.08,0.08,0,0,1-.06.1s0,0,.07,0,0,0,0,.09-0.08.05,0,.07,0,0,0,0,0.06,0,0,.08,0,0,.06,0,0,0,0,0,0,0,0,0h0s0,0,0,0a0.39,0.39,0,0,1,.07,0,0.2,0.2,0,0,1,0,.05,0.47,0.47,0,0,1,.06,0v0a0.8,0.8,0,0,0-.19,0,0.19,0.19,0,0,0,0,.07s0.19,0,.17,0,0,0,0,0l-0.05,0,0,0c-0.07,0-.07-0.1-0.15-0.11a0.65,0.65,0,0,1,0,.17s0,0,0,0,0.05,0,.07.09,0,0,0,0a0.37,0.37,0,0,0,0,0s0,0,0,0,0-.06-0.06-0.07a0.28,0.28,0,0,0,0,.14,0.07,0.07,0,0,1,.1.07,0.2,0.2,0,0,0-.14.06s0,0,0,0,0,0,0,0a0.12,0.12,0,0,0,.09,0s0,0,0-.08,0-.14,0-0.15a0.46,0.46,0,0,1,.09.21l0,0a0.15,0.15,0,0,0,.11.12,0.08,0.08,0,0,1-.07,0,0.34,0.34,0,0,0,.06.13,0.06,0.06,0,0,1,0,0,0.12,0.12,0,0,0,.06.09,0.3,0.3,0,0,0,.07,0,0.07,0.07,0,0,0,0,0c0.07,0,0-.13,0-0.16a1.25,1.25,0,0,1,.18.1,0.07,0.07,0,0,1,0,0,0.1,0.1,0,0,0-.1,0,0.68,0.68,0,0,1,0,.15,1.26,1.26,0,0,0,.25.39,0.3,0.3,0,0,0,.2.34,0.89,0.89,0,0,1,0,.19,0.19,0.19,0,0,1,0,.07h0a7.51,7.51,0,0,0,.62.6A0.34,0.34,0,0,1,83,50a0.14,0.14,0,0,0,0,.08,0.23,0.23,0,0,1,.12.05,0.22,0.22,0,0,0,0,.07,0.31,0.31,0,0,1,.09.1,0.44,0.44,0,0,1,.18.09s0,0,0,0a1,1,0,0,1,.25.09,0.43,0.43,0,0,1,0,.06,0.52,0.52,0,0,0,.26,0v0c0.05,0,.17-0.06.19,0l0,0,0,0c0,0.07-.08,0-0.08.08a1,1,0,0,0,.46.26,0.36,0.36,0,0,0,.29.23s0.07,0.06.12,0.09a1.39,1.39,0,0,0,.32.11,0.06,0.06,0,0,0,0,0,0.12,0.12,0,0,1,.13,0s0,0,0,0a3.29,3.29,0,0,1,.46.13l0.13,0,0.27,0.12,0.15,0.06a0.5,0.5,0,0,0,.21.08c0.16,0.1.35,0,.51,0.13v0a2.65,2.65,0,0,1,.19.28v0c0.06,0,0,.08,0,0.13a0.08,0.08,0,0,1,0,0,0.07,0.07,0,0,0-.05.08s0,0,0,0a0.1,0.1,0,0,1,0,.11,0.07,0.07,0,0,1,.08.1s0,0,0,0a0.49,0.49,0,0,0,0-.08,0.28,0.28,0,0,1,0,.05s0,0,0,0a0.05,0.05,0,0,0,0,.05,0.32,0.32,0,0,0,0,0s0,0,0,0a0,0,0,0,0,0-.05,0.41,0.41,0,0,1,.08-0.08s0,0,0,.07L87.89,53a0.06,0.06,0,0,1,0,.05c0,0.07.06,0.12,0.07,0.17a0.08,0.08,0,0,1,0,0,0,0,0,0,1,0-.05c0.07,0,.06.13,0,0.19l0,0c0,0.06,0,.06-0.08.08a0.14,0.14,0,0,0,.09.08,0.06,0.06,0,0,1,0,0,0.24,0.24,0,0,1,.05,0,0,0,0,0,1,0,0,0,0,0,0,1,0,0,0.22,0.22,0,0,0,0,0,0.1,0.1,0,0,1,0,.11s0,0,0-.06,0.05,0,.07,0,0,0,0,.07,0,0,0,0,0,0,.06,0,0,0,0,0a0.15,0.15,0,0,0,0,0,0,0,0,0,1,0,.05,0.11,0.11,0,0,1-.06.12s0,0,0,.07a0.31,0.31,0,0,1,.15.17s0-.06.08,0a0.08,0.08,0,0,1,0-.08,0.41,0.41,0,0,1,0,.08s0,0,0,0,0,0,0,0a0.17,0.17,0,0,1,.07,0,0.08,0.08,0,0,1,0,0s0,0,.06,0a0.09,0.09,0,0,0,0,0,0.08,0.08,0,0,1,0-.05,0.32,0.32,0,0,1,0,.08s0,0,0,0a0.34,0.34,0,0,1,0,0,0.17,0.17,0,0,1,0,.08c0,0.05,0,.12,0,0.17s0,0,0,0a0.13,0.13,0,0,1,.05.1c0.11,0,.1.17,0.21,0.22a0.15,0.15,0,0,0,0,0s0.06,0,0,.06,0,0,0,0a2.33,2.33,0,0,0,.22.25,0,0,0,0,0,0,0,0.2,0.2,0,0,1,0,0,1.31,1.31,0,0,1,.13.17,1.9,1.9,0,0,1,.26.25,0.12,0.12,0,0,0,0,.05s0,0,0,0,0,0.12.11,0.1,0.15,0.08.09,0.13a0.1,0.1,0,0,0,0-.07s0,0,0,0a0.52,0.52,0,0,0,.13.06v0a1,1,0,0,1,.34.28s0,0,0,0h0a0.86,0.86,0,0,1,.13.18,0.12,0.12,0,0,1,.1.09,0.18,0.18,0,0,1,.05,0,0.34,0.34,0,0,1,.14.14c0.08,0,.15.12,0.24,0.12l0,0c0.11,0,.08.14,0.17,0.18l0,0s0,0,.08,0a0.09,0.09,0,0,1,0,.11s0.05,0,.09,0a0.52,0.52,0,0,1,.24.23,0.07,0.07,0,0,1,.05,0,0.25,0.25,0,0,1,0,0s0,0,0,0l-0.05,0s0,0,0,0a0.05,0.05,0,0,0,0,.06s0.09,0,.06,0a0,0,0,0,1-.05,0,0.41,0.41,0,0,0,.09,0s0,0.05,0,0,0,0,0,0a0.16,0.16,0,0,0-.1,0,0.06,0.06,0,0,0,.09.05s0,0.06,0,.07,0,0,0,0,0,0,0,0a0.9,0.9,0,0,1,0,.1s0-.05,0,0a0.09,0.09,0,0,0,0,.07,0.06,0.06,0,0,1,0-.05s0,0,.05.07h0s0,0,0,0a0.09,0.09,0,0,0,0,.05,0.18,0.18,0,0,1,.15,0,0.51,0.51,0,0,1,0,.19s0,0.05,0,.08,0,0,.08,0a0.08,0.08,0,0,1,0,.08l0,0a0.16,0.16,0,0,0,0,.12s0,0,0,0a0.23,0.23,0,0,0,0,.07,0.33,0.33,0,0,0,.07-0.08s0,0,0,0l0.06,0a0.15,0.15,0,0,1,0,.06s0,0,0,0,0,0,0,.05,0.05,0,.07-0.07a0.07,0.07,0,0,1,0,.07,0.1,0.1,0,0,1,.08.07s0,0,0,0a0,0,0,0,0,.07,0,0.25,0.25,0,0,1,.13.14s0,0,.05,0a0.29,0.29,0,0,0,.1.16,0.08,0.08,0,0,1,0,0,0.14,0.14,0,0,0,0,.08c0-.07,0,0,0.05,0s0-.09.09,0a0,0,0,0,0,0,0,0.22,0.22,0,0,1,0,0s0,0,0,0a0,0,0,0,0,0,0,0.24,0.24,0,0,0,0,.12s0,0,0,0,0,0,.06.07,0.09,0.13.15,0.05a0.14,0.14,0,0,1,0,0s0,0,0,0a0.08,0.08,0,0,1,0,0s0,0,0,0a0.07,0.07,0,0,0,.07,0,0.21,0.21,0,0,0,0,0c0.07,0,0,.1.1,0.13s0,0,0,0a0.12,0.12,0,0,1,.08.11,0.34,0.34,0,0,0,.13,0,0.35,0.35,0,0,1,.07.1h0s0,0,0,0,0.1,0.06.14,0,0,0,0-.06,0.05,0.06.11,0.09a0.11,0.11,0,0,1,0-.05,0.55,0.55,0,0,1,.06.16s0,0,0,0a0.06,0.06,0,0,1,0,0c0,0.07.08,0.18,0.16,0.16a0.42,0.42,0,0,0,0,.14,0.06,0.06,0,0,0,0,0,0.43,0.43,0,0,0,0,0,0.07,0.07,0,0,0,0,.05s0,0,0,0a0.53,0.53,0,0,0,.11.12,0,0,0,0,1,0,0,0.08,0.08,0,0,0,0,.05s0,0,0,0,0,0,0,0a0.16,0.16,0,0,1,0,0s0,0,0,0a0.29,0.29,0,0,1,.16.12,0.42,0.42,0,0,0,.06,0,0.12,0.12,0,0,1,0,.08s0,0,0,0,0,0,0,.05,0,0,0,0a0.23,0.23,0,0,1,.24.14,0.16,0.16,0,0,1,0,0,0.82,0.82,0,0,1,.18.11,0.74,0.74,0,0,1,.31.15h0c0.1,0.06.24,0.09,0.34,0.16a0.15,0.15,0,0,1,.11.05,1.79,1.79,0,0,1,.61.36,0.08,0.08,0,0,1,0,0,1.18,1.18,0,0,1,.27.21s0,0,0,0a4.1,4.1,0,0,1,.37.24,0.07,0.07,0,0,1,.09,0,0.56,0.56,0,0,1,.15.06,0.07,0.07,0,0,1-.06.05,0.09,0.09,0,0,0,0,.07,0.15,0.15,0,0,0,.09,0s0.08,0,.12,0,0,0,0,0a0,0,0,0,0,0,0s0,0,0,0a0.16,0.16,0,0,1,.11.13,0.15,0.15,0,0,1,.18.06,0.19,0.19,0,0,0,.07,0s0.11,0,.11.1a0.21,0.21,0,0,0,.06,0s-0.05,0,0,0,0.09,0,.1.06,0,0-.05,0,0.08,0,.08.07a0.24,0.24,0,0,1,0,0,0.11,0.11,0,0,0,.11,0,0.12,0.12,0,0,0,.11,0s0,0,0,0a0.15,0.15,0,0,1,.18,0,0.1,0.1,0,0,1,.11,0c0.09,0,.11.06,0.21,0l0,0.06s0,0,0,0,0.05,0,.08-0.06a0.56,0.56,0,0,1,.18.09,0.25,0.25,0,0,1,.19,0,1.75,1.75,0,0,1,.32.06,0.11,0.11,0,0,1,0,0s0.05,0,.06,0a0.24,0.24,0,0,0,.14.07s0-.09.07-0.09a0.48,0.48,0,0,0,0,.08,0.62,0.62,0,0,0,.22,0s0,0,0,0,0.09,0,.08.06,0,0,0,0,0.18,0,.14.06,0,0.06,0,0,0,0,0-.05a0.12,0.12,0,0,0,0,.1s0-.08,0-0.08a0.24,0.24,0,0,1,0,.07c0-.09,0,0,0.05-0.07a0.27,0.27,0,0,1,.24,0s0,0,0,0,0.07,0.1.12,0.13a0.22,0.22,0,0,1,0-.07s0,0,0,.06,0,0,.05,0,0.1,0,.13,0l0.07,0v0s0,0,0,0a0.39,0.39,0,0,1,.05,0,0.32,0.32,0,0,0,0,.05h0a0.34,0.34,0,0,1,0,0h0a0.06,0.06,0,0,0,0,.05,0.14,0.14,0,0,1,.1,0v0a0.58,0.58,0,0,1,.14,0s0,0,0,0a0.16,0.16,0,0,0,.12,0c0,0.09.09-.1,0.13,0s0,0.16,0,.15a0.14,0.14,0,0,0,0,0,1.11,1.11,0,0,1,.16-0.21s0,0.06,0,.05a0.34,0.34,0,0,0,.07.17,0.14,0.14,0,0,0,.06,0,0.09,0.09,0,0,0,.05.06c0-.05.08-0.08,0-0.14a0.15,0.15,0,0,1,.06,0,0.14,0.14,0,0,1,0-.05h0.1a0.07,0.07,0,0,0,0,.05,0.14,0.14,0,0,1,.14.08,0.5,0.5,0,0,1,.11,0,0.21,0.21,0,0,0,0-.1c0-.11.08,0.09,0.06,0s0,0,0,0a0.1,0.1,0,0,0,0,.11,0.54,0.54,0,0,0,0-.1s0,0,0,0,0,0,0,0,0.09-.06.11-0.06a0.2,0.2,0,0,0,0,.06,0.08,0.08,0,0,0,0,0,0.18,0.18,0,0,0,.11-0.13s0,0,0,0a0.18,0.18,0,0,1-.06,0,0.12,0.12,0,0,1,0,0s0.06,0,.08,0a0.09,0.09,0,0,0,0-.06s0.07,0,.1,0,0,0,0,.07,0,0,0,0l0.05,0a0.09,0.09,0,0,1,.1,0,0.19,0.19,0,0,1,0,0,0.06,0.06,0,0,0,.05,0,0.5,0.5,0,0,1,.17.05,0.1,0.1,0,0,1,0,.06s0,0,0,0a0.1,0.1,0,0,0,.13,0s0,0,0-.05a0.09,0.09,0,0,0,0,.05c0.05,0,0-.26.08-0.22a0.1,0.1,0,0,0,0,.05s0,0,0,0,0,0,0,0,0,0.05,0,.06,0,0,0,0l0.08,0s0,0,0,0a0.34,0.34,0,0,0,0,0,0.32,0.32,0,0,1,.05,0s0,0,0,0a0.18,0.18,0,0,0,0-.05l0.11,0s0,0,0,0a1.06,1.06,0,0,1,.29,0,0,0,0,0,1,0,0,4.4,4.4,0,0,0,.68-0.08h0a1,1,0,0,1,.37-0.06,0.15,0.15,0,0,1,.12,0s0,0,0,0,0,0,0,0a0,0,0,0,1,0,0,0.28,0.28,0,0,1,.15,0s0,0,0,0a0.84,0.84,0,0,1,.25.05s0,0,0,0a0.26,0.26,0,0,0,.06,0v0a0.49,0.49,0,0,1,.38,0,0.05,0.05,0,0,1,0,0,0.26,0.26,0,0,1,.11,0,1,1,0,0,1,.39,0,0.41,0.41,0,0,1,.31,0,0.36,0.36,0,0,1,.26,0,0.21,0.21,0,0,1,.16,0s0.07,0,.07,0a0,0,0,0,1,0,0,0.32,0.32,0,0,1,.21,0c0.15-.08.37,0,0.53-0.11a1.48,1.48,0,0,0,.32-0.05l0,0s0,0,.05,0a0.38,0.38,0,0,1,.17,0,0.23,0.23,0,0,1,.15,0,0,0,0,0,1,0,0,0.23,0.23,0,0,1,.14,0,1.13,1.13,0,0,1,.41-0.11,0.27,0.27,0,0,1,.19-0.06c0.17-.06.38-0.13,0.6-0.18a0.56,0.56,0,0,0,.17,0s0,0,.05,0,0.11,0.08.16,0.13a0.16,0.16,0,0,0,0,0,0,0,0,0,0,0,0c0-.08,0-0.19.05-0.2s0,0,0,0a0.24,0.24,0,0,1,.09,0s0,0,0,0a0.07,0.07,0,0,0,0-.1s0,0,0,0v0s0,0,0,0a0.11,0.11,0,0,1-.08,0s0,0,0,0a0.18,0.18,0,0,0-.15.06,0.88,0.88,0,0,1,.19,0,0.21,0.21,0,0,0,.07-0.1s0,0,0,0a0.46,0.46,0,0,1,.27-0.09,0.12,0.12,0,0,1,.17,0,0.1,0.1,0,0,1,0-.1s0.06,0,.08,0a0.57,0.57,0,0,0,.21-0.07s0,0,.05,0a0.13,0.13,0,0,1,.11,0V62a0,0,0,0,0,0,0,1,1,0,0,0,.13,0,0.16,0.16,0,0,1,.19,0,0.26,0.26,0,0,0,0-.05,0.8,0.8,0,0,1,.3-0.06s0,0,0,0,0,0,0,0,0,0,0,0a0.22,0.22,0,0,1,.22-0.08,0.09,0.09,0,0,1,.14,0c0-.06.07-0.06,0.11-0.06a0.46,0.46,0,0,1,.19-0.09,0.26,0.26,0,0,0,.11,0s0,0,0,0a0.92,0.92,0,0,1,.28-0.11,0,0,0,0,1,0,0,2.56,2.56,0,0,1,.49-0.21,0.08,0.08,0,0,1,0,0,8,8,0,0,1,.72-0.35,1,1,0,0,1,.33-0.19l0.6-.35h0s0,0,0,0c0.23-.1.43-0.27,0.64-0.35a1.07,1.07,0,0,1,.23-0.16,0.17,0.17,0,0,0,.08,0,0.23,0.23,0,0,0,0-.08c0.06,0,.12-0.06.19-0.11a1.14,1.14,0,0,1,.29-0.2,0.09,0.09,0,0,1,0,0,1.34,1.34,0,0,0,.36-0.32c0.08,0,.1-0.11.18-0.12a2.63,2.63,0,0,1,.44-0.4h0s0,0,0,0h0a0.09,0.09,0,0,1,0,0,0.52,0.52,0,0,1,.2-0.11,0.49,0.49,0,0,1,.12-0.11,0.93,0.93,0,0,1,.11-0.18c0.08-.05.12-0.16,0.2-0.21a1,1,0,0,1,.24-0.28,1.06,1.06,0,0,1,.24-0.32s0.13,0,.11-0.07a0.08,0.08,0,0,1,0,0,1.51,1.51,0,0,1,.1-0.11s0,0,0,0,0,0,0,0a2.29,2.29,0,0,1,.26-0.31,1.88,1.88,0,0,0,.31-0.62c0.18-.23.32-0.51,0.52-0.72,0-.13.15-0.2,0.2-0.34a4.11,4.11,0,0,0,.41-0.68h0a2.64,2.64,0,0,0,.22-0.58h0a0.73,0.73,0,0,1,.06-0.25h0a0.38,0.38,0,0,1,.19-0.39,0.5,0.5,0,0,1,.06-0.15c0-.17.1-0.29,0.12-0.46s0-.2.1-0.25c0.1-.4.25-0.75,0.35-1.16a2,2,0,0,0,.23-0.53,0.33,0.33,0,0,1,.15,0,0.36,0.36,0,0,0,.21.08,0.21,0.21,0,0,1,.15,0s0,0,0,0a0,0,0,0,1,0,0l0.16,0s0,0,0,0a1.35,1.35,0,0,0,.29,0,1.72,1.72,0,0,1,.34,0,1.38,1.38,0,0,1,.3,0,0.08,0.08,0,0,1,0,.08s0.2-.3.23-0.28,0.07,0,.1,0a0,0,0,1,1,.05.05,0.16,0.16,0,0,0,0,0,0.21,0.21,0,0,0,0,.07,0,0,0,0,1,.06,0,0.38,0.38,0,0,1,.1-0.05,2.65,2.65,0,0,0,.1-0.28s0,0,0,0a0.09,0.09,0,0,0,.07,0s0,0,0,0a0.62,0.62,0,0,1,.06.05,0.08,0.08,0,0,0-.05,0s0.05,0,.1,0,0,0,0-.05-0.16.26-.21,0.22,0,0,0,.07a0.13,0.13,0,0,0,0,0s0-.08,0-0.11a0,0,0,0,0,.05,0,0,0,0,0,1,0,0,0.42,0.42,0,0,1,.13,0s0-.13.13-0.08a0.07,0.07,0,0,1,.08,0,0.1,0.1,0,0,0,0-.07,1.07,1.07,0,0,1-.05.17,1.57,1.57,0,0,1,.29,0,0.23,0.23,0,0,1,.13-0.06s0-.07.08-0.05a0.09,0.09,0,0,1,.08-0.06l0,0.07A0.4,0.4,0,0,0,128,50a0.06,0.06,0,0,0,.06.06s0,0,0,0h0a0.11,0.11,0,0,0,.11,0c0-.09,0-0.16.14-0.15a0.33,0.33,0,0,1,0,0h0s0.06-.06.07,0a0.09,0.09,0,0,0,0,.05c0.06,0,.1,0,0.17,0s0,0,.06-0.06,0,0,0,.08a0.11,0.11,0,0,0-.08,0,0.11,0.11,0,0,0,0,.06,0.09,0.09,0,0,1-.08,0,0.16,0.16,0,0,1,0,.05,0.09,0.09,0,0,0,0,0l0.07,0,0.08,0a0.11,0.11,0,0,0,.07-0.05,0.07,0.07,0,0,1,.06,0,0.05,0.05,0,0,1,.08,0,0.26,0.26,0,0,1,.1-0.11h0s0,0.06,0,.06a0.46,0.46,0,0,0,0-.07,0.43,0.43,0,0,1,.16-0.13,2.64,2.64,0,0,1,.27-0.29h0s0.06-.09.1-0.13a1.06,1.06,0,0,1,.22-0.25h0s0,0,0-.05a0.11,0.11,0,0,0,0,0,2.37,2.37,0,0,0,.41-0.78s0,0,0,0a0.11,0.11,0,0,0,0,0,3.47,3.47,0,0,0,.12-0.71c0-.05,0-0.11,0-0.17s0-.08,0-0.12a1.61,1.61,0,0,0,0-.23c0-.23,0-0.38,0-0.58s-0.14-.6-0.15-0.86a0.14,0.14,0,0,1,0-.09,0.52,0.52,0,0,1-.06-0.23,6.2,6.2,0,0,0-.8-1.57,4.18,4.18,0,0,0-2.23-1.53,1.91,1.91,0,0,0-.27-0.08,0.11,0.11,0,0,1-.1,0c-0.06,0-.11,0-0.17,0l0,0a3,3,0,0,1-.39,0h-0.37a2.88,2.88,0,0,0-.39,0,0.77,0.77,0,0,1-.22,0,0.52,0.52,0,0,1-.23,0,6.83,6.83,0,0,1-.14-0.78,0.12,0.12,0,0,0,0,0c-0.05,0,0-.05,0-0.09a3,3,0,0,0-.1-0.29,1,1,0,0,0-.09-0.27,0.21,0.21,0,0,0,0-.15s0,0,0,0a0.32,0.32,0,0,1-.1-0.2s0,0,0,0,0,0,0,0l-0.1-.12a0.11,0.11,0,0,0,0,0c-0.06,0,0-.07,0-0.11a0.38,0.38,0,0,1-.12-0.16s0-.08,0-0.11,0,0,0,0a0.12,0.12,0,0,0-.06,0,0,0,0,0,0-.07,0,0.12,0.12,0,0,0-.08-0.07s0,0,0,0h0a0.56,0.56,0,0,1,0-.18,0.1,0.1,0,0,1,0,0,0.27,0.27,0,0,1,.19-0.13,0.72,0.72,0,0,1,0-.07,0.14,0.14,0,0,0,.09,0,0.1,0.1,0,0,1,0-.08,0.6,0.6,0,0,0-.05.06c0-.06,0-0.11-0.07,0s0,0,0,0a1.33,1.33,0,0,0,0-.14,0.71,0.71,0,0,0-.09-0.1,0.36,0.36,0,0,0,0,0s0,0,0,0,0,0,0,0,0,0-.08,0,0,0,0,0a0.77,0.77,0,0,1-.1-0.26s0,0,0,0,0,0,0,0a0.09,0.09,0,0,0-.07-0.11s0-.08,0-0.08a0.17,0.17,0,0,0,0,.13,0.13,0.13,0,0,1-.06-0.06s0,0,0,0,0,0,0,0a0.34,0.34,0,0,1,0-.14,0.82,0.82,0,0,1,.11,0s0,0,0,0,0,0,.07,0a1.47,1.47,0,0,0,0-.16s0,0,.06,0,0-.06,0-0.09,0,0-.05,0-0.12-.05-0.15-0.11,0,0,0,0a0.33,0.33,0,0,1,0-.2s0,0,0,0,0,0,0,0l0,0a0.34,0.34,0,0,1,0,0,0.07,0.07,0,0,0,0-.1,0.06,0.06,0,0,1,0,0,0.17,0.17,0,0,1,0,0s-0.11,0-.13,0,0,0,0,0-0.06,0-.09,0a1.07,1.07,0,0,1,.07-0.22s0,0-.05,0,0,0,0,0a0.15,0.15,0,0,1,.07,0,0.6,0.6,0,0,0,0-.16h0s0,0,0,.06a0.17,0.17,0,0,1-.11,0s0-.06,0-0.1a0.26,0.26,0,0,1-.06,0,0.58,0.58,0,0,0,0-.13L123.33,37a0.16,0.16,0,0,1-.05,0,0.26,0.26,0,0,0,0-.05,0.08,0.08,0,0,1-.05,0s0-.09,0-0.09a0.3,0.3,0,0,0,.07,0,0.15,0.15,0,0,1,0-.05s0,0,0,.05,0,0,.05,0a0.46,0.46,0,0,0-.11-0.15,0,0,0,0,0,0,0,0.08,0.08,0,0,1-.07-0.06s0,0,0,0a0.08,0.08,0,0,1-.05-0.06,0.37,0.37,0,0,1-.07-0.14s0,0,0-.05,0,0-.06-0.06,0,0,0,0a0.43,0.43,0,0,1-.1-0.23A0.15,0.15,0,0,1,122.9,36a0.21,0.21,0,0,0-.11,0,0.1,0.1,0,0,1,0,0s0,0-.07,0,0,0.06,0,.08,0,0,0,0a0.17,0.17,0,0,0,0-.12,0.08,0.08,0,0,1,0,0s0,0,0,0a0.21,0.21,0,0,1,0,0,0.09,0.09,0,0,1-.07,0,0.11,0.11,0,0,1,0-.11,0.15,0.15,0,0,0,.05,0,0.06,0.06,0,0,1,0-.05h0s0,0,0,0h0s0,0,0,0,0.09,0,.16,0a0.11,0.11,0,0,1,.07-0.08,0.23,0.23,0,0,0-.11-0.17,0.1,0.1,0,0,1,0,0,0.24,0.24,0,0,1-.07-0.15,0.87,0.87,0,0,1-.17-0.33,3,3,0,0,0-.15-0.26s0,0,0,0a0.19,0.19,0,0,1-.08-0.18,0.45,0.45,0,0,0-.13-0.16s0,0,0-.06a3.28,3.28,0,0,0-.4-0.64,0.42,0.42,0,0,0-.1-0.24c-0.09,0-.1-0.1-0.06-0.16s0,0.06.07,0.05a0.09,0.09,0,0,0-.07-0.1h0s0,0,0,0a0.23,0.23,0,0,1-.05-0.18,0.06,0.06,0,0,1,0-.07c-0.17-.33-0.35-0.69-0.54-1l-0.21-.35a2.84,2.84,0,0,1-.15-0.3c0-.06-0.07-0.12-0.1-0.18-0.11-.24-0.23-0.46-0.35-0.68a3.36,3.36,0,0,1-.27-0.38l-0.39-.61c-0.12-.16-0.22-0.34-0.34-0.5a0.14,0.14,0,0,1,0,0c-0.1-.1-0.17-0.23-0.27-0.33A7.05,7.05,0,0,1,118.3,28a20.08,20.08,0,0,0-1.86-2.54,0.06,0.06,0,0,0,0-.05s0,0,0,0a0,0,0,0,0,0,0c0,0.07-.1.06-0.07,0a0.39,0.39,0,0,0-.13,0,0,0,0,0,0,0,0,1,1,0,0,0-.25-0.17h0a0.4,0.4,0,0,1,0-.14s0,0,0,0a0.38,0.38,0,0,1-.18-0.15,0.17,0.17,0,0,1,0,0,0,0,0,0,0,0-.05s0,0,0,0a0.3,0.3,0,0,0,0,0l0,0s0,0,0,0a0.06,0.06,0,0,0,0,0h-0.07a0.13,0.13,0,0,0,0-.07s0,0.05,0,.06a0.42,0.42,0,0,1,0-.11,0.32,0.32,0,0,0,0,0,0.61,0.61,0,0,1-.22-0.25s0,0-.06,0a0.1,0.1,0,0,0,0,0s0,0,0,0a0.05,0.05,0,0,0,.05,0s0,0,0-.06a0.16,0.16,0,0,0-.17,0,0.27,0.27,0,0,0-.13,0,0.56,0.56,0,0,1,0-.07,0.22,0.22,0,0,1,0-.07,0.06,0.06,0,0,0,0,0,0.32,0.32,0,0,1-.09-0.05,0.31,0.31,0,0,1-.11,0s0-.08,0-0.1,0,0.05,0,.05a0.17,0.17,0,0,0,0-.07s-0.06,0-.1-0.05a0.12,0.12,0,0,1,0,0,0.05,0.05,0,0,1,0-.07,0.16,0.16,0,0,0-.11,0,0.18,0.18,0,0,1,0-.16,0.18,0.18,0,0,0,.14.06,0.16,0.16,0,0,0,0-.06s0,0,0,0a0.11,0.11,0,0,0,0,0c-0.06-.1-0.22-0.15-0.28-0.24a4.17,4.17,0,0,1-.5-0.33,2,2,0,0,1-.39-0.23,3.34,3.34,0,0,0-.34-0.15,0.26,0.26,0,0,0,0,0h-0.08a6.78,6.78,0,0,0-1.35-.58,4,4,0,0,0-.47-0.17,4.45,4.45,0,0,1-.54-0.15c-0.14,0-.23-0.07-0.38-0.07a0.16,0.16,0,0,0,0,0,0.11,0.11,0,0,1-.05,0,0.31,0.31,0,0,0-.14,0,0.06,0.06,0,0,1,0-.09,2.77,2.77,0,0,0,.17-0.24s0-.08,0-0.11,0,0,0,0a0.08,0.08,0,0,0,0-.1s0,0,0,0a0.12,0.12,0,0,1,0-.1s0,0,0,0,0,0,0,.06a0.09,0.09,0,0,1,0-.16,0.33,0.33,0,0,1,0,0,0.11,0.11,0,0,0-.1,0,0.05,0.05,0,0,0-.06,0s0-.07,0-0.1,0.07-.05.13,0a0.69,0.69,0,0,0,0-.09,0.46,0.46,0,0,0-.07,0s0-.07,0-0.1a0.06,0.06,0,0,1,0-.07,1.26,1.26,0,0,1,.12-0.11,0,0,0,0,0,0,0s0,0,0-.05a0.33,0.33,0,0,1,0-.06s0,0,0,0h0a0.14,0.14,0,0,1,0,0,0.09,0.09,0,0,0,.13-0.11,0.44,0.44,0,0,0,.06-0.1,0.21,0.21,0,0,1-.1-0.15,0.2,0.2,0,0,1,.23,0s0-.06,0-0.06,0,0.05,0,.05a0.11,0.11,0,0,0,0-.12,1.43,1.43,0,0,1,.07-0.14s0,0,0,0a0.45,0.45,0,0,0,.1-0.07,0.2,0.2,0,0,0,.11,0s0,0,0,0l0.05,0s0,0,0,0,0,0.08,0,.11l0.06,0a1.28,1.28,0,0,0,0-.15s0,0,0,0a0.36,0.36,0,0,0,0-.05s-0.06,0-.07,0,0.06,0,.1,0a0.11,0.11,0,0,1,.07-0.07,0.45,0.45,0,0,1,0-.07s0,0,.05,0a1,1,0,0,0,0-.11s0.06,0,.08,0a0.09,0.09,0,0,1,0,.07,0.12,0.12,0,0,1,.06,0s-0.05,0-.05-0.07h0a0.44,0.44,0,0,0,0-.09s0.05,0,.05,0a0.07,0.07,0,0,0-.07,0s0,0,0,0-0.05,0-.06-0.07a0.41,0.41,0,0,1,0,0s0,0,0,0a0.33,0.33,0,0,0,0-.1,0.47,0.47,0,0,0,.07,0v0a0,0,0,0,0,0,0,0.12,0.12,0,0,1,0-.06c0.06,0,.08,0,0.13,0a0.14,0.14,0,0,1,.08-0.13,0.42,0.42,0,0,0,0-.18l0,0s0-.05.07,0a0.13,0.13,0,0,0,0-.09c0.09-.09.12-0.23,0.21-0.32v0c0.08-.1.09-0.26,0.19-0.36a1.24,1.24,0,0,0,.1-0.34s0,0,0,0l0.1-.11s0-.09,0-0.1h0s0,0,0,0,0,0,0,0,0-.05.07-0.07a0.4,0.4,0,0,1-.05,0,0.28,0.28,0,0,0,0-.08s0,0,0,.06a0.07,0.07,0,0,1,0-.07,0.33,0.33,0,0,1-.05-0.07s0,0,0-.06a0.18,0.18,0,0,0,.08,0,0.79,0.79,0,0,1,0-.36s0,0,0,0a0.12,0.12,0,0,1,0-.05,0.59,0.59,0,0,0-.17-0.3,1.26,1.26,0,0,0-.82-0.19,0.66,0.66,0,0,1-.14.08h0a3.1,3.1,0,0,0-.6.33,1.93,1.93,0,0,1-.36.27c-0.1.09-.19,0.19-0.3,0.28l-0.13.09c-0.07.07-.12,0.15-0.19,0.22a2.39,2.39,0,0,0-.16.19,0.41,0.41,0,0,0-.15.18c-0.09.09-.15,0.22-0.24,0.31s-0.06,0,0,.1,0,0,0,0a0.25,0.25,0,0,1,0,.08h0a1,1,0,0,0-.18.39,0.31,0.31,0,0,0-.1.07s0,0,0,0a0,0,0,0,0,0,.06,0.11,0.11,0,0,1,0,0,0.23,0.23,0,0,1-.06.2,1.14,1.14,0,0,1-.09.21,0.21,0.21,0,0,0-.06,0s0,0.07,0,.08a0.06,0.06,0,0,0-.06,0,0.11,0.11,0,0,1,0,.06s-0.06,0-.09,0a0.09,0.09,0,0,0,0,.07s0,0,.06,0,0,0,0,.07a0.34,0.34,0,0,1-.07.15s0,0-.07,0a0.13,0.13,0,0,0-.1-0.07,0,0,0,0,0,0-.05,0.18,0.18,0,0,1-.16.18c-0.17.27-.32,0.57-0.48,0.86h0a3.92,3.92,0,0,1-.53.8,1.12,1.12,0,0,1-.33,0l-0.18,0,0,0h-0.12l-0.7-.08h-0.1l0,0H105c-0.29,0-.63-0.09-0.94-0.12l-0.87-.08h-0.09l-0.05,0h-0.11l-0.05,0h-0.32l-0.07,0a3,3,0,0,0-.39,0,1.7,1.7,0,0,0-.41,0l0,0a1.29,1.29,0,0,0-.17,0l-0.06,0c-0.13,0-.27,0-0.39,0l-0.3,0h-0.17l-0.09,0a3.28,3.28,0,0,0-.41,0c-0.34,0-.64,0-1,0s-0.53,0-.85.13a4.43,4.43,0,0,0-.55.14s0,0,0,0a1.61,1.61,0,0,0-.78.48,1,1,0,0,0-.1.17,0.79,0.79,0,0,0,.33.91,0.33,0.33,0,0,1,.1,0,0.15,0.15,0,0,1,0,.11,0.33,0.33,0,0,0-.07,0s0,0,0,0,0,0.06,0,.08,0,0,0,0a0.07,0.07,0,0,1,0,0s0-.05.08,0,0,0,0,.05,0.12,0,.17,0a0,0,0,0,1,0,0s0,0-.05,0a0.12,0.12,0,0,0,.11,0,0.13,0.13,0,0,0,0,.05c0.06,0,.1,0,0.18,0a0.37,0.37,0,0,1,0-.05,0.22,0.22,0,0,1-.17,0,0.5,0.5,0,0,1,.24,0,0,0,0,0,0-.07,0l0,0a0.13,0.13,0,0,0,0,0c0.08,0.05.18,0,.27,0.06a0.09,0.09,0,0,1,.08,0,0.13,0.13,0,0,1,.16,0,0.06,0.06,0,0,1,.1,0s0,0,0,0a0.65,0.65,0,0,0,.07,0,0.09,0.09,0,0,0,0,0,0.45,0.45,0,0,1,.19,0s0.15,0,.11,0a0.23,0.23,0,0,1,0,0s0,0,0,0,0,0,.08,0,0,0.06,0,0,0,0,0-.06H99v0l0.07,0h0v0h0.06l0,0a0,0,0,0,1,0,0h0l0,0h0.09a0.11,0.11,0,0,0,.07,0,0.69,0.69,0,0,1,.18,0l0.06,0a0.48,0.48,0,0,0,.13,0h0l0,0,0.06,0v0a0.54,0.54,0,0,0-.14.06,0.2,0.2,0,0,1-.09,0l0,0s-0.05,0,0,0a0,0,0,0,1,0,0h0l-0.19,0H99.14s0,0,0,0,0,0,0,0a1.13,1.13,0,0,0-.23,0s0,0,0,0c-0.6.19-1,.31-1.58,0.53-0.14,0-.24.1-0.38,0.12a0,0,0,0,1,0,0,2.68,2.68,0,0,0-.64.29l-0.32.17a1.63,1.63,0,0,1-.25.13l-0.17,0a0.83,0.83,0,0,1-.17,0,0.07,0.07,0,0,1,0-.05,0.07,0.07,0,0,0-.07,0,0.06,0.06,0,0,0,0,0,1.1,1.1,0,0,0-.52.15,0.09,0.09,0,0,0,0,.07l0.16,0a0,0,0,0,1-.05,0s0,0,0,0a6.17,6.17,0,0,1-.88.47s0.08-.06.09-0.11a0.06,0.06,0,0,0-.09,0,1.59,1.59,0,0,0-.35.2s0,0,0,0a0.11,0.11,0,0,0-.05,0,0.07,0.07,0,0,0,0,.05c-0.19.11-.38,0.22-0.56,0.34a0,0,0,0,0,0,0s-0.09,0-.11,0a0.25,0.25,0,0,1-.14.13,0.19,0.19,0,0,1,0,.09,0.35,0.35,0,0,0,0,0,0.39,0.39,0,0,1,.12.14,0.14,0.14,0,0,1,0,.05,0.08,0.08,0,0,1,0-.1l-0.18.08a0.06,0.06,0,0,1,0,0,0.25,0.25,0,0,1,0,0,0.17,0.17,0,0,1-.14-0.13h0a0.37,0.37,0,0,0,.08.27c0.08,0,0,.08,0,0.1s0.07,0,.13,0a0.13,0.13,0,0,1,0-.06s0,0,.06,0,0,0,0,0a0,0,0,0,0,0,0s0,0,0,0a0.18,0.18,0,0,0,.09,0s0,0,0,0a0.79,0.79,0,0,0-.16.24,0.11,0.11,0,0,1-.05,0s-0.08,0-.1,0,0,0-.05,0,0,0.12,0,.14a0.09,0.09,0,0,1,0,0,0.27,0.27,0,0,0,0-.21,0.08,0.08,0,0,0,0,0,0.3,0.3,0,0,1,0,.2s0,0,0,0,0,0,0,0,0,0-.05,0a0.17,0.17,0,0,0,0,.11,0.11,0.11,0,0,0-.07.06s0,0,0,0a0.21,0.21,0,0,1,0,.06l0,0s0,0,0,0,0,0,0,0,0,0-.05,0a0.37,0.37,0,0,1,0,.17,0.13,0.13,0,0,1,0,0,0.06,0.06,0,0,0,0-.06,1.27,1.27,0,0,0-.08.2l-0.07,0a0.23,0.23,0,0,1,0,.08s0,0-.05,0a0.12,0.12,0,0,1-.06-0.11c0,0.05-.16,0-0.12,0a0.2,0.2,0,0,1,0,0,0.25,0.25,0,0,1-.06.09s0,0,0,0a0,0,0,0,1,0,0s0,0,0,0-0.13,0-.12,0h0a0.1,0.1,0,0,0,0,.05,0.06,0.06,0,0,1-.08,0,0.11,0.11,0,0,1-.07,0,0.27,0.27,0,0,0-.3.07s0,0,0,0a0.13,0.13,0,0,0,0,0,1.6,1.6,0,0,1-.27.27s0,0,0,0h0s-0.06.07,0,.11a0.33,0.33,0,0,1-.14.11l-0.35.37a0.52,0.52,0,0,1,0,.06s0,0,0,0-0.18.22-.25,0.35l0,0.05a1.17,1.17,0,0,1-.16.22c0-.05.12-0.14,0-0.19a1.12,1.12,0,0,0-.32.26,2.32,2.32,0,0,1-.23.46h0s0,0.05,0,.09,0,0,0,0h0s0,0,0,0a4.59,4.59,0,0,1-.43.45,1.28,1.28,0,0,1-.18.26,0.07,0.07,0,0,1-.06.07,0.14,0.14,0,0,1-.06.14,0.13,0.13,0,0,0-.05-0.07,0.29,0.29,0,0,0-.07.08,0.2,0.2,0,0,0,.1,0c0,0.07,0,.08,0,0.15a0.13,0.13,0,0,0-.05,0,0.14,0.14,0,0,1,0,.06,0,0,0,0,1,0,0s0,0,0,0,0,0,0,.06-0.05,0-.06,0,0,0.07,0,.13a0.11,0.11,0,0,0,0,.07,0.21,0.21,0,0,1-.06.08,0.47,0.47,0,0,1,0,.17l0,0a0.07,0.07,0,0,1,0,0,0.26,0.26,0,0,1-.11,0s0,0,0,0a0,0,0,0,0-.05,0s0,0,0,0,0,0,0,0a0.06,0.06,0,0,0,0,.06,1.15,1.15,0,0,0-.12.2s-0.06,0-.09,0a0.33,0.33,0,0,0,0,.07,0.12,0.12,0,0,1-.05-0.12s0-.05-0.09-0.07c-0.14.19-.22,0.43-0.34,0.64a1.16,1.16,0,0,1-.1.36,0.18,0.18,0,0,0-.12.25,1.34,1.34,0,0,1-.08.14,0.07,0.07,0,0,0-.06,0h0a0.6,0.6,0,0,1-.07.14,0.74,0.74,0,0,1,0,.11s0,0.06-.06.09,0,0.07,0,.1a4.1,4.1,0,0,0-.17.43,0.87,0.87,0,0,1-.1.19c-0.06.13-.11,0.29-0.16,0.44a2.07,2.07,0,0,0-.1.23,0.83,0.83,0,0,1-.07.13,1.13,1.13,0,0,0,0,.12,0.86,0.86,0,0,0-.05.09,3.12,3.12,0,0,0-.08.56,0.13,0.13,0,0,0,0,.11c-0.05.19-.12,0.39-0.17,0.59a0.71,0.71,0,0,1,0,.13,0.2,0.2,0,0,0,0,.11,1.19,1.19,0,0,0-.07.21s0,0,0,0a0.24,0.24,0,0,1,0,.29s0,0.09.06,0.07,0,0,0,0,0.06,0,.07,0a0.18,0.18,0,0,1-.07.08s0,0.07,0,.08a0,0,0,0,0,0,0,0.07,0.07,0,0,0,0,.08h0a0.1,0.1,0,0,0,0,0s0,0,0,.06-0.06.05,0,.1a0.35,0.35,0,0,1-.13.08s0,0,0,.06,0.08,0,.07.1h0a0.07,0.07,0,0,0,0,0s0,0,0,0a1,1,0,0,1,0,.16h0s0,0,.06.05,0,0,0,0a0.07,0.07,0,0,1,0,0,0.13,0.13,0,0,0,0,.08s0,0,0,0,0,0.07,0,.12a0.25,0.25,0,0,1,.09,0s0,0.07,0,.11a0.2,0.2,0,0,0,.06,0,0.08,0.08,0,0,1-.1.08,0,0,0,0,0,0,0s0,0,0,0,0.05,0.05.06,0.1a0.37,0.37,0,0,1-.24.06s0,0,0,0-0.08,0-.05,0a0.48,0.48,0,0,0,0,.12m42.57,7.07a0.21,0.21,0,0,0,.09-0.13,0.08,0.08,0,0,0-.09.13m-2.18-1.81a0.37,0.37,0,0,1,.08.05,0.16,0.16,0,0,1,.06,0,0.2,0.2,0,0,0,.12.07s0,0,0,0a0.6,0.6,0,0,0,.13.07,0.81,0.81,0,0,1,.1,0,0.22,0.22,0,0,1,.09.15,0.3,0.3,0,0,1-.11,0s0,0,0,0-0.09,0-.09-0.07a0.14,0.14,0,0,0,0,.08,0.23,0.23,0,0,0,.09.1s0,0.05,0,.05a0.74,0.74,0,0,1,0-.1,0.09,0.09,0,0,0,.07,0,0.48,0.48,0,0,1,0,.11c0.06,0.07,0,0,.06-0.08h0.11a0.05,0.05,0,0,1,0,0,0.28,0.28,0,0,1,0,0,1,1,0,0,0,0,.21,0.22,0.22,0,0,0,.06,0,0.21,0.21,0,0,0,.08.09,0.36,0.36,0,0,1,0-.13h0.07a0.18,0.18,0,0,1,0-.07s0,0,0,0a0.1,0.1,0,0,0,0,0,0.06,0.06,0,0,1,0,0,0.06,0.06,0,0,0,0-.06,0.54,0.54,0,0,1-.07,0,0.07,0.07,0,0,1,0-.08,0.08,0.08,0,0,0,.1,0,0.18,0.18,0,0,1,0,.1,0.58,0.58,0,0,1,.11,0v0s0.08,0.09.14,0.11a0,0,0,0,0,0,0c0.07,0.12.19,0.19,0.27,0.31a1.32,1.32,0,0,0,0,.13s0,0,.06,0,0,0,0,0a0.44,0.44,0,0,1,0,.17,0.29,0.29,0,0,0,0,0s0-.08,0-0.07a0.18,0.18,0,0,0,0,.09,0.06,0.06,0,0,1,.06,0s0,0.12,0,.17,0,0,0,0a0.1,0.1,0,0,0,.05.06,0.55,0.55,0,0,1,0-.32s0,0,0,0a0.18,0.18,0,0,1,0-.16,0.14,0.14,0,0,1,.07,0c0.08-.05.12,0.09,0.19,0.09a1,1,0,0,0,0-.18s0,0,0,.06,0,0,0,0,0,0.07.05,0a1.15,1.15,0,0,1,.1.21,0.22,0.22,0,0,0-.07,0,0.08,0.08,0,0,0,0-.07,0.06,0.06,0,0,0,0,.05h0s0,0,0,.07,0,0,0,0h0c0,0.06,0,.1.07,0.16a0.5,0.5,0,0,1,.21.1,0.1,0.1,0,0,1-.08.08,0.21,0.21,0,0,1,0,.1,0.19,0.19,0,0,1,.06,0,0.32,0.32,0,0,1,0,.15,0,0,0,0,0,0,0,0,0,0,0,1,0,0,0,0,0,0,0,0,0,0.33,0.33,0,0,1-.05.09,0.15,0.15,0,0,0,0,0c0,0.08.07,0.06,0.08,0.11s0-.06.05,0a0.31,0.31,0,0,1,0,.07,0.19,0.19,0,0,1,.06.17,0.31,0.31,0,0,1,.06.13,0.12,0.12,0,0,1,.06.1,0.12,0.12,0,0,1,.14.16s-0.07-.09-0.12-0.12a0.25,0.25,0,0,0-.11.12,1,1,0,0,1,.12.42c0,0.09-.07.21-0.08,0.29a0.14,0.14,0,0,1,0,.11,0.74,0.74,0,0,1-.53.69c-0.16.08-.32,0-0.49,0.11a1.64,1.64,0,0,1-.27.16,0.34,0.34,0,0,0-.14,0,2.45,2.45,0,0,0-.36.07,2.63,2.63,0,0,0-.31,0s0,0,0,0,0,0,0,0a6,6,0,0,1-.92,0,2.52,2.52,0,0,1,.08-0.55c0-.41.08-0.83,0.09-1.27a1.52,1.52,0,0,1,0-.26c0-.13,0-0.31,0-0.48,0-.53,0-1.09,0-1.64h0.12a0.2,0.2,0,0,0,.06.07l0.2,0c0-.07-0.06-0.07-0.06-0.14s0,0,0-.06,0,0,0,0a0.08,0.08,0,0,1-.05,0,0.18,0.18,0,0,1,.1-0.13,0.09,0.09,0,0,1,0-.07"/><path class="cls-1" d="M129.41,39a1.81,1.81,0,1,1-1.81-1.81A1.81,1.81,0,0,1,129.41,39M126,39a1.58,1.58,0,1,0,1.58-1.58A1.59,1.59,0,0,0,126,39m2.14-.39a0.56,0.56,0,0,0-.54-0.39,0.68,0.68,0,0,0-.67.75,0.74,0.74,0,0,0,.65.86,0.61,0.61,0,0,0,.6-0.49l0.21,0.08a0.81,0.81,0,0,1-.8.62,1,1,0,0,1-.91-1,0.92,0.92,0,0,1,.92-1,0.81,0.81,0,0,1,.76.53Z"/></svg>