<svg id="Layer_1" data-name="Layer 1" xmlns="http://www.w3.org/2000/svg" viewBox="0 0 230 50.91"><defs><style>.cls-1{fill:#fff;}</style></defs><title>LD_website logo</title><path class="cls-1" d="M75,36.57H68.93c0.77-.68,1-3.34,1.32-8l0.07-1.09c0.18-2.65.32-4.7,0.29-6.12,0-1.23-.16-2-0.5-2.29H77c1.63,0,4.9.09,4.9,3.49,0,2.27-2.11,3.68-4,4.17,2.72,0.27,4.76,1.59,4.76,4.4,0,3-2.86,5.45-7.53,5.45m-0.27-8.46H73.53L73.35,30.7c-0.09,1.14-.14,2.09-0.16,3.22,0,0.16.5,0.5,1.68,0.5,2.45,0,4.06-1.22,4.06-3.25,0-2.24-1.84-3.06-4.15-3.06m0.57-6.94a12.09,12.09,0,0,0-1.22,0c-0.18,1.23-.3,2.4-0.39,3.7,0,0-.07,1.11-0.07,1.07h0.45c2.22,0,4.27-.77,4.27-2.81,0-1.18-1-2-3-2M96.94,36.73c-1.5,0-1.61,0-2.81-4.17L93.7,31a10.76,10.76,0,0,1-4.08.5H87.52l-0.36.77a10.88,10.88,0,0,0-1.22,3.47,2.85,2.85,0,0,0,.11.79h-4.2c1.2-1.2,2.72-4,4.83-8.51l1.23-2.61A41.49,41.49,0,0,0,90.2,20a2.45,2.45,0,0,0-.23-1h3.81s1,3.79,1.88,6.94l0.75,2.77c1.29,4.65,2.11,6.92,3.2,7.8-1,.11-2.2.16-2.68,0.16M91.43,23.17l-2.84,6.1h4.6l-1.77-6.1m22.09,14.16c-1.29,0-1.61-.21-2-0.8l-4.9-6.8a1.65,1.65,0,0,0-1.29-1h-0.11l-0.09,1.32c-0.11,1.79-.18,3.22-0.18,4.29a3.41,3.41,0,0,0,.48,2.2h-4.74c0.68-.61.93-2.66,1.31-8L102,27.45c0.18-2.63.32-4.67,0.3-6.1,0-1.25-.16-2-0.5-2.29h6.46c2.11,0,5,.36,5,3.79,0,2.81-1.88,4.36-4.22,5.08a11,11,0,0,1,.88,1l3.56,4.72c2.22,2.93,2.4,3.06,3.2,3.47-1,.11-2.34.16-3.2,0.16m-6.33-16.13a13.27,13.27,0,0,0-1.36,0c-0.14.75-.25,2-0.41,4.13l-0.09,1.23a4.4,4.4,0,0,0,.79.07c2.18,0,3.68-1.32,3.68-3.31,0-1.36-1-2.15-2.61-2.15m15.65,15.72c-4.52,0-7.12-3.72-7.12-7.89,0-5.81,3.15-10.3,9.16-10.3,1.88,0,2.77.34,4.29,0.34l-0.45,4.47a4.66,4.66,0,0,0-4.15-2.63c-3.74,0-5.26,4-5.26,7.51,0,3.77,2.11,5.83,4.92,5.83,1.52,0,2.86-.41,5.1-2a6.23,6.23,0,0,1-6.49,4.65m30.87-.18c-1.5,0-1.61,0-2.81-4.17L150.47,31a10.74,10.74,0,0,1-4.08.5H144.3l-0.36.77a10.66,10.66,0,0,0-1.23,3.47,2.77,2.77,0,0,0,.12.79H130.44c0.7-.79.93-3.36,1.27-8l0.07-1.11c0.18-2.65.32-4.7,0.29-6.12a3.77,3.77,0,0,0-.45-2.27h4.79c-0.68.52-.93,3.33-1.25,8l-0.09,1.11c-0.11,1.72-.34,3.49-0.34,5.22,0,0.79.32,1,1.13,1,2.9,0,3.63-.07,4.95-1,0.82-1.5,1.75-3.38,2.65-5.33l1.22-2.61A35.63,35.63,0,0,0,147,20a2.47,2.47,0,0,0-.23-1h3.81s1.54,5.72,1.88,6.94l0.75,2.77c1.29,4.65,2.11,6.92,3.2,7.8-0.91.11-2.2,0.16-2.68,0.16M148.2,23.17l-2.81,6.1H150l-1.77-6.1m16.49,4c-0.41.68-.93,1.61-1.25,2.29a25.06,25.06,0,0,0-.41,4.92,3.9,3.9,0,0,0,.5,2.22h-4.74c0.84-.79,1.18-5.67,1.13-7.21a37.33,37.33,0,0,0-2.81-6.87c-0.84-1.61-1.81-3.13-2.43-3.42,1.07-.09,2.43-0.16,3.09-0.16,1.18,0,1.5.16,2.22,1.75,1.13,2.56,2,4.49,2.47,5.92,1.2-1.88,2-3.18,3.13-4.94a3,3,0,0,0,.5-1.5,1.81,1.81,0,0,0-.25-1.06h4.7c-0.91.2-5,6.62-5.85,8.07m15.86-3.92a4.66,4.66,0,0,0-4-2.31c-1.49,0-2.81.61-2.81,2.2,0,1.34,1.66,2.24,3.38,3.36C179,27.64,181,29.09,181,31.6c0,3.29-3.2,5.31-6.9,5.31a13.62,13.62,0,0,1-4.9-1l0.29-4.38a5.28,5.28,0,0,0,4.86,3.13c1.84,0,3.2-.88,3.2-2.43,0-1.32-1.11-2.13-2.47-2.95-2.86-1.73-4.67-3.11-4.67-5.6,0-3.74,3.13-5,6.37-5,1.88,0,3.06.34,4.27,0.34Z"/><path class="cls-1" d="M44.4,34.78h0m0.86-13.39h0m4.83-4.33h0m0,0a4,4,0,0,0-1.22,0,2.11,2.11,0,0,0-.89.38,1.41,1.41,0,0,0-.27.28A2.26,2.26,0,0,1,50,18.3a2.68,2.68,0,0,1,.39,2.06,2.82,2.82,0,0,1-2.3,2.54c-0.67.11-2.51,0-2.86-1.52h0A0.77,0.77,0,0,0,46,20.17a2.08,2.08,0,0,0-2.2-.39,3.63,3.63,0,0,0-2,1.84A8.33,8.33,0,0,0,41,24.51a20.74,20.74,0,0,0,0,2.94,11.59,11.59,0,0,0,.68,3,23.35,23.35,0,0,0,1.21,2.59l0,0.09L43.14,33c0.18-.2.59-0.69,0.74-0.91s0.68-1.15.83-1.47h0a1.41,1.41,0,0,1,.84,1.22,6.76,6.76,0,0,1-1,2.7l-0.14.25,0.21-.22A15.57,15.57,0,0,0,45.84,33a14.86,14.86,0,0,0,1.69-3.1h0a1.6,1.6,0,0,1,.92.84c0.2,0.42,0,1.33-.53,2.67a15.41,15.41,0,0,1-1.58,2.7l-0.26.35h0l0.19,0.15a22.92,22.92,0,0,0,2.41,1.63,12,12,0,0,0,2.92,1.28,12,12,0,0,0,2.92-1.28,22.92,22.92,0,0,0,2.41-1.63l0.2-.15-0.26-.35a15.32,15.32,0,0,1-1.58-2.7c-0.57-1.33-.73-2.25-0.53-2.67a1.6,1.6,0,0,1,.92-0.84h0A14.8,14.8,0,0,0,57.37,33a15.38,15.38,0,0,0,1.23,1.53l0.21,0.22h0l-0.14-.25a6.8,6.8,0,0,1-1-2.7,1.41,1.41,0,0,1,.84-1.22h0c0.15,0.32.67,1.25,0.83,1.47s0.56,0.71.74,0.91l0.15,0.16h0l0-.09a23.35,23.35,0,0,0,1.21-2.59,11.64,11.64,0,0,0,.67-3,20.75,20.75,0,0,0,0-2.94,8.38,8.38,0,0,0-.75-2.88,3.63,3.63,0,0,0-2-1.84,2.08,2.08,0,0,0-2.2.39,0.77,0.77,0,0,0,.71,1.21h0a2.17,2.17,0,0,1-2.38,1.55,2.52,2.52,0,0,1-2.06-1.12,5.81,5.81,0,0,1-.61-2.73,6.32,6.32,0,0,0-.22-1.34,1.2,1.2,0,0,0-.83-0.84,5,5,0,0,0-1-.18H50.67a0.52,0.52,0,0,0-.58.33"/></svg>