<svg id="Layer_1" data-name="Layer 1" xmlns="http://www.w3.org/2000/svg" viewBox="0 0 230 61"><defs><style>.cls-1{fill:#fff;}</style></defs><title>LD_website logo</title><rect class="cls-1" x="56.85" y="22.72" width="0.62" height="18.24"/><path class="cls-1" d="M64.05,39V26a1.38,1.38,0,0,1,.5-1.22,2.32,2.32,0,0,1,1.34-.35,3.65,3.65,0,0,1,1.09.15l0.6,0.19V35.69h6.71V39H64.05Z"/><path class="cls-1" d="M120.46,34.76a7.42,7.42,0,0,0,1.66,2.42,7.75,7.75,0,0,0,2.49,1.62,8.34,8.34,0,0,0,6.18,0,7.81,7.81,0,0,0,2.5-1.62,7.6,7.6,0,0,0,0-10.86,7.75,7.75,0,0,0-2.5-1.62,8.31,8.31,0,0,0-6.18,0,7.78,7.78,0,0,0-2.5,1.62,7.68,7.68,0,0,0-1.66,8.43m5.58,1a3.8,3.8,0,0,1-1.32-.92,4.39,4.39,0,0,1-.85-1.38,4.67,4.67,0,0,1-.31-1.71,4.74,4.74,0,0,1,.31-1.72,4.22,4.22,0,0,1,.86-1.38,3.9,3.9,0,0,1,1.31-.91,4.18,4.18,0,0,1,1.67-.33,4.25,4.25,0,0,1,1.67.33,3.86,3.86,0,0,1,1.31.91,4.17,4.17,0,0,1,.86,1.37,4.78,4.78,0,0,1,.31,1.72,4.63,4.63,0,0,1-.31,1.71,4.25,4.25,0,0,1-.86,1.37,3.72,3.72,0,0,1-1.31.92,4.39,4.39,0,0,1-3.34,0"/><path class="cls-1" d="M91,26.34a2.2,2.2,0,0,1,.17-0.91,1.45,1.45,0,0,1,.45-0.56,1.71,1.71,0,0,1,.63-0.29,3.33,3.33,0,0,1,1.9.11,2.74,2.74,0,0,1,.57.31,6.79,6.79,0,0,1,.48.62l0.89,1.25c0.35,0.5.72,1,1.12,1.58l1.18,1.76,1.06,1.59c0.32,0.49.58,0.88,0.76,1.18V26.06a1.37,1.37,0,0,1,.51-1.22,2.32,2.32,0,0,1,1.34-.35,3.53,3.53,0,0,1,1.08.15l0.57,0.19V39h-3.33q-0.19-.33-0.6-1c-0.27-.43-0.58-0.91-0.93-1.45l-1.14-1.73-1.19-1.81-1.12-1.68L94.53,30v9H91V26.34Z"/><path class="cls-1" d="M148.87,24.63a3.61,3.61,0,0,0-1.08-.15,2.33,2.33,0,0,0-1.33.35,1.37,1.37,0,0,0-.51,1.22v7q-0.28-.45-0.76-1.17l-1.06-1.59L143,28.5c-0.4-.6-0.78-1.15-1.12-1.64s-0.64-.91-0.89-1.25-0.41-.54-0.48-0.61a3.14,3.14,0,0,0-.57-0.31,3.33,3.33,0,0,0-1.89-.12,1.8,1.8,0,0,0-.63.29,1.43,1.43,0,0,0-.44.56,2.15,2.15,0,0,0-.17.91V39h3.57a3.83,3.83,0,0,1-.52-0.64c-0.42-.62-0.06-2.65,0-2.83s0.12-.36-0.08-0.12a3.77,3.77,0,0,0-.67,1.66c0,0.19-.1.23-0.2,0a1.47,1.47,0,0,1,0-1.16,18.64,18.64,0,0,1,1.69-2.86,1.59,1.59,0,0,0,.32-1.09c0-.64-1.17-1.35-1.17-1.35a0.36,0.36,0,0,1,.28,0,1.54,1.54,0,0,0,1,0,1.26,1.26,0,0,1,1.2,0c0.47,0.22.47,1.09,0.47,1.53a7.33,7.33,0,0,0,1.24,2.31,4.5,4.5,0,0,1,.74,2.36c0,0.31-.26.65-0.33,0a5.92,5.92,0,0,0-.88-1.64c-0.12-.17-0.17-0.1-0.13,0s0,0.18.3,1.29a2.63,2.63,0,0,1-.32,2.33,0.78,0.78,0,0,0-.08.15h6.26V24.83l-0.57-.19"/><path class="cls-1" d="M86,34.11a4.55,4.55,0,0,1-6.12,1.83,5.73,5.73,0,0,1-2.46-3.37,1.8,1.8,0,0,0-1.76-1.31c-0.56-.09-0.28-0.38.14-0.29a8.19,8.19,0,0,1,1.83.38,3.11,3.11,0,0,1,.82,1.18,5.63,5.63,0,0,0,2.06,2.07c1.29,0.76,2.68.51,3.78-1.34s-0.61-3.62-1.17-3.94a2.45,2.45,0,0,0-2.69-.1c-1,.71,0,1.15.63,1a2.11,2.11,0,0,1,1.88.34,1.19,1.19,0,0,1,.46,1.23,5.9,5.9,0,0,1-.54.92,0.61,0.61,0,0,1,.17.61,0.84,0.84,0,0,1-.48.54,9.59,9.59,0,0,1-.69.76,0.15,0.15,0,0,1-.14,0c-0.09,0-.72-0.39-0.72-0.39s-0.17-.07-0.15-0.25,0.34-1,.34-1a0.85,0.85,0,0,1,.25-0.69A0.63,0.63,0,0,1,82,32.17a1.87,1.87,0,0,0,.31-0.7,0.66,0.66,0,0,0-.71-0.28A3.13,3.13,0,0,1,79.06,31c-1.06-.63-0.39-2.07,0-2.55,1.3-1.57,3.71-1.4,5.07-.68A4.58,4.58,0,0,1,86,34.11m3.29-5.37a7.45,7.45,0,0,0-1.66-2.42,7.81,7.81,0,0,0-2.5-1.62,8.35,8.35,0,0,0-6.18,0,7.84,7.84,0,0,0-2.5,1.62,7.6,7.6,0,0,0,0,10.86,7.82,7.82,0,0,0,2.5,1.62,8.35,8.35,0,0,0,6.18,0,7.87,7.87,0,0,0,2.5-1.62,7.68,7.68,0,0,0,1.66-8.43"/><path class="cls-1" d="M118.25,28.49a6.44,6.44,0,0,0-1.75-2.34,7.71,7.71,0,0,0-2.73-1.44,11.52,11.52,0,0,0-2-.4,2.53,2.53,0,0,1,.12.73,2.37,2.37,0,0,1-.16.29,1.23,1.23,0,0,0,0,.68,6.5,6.5,0,0,1,.17,1.65c0,0.55.6,0.72,1,1.37a2.55,2.55,0,0,1,.28,1.77,1,1,0,0,1,.59-0.29,1.23,1.23,0,0,1,1,1.06,1.63,1.63,0,0,1,.37-0.68c0.21-.18.61-0.05,0.56,0a0.81,0.81,0,0,1-.17.11,0.29,0.29,0,0,1,.15.09c0.08,0.13-.08.1-0.13,0.11a0.19,0.19,0,0,0-.14.17c0,0.14-.16.36,0,0.44s0.32,0,.3.15a4,4,0,0,1-.48.18,1,1,0,0,1-.08.08c-0.07.15-.13,0.52-0.69,0.2s-0.87-.51-0.87-0.51a1.39,1.39,0,0,1-.8.76,5.07,5.07,0,0,1-.5,1.41l1,0.24,0.28,0c0.36,0.07.67-.2,0.74-0.09s0,0.18-.12.31a0.71,0.71,0,0,0,.06.64,0.24,0.24,0,0,0,.25.11c0.06,0,.19-0.12.16,0s-0.17.15-.12,0.19a1,1,0,0,1,.22,0c0.08,0.06-.25.44-0.54,0.33a2.48,2.48,0,0,1-.8-0.83h0a2.46,2.46,0,0,1-2.45-.41c-0.58-1.25.1-2.08,0-2.37a4.71,4.71,0,0,0-1-.92L110,32.09a1.44,1.44,0,0,1,0,.68c-0.13.25-.21,0.53-0.36,0.8s-0.19.39-.2,0.45a0.86,0.86,0,0,0-.05.38c0.05,0.07.23,0.24,0.26,0.29s0.07,0.17,0,.2a0.09,0.09,0,0,1-.11,0s-0.15-.13-0.19-0.08a4.37,4.37,0,0,0,.08.84,0.22,0.22,0,0,0,.11.18,0.2,0.2,0,0,1,.06.18,0.17,0.17,0,0,1-.19,0,0.27,0.27,0,0,0-.11-0.05,0.15,0.15,0,0,0,0,.08,0.17,0.17,0,0,1,.07.11c0,0.05,0,.09,0,0.09l-0.08,0,0,0-0.11-.07L109,36a0.53,0.53,0,0,1-.13-0.13,2.23,2.23,0,0,1-.3-0.58,6.41,6.41,0,0,1,.1-1.1c0.05-.26,0-0.45.09-1s0.07-.78.07-0.78-0.12-.55-0.27-1.49a1.67,1.67,0,0,1,.77-1.53,2.68,2.68,0,0,1-.41-0.11,1,1,0,0,1-.32-0.22,0.59,0.59,0,0,1,0-.47,0.22,0.22,0,0,0,.08-0.19,0.45,0.45,0,0,0-.11-0.16c0-.06-0.15,0-0.07-0.2a4.22,4.22,0,0,1,.24-0.44,0.74,0.74,0,0,0,.14-0.22,0.6,0.6,0,0,1,.42-0.55,0.76,0.76,0,0,1,.83.27c0.12,0.12.24,0.26,0.39,0.4a2.2,2.2,0,0,1-.16-0.72,3.8,3.8,0,0,1,.48-1.26,8.68,8.68,0,0,0,0-1.29l-0.65,0q-1.5,0-2.28.08a11.07,11.07,0,0,0-1.17.16,2.07,2.07,0,0,0-.54.16,1.38,1.38,0,0,0-.47.34,1.72,1.72,0,0,0-.33.56,2.27,2.27,0,0,0-.13.8V39l1.14,0.12c0.7,0.06,1.84.09,3.44,0.09a13.46,13.46,0,0,0,3.91-.51,7.71,7.71,0,0,0,2.82-1.47,6.07,6.07,0,0,0,1.71-2.35,8.29,8.29,0,0,0,.57-3.17,7.78,7.78,0,0,0-.61-3.18"/><path class="cls-1" d="M169.21,34.77a7.55,7.55,0,0,0,1.66,2.42,7.88,7.88,0,0,0,2.5,1.62,8.34,8.34,0,0,0,6.16,0,7.82,7.82,0,0,0,2.5-1.62,7.49,7.49,0,0,0,2.26-5.42A7.46,7.46,0,0,0,182,26.36a7.89,7.89,0,0,0-2.49-1.62,8.35,8.35,0,0,0-6.17,0,7.76,7.76,0,0,0-2.49,1.61,7.67,7.67,0,0,0-1.66,8.42m5.57,1a3.85,3.85,0,0,1-1.31-.92,4.3,4.3,0,0,1-.86-1.37,4.64,4.64,0,0,1-.3-1.71,4.72,4.72,0,0,1,.3-1.72,4.2,4.2,0,0,1,.86-1.37,3.85,3.85,0,0,1,1.31-.91,4.42,4.42,0,0,1,3.33,0,3.82,3.82,0,0,1,1.31.91,4.1,4.1,0,0,1,.85,1.37,4.67,4.67,0,0,1,.31,1.72,4.6,4.6,0,0,1-.31,1.71,4.22,4.22,0,0,1-.86,1.37,3.83,3.83,0,0,1-1.31.92,4.38,4.38,0,0,1-3.34,0"/><path class="cls-1" d="M185.93,34.77a7.44,7.44,0,0,0,1.66,2.42,7.79,7.79,0,0,0,2.49,1.62,8.35,8.35,0,0,0,6.16,0,7.8,7.8,0,0,0,2.49-1.62A7.5,7.5,0,0,0,201,31.77a7.47,7.47,0,0,0-2.26-5.42,7.82,7.82,0,0,0-2.49-1.62,8.35,8.35,0,0,0-6.17,0,7.76,7.76,0,0,0-2.49,1.61,7.5,7.5,0,0,0-2.26,5.42,7.48,7.48,0,0,0,.6,3m5.56,1a3.86,3.86,0,0,1-1.31-.92,4.33,4.33,0,0,1-.86-1.37,4.94,4.94,0,0,1,0-3.43,4.11,4.11,0,0,1,.85-1.37,3.87,3.87,0,0,1,1.31-.91,4.43,4.43,0,0,1,3.33,0,3.81,3.81,0,0,1,1.31.91,4.11,4.11,0,0,1,.86,1.37,4.71,4.71,0,0,1,.31,1.72,4.6,4.6,0,0,1-.31,1.71,4.28,4.28,0,0,1-.85,1.37,3.89,3.89,0,0,1-1.31.92,4.38,4.38,0,0,1-3.34,0"/><path class="cls-1" d="M155.24,36q1.1-1,2.33-2.23l2.37-2.33q1.14-1.14,2.08-2.1c0.62-.64,1.1-1.16,1.44-1.54h-6a1.91,1.91,0,0,1-1.39-.41,1.61,1.61,0,0,1-.41-1.19,3.07,3.07,0,0,1,.17-1,3.47,3.47,0,0,1,.28-0.65h10.07a2.44,2.44,0,0,1,1.56.45,1.59,1.59,0,0,1,.56,1.33,2.55,2.55,0,0,1-.47,1.49,16.39,16.39,0,0,1-1.13,1.42q-1.14,1.27-2.72,2.93t-3.61,3.62h7.86V39H155.24V36Z"/><path class="cls-1" d="M28,38c1.74,0,2.35-.57,2.62-1.14a3.65,3.65,0,0,0,.31-0.91c0-.19.07-0.3,0.17-0.3s0.17,0.13.17,0.59a13.35,13.35,0,0,1-.34,2.31,0.49,0.49,0,0,1-.51.49H21.29C21.1,39,21,38.95,21,38.81a1.16,1.16,0,0,1,.26-0.57c2.4-4.16,5-8.55,7.27-12.54H25.19a5.33,5.33,0,0,0-2.45.4,2.16,2.16,0,0,0-.92,1.48c0,0.27-.1.34-0.2,0.34s-0.14-.09-0.14-0.32c0-.44.25-2.16,0.34-2.73,0-.26.1-0.36,0.2-0.36a4.77,4.77,0,0,0,.68.14c1.62,0.07,2.44.05,3.13,0.05l5.2,0c0.17,0,.29.06,0.29,0.15a0.85,0.85,0,0,1-.14.36c-2.35,4.24-5,8.71-7.41,12.78H28Z"/><path class="cls-1" d="M33.2,38.73a0.53,0.53,0,0,1-.37-0.65c0-1,.08-2.17.1-2.48s0.08-.49.23-0.49,0.19,0.17.19,0.32a4,4,0,0,0,.18,1,2.69,2.69,0,0,0,2.79,1.91,2.35,2.35,0,0,0,2.61-2.16c0-.93-0.29-1.8-1.91-3l-0.86-.64c-2.14-1.63-2.88-3-2.88-4.48,0-2.08,1.79-3.58,4.5-3.58a9.72,9.72,0,0,1,2.59.32c0.18,0,.27.1,0.27,0.23s-0.08.8-.08,2.27c0,0.42-.06.57-0.22,0.57s-0.19-.11-0.19-0.34a2.25,2.25,0,0,0-.51-1.25,2.49,2.49,0,0,0-2.12-.93,2,2,0,0,0-2.32,1.95c0,0.87.45,1.53,2.07,2.72l0.55,0.4c2.36,1.72,3.15,3,3.15,4.78a3.79,3.79,0,0,1-1.83,3.3,5.77,5.77,0,0,1-3.1.77,6.93,6.93,0,0,1-2.84-.49"/><path class="cls-1" d="M46.3,33.47c0,2.42,0,3.73.4,4.07S47.51,38,49,38a2.86,2.86,0,0,0,2.22-.53,2.38,2.38,0,0,0,.49-1.14c0-.17.06-0.28,0.21-0.28S52,36.1,52,36.33a14.62,14.62,0,0,1-.28,2.18c-0.11.42-.2,0.51-1.19,0.51-1.36,0-2.35,0-3.2-.06s-1.53,0-2.31,0L44,39c-0.43,0-.93,0-1.3,0s-0.38-.06-0.38-0.19,0.08-.15.3-0.15a3,3,0,0,0,.68-0.08,1,1,0,0,0,.55-1c0.09-.8.09-2.33,0.09-4.07V30.14c0-2.88,0-3.39,0-4a0.93,0.93,0,0,0-.81-1.08A2.81,2.81,0,0,0,42.46,25c-0.21,0-.32,0-0.32-0.17s0.13-.17.42-0.17c0.89,0,2.08.05,2.59,0.05s1.83-.05,2.57-0.05c0.27,0,.4,0,0.4.17S48,25,47.77,25a5,5,0,0,0-.74.06,0.91,0.91,0,0,0-.7,1.08c0,0.6,0,1.12,0,4v3.33Z"/></svg>