<svg id="Layer_1" data-name="Layer 1" xmlns="http://www.w3.org/2000/svg" viewBox="0 0 230 84"><defs><style>.cls-1{fill:#fff;}</style></defs><title>LD_website logo</title><path class="cls-1" d="M41,23V64.36H91.52a9.76,9.76,0,0,1-1.09-.89c-2.93-2.83-3-6.11-3-9.19V36.8h9.36V55.15a4.45,4.45,0,0,0,1.09,3.53,4,4,0,0,0,3,1.08,4.29,4.29,0,0,0,3-1,4.47,4.47,0,0,0,1.13-3.57V36.8h9.4V52.44c0,3.37,0,7.74-3.47,11a10.87,10.87,0,0,1-1.09.89h14a15.48,15.48,0,0,1-6.07-12.7c0-7.9,5.31-15.93,15.29-15.93a16.35,16.35,0,0,1,11.83,4.74,13.72,13.72,0,0,1,2.46,3.45l-7.81,3.87c-0.75-1.75-2.17-4.87-6.1-4.87a5.53,5.53,0,0,0-4,1.58c-2.22,2.12-2.22,5.45-2.22,6.62,0,4.37,1.63,8.49,6.23,8.49,4.35,0,5.64-3.83,6-4.83l7.94,3.83a15.65,15.65,0,0,1-2.88,4.16,14,14,0,0,1-2,1.6H151V36.76h9.32V58.45h12.09v5.91H181V23H41ZM75.47,40.91a0,0,0,0,1,0,0h0.08a0,0,0,0,0,0,0V40.79a0,0,0,0,1,0,0h0.08a0,0,0,0,0,0,0V40.67a0,0,0,0,1,0,0h0a0,0,0,0,0,0,0,2.36,2.36,0,0,1,.35-1.36,2.28,2.28,0,0,1,1-.79,0.25,0.25,0,0,1,.2-0.16,0.07,0.07,0,0,0,.06-0.05v0s0,0-.07,0a0,0,0,0,1,0,0V38.08a0,0,0,0,1,0,0h0.08a0,0,0,0,0,0,0v0a0.06,0.06,0,0,1,0,0V37.38s0,0,0,0h0V37.3h0a0,0,0,0,0,0,0s0,0,0,0h0V37.14h0l0,0a0.81,0.81,0,0,0,.19-0.2v0a0,0,0,0,1,0,0s0,0,0,0,0,0,0,0v0a0.37,0.37,0,0,1,0-.08h0a0.37,0.37,0,0,1,0,.08v0s0,0,0,0,0,0,0,0a0,0,0,0,1,0,0v0a0.8,0.8,0,0,0,.19.2l0,0h0V37.2h0s0,0,0,0a0,0,0,0,0,0,0h0v0.05h0s0,0,0,0v0.54a0.06,0.06,0,0,1,0,0v0a0,0,0,0,0,0,0H78.2a0,0,0,0,1,0,0v0.09a0,0,0,0,1,0,0s-0.07,0-.07,0v0a0.07,0.07,0,0,0,.06.05,0.25,0.25,0,0,1,.2.16,2.29,2.29,0,0,1,1,.79,2.37,2.37,0,0,1,.35,1.36,0,0,0,0,0,0,0h0a0,0,0,0,1,0,0v0.08a0,0,0,0,0,0,0H79.9a0,0,0,0,1,0,0v0.08a0,0,0,0,0,0,0H80a0,0,0,0,1,0,0V41h0a0.08,0.08,0,0,0-.07.07,0.08,0.08,0,0,1-.07.09V41.5a0.11,0.11,0,0,0,.09.11l0,0V42l-2.23-.49h0L75.52,42V41.62l0,0a0.11,0.11,0,0,0,.09-0.11V41.18a0.08,0.08,0,0,1-.07-0.09A0.08,0.08,0,0,0,75.48,41h0V40.91Zm7.4,7.77H72.63V48H73V47.37H73.4V47.08h0V47h0.06v0h0l0,0V44.17h0s0,0,0,0V44.08a0.21,0.21,0,0,0,0-.06s0,0,0,0h0a0,0,0,0,0,0,0,0.26,0.26,0,0,1-.08-0.17s0,0,0,0h0V43.64H73.16a0,0,0,0,1,0,0l-0.07-.4a0.13,0.13,0,0,0-.12-0.06h0l-0.07-.25a0,0,0,0,1,0,0l4.87-1,4.87,1a0,0,0,0,1,0,0l-0.07.25h0a0.13,0.13,0,0,0-.12.07l-0.07.4a0,0,0,0,1,0,0H82.12v0.12h0s0,0,0,0A0.24,0.24,0,0,1,82,44a0,0,0,0,0,0,0h0s0,0,0,0a0.21,0.21,0,0,0,0,.06v0.05s0,0,0,0h0v2.72l0,0h0v0H82.1v0.07h0v0.29h0.38V48h0.38v0.66Z"/><path class="cls-1" d="M80.52,43.64v0.12h0s0,0,0,0a0.23,0.23,0,0,1-.07.17,0,0,0,0,0,0,0h0s0,0,0,0a0.21,0.21,0,0,0,0,.06v0.05s0,0,0,0h0v2.72l0,0h0v0H80.5v0.07h0.87V47h0.06v0h0l0,0V44.17h0s0,0,0,0V44.08a0.17,0.17,0,0,0,0-.06s0,0,0,0h0a0,0,0,0,0,0,0,0.25,0.25,0,0,1-.08-0.17s0,0,0,0h0V43.64H80.52Z"/><path class="cls-1" d="M77.33,43.76h0s0,0,0,0a0.23,0.23,0,0,1-.07.17,0,0,0,0,0,0,0h0s0,0,0,0a0.17,0.17,0,0,0,0,.06v0.05s0,0,0,0h0v2.72l0,0h0v0h0.06v0.07h0.87V47h0.06v0h0l0,0V44.17h0s0,0,0,0V44.08a0.17,0.17,0,0,0,0-.06s0,0,0,0h0a0,0,0,0,0,0,0,0.25,0.25,0,0,1-.08-0.17s0,0,0,0h0V43.64H77.33v0.12Z"/><path class="cls-1" d="M79.78,47.08V47h0.06v0h0l0,0V44.17h0s0,0,0,0V44.08a0.17,0.17,0,0,0,0-.06s0,0,0,0h0a0,0,0,0,0,0,0,0.25,0.25,0,0,1-.08-0.17s0,0,0,0h0V43.64H78.93v0.12h0s0,0,0,0a0.23,0.23,0,0,1-.07.17,0,0,0,0,0,0,0h0s0,0,0,0a0.17,0.17,0,0,0,0,.06v0.05s0,0,0,0h0v2.72l0,0h0v0h0.06v0.07h0.87Z"/><path class="cls-1" d="M76.59,47.08V47h0.06v0h0l0,0V44.17h0s0,0,0,0V44.08a0.21,0.21,0,0,0,0-.06s0,0,0,0h0a0,0,0,0,0,0,0,0.25,0.25,0,0,1-.08-0.17s0,0,0,0h0V43.64H75.73v0.12h0s0,0,0,0a0.24,0.24,0,0,1-.08.17,0,0,0,0,0,0,0h0s0,0,0,0a0.21,0.21,0,0,0,0,.06v0.05s0,0,0,0h0v2.72l0,0h0v0h0.06v0.07h0.87Z"/><path class="cls-1" d="M75,47.08V47h0.06v0h0l0,0V44.17h0s0,0,0,0V44.08a0.17,0.17,0,0,0,0-.06s0,0,0,0h0a0,0,0,0,0,0,0A0.25,0.25,0,0,1,75,43.8s0,0,0,0h0V43.64H74.14v0.12h0s0,0,0,0A0.24,0.24,0,0,1,74,44a0,0,0,0,0,0,0h0s0,0,0,0a0.17,0.17,0,0,0,0,.06v0.05s0,0,0,0h0v2.72l0,0h0v0h0.06v0.07H75Z"/></svg>