<svg id="Layer_1" data-name="Layer 1" xmlns="http://www.w3.org/2000/svg" viewBox="0 0 251 89"><defs><style>.cls-1{fill:#fff;}</style></defs><title>LD_website logo</title><path class="cls-1" d="M137.25,37.46l-13.63.47c0.35,3.91,2.48,6.08,6,6.08,2.25,0,4.53-1,7-3l-0.15,3.06a11.4,11.4,0,0,1-7,2.44,8.46,8.46,0,0,1-8.83-8.75c0-5.85,4.07-9.84,9.29-9.84,4.52,0,7.54,2.79,7.7,7.62h0a10.35,10.35,0,0,1-.22,1.88h-0.16Zm-7.47-7.28a6.15,6.15,0,0,0-6,5.57l11-.42c-0.12-3.18-2.17-5.15-5-5.15"/><path class="cls-1" d="M115,59.42l-13.63.46c0.35,3.91,2.48,6.08,6,6.08,2.25,0,4.53-1,7-3L114.21,66a11.4,11.4,0,0,1-7,2.44,8.46,8.46,0,0,1-8.83-8.75c0-5.85,4.07-9.84,9.29-9.84,4.52,0,7.54,2.79,7.7,7.62v0a10.73,10.73,0,0,1-.23,1.88H115Zm-7.47-7.28a6.15,6.15,0,0,0-6,5.58l11-.43c-0.12-3.17-2.17-5.15-5-5.15"/><path class="cls-1" d="M64.14,63.8H64.9c0.5,1.41,1.5,2,3.26,2h0.7v-2h1.56v2H76v1.91H70.42V68.8H68.85V67.67h-0.6a4.64,4.64,0,0,1-3.55-1.29,2.72,2.72,0,0,1-.56-2.59"/><path class="cls-1" d="M68.53,59.86a3.87,3.87,0,1,1,3.87,3.86,3.72,3.72,0,0,1-3.87-3.86m6.26,0c0-1.1-.94-1.92-2.37-1.92S70,58.76,70,59.86s0.91,1.94,2.39,1.94,2.37-.82,2.37-1.94"/><path class="cls-1" d="M72.22,53.32H76v1.87h-7.1V53.45H70a3.34,3.34,0,0,1-1.37-2.68V50.64h2c0,2.37.14,2.68,1.55,2.68"/><polygon class="cls-1" points="82.95 18.01 82.95 45.8 79.82 45.8 79.82 19.77 82.95 18.01"/><path class="cls-1" d="M102.13,45.8H99.07V44.86a11.66,11.66,0,0,1-5.61,1.65c-4.84,0-8.28-3.64-8.28-9.06s3.56-9.29,9.14-9.29a15.73,15.73,0,0,1,4.76.85l3.06-.31V45.8ZM99.07,31.68a10.15,10.15,0,0,0-4.42-1.16c-3.79,0-6.35,2.75-6.35,7s2.32,6.66,5.77,6.66a11,11,0,0,0,5-1.59V31.68Z"/><path class="cls-1" d="M112.93,46.51c-5.3,0-9-3.79-9-9.1,0-5.73,3.68-9.52,9.49-9.52a13.73,13.73,0,0,1,6.12,1.51l-0.39,2.75a11.72,11.72,0,0,0-5.69-1.7c-3.91,0-6.47,2.59-6.47,6.7,0,4.26,2.56,6.82,6.27,6.82a10.58,10.58,0,0,0,6.43-2.6l-0.43,3.33a12.18,12.18,0,0,1-6.35,1.82"/><path class="cls-1" d="M145.57,44c1.89,0,3.1-1,3.1-2.36,0-1.74-1.24-2.21-3.25-3.06L143.79,38c-2.91-1.2-4.38-2.37-4.38-5,0-3.1,2.05-5.07,5.42-5.07a11.65,11.65,0,0,1,5.93,1.78l-0.62,2.67a9.3,9.3,0,0,0-5.23-2.13c-1.67,0-2.67.93-2.67,2.21,0,1.59,1,2.05,3.4,3L147,35.94c3.17,1.24,4.65,2.75,4.65,5.3,0,3.21-2.32,5.31-6.12,5.31A10.83,10.83,0,0,1,139,44.34l0.39-2.87c2.32,1.71,4.41,2.56,6.16,2.56"/><path class="cls-1" d="M125.83,49.89a8.88,8.88,0,0,1,9.1,9.29,9.1,9.1,0,1,1-18.2,0,8.88,8.88,0,0,1,9.1-9.29m0,16.34c3.48,0,6-2.75,6-7s-2.52-7-6-7-6,2.71-6,7,2.52,7,6,7"/><path class="cls-1" d="M145.21,50.09a12.55,12.55,0,0,0-5.34,1.43V50.67h-3.06V74.81l3.06-1.74V67.59a15.76,15.76,0,0,0,4.77.85c5.58,0,9.14-3.76,9.14-9.3s-3.33-9.06-8.56-9.06m-0.93,16a10.14,10.14,0,0,1-4.41-1.16V54a11.14,11.14,0,0,1,5-1.59c3.45,0,5.73,2.48,5.73,6.66s-2.56,7-6.35,7"/><path class="cls-1" d="M88.21,50.09a12.54,12.54,0,0,0-5.34,1.43V50.67H79.81V74.81l3.06-1.74V67.59a15.71,15.71,0,0,0,4.76.85c5.58,0,9.14-3.76,9.14-9.3s-3.33-9.06-8.56-9.06m-0.93,16a10.12,10.12,0,0,1-4.41-1.16V54a11.12,11.12,0,0,1,5-1.59c3.44,0,5.73,2.48,5.73,6.66s-2.56,7-6.35,7"/><path class="cls-1" d="M69.4,28.18a12.57,12.57,0,0,0-5.34,1.43V28.76H61V52.9l3.06-1.74V45.68a15.72,15.72,0,0,0,4.76.85c5.58,0,9.14-3.76,9.14-9.29s-3.33-9.06-8.56-9.06m-0.93,16A10.1,10.1,0,0,1,64.06,43V32.09a11.12,11.12,0,0,1,5-1.59c3.45,0,5.73,2.48,5.73,6.66s-2.55,7-6.35,7"/><polygon class="cls-1" points="159.02 39.91 159.02 67.71 155.88 67.71 155.88 41.67 159.02 39.91"/><path class="cls-1" d="M177.94,59.42l-13.63.46c0.35,3.91,2.48,6.08,6,6.08,2.25,0,4.53-1,7-3L177.12,66a11.4,11.4,0,0,1-7,2.44,8.46,8.46,0,0,1-8.83-8.75c0-5.85,4.07-9.84,9.29-9.84,4.52,0,7.54,2.79,7.7,7.62v0a10.49,10.49,0,0,1-.22,1.88h-0.15Zm-7.48-7.28a6.15,6.15,0,0,0-6,5.58l11-.43c-0.12-3.17-2.17-5.15-5-5.15"/><path class="cls-1" d="M183.79,42.39a15.81,15.81,0,0,0,2.34-1.6l-13.8-8Z"/><path class="cls-1" d="M168.14,43.33c0.45,0.2.91,0.37,1.38,0.53L171.31,33Z"/><path class="cls-1" d="M188.91,37.9c0.11-.15.22-0.29,0.32-0.44a16.43,16.43,0,0,0,1-1.69l-17.95-3Z"/><path class="cls-1" d="M164.49,41.15l0.73,0.55,0.76,0.5L171.31,33Z"/><path class="cls-1" d="M161.72,38.38c0.31,0.38.63,0.76,1,1.12L171.31,33Z"/><path class="cls-1" d="M158,27.94a17.22,17.22,0,0,0,.2,1.9L171.14,32Z"/><path class="cls-1" d="M158.91,21.74a16.83,16.83,0,0,0-.7,2.74L171.14,32Z"/><path class="cls-1" d="M162.22,16.13A17.5,17.5,0,0,0,161,17.67l-0.3.46L171.14,32Z"/><path class="cls-1" d="M178.61,10.74a16.28,16.28,0,0,0-2.94-.29l-3.52,21.34Z"/><path class="cls-1" d="M186.51,14.63a17,17,0,0,0-1.5-1.19,16.69,16.69,0,0,0-1.64-1L172.15,31.79Z"/><path class="cls-1" d="M191,21.18a16.7,16.7,0,0,0-1.28-2.66L172.15,31.79Z"/><path class="cls-1" d="M178.75,44.22a16.78,16.78,0,0,0,1.85-.46l-8.27-11Z"/></svg>