<svg id="Layer_1" data-name="Layer 1" xmlns="http://www.w3.org/2000/svg" viewBox="0 0 251 34"><defs><style>.cls-1{fill:#fff;}</style></defs><title>LD_website logo</title><path class="cls-1" d="M15.43,6.82h2.31c1.87,0,3.67.3,3.67,2.56a2.2,2.2,0,0,1-1.95,2.15v0a1.58,1.58,0,0,1,.92.95l1.79,3.76H20.62L19.18,13a1.35,1.35,0,0,0-1.58-.92H16.78v4.19H15.43V6.82m1.35,4.06h1.15c1.29,0,2-.57,2-1.47S19.33,8,18.08,8h-1.3v2.87Z"/><path class="cls-1" d="M26.48,9.2A3.4,3.4,0,0,1,30,12.81a3.51,3.51,0,1,1-7,0A3.41,3.41,0,0,1,26.48,9.2m0,6.19a2.31,2.31,0,0,0,2.15-2.58,2.36,2.36,0,0,0-2.15-2.58,2.36,2.36,0,0,0-2.16,2.58A2.31,2.31,0,0,0,26.48,15.4Z"/><path class="cls-1" d="M31,18.13a2,2,0,0,0,.6.11c1.14,0,1.51-1.57,1.51-1.7a3.87,3.87,0,0,0-.24-0.73L30.48,9.36h1.39l1.85,5.71h0l1.89-5.71h1.29l-2.54,7c-0.47,1.33-1,2.85-2.65,2.85a4.15,4.15,0,0,1-.87-0.1l0.08-1"/><path class="cls-1" d="M38.26,9.85a4.39,4.39,0,0,1,2.27-.65c2,0,2.77,1,2.77,2.85v2.85a10.92,10.92,0,0,0,.05,1.35H42.17V15.37h0A2.56,2.56,0,0,1,40,16.42c-1.49,0-2.53-.65-2.53-2.15,0-1.73,1.89-2.27,3.2-2.27,0.5,0,.85,0,1.35,0,0-1.19-.43-1.8-1.7-1.8a3.25,3.25,0,0,0-2,.7L38.26,9.85M42,13l-0.81,0c-0.69,0-2.39.11-2.39,1.33a1.21,1.21,0,0,0,1.28,1.12A1.74,1.74,0,0,0,42,13.58V13Z"/><rect class="cls-1" x="45.4" y="6.12" width="1.27" height="10.14"/><path class="cls-1" d="M52.8,6.82h2.56c2,0,3.31.64,3.31,2.38a2.18,2.18,0,0,1-1.95,2.25v0a2.21,2.21,0,0,1,2.19,2.27c0,2-1.68,2.52-3.6,2.52H52.8V6.82m1.35,4H54.9c1.31,0,2.42-.12,2.42-1.52a1.48,1.48,0,0,0-1.74-1.41H54.15v2.92Zm0,4.3h1c1.22,0,2.31-.26,2.31-1.53C57.48,12.16,56.2,12,55,12H54.15v3.19Z"/><path class="cls-1" d="M60.85,9.36H62v1.07h0a2.1,2.1,0,0,1,1.8-1.23,3.58,3.58,0,0,1,.84.09v1.14a1.88,1.88,0,0,0-.7-0.12c-1.14,0-1.88,1.08-1.88,2.81v3.14H60.85V9.36"/><path class="cls-1" d="M69,9.2a3.4,3.4,0,0,1,3.5,3.61,3.51,3.51,0,1,1-7,0A3.41,3.41,0,0,1,69,9.2m0,6.19a2.31,2.31,0,0,0,2.15-2.58,2.19,2.19,0,1,0-4.31,0A2.31,2.31,0,0,0,69,15.4Z"/><path class="cls-1" d="M74.08,9.36h1.19v1h0A2.33,2.33,0,0,1,77.48,9.2a2,2,0,0,1,2,1.34A2.46,2.46,0,0,1,81.58,9.2c1.76,0,2.39,1.14,2.39,2.64v4.42H82.71V12.15c0-.85-0.2-1.92-1.23-1.92-1.3,0-1.81,1.27-1.81,2.56v3.48H78.39V12.15c0-.85-0.2-1.92-1.23-1.92-1.3,0-1.81,1.27-1.81,2.56v3.48H74.08V9.36"/><path class="cls-1" d="M86,9.36h1.22v1h0A2.76,2.76,0,0,1,89.6,9.2c2,0,3,1.64,3,3.49s-0.88,3.73-3,3.73a2.47,2.47,0,0,1-2.3-1.11h0V19.1H86V9.36m3.31,0.87c-1.38,0-2,1.31-2,2.6s0.59,2.57,2,2.57,1.93-1.53,1.91-2.61C91.25,11.54,90.71,10.23,89.33,10.23Z"/><path class="cls-1" d="M97.92,10.39H96.09v3.77a1.09,1.09,0,0,0,1.07,1.23A1.57,1.57,0,0,0,98,15.15v1.08a4,4,0,0,1-1.08.19,1.85,1.85,0,0,1-2.12-2v-4H93.27v-1h1.56V7.77l1.27-.41v2h1.83v1"/><path class="cls-1" d="M102.32,9.2a3.4,3.4,0,0,1,3.5,3.61,3.51,3.51,0,1,1-7,0,3.41,3.41,0,0,1,3.52-3.61m0,6.19a2.31,2.31,0,0,0,2.15-2.58,2.19,2.19,0,1,0-4.31,0A2.31,2.31,0,0,0,102.32,15.4Z"/><path class="cls-1" d="M107.45,9.36h1.23v1.1h0A2.48,2.48,0,0,1,111,9.2c1.78,0,2.58,1.11,2.58,3v4.1h-1.27V12.69c0-1.61-.35-2.39-1.46-2.46-1.45,0-2.1,1.16-2.1,2.84v3.19h-1.27V9.36"/><path class="cls-1" d="M127.15,11.16a6.27,6.27,0,0,1-1.08,3.23l1.65,1.87H126l-0.77-.92a3.26,3.26,0,0,1-2.7,1.08c-1.87,0-3-1.06-3-2.64A2.86,2.86,0,0,1,121.62,11a3.32,3.32,0,0,1-1-2.15,2.18,2.18,0,0,1,2.46-2.22,2.1,2.1,0,0,1,2.34,2.14,3,3,0,0,1-2.07,2.46l1.92,2.19a4.51,4.51,0,0,0,.58-2.29h1.27M122.8,15.4a2.34,2.34,0,0,0,1.75-.91l-2.27-2.66a2.23,2.23,0,0,0-1.33,1.87A1.75,1.75,0,0,0,122.8,15.4Zm0-4.9a2.19,2.19,0,0,0,1.42-1.65,1,1,0,0,0-1.12-1.16,1.1,1.1,0,0,0-1.14,1.22A2.51,2.51,0,0,0,122.76,10.5Z"/><polyline class="cls-1" points="133.18 6.82 134.54 6.82 134.54 10.77 139.06 10.77 139.06 6.82 140.41 6.82 140.41 16.26 139.06 16.26 139.06 11.96 134.54 11.96 134.54 16.26 133.18 16.26 133.18 6.82"/><path class="cls-1" d="M143,9.85a4.4,4.4,0,0,1,2.27-.65c2,0,2.77,1,2.77,2.85v2.85a10.92,10.92,0,0,0,.05,1.35h-1.19V15.37h0a2.56,2.56,0,0,1-2.14,1.06c-1.49,0-2.53-.65-2.53-2.15,0-1.73,1.89-2.27,3.21-2.27,0.5,0,.85,0,1.35,0,0-1.19-.43-1.8-1.7-1.8a3.24,3.24,0,0,0-2,.7L143,9.85M146.73,13l-0.81,0c-0.69,0-2.39.11-2.39,1.33a1.21,1.21,0,0,0,1.28,1.12,1.74,1.74,0,0,0,1.92-1.81V13Z"/><path class="cls-1" d="M150,9.36h1.19v1.07h0A2.1,2.1,0,0,1,153,9.2a3.58,3.58,0,0,1,.84.09v1.14a1.88,1.88,0,0,0-.7-0.12c-1.14,0-1.88,1.08-1.88,2.81v3.14H150V9.36"/><path class="cls-1" d="M160.39,16a5.29,5.29,0,0,1-2.18.45c-2.45,0-3.57-1.49-3.57-3.73a3.2,3.2,0,0,1,3.23-3.49c2.3,0,3,1.68,3,3.9H156a2.26,2.26,0,0,0,2.27,2.3,4.07,4.07,0,0,0,2.12-.69V16m-0.82-3.83a1.74,1.74,0,0,0-1.72-1.92A1.91,1.91,0,0,0,156,12.15h3.57Z"/><path class="cls-1" d="M163.32,10.39H161.7v-1h1.62V8.73c0-1.68.43-2.77,2.31-2.77a5.19,5.19,0,0,1,.85.08l-0.05,1A2,2,0,0,0,165.83,7c-1.1,0-1.23.7-1.23,1.64V9.36h1.83v1H164.6v5.87h-1.27V10.39"/><path class="cls-1" d="M169.16,7.82h-1.43V6.39h1.43V7.82m-1.35,1.54h1.27v6.9h-1.27V9.36Z"/><path class="cls-1" d="M176.54,16a5.28,5.28,0,0,1-2.18.45c-2.45,0-3.57-1.49-3.57-3.73A3.2,3.2,0,0,1,174,9.2c2.3,0,3,1.68,3,3.9h-4.92a2.26,2.26,0,0,0,2.27,2.3,4.07,4.07,0,0,0,2.12-.69V16m-0.82-3.83A1.74,1.74,0,0,0,174,10.23a1.91,1.91,0,0,0-1.85,1.92h3.57Z"/><rect class="cls-1" x="178.81" y="6.12" width="1.27" height="10.14"/><path class="cls-1" d="M187.17,15.29h0a2.77,2.77,0,0,1-2.35,1.14c-2.08,0-3-1.85-3-3.73s1-3.49,3-3.49a2.46,2.46,0,0,1,2.29,1.11h0V6.12h1.27V16.26h-1.22v-1m-2.08.11c1.43,0,2-1.42,2-2.57s-0.66-2.6-2-2.6-1.92,1.3-1.89,2.56C183.15,13.87,183.72,15.4,185.08,15.4Z"/><path class="cls-1" d="M196.51,1.58v16.2h40.06V1.58H196.51Zm9,14.61-2.73-9h0l-1.81,9h-3.29l2.79-13h4.36l2.67,9h0l1.83-9h3.29l-2.77,13h-4.34Zm13.31,0L220,10.59h-4.13l-1.16,5.59h-3.5l2.71-13h3.5l-1,5h4.13l1-5H225l-2.71,13h-3.5Zm15.41-10.1a6.55,6.55,0,0,0-2.88-.6c-1.38,0-2.51.21-2.51,1.25,0,1.85,5.07,1.16,5.07,5.12,0,3.61-3.35,4.54-6.38,4.54a14.58,14.58,0,0,1-4-.67l0.82-2.65a6.81,6.81,0,0,0,3.22.75c1.08,0,2.79-.21,2.79-1.55,0-2.09-5.07-1.31-5.07-5,0-3.37,3-4.37,5.81-4.37a10.59,10.59,0,0,1,4,.58Z"/><polyline class="cls-1" points="107.49 22.82 108.59 22.82 111.09 27.38 111.1 27.38 111.1 22.82 111.91 22.82 111.91 28.48 110.88 28.48 108.31 23.82 108.3 23.82 108.3 28.48 107.49 28.48 107.49 22.82"/><polyline class="cls-1" points="113.38 22.82 114.19 22.82 114.19 25.19 116.9 25.19 116.9 22.82 117.71 22.82 117.71 28.48 116.9 28.48 116.9 25.9 114.19 25.9 114.19 28.48 113.38 28.48 113.38 22.82"/><path class="cls-1" d="M121.76,23.67a2.48,2.48,0,0,0-1.06-.24,0.83,0.83,0,0,0-1,.75c0,1.09,2.43.84,2.43,2.7,0,1.21-.93,1.69-2.07,1.69a3.79,3.79,0,0,1-1.16-.23l0.08-.75a3.44,3.44,0,0,0,1.18.28,1,1,0,0,0,1.11-.92c0-1.27-2.43-.92-2.43-2.68a1.59,1.59,0,0,1,1.82-1.54,3.77,3.77,0,0,1,1.21.2l-0.11.75"/><polyline class="cls-1" points="125.46 22.82 128.47 22.82 128.47 23.53 126.27 23.53 126.27 25.19 128.37 25.19 128.37 25.9 126.27 25.9 126.27 28.48 125.46 28.48 125.46 22.82"/><path class="cls-1" d="M131.28,24.25a2,2,0,0,1,2.1,2.17,2.11,2.11,0,1,1-4.21,0,2,2,0,0,1,2.11-2.17m0,3.71a1.39,1.39,0,0,0,1.29-1.55,1.31,1.31,0,1,0-2.59,0A1.39,1.39,0,0,0,131.28,28Z"/><path class="cls-1" d="M138,28.48h-0.74V27.82h0a1.57,1.57,0,0,1-2.9-1V24.34h0.76v2.14c0,1,.21,1.43.88,1.48,0.87,0,1.26-.7,1.26-1.7V24.34H138v4.14"/><path class="cls-1" d="M139.27,24.34H140V25h0a1.57,1.57,0,0,1,2.9,1v2.46h-0.76V26.34c0-1-.21-1.44-0.88-1.48-0.87,0-1.26.7-1.26,1.7v1.91h-0.76V24.34"/><path class="cls-1" d="M147.14,27.9h0a1.66,1.66,0,0,1-1.41.68c-1.25,0-1.78-1.11-1.78-2.24a1.85,1.85,0,0,1,1.78-2.09,1.47,1.47,0,0,1,1.37.66h0V22.4h0.76v6.08h-0.73V27.9m-1.25.06a1.37,1.37,0,0,0,1.22-1.54,1.37,1.37,0,0,0-1.23-1.56,1.29,1.29,0,0,0-1.14,1.53A1.38,1.38,0,0,0,145.89,28Z"/><path class="cls-1" d="M149.31,24.64a2.64,2.64,0,0,1,1.36-.39A1.47,1.47,0,0,1,152.34,26v1.71a6.34,6.34,0,0,0,0,.81h-0.71V27.94h0a1.54,1.54,0,0,1-1.28.63,1.28,1.28,0,0,1-1.52-1.29c0-1,1.14-1.36,1.92-1.36,0.3,0,.51,0,0.81,0a0.9,0.9,0,0,0-1-1.08,2,2,0,0,0-1.2.42l0-.65m2.26,1.87-0.49,0c-0.41,0-1.44.06-1.44,0.79a0.73,0.73,0,0,0,.77.67,1,1,0,0,0,1.15-1.09V26.51Z"/><path class="cls-1" d="M155.78,25h-1.1v2.26a0.66,0.66,0,0,0,.64.74,1,1,0,0,0,.52-0.15v0.65a2.38,2.38,0,0,1-.65.11,1.11,1.11,0,0,1-1.27-1.2V25H153V24.34h0.93v-1l0.76-.24v1.2h1.1V25"/><path class="cls-1" d="M157.52,23.42h-0.86V22.56h0.86v0.86m-0.81.92h0.76v4.14h-0.76V24.34Z"/><path class="cls-1" d="M160.61,24.25a2,2,0,0,1,2.1,2.17,2.11,2.11,0,1,1-4.21,0,2,2,0,0,1,2.11-2.17m0,3.71a1.39,1.39,0,0,0,1.29-1.55,1.31,1.31,0,1,0-2.59,0A1.39,1.39,0,0,0,160.61,28Z"/><path class="cls-1" d="M163.72,24.34h0.74V25h0a1.57,1.57,0,0,1,2.9,1v2.46h-0.76V26.34c0-1-.21-1.44-0.88-1.48-0.87,0-1.26.7-1.26,1.7v1.91h-0.76V24.34"/><polyline class="cls-1" points="172.13 23.53 170.37 23.53 170.37 22.82 174.7 22.82 174.7 23.53 172.94 23.53 172.94 28.48 172.13 28.48 172.13 23.53"/><path class="cls-1" d="M174.84,24.34h0.71V25h0a1.26,1.26,0,0,1,1.08-.74,2.17,2.17,0,0,1,.5.06V25a1.13,1.13,0,0,0-.42-0.07c-0.68,0-1.13.65-1.13,1.69v1.88h-0.76V24.34"/><path class="cls-1" d="M181.6,28.48h-0.74V27.82h0a1.57,1.57,0,0,1-2.9-1V24.34h0.76v2.14c0,1,.21,1.43.88,1.48,0.87,0,1.26-.7,1.26-1.7V24.34h0.76v4.14"/><path class="cls-1" d="M182.64,27.67a2,2,0,0,0,.95.29,0.67,0.67,0,0,0,.78-0.59c0-.75-1.79-0.69-1.79-1.85A1.28,1.28,0,0,1,184,24.25a3.16,3.16,0,0,1,.95.16l-0.06.66a2.22,2.22,0,0,0-.8-0.21,0.61,0.61,0,0,0-.73.5c0,0.84,1.79.6,1.79,1.92a1.3,1.3,0,0,1-1.44,1.29,2.37,2.37,0,0,1-1.14-.23l0-.68"/><path class="cls-1" d="M188.4,25h-1.09v2.26a0.66,0.66,0,0,0,.64.74,1,1,0,0,0,.52-0.15v0.65a2.38,2.38,0,0,1-.65.11,1.11,1.11,0,0,1-1.27-1.2V25h-0.93V24.34h0.93v-1l0.76-.24v1.2h1.09V25"/></svg>