<svg id="Layer_1" data-name="Layer 1" xmlns="http://www.w3.org/2000/svg" viewBox="0 0 251 53"><defs><style>.cls-1{fill:#fff;}.cls-2{fill:#0b0b0b;}.cls-3{fill:#e9e9e9;}.cls-4{fill:#757575;}.cls-5{fill:#fdfdfd;}.cls-6{fill:#fcfcfc;}.cls-7{fill:#f1f1f1;}.cls-8{fill:#141414;}.cls-9{fill:#fbfbfb;}.cls-10{fill:#f8f8f8;}.cls-11{fill:#3a3a3a;}.cls-12{fill:#efefef;}.cls-13{fill:#1d1d1d;}.cls-14{fill:#b5b5b5;}.cls-15{fill:#f0f0f0;}.cls-16{fill:#d6d6d6;}.cls-17{fill:#ececec;}.cls-18{fill:#f4f4f4;}.cls-19{fill:#fafafa;}.cls-20{fill:#4b4b4b;}.cls-21{fill:#ebebeb;}.cls-22{fill:#1c1c1c;}.cls-23{fill:silver;}.cls-24{fill:#e8e8e8;}.cls-25{fill:#f5f5f5;}.cls-26{fill:#dedede;}.cls-27{fill:#dfdfdf;}.cls-28{fill:#ededed;}.cls-29{fill:#626262;}.cls-30{fill:#414141;}.cls-31{fill:#2b2b2b;}.cls-32{fill:#303030;}.cls-33{fill:#e5e5e5;}.cls-34{fill:#545454;}.cls-35{fill:#eaeaea;}.cls-36{fill:#747474;}.cls-37{fill:#d8d8d8;}.cls-38{fill:#f6f6f6;}.cls-39{fill:#eee;}.cls-40{fill:#d5d5d5;}.cls-41{fill:#0d0d0d;}.cls-42{fill:#828282;}.cls-43{fill:#d9d9d9;}.cls-44{fill:#cfcfcf;}.cls-45{fill:#3d3d3d;}.cls-46{fill:#f2f2f2;}.cls-47{fill:#dadada;}.cls-48{fill:#d4d4d4;}.cls-49{fill:#707070;}.cls-50{fill:#1f1f1f;}.cls-51{fill:#b6b6b6;}.cls-52{fill:#d0d0d0;}.cls-53{fill:#b7b7b7;}.cls-54{fill:#f3f3f3;}.cls-55{fill:#bbb;}.cls-56{fill:#a6a6a6;}.cls-57{fill:#dbdbdb;}.cls-58{fill:#ccc;}.cls-59{fill:#858585;}.cls-60{fill:#e4e4e4;}.cls-61{fill:#9a9a9a;}.cls-62{fill:#c8c8c8;}.cls-63{fill:#c9c9c9;}.cls-64{fill:#aaa;}.cls-65{fill:#787878;}.cls-66{fill:#f7f7f7;}.cls-67{fill:#7c7c7c;}.cls-68{fill:#878787;}.cls-69{fill:#767676;}.cls-70{fill:#bababa;}.cls-71{fill:#b0b0b0;}.cls-72{fill:#b1b1b1;}.cls-73{fill:#7a7a7a;}.cls-74{fill:#919191;}.cls-75{fill:#d3d3d3;}.cls-76{fill:#727272;}.cls-77{fill:#e0e0e0;}.cls-78{fill:#c3c3c3;}.cls-79{fill:#909090;}.cls-80{fill:#d2d2d2;}.cls-81{fill:#bcbcbc;}.cls-82{fill:#585858;}.cls-83{fill:#a3a3a3;}.cls-84{fill:#575756;}.cls-85{fill:#151515;}.cls-86{fill:#161616;}.cls-87{fill:#222;}.cls-88{fill:#181818;}.cls-89{fill:#171717;}.cls-90{fill:#191919;}.cls-91{fill:#1a1a1a;}.cls-92{fill:#1e1e1e;}.cls-93{fill:#252525;}.cls-94{fill:#7e7e7e;}.cls-95{fill:#2e2e2e;}.cls-96{fill:#202020;}.cls-97{fill:#212121;}.cls-98{fill:#131313;}.cls-99{fill:#232323;}.cls-100{fill:#d1d1d1;}.cls-101{fill:#242424;}.cls-102{fill:#0e0e0e;}.cls-103{fill:#b2b2b2;}.cls-104{fill:#cbcbcb;}.cls-105{fill:#676767;}.cls-106{fill:#e7e7e7;}.cls-107{fill:#f9f9f9;}.cls-108{fill:#555;}</style></defs><title>LD_website logo</title><path class="cls-1" d="M137.53,24.21l1.1-.62a0.91,0.91,0,0,0,.36-0.77,0.53,0.53,0,0,0-.54-0.14,0.18,0.18,0,0,1-.16,0c0-.14.24-0.22,0.12-0.42a2.77,2.77,0,0,1-.77.21c0-.15.06-0.28,0.08-0.41s0.07-.14,0-0.17a0.21,0.21,0,0,0-.15,0l-0.44.32a0.38,0.38,0,0,1,.12-0.33c0.07-.12.07-0.19-0.09-0.19s-0.15.08-.16-0.07,0.1-.1.17-0.12a2.64,2.64,0,0,1,1,0c0.07,0,.14,0,0.18-0.05a0.14,0.14,0,0,0-.07-0.14L137.86,21c0.16-.19.43-0.2,0.6-0.39a1.55,1.55,0,0,0-.57-0.14,1.44,1.44,0,0,1,.61-0.5,3.59,3.59,0,0,0-1.06.11,1.77,1.77,0,0,1,.07-0.74c0-.08.1-0.18,0-0.24a0.21,0.21,0,0,0-.22.12c-0.12.13-.22,0.27-0.36,0.46,0-.13,0-0.19,0-0.25s0-.26-0.14-0.26-0.1.15-.12,0.25a0.64,0.64,0,0,1-.19.44,1.15,1.15,0,0,0-.35-0.31c0,0.25.09,0.47,0.09,0.74-0.22-.12-0.41-0.25-0.62-0.34s-0.06-.14,0-0.21a2.23,2.23,0,0,1,.33-0.52,1.54,1.54,0,0,0-.9.45l-0.21-.43a0.21,0.21,0,0,0-.21-0.15c-0.14,0-.07.14-0.08,0.22a3.15,3.15,0,0,1-.05.47c0,0.21-.1.26-0.27,0.1a0.56,0.56,0,0,0-.44-0.24,7.27,7.27,0,0,1,.11.94,0.7,0.7,0,0,1-.29-0.12,2.17,2.17,0,0,0-.91-0.55,0.31,0.31,0,0,0-.32,0,3.08,3.08,0,0,1-1.6.23l0.13-.28a1.15,1.15,0,0,1,.07-0.73,3.27,3.27,0,0,0-.65-3.09c-0.1-.12-0.29-0.3.1-0.26a0.62,0.62,0,0,0,.32-0.16,1.32,1.32,0,0,1,1-.2,0.55,0.55,0,0,1-.39.06,0.85,0.85,0,0,0-.57.26c-0.11.09-.38,0.13-0.27,0.34a0.48,0.48,0,0,0,.55.37,2.63,2.63,0,0,1,.8,0,0.81,0.81,0,0,0,.6-0.14,0.38,0.38,0,0,1-.06.16l0.1,0a1.54,1.54,0,0,0,.44-0.39c0.1,0,.19,0,0.16-0.16s-0.11,0-.17,0a1.27,1.27,0,0,0-.54.18,0.83,0.83,0,0,1-.54.15s-0.13,0,0-.08a1.05,1.05,0,0,0,.16,0,0.66,0.66,0,0,0,.26-0.29,0.52,0.52,0,0,1,.29-0.26c0.1,0,.32,0,0.28-0.12s-0.26-.11-0.41-0.09a0.44,0.44,0,0,0-.24.22l-0.16.14a0.17,0.17,0,0,0,.09-0.14,0.77,0.77,0,0,0,0-.23c0-.21-0.13-0.4.17-0.51,0.13,0,0-.15-0.07-0.18a0.61,0.61,0,0,0-.64.4c0,0.17-.09.17-0.19,0.13a1.08,1.08,0,0,0-1.08.16,2.16,2.16,0,0,1-.35-1.22c0-.08,0-0.11-0.11-0.14a0.19,0.19,0,0,0-.24.08,1.18,1.18,0,0,0-.41,1,0.29,0.29,0,0,1-.19-0.35,0.5,0.5,0,0,0,0-.42c-0.09-.16.15-0.44-0.13-0.48s-0.18.29-.3,0.42-0.15.3-.3,0.12a2.35,2.35,0,0,0-.66-0.47c-0.56-.36-1.07-0.79-1.66-1.1-0.08,0-.16-0.13-0.24-0.07s0,0.2.05,0.27a6.36,6.36,0,0,0,.84.85,14.32,14.32,0,0,0,1.3,1.06c-0.2.1-.42,0-0.52,0.07s0.22,0.19.15,0.37a1.52,1.52,0,0,1-.55-0.17,0.54,0.54,0,0,0,.15.49,0.47,0.47,0,0,1-.5,0,0.44,0.44,0,0,0-.65.11,0.37,0.37,0,0,1-.34.18,0.37,0.37,0,0,0-.4.4,1.49,1.49,0,0,0,.15.71c0.21,0.31.15,0.49-.2,0.62a0.44,0.44,0,0,0-.32.6c0,0.14,0,.28,0,0.44,0.15,0,.31,0,0.29-0.27s0.09-.15.21-0.15a0.72,0.72,0,0,0,.9-0.6,0.36,0.36,0,0,1,.5-0.33,0.31,0.31,0,0,0,.28-0.09c0.35-.27.53-0.21,0.65,0.19a0.48,0.48,0,0,0,.11.24c0.29,0.22.35,0.38-.07,0.51a1.41,1.41,0,0,1-.39.33,0.79,0.79,0,0,1-.29-0.47,0.28,0.28,0,0,0-.3-0.11c-0.17,0-.09.16-0.09,0.24a6.13,6.13,0,0,1-.05,1c0,0.17,0,.19-0.19.18a4.62,4.62,0,0,1-2-.69,0.7,0.7,0,0,1-.12-1l0.38-.43-0.16,0c-0.36,0-.3-0.2-0.16-0.41s0.21-.29.3-0.45,0.08-.22-0.09-0.2c-0.36.05-.39-0.15-0.36-0.42a0.23,0.23,0,0,0-.08-0.22,1.66,1.66,0,0,0-.39.27,4,4,0,0,0-.28-0.93,10.34,10.34,0,0,1-.56,1.28l-0.37-.31,0,0c-0.22-.21-0.24-0.55,0-0.57A0.79,0.79,0,0,0,123,14.8a3,3,0,0,0,.31-0.7,0.15,0.15,0,0,0,0-.12,1.58,1.58,0,0,0-.71-0.63,2.36,2.36,0,0,0-.66-0.13c-0.22,0-.46.3-0.67,0,0-.06-0.12,0-0.18,0a1,1,0,0,1-.38.19,6.43,6.43,0,0,0,0-.67c0-.23-0.08-0.45-0.41-0.42s-0.65,0-1,0a0.27,0.27,0,0,0-.25.14,2.62,2.62,0,0,0-.14.87,0.81,0.81,0,0,1-.33-0.15c-0.19-.08-0.22.11-0.31,0.18h-0.06a0.57,0.57,0,0,0-.56-0.12,1.07,1.07,0,0,0-1.26.94,0.68,0.68,0,0,0,.2.63,1.53,1.53,0,0,0,.65.48s0.08,0.07,0,.1a1.26,1.26,0,0,0-.2.38c-0.1.14-.21,0.19-0.35,0a1.83,1.83,0,0,1-.36-0.57,1.17,1.17,0,0,0-.25-0.49,2.89,2.89,0,0,1-.16,1c-0.07.17-.12,0.33-0.34,0.15a0.12,0.12,0,0,0-.15,0,0.15,0.15,0,0,0,0,.19,1.76,1.76,0,0,1,.16.51,1.51,1.51,0,0,1-.6,0,2,2,0,0,0,.36.55c0.1,0.14.12,0.23-.08,0.28s-0.12.14,0,.23L115.54,18s0.12,0.08.08,0.16a1.46,1.46,0,0,1-.73,1c-0.28.11-.38,0.06-0.39-0.23a0.76,0.76,0,0,0-.26-0.46,1.16,1.16,0,0,1-.3-0.37,1.29,1.29,0,0,1,.73.47c0.14-.74-0.67-0.74-1-1.21a7,7,0,0,1,.91.43,0.82,0.82,0,0,0-.53-0.7,7.21,7.21,0,0,1-1-.66,0.08,0.08,0,0,1,0-.12c0.48-.13.8,0.52,1.39,0.27a1.26,1.26,0,0,1-.81-0.57,0.53,0.53,0,0,0-.34-0.26c-0.16,0-.09-0.11-0.1-0.22s0.17-.12.25-0.16a0.24,0.24,0,0,0,.19-0.27c0-.2-0.16-0.08-0.26,0a0.58,0.58,0,0,1-.39,0c-0.12,0-.31-0.05-0.1-0.24a0.15,0.15,0,0,0,0-.19c-0.06-.09-0.12,0-0.17,0a1.23,1.23,0,0,1-.68.05,0.84,0.84,0,0,1-.76-0.44l0,0a0.45,0.45,0,0,1-.33-0.5,0.41,0.41,0,0,0-.29-0.47,0.87,0.87,0,0,0-.69.16,1.07,1.07,0,0,0-.42.69,3,3,0,0,1-.24-0.52,1.77,1.77,0,0,1-.35.36,2.16,2.16,0,0,0,.08-0.54,3,3,0,0,0-.71.41,1.22,1.22,0,0,1,.31.27L108.42,14c-0.06,0-.12-0.08-0.18,0,0.09,0.3.08,0.27-.22,0.41a2.09,2.09,0,0,1-.51.22,0.16,0.16,0,0,0-.08.1,0.54,0.54,0,0,0,.4.75c0.23,0.07.33,0.18,0.19,0.42a4.65,4.65,0,0,0-.39.86,0.32,0.32,0,0,0,.09.42,0.38,0.38,0,0,1,.12.55,0.31,0.31,0,0,0,.12.44,2.12,2.12,0,0,1,.65.51,0.11,0.11,0,0,0,.15,0c0.06,0,0-.1,0-0.15-0.14-.3.12-0.34,0.35-0.5-0.08.28-.25,0.5,0,0.67,0.08,0.05.21,0.09,0.14,0.22a0.26,0.26,0,0,1-.26.18,0.53,0.53,0,0,0-.5.22,0.29,0.29,0,0,1-.23.11c-0.15,0-.41,0-0.38.17s0.28,0.08.44,0.08a3.55,3.55,0,0,1,.9-0.21c-0.15.1-.28,0.17-0.39,0.26a6.26,6.26,0,0,0-.63.22,0.34,0.34,0,0,0-.19.21c0,0.12.15,0.1,0.25,0.13a0.35,0.35,0,0,1,.24.11,0.6,0.6,0,0,1-.41.25c-0.07,0-.15,0-0.13.11s0.09,0.14,0,.16a0.45,0.45,0,0,1-.31-0.21,0.11,0.11,0,0,1,0-.17,1.45,1.45,0,0,0-.16-1.61,1,1,0,0,0-1-.54,7.53,7.53,0,0,0-1.21.09c-0.13,0-.32.07-0.33-0.12a0.52,0.52,0,0,0-.58-0.48,0.43,0.43,0,0,1-.26-0.06,1,1,0,0,0-1.1-.1,0.6,0.6,0,0,1-.58,0,0.19,0.19,0,0,0-.27,0,0.24,0.24,0,0,0,0,.31,0.7,0.7,0,0,0,.82.31c0.3-.07.51,0.09,0.4,0.32a0.72,0.72,0,0,0,.15.9,2.94,2.94,0,0,1-.28.19,0.45,0.45,0,0,1-.43,0c0-.43-0.56-0.51-0.61-0.93-0.07.2-.09,0.4-0.14,0.59a1.41,1.41,0,0,1-.16.48c-0.14.17-.29-0.1-0.46-0.11a1.4,1.4,0,0,0-.26-0.06,1,1,0,0,1-.86-0.27,0.87,0.87,0,0,0,.2.73,0.86,0.86,0,0,0,1.15.63c0.12,0,.2,0,0.22.12s-0.07.12-.16,0.15a3.52,3.52,0,0,0-1,.25,2.65,2.65,0,0,1,.64.52,0.5,0.5,0,0,0,.69.23c-0.21.46-.21,0.46,0.27,0.52a2.69,2.69,0,0,1-1.87.34,1.15,1.15,0,0,0,.78,1.06,2.27,2.27,0,0,1,.63.38l-0.52.15-0.49.13a0.18,0.18,0,0,0-.18.12,1,1,0,0,0,.54.64l1.11,0.09a41.37,41.37,0,0,0,5.23.16,6.27,6.27,0,0,0,1.24-.16c1.63-.38,3.23-0.91,4.83-1.4a3.74,3.74,0,0,1,1.2-.14,1.57,1.57,0,0,1,1.13.61c0.05,0.06.1,0.13,0,.2h0l-0.12-.11a1.49,1.49,0,0,0-1.55-.5c-0.38.09-.76,0.19-1.14,0.29-0.11,0-.29,0-0.17.23s0,0.4.34,0.27a6.36,6.36,0,0,1,1.06-.32,1,1,0,0,1,1,.28l0.5,0.55a0.51,0.51,0,0,0,.8,0,0.69,0.69,0,0,0,.17-0.78,0.35,0.35,0,0,1,0-.44,0.86,0.86,0,0,1,.4.81,1.64,1.64,0,0,0,.06.67c0.11,0.51.56,0.43,0.92,0.5a0.51,0.51,0,0,0,.68-0.38c0.05-.23.16-0.18,0.28-0.14a3.47,3.47,0,0,0,1.19.21c0.29,0,.73.16,0.74-0.4a0.09,0.09,0,0,1,.05,0,4.79,4.79,0,0,1,1.08-.55c0.3-.07.5,0,0.4-0.44a0.25,0.25,0,0,1,.26-0.25c0.14,0,.09.17,0.06,0.28s-0.07.19-.09,0.29a0.53,0.53,0,0,0,.38.74,0.5,0.5,0,0,0,.71-0.22,1.64,1.64,0,0,1,1.74-.59l0.65,0.18c0.21,0.07.24-.11,0.33-0.22s0-.13-0.06-0.15a2.52,2.52,0,0,0-2.3-.1c-0.2.13-.42,0.24-0.69,0.39A0.71,0.71,0,0,1,124,24.4a2.28,2.28,0,0,1,1.78-.31l1.29,0.39a26.53,26.53,0,0,0,5.23,1.18,25.21,25.21,0,0,0,5.73-.18,1.14,1.14,0,0,0,1-.74A10.68,10.68,0,0,0,137.53,24.21Zm-5.32-4.09a0.49,0.49,0,0,1,.51,0,1.2,1.2,0,0,1,.63.79,4.16,4.16,0,0,0,.81,1.88,3.28,3.28,0,0,1,.61,1,2.53,2.53,0,0,1,.07.26,0.14,0.14,0,0,1-.07.18c-0.09,0-.11,0-0.14-0.1l-0.27-.45a0.48,0.48,0,0,0,0,.42c0,0.1.09,0.2,0.14,0.3a0.74,0.74,0,0,1-.88-0.49c0-.19.12-0.21,0.23-0.28s0.14,0,.13-0.13-0.1-.08-0.16-0.08a2.28,2.28,0,0,1-.27,0c-0.1,0-.23,0-0.23-0.16s0.17,0,.21-0.09a0.61,0.61,0,0,0-.37-0.37c0.06-.1.17,0,0.21-0.1a0.92,0.92,0,0,1-.27-0.08,1.15,1.15,0,0,1,.26-0.13,0.87,0.87,0,0,0-.4-0.19l0.27-.12A0.39,0.39,0,0,0,133,22a0.46,0.46,0,0,0,.13-0.13c0-.11-0.16,0-0.23-0.07s0.18-.08.18-0.21a0.63,0.63,0,0,0-.25-0.06,0.9,0.9,0,0,1,.24-0.21,0.73,0.73,0,0,0-.27,0,1.22,1.22,0,0,1,.24-0.25,0.52,0.52,0,0,0-.32,0,1,1,0,0,1,.23-0.3,0.53,0.53,0,0,0-.43.06,1.09,1.09,0,0,1,.21-0.32,1.19,1.19,0,0,0-.42.17,0.51,0.51,0,0,1,.14-0.31,1.63,1.63,0,0,0-.31.07C132.19,20.36,132.06,20.19,132.21,20.12ZM128,17a0.63,0.63,0,0,1-.37-0.83,1.63,1.63,0,0,0-.33.41,0.58,0.58,0,0,0-.17-0.47c-0.11.16,0,.34-0.09,0.51-0.18-.11,0-0.45-0.36-0.47,0.11,0.29-.12.25-0.27,0.3a1,1,0,0,1-.94-0.15c-0.1-.17-0.11-0.28.13-0.28a0.42,0.42,0,0,0,.49-0.24,0.22,0.22,0,0,1,.38-0.05,0.08,0.08,0,0,0,.07.08,0.9,0.9,0,0,0,.68.06,0.59,0.59,0,0,0,.37-0.22,0.64,0.64,0,0,1,.56-0.11,0.45,0.45,0,0,0,.1.51,0.34,0.34,0,0,0,.34.11,0.37,0.37,0,0,1,.27,0,1.29,1.29,0,0,1-.3-0.49,0.09,0.09,0,0,1,.08-0.14,0.82,0.82,0,0,0,.23,0c0.09,0,.15,0,0.18.13a0.49,0.49,0,0,0,.74.41c0.08,0,.14-0.12.24,0a0.29,0.29,0,0,1,.08.3c-0.05.38-.25,0.72-0.33,1.09-0.07.1,0,.15,0.07,0.21l0,0.3c0.12,0,.1-0.15.22-0.12a1.21,1.21,0,0,1-.12.38c0,0.13-.18.28,0.05,0.37-0.06.11,0.17,0.39-.22,0.32a1.25,1.25,0,0,0-.54.23c-0.14-.78-0.17-0.81-0.76-0.55-0.07-.22,0-0.34.25-0.32a1.18,1.18,0,0,0,.5,0,0.38,0.38,0,0,0,.29-0.5,0.58,0.58,0,0,1-.62.11,1.17,1.17,0,0,0,.72-0.89,1.46,1.46,0,0,1-.72.55,1.67,1.67,0,0,0,.56-0.84A1,1,0,0,1,128,17Zm-0.21,1.33a0.22,0.22,0,0,1,.22-0.12,0.23,0.23,0,0,1,.08.21c0.07,0.51.06,0.51,0.49,0.22a0.31,0.31,0,0,1,.33-0.12,0.34,0.34,0,0,1,.09.34c0,0.08,0,.16,0,0.24s0.1,0.25.29,0.15,0.33-.34.52-0.2,0,0.35,0,.53,0,0.24.19,0.17l0.06,0c0.18,0,.32-0.27.52-0.11s0,0.32-.05.48,0,0.23.19,0.19l0.3-.07a0.17,0.17,0,0,1,.24.16c-0.06.24-.09-0.09-0.15,0a0.68,0.68,0,0,1-.42.09c-0.12,0-.23.15-0.31-0.06a0.09,0.09,0,0,0-.14,0c-0.2.22-.36,0.07-0.52,0l-1-.67a0.15,0.15,0,0,1-.05,0c-0.13-.28-0.29-0.38-0.52,0,0-.25,0-0.44-0.26-0.45s-0.29.18-.32,0.38c-0.22-.26-0.14-0.4.34-0.59a0.93,0.93,0,0,1-.69-0.31A0.67,0.67,0,0,0,127.78,18.37Zm-2.36,3.2,1.24-.66a1,1,0,0,0,.61-0.49,1.65,1.65,0,0,1,.94-0.26,0.73,0.73,0,0,0,.51.13c0.11,0,0,.19.15,0.18a1,1,0,0,0,.32.17,0.68,0.68,0,0,1-.12.31l-0.13.19-0.11.21a0.57,0.57,0,0,1,0-.34c0-.11,0-0.25-0.12-0.27s-0.09.14-.12,0.21a1.94,1.94,0,0,0-.05.24l-0.16-.45a0.12,0.12,0,0,0-.15-0.1c-0.1,0-.06.1,0,0.16a0.37,0.37,0,0,1-.08.49,1.25,1.25,0,0,0-.26-0.66,3.82,3.82,0,0,1,0,.47,4,4,0,0,0-.28-0.37,0.31,0.31,0,0,0,0,.25,0.33,0.33,0,0,1-.19.44c-0.06,0-.16,0-0.13.12a0.16,0.16,0,0,0,.2.1c0.62-.28,1.07.2,1.58,0.36a3.24,3.24,0,0,0,1.5.3,0.6,0.6,0,0,1,.5.6,0.23,0.23,0,0,1-.29.16,0.27,0.27,0,0,1-.31-0.22,0.23,0.23,0,0,0-.27-0.14c-0.82.26-1.51-.22-2.24-0.4-0.25-.06-0.49-0.16-0.73-0.25s-0.24,0-.19-0.2-0.07-.09-0.13-0.05a0.24,0.24,0,0,1-.27.08c0-.15.21-0.12,0.22-0.28a1.34,1.34,0,0,0-.51.21,1.51,1.51,0,0,1,.33-0.45,0.43,0.43,0,0,1-.15-0.19,3.64,3.64,0,0,0-.94.5,0.12,0.12,0,0,1-.18,0C125.28,21.64,125.36,21.6,125.42,21.58ZM122.51,14a0.44,0.44,0,0,1-.07.78c0.14-.56,0-0.77-0.57-0.76a6.93,6.93,0,0,0-.78.15A1.19,1.19,0,0,1,122.51,14Zm-0.44.21a1.34,1.34,0,0,1-.59.82A0.8,0.8,0,0,1,122.07,14.21Zm-1-.76c0.06-.05.14-0.11,0.2,0a0.13,0.13,0,0,1,0,.19c-0.2.16-.38,0.34-0.63,0.58A1.51,1.51,0,0,1,121,13.45Zm0.78,1.93a0.32,0.32,0,0,1,.22.19c0,0.18-.15.11-0.26,0.06a4.64,4.64,0,0,0-1.28-.39,4.31,4.31,0,0,0-2.55.42l-0.24.12c-0.08,0-.17.12-0.23,0s0-.16.13-0.2a5,5,0,0,1,1.65-.57A4.45,4.45,0,0,1,121.82,15.38Zm-4.18-1.14a0.16,0.16,0,0,1,.18,0,0.9,0.9,0,0,1,.4.74,1.11,1.11,0,0,1-.58-0.59A0.14,0.14,0,0,1,117.64,14.24Zm0.75-.79a0.16,0.16,0,0,1,.18,0,0.93,0.93,0,0,1,.57.79,2.33,2.33,0,0,0-.71-0.66C118.38,13.53,118.36,13.5,118.39,13.46ZM117.07,15c-0.37-.58-0.23-0.94.37-1.1a1.4,1.4,0,0,1,1.3.33,1.33,1.33,0,0,1-.55-0.13,1.26,1.26,0,0,0-.53,0C117.08,14.17,117,14.34,117.07,15ZM116,21.05a0.12,0.12,0,0,1,.11,0,0.11,0.11,0,0,1-.07.13l-0.59.22A0.84,0.84,0,0,1,116,21.05Zm0.12,1.85a0.58,0.58,0,0,1-.47-0.59Zm-1.27-2a0.38,0.38,0,0,1,.34-0.16,0.4,0.4,0,0,1,.07.34c0,0.23.05,0.47,0.08,0.7,0,0.05.05,0.12,0,.13a0.15,0.15,0,0,1-.19-0.09,0.84,0.84,0,0,0-.42-0.51c-0.12-.07-0.1-0.15,0-0.24A1.39,1.39,0,0,1,114.84,20.86Zm-0.2-1.31a0.53,0.53,0,0,1-.58-0.5C114.22,19.24,114.46,19.33,114.64,19.55Zm-0.55.37a0.1,0.1,0,0,1,.09,0,0.79,0.79,0,0,1,0,.55l0-.08A0.63,0.63,0,0,1,114.09,19.92Zm0.28,1.37A0.94,0.94,0,0,1,115,22a0.66,0.66,0,0,0-.67-0.42,0.66,0.66,0,0,1,.15.92,0.57,0.57,0,0,0-.24-0.5,1,1,0,0,0-.53-0.25c0,0.21.23,0.3,0.25,0.48s-0.17,0-.22-0.07a3,3,0,0,0-.41-0.35c-0.09-.08-0.08-0.23-0.27-0.2a1.25,1.25,0,0,1-.51.06c-0.23-.22-0.34,0-0.53.07l0.07-.16a1.55,1.55,0,0,0-.79.26c-0.14.1-.37,0-0.54,0.12a0.09,0.09,0,0,1-.08,0c-0.09-.14-0.08-0.14-0.3,0a0.6,0.6,0,0,1,.21-0.27l0.25-.23c-0.15,0-.23.12-0.4,0.08a2.22,2.22,0,0,0,.5-0.63c0,0.23.06,0.4,0.09,0.57a0.14,0.14,0,0,0,.12.15c0.09,0,.09-0.07.12-0.13a6.11,6.11,0,0,0,.57-1.06l0.09,0a1,1,0,0,0,1,.55A4.49,4.49,0,0,1,114.37,21.29Zm-3.62-1.61a1.17,1.17,0,0,1-1,1.56A5.05,5.05,0,0,0,110.75,19.68Zm-1.51,1.52a6.9,6.9,0,0,1,1-1.19A1.59,1.59,0,0,1,109.24,21.2Zm3.68-2c-0.48-.29-0.35-1-0.88-1.24C112.47,17.9,112.73,18.29,112.92,19.16Zm0-1.82a1.33,1.33,0,0,1,.6.48A0.77,0.77,0,0,1,112.87,17.34Zm0.1,3a6.28,6.28,0,0,0-.36-1A0.68,0.68,0,0,1,113,20.38ZM112,19a1,1,0,0,1,.47.8A1.3,1.3,0,0,1,112,19Zm0.34,1.42a2.83,2.83,0,0,1-.43-0.83A1.08,1.08,0,0,1,112.31,20.43Zm-0.08-2a0.89,0.89,0,0,1-.61-0.33,1.22,1.22,0,0,0-.65-0.59,0.1,0.1,0,1,1,.06-0.2,0.55,0.55,0,0,1,.47.21A5.81,5.81,0,0,0,112.24,18.46Zm-0.95,0a0.68,0.68,0,0,0,.2.7,0.42,0.42,0,0,1-.48-0.49,0.53,0.53,0,0,0-.26-0.81C111.23,17.83,111.37,18,111.29,18.42Zm-0.13,2.89a8.89,8.89,0,0,1,.2-1.71A1.61,1.61,0,0,1,111.17,21.31Zm2.46-1-0.21-.71C113.71,19.76,113.72,19.81,113.62,20.27ZM113,18.19c0.37-.11.47,0.25,0.59,0.9A6.88,6.88,0,0,1,113,18.19Zm0.54-1.29c-0.34.32-.74,0.16-1-0.53A2,2,0,0,0,113.5,16.9Zm-0.79-1.37a1.1,1.1,0,0,1-.75.11A0.73,0.73,0,0,1,112.71,15.54Zm-0.29-.4-0.68.18A0.51,0.51,0,0,1,112.42,15.13Zm-2.08-1.3c-0.11.22,0.15,0.49-.2,0.57,0,0-.25.07-0.25-0.09A0.51,0.51,0,0,1,110.34,13.83ZM107.88,15c0-.15.13-0.16,0.24-0.17s0.26,0,.26.12a0.22,0.22,0,0,1-.22.25A0.27,0.27,0,0,1,107.88,15Zm1.27,2.76c-0.12,0-.25.15-0.36,0a0.35,0.35,0,0,1,0-.46,2.49,2.49,0,0,1,.45-0.38c0.12-.07,0-0.1,0-0.15a0.28,0.28,0,0,0-.27-0.2c-0.15-.06-0.28-0.15-0.09-0.32a0.7,0.7,0,0,0,.58-0.16,0.74,0.74,0,0,1-.47.16c-0.3,0-.32,0-0.18.27,0,0.06.08,0.11,0,.17a0.3,0.3,0,0,0-.34.19,1.27,1.27,0,0,1-.49.32,1.6,1.6,0,0,1,.19-0.61c-0.18,0-.29.15-0.5,0.16a1.91,1.91,0,0,1,.51-0.84,0.57,0.57,0,0,0,.34-0.67,0.41,0.41,0,0,1,.26.37,1.62,1.62,0,0,0,.2-0.9,0.75,0.75,0,0,1,.12.78,1.08,1.08,0,0,0,.3-0.89c0.18,0.2.18,0.2,0.07,0.71a1.09,1.09,0,0,0,.5-0.75,0.7,0.7,0,0,1-.22.83l1-.3c-0.19.34-.56,0.42-0.75,0.73a4.09,4.09,0,0,1,1.38-.45c-0.27.43-.94,0.16-1.12,0.72a1.13,1.13,0,0,1,1.39-.16,1.51,1.51,0,0,0-.86.3,1.1,1.1,0,0,1,1.53.72,1.31,1.31,0,0,1-.5-0.31A0.9,0.9,0,0,0,111,16.5s-0.12,0-.12.09a0.12,0.12,0,0,0,.14.12,1.5,1.5,0,0,1,1.25.86,1,1,0,0,1-.49-0.25,1.1,1.1,0,0,0-.83-0.28,0.17,0.17,0,0,1-.18-0.12c-0.11-.17-0.22-0.34-0.34-0.51s-0.07-.23-0.21-0.14,0,0.17,0,.25a0.1,0.1,0,0,1,0,.11,0.58,0.58,0,0,1-.11.18c-0.1,0-.2-0.15-0.31,0s0,0.16.05,0.23a0.33,0.33,0,0,1-.13.32A1.17,1.17,0,0,1,109.16,17.81Zm0.22,0.41a1,1,0,0,0,.37-0.22,0.49,0.49,0,0,1,.15-0.06,0.22,0.22,0,0,1,.21-0.13,0.41,0.41,0,0,0,.28-0.32c0-.09,0-0.24.18-0.21a1.28,1.28,0,0,1-.77,1.23,0.63,0.63,0,0,1-.47-0.05C109.22,18.4,109.26,18.27,109.37,18.22Zm-1,1.88a2.6,2.6,0,0,0,1.27-.53A1,1,0,0,1,108.37,20.09Zm1.37,0a1.45,1.45,0,0,1-1.44.79A13.72,13.72,0,0,1,109.74,20Zm-1.95,1.73a8,8,0,0,0,.44.83,0.46,0.46,0,0,1-.22.06,0.45,0.45,0,0,1-.3,0l0.26-.17-0.37.05a1.08,1.08,0,0,1,.25-0.2,2.12,2.12,0,0,0-.69,0l0.49-.3H107.2l0.38-.22a1.34,1.34,0,0,0-.64.08c0.11-.19.34-0.2,0.47-0.39l-0.57.13,0,0,0.42-.28c-0.23-.05-0.4.14-0.63,0.09l0.41-.31a3.6,3.6,0,0,1-.49,0,1.42,1.42,0,0,0-.51.28,0.69,0.69,0,0,1-.44.2c-0.12-.07,0-0.13,0-0.18a8.91,8.91,0,0,1,1.11-.88,0.38,0.38,0,0,1,.65.18A9.58,9.58,0,0,1,107.79,21.77Zm-4.08-.46c-0.12-.11-0.15-0.2,0-0.26,0.16-.23.46-0.3,0.62-0.53,0.23-.07.37,0,0.3,0.23a2,2,0,0,1-.38.66C104.09,21.61,103.88,21.47,103.71,21.31Zm0.24,1.6a0.32,0.32,0,0,1-.27.19c0-.27-0.25-0.25-0.44-0.29C103.55,22.41,103.71,22.87,103.95,22.91Zm0.53-3.08a0.68,0.68,0,0,0,.6-0.41,0.63,0.63,0,0,1,.52-0.33,2.63,2.63,0,0,1,1.07-.08,1,1,0,0,1,.56,1,0.43,0.43,0,0,1-.46.27,2,2,0,0,1-.72-0.17,1.2,1.2,0,0,0-1.07.08c-0.17.09-.35,0.2-0.32-0.15A0.62,0.62,0,0,0,104.47,19.83Zm-0.2,4a1.33,1.33,0,0,0,.24-0.47,0.33,0.33,0,0,1,.28.37,0.44,0.44,0,0,1-.32.35,0.18,0.18,0,0,1-.21,0A0.14,0.14,0,0,1,104.27,23.79Zm0.44-.79a1.47,1.47,0,0,1,.38-0.19L105.31,23c0,0.11,0,.23-0.15.19A0.92,0.92,0,0,1,104.71,23Zm0.4-1.46a0.35,0.35,0,0,1-.16-0.32,0.63,0.63,0,0,1,.42-0.59,1,1,0,0,1,.74.13c0.08,0,0,.11-0.06.15-0.21.18-.43,0.36-0.65,0.53S105.24,21.62,105.11,21.53Zm-2-3.6a0.54,0.54,0,0,1,.63,0,0.62,0.62,0,0,1,.28.61c0,0.09,0,.18,0,0.26a0.4,0.4,0,0,0,.3.49,0.47,0.47,0,0,0,.57-0.24c0.12-.2-0.05-0.11-0.11-0.13h0a2.9,2.9,0,0,1,2.19-.21,1,1,0,0,1,.51.81,0,0,0,0,1-.07,0l-0.2-.35a0.59,0.59,0,0,0-.58-0.34h-0.81a1,1,0,0,0-.94.41,0.52,0.52,0,0,1-.73.12,0.47,0.47,0,0,1-.26-0.53C103.91,18.1,103.81,18,103.08,17.93Zm0.45,1.84a0.59,0.59,0,0,1,.83.26,0.15,0.15,0,0,1,0,.21,0.71,0.71,0,0,1-.58.28c-0.32.07-.32,0.07-0.32-0.26A0.61,0.61,0,0,1,103.53,19.77Zm-1.18.63a3.08,3.08,0,0,1,.37-0.23c0.2,0,.24.1,0.14,0.27a0.6,0.6,0,0,0-.24.26c-0.12.13-.18,0.14-0.29,0A0.2,0.2,0,0,1,102.35,20.4Zm-0.29,1.54c-0.1,0-.24.11-0.31,0a0.26,0.26,0,0,1,.1-0.35,0.39,0.39,0,0,0,.14-0.36c0-.24.14-0.27,0.33-0.26s0.16,0,.06.16c0.23,0.12,0,.33.07,0.44s-0.05.21-.14,0.27A0.78,0.78,0,0,1,102.06,21.94Zm0.08,0.53a0.73,0.73,0,0,1,.7-0.65,0.8,0.8,0,0,0,.48-0.25c0.21-.23.26,0,0.33,0.06a0.26,0.26,0,0,1-.11.39A3.28,3.28,0,0,1,102.14,22.47ZM116.06,24a1.88,1.88,0,0,0-1.93-.48q-2,.58-4,1.19a11.47,11.47,0,0,1-3.86.51c-1.52-.07-3-0.1-4.55-0.26a2,2,0,0,1-.55-0.14c0.65-.18,1.31-0.3,2-0.54a15.37,15.37,0,0,1-2.24-1.14,0.81,0.81,0,0,1,.51.1,1.22,1.22,0,0,0,1,.22c0.33-.08.42,0.28,0.48,0.58a1.87,1.87,0,0,1,.45-0.3c0.09,0.51.48,0.29,0.82,0.31a0.45,0.45,0,0,1-.29.16c-0.18,0-.3.09-0.2,0.34s0.21,0.19.35,0.09,0.49,0,.35-0.38a1.27,1.27,0,0,0,.47-0.27c0.27,0,.34,0,0.28.26a1.34,1.34,0,0,1-.09.22c-0.15.31-.13,0.34,0.23,0.37a0.65,0.65,0,0,0,.53-0.13,0.45,0.45,0,0,0,.21-0.52,0.42,0.42,0,0,0-.51-0.2,0.8,0.8,0,0,1-.59-0.12c0-.16,0-0.21.21-0.2,0.39,0,.79,0,1.18.05a10.34,10.34,0,0,0,3.64-.64c1-.28,1.92-0.57,2.88-0.86a0.38,0.38,0,0,1,.38,0,1,1,0,0,1-.61.24,0.58,0.58,0,0,0-.53.68,0.47,0.47,0,0,0,.27-0.34,0.17,0.17,0,0,1,.2-0.09c0.07,0,0,.12,0,0.18a0.92,0.92,0,0,1-.42.82l0.09,0.06,0.85-.27c0.1,0,.13-0.1.07-0.18a0.69,0.69,0,0,1,0-.73c0.07-.09.15-0.13,0.19,0s0.11,0.34.35,0.25a0.06,0.06,0,0,1,.08.1c-0.11.18,0,.15,0.11,0.13a5.44,5.44,0,0,1,1,.08c0.22,0,.2-0.21.3-0.32,0.07,0.12,0,.38.32,0.2s-0.07.29,0.16,0.14a6.68,6.68,0,0,0,.89,1,0.38,0.38,0,0,1,.07.27Zm0.06-.75a3.14,3.14,0,0,0,1.83-.62A1.76,1.76,0,0,1,116.13,23.21ZM116.68,21c-0.07,0-.16.07-0.2,0s0.06-.14.13-0.16a0.59,0.59,0,0,1,.73,0A1.07,1.07,0,0,0,116.68,21Zm1,1.39a0.9,0.9,0,0,1-.49-1.16A1.59,1.59,0,0,0,117.69,22.38Zm0.53,3.45-0.3,0c-0.3,0-.55-0.07-0.45-0.48,0-.1-0.09-0.26,0-0.33a0.25,0.25,0,0,1,.26.13c0.14,0.14,0,.24-0.07.34s-0.11.1,0,.17a0.11,0.11,0,0,0,.17,0,0.31,0.31,0,0,1,.47-0.08c0.06,0,.15.08,0.12,0.18A0.18,0.18,0,0,1,118.22,25.82Zm4.84-2.38a3.19,3.19,0,0,1-.52.57,0.16,0.16,0,0,1-.28,0,2.34,2.34,0,0,0-.33-0.34c-0.1-.08-0.15-0.37-0.39-0.13a0.68,0.68,0,0,1-.47-0.3c-0.08-.16.11-0.22,0.22-0.29a3.5,3.5,0,0,0,.82-4.85,2.57,2.57,0,0,0-3.67-.74,1,1,0,0,1-.55.46,2.71,2.71,0,0,0-.8,1.88c-0.08.74-.07,0.75-0.77,0.95s-0.67.2-.66-0.51a5.53,5.53,0,0,1,1.56-3.85c0.09-.1.16-0.26,0.35-0.13a0.22,0.22,0,0,0,.21-0.08,4.12,4.12,0,0,1,4.18-.08,3.4,3.4,0,0,1,1.61,1.69A5.68,5.68,0,0,1,123.06,23.44Zm11.88,1.81A22,22,0,0,1,127.18,24c-0.36-.12-0.74-0.19-1.1-0.31a2.52,2.52,0,0,0-2.14.28l-0.57.31a2.27,2.27,0,0,1,.51-0.54,0.93,0.93,0,0,1,.23-0.29,0.33,0.33,0,0,1,.26-0.1l0,0c0.13,0.26.25,0,.42,0a0.49,0.49,0,0,1-.21-0.39,1.11,1.11,0,0,0,.42.33,1,1,0,0,0,.31-0.45c-0.1.61,0.32,0.48,0.7,0.52a1.46,1.46,0,0,1-.33-0.69,0.34,0.34,0,0,1,0-.16c0.12-.13.2-0.23-0.06-0.27s-0.4,0-.44.25a0.31,0.31,0,0,1-.13.26c-0.28-.12-0.28-0.68-0.78-0.46a0.31,0.31,0,0,1,.35-0.26,3.18,3.18,0,0,1,1.43.09c1.33,0.37,2.67.74,4,1.07a26.41,26.41,0,0,0,2.9.45c0.09,0,.39-0.09.18,0.21,0,0.05.05,0.08,0.09,0.12a2,2,0,0,1,.35.68c0.07,0.14-.12.14-0.12,0.26a2.81,2.81,0,0,0,.84.08,0.83,0.83,0,0,1-.37-0.52,2.44,2.44,0,0,0,.53.19c0.12,0,.23.06,0.11,0.21s0,0.12.05,0.11a3.2,3.2,0,0,0,.86-0.06,2,2,0,0,1-.42-0.37,0.29,0.29,0,0,1,0-.34,0.23,0.23,0,0,1,.3,0,0.24,0.24,0,0,0,.26.09,0.07,0.07,0,0,0,0-.11,0.48,0.48,0,0,0-.28-0.31,0.41,0.41,0,0,1-.34-0.08,0.81,0.81,0,0,1,1,.36c0,0.15-.39.18-0.06,0.41s0.36,0.2.53,0c0,0,.08-0.09,0-0.14a0.46,0.46,0,0,1-.21-0.35,1.08,1.08,0,0,0-.17-0.36,2,2,0,0,1,.71.11,0.56,0.56,0,0,0-.19-0.33l0.65,0.13a0.36,0.36,0,0,0-.16-0.33,1.25,1.25,0,0,1,.6.15,11.13,11.13,0,0,1-1.28.8,9,9,0,0,1,2.26.55A21.41,21.41,0,0,1,134.94,25.25Z"/><path class="cls-2" d="M131,17l0-.07a0.39,0.39,0,0,0,.06.17S131,17,131,17Z"/><path class="cls-1" d="M161.77,21.32l0.25-.53c0.93-2.1,1.87-4.2,2.79-6.3a0.45,0.45,0,0,1,.5-0.33c0.95,0,1.89,0,2.84,0,0.11,0,.27-0.09.31,0.09s-0.13.16-.22,0.22c-0.27.16-.54,0.32-0.82,0.47a0.36,0.36,0,0,0-.22.37q0,4.11,0,8.22a0.39,0.39,0,0,0,.24.39c0.31,0.16.61,0.34,0.91,0.52a0.17,0.17,0,0,1,.12.18c0,0.12-.12.08-0.19,0.08h-4.57c-0.07,0-.17,0-0.21-0.06s0.07-.15.14-0.19c0.27-.16.54-0.33,0.83-0.46a0.46,0.46,0,0,0,.3-0.49c0-2.2,0-4.4,0-6.59V16.56a0.59,0.59,0,0,0-.21.32l-3.39,7.36a0.38,0.38,0,0,1-.37.32,0.41,0.41,0,0,1-.4-0.32l-3.57-7.42c-0.06-.13-0.13-0.25-0.21-0.4a0.37,0.37,0,0,0-.07.31c0,2.25,0,4.51,0,6.76a0.46,0.46,0,0,0,.27.48c0.29,0.15.57,0.32,0.85,0.48,0.08,0,.17.09,0.14,0.2s-0.13.06-.21,0.06h-2.91c-0.08,0-.2,0-0.23-0.08s0.09-.14.17-0.18c0.27-.16.54-0.33,0.83-0.46a0.48,0.48,0,0,0,.3-0.53q0-4,0-8a0.49,0.49,0,0,0-.31-0.52c-0.29-.14-0.57-0.31-0.86-0.47-0.07,0-.16-0.07-0.12-0.17a0.15,0.15,0,0,1,.17-0.06h3.45a0.3,0.3,0,0,1,.29.23l3.19,6.52Z"/><path class="cls-1" d="M161.77,31.49q0,0.62,0,1.24,0,2.15,0,4.29c0,0.14,0,.27,0,0.41a0.83,0.83,0,0,0,.75.93c0.12,0,.26,0,0.25.2s-0.18.13-.29,0.13h-2.06c-0.09,0-.22,0-0.24-0.12s0.06-.18.19-0.22a0.84,0.84,0,0,0,.72-1q0-2.38,0-4.77c0-.87,0-1.74-0.06-2.6a0.68,0.68,0,0,0-.68-0.77c-0.1,0-.17,0-0.18-0.16s0.1-.16.21-0.16h3.25a0.28,0.28,0,0,1,.27.28l1.65,4.93,0.24,0.67,0.85-2.44c0.36-1.05.73-2.1,1.09-3.16a0.34,0.34,0,0,1,.38-0.28c0.92,0,1.85,0,2.77,0,0.11,0,.27-0.07.29,0.13s-0.13.16-.25,0.18a0.67,0.67,0,0,0-.6.63,9.06,9.06,0,0,0-.06,1.28c0,2.06,0,4.12,0,6.19a3,3,0,0,0,0,.4,0.63,0.63,0,0,0,.62.63c0.11,0,.23,0,0.22.18s-0.15.13-.25,0.13h-3.89c-0.1,0-.24,0-0.25-0.14s0.12-.16.23-0.18a0.69,0.69,0,0,0,.64-0.8c0.1-1.47.05-3,.06-4.43a15.36,15.36,0,0,0-.06-1.72L167,33.27c-0.58,1.71-1.17,3.43-1.75,5.15-0.07.2-.14,0.35-0.39,0.3s-0.5.12-.64-0.28c-0.76-2.25-1.56-4.48-2.35-6.72l-0.08-.22h-0.07Z"/><path class="cls-1" d="M79,24.7H76.74c-0.08,0-.2.05-0.24-0.06s0.1-.16.18-0.21c0.29-.17.58-0.34,0.88-0.49a0.36,0.36,0,0,0,.22-0.37q0-4.13,0-8.25a0.38,0.38,0,0,0-.24-0.39c-0.31-.16-0.61-0.34-0.91-0.52a0.17,0.17,0,0,1-.14-0.17c0-.12.12-0.08,0.19-0.08h4.6c0.07,0,.17,0,0.19.08a0.16,0.16,0,0,1-.12.18c-0.31.18-.62,0.37-0.94,0.53a0.34,0.34,0,0,0-.2.35q0,1.71,0,3.41a0.21,0.21,0,0,0,.25.26h4.29C85,19,85,18.88,85,18.7q0-1.71,0-3.41a0.33,0.33,0,0,0-.2-0.35c-0.32-.16-0.63-0.35-0.94-0.53a0.16,0.16,0,0,1-.13-0.17c0-.11.12-0.08,0.2-0.08h4.56c0.08,0,.2,0,0.22.09a0.17,0.17,0,0,1-.14.16c-0.3.18-.6,0.36-0.91,0.52a0.36,0.36,0,0,0-.22.37q0,4.13,0,8.25a0.36,0.36,0,0,0,.22.36c0.31,0.16.61,0.34,0.91,0.52a0.17,0.17,0,0,1,.14.17c0,0.13-.14.09-0.22,0.09H83.92c-0.07,0-.17,0-0.2-0.08a0.16,0.16,0,0,1,.13-0.17c0.31-.18.62-0.36,0.94-0.53a0.33,0.33,0,0,0,.2-0.34q0-1.84,0-3.69a0.22,0.22,0,0,0-.27-0.27l-4.22,0a0.23,0.23,0,0,0-.29.28q0,1.84,0,3.69a0.37,0.37,0,0,0,.22.37c0.31,0.16.61,0.34,0.91,0.52,0.08,0,.17.09,0.13,0.2s-0.14.06-.21,0.06H79Z"/><path class="cls-1" d="M76.26,38.7h-2c-0.1,0-.21,0-0.21-0.14s0.09-.16.19-0.18a0.7,0.7,0,0,0,.68-0.8C75,37,75,36.52,75,36c0-1.88,0-3.76,0-5.64a4.08,4.08,0,0,0,0-.44,0.66,0.66,0,0,0-.64-0.66c-0.12,0-.23,0-0.21-0.18s0.13-.13.22-0.13h4c0.1,0,.21,0,0.22.14s-0.08.15-.19,0.17a0.69,0.69,0,0,0-.68.77c-0.07,1-.07,2.09-0.06,3.14a0.2,0.2,0,0,0,.23.24H80a0.18,0.18,0,0,0,.22-0.22c0-1.07,0-2.14-.07-3.21a0.67,0.67,0,0,0-.69-0.72c-0.12,0-.18-0.05-0.18-0.19s0.11-.12.19-0.12h4c0.1,0,.21,0,0.21.14s-0.09.15-.2,0.17a0.69,0.69,0,0,0-.67.78c0,0.63-.06,1.26-0.06,1.89,0,1.79,0,3.58,0,5.37a4,4,0,0,0,0,.44,0.65,0.65,0,0,0,.64.66c0.12,0,.23,0,0.21.19s-0.13.13-.22,0.13h-4c-0.1,0-.21,0-0.22-0.14s0.09-.16.19-0.18a0.69,0.69,0,0,0,.68-0.77c0.08-1.11.06-2.23,0.06-3.34A0.19,0.19,0,0,0,80,34H77.73a0.18,0.18,0,0,0-.22.21c0,1.14,0,2.28.07,3.41a0.66,0.66,0,0,0,.66.72c0.12,0,.22,0,0.21.19s-0.14.12-.23,0.12h-2Z"/><path class="cls-1" d="M122.59,28.93a18,18,0,0,1,2.64.1,4,4,0,0,1,3.45,3.33,7.52,7.52,0,0,1-.09,3.45,3.53,3.53,0,0,1-3.31,2.82c-1.77.16-3.54,0-5.31,0.07-0.08,0-.19,0-0.2-0.12a0.17,0.17,0,0,1,.17-0.2,0.69,0.69,0,0,0,.69-0.79c0-.32,0-0.65,0-1,0-2.13,0-4.26,0-6.39a2.32,2.32,0,0,0,0-.3,0.66,0.66,0,0,0-.66-0.68c-0.11,0-.19,0-0.19-0.17s0.12-.14.22-0.14h2.59Z"/><path class="cls-1" d="M93.61,24.7H89.45c-0.1,0-.25.07-0.29-0.09s0.12-.14.2-0.19l0.06,0a2.83,2.83,0,0,0,1-.59,2.19,2.19,0,0,0,.06-1.16c0-2.36,0-4.71,0-7.07A0.68,0.68,0,0,0,90,14.81a4.46,4.46,0,0,1-.62-0.35c-0.09-.06-0.25-0.08-0.22-0.21s0.19-.08.29-0.08h3.38c1.54,0,3.09,0,4.63,0a0.29,0.29,0,0,1,.36.33c0,0.73.1,1.46,0.15,2.19,0,0.09.06,0.21-.07,0.27s-0.18-.06-0.25-0.12c-0.43-.43-0.88-0.85-1.28-1.3a2.36,2.36,0,0,0-1.82-.81c-0.46,0-.92,0-1.39,0-0.2,0-.28,0-0.27.25q0,1.94,0,3.89c0,0.2,0,.29.26,0.27q0.74,0,1.48-.05a0.86,0.86,0,0,0,.7-0.35L96,17.85a0.25,0.25,0,0,1,.24-0.16c0.15,0,.09.16,0.09,0.25q0,1.5,0,3c0,0.09.05,0.22-.09,0.26A0.22,0.22,0,0,1,96,21.06l-0.68-1a0.88,0.88,0,0,0-.77-0.4c-0.47,0-.95,0-1.42,0a0.2,0.2,0,0,0-.26.24q0,2,0,4.06c0,0.19.07,0.22,0.24,0.22A16.09,16.09,0,0,0,95.37,24a1.84,1.84,0,0,0,1.1-.61l1.42-1.54c0.08-.08.12-0.24,0.29-0.18s0.09,0.21.09,0.33c0,0.81-.11,1.62-0.14,2.43,0,0.27-.15.25-0.33,0.25H93.61Z"/><path class="cls-1" d="M173.38,24.7h-4.16c-0.1,0-.26.07-0.29-0.08s0.13-.16.22-0.21c0.26-.16.52-0.31,0.8-0.44a0.41,0.41,0,0,0,.24-0.43q0-4.09,0-8.18a0.44,0.44,0,0,0-.27-0.45c-0.29-.15-0.57-0.32-0.85-0.48a0.17,0.17,0,0,1-.14-0.17c0-.13.14-0.09,0.22-0.09h2.27c1.93,0,3.85,0,5.78,0a0.32,0.32,0,0,1,.4.37c0,0.72.09,1.44,0.13,2.16,0,0.09.06,0.21-.07,0.27s-0.18-.06-0.25-0.13c-0.43-.43-0.88-0.85-1.28-1.3a2.38,2.38,0,0,0-1.86-.81c-0.45,0-.9,0-1.35,0-0.2,0-.27,0-0.27.25q0,2,0,3.92c0,0.2.07,0.25,0.25,0.24,0.49,0,1,0,1.49-.05a0.88,0.88,0,0,0,.72-0.37l0.7-.87a0.2,0.2,0,0,1,.22-0.11c0.1,0,.06.13,0.06,0.2q0,1.56,0,3.11c0,0.07,0,.17-0.06.2a0.19,0.19,0,0,1-.22-0.11l-0.7-1a0.92,0.92,0,0,0-.83-0.42c-0.45,0-.9,0-1.35,0-0.23,0-.29.06-0.28,0.28q0,2,0,4c0,0.18,0,.26.24,0.26a16.65,16.65,0,0,0,2.22-.14,1.73,1.73,0,0,0,1-.47c0.57-.53,1.07-1.13,1.59-1.71,0.07-.08.11-0.22,0.26-0.16s0.11,0.2.1,0.32c0,0.79-.11,1.57-0.14,2.36a0.28,0.28,0,0,1-.35.34C176.16,24.69,174.77,24.7,173.38,24.7Z"/><path class="cls-1" d="M111.94,31.89c0,1.88-.11,3.72,0,5.57a0.79,0.79,0,0,0,.77.9c0.12,0,.22,0,0.21.2s-0.15.14-.25,0.14h-2.26c-0.1,0-.24.07-0.26-0.12s0.1-.19.23-0.22a0.81,0.81,0,0,0,.78-0.9c0-2.47.08-4.93,0-7.4a0.68,0.68,0,0,0-.69-0.82,0.16,0.16,0,0,1-.16-0.17,0.15,0.15,0,0,1,.18-0.14h2.87a0.39,0.39,0,0,1,.33.25l3.59,5,0.24,0.33a0.38,0.38,0,0,0,.06-0.33q0-1.89,0-3.79a0.93,0.93,0,0,0-.86-1.18,0.16,0.16,0,0,1-.15-0.18c0-.13.09-0.14,0.19-0.14h2.43a0.14,0.14,0,0,1,.18.15,0.16,0.16,0,0,1-.13.16,1,1,0,0,0-.88,1.3q0,3.85,0,7.71c0,0.44,0,.4-0.43.45a1.42,1.42,0,0,1-1.51-.75c-1.35-2-2.77-3.86-4.17-5.78Z"/><path class="cls-1" d="M71.1,14.17c1.47,0,2.93,0,4.4,0a0.31,0.31,0,0,1,.38.33c0.07,0.82.17,1.64,0.25,2.45a0.19,0.19,0,0,1-.06.24c-0.12.07-.18,0-0.26-0.09-0.59-.6-1.19-1.2-1.78-1.8a2.06,2.06,0,0,0-1.26-.59c-0.26,0-.34,0-0.34.31,0,1.86,0,3.72,0,5.58,0,1,0,1.94,0,2.91a0.38,0.38,0,0,0,.28.42c0.39,0.16.76,0.34,1.13,0.52,0.08,0,.19.06,0.16,0.18s-0.15.08-.23,0.08H68.63c-0.07,0-.17,0-0.21-0.06s0.07-.15.15-0.18c0.38-.18.75-0.36,1.13-0.53A0.36,0.36,0,0,0,70,23.54q0-4.28,0-8.55c0-.23-0.06-0.32-0.31-0.3a2,2,0,0,0-1.34.55L66.55,17c-0.09.09-.16,0.26-0.33,0.16s-0.06-.22-0.05-0.34c0.06-.77.13-1.55,0.18-2.32a0.31,0.31,0,0,1,.38-0.36C68.19,14.18,69.65,14.17,71.1,14.17Z"/><path class="cls-1" d="M143.65,14.17c1.44,0,2.88,0,4.33,0a0.32,0.32,0,0,1,.39.35c0.07,0.81.16,1.61,0.24,2.42,0,0.1.06,0.21-.07,0.26a0.22,0.22,0,0,1-.25-0.12l-1.71-1.74a2.08,2.08,0,0,0-1.37-.64c-0.19,0-.28,0-0.28.24q0,4.33,0,8.65a0.29,0.29,0,0,0,.21.3l1.2,0.55c0.08,0,.19.06,0.16,0.18s-0.15.08-.22,0.08h-5.14c-0.08,0-.2,0-0.22-0.09s0.11-.13.18-0.17c0.38-.19.77-0.38,1.16-0.55a0.31,0.31,0,0,0,.22-0.33q0-4.31,0-8.62c0-.22-0.08-0.27-0.28-0.26a2.08,2.08,0,0,0-1.45.62L139,17.06c-0.08.08-.14,0.19-0.28,0.12s-0.07-.18-0.07-0.27c0.07-.83.14-1.66,0.2-2.49,0-.24.14-0.26,0.33-0.26h4.46Z"/><path class="cls-1" d="M87.68,38.7H84.43c-0.11,0-.27.07-0.29-0.13s0.14-.16.26-0.19a0.64,0.64,0,0,0,.6-0.69c0-.53.07-1.06,0.07-1.59,0-1.77,0-3.54,0-5.31,0-.29,0-0.58-0.06-0.88a0.66,0.66,0,0,0-.63-0.67c-0.11,0-.24,0-0.23-0.17s0.15-.14.25-0.14h6.46a0.23,0.23,0,0,1,.28.28q0,1.13,0,2.26c0,0.08,0,.16-0.11.17a0.18,0.18,0,0,1-.22-0.15,4,4,0,0,0-.28-0.83,1.89,1.89,0,0,0-1.85-1.18c-0.26,0-.52,0-0.78,0a0.25,0.25,0,0,0-.32.3c0,1.12,0,2.23,0,3.35,0,0.2.05,0.29,0.27,0.28s0.52,0,.78,0a1.26,1.26,0,0,0,1.23-1.06c0-.12,0-0.3.21-0.28s0.12,0.21.12,0.32c0,1,0,1.94,0,2.91,0,0.1.06,0.24-.13,0.26s-0.17-.11-0.2-0.21a1.45,1.45,0,0,0-1.53-1.25c-0.75-.06-0.75-0.06-0.75.68s0,1.37,0,2.06c0,0,0,.07,0,0.1a1.13,1.13,0,0,0,1.42,1.25A1.84,1.84,0,0,0,90.77,37a4.65,4.65,0,0,0,.31-0.89,0.16,0.16,0,0,1,.21-0.15c0.14,0,.1.12,0.1,0.21,0,0.75-.09,1.51-0.12,2.26a0.28,0.28,0,0,1-.35.31C89.84,38.69,88.76,38.7,87.68,38.7Z"/><path class="cls-1" d="M135.4,38.7h-2.3c-0.1,0-.24.05-0.26-0.13s0.12-.18.24-0.2a2.93,2.93,0,0,0,.43-0.09,0.59,0.59,0,0,0,.47-0.82c-0.14-.58-0.34-1.14-0.53-1.71a0.22,0.22,0,0,0-.24-0.18h-2.13a0.23,0.23,0,0,0-.25.21c-0.16.54-.34,1.07-0.46,1.62a0.73,0.73,0,0,0,.62,1c0.12,0,.26,0,0.24.19s-0.18.14-.29,0.14h-2.57c-0.1,0-.26.08-0.29-0.13s0.11-.19.23-0.22a1.53,1.53,0,0,0,1.19-1.2q0.68-2,1.35-4c0.43-1.29.87-2.58,1.28-3.88a0.38,0.38,0,0,1,.45-0.32,6.5,6.5,0,0,0,1,0,0.4,0.4,0,0,1,.47.34q1.32,3.86,2.65,7.72c0.08,0.24.17,0.49,0.28,0.72a1,1,0,0,0,.75.66,0.17,0.17,0,0,1,.18.19c0,0.16-.13.13-0.22,0.13H135.4Z"/><path class="cls-1" d="M175.23,38.7H172c-0.11,0-.3.09-0.33-0.12s0.16-.17.28-0.2a0.65,0.65,0,0,0,.57-0.66,14.71,14.71,0,0,0,.07-1.89c0-1.77,0-3.54,0-5.31,0-.19,0-0.38,0-0.57a0.65,0.65,0,0,0-.63-0.7c-0.12,0-.23,0-0.22-0.18s0.13-.13.23-0.13h6.49a0.21,0.21,0,0,1,.25.26c0,0.73,0,1.46,0,2.2,0,0.1.06,0.24-.13,0.26s-0.18-.1-0.21-0.21-0.06-.24-0.1-0.36A2,2,0,0,0,176,29.48c-0.88,0-.88,0-0.88.87s0,1.83,0,2.74c0,0.23,0,.34.3,0.31s0.47,0,.71,0a1.27,1.27,0,0,0,1.26-1.06c0-.11,0-0.31.21-0.27s0.11,0.2.11,0.3q0,1.44,0,2.87c0,0.11.09,0.29-.14,0.31s-0.16-.16-0.19-0.26A1.77,1.77,0,0,0,175.28,34a0.16,0.16,0,0,0-.11.21c0,0.91,0,1.83,0,2.74a1,1,0,0,0,1.1,1.14,1.84,1.84,0,0,0,1.89-.91,4.08,4.08,0,0,0,.43-1.1c0-.12.06-0.21,0.21-0.2s0.12,0.14.11,0.23c0,0.75-.09,1.51-0.12,2.26a0.26,0.26,0,0,1-.33.29h-3.25Z"/><path class="cls-1" d="M182.77,14a12.94,12.94,0,0,1,2.17.28,0.24,0.24,0,0,1,.23.26c0,0.72.1,1.44,0.15,2.16,0,0.08.07,0.19,0,.24a0.21,0.21,0,0,1-.26-0.11c-0.58-.62-1.14-1.25-1.74-1.84a1.45,1.45,0,0,0-1.65-.35,1.24,1.24,0,0,0-.74,1.62,3,3,0,0,0,1,1.28,9.42,9.42,0,0,0,1.5,1,6.41,6.41,0,0,1,1.83,1.31,2.91,2.91,0,0,1-.74,4.52,4.38,4.38,0,0,1-2.4.57,13.83,13.83,0,0,1-2.67-.38,0.34,0.34,0,0,1-.33-0.38c0-.73-0.09-1.46-0.14-2.19,0-.09-0.06-0.21.08-0.26a0.23,0.23,0,0,1,.25.13,23.09,23.09,0,0,0,1.77,1.85,2.28,2.28,0,0,0,1.67.6,1.41,1.41,0,0,0,1.39-1,1.66,1.66,0,0,0-.7-1.71c-0.74-.48-1.5-0.92-2.25-1.37A5.45,5.45,0,0,1,179.71,19a3,3,0,0,1,.77-4.59A4.34,4.34,0,0,1,182.77,14Z"/><path class="cls-1" d="M108.13,32.79c0-.83,0-1.67,0-2.5a0.86,0.86,0,0,0-.8-1c-0.11,0-.22,0-0.2-0.21s0.14-.12.23-0.12h2.33c0.1,0,.21,0,0.21.14s-0.08.15-.18,0.18a0.87,0.87,0,0,0-.81,1c0,1.57,0,3.13,0,4.7a5.89,5.89,0,0,1-.2,1.54,2.79,2.79,0,0,1-2.35,2.19,4.74,4.74,0,0,1-3-.35,2.57,2.57,0,0,1-1.51-2.31c0-1.4,0-2.79,0-4.19a14.33,14.33,0,0,0-.11-2,0.62,0.62,0,0,0-.64-0.68c-0.11,0-.19,0-0.18-0.18s0.13-.13.22-0.13h4c0.09,0,.21,0,0.22.13s-0.07.15-.19,0.18a0.61,0.61,0,0,0-.64.65,8.65,8.65,0,0,0-.1,1.48c0,1.62,0,3.25,0,4.87a1.58,1.58,0,0,0,1.12,1.69,1.9,1.9,0,0,0,2.47-1.28,5.51,5.51,0,0,0,.25-1.76c0-.7,0-1.4,0-2.1h0Z"/><path class="cls-1" d="M68.57,33.83c0-1.51,0-2.8,0-4.08,0-.3-0.09-0.36-0.37-0.31a2.13,2.13,0,0,0-1.64,1.32,5.73,5.73,0,0,0-.24.7c0,0.12-.08.21-0.23,0.19S66,31.51,66,31.43c0-.76,0-1.51,0-2.27,0-.29.18-0.23,0.34-0.23h6.43c0.23,0,.45,0,0.68,0a0.21,0.21,0,0,1,.25.26c0,0.74,0,1.49,0,2.23,0,0.1,0,.21-0.14.22s-0.16-.08-0.19-0.19a3.15,3.15,0,0,0-.62-1.3,2,2,0,0,0-1.36-.73c-0.19,0-.26,0-0.26.23,0,2.3,0,4.6,0,6.9,0,0.36,0,.72,0,1.08a0.7,0.7,0,0,0,.75.75c0.12,0,.31,0,0.29.18s-0.2.14-.31,0.14H67.77c-0.11,0-.27.07-0.29-0.13s0.14-.17.26-0.18a0.72,0.72,0,0,0,.78-0.82C68.62,36.24,68.56,34.92,68.57,33.83Z"/><path class="cls-1" d="M152.38,33.57q0,1.81,0,3.62a3.53,3.53,0,0,0,0,.47,0.7,0.7,0,0,0,.74.72c0.12,0,.31,0,0.29.18s-0.21.13-.32,0.13H149c-0.11,0-.3.09-0.3-0.14s0.18-.16.3-0.17a0.7,0.7,0,0,0,.73-0.76c0.1-1,0-2,.06-3,0-1.63,0-3.27,0-4.9,0-.28-0.08-0.35-0.35-0.31a2.16,2.16,0,0,0-1.7,1.39,5.81,5.81,0,0,0-.22.67,0.18,0.18,0,0,1-.19.15c-0.13,0-.13-0.09-0.13-0.19,0-.78,0-1.56,0-2.33a0.16,0.16,0,0,1,.2-0.19h0.14c2.33,0,4.67,0,7,0,0.3,0,.38.09,0.37,0.38,0,0.69,0,1.38,0,2.06,0,0.1.06,0.24-.12,0.27s-0.2-.09-0.23-0.22a3.15,3.15,0,0,0-.61-1.27,2.07,2.07,0,0,0-1.26-.72c-0.27,0-.38,0-0.37.32,0,1.27,0,2.55,0,3.82h0Z"/><path class="cls-1" d="M141.71,33.46c0.53-1.15,1.1-2.21,1.54-3.33,0.21-.53.09-0.73-0.46-0.89a0.16,0.16,0,0,1-.16-0.17c0-.16.11-0.15,0.21-0.15h2.23c0.1,0,.21,0,0.22.14s-0.07.17-.18,0.18a1.21,1.21,0,0,0-.95.78q-1,2.1-2,4.2a0.53,0.53,0,0,0-.05.23c0,1.06,0,2.12.06,3.17a0.67,0.67,0,0,0,.73.75c0.12,0,.3,0,0.29.18s-0.2.14-.31,0.14h-4.09c-0.11,0-.3.09-0.31-0.14s0.17-.16.3-0.18a0.66,0.66,0,0,0,.72-0.72c0.1-.84,0-1.69.07-2.53a2.74,2.74,0,0,0-.4-1.56c-0.62-1.14-1.2-2.29-1.8-3.44a1.27,1.27,0,0,0-1.08-.89c-0.11,0-.12-0.08-0.12-0.16a0.12,0.12,0,0,1,.14-0.14h4.16c0.11,0,.3-0.08.3,0.15s-0.16.14-.27,0.16c-0.45.09-.63,0.32-0.47,0.7C140.51,31.13,141.13,32.25,141.71,33.46Z"/><path class="cls-1" d="M185.22,30.31c0,0.35,0,.7,0,1,0,0.1.05,0.24-.12,0.28s-0.2-.1-0.24-0.22a3.18,3.18,0,0,0-.89-1.53,2,2,0,0,0-2.08-.44,1.09,1.09,0,0,0-.55,1.72,2.72,2.72,0,0,0,.93.77c0.62,0.35,1.25.67,1.86,1a3.34,3.34,0,0,1,1.59,1.86,3,3,0,0,1-2.65,3.94,6.34,6.34,0,0,1-2.3-.22,1.21,1.21,0,0,0-1,.08c-0.21.13-.31,0-0.29-0.2,0-.78.09-1.55,0.14-2.33,0-.11,0-0.2.15-0.2s0.15,0.1.17,0.2,0,0.29.08,0.43a2.22,2.22,0,0,0,2.87,1.64,1.42,1.42,0,0,0,.59-2.35,4,4,0,0,0-1-.79c-0.54-.31-1.09-0.59-1.61-0.93a2.85,2.85,0,0,1-.81-4.25,2.73,2.73,0,0,1,2-1,5.6,5.6,0,0,1,1.88.16A1.29,1.29,0,0,0,185,29c0.17-.11.23,0,0.23,0.2C185.22,29.55,185.22,29.93,185.22,30.31Z"/><path class="cls-1" d="M94.35,37.3c0-.35,0-0.7,0-1,0-.11-0.09-0.29.13-0.32s0.18,0.15.21,0.27a2.42,2.42,0,0,0,1.35,1.86,2.57,2.57,0,0,0,1.68.16,1.42,1.42,0,0,0,.64-2.36,4.64,4.64,0,0,0-1.31-.95A13.69,13.69,0,0,1,95.5,34a2.85,2.85,0,0,1,1.61-5.16A7,7,0,0,1,99,29,1,1,0,0,0,99.83,29c0.16-.1.27-0.05,0.27,0.17,0,0.76,0,1.51,0,2.27,0,0.09,0,.22-0.12.23a0.19,0.19,0,0,1-.21-0.17,3.94,3.94,0,0,0-.46-1,2.14,2.14,0,0,0-2.21-1.05,1.12,1.12,0,0,0-1,.76,1.17,1.17,0,0,0,.32,1.24,4.3,4.3,0,0,0,1.05.73,14.29,14.29,0,0,1,2.12,1.26,3,3,0,0,1,.4,4.43,3.47,3.47,0,0,1-2.76,1,7.56,7.56,0,0,1-1.6-.27,1.15,1.15,0,0,0-.91.09c-0.2.12-.34,0.09-0.33-0.2S94.36,37.68,94.35,37.3Z"/><path class="cls-1" d="M151.48,14.17h2.27c0.08,0,.2,0,0.23.07s-0.08.15-.15,0.19a5.62,5.62,0,0,1-.71.4,0.65,0.65,0,0,0-.42.73c0,2.63,0,5.25,0,7.88a0.49,0.49,0,0,0,.3.53c0.27,0.13.53,0.3,0.79,0.45,0.08,0,.21.08,0.18,0.21s-0.15.07-.23,0.07h-4.53c-0.07,0-.17,0-0.21-0.06s0.06-.15.14-0.2c0.3-.17.6-0.35,0.91-0.51a0.35,0.35,0,0,0,.21-0.37q0-4.12,0-8.25a0.38,0.38,0,0,0-.24-0.39c-0.29-.15-0.57-0.31-0.86-0.48-0.08,0-.22-0.07-0.17-0.21s0.16-.06.24-0.06h2.23Z"/><path class="cls-1" d="M157.48,38.7h-2c-0.1,0-.21,0-0.22-0.13s0.08-.16.19-0.19a0.7,0.7,0,0,0,.68-0.8c0.07-.92.06-1.85,0.06-2.77,0-1.55,0-3.11-.06-4.66a0.75,0.75,0,0,0-.72-0.91,0.15,0.15,0,0,1-.15-0.18c0-.13.11-0.13,0.2-0.13h3.89c0.1,0,.27-0.08.3,0.12s-0.15.17-.27,0.2a0.66,0.66,0,0,0-.57.58,8.1,8.1,0,0,0-.07,1.11c0,2.09,0,4.19,0,6.28,0,0.19,0,.38.05,0.57a0.62,0.62,0,0,0,.57.58c0.11,0,.27,0,0.26.18s-0.19.14-.3,0.14h-1.89Z"/><path class="cls-1" d="M133.18,17.2a0.4,0.4,0,0,0,.34.07,0.14,0.14,0,0,1,.14.11c0,0.11-.09.08-0.14,0.07a0.64,0.64,0,0,0-.57.23,1.1,1.1,0,0,1-1,.34,0.76,0.76,0,0,0-.55.11,1.83,1.83,0,0,0,1.26,0,1.18,1.18,0,0,1,.74-0.18,0.3,0.3,0,0,1,.3.2,1.73,1.73,0,0,0-1.2.33l0.79,0.07a0.2,0.2,0,0,1,.21.21c0,0.14-.13.1-0.21,0.1a2.87,2.87,0,0,0-1,.24,1.46,1.46,0,0,1-.7.11,0.76,0.76,0,0,0,.65.07,1,1,0,0,1,.63,0c0.07,0,.14,0,0.12.12s-0.08.07-.13,0.06a0.73,0.73,0,0,0-.57.16,0.43,0.43,0,0,1-.5.05c-0.08,0-.16-0.1-0.21.07a0.24,0.24,0,0,1-.3.06l-0.39-.11a1.31,1.31,0,0,1,.16-0.95c0-.13.22-0.09,0.34-0.06a4.83,4.83,0,0,0,.72.11,5.09,5.09,0,0,1-.73-0.11,0.35,0.35,0,0,1-.34-0.44c0-.66.21-0.83,0.84-0.66a0.53,0.53,0,0,0,.7-0.21C132.81,17.34,132.91,17,133.18,17.2Z"/><path class="cls-1" d="M133.18,17.2l-0.41.27a0.92,0.92,0,0,1-1,.07,1.58,1.58,0,0,0-.44-0.16,0.49,0.49,0,0,1-.47-0.44c-0.08-.31,0-0.4.31-0.42s0.56,0,.84,0a0.42,0.42,0,0,0,.43-0.21,0.69,0.69,0,0,1,.48-0.27c0.09,0.14.42,0,.38,0.23s-0.28,0-.42.08a0.3,0.3,0,0,0-.28.14,0.66,0.66,0,0,1-.66.53,0.49,0.49,0,0,1,.19.09c0.27,0.37.48,0.13,0.69-.07a0.43,0.43,0,0,1,.37-0.11c0.12,0,.29,0,0.28.17S133.27,17.17,133.18,17.2Z"/><path class="cls-3" d="M132.14,15.51c-0.15.41-.48,0.25-0.77,0.23a2.18,2.18,0,0,0,.69-0.24h0.08Z"/><path class="cls-4" d="M131.82,16.18h-0.55a0.93,0.93,0,0,1,.68-0.12Z"/><path class="cls-5" d="M119.9,18.72c0-.36,0-0.72,0-1.08s0.06-.27.27-0.25a2.07,2.07,0,0,1,1.72,1.24,5.18,5.18,0,0,1,.32,1.17c0,0.21,0,.28-0.25.27h-1.79a0.22,0.22,0,0,1-.27-0.27C119.91,19.44,119.9,19.08,119.9,18.72Z"/><path class="cls-6" d="M119,22.41l-0.23.2c-0.27.25-.32,0.24-0.52-0.07a7.29,7.29,0,0,1-.79-1.89,0.51,0.51,0,0,1,0-.48,5.38,5.38,0,0,1,2.17,0,0.55,0.55,0,0,1,0,.45c0,0.51,0,1,0,1.54,0,0.18,0,.48-0.31.15a0.09,0.09,0,0,0-.14,0c-0.22,0-.19-0.12-0.17-0.25,0.07-.35.18-0.69,0.25-1s0-.51-0.43-0.43a0.91,0.91,0,0,1-.65,0,0.19,0.19,0,0,0-.24,0,0.19,0.19,0,0,0,0,.22c0.17,0.38.37,0.74,0.53,1.13a0.26,0.26,0,0,0,.27.15C119,22.15,119.14,22.23,119,22.41Z"/><path class="cls-7" d="M117.48,20a3.31,3.31,0,0,1,.59-1.79,2,2,0,0,1,1.47-.85c0.13,0,.25,0,0.25.16,0,0.81,0,1.61,0,2.42a0.19,0.19,0,0,1-.06.08,7.18,7.18,0,0,1-1.51,0A1.22,1.22,0,0,1,117.48,20Z"/><path class="cls-8" d="M119,22.41c0-.24-0.21-0.16-0.33-0.14s-0.44.14-.23-0.23a0.18,0.18,0,0,0,0-.19,5.07,5.07,0,0,0-.63-1.18,0.19,0.19,0,0,1,0-.22,0.16,0.16,0,0,1,.18-0.07,0.22,0.22,0,0,1,.1,0,1.68,1.68,0,0,0,1.3,0c0.16,0,.3,0,0.25.27-0.11.46-.21,0.92-0.31,1.38,0,0.09-.1.19,0,0.27A0.34,0.34,0,0,1,119,22.41Z"/><path class="cls-9" d="M133,23l-0.19.14c-0.36.23-.39,0.22-0.52-0.18a4.74,4.74,0,0,0-.5-1.22,0.21,0.21,0,0,1,.07-0.34,0.25,0.25,0,0,1,.38,0,0.85,0.85,0,0,1,.28.76A0.59,0.59,0,0,0,133,23Z"/><path class="cls-10" d="M119.91,21.87c0-.49,0-1,0-1.48a0.18,0.18,0,0,1,.21-0.22c0.76,0,.76-0.05.75,0.75a0.72,0.72,0,0,0-.17.42A0.68,0.68,0,0,1,119.91,21.87Z"/><path class="cls-11" d="M119.91,21.87a0.8,0.8,0,0,0,.67-0.78c0-.18.18-0.12,0.28-0.17a0.68,0.68,0,0,0,.48,0c0.3,0.15.22,0.36,0.09,0.58a0.37,0.37,0,0,1-.13.13,0.25,0.25,0,0,1-.26,0c-0.05,0-.09-0.11-0.16,0l-0.05.07c-0.25.14,0,.23,0,0.34l-0.13.12c-0.15.16-.39,0.14-0.55,0.29a0.21,0.21,0,0,1-.27,0,0.39,0.39,0,0,0,0-.4V21.87Z"/><path class="cls-1" d="M128.88,15.52l-0.22.06a0.77,0.77,0,0,0,.88.66,0.28,0.28,0,0,1,0,.08,4.83,4.83,0,0,1-1.23-.08,0.15,0.15,0,0,1-.11-0.07c-0.09-.29-0.3-0.26-0.54-0.18,0.1-.28.46-0.14,0.53-0.4A1.43,1.43,0,0,1,128.88,15.52Z"/><path class="cls-12" d="M121.59,24.66a4.19,4.19,0,0,1-3.41-1.82,5.15,5.15,0,0,0,3.68,1.75C121.8,24.74,121.69,24.66,121.59,24.66Z"/><path class="cls-13" d="M121.33,21.52a0.89,0.89,0,0,0,0-.57,0.45,0.45,0,0,0,0-.31,0.41,0.41,0,0,1,.11-0.15,0.55,0.55,0,0,1,.44-0.07,0.14,0.14,0,0,1,0,.13l0,0,0-.05c0-.12,0-0.29.16-0.26s0,0.21.07,0.32a4.21,4.21,0,0,1-.29,1,0.33,0.33,0,0,1-.25.23A0.28,0.28,0,0,1,121.33,21.52Z"/><path class="cls-14" d="M134,21.75c-0.26,0-.2-0.17-0.12-0.28a0.55,0.55,0,0,1,.74,0c0.14,0.12.44,0.12,0.31,0.44a0.25,0.25,0,0,1-.31.21A3.29,3.29,0,0,1,134,21.75Z"/><path class="cls-15" d="M121.48,20.58c0,0.08-.08.07-0.14,0.07a0.57,0.57,0,0,1-.19-0.39,0.34,0.34,0,0,0,.11.49,1.21,1.21,0,0,0-.27.13,0.25,0.25,0,0,1-.05-0.07c0-.63,0-0.63.61-0.63h0.07c0.65,0,.68,0,0.54.71-0.14-.07-0.09-0.19-0.09-0.3a0.24,0.24,0,0,0,0-.25,0.78,0.78,0,0,0-.21.25h0V20.45C121.72,20.46,121.55,20.38,121.48,20.58Z"/><path class="cls-16" d="M124.24,18.91a5.5,5.5,0,0,1-.07,2.78A12.83,12.83,0,0,0,124.24,18.91Z"/><path class="cls-17" d="M136,22.89l-0.26.34a2.42,2.42,0,0,1,.44.23,1.73,1.73,0,0,0-.39.07,1.31,1.31,0,0,1,.36.48,3.67,3.67,0,0,1-.77-0.62c-0.09-.09,0-0.14.07-0.18l0.51-.38Z"/><path class="cls-18" d="M135.31,21.8a2.2,2.2,0,0,1-.2.83,1.07,1.07,0,0,0,.34,0,1,1,0,0,1-.64.37c-0.22.07-.18-0.15-0.22-0.25s0-.17.15-0.1,0.14-.07.19-0.13C135.1,22.3,135.16,22,135.31,21.8Z"/><path class="cls-1" d="M108.95,16.34c-0.11.1,0,.12,0.06,0.13l0.19,0c0.18,0,.25.12,0.08,0.27a1,1,0,0,0-.41-0.07,0.54,0.54,0,0,1-.23-0.65c0-.19.25-0.14,0.41-0.21l0,0.33A0.1,0.1,0,0,1,108.95,16.34Z"/><path class="cls-19" d="M120.22,12.55a0.49,0.49,0,0,1-.53.41,0.42,0.42,0,0,1-.33-0.28c-0.1-.1,0-0.16.08-0.16A2.69,2.69,0,0,1,120.22,12.55Z"/><path class="cls-20" d="M117.48,20c0.74,0.07,1.49,0,2.23,0v0.11h-2.17Z"/><path class="cls-1" d="M110.46,17.54c-0.07.15-.09,0.37-0.35,0.26a0.85,0.85,0,0,0,0-1,0.76,0.76,0,0,0-.21-0.3s-0.12-.1-0.05-0.16,0.11,0,.16.06l0.16,0.17A0.84,0.84,0,0,1,110.46,17.54Z"/><path class="cls-15" d="M122.07,20.58a0.63,0.63,0,0,1,.09.3,2.56,2.56,0,0,1-.42,1,0.31,0.31,0,0,1-.46-0.27l0.06-.07c0.13,0,.23.24,0.32,0.15a0.93,0.93,0,0,0,.29-0.64A0.4,0.4,0,0,1,122.07,20.58Z"/><path class="cls-21" d="M137.38,22.36a2,2,0,0,1-.69.76l0.25,0.21a0.71,0.71,0,0,1-.4-0.12c-0.08,0-.26-0.06-0.14-0.22s0-.34.26-0.13c0.06,0.06.14,0,.2-0.08Z"/><path class="cls-22" d="M105.57,21.67a4.35,4.35,0,0,1,1.3-.77l-0.35.29a2.47,2.47,0,0,1-.8.57C105.62,21.83,105.58,21.76,105.57,21.67Z"/><path class="cls-23" d="M117.53,24.49a6.34,6.34,0,0,0,2.35,1.1A4,4,0,0,1,117.53,24.49Z"/><path class="cls-24" d="M104.35,23.24a1.47,1.47,0,0,1-.34.58,0.29,0.29,0,0,1-.44,0c-0.15-.16,0-0.25.13-0.35A1.27,1.27,0,0,1,104.35,23.24Z"/><path class="cls-24" d="M137.16,19.83l-0.17.5c0.12,0.09.24-.08,0.38,0l-0.28.15c-0.42.24-.42,0.24-0.56-0.24a0.41,0.41,0,0,1,.21.18A1.86,1.86,0,0,1,137.16,19.83Z"/><path class="cls-25" d="M126.17,20.64A0.25,0.25,0,0,1,126,21a0.76,0.76,0,0,1-.59.17,0.19,0.19,0,0,1-.1-0.2c0-.16.11,0,0.16-0.06A1.8,1.8,0,0,0,126.17,20.64Z"/><path class="cls-26" d="M133.6,20.88A0.58,0.58,0,0,1,134,21a5.22,5.22,0,0,0-.1-0.82,1.45,1.45,0,0,1,.23.77c0.14,0.05.2-.15,0.34-0.1C134.16,21.26,134.16,21.26,133.6,20.88Z"/><path class="cls-27" d="M137.78,20.83l-0.53.26,0.42,0.17H137c-0.08,0-.17,0-0.12-0.13a1,1,0,0,1,.15-0.27c0.18,0.27.3,0,.44,0A0.36,0.36,0,0,1,137.78,20.83Z"/><path class="cls-28" d="M125.14,21a0.52,0.52,0,0,1-.59.55,0.08,0.08,0,0,1-.07-0.12c0-.09,0-0.2.17-0.21A0.48,0.48,0,0,0,125.14,21Z"/><path class="cls-29" d="M104.37,20.52c-0.08.45-.15,0.52-0.62,0.53a0.33,0.33,0,0,1,.27-0.4Z"/><path class="cls-30" d="M134,21.75c0.14,0,.22-0.2.21-0.16,0,0.31.52,0.12,0.4,0.48A0.41,0.41,0,0,1,134,21.75Z"/><path class="cls-31" d="M117.06,22a1.77,1.77,0,0,1-.85.43,0.08,0.08,0,0,1-.1-0.06,0.08,0.08,0,0,1,.05-0.11A2.64,2.64,0,0,1,117.06,22Z"/><path class="cls-32" d="M121.28,21.59a1.06,1.06,0,0,0,.46.27L121.6,22a3.4,3.4,0,0,1-.46-0.15h-0.08c-0.28.07-.32,0-0.28-0.26l0,0a0.21,0.21,0,0,1,.24-0.06Z"/><path class="cls-33" d="M127,20.06c0.28,0.33,0,.45-0.16.57s-0.36.21-.48-0.08A0.58,0.58,0,0,0,127,20.06Z"/><path class="cls-34" d="M120.19,13.81l-0.49,0c-0.11,0-.26,0-0.28-0.14a0.23,0.23,0,0,1,.23-0.23A0.58,0.58,0,0,1,120.19,13.81Z"/><path class="cls-25" d="M124.64,20.83a0.63,0.63,0,0,1,1-.15A5.79,5.79,0,0,0,124.64,20.83Z"/><path class="cls-15" d="M108.3,18.09a0.23,0.23,0,0,1-.26-0.25,0.13,0.13,0,0,1,.16-0.16,0.4,0.4,0,0,1,.39.25C108.6,18.06,108.4,18.06,108.3,18.09Z"/><path class="cls-35" d="M136.1,21.95c0.18,0.41.43,0,.64,0.09a1.37,1.37,0,0,1-.42.27c-0.05,0,.12.21-0.11,0.18S135.91,22.43,136.1,21.95Z"/><path class="cls-36" d="M122.41,19.81c-0.06-.28-0.12-0.56-0.19-0.84a4.31,4.31,0,0,0-.34-0.82A2.42,2.42,0,0,1,122.41,19.81Z"/><path class="cls-37" d="M120.17,23.42c0.37-.84.6-1.13,0.93-1.16A7.58,7.58,0,0,0,120.17,23.42Z"/><path class="cls-38" d="M128.64,15.34a5.55,5.55,0,0,1-1.29.07A1.74,1.74,0,0,1,128.64,15.34Z"/><path class="cls-39" d="M126,17.56c-0.07.64-.65,0.28-0.93,0.51C125.28,17.69,125.8,17.93,126,17.56Z"/><path class="cls-40" d="M102.87,20.43a0.29,0.29,0,0,0-.14-0.27c0.11-.1.19-0.28,0.39-0.16a0.18,0.18,0,0,1,.09.23C103.12,20.34,103.05,20.51,102.87,20.43Z"/><path class="cls-28" d="M120.77,21.61a0.23,0.23,0,0,0,.28.26,0.19,0.19,0,0,1-.19.15c-0.12,0-.31.17-0.35,0C120.5,21.9,120.45,21.56,120.77,21.61Z"/><path class="cls-41" d="M103.53,19.77a2.69,2.69,0,0,1,0,.7c0.07,0.19.19-.35,0.24,0-0.08.09-.13,0.23-0.29,0.18s-0.09-.25-0.13-0.37a0.4,0.4,0,0,0,0-.48Z"/><path class="cls-42" d="M103.68,23.1a0.21,0.21,0,0,1-.35.08,0.24,0.24,0,0,1-.08-0.36C103.58,22.71,103.7,22.79,103.68,23.1Z"/><path class="cls-18" d="M126.54,20.37a1.25,1.25,0,0,0-.73.25c-0.11-.27.09-0.32,0.26-0.36S126.44,20.06,126.54,20.37Z"/><path class="cls-3" d="M126.7,20.25a0.18,0.18,0,0,1,0-.32,0.56,0.56,0,0,1,.68-0.21A1.17,1.17,0,0,0,126.7,20.25Z"/><path class="cls-43" d="M120.41,12.87a0.61,0.61,0,0,1-.06.52,0.24,0.24,0,0,1-.26-0.16C120.05,13,120.24,13,120.41,12.87Z"/><path class="cls-21" d="M127.86,19.46c0.17,0.15.1,0.28,0,.38s-0.26.45-.58,0.19A1,1,0,0,0,127.86,19.46Z"/><path class="cls-16" d="M105.09,22.8l0-.05c0.06-.09,0-0.26.21-0.24a0.17,0.17,0,0,1,.17.17c0,0.14,0,.27-0.2.27S105.08,23,105.09,22.8Z"/><path class="cls-44" d="M119.19,12.8c0.1,0.18.33,0.27,0.18,0.48,0,0.05-.14.15-0.18,0.08A0.56,0.56,0,0,1,119.19,12.8Z"/><path class="cls-45" d="M117.88,17.8a1.52,1.52,0,0,1,.55-0.46l0.06,0.06q0.09,0,0,.1c-0.12.1-.24,0.19-0.35,0.3S118,17.92,117.88,17.8Z"/><path class="cls-16" d="M104.69,18.9c-0.3.11-.39,0.06-0.4-0.23a1.48,1.48,0,0,0-.06-0.59,0.38,0.38,0,0,1,.19.51c0,0.22,0,.35.28,0.32h0Z"/><path class="cls-24" d="M108,22.67l0.22-.06,0.32,0.28c0,0.18-.19,0-0.27.11a0.42,0.42,0,0,1-.28,0l0.25-.16A0.2,0.2,0,0,1,108,22.67Z"/><path class="cls-46" d="M130.81,21.21c-0.34,0-.42.08-0.39,0.42a0.19,0.19,0,0,1-.16-0.26,0.39,0.39,0,0,1,.27-0.31A0.2,0.2,0,0,1,130.81,21.21Z"/><path class="cls-47" d="M131.72,22.37c0.23-.1.28,0.06,0.32,0.19a0.45,0.45,0,0,1,.07.47c-0.06.07-.1,0-0.11-0.07A0.85,0.85,0,0,0,131.72,22.37Z"/><path class="cls-38" d="M120.19,13.81a2.8,2.8,0,0,1-.54-0.4C120,13.32,120.27,13.51,120.19,13.81Z"/><path class="cls-47" d="M131.24,21.57a0.33,0.33,0,0,1,.45.22,0.27,0.27,0,0,1,0,.42A0.73,0.73,0,0,0,131.24,21.57Z"/><path class="cls-48" d="M126.35,16.87c-0.26,0-.51.34-0.82,0A3.09,3.09,0,0,1,126.35,16.87Z"/><path class="cls-49" d="M126.93,18.17a0.76,0.76,0,0,1,0,.69A1,1,0,0,1,126.93,18.17Z"/><path class="cls-50" d="M126.54,15.86c0,0.07.18,0.15,0,.19s-0.24.14-.33,0a0.16,0.16,0,0,1,.07-0.23,0.68,0.68,0,0,1,.19,0Z"/><path class="cls-51" d="M119.53,22.65a1.46,1.46,0,0,1,.78-0.06A1.44,1.44,0,0,1,119.53,22.65Z"/><path class="cls-52" d="M118.75,23.9a2.3,2.3,0,0,1-1,.29l1-.39Z"/><path class="cls-53" d="M116.26,22.63l1-.38,0,0.09A3,3,0,0,1,116.26,22.63Z"/><path class="cls-54" d="M121.13,21.87c0.22-.17.33,0,0.46,0.15a0.3,0.3,0,0,1-.27.22,0.31,0.31,0,0,1-.1-0.12C121.45,21.94,121.12,22,121.13,21.87Z"/><path class="cls-33" d="M131.36,22.06a1,1,0,0,0,.37.67c-0.13,0-.26.11-0.31,0A0.63,0.63,0,0,1,131.36,22.06Z"/><path class="cls-55" d="M110.46,17.54a1.27,1.27,0,0,0-.27-1l0.06-.06a1.06,1.06,0,0,1,.33.75Z"/><path class="cls-56" d="M113.75,22.2L114,22.27c0.1,0.18.13,0.35-.14,0.44,0.12-.14.1-0.24,0-0.31A0.11,0.11,0,0,1,113.75,22.2Z"/><path class="cls-57" d="M121.15,24l-0.41-.46s-0.09-.11,0-0.16,0.12,0,.15.08l0.3,0.48Z"/><path class="cls-58" d="M101.73,20.47a2.87,2.87,0,0,1-.85-0.26A1.07,1.07,0,0,1,101.73,20.47Z"/><path class="cls-59" d="M129.85,17.61a0.26,0.26,0,0,1-.12,0,0.18,0.18,0,0,1,0-.21c0.18,0,.14-0.13.2-0.21s0.14-.25.24-0.36A2.34,2.34,0,0,1,129.85,17.61Z"/><path class="cls-60" d="M124.37,23.34a2.28,2.28,0,0,0-.26-0.8,0.7,0.7,0,0,1,.29.82Z"/><path class="cls-12" d="M129.89,15.34a0.71,0.71,0,0,1-.26.49,0.16,0.16,0,0,1-.12,0c-0.06,0,0-.1,0-0.14Z"/><path class="cls-61" d="M124,18.2l-0.43-.94A1.57,1.57,0,0,1,124,18.2Z"/><path class="cls-62" d="M120.78,14.6c0.31-.19.51-0.16,0.54,0a0.17,0.17,0,0,1,0,.12c-0.07.07-.08,0-0.11,0A0.55,0.55,0,0,0,120.78,14.6Z"/><path class="cls-63" d="M108.28,23l0.27-.11,0.26,0.16a1.78,1.78,0,0,1-.56.16C108.07,23.1,108.58,23.14,108.28,23Z"/><path class="cls-64" d="M121,24.81a3,3,0,0,1-.94.42A2.94,2.94,0,0,1,121,24.81Z"/><path class="cls-21" d="M118.25,14.78c0.32-.34.42-0.34,0.65,0A1,1,0,0,0,118.25,14.78Z"/><path class="cls-65" d="M120.34,17.12a1.29,1.29,0,0,1,.85.31Z"/><path class="cls-66" d="M119.91,22a0.44,0.44,0,0,1,.27-0.1c0.05,0,.19.12,0.08,0.14a0.76,0.76,0,0,0-.35.36V22Z"/><path class="cls-4" d="M118.49,17.5V17.4a1.81,1.81,0,0,1,.94-0.28A4.26,4.26,0,0,0,118.49,17.5Z"/><path class="cls-67" d="M119.16,23a2.25,2.25,0,0,1,.91,0A2,2,0,0,1,119.16,23Z"/><path class="cls-68" d="M121.59,24.66l0.26-.07,0.52,0A0.86,0.86,0,0,1,121.59,24.66Z"/><path class="cls-3" d="M130.28,15.62a0.63,0.63,0,0,1,.56-0.37A1.26,1.26,0,0,1,130.28,15.62Z"/><path class="cls-12" d="M120.19,22.42c-0.14-.06,0-0.11,0-0.12l0.53-.16A0.51,0.51,0,0,1,120.19,22.42Z"/><path class="cls-62" d="M126.46,21.2l0.15,0.19a2.51,2.51,0,0,0-.67.38C126,21.44,126.43,21.51,126.46,21.2Z"/><path class="cls-26" d="M109.9,17.94l-0.15.06c-0.05-.15-0.3-0.3,0-0.43A2.51,2.51,0,0,0,109.9,17.94Z"/><path class="cls-37" d="M137.91,23A1.16,1.16,0,0,1,138.5,23C138.31,23.11,138.16,23.25,137.91,23Z"/><path class="cls-17" d="M119.58,14.61c0.25-.27.39-0.25,0.55,0.05A0.58,0.58,0,0,0,119.58,14.61Z"/><path class="cls-40" d="M110.7,14.64a0.24,0.24,0,0,1,.13-0.34,0.28,0.28,0,0,1,.37.12C111,14.41,110.77,14.35,110.7,14.64Z"/><path class="cls-24" d="M108.64,22.29a0.92,0.92,0,0,1,.09-0.71A1.86,1.86,0,0,1,108.64,22.29Z"/><path class="cls-15" d="M128.68,15a1.38,1.38,0,0,1-.85.08A2.31,2.31,0,0,1,128.68,15Z"/><path class="cls-69" d="M122.39,20.79a0.89,0.89,0,0,1-.23.73Z"/><path class="cls-47" d="M135.19,20.9a1,1,0,0,1,.19-0.52s0.07-.1.13-0.06,0,0.1,0,.15Z"/><path class="cls-70" d="M115.47,19.55c0,0.29,0,.57-0.06.86A1.63,1.63,0,0,1,115.47,19.55Z"/><path class="cls-71" d="M135.27,20.22a0.7,0.7,0,0,1-.25.5A0.73,0.73,0,0,1,135.27,20.22Z"/><path class="cls-72" d="M118.93,24a1.28,1.28,0,0,1-.64.24A1.09,1.09,0,0,1,118.93,24Z"/><path class="cls-57" d="M117.49,15.18a0.21,0.21,0,0,1,.11-0.32,0.14,0.14,0,0,1,.17.06c0.05,0.07,0,.11-0.06.11A1.06,1.06,0,0,0,117.49,15.18Z"/><path class="cls-73" d="M119.16,23.24a0.94,0.94,0,0,1,.73,0h-0.73Z"/><path class="cls-74" d="M120.19,25l-0.65.27A0.77,0.77,0,0,1,120.19,25Z"/><path class="cls-75" d="M107.34,19.5h0.07a0.87,0.87,0,0,1,.1.72Z"/><path class="cls-76" d="M117.33,19.64a0.89,0.89,0,0,1,.15-0.71Z"/><path class="cls-77" d="M131.75,23.17c0,0.08,0,.12-0.09.11a0.23,0.23,0,0,1-.17-0.22,0.09,0.09,0,0,1,.11-0.1C131.74,23,131.7,23.1,131.75,23.17Z"/><path class="cls-78" d="M115.74,18.44a0.88,0.88,0,0,1,.25-0.71Z"/><path class="cls-45" d="M122.85,24l0.48-.44A1.43,1.43,0,0,1,122.85,24Z"/><path class="cls-79" d="M125.1,17.79a1.14,1.14,0,0,1,.59-0.26A1.1,1.1,0,0,1,125.1,17.79Z"/><path class="cls-40" d="M125.29,20.2a0.72,0.72,0,0,1,.32-0.48A0.73,0.73,0,0,1,125.29,20.2Z"/><path class="cls-10" d="M103.34,19.84c0.25,0,.1.22,0.13,0.33s0,0.2-.13.14V19.84Z"/><path class="cls-80" d="M118.81,22.93a0.49,0.49,0,0,1,.47-0.41Z"/><path class="cls-81" d="M120.11,22.84a2.6,2.6,0,0,1-.87,0A2.07,2.07,0,0,1,120.11,22.84Z"/><path class="cls-75" d="M119.54,25a1.34,1.34,0,0,1,.66-0.3A1.38,1.38,0,0,1,119.54,25Z"/><path class="cls-54" d="M123.59,16.22a0.45,0.45,0,0,1,0,.56Z"/><path class="cls-82" d="M116,16.64a0.17,0.17,0,0,1-.12.15c-0.11,0-.1-0.1-0.13-0.17s0.07-.09.12-0.1S116,16.57,116,16.64Z"/><path class="cls-83" d="M115.68,17.09l0.05,0,0,0,0,0Z"/><polygon class="cls-58" points="115.89 17.15 115.9 17.17 115.88 17.17 115.89 17.15"/><path class="cls-84" d="M123.23,33.31c0-1.16,0-2.32,0-3.48,0-.29.09-0.35,0.36-0.35a2,2,0,0,1,2.17,1.47,7,7,0,0,1,.42,2.55,11.56,11.56,0,0,1-.31,3.32,2.79,2.79,0,0,1-.27.65,1.37,1.37,0,0,1-1.81.55,0.9,0.9,0,0,1-.48-0.66,3.46,3.46,0,0,1-.07-0.77Q123.23,34.94,123.23,33.31Z"/><path class="cls-84" d="M132.11,31.81l1,2.87c0.05,0.16.06,0.24-.16,0.24-0.53,0-1.06,0-1.59,0-0.15,0-.23,0-0.17-0.21C131.49,33.78,131.78,32.84,132.11,31.81Z"/><path class="cls-85" d="M122,16.26a0.44,0.44,0,0,1,.24.6c-0.09.26,0,.32,0.26,0.22a0.62,0.62,0,0,1,.26,0,0.18,0.18,0,0,1,.16.19c0,0.11-.1,0-0.15.06a0.58,0.58,0,0,0-.46.45,0.1,0.1,0,0,1,0,.14,0.39,0.39,0,0,0-.06-0.08c-0.22-.18-0.22-0.32.18-0.44-0.49.06-.49,0.06-0.44-0.48a0.18,0.18,0,0,0-.18.14c0,0.3-.16.2-0.31,0.11-0.11-.26.17-0.34,0.23-0.53A0.51,0.51,0,0,1,122,16.26Z"/><path class="cls-86" d="M116.79,19.37c0,0.15.1,0.38-.23,0.22-0.13-.06-0.12.12-0.15,0.21s0,0.2.09,0.16c0.47-.18.13,0.21,0.24,0.29a0.74,0.74,0,0,0-.69,0c-0.13.08-.14-0.05-0.15-0.14s-0.07-.24.1-0.21,0.2,0,.21-0.15,0-.15-0.19-0.14-0.09-.15-0.08-0.24,0.07-.09.15,0a0.78,0.78,0,0,0,.29,0A0.26,0.26,0,0,1,116.79,19.37Z"/><path class="cls-85" d="M116.62,17.61c0,0.38.41,0.29,0.58,0.52l-0.54.24a0.24,0.24,0,0,0,.27.07,0.1,0.1,0,0,1,.16,0,0.22,0.22,0,0,1-.05.22c-0.08.09-.11,0-0.17,0a0.88,0.88,0,0,0-.7-0.15c0-.38.37-0.28,0.55-0.43-0.06-.23-0.22-0.07-0.37-0.09,0.06-.16,0-0.37.29-0.38h0Z"/><path class="cls-86" d="M123,21.12a0.64,0.64,0,0,0,.51.24c0.07,0,.2-0.09.2,0.07a0.23,0.23,0,0,1-.16.23l-0.45.15a0.39,0.39,0,0,0,.38.15c-0.05.2-.09,0.36-0.31,0.12a1.93,1.93,0,0,1-.5-0.34l0.56-.19,0,0a4.14,4.14,0,0,1-.43-0.2,0.16,0.16,0,0,1,.2-0.2h0Z"/><path class="cls-87" d="M123,21.13a0.78,0.78,0,0,1,0-.66,0.74,0.74,0,0,0,.73.1c0.12-.06.15,0,0.15,0.09s0,0.31,0,.47,0,0.14-.12.12a0.32,0.32,0,0,1-.2-0.09c0-.09.07-0.08,0.12-0.1a0.14,0.14,0,0,0,.07-0.17,0.08,0.08,0,0,0-.09-0.08c-0.15,0-.1.07-0.06,0.15a1.2,1.2,0,0,1-.52.18h0Z"/><path class="cls-8" d="M123.8,20.12a0.3,0.3,0,0,1-.21.39,0.27,0.27,0,0,1-.37-0.23c0-.06,0-0.15-0.11-0.12s-0.16.13-.19,0a0.41,0.41,0,0,1,0-.26c0.07-.11.14,0,0.22,0a0.54,0.54,0,0,0,.36,0C123.95,19.59,123.72,20,123.8,20.12Z"/><path class="cls-88" d="M123.6,18.75a3.43,3.43,0,0,1,.16.8c0.05,0.18-.05.18-0.18,0.08s-0.4-.33-0.62,0a0.42,0.42,0,0,1-.1-0.28c0-.18,0-0.28.19-0.14s0.33,0.12.18-.17c0,0,0-.11.06-0.09S123.49,18.84,123.6,18.75Z"/><path class="cls-89" d="M120.52,16.74a0.4,0.4,0,0,0-.23-0.1,0.34,0.34,0,0,1-.46-0.23,0.53,0.53,0,0,1,.1-0.59,0.39,0.39,0,0,1,.52,0h0.07a0.19,0.19,0,0,1,.16.19A2.21,2.21,0,0,1,120.52,16.74Z"/><path class="cls-89" d="M122.89,22.81a0.7,0.7,0,0,1-.35.58c0,0.05-.12,0-0.16-0.08s0-.09.07-0.11,0.18-.08.08-0.19-0.12,0-.13.06A1.26,1.26,0,0,1,122,23c-0.14-.09,0-0.19.06-0.27s0.16-.21.25-0.32a3.82,3.82,0,0,1,.58.37Z"/><path class="cls-90" d="M117.89,16.94c0.17,0.29-.07.43-0.22,0.6s-0.12,0-.17,0a0.31,0.31,0,0,1-.14-0.25c0-.09.11,0,0.17,0s0.21,0,.2-0.09-0.13-.08-0.21-0.07-0.34.13-.42-0.12,0.1-.29.23-0.39,0.16,0.15.32,0.1a0.8,0.8,0,0,0-.32.2h0.43A0.1,0.1,0,0,1,117.89,16.94Z"/><path class="cls-8" d="M122.28,17.88V17.74a3.3,3.3,0,0,0,.73-0.1,0.16,0.16,0,0,1,.18,0c0.06,0.09,0,.14-0.06.2s-0.28.29-.4,0.45-0.18.08-.24,0Z"/><path class="cls-85" d="M117.89,16.94l-0.15-.07a0.81,0.81,0,0,0,0-.13,0.45,0.45,0,0,1,.13-0.51,0.4,0.4,0,0,1,.48.08l0.09,0c0.1,0,.09.07,0,0.14s0,0.07,0,.1C118.48,17.06,118.34,17.14,117.89,16.94Z"/><path class="cls-91" d="M116.79,19.37h-0.41a0.12,0.12,0,0,0,0-.05c-0.23-.08-0.45-0.2-0.31-0.48a0.42,0.42,0,0,1,.59-0.15,0.35,0.35,0,0,1,.2.57A0.5,0.5,0,0,0,116.79,19.37Z"/><path class="cls-89" d="M120.59,16l-0.07-.18a0.34,0.34,0,0,1,.4,0c0.1,0,0,.09,0,0.15a0.76,0.76,0,0,0-.17.47,0.18,0.18,0,0,0,.1.2,0.15,0.15,0,0,0,.19-0.1,0.73,0.73,0,0,0,.15-0.37c-0.06-.43.12-0.24,0.28-0.12a0.18,0.18,0,0,1,0,.21,1.13,1.13,0,0,1-.34.53h-0.38a0.3,0.3,0,0,1-.19-0.37A3.25,3.25,0,0,0,120.59,16Z"/><path class="cls-91" d="M118.78,16.25c0-.13-0.17-0.26,0-0.35a1,1,0,0,1,.68-0.15c0.14,0,.08.21,0.07,0.33S119.39,16,119.34,16a0.17,0.17,0,0,0-.12,0,0.08,0.08,0,0,0,0,.11,1.49,1.49,0,0,0,.14.44c0,0.06.14,0.11,0,.19a0.31,0.31,0,0,1-.29.06c-0.12,0,0-.12,0-0.18a0.39,0.39,0,0,0,0-.29c0-.08,0-0.21-0.09-0.23S118.88,16.18,118.78,16.25Z"/><path class="cls-50" d="M122.34,22.34a1.19,1.19,0,0,1,.21-0.36,0.13,0.13,0,0,1,.08,0c0.12,0.23.45,0.21,0.54,0.41a0.34,0.34,0,0,1-.28.45h0A1.34,1.34,0,0,1,122.34,22.34Z"/><path class="cls-8" d="M122.63,18.51a1.12,1.12,0,0,0,.69-0.28s0.08-.06.11,0a0.6,0.6,0,0,1,.08.18c0,0.06,0,.11-0.08.1a1,1,0,0,0-.42.11c-0.12,0-.19.11,0,0.2s0.15,0,.11.12a0.27,0.27,0,0,1-.14.08,0.11,0.11,0,0,1-.16-0.07A1.43,1.43,0,0,1,122.63,18.51Z"/><path class="cls-88" d="M121.33,16.18l0.14-.13a0.47,0.47,0,0,1,.39.2,1.48,1.48,0,0,1-.19.42c-0.14.1-.14,0.38-0.4,0.34-0.08-.07-0.22-0.08-0.2-0.22h0A0.6,0.6,0,0,0,121.33,16.18Z"/><path class="cls-89" d="M118.5,16.47l0-.14c-0.22-.24-0.18-0.37.16-0.39a1,1,0,0,0,.24.71,0.08,0.08,0,0,1,0,.14,0.53,0.53,0,0,1-.19.06c-0.08,0-.1,0-0.08-0.11A0.29,0.29,0,0,0,118.5,16.47Z"/><path class="cls-92" d="M116.62,17.62a0.19,0.19,0,0,1,.06-0.33c0.14-.08.1,0.09,0.15,0.15a0.71,0.71,0,0,0,.44.26c0.06,0,.14,0,0.14.07a0.22,0.22,0,0,1-.13.22,0.15,0.15,0,0,1-.15-0.1,0.42,0.42,0,0,0-.52-0.28h0Z"/><path class="cls-93" d="M122.36,24L121.57,23l0.07-.07,0.83,0.89Z"/><path class="cls-7" d="M122.34,22.34c0.15,0.27.4,0.07,0.64,0.14-0.25.08-.24,0.2-0.09,0.33a0.68,0.68,0,0,1-.61-0.42Z"/><path class="cls-39" d="M121.27,17c0.1,0,.12,0,0.13-0.14a0.25,0.25,0,0,1,.2-0.29,0.14,0.14,0,0,1,.21.07,2.92,2.92,0,0,1-.35.47Z"/><path class="cls-7" d="M121.81,16.66l-0.21-.07c0-.21.13-0.25,0.25-0.34l0.12,0s-0.11.07-.06,0.13S121.93,16.6,121.81,16.66Z"/><path class="cls-94" d="M120.59,16a0.23,0.23,0,0,1,0,.27,0.55,0.55,0,0,0,.12.55,0.19,0.19,0,0,1-.21,0A1.29,1.29,0,0,1,120.59,16Z"/><path class="cls-95" d="M117.25,17.41c0,0.1,0,.12-0.12.13S117,17.44,117,17.36s0.06-.09.12-0.11S117.22,17.33,117.25,17.41Z"/><path class="cls-1" d="M111.91,22.67a0.81,0.81,0,0,1-.07.47c-0.15,0-.14-0.27-0.35-0.15a0.36,0.36,0,0,0-.17.33,0.9,0.9,0,0,0,.27-0.1c-0.06.16,0.07,0.43-.29,0.4-0.08,0-.12.15-0.09,0.23s0.13,0,.2,0a1.29,1.29,0,0,0,.36-0.36c0.08,0.29,0,.47-0.27.55a5,5,0,0,1-1,.24,1.37,1.37,0,0,0,.38-0.8,0.29,0.29,0,0,0,0-.19c-0.28-.33.05-0.28,0.2-0.34Z"/><path class="cls-1" d="M107,24.9a1,1,0,0,0,.58-0.7,0.16,0.16,0,0,0,0-.1c-0.06-.25-0.06-0.24.21-0.28l0.83-.13a0.84,0.84,0,0,1-.1.39c-0.17-.12-0.32-0.23-0.48,0s-0.09.13,0,.18a0.62,0.62,0,0,0,.35-0.1c-0.13.11,0,.43-0.31,0.27a0.12,0.12,0,0,0-.17.11,0.34,0.34,0,0,0,0,.18,0.2,0.2,0,0,0,.22,0,1.8,1.8,0,0,1,.39-0.25C108.39,24.91,107.86,25.1,107,24.9Z"/><path class="cls-1" d="M109.52,23.51a2,2,0,0,0-.25.78c0,0.1,0,.18.08,0.22a0.15,0.15,0,0,0,.2-0.08,0.86,0.86,0,0,0,.13-0.89c-0.07-.09,0-0.12.08-0.15a2.2,2.2,0,0,1,.52-0.15,2.06,2.06,0,0,0-.45,1.06,0.63,0.63,0,0,1-.79.4,0.37,0.37,0,0,1-.2-0.44c0-.17.31-0.38-0.06-0.51-0.05,0,0-.1.06-0.12A1.55,1.55,0,0,1,109.52,23.51Z"/><path class="cls-1" d="M106.2,25a1,1,0,0,0,.36-1c0-.1.06-0.1,0.13-0.1h0.59a1.18,1.18,0,0,0-.35,1c0,0.08,0,.1-0.09.1H106.2Z"/><path class="cls-96" d="M110.35,24.06c-0.24-.16-0.12-0.3,0-0.44s0.11-.09.15,0S110.42,23.91,110.35,24.06Z"/><path class="cls-1" d="M131.23,24.76a2.09,2.09,0,0,1-.65-0.06,1.78,1.78,0,0,0-.44-1.28,3.43,3.43,0,0,1,1.36.39c0.13,0.1.29,0.22,0.08,0.4s0,0.1,0,.15L132.08,25a0.63,0.63,0,0,1-.59-0.22s-0.06-.1-0.09-0.14-0.22-.37-0.36-0.27S131.15,24.6,131.23,24.76Z"/><path class="cls-1" d="M127,22.64c0.59,0,.71.53,1.07,0.84a0.81,0.81,0,0,0-.22-0.63L128.49,23c-0.35.24-.1,0.5-0.08,0.75s0.18,0.35,0,.43-0.28-.13-0.39-0.25l-0.54-.58a0.55,0.55,0,0,0,.18.57,0.84,0.84,0,0,1-.49-0.15c-0.06,0-.05-0.07,0-0.14A1.08,1.08,0,0,0,127,22.64Z"/><path class="cls-1" d="M128.74,23.14a2.53,2.53,0,0,1,1.21.42,0.76,0.76,0,0,1,.29.65c0,0.31-.27.34-0.49,0.32a4.32,4.32,0,0,1-.69-0.16c-0.06,0-.13,0-0.09-0.11A1,1,0,0,0,128.74,23.14Z"/><path class="cls-1" d="M132.82,25a0.92,0.92,0,0,1-.93-1,0.26,0.26,0,0,1,.19-0.25,0.85,0.85,0,0,1,.82.17,1,1,0,0,1,.32.81A0.33,0.33,0,0,1,132.82,25Z"/><path class="cls-1" d="M127,23.24c0,0.37-.17.49-0.52,0.37a0.88,0.88,0,0,1-.5-1,0.43,0.43,0,0,1,.65-0.19A0.84,0.84,0,0,1,127,23.24Z"/><path class="cls-92" d="M128.71,23.55a0.38,0.38,0,0,1,.19.33c0,0.07,0,.19-0.11.18a0.34,0.34,0,0,1-.25-0.28A0.23,0.23,0,0,1,128.71,23.55Z"/><path class="cls-1" d="M108.95,16.34l0.07-.14,0.65-.34c0.06,0,.13-0.06.17,0a0.11,0.11,0,0,1,0,.14,0.51,0.51,0,0,0-.13.15C109.52,16.6,109.24,16.48,108.95,16.34Z"/><path class="cls-22" d="M127.73,16.59c0.43,0.24.43,0.24,1.14,0a0.38,0.38,0,0,1-.32.38A0.73,0.73,0,0,1,127.73,16.59Z"/><path class="cls-22" d="M120.92,19.26a1,1,0,0,1,.41-0.89c0-.05.12-0.07,0.13,0a1.52,1.52,0,0,0,.38.46,0.39,0.39,0,0,1-.19.6,0.29,0.29,0,0,1-.47-0.12,0.08,0.08,0,0,0-.1-0.06c-0.11,0-.09.11-0.09,0.19s-0.15.08-.19,0S120.83,19.28,120.92,19.26Z"/><path class="cls-88" d="M120.7,17.9c0,0.1-.05.2,0,0.17a0.19,0.19,0,0,1,.3.14,0.43,0.43,0,0,1-.15.37,0.3,0.3,0,0,1-.46.09c-0.13-.15-0.42-0.16-0.38-0.45a0.25,0.25,0,0,1,.17-0.29,0.2,0.2,0,0,0,.15-0.12c0-.1.08-0.26,0.2-0.23A0.33,0.33,0,0,1,120.7,17.9Z"/><path class="cls-86" d="M120.92,19.26c-0.1.1-.08,0.16,0.06,0.17,0.18,0.28-.14.37-0.25,0.5a0.4,0.4,0,0,1-.47-0.14,0.43,0.43,0,0,1-.22-0.42,4.24,4.24,0,0,1,.42-0.53c0-.07.14,0,0.15,0.06A0.64,0.64,0,0,0,120.92,19.26Z"/><path class="cls-11" d="M119.63,17.67a1.46,1.46,0,0,0,0,.73,7,7,0,0,1,0,1c0,0.52,0,.52-0.53.41a0.72,0.72,0,0,1,.13-0.22l0-.08a1.19,1.19,0,0,0-.2-1,0.21,0.21,0,0,1,0-.09c0-.12,0-0.25.07-0.37a3.38,3.38,0,0,1,.32-0.37C119.48,17.67,119.53,17.59,119.63,17.67Z"/><path class="cls-88" d="M119.12,18.5c0.31,0,.23.33,0.3,0.47a0.63,0.63,0,0,1-.08.72h0c0,0.15-.15.13-0.25,0.15a0.44,0.44,0,0,1-.46,0,0.31,0.31,0,0,1,0-.08,0.89,0.89,0,0,0,.09-0.29,2.62,2.62,0,0,1,.11-0.42,0.35,0.35,0,0,0,.1-0.38A0.19,0.19,0,0,1,119.12,18.5Z"/><path class="cls-97" d="M117.88,19.36c0-.09-0.23-0.21,0-0.28a0.09,0.09,0,0,0,0-.08c-0.17-.34.14-0.25,0.28-0.32a0.27,0.27,0,0,1,.48-0.07l0,0.34a0.33,0.33,0,0,1,0,.29,0.21,0.21,0,0,1-.28.1,0.26,0.26,0,0,0-.31.11A0.21,0.21,0,0,1,117.88,19.36Z"/><path class="cls-98" d="M117.88,19.36h0.25a0.72,0.72,0,0,1,.56,0c0.19,0.15,0,.31,0,0.47h-0.07a1.64,1.64,0,0,1-.8,0c-0.17,0,0-.23-0.12-0.35S117.79,19.39,117.88,19.36Z"/><path class="cls-99" d="M118.7,18.62l-0.48.07a1.24,1.24,0,0,0-.16-0.14c0.15-.1.08-0.42,0.35-0.35a0.28,0.28,0,0,0,.25-0.09L118.44,18a0.15,0.15,0,0,1,0-.05c0.12,0,.25,0,0.27.16A1.47,1.47,0,0,1,118.7,18.62Z"/><path class="cls-32" d="M119.63,17.67a0.16,0.16,0,0,0-.14.13c0,0.25-.17.28-0.33,0.34a0.47,0.47,0,0,1-.39-0.33,7.11,7.11,0,0,0,.74-0.24C119.6,17.53,119.64,17.59,119.63,17.67Z"/><path class="cls-11" d="M119.12,18.5l-0.08.17c0,0.16.1,0.34-.14,0.41,0,0.14.12,0.3-.05,0.42a0.48,0.48,0,0,1,0-.55l0-.74c0.27-.11.19,0.15,0.25,0.25Z"/><path class="cls-85" d="M119.09,18.46c-0.13,0-.12-0.21-0.25-0.25l-0.06-.4a1.21,1.21,0,0,1,.39.33C119.28,18.29,119.15,18.37,119.09,18.46Z"/><path class="cls-51" d="M118.82,19l0,0.55a0.4,0.4,0,0,1-.14.33c-0.1-.12.07-0.27,0-0.39a0.31,0.31,0,0,1,0-.22,0.34,0.34,0,0,1,.05-0.27h0.09Z"/><path class="cls-29" d="M118.56,21.67c-0.14-.25-0.28-0.49-0.41-0.73s-0.06-.23.14-0.17a0.65,0.65,0,0,0,.59-0.06,0.18,0.18,0,0,1,.24,0c0.05,0.07,0,.16-0.08.2A3.93,3.93,0,0,1,118.56,21.67Z"/><path class="cls-100" d="M119.36,21.05a2.43,2.43,0,0,1-.32.7,0.24,0.24,0,0,1-.16-0.16,1.71,1.71,0,0,1,.28-0.54A0.15,0.15,0,0,1,119.36,21.05Z"/><path class="cls-44" d="M118.88,21.59L119,21.75c0,0.31-.12.4-0.41,0.37A1.76,1.76,0,0,1,118.88,21.59Z"/><path class="cls-46" d="M119.36,21.05h-0.2l0.26-.58A1,1,0,0,1,119.36,21.05Z"/><path class="cls-1" d="M105.87,23.89a4.59,4.59,0,0,0-1-.06l-0.07.12c0.13,0,.25,0,0.15.21a0.93,0.93,0,0,1-.62.66,4,4,0,0,0,1.29.08,0.74,0.74,0,0,0,.5-0.32A0.41,0.41,0,0,0,105.87,23.89Zm0,0.44a0.52,0.52,0,0,1-.66.36c0.1-.2.19-0.37,0.27-0.54a0.21,0.21,0,0,1,.31-0.1A0.19,0.19,0,0,1,105.83,24.33Z"/><path class="cls-22" d="M120.73,20.48a0.34,0.34,0,0,1-.38.43c-0.07,0-.33.1-0.26-0.1s-0.27-.46.12-0.43C120.36,20.39,120.66,20.06,120.73,20.48Z"/><path class="cls-101" d="M120.05,21.58c0.2-.16-0.22-0.5.17-0.57a0.21,0.21,0,0,1,.22.17C120.53,21.5,120.2,21.45,120.05,21.58Z"/><path class="cls-102" d="M121,21.53a0.19,0.19,0,0,1-.24.06v0a0.33,0.33,0,0,1,0-.37,0.13,0.13,0,0,1,.18,0A0.37,0.37,0,0,1,121,21.53Z"/><path class="cls-103" d="M128.69,16a0.47,0.47,0,0,1-.09.11,0.22,0.22,0,0,1-.25,0,0.13,0.13,0,0,1-.07-0.14,0.17,0.17,0,0,1,.06-0.06c0.09,0.19.15,0.09,0.24,0S128.67,15.89,128.69,16Z"/><path class="cls-2" d="M121.48,20.58c0-.07-0.12-0.2,0-0.22a0.35,0.35,0,0,1,.42.09C121.72,20.46,121.67,20.71,121.48,20.58Z"/><path class="cls-104" d="M121.86,20.58l0,0.64a0.38,0.38,0,0,1,0-.63h0Z"/><path class="cls-105" d="M104.13,23.44a0.79,0.79,0,0,1-.31.29s-0.1.06-.14,0a0.11,0.11,0,0,1,0-.15A0.83,0.83,0,0,1,104.13,23.44Z"/><path class="cls-18" d="M120.35,16.18c0,0.14,0,.28-0.19.27S120,16.3,120,16.18a0.25,0.25,0,0,1,.2-0.3C120.38,15.89,120.32,16.07,120.35,16.18Z"/><path class="cls-17" d="M118.31,16.62c0,0.12,0,.2-0.16.18a0.27,0.27,0,0,1-.24-0.28,0.16,0.16,0,0,1,.14-0.2A0.32,0.32,0,0,1,118.31,16.62Z"/><path class="cls-25" d="M116.68,19a0.16,0.16,0,0,1-.2.17,0.23,0.23,0,0,1-.27-0.19,0.21,0.21,0,0,1,.25-0.17A0.19,0.19,0,0,1,116.68,19Z"/><path class="cls-17" d="M121.33,16.18c0.09,0,.23,0,0.17.09a0.66,0.66,0,0,1-.45.53A2.43,2.43,0,0,0,121.33,16.18Z"/><path class="cls-106" d="M130.83,23.75c0.2,0,.4,0,0.46.22a0.09,0.09,0,0,1-.09.11A0.31,0.31,0,0,1,130.83,23.75Z"/><path class="cls-10" d="M129.86,24.07a0.24,0.24,0,0,1-.14.27c-0.15,0-.16-0.12-0.19-0.22s-0.08-.3-0.11-0.45-0.06-.14,0-0.17a0.23,0.23,0,0,1,.18.05A0.63,0.63,0,0,1,129.86,24.07Z"/><path class="cls-10" d="M132.85,24.69c0,0.1,0,.16-0.09.17a0.22,0.22,0,0,1-.23-0.1,2.33,2.33,0,0,1-.22-0.66,0.1,0.1,0,0,1,.06-0.13,0.19,0.19,0,0,1,.21.07A2.65,2.65,0,0,1,132.85,24.69Z"/><path class="cls-107" d="M126.29,22.81a0.23,0.23,0,0,1,.16-0.26c0.11,0,.15.07,0.18,0.16s0.09,0.32.13,0.49,0.05,0.19-.06.23a0.19,0.19,0,0,1-.24-0.14C126.38,23.13,126.33,23,126.29,22.81Z"/><path class="cls-52" d="M121.42,19.07a0.59,0.59,0,0,1,0-.6A0.67,0.67,0,0,1,121.42,19.07Z"/><path class="cls-100" d="M120.54,19.56a0.52,0.52,0,0,1,0-.53A0.44,0.44,0,0,1,120.54,19.56Z"/><path class="cls-24" d="M119.35,19.69a0.83,0.83,0,0,1-.45.07c0.07-.15.29-0.16,0.21-0.37,0.07,0.13.29,0.12,0.24,0.31h0Z"/><path class="cls-100" d="M118.9,19.08c0-.16.17-0.25,0.14-0.41a0.48,0.48,0,0,1,.09.13C119.19,19,119.23,19.19,118.9,19.08Z"/><path class="cls-108" d="M118.68,19.23a0.2,0.2,0,0,1,0,.22l-0.54-.07C118.24,19,118.5,19.28,118.68,19.23Z"/></svg>