<svg id="Layer_1" data-name="Layer 1" xmlns="http://www.w3.org/2000/svg" viewBox="0 0 251 64"><defs><style>.cls-1{fill:#fff;}</style></defs><title>LD_website logo</title><path class="cls-1" d="M80.84,19.2a0.46,0.46,0,0,0-.21.48c0.73,0,1.48-.76,2.23-0.09a1.13,1.13,0,0,1,.31,1.06,4.27,4.27,0,0,1-.3,1.05,0.26,0.26,0,0,1-.33.21,0.23,0.23,0,0,1-.17-0.35,2.35,2.35,0,0,0,.39-1.47,0.62,0.62,0,0,0-.58-0.46,5.44,5.44,0,0,0-1.49.55v1.36H80.15V20.18C79.59,20,79,19.37,78.32,19.8a0.87,0.87,0,0,0-.26.9,5.08,5.08,0,0,0,.36.86,0.24,0.24,0,0,1-.09.33,0.3,0.3,0,0,1-.31,0,2.18,2.18,0,0,1-.17-2.07,1.17,1.17,0,0,1,.89-0.47,11.58,11.58,0,0,1,1.49.34A0.39,0.39,0,0,0,80,19.2a0.69,0.69,0,0,1,.41-0.65,0.67,0.67,0,0,1,.42.65"/><path class="cls-1" d="M82.49,22.14a0.21,0.21,0,0,1,.06.27h0a13.58,13.58,0,0,0-4.24,0,0.21,0.21,0,0,1,.17-0.3,6.77,6.77,0,0,1,4,0"/><path class="cls-1" d="M89.61,22.79c0,0.06.18,0.46-.21,0.51-0.66,0-.42-0.68-1.15-0.81-0.94-.13-1.27,1-1.69,1.59-0.6,1.06-1.38,2.5-2.79,2.59a1.69,1.69,0,0,1-1.19-.38,0.21,0.21,0,0,1,.17-0.3,2,2,0,0,1,.56.3,1.13,1.13,0,0,0,1-.16c1-1,1.41-2.31,2.43-3.37a2.12,2.12,0,0,1,2-.55,1.22,1.22,0,0,1,.81.6"/><path class="cls-1" d="M76.54,26.1c0.25,0.24,1.24.19,1,.54-0.53.3-1.46,0-2.34-1.26-0.64-.94-1.46-2.54-2.08-2.85a0.92,0.92,0,0,0-.73.08c-0.38.21-.43,1-1,0.64a0.36,0.36,0,0,1,0-.47,1.72,1.72,0,0,1,1.92-.56c1.16,0.26,1.66,1.63,2.3,2.57a3.29,3.29,0,0,0,1,1.3"/><path class="cls-1" d="M85.09,22.74a1.86,1.86,0,0,1,.13,1.36,0.24,0.24,0,0,1-.13.3A0.44,0.44,0,0,1,84.84,24c-0.08-.47,0-1.13-0.43-1.32a0.36,0.36,0,0,0-.38,0c-0.34.25,0.13,1-.51,0.81-0.2-.09-0.09-0.47,0-0.64a0.89,0.89,0,0,1,.68-0.47,1,1,0,0,1,.9.3"/><path class="cls-1" d="M77.38,22.87a0.68,0.68,0,0,1,.09.64,0.21,0.21,0,0,1-.34,0c-0.21-.26,0-0.85-0.38-0.89-0.89-.09-0.3,1.32-0.89,1.75-0.25,0,0-.42-0.17-0.81a1,1,0,0,1,.08-0.77,0.9,0.9,0,0,1,.61-0.35,1,1,0,0,1,1,.39"/><path class="cls-1" d="M82.54,22.83a0.13,0.13,0,0,1,0,.21,23.25,23.25,0,0,1-4.22,0c-0.09,0,0-.17,0-0.21a8.35,8.35,0,0,1,4.08,0Z"/><path class="cls-1" d="M80.83,23.55a4,4,0,0,1,1.28,1.15c0.1,0.14-.11.37-0.33,0.22a8.89,8.89,0,0,1-.87-0.77,0.93,0.93,0,0,0-1.11.21L79,24.91a0.27,0.27,0,0,1-.39-0.12c-0.14-.23.42-0.54,0.73-0.73s1.18-.71,1.49-0.51"/><path class="cls-1" d="M88.8,24.56a0.9,0.9,0,0,1,.51,1.13,0.73,0.73,0,0,1-.47.47,0.37,0.37,0,0,1-.34-0.2c-0.15-.39.68-0.51,0.41-1a0.38,0.38,0,0,0-.58-0.1c-0.68.51-1.26,1.59-2.21,1.11l0-.05c0-.19.33,0,0.55-0.16,0.68-.43,1.2-1.53,2.13-1.19Z"/><path class="cls-1" d="M74.83,25.85l0,0a0.49,0.49,0,0,1-.54.19c-1.1,0-1.21-1.51-2.19-1.17a0.37,0.37,0,0,0-.21.55,1.15,1.15,0,0,1,.55.43,0.37,0.37,0,0,1-.38.3,0.73,0.73,0,0,1-.47-0.47A1,1,0,0,1,71.72,25a1.12,1.12,0,0,1,1.23-.3c0.68,0.26,1.07,1.28,1.88,1.19"/><path class="cls-1" d="M80.93,26.35l-0.35.17-1.46.7L78,26.36a0.21,0.21,0,0,1,0-.26c0.11-.13.19-0.12,0.38,0l0.79,0.6L80.7,26a0.23,0.23,0,0,1,.23.37"/><path class="cls-1" d="M86.61,26.81a0.22,0.22,0,0,1-.28.26A0.53,0.53,0,0,1,86,26.83a0.21,0.21,0,0,1,.17-0.34,0.53,0.53,0,0,1,.49.33"/><path class="cls-1" d="M75,26.75a0.41,0.41,0,0,1-.41.4A0.18,0.18,0,0,1,74.4,27a0.43,0.43,0,0,1,.31-0.47,0.23,0.23,0,0,1,.33.17"/><path class="cls-1" d="M82.41,26.75a2.15,2.15,0,0,0-.33,1.51c0.28,0.85,1.14.72,0.95,1.27a1.37,1.37,0,0,1-.93.13c-1.24-.09-2,1.67-3.18,1.13l-0.6-.3H75.16v2.9a2.16,2.16,0,0,1,.68,1.79,0.36,0.36,0,0,1-.34.34c-0.38,0-1,.14-1.11-0.34s0-.9-0.43-1a0.45,0.45,0,0,0-.49,0,0.61,0.61,0,0,1-.32.47c-0.89.13-1-.9-1.4-1.36A0.32,0.32,0,0,1,71.59,33,0.28,0.28,0,0,1,72,32.88c0.47,0.38.47,1,.94,1.36,0.39,0,.14-0.44.44-0.49a1.45,1.45,0,0,1,1.1.23,2.37,2.37,0,0,1,.34,1.07,0.53,0.53,0,0,0,.58.13c0.19-.08.16-0.28,0-0.81-0.22-1-1.87-1-2.55-2a0.81,0.81,0,0,1-.21-0.81,1.14,1.14,0,0,1,.6-0.3c0.12-.17-0.42-0.75-0.3-0.89a5.15,5.15,0,0,0,2.22-2.26c0.13-.3-0.38-0.51-0.34-0.68l0.43-.38c0.21,0,.24.49,0.37,0.4l0.18-.23a0.85,0.85,0,0,1,.77.47,1,1,0,0,1,.21,1c-0.26.2-.2,0.3,0,0.47a0.65,0.65,0,0,0-.43.34A0.65,0.65,0,0,1,76,29c-0.09-.34.42-0.36,0.34-0.7a0.7,0.7,0,0,0-.51-0.57c-0.3.34-.43,0.85-0.72,1.28a4.86,4.86,0,0,1-1.7,1.53c-0.1.12,0.37,0.83,0.26,1s-0.77,0-.64.38a3.07,3.07,0,0,0,1.58,1.16V30.07h1.62a0.56,0.56,0,0,0,.6.24c0.27,0,.34-0.24.55-0.24a1.48,1.48,0,0,0,1.06-.21,1.07,1.07,0,0,0,.75.54c0.94,0.08,1.89-1.53,3.2-1.13a1.51,1.51,0,0,1-.7-1.88,1.56,1.56,0,0,1,.59-0.76s0.22-.14.13,0.13"/><path class="cls-1" d="M90.33,27.09a3.19,3.19,0,0,1,1.7.17,1.69,1.69,0,0,0,.38.81,0.83,0.83,0,0,1,.78.3,1.17,1.17,0,0,1-.05,1,1.45,1.45,0,0,1-.43.45,2.67,2.67,0,0,1,.07,1.33,1.74,1.74,0,0,0-.35.12,2.44,2.44,0,0,1-.18,1.59c-0.3.25-.64-0.24-0.73,0a7.85,7.85,0,0,0,1.58,4.36,1.29,1.29,0,0,0,1.49.47A1,1,0,0,0,95.06,37c0-1.45-1.66-2.22-2-3.54a1.68,1.68,0,0,1,.38-1.66,1.89,1.89,0,0,1,1.83-.3,0.54,0.54,0,0,1,.43.53,0.38,0.38,0,0,1-.3.45,0.48,0.48,0,0,1-.6-0.21,0.43,0.43,0,0,0-.43-0.34,0.91,0.91,0,0,0-.72.34,1.72,1.72,0,0,0,.3,1.87c0.72,1.11,2.26,2.21,1.36,3.62a1.31,1.31,0,0,1-.95.57,1.92,1.92,0,0,1-1.61-.74A1.8,1.8,0,0,0,93,39.4c0.64,0.87,1.54,2.12,1.19,2.81-0.21.25-.72-0.21-0.68,0.34v2c0,0.47-.64.32-0.94,0.3a0.29,0.29,0,0,1-.11-0.4c0.13-.17.55,0.06,0.58-0.16,0.09-.68,0-1.4.09-2.13a0.36,0.36,0,0,1,.34-0.3c0.13,0,.3.09,0.34-0.08-0.26-1.45-2-2.34-1.57-4l0.21-.64a8.66,8.66,0,0,1-1.32-4.43,0.4,0.4,0,0,1,.21-0.38,4.2,4.2,0,0,0,.69.12A3.29,3.29,0,0,0,91.95,31c0-.3.55,0,0.51-0.34l-0.21-1a1.18,1.18,0,0,0,.6-0.68,0.39,0.39,0,0,0-.34-0.55A0.57,0.57,0,0,1,91.82,28c0-.21-0.05-0.45-0.38-0.47a5.11,5.11,0,0,0-1.15,0,0.64,0.64,0,0,0-.6-0.34,0.92,0.92,0,0,0-.47.72l0,0.47c-0.28.25-1,.53-0.89,0.81s0.42,0.21.34,0.47-0.35.09-.59-0.06A0.49,0.49,0,0,1,88,28.9a1.81,1.81,0,0,1,.88-0.71,1.32,1.32,0,0,1,.21-1.06,1.13,1.13,0,0,1,.6-0.43,0.74,0.74,0,0,1,.64.38"/><path class="cls-1" d="M71.85,27.17a1.45,1.45,0,0,1,.26,1.11A1.53,1.53,0,0,1,73,29c0.25,0.45-.3.59-0.51,0.68a0.16,0.16,0,0,1-.21-0.13c0-.26.49-0.21,0.32-0.52a2.21,2.21,0,0,0-.87-0.67,1,1,0,0,0-.17-1A0.38,0.38,0,0,0,71,27.26c-0.36.58-1,.16-1.5,0.25s-0.21.85-.88,0.91a0.5,0.5,0,0,0-.5.3,0.79,0.79,0,0,0,.37.77c0.53,0.21.24,0.59,0.12,1-0.06.19-.13,0.36,0,0.4S69,30.77,69,31a2.86,2.86,0,0,0,0,1.46c0.17,0.07.45-.36,0.68-0.11a1.51,1.51,0,0,1,.08,1,7.53,7.53,0,0,1-.73,2.6l-0.55,1.24a2.66,2.66,0,0,1-.09,2.34c-0.43.77-1.36,1.72-1.28,2.3,0,0.17.66-.19,0.68,0.26,0,0.73,0,1.49.08,2.21,0,0.21.55-.08,0.6,0.26s0,0.3-.26.3-0.8.1-.81-0.38l0-2.09c-0.07-.34-0.55.17-0.68-0.21-0.3-1.79,2.14-2.72,1.42-4.56L68,37.79a1.52,1.52,0,0,1-1.72.44A1.4,1.4,0,0,1,65.35,37c0-1.66,2.11-2.5,2.06-4.17a0.79,0.79,0,0,0-.47-0.72,0.64,0.64,0,0,0-.68,0,1.7,1.7,0,0,1-.5.51,0.44,0.44,0,0,1-.56-0.3,0.61,0.61,0,0,1,.29-0.68,2.09,2.09,0,0,1,1.87.13,1.59,1.59,0,0,1,.42,1.75c-0.25,1.19-1.62,2-1.92,3.11a1.08,1.08,0,0,0,.17.89,0.92,0.92,0,0,0,.77.34,2.3,2.3,0,0,0,1.64-1.49,8,8,0,0,0,1-3.29c0.1-.51-0.61.21-0.74-0.16a3,3,0,0,1-.1-1.68c-0.17,0-.5,0-0.5-0.28s0.22-.84.17-1.06a1.72,1.72,0,0,1-.6-0.9,0.73,0.73,0,0,1,.15-0.69c0.3-.26.91,0,0.92-0.55a0.63,0.63,0,0,1,.47-0.6c0.47-.09,1.18.12,1.36,0a1,1,0,0,1,.55-0.38,0.88,0.88,0,0,1,.72.43"/><path class="cls-1" d="M81,27.3l-0.48.27-1.08.59a0.57,0.57,0,0,1,.09.73,2,2,0,0,1-.6.72,0.24,0.24,0,0,1-.3-0.19c0.08-.34.7-0.68,0.47-1l-1-1a0.19,0.19,0,0,1,0-.26c0.11-.11.2-0.1,0.34,0.05l0.68,0.54L80.7,27c0.39-.21.5,0.22,0.33,0.34"/><path class="cls-1" d="M86.16,27.43c0.08,0.19-.65.41-0.3,0.89a5.64,5.64,0,0,0,2.13,2c0.22,0.13-.29.6-0.29,1,0.21,0.1.7,0.09,0.71,0.38,0.23,1.65-3.37,1.61-2.83,3.38a0.33,0.33,0,0,0,.51.05,3.11,3.11,0,0,0,.25-0.92,1.25,1.25,0,0,1,1.28-.51c0.3,0,.1.64,0.47,0.51a6.42,6.42,0,0,1,1-1.36,0.22,0.22,0,0,1,.3.13,2,2,0,0,1-.46.79,1.46,1.46,0,0,1-.69.83,0.52,0.52,0,0,1-.55,0,1.29,1.29,0,0,0-.34-0.47,0.63,0.63,0,0,0-.64.3c-0.17.38,0,1.07-.56,1.18a0.8,0.8,0,0,1-.86-0.18,1.61,1.61,0,0,1,.51-1.93v-3H81.13A0.84,0.84,0,0,1,81.81,30h1.83a0.69,0.69,0,0,0,.72.26A0.54,0.54,0,0,0,84.71,30h1.62v3.09l0,0a3.66,3.66,0,0,0,1.54-.93c0.39-.53-0.39-0.43-0.6-0.56s0.17-.64.21-1a5.68,5.68,0,0,1-2.38-2.81c-0.21-.21-0.49.23-0.55,0.43a0.45,0.45,0,0,0,.21.51C84.92,28.79,85,28.88,85,29s-0.16.52-.35,0.41S84,29.32,84.25,29s-0.11-.3-0.13-0.66a1.24,1.24,0,0,1,.5-0.89,0.71,0.71,0,0,1,.64-0.26l0.13,0.17c0.13-.08.21-0.43,0.43-0.25Z"/><path class="cls-1" d="M90.37,28.73a0.27,0.27,0,0,1-.08.3l-0.41-.29a0.32,0.32,0,0,1-.06-0.47,0.94,0.94,0,0,1,.55.46"/><path class="cls-1" d="M71.16,28.58a4.27,4.27,0,0,0-.43.43c-0.09,0-.13-0.13-0.13-0.13a0.62,0.62,0,0,1,.54-0.55c0.08,0,.05.21,0,0.25"/><path class="cls-1" d="M91.92,29.15a0.28,0.28,0,0,1-.28.27s-0.21,0-.39-0.05a1.75,1.75,0,0,0-.31,0A0.3,0.3,0,0,1,91.23,29a7,7,0,0,1,.69.15"/><path class="cls-1" d="M69.93,29.22c0.08,0.26-.26,0-0.38.13a0.29,0.29,0,0,1-.4,0l-0.07,0c0.22-.17.64-0.43,0.85-0.09"/><path class="cls-1" d="M84.41,29.82a0.21,0.21,0,0,1-.26.25,0.47,0.47,0,0,1-.39-0.34,0.24,0.24,0,0,1,.18-0.25,0.42,0.42,0,0,1,.47.34"/><path class="cls-1" d="M77.17,29.69a0.5,0.5,0,0,1-.38.38c-0.13,0-.3,0-0.3-0.17a0.45,0.45,0,0,1,.34-0.38,0.22,0.22,0,0,1,.34.17"/><path class="cls-1" d="M90.29,29.86c0.13,0.13.4-.23,0.47,0.08-0.13.08-.34,0.13-0.22,0.31a1.17,1.17,0,0,0,.38.21,0.3,0.3,0,0,1-.43,0l-0.37-.33a0.62,0.62,0,0,1-.7-0.23l0,0a1.11,1.11,0,0,0,.44.06c0.06-.07,0-0.31.2-0.31Z"/><path class="cls-1" d="M71,29.77C71,29.86,70.86,30,71,30a2.09,2.09,0,0,1,.48-0.06,0.68,0.68,0,0,1-.77.21,0.67,0.67,0,0,1-.69.42s0,0,0,0a0.87,0.87,0,0,0,.47-0.34c0-.13-0.38-0.08-0.21-0.3,0.13,0,.34.17,0.47,0s0.21-.3.21,0"/><path class="cls-1" d="M90,30.71c0.11-.08.3-0.21,0.34,0a0.26,0.26,0,0,1-.21.26,0.65,0.65,0,0,1-.55-0.21,0.31,0.31,0,0,1,0-.38c0.34-.17,0,0.43.43,0.34"/><path class="cls-1" d="M71.38,30.54A0.42,0.42,0,0,1,71,31a0.4,0.4,0,0,1-.47-0.17c0-.08,0-0.13.08-0.13s0.31,0.16.44,0a0.44,0.44,0,0,1,.12-0.28c0.13,0,.17.08,0.17,0.17"/><path class="cls-1" d="M89,30.71a0.27,0.27,0,0,1-.21.34,0.32,0.32,0,0,1-.34-0.26,0.32,0.32,0,0,1,.21-0.34,0.33,0.33,0,0,1,.34.25"/><path class="cls-1" d="M85.3,31a0.76,0.76,0,0,1-.77.81,0.7,0.7,0,0,1,.26-0.6A0.78,0.78,0,0,1,85.3,31"/><path class="cls-1" d="M76.27,31.35l0.17,0.42a0.73,0.73,0,0,1-.64-0.26A0.78,0.78,0,0,1,75.59,31a0.82,0.82,0,0,1,.68.34"/><path class="cls-1" d="M84.37,31.26a0.27,0.27,0,0,1-.09.25,0.34,0.34,0,0,0-.21-0.21,0.16,0.16,0,0,1-.17-0.09c0-.25.43-0.17,0.47,0"/><path class="cls-1" d="M77,31.22a1.17,1.17,0,0,0-.34.3c-0.13,0-.13-0.13-0.13-0.17a0.29,0.29,0,0,1,.17-0.26,0.26,0.26,0,0,1,.3.13"/><path class="cls-1" d="M90.29,31.56c0.11,0.07,0,.23,0,0.25a1.39,1.39,0,0,1-1.19-.3,0.21,0.21,0,0,1,0-.3,0.85,0.85,0,0,1,.59.23,2.21,2.21,0,0,1,.56.11"/><path class="cls-1" d="M71.93,31.39c0.06,0.26-.3.34-0.51,0.43a0.82,0.82,0,0,1-.76.07,0.23,0.23,0,0,1,0-.28,4.11,4.11,0,0,1,.91-0.37c0.2-.05.3,0,0.34,0.16"/><rect class="cls-1" x="77.64" y="31.35" width="5.67" height="0.25"/><path class="cls-1" d="M91.31,31.56a0.33,0.33,0,0,1-.26.38,0.37,0.37,0,0,1-.34-0.26A0.32,0.32,0,0,1,91,31.35a0.34,0.34,0,0,1,.34.21"/><path class="cls-1" d="M85.26,32.2a0.23,0.23,0,0,1-.13.25,0.88,0.88,0,0,0-.34-0.34A0.19,0.19,0,0,1,84.92,32a0.32,0.32,0,0,1,.34.21"/><path class="cls-1" d="M76.15,32.11a1.64,1.64,0,0,0-.38.38,0.33,0.33,0,0,1,0-.34,0.26,0.26,0,0,1,.42,0"/><polygon class="cls-1" points="76.36 35.69 76.11 35.69 76.11 32.97 76.36 32.97 76.36 35.69"/><rect class="cls-1" x="84.58" y="32.97" width="0.25" height="2.73"/><path class="cls-1" d="M89.22,34.07c0.34,1,1.66,1.62,1.87,2.68,0,0.94-1,1.41-.89,2.34A8.39,8.39,0,0,1,91,41.22c0.38,0,.58-0.74.72-0.8s0.43,0.25.61,0.53a2.76,2.76,0,0,1,.15,2.33L92,44.16c0,0.21.06,0.65-.2,0.69a0.27,0.27,0,0,1-.31-0.14A1.41,1.41,0,0,1,91.52,44a3.51,3.51,0,0,0,.64-2.17,1.51,1.51,0,0,0-.34-0.64,1.45,1.45,0,0,1-1.19.55,3.13,3.13,0,0,1-.26-1.06c-0.21-.81-1-1.53-0.51-2.43,0.3-.6,1.15-1.19.51-1.92A6.7,6.7,0,0,1,89,34.58c0-.21,0-0.55.26-0.51"/><path class="cls-1" d="M72,34.33c0,0.9-1,1.41-1.49,2.13s0.89,1.49.77,2.51a8.18,8.18,0,0,1-.65,1.68l-0.29,1c-0.15.23-.64-0.08-0.94-0.34-0.09,0-.16-0.25-0.29-0.12A2,2,0,0,0,68.82,43c0.13,0.42.59,0.8,0.64,1.11a0.81,0.81,0,0,1-.17.81c-0.51,0-.17-0.6-0.34-0.85a2.81,2.81,0,0,1-.62-2.21,2,2,0,0,1,.79-1.32,0.77,0.77,0,0,1,.46.46c0.14,0.11.37,0.35,0.36,0.18l0.31-.91c0.23-.58.91-1.24,0.31-1.95-0.43-.59-1-1.3-0.54-2a9.2,9.2,0,0,0,1.61-2.11c0.17-.21.34,0,0.34,0.17"/><path class="cls-1" d="M89.78,36.2c0.13,0,.3,0,0.3.21a0.2,0.2,0,0,1-.21.21c-0.6-.13-1.07-0.51-1.62-0.68a0.61,0.61,0,0,0-.64.38l-0.68,1.36c0.17,0.21.64,0,.64,0.34,0,1.18-.17,2.3-1.24,2.77a1.07,1.07,0,0,0-.64,1,0.26,0.26,0,0,1-.3,0,0.77,0.77,0,0,1-.09-0.68c0.3-.73,1.24-0.68,1.53-1.45a2.63,2.63,0,0,0,.3-1.53c-0.17-.13-0.6,0-0.6-0.38a4.42,4.42,0,0,1,.9-1.87,0.92,0.92,0,0,1,.64-0.43,8.33,8.33,0,0,1,1.7.68"/><path class="cls-1" d="M73.48,36l0.83,1.44a0.47,0.47,0,0,1,0,.56l-0.5.17a2.12,2.12,0,0,0,.55,2c0.47,0.51,1.49.68,1.24,1.54a0.2,0.2,0,0,1-.13.21c-0.43,0-.19-0.57-0.38-0.68-0.51-.51-1.19-0.64-1.51-1.45A4,4,0,0,1,73.35,38c0.13-.21.68-0.08,0.57-0.35l-0.74-1.4A0.46,0.46,0,0,0,72.54,36a6.41,6.41,0,0,1-1.46.68c-0.21,0-.36-0.22-0.22-0.32l0.28-.12a10.88,10.88,0,0,0,1.48-.7,0.7,0.7,0,0,1,.85.47"/><path class="cls-1" d="M86.37,36.29a7.48,7.48,0,0,1-3.7,6.64,6.75,6.75,0,0,1-2.25,1C77.9,43,75,40.63,74.66,37.78a6.45,6.45,0,0,1,0-1.83l0.55,0.13a7,7,0,0,0,3.62,6.39,9.72,9.72,0,0,0,1.66.77c2.39-.81,4.85-3,5.24-5.58a6.51,6.51,0,0,0,.08-1.57,5.14,5.14,0,0,1,.55-0.13Z"/><path class="cls-1" d="M84.71,36.24a0.25,0.25,0,0,1-.21.3l-0.13,0c0.18-.18,0-0.41.13-0.54a0.23,0.23,0,0,1,.21.21"/><path class="cls-1" d="M76.49,36.07a0.58,0.58,0,0,0,0,.47c-0.08.09-.17,0-0.26-0.08a0.26,0.26,0,0,1,0-.34,0.22,0.22,0,0,1,.21,0"/><path class="cls-1" d="M85.48,37.05a0.77,0.77,0,0,1-.64.13,1,1,0,0,1-.47-0.26,0.45,0.45,0,0,1,.38-0.21,0.76,0.76,0,0,1,.73.34"/><path class="cls-1" d="M76.57,36.93a0.84,0.84,0,0,1-.68.3,0.49,0.49,0,0,1-.43-0.17,0.69,0.69,0,0,1,.51-0.3,0.72,0.72,0,0,1,.6.17"/><path class="cls-1" d="M77.47,32.26v6.45s0,0.73.25,0.73,0.23-.75.23-0.75h0.86a0.91,0.91,0,0,0,.27.8c0.27,0,.23-0.8.23-0.8h0.87a1.11,1.11,0,0,0,.25.81,1.06,1.06,0,0,0,.24-0.81h0.88a1,1,0,0,0,.26.79A1.08,1.08,0,0,0,82,38.7h0.84a0.93,0.93,0,0,0,.26.79,1,1,0,0,0,.24-0.76V32.26h-5.9ZM78,34.17h0.86v1.06H78V34.17Zm0.86,4H78v-1h0.86v1Zm0-1.47H78V35.65h0.86v1.07Zm0-3H78v-1h0.86v1Zm0.49-1h0.87v1H79.3v-1Zm0,1.49h0.87v1.06H79.3V34.17Zm0,1.49h0.87v1.07H79.3V35.65Zm0.87,2.54H79.3V37.14h0.87v1.05Zm1.38,0H80.66V37.14h0.88v1.05Zm0-1.47H80.67V35.65h0.88v1.07Zm0-1.5H80.66V34.17h0.88v1.06Zm0-1.5H80.67v-1h0.88v1Zm0.49-1h0.84v1H82v-1Zm0,1.49h0.84v1.06H82V34.17Zm0,2.55V35.65h0.84v1.07H82Zm0.84,1.47H82V37.14h0.85v1.05Z"/><path class="cls-1" d="M84.56,37.55a0.25,0.25,0,0,1-.19.27c-0.1,0-.17,0-0.17-0.08a0.43,0.43,0,0,0,.13-0.43,0.3,0.3,0,0,1,.24.25"/><path class="cls-1" d="M76.62,37.56a0.49,0.49,0,0,1,.13.26,0.28,0.28,0,0,1-.3-0.08,0.26,0.26,0,0,1,0-.34c0.17-.17.21,0,0.17,0.17"/><path class="cls-1" d="M89.69,37.61a0.19,0.19,0,0,1,0,.26,1.22,1.22,0,0,0-1,.34,1.75,1.75,0,0,0,.13,1.7c0,0.15-.13.21-0.26,0.17a0.76,0.76,0,0,1-.38-0.55,1.72,1.72,0,0,1,.26-1.75,1.19,1.19,0,0,1,1.28-.17"/><path class="cls-1" d="M72.61,37.86a1.82,1.82,0,0,1,.17,1.75c-0.08.2-.18,0.61-0.57,0.53L72.11,40c-0.1-.24.71-1.39,0.1-1.88-0.33-.34-1,0.16-1-0.46,0-.26.92-0.24,1.36,0.21"/><path class="cls-1" d="M84.75,38.16a4.59,4.59,0,0,1-1.7,2.6,1.23,1.23,0,0,1-.68.38,0.13,0.13,0,0,1-.09-0.21,5.5,5.5,0,0,0,2.22-2.81Z"/><path class="cls-1" d="M78.61,40.92a0.12,0.12,0,1,1-.08.22,5.08,5.08,0,0,1-2.36-2.9l0.27-.13a5.61,5.61,0,0,0,2.17,2.8"/><path class="cls-1" d="M88.15,40.21a0.46,0.46,0,0,1-.29.38c-0.34.43-.34,1.11-0.94,1.28a0.85,0.85,0,0,1-.6,0,0.26,0.26,0,0,1,0-.3,0.78,0.78,0,0,1,.55-0.09c0.51-.34.39-1.1,1-1.4,0.14,0,.29-0.07.34,0.18"/><path class="cls-1" d="M73.83,41.26c0.18,0.39,1-.08.83,0.57a1.14,1.14,0,0,1-.71,0c-0.68-.26-0.53-1.06-1.12-1.4-0.11-.08-0.09-0.34.08-0.34,0.68,0,.65.69,0.92,1.18"/><path class="cls-1" d="M81.68,40.79a0.39,0.39,0,0,1-.31.39A0.4,0.4,0,0,1,81,40.92s-0.12-.27,0-0.17,0.57-.17.7,0"/><path class="cls-1" d="M80,40.74a0.35,0.35,0,0,1-.25.4A0.37,0.37,0,0,1,79.3,41a0.27,0.27,0,0,1,0-.26,6.49,6.49,0,0,0,.68,0"/><path class="cls-1" d="M80.41,42.29a1,1,0,0,1,0-1.53,1,1,0,0,1,0,1.53"/><path class="cls-1" d="M69.6,31.64a0.31,0.31,0,1,1,.31.31,0.32,0.32,0,0,1-.31-0.31"/><path class="cls-1" d="M71.94,30.78a0.3,0.3,0,1,1,.3.3,0.3,0.3,0,0,1-.3-0.3"/><path class="cls-1" d="M78.12,25.46a0.3,0.3,0,1,1,.3.3,0.3,0.3,0,0,1-.3-0.3"/><path class="cls-1" d="M79.09,25.49a0.3,0.3,0,1,1,.3.3,0.3,0.3,0,0,1-.3-0.3"/><path class="cls-1" d="M80,25.48a0.3,0.3,0,1,1,.3.3,0.3,0.3,0,0,1-.3-0.3"/><path class="cls-1" d="M81,25.49a0.3,0.3,0,1,1,.3.3,0.3,0.3,0,0,1-.3-0.3"/><path class="cls-1" d="M82,25.49a0.3,0.3,0,1,1,.3.3,0.3,0.3,0,0,1-.3-0.3"/><polygon class="cls-1" points="79.21 20.36 78.73 20.92 79.21 21.49 79.7 20.92 79.21 20.36"/><polygon class="cls-1" points="81.64 20.36 81.16 20.92 81.64 21.49 82.13 20.92 81.64 20.36"/><path class="cls-1" d="M88.35,30.74a0.33,0.33,0,1,1,.33.33,0.33,0.33,0,0,1-.33-0.33"/><path class="cls-1" d="M90.69,31.64A0.33,0.33,0,1,1,91,32a0.33,0.33,0,0,1-.33-0.33"/><path class="cls-1" d="M61.28,15.34v35h130v-35h-130ZM98.42,49.27H62.31V16.37h36.1V49.27Zm91.84,0H99.45V16.37h90.8v32.9Z"/><polygon class="cls-1" points="106.99 22.68 109.42 22.68 110.87 27.09 112.24 22.68 114.68 22.68 114.86 29.3 113.24 29.3 113.09 23.97 111.39 29.3 109.82 29.3 108.13 24.17 107.87 29.3 106.69 29.3 106.99 22.68"/><polygon class="cls-1" points="118.17 28.15 121.09 28.15 121.09 29.3 116.57 29.3 116.57 22.68 120.89 22.68 120.89 23.79 118.17 23.79 118.17 25.35 120.43 25.35 120.43 26.4 118.17 26.4 118.17 28.15"/><polygon class="cls-1" points="154.98 29.3 154.98 22.68 156.58 22.68 156.58 28.16 159.19 28.15 159.19 29.3 154.98 29.3"/><rect class="cls-1" x="157.85" y="25.16" width="6.62" height="1.67" transform="translate(135 187.13) rotate(-89.94)"/><polygon class="cls-1" points="166.62 29.3 164.99 29.3 164.99 23.79 163.19 23.79 163.19 22.68 168.4 22.68 168.4 23.79 166.62 23.79 166.62 29.3"/><polygon class="cls-1" points="176.12 22.7 177.88 22.7 180.61 27.67 180.61 22.68 181.9 22.68 181.9 29.3 179.77 29.3 177.38 24.95 177.39 29.3 176.12 29.3 176.12 22.7"/><path class="cls-1" d="M132.91,28.31a2.68,2.68,0,0,0-1.32-2l0.11,0a1.66,1.66,0,0,0,1.14-1.34,2.15,2.15,0,0,0,0-1,1.69,1.69,0,0,0-1.61-1.25H128V29.3h1.61v-2.5h0.76a0.77,0.77,0,0,1,.66.6,7.93,7.93,0,0,1,.47,1.89h1.61A5.31,5.31,0,0,0,132.91,28.31Zm-1.84-2.9a2,2,0,0,1-1.51.32V23.67c0.29,0,.54,0,0.88,0a0.77,0.77,0,0,1,.8.63A1.47,1.47,0,0,1,131.07,25.42Z"/><path class="cls-1" d="M161.24,37.22A3.09,3.09,0,0,0,158,36.5,1.92,1.92,0,0,0,156.63,38a2.86,2.86,0,0,0,.83,2.94A3.72,3.72,0,0,0,161,41l0.38-.2,0.56,1.49a5.43,5.43,0,0,1-2,.64,8.68,8.68,0,0,1-2.56-.06,4.39,4.39,0,0,1-3.14-2,4.35,4.35,0,0,1,.11-4,4.1,4.1,0,0,1,2.68-2,8.34,8.34,0,0,1,2.62-.1,6.86,6.86,0,0,1,2.22.68Z"/><polygon class="cls-1" points="142.42 34.84 142.42 40.87 146.42 40.87 146.42 42.48 139.67 42.48 139.67 34.84 142.42 34.84"/><rect class="cls-1" x="148.64" y="34.84" width="2.73" height="7.63"/><polygon class="cls-1" points="171.25 34.84 171.25 36.26 171.25 36.27 167.22 36.27 167.22 37.87 170.26 37.87 170.26 39.24 167.22 39.24 167.22 40.87 171.56 40.87 171.56 42.48 164.53 42.48 164.53 34.84 171.25 34.84"/><path class="cls-1" d="M125.93,36.8c-0.2-1.25-1.57-1.81-2.7-2.07l-0.79-.1a16.87,16.87,0,0,0-1.93,0c-1,0-2.64.24-2.64,0.24v7.63h2.71V40.25a9.55,9.55,0,0,0,3.08-.16,3.29,3.29,0,0,0,1.11-.5A2.56,2.56,0,0,0,125.93,36.8Zm-3.56,1.79a1.81,1.81,0,0,1-1.81,0V36.2a2,2,0,0,1,1.84,0,1.07,1.07,0,0,1,.61,1.06A1.34,1.34,0,0,1,122.37,38.6Z"/><path class="cls-1" d="M172.53,22.68H170.4l-2.2,6.62h1.65l0.52-1.53h2.18l0.52,1.53h1.65Zm-1.85,4,0.77-2.51,0.76,2.51h-1.53Z"/><polygon class="cls-1" points="125.19 29.31 123.57 29.31 123.57 23.8 121.76 23.8 121.76 22.69 126.97 22.69 126.97 23.8 125.19 23.8 125.19 29.31"/><path class="cls-1" d="M146.54,24.92c0-1.51-.58-2.24-2-2.24h-2.8V29.3h1.61V27h0C145.7,27.1,146.54,26.12,146.54,24.92Zm-1.78.57a1.81,1.81,0,0,1-1.45.35V23.66c0.29,0,.41,0,0.73,0a0.94,0.94,0,0,1,.91.65A1.23,1.23,0,0,1,144.76,25.49Z"/><polygon class="cls-1" points="137.19 22.61 137.19 22.61 137.19 22.61 137.19 22.61"/><path class="cls-1" d="M134.22,26s0,0,0,0,0,0,0,0V26Z"/><polygon class="cls-1" points="137.19 29.37 137.19 29.37 137.19 29.37 137.19 29.37"/><path class="cls-1" d="M137.19,22.61a2.62,2.62,0,0,0-2.43,1.24,4.53,4.53,0,0,0,0,4.27,3,3,0,0,0,4.87,0,4.53,4.53,0,0,0,0-4.27A2.63,2.63,0,0,0,137.19,22.61ZM138.52,26V26a5.25,5.25,0,0,1,0,.82,1.42,1.42,0,0,1-1.31,1.43h0a1.42,1.42,0,0,1-1.31-1.43,5.11,5.11,0,0,1,0-.82v0a5.11,5.11,0,0,1,0-.82,1.42,1.42,0,0,1,1.31-1.43h0a1.42,1.42,0,0,1,1.31,1.43,5.24,5.24,0,0,1,0,.82V26Z"/><path class="cls-1" d="M140.16,25.94s0,0,0,.05,0,0,0,.05v-0.1Z"/><polygon class="cls-1" points="150.47 22.6 150.48 22.6 150.48 22.6 150.47 22.6"/><path class="cls-1" d="M147.51,26s0,0,0,0,0,0,0,0V26Z"/><path class="cls-1" d="M153.45,25.93s0,0,0,0,0,0,0,0v-0.1Z"/><path class="cls-1" d="M150.48,22.6A2.63,2.63,0,0,0,148,23.84a4.54,4.54,0,0,0,0,4.27,3,3,0,0,0,4.87,0,4.53,4.53,0,0,0,0-4.27A2.63,2.63,0,0,0,150.48,22.6ZM151.81,26s0,0,0,0a5,5,0,0,1,0,.82,1.42,1.42,0,0,1-1.31,1.43h0a1.42,1.42,0,0,1-1.31-1.43,5.11,5.11,0,0,1,0-.82v0a5.14,5.14,0,0,1,0-.82,1.42,1.42,0,0,1,1.31-1.43h0a1.42,1.42,0,0,1,1.31,1.43,5,5,0,0,1,0,.82s0,0,0,0V26Z"/><polygon class="cls-1" points="150.48 29.36 150.48 29.36 150.47 29.36 150.48 29.36"/><path class="cls-1" d="M137.27,38.13a5.13,5.13,0,0,0-.28-0.91,4.35,4.35,0,0,0-3.38-2.4,6.61,6.61,0,0,0-1-.08h0a6.49,6.49,0,0,0-1,.09,4.34,4.34,0,0,0-3.38,2.39,5.11,5.11,0,0,0-.28.91c0,0.18,0,.41,0,0.59V39c0,0.17,0,.43,0,0.61a5.14,5.14,0,0,0,.28.91,4.34,4.34,0,0,0,3.38,2.4,6.33,6.33,0,0,0,1,.09h0a6.92,6.92,0,0,0,1-.09,4.35,4.35,0,0,0,3.38-2.4,5.05,5.05,0,0,0,.28-0.91c0-.17,0-0.41,0-0.58V38.7A5.58,5.58,0,0,0,137.27,38.13ZM134.6,39c0,0.29-.16,2.3-2,2.31h0c-1.85,0-2-2-2-2.34V38.73c0-.29.18-2.3,2-2.31h0c1.85,0,2,2,2,2.33V39Z"/></svg>