<svg id="Layer_1" data-name="Layer 1" xmlns="http://www.w3.org/2000/svg" viewBox="0 0 298 55"><defs><style>.cls-1,.cls-2{fill:#fff;}.cls-1{fill-rule:evenodd;}</style></defs><title>LD_website logo</title><path class="cls-1" d="M9.52,22.6h1.3c1.24,0,1.89.54,1.89,1.39s-0.76,1.47-2,1.47H9.52M8.16,30.85H9.52V26.66h0.81a1.35,1.35,0,0,1,1.58.92l1.45,3.27H14.9l-1.78-3.76a1.58,1.58,0,0,0-.92-0.95v0A2.2,2.2,0,0,0,14.14,24c0-2.26-1.8-2.56-3.66-2.56H8.16v9.44Z"/><path class="cls-1" d="M17.28,27.4a2.36,2.36,0,0,1,2.16-2.58,2.35,2.35,0,0,1,2.15,2.58A2.31,2.31,0,0,1,19.44,30a2.31,2.31,0,0,1-2.16-2.58m-1.35,0a3.51,3.51,0,1,0,7,0,3.4,3.4,0,0,0-3.5-3.61A3.4,3.4,0,0,0,15.92,27.4Z"/><path class="cls-1" d="M24.13,32.71a1.94,1.94,0,0,0,.6.11c1.14,0,1.51-1.57,1.51-1.7A3.77,3.77,0,0,0,26,30.39L23.66,24h1.39l1.85,5.71h0L28.82,24h1.28l-2.54,7c-0.47,1.33-1,2.85-2.65,2.85a4.12,4.12,0,0,1-.86-0.09"/><path class="cls-1" d="M35.5,28.17A1.74,1.74,0,0,1,33.58,30a1.21,1.21,0,0,1-1.28-1.12c0-1.22,1.7-1.32,2.39-1.32l0.81,0m-3.7-2a3.24,3.24,0,0,1,2-.7c1.27,0,1.7.61,1.7,1.8-0.5,0-.85,0-1.35,0-1.31,0-3.2.54-3.2,2.27,0,1.5,1,2.15,2.53,2.15A2.56,2.56,0,0,0,35.61,30h0v0.89h1.19a10.8,10.8,0,0,1-.05-1.35V26.64c0-1.88-.8-2.85-2.77-2.85a4.39,4.39,0,0,0-2.27.65Z"/><rect class="cls-2" x="39.09" y="20.71" width="1.27" height="10.14"/><polyline class="cls-1" points="46.55 21.41 48.39 21.41 52.55 29.01 52.58 29.01 52.58 21.41 53.93 21.41 53.93 30.85 52.2 30.85 47.93 23.09 47.9 23.09 47.9 30.85 46.55 30.85"/><path class="cls-1" d="M60.3,28.17A1.74,1.74,0,0,1,58.38,30a1.21,1.21,0,0,1-1.28-1.12c0-1.22,1.7-1.32,2.39-1.32l0.81,0m-3.71-2a3.24,3.24,0,0,1,2-.7c1.27,0,1.7.61,1.7,1.8-0.5,0-.85,0-1.35,0-1.31,0-3.21.54-3.21,2.27,0,1.5,1,2.15,2.53,2.15A2.56,2.56,0,0,0,60.41,30h0v0.89h1.19a11,11,0,0,1-.05-1.35V26.64c0-1.88-.8-2.85-2.77-2.85a4.39,4.39,0,0,0-2.27.65Z"/><path class="cls-1" d="M67.38,25H65.56v3.77A1.09,1.09,0,0,0,66.63,30a1.57,1.57,0,0,0,.86-0.24v1.08a4,4,0,0,1-1.08.19,1.85,1.85,0,0,1-2.12-2V25H62.73V24h1.55v-1.6l1.27-.4v2h1.83"/><path class="cls-1" d="M69.14,24h1.27v6.9H69.14m1.35-8.44H69.06V21h1.43v1.43Z"/><path class="cls-1" d="M73.63,27.4a2.19,2.19,0,1,1,4.31,0,2.19,2.19,0,1,1-4.31,0m-1.35,0a3.51,3.51,0,1,0,7,0A3.51,3.51,0,1,0,72.28,27.4Z"/><path class="cls-1" d="M81,24h1.23V25h0a2.48,2.48,0,0,1,2.26-1.26c1.78,0,2.58,1.11,2.58,3v4.1H85.82V27.28c0-1.61-.35-2.39-1.46-2.46-1.45,0-2.1,1.16-2.1,2.84v3.19H81"/><path class="cls-1" d="M93.36,28.17A1.74,1.74,0,0,1,91.43,30a1.21,1.21,0,0,1-1.28-1.12c0-1.22,1.7-1.32,2.39-1.32l0.81,0m-3.71-2a3.25,3.25,0,0,1,2-.7c1.27,0,1.7.61,1.7,1.8-0.5,0-.85,0-1.35,0-1.31,0-3.2.54-3.2,2.27,0,1.5,1,2.15,2.53,2.15A2.56,2.56,0,0,0,93.46,30h0v0.89h1.19a10.8,10.8,0,0,1-.05-1.35V26.64c0-1.88-.8-2.85-2.77-2.85a4.38,4.38,0,0,0-2.27.65Z"/><rect class="cls-2" x="96.94" y="20.71" width="1.27" height="10.14"/><path class="cls-1" d="M105.36,26.13c0-1.92,1-3.7,3.11-3.69s3.11,1.77,3.11,3.69-0.93,3.69-3.11,3.69-3.11-1.81-3.11-3.69m-1.43,0c0,2.87,1.66,4.88,4.54,4.88S113,29,113,26.13s-1.68-4.88-4.54-4.88S103.93,23.33,103.93,26.13Z"/><path class="cls-1" d="M114.81,24H116V25h0a2.1,2.1,0,0,1,1.8-1.23,3.58,3.58,0,0,1,.84.09V25a1.89,1.89,0,0,0-.7-0.12c-1.14,0-1.88,1.08-1.88,2.81v3.14h-1.27"/><path class="cls-1" d="M124.41,25h-1.83v3.77A1.09,1.09,0,0,0,123.65,30a1.57,1.57,0,0,0,.86-0.24v1.08a4,4,0,0,1-1.08.19,1.85,1.85,0,0,1-2.12-2V25h-1.55V24h1.55v-1.6l1.27-.4v2h1.83"/><path class="cls-1" d="M126,20.71h1.27v4.23h0a2.53,2.53,0,0,1,2.22-1.15c1.78,0,2.58,1.11,2.58,3v4.1h-1.27V27.28c0-1.61-.35-2.39-1.46-2.46-1.45,0-2.1,1.16-2.1,2.84v3.19H126"/><path class="cls-1" d="M135.16,27.4a2.19,2.19,0,1,1,4.31,0,2.19,2.19,0,1,1-4.31,0m-1.35,0a3.51,3.51,0,1,0,7,0A3.51,3.51,0,1,0,133.81,27.4Z"/><path class="cls-1" d="M147.73,27.37c0,1.08-.54,2.61-1.91,2.61s-2-1.42-2-2.57,0.66-2.6,2-2.6,1.92,1.31,1.89,2.56m-5.21,6.31h1.27V29.9h0a2.47,2.47,0,0,0,2.3,1.11c2.08,0,3-1.84,3-3.73s-1-3.49-3-3.49a2.76,2.76,0,0,0-2.34,1.14h0V24h-1.22v9.73Z"/><path class="cls-1" d="M154.88,28.17A1.74,1.74,0,0,1,153,30a1.22,1.22,0,0,1-1.28-1.12c0-1.22,1.7-1.32,2.39-1.32l0.81,0m-3.7-2a3.24,3.24,0,0,1,2-.7c1.27,0,1.7.61,1.7,1.8-0.5,0-.85,0-1.35,0-1.31,0-3.2.54-3.2,2.27,0,1.5,1,2.15,2.53,2.15A2.56,2.56,0,0,0,155,30h0v0.89h1.19a11,11,0,0,1-.05-1.35V26.64c0-1.88-.8-2.85-2.77-2.85a4.38,4.38,0,0,0-2.27.65Z"/><path class="cls-1" d="M159.2,26.74a1.91,1.91,0,0,1,1.85-1.92,1.74,1.74,0,0,1,1.72,1.92m0.82,2.56a4.08,4.08,0,0,1-2.12.69,2.26,2.26,0,0,1-2.27-2.3h4.92c0-2.22-.74-3.89-3-3.89a3.2,3.2,0,0,0-3.23,3.49c0,2.24,1.12,3.73,3.57,3.73a5.28,5.28,0,0,0,2.18-.45V29.29Z"/><path class="cls-1" d="M166.72,27.37c0-1.26.51-2.56,1.89-2.56s2,1.31,2,2.6-0.6,2.57-2,2.57-1.93-1.53-1.91-2.61m4,3.47h1.22V20.71h-1.27V24.9h0a2.46,2.46,0,0,0-2.29-1.11c-2,0-3,1.64-3,3.49s0.88,3.73,3,3.73a2.77,2.77,0,0,0,2.35-1.14h0v1Z"/><path class="cls-1" d="M174.25,24h1.27v6.9h-1.27m1.35-8.44h-1.43V21h1.43v1.43Z"/><path class="cls-1" d="M182.22,25.12a3.69,3.69,0,0,0-1.38-.3,2.36,2.36,0,0,0-2.22,2.58,2.33,2.33,0,0,0,2.3,2.58,2.65,2.65,0,0,0,1.37-.39l0.09,1.14a3.88,3.88,0,0,1-1.6.28,3.49,3.49,0,0,1-3.51-3.61,3.4,3.4,0,0,1,3.51-3.61,4.78,4.78,0,0,1,1.54.27"/><polyline class="cls-1" points="187.79 21.41 189.15 21.41 189.15 25.36 193.66 25.36 193.66 21.41 195.01 21.41 195.01 30.85 193.66 30.85 193.66 26.55 189.15 26.55 189.15 30.85 187.79 30.85"/><path class="cls-1" d="M198.26,27.4a2.19,2.19,0,1,1,4.31,0,2.19,2.19,0,1,1-4.31,0m-1.35,0a3.51,3.51,0,1,0,7,0A3.51,3.51,0,1,0,196.91,27.4Z"/><path class="cls-1" d="M205.11,29.5a3.39,3.39,0,0,0,1.58.49,1.11,1.11,0,0,0,1.3-1c0-1.26-3-1.15-3-3.08,0-1.43,1.07-2.12,2.43-2.12a5.34,5.34,0,0,1,1.58.27l-0.11,1.11a3.71,3.71,0,0,0-1.34-.35,1,1,0,0,0-1.22.84c0,1.41,3,1,3,3.2A2.17,2.17,0,0,1,206.94,31a4,4,0,0,1-1.89-.38"/><path class="cls-1" d="M216.09,27.37c0,1.08-.54,2.61-1.91,2.61s-2-1.42-2-2.57,0.66-2.6,2-2.6,1.92,1.31,1.89,2.56m-5.21,6.31h1.27V29.9h0a2.47,2.47,0,0,0,2.3,1.11c2.08,0,3-1.84,3-3.73s-1-3.49-3-3.49a2.76,2.76,0,0,0-2.34,1.14h0V24h-1.22v9.73Z"/><path class="cls-1" d="M219.31,24h1.27v6.9h-1.27m1.35-8.44h-1.43V21h1.43v1.43Z"/><path class="cls-1" d="M226.57,25h-1.83v3.77A1.09,1.09,0,0,0,225.81,30a1.57,1.57,0,0,0,.86-0.24v1.08a4,4,0,0,1-1.08.19,1.85,1.85,0,0,1-2.12-2V25h-1.56V24h1.56v-1.6l1.27-.4v2h1.83"/><path class="cls-1" d="M232.26,28.17A1.74,1.74,0,0,1,230.34,30a1.21,1.21,0,0,1-1.28-1.12c0-1.22,1.7-1.32,2.39-1.32l0.81,0m-3.7-2a3.24,3.24,0,0,1,2-.7c1.27,0,1.7.61,1.7,1.8-0.5,0-.85,0-1.35,0-1.31,0-3.2.54-3.2,2.27,0,1.5,1,2.15,2.53,2.15A2.56,2.56,0,0,0,232.37,30h0v0.89h1.19a11,11,0,0,1-.05-1.35V26.64c0-1.88-.8-2.85-2.77-2.85a4.38,4.38,0,0,0-2.27.65Z"/><rect class="cls-2" x="235.84" y="20.71" width="1.27" height="10.14"/><path class="cls-2" d="M245.79,16.16V32.37h40V16.16h-40Zm9,14.61-2.73-9h0l-1.81,9h-3.29l2.79-13h4.35l2.67,9h0l1.83-9h3.29l-2.77,13h-4.34Zm13.31,0,1.16-5.59h-4.13L264,30.77h-3.49l2.71-13h3.5l-1,5h4.13l1-5h3.49l-2.71,13h-3.5Zm15.4-10.09a6.55,6.55,0,0,0-2.88-.6c-1.38,0-2.5.2-2.5,1.25,0,1.85,5.07,1.16,5.07,5.12,0,3.61-3.35,4.54-6.37,4.54a14.63,14.63,0,0,1-4-.67l0.82-2.65a6.81,6.81,0,0,0,3.22.75c1.08,0,2.78-.21,2.78-1.55,0-2.09-5.07-1.31-5.07-5,0-3.36,3-4.37,5.81-4.37a10.58,10.58,0,0,1,4,.58Z"/><polyline class="cls-1" points="202.73 37.4 203.83 37.4 206.33 41.96 206.34 41.96 206.34 37.4 207.16 37.4 207.16 43.06 206.12 43.06 203.55 38.41 203.54 38.41 203.54 43.06 202.73 43.06"/><polyline class="cls-1" points="208.63 37.4 209.44 37.4 209.44 39.77 212.15 39.77 212.15 37.4 212.97 37.4 212.97 43.06 212.15 43.06 212.15 40.48 209.44 40.48 209.44 43.06 208.63 43.06"/><path class="cls-1" d="M217,38.25A2.49,2.49,0,0,0,216,38a0.83,0.83,0,0,0-1,.75c0,1.09,2.43.84,2.43,2.7,0,1.21-.93,1.69-2.07,1.69a3.8,3.8,0,0,1-1.16-.23l0.08-.75a3.42,3.42,0,0,0,1.18.28,1,1,0,0,0,1.11-.92c0-1.27-2.43-.92-2.43-2.68a1.59,1.59,0,0,1,1.82-1.54,3.78,3.78,0,0,1,1.21.2"/><polyline class="cls-1" points="221.89 38.12 220.13 38.12 220.13 37.4 224.46 37.4 224.46 38.12 222.7 38.12 222.7 43.06 221.89 43.06"/><path class="cls-1" d="M224.6,38.93h0.71v0.64h0a1.26,1.26,0,0,1,1.08-.74,2.11,2.11,0,0,1,.5.06v0.68a1.13,1.13,0,0,0-.42-0.07c-0.68,0-1.13.65-1.13,1.69v1.88H224.6"/><path class="cls-1" d="M231.41,43.06h-0.74V42.41h0a1.57,1.57,0,0,1-2.9-1V38.93h0.76v2.14c0,1,.21,1.44.88,1.48,0.87,0,1.26-.7,1.26-1.7V38.93h0.76"/><path class="cls-1" d="M232.4,42.25a2,2,0,0,0,.95.29,0.67,0.67,0,0,0,.78-0.59c0-.75-1.79-0.69-1.79-1.85a1.28,1.28,0,0,1,1.46-1.27,3.15,3.15,0,0,1,.95.16l-0.06.66a2.22,2.22,0,0,0-.8-0.21,0.61,0.61,0,0,0-.73.5c0,0.84,1.79.6,1.79,1.92a1.3,1.3,0,0,1-1.44,1.29,2.38,2.38,0,0,1-1.14-.23"/><path class="cls-1" d="M238.06,39.54H237v2.26a0.66,0.66,0,0,0,.64.74,0.94,0.94,0,0,0,.52-0.15V43a2.36,2.36,0,0,1-.65.11,1.11,1.11,0,0,1-1.27-1.2V39.54h-0.93V38.93h0.93V38l0.76-.24v1.2h1.09"/></svg>