<svg id="Layer_1" data-name="Layer 1" xmlns="http://www.w3.org/2000/svg" viewBox="0 0 231.3 97.14"><defs><style>.cls-1{fill:#fff;fill-rule:evenodd;}</style></defs><title>LD_website logo</title><polygon class="cls-1" points="82.67 32.67 82.67 53.08 112.3 63.89 141.82 53.08 141.82 32.67 112.3 43.48 82.67 32.67 82.67 32.67"/><polygon class="cls-1" points="82.67 57.52 82.67 77.92 112.3 88.73 141.82 77.92 141.82 57.52 112.3 68.33 82.67 57.52 82.67 57.52"/><polygon class="cls-1" points="108.36 19.76 111.06 19.76 112.97 27.29 114.91 19.76 117.59 19.76 114.82 30.57 111.15 30.57 108.36 19.76 108.36 19.76"/><path class="cls-1" d="M123.66,19.76h-5.13V30.57h2.76V24.14c0-1.43.91-1.46,2.37-1.46V19.76h0Z"/><path class="cls-1" d="M137.87,22.68c0.91,0,1.21.3,1.21,1.34v6.56h2.73V22.68A2.67,2.67,0,0,0,139,19.76h-5.13V30.57h2.73V22.68h1.31Z"/><path class="cls-1" d="M128.33,19.76c-4.45,0-4,2.7-4,5.25,0,2.85-.36,5.56,4.07,5.56s3.95-2.7,3.95-5.62,0.55-5.19-4-5.19h0Zm0,8c-1.25,0-1.31-.94-1.31-2.7s0.15-2.55,1.31-2.55,1.25,0.79,1.28,2.49c0,1.85,0,2.76-1.28,2.76h0Z"/><path class="cls-1" d="M103.07,26.23h4.87c0-.33,0-0.57,0-0.88,0-2.85.43-5.59-3.76-5.59-4.45,0-4,3-4,5.59,0,2.31-.06,5.22,4.37,5.22h3.4V27.9h-3.58a1.51,1.51,0,0,1-1.28-1.67h0Zm0-2.95c0-1.28,1.94-1.21,1.94-.18v0.76h-1.94V23.29h0Z"/><path class="cls-1" d="M90.83,16.73V30.57h2.73V23.83c0.06-1.52,2.64-1.52,2.64-.06v6.8h2.73V23a2.92,2.92,0,0,0-3.22-3,3.45,3.45,0,0,0-2.16.39V16.73H90.83Z"/><path class="cls-1" d="M89.53,16.73h-3.1c-3.95,0-4.62,3.28-4.62,7s0.67,6.86,4,6.86h3.7V27.66H86.86c-1.94,0-1.82-2.67-1.82-4s-0.36-3.83,2.31-3.89h2.19v-3h0Z"/></svg>