<svg id="Layer_1" data-name="Layer 1" xmlns="http://www.w3.org/2000/svg" xmlns:xlink="http://www.w3.org/1999/xlink" viewBox="0 0 254 89.79"><defs><style>.cls-1{fill:#fff;}.cls-2{clip-path:url(#clip-path);}.cls-3{clip-path:url(#clip-path-2);}.cls-4{fill:#9d9d9c;}</style><clipPath id="clip-path"><path class="cls-1" d="M175.44,14.88s-4.79,1.61-7.33,3.84A9.39,9.39,0,0,0,164.89,24a26.43,26.43,0,0,1,3.68-1.61l17.23-5.63s0.67,13.09-7,18.86a26.15,26.15,0,0,0,7.78-3.08C197.92,26,197,7.85,197,7.85Z"/></clipPath><clipPath id="clip-path-2"><path class="cls-1" d="M162.7,25.42a7.54,7.54,0,0,0-2.76,5.87c0,4.34,3.85,7.86,8.61,7.86h0c2.33,0.06,5.25-.63,8.89-2.7a12.9,12.9,0,0,0,1.32-.87,15.17,15.17,0,0,1-3.34.3h0c-5.94,0-10.76-4.4-10.76-9.82a9.68,9.68,0,0,1,.23-2.1,12.15,12.15,0,0,0-2.19,1.46"/></clipPath></defs><title>LD_website logo</title><path class="cls-1" d="M83.82,46.6h3.52V43.14c-1.73-.2-3.52.29-3.52,2.22V46.6Z"/><path class="cls-1" d="M79.38,47.67c-3.73.09-5.6,1.3-5.6,5.05v9.21H77.3V52.73c0-1.76.66-2,2-2.08a3.46,3.46,0,0,0,2-.32c0.72-.38,1-1.27,1-2.54-1-.06-1.72-0.14-2.88-0.12"/><path class="cls-1" d="M60.68,50.73V45.65h4.53c2,0,2.54.72,2.54,2.51s-0.58,2.57-2.54,2.57H60.68Zm11.21,5.66c0-3.06-1.33-4.13-3.09-4.5,1.47-.64,2.57-1.53,2.57-4.19,0-3.72-1.76-5.05-5.4-5.05H57V61.94h9.3c3.49,0,5.54-1.39,5.54-5.55M60.68,53.65h5.05c2,0,2.51.75,2.51,2.6s-0.61,2.69-2.51,2.69H60.68V53.65Z"/><path class="cls-1" d="M102.22,46.6h3.52V43.14c-1.73-.2-3.52.29-3.52,2.22V46.6Z"/><rect class="cls-1" x="102.19" y="47.85" width="3.55" height="14.09"/><path class="cls-1" d="M130.44,47.67a16.42,16.42,0,0,0-5.72,1.59v-7c-1.73-.2-3.52.29-3.52,2.22V61.94h3.52V52.12a15.47,15.47,0,0,1,4.62-1.21A1.5,1.5,0,0,1,131,52.5v9.44h3.52V52.38c0-3.06-1.1-4.71-4.07-4.71"/><rect class="cls-1" x="83.82" y="47.85" width="3.52" height="14.09"/><path class="cls-1" d="M95.3,50.65h2.51c1.85,0,2.54-.84,2.37-2.8H95.3V43.14c-1.73-.2-3.52.29-3.52,2.22v2.48H89.15v2.8h2.63V57c0,3.52,1.44,5.05,5.11,5.05a22.57,22.57,0,0,0,3-.2l-0.09-2.8c-0.67.06-1.65,0.12-2.46,0.12-1.36,0-2-.46-2-2V50.65Z"/><path class="cls-1" d="M111.17,51.74c0-.9.69-1.21,1.56-1.21,1.47,0,2.83.06,3.7,0.09,1.59,0.06,2.37-.81,2.28-2.66-1.07-.12-3.52-0.29-5.54-0.29-3.15,0-5.46,1.19-5.46,4.1s1.7,3.84,4.82,4.36c2.83,0.46,3.41.67,3.41,1.65,0,1.19-1.33,1.36-2.6,1.36-1.88,0-3.87-.12-5.11-0.23l-0.17,2.94c1.33,0.12,3.29.23,5.43,0.23,3.64,0,5.92-1.13,5.92-4.16s-1.53-3.78-4.59-4.36c-2.83-.49-3.64-0.69-3.64-1.82"/><path class="cls-1" d="M158.17,50.79h-7.28c-0.17,2.11.52,3,2.37,3h1.27v4.82a42.63,42.63,0,0,1-4.3.32c-2.89,0-4-1.13-4-6.81,0-5.52.84-6.82,5.4-6.47l3.12,0.23c2.08,0.12,2.86-1,2.83-2.77a62.55,62.55,0,0,0-6.73-.64c-6.64,0-8.4,1.91-8.4,9.73,0,7.62,2.14,9.88,7.68,9.88a50.39,50.39,0,0,0,8.06-.87V50.79Z"/><path class="cls-1" d="M178.28,51.74c0-.9.69-1.21,1.56-1.21,1.47,0,2.83.06,3.7,0.09,1.59,0.06,2.37-.81,2.28-2.66-1.07-.12-3.52-0.29-5.54-0.29-3.15,0-5.46,1.19-5.46,4.1s1.7,3.84,4.82,4.36c2.83,0.46,3.41.67,3.41,1.65,0,1.19-1.33,1.36-2.6,1.36-1.88,0-3.87-.12-5.11-0.23l-0.17,2.94c1.33,0.12,3.29.23,5.43,0.23,3.64,0,5.92-1.13,5.92-4.16s-1.53-3.78-4.59-4.36c-2.83-.49-3.64-0.69-3.64-1.82"/><path class="cls-1" d="M172.85,52.23c0-2.91-1.18-4.47-4.79-4.47-2.25,0-5.19.26-6.52,0.4,0,1.76.46,2.65,2,2.65,1,0,3.06-.12,4.24-0.12a1.33,1.33,0,0,1,1.56,1.59v0.52c-1.59.09-3,.26-4.35,0.46-3.11.46-4.93,1.36-4.93,4.44,0,2.77,1.38,4.44,4.35,4.44a79.09,79.09,0,0,0,8.45-.46V52.23Zm-3.52,7.09a41.7,41.7,0,0,1-4.21.17,1.5,1.5,0,0,1-1.64-1.76c0-1.3.6-1.64,2-1.9a29.59,29.59,0,0,1,3.81-.46v3.95Z"/><path class="cls-1" d="M175.44,14.88s-4.79,1.61-7.33,3.84A9.39,9.39,0,0,0,164.89,24a26.43,26.43,0,0,1,3.68-1.61l17.23-5.63s0.67,13.09-7,18.86a26.15,26.15,0,0,0,7.78-3.08C197.92,26,197,7.85,197,7.85Z"/><g class="cls-2"><rect class="cls-1" x="160.57" y="2.17" width="41.65" height="39.09" transform="translate(7.82 78.69) rotate(-25)"/></g><path class="cls-1" d="M162.7,25.42a7.54,7.54,0,0,0-2.76,5.87c0,4.34,3.85,7.86,8.61,7.86h0c2.33,0.06,5.25-.63,8.89-2.7a12.9,12.9,0,0,0,1.32-.87,15.17,15.17,0,0,1-3.34.3h0c-5.94,0-10.76-4.4-10.76-9.82a9.68,9.68,0,0,1,.23-2.1,12.15,12.15,0,0,0-2.19,1.46"/><g class="cls-3"><rect class="cls-1" x="158.03" y="19.62" width="22.63" height="23.93" transform="translate(57.32 162.45) rotate(-60)"/></g><polygon class="cls-4" points="58.2 77.21 62.24 77.21 62.24 78.28 57 78.28 57 68.98 58.2 68.98 58.2 77.21"/><path class="cls-4" d="M65.82,78.42c-2,0-2.77-1.13-2.77-2.56v-2c0-1.42.78-2.56,2.77-2.56s2.77,1.13,2.77,2.56v2c0,1.42-.78,2.56-2.77,2.56m0-6.06a1.37,1.37,0,0,0-1.59,1.5v2.05a1.6,1.6,0,0,0,3.19,0V73.85a1.37,1.37,0,0,0-1.59-1.5"/><path class="cls-4" d="M72.44,78.42c-2,0-2.77-1.13-2.77-2.56v-2c0-1.42.78-2.56,2.77-2.56s2.77,1.13,2.77,2.56v2c0,1.42-.78,2.56-2.77,2.56m0-6.06a1.37,1.37,0,0,0-1.59,1.5v2.05a1.6,1.6,0,0,0,3.19,0V73.85a1.37,1.37,0,0,0-1.59-1.5"/><path class="cls-4" d="M76.56,78.28V68.7l1.17-.17v9.75H76.56Zm5.23-6.81-2.43,3.37,2.54,3.44H80.52L78,74.84l2.4-3.37h1.36Z"/><path class="cls-4" d="M83,68.7h1.17v1.69H83V68.7Zm0,2.78h1.17v6.81H83V71.48Z"/><path class="cls-4" d="M90,78.28v-5.2a0.56,0.56,0,0,0-.66-0.63,6.34,6.34,0,0,0-2.28.68v5.14H85.87V71.48h0.95l0.11,0.59a7.37,7.37,0,0,1,2.74-.73c1.09,0,1.48.69,1.48,1.73v5.21H90Z"/><path class="cls-4" d="M92.53,73.88c0-1.55.56-2.54,2.89-2.54a12.18,12.18,0,0,1,2.43.26v7.18c0,1.33-.68,2.39-2.63,2.39a8.62,8.62,0,0,1-2.39-.36L93,79.86a8.9,8.9,0,0,0,2.17.29c1.13,0,1.52-.47,1.52-1.36V77.72a4.93,4.93,0,0,1-2.15.48,1.84,1.84,0,0,1-2-2.12V73.88Zm4.15-1.41a9,9,0,0,0-1.34-.1c-1.38,0-1.63.56-1.63,1.47v2.28a0.93,0.93,0,0,0,1.1,1,5,5,0,0,0,1.87-.52V72.47Z"/><path class="cls-4" d="M107,78.28h-1l-0.07-.5a3.88,3.88,0,0,1-2.21.64,1.68,1.68,0,0,1-1.8-2c0-1.41.71-1.91,2.08-1.91h1.82V73.49c0-.85-0.38-1.15-1.48-1.15a11.19,11.19,0,0,0-2,.22l-0.13-.94a9.55,9.55,0,0,1,2.24-.29c1.94,0,2.59.76,2.59,2.21v4.74Zm-1.17-2.75h-1.73a0.79,0.79,0,0,0-1,.91c0,0.7.13,1,1,1a3.4,3.4,0,0,0,1.76-.56V75.53Z"/><path class="cls-4" d="M116.44,77.26a4.3,4.3,0,0,1-1.09.17c-0.63,0-.7-0.25-0.7-0.75V72.46h1.83l0.1-1h-1.93V69.63l-1.17.17v1.68h-3V70.33a0.76,0.76,0,0,1,.91-0.94,7.08,7.08,0,0,1,1.13.13l0.1-.91a4.74,4.74,0,0,0-1.38-.2,1.66,1.66,0,0,0-1.93,1.8v1.26h-1.2v1h1.2v5.83h1.17V72.46h3v4.42c0,1.13.55,1.55,1.69,1.55a4.27,4.27,0,0,0,1.43-.25Z"/><path class="cls-4" d="M120.34,77.42a8.63,8.63,0,0,0,2.15-.32L122.65,78a7.41,7.41,0,0,1-2.4.39c-2,0-2.7-1-2.7-2.5v-2c0-1.41.64-2.54,2.67-2.54a2.26,2.26,0,0,1,2.56,2.57v1.42h-4.05v0.57c0,1.08.29,1.51,1.62,1.51m-1.62-3.06h2.92V73.8a1.24,1.24,0,0,0-1.42-1.48,1.29,1.29,0,0,0-1.5,1.48v0.56Z"/><path class="cls-4" d="M127.28,72.41a14.78,14.78,0,0,0-1.94,1.17v4.69h-1.17V71.48h1l0.07,1a8.74,8.74,0,0,1,1.87-1.09Z"/><polygon class="cls-4" points="133.11 78.28 132.62 78.28 130.41 71.48 131.57 71.48 133.43 77.34 135.32 71.48 136.48 71.48 134.23 78.28 133.26 81.03 132.16 81.03 133.11 78.28"/><path class="cls-4" d="M139.79,78.42c-2,0-2.77-1.13-2.77-2.56v-2c0-1.42.78-2.56,2.77-2.56s2.77,1.13,2.77,2.56v2c0,1.42-.78,2.56-2.77,2.56m0-6.06a1.37,1.37,0,0,0-1.59,1.5v2.05a1.6,1.6,0,0,0,3.19,0V73.85a1.37,1.37,0,0,0-1.59-1.5"/><path class="cls-4" d="M145,71.48v5.2a0.56,0.56,0,0,0,.66.63,6.33,6.33,0,0,0,2.28-.68V71.48h1.17v6.81h-0.95L148,77.69a7.41,7.41,0,0,1-2.74.73c-1.09,0-1.48-.69-1.48-1.73V71.48H145Z"/><path class="cls-4" d="M153.83,72.41a14.83,14.83,0,0,0-1.94,1.17v4.69h-1.17V71.48h1l0.07,1a8.72,8.72,0,0,1,1.87-1.09Z"/><polygon class="cls-4" points="163.08 78.28 161.43 72.51 159.78 78.28 158.28 78.28 156.82 71.48 157.94 71.48 159.07 77.12 160.72 71.48 162.15 71.48 163.8 77.12 164.93 71.48 166.04 71.48 164.59 78.28 163.08 78.28"/><path class="cls-4" d="M169.53,78.42c-2,0-2.77-1.13-2.77-2.56v-2c0-1.42.78-2.56,2.77-2.56s2.77,1.13,2.77,2.56v2c0,1.42-.78,2.56-2.77,2.56m0-6.06a1.37,1.37,0,0,0-1.59,1.5v2.05a1.6,1.6,0,0,0,3.19,0V73.85a1.37,1.37,0,0,0-1.59-1.5"/><path class="cls-4" d="M176.85,72.41a14.77,14.77,0,0,0-1.94,1.17v4.69h-1.17V71.48h1l0.07,1a8.72,8.72,0,0,1,1.87-1.09Z"/><polygon class="cls-4" points="177.87 78.28 177.87 68.7 179.04 68.53 179.04 78.28 177.87 78.28"/><path class="cls-4" d="M180.46,73.56a2,2,0,0,1,2.21-2.22,10.83,10.83,0,0,1,1.94.21V68.7l1.17-.17v9.75h-1l-0.1-.61a3.62,3.62,0,0,1-2.25.75,1.8,1.8,0,0,1-2-2.08V73.56Zm4.15-1a11,11,0,0,0-1.87-.21,1,1,0,0,0-1.1,1.19v2.78a0.88,0.88,0,0,0,1,1,3.15,3.15,0,0,0,1.93-.81v-4Z"/></svg>