<svg id="Layer_1" data-name="Layer 1" xmlns="http://www.w3.org/2000/svg" xmlns:xlink="http://www.w3.org/1999/xlink" viewBox="0 0 230 70"><defs><style>.cls-1{fill:url(#linear-gradient);}.cls-2{mask:url(#mask);}.cls-3{fill:#fff;}</style><linearGradient id="linear-gradient" x1="113.75" y1="80.33" x2="114.41" y2="80.33" gradientTransform="matrix(170.55, 0, 0, -170.55, -19196.16, 13946.64)" gradientUnits="userSpaceOnUse"><stop offset="0" stop-color="#fff"/><stop offset="1"/></linearGradient><mask id="mask" x="-0.14" y="-13.64" width="390.31" height="520.41" maskUnits="userSpaceOnUse"><rect class="cls-1" x="-0.14" y="-13.64" width="390.31" height="520.41"/></mask></defs><title>LD_website logo</title><g class="cls-2"><path class="cls-3" d="M99.87,29.26c-4.77,0-7.5,2-7.5,5.61s2.73,5.57,7.5,5.57,7.49-2,7.49-5.57-2.73-5.61-7.49-5.61m0,8.59c-2.61,0-3.92-1-3.92-3s1.32-3,3.92-3,3.93,1,3.93,3-1.33,3-3.93,3"/><path class="cls-3" d="M108.34,29.53v2.38h4.52v7.4c0,0.71,1.08,1,2,1s2-.24,2-1v-7.4h4.51V29.53h-13"/><path class="cls-3" d="M150.83,40.19H147.5c-2.67,0-5.45.07-7-.82-1.24-.74-1.86-2.1-1.86-4V30.29c0-.68,1-0.91,1.92-0.91s1.9,0.23,1.9.92v5.22a2.11,2.11,0,0,0,.61,1.65,3.69,3.69,0,0,0,2.28.53h5.46v2.49Z"/><path class="cls-3" d="M83.69,36.91c0,1.88,1.59,3.17,4.28,3.39V28.93h6V26.3H78.26v2.63h5.44v8"/><path class="cls-3" d="M137.12,40.19L137,39.76c-0.89-4.37-5.87-9.36-6.9-10.1a2.41,2.41,0,0,0-2.31,0c-1,.74-6,5.73-6.89,10.1l-0.1.43h3.52l0.06-.31a11.33,11.33,0,0,1,.68-2h7.75a10,10,0,0,1,.67,2l0.07,0.31h3.53m-10.78-4.54A19.53,19.53,0,0,1,129,32.46a20.51,20.51,0,0,1,2.62,3.19h-5.26Z"/><path class="cls-3" d="M86.22,46.08c0-.87-0.18-1.25-0.72-1.25s-0.76.61-.76,2.3,0.25,2.14.77,2.14,0.76-.23.76-1.52h1.21c0,1.29-.32,2.4-1.91,2.4-1.81,0-2-1.29-2-3.11s0.23-3.11,2-3.11,1.86,1.26,1.86,2.14H86.22Z"/><path class="cls-3" d="M89.83,43.94c1.81,0,2,1.29,2,3.11s-0.23,3.11-2,3.11-2-1.29-2-3.11,0.23-3.11,2-3.11m0,5.33c0.71,0,.83-0.61.83-2.22s-0.12-2.22-.83-2.22S89,45.45,89,47s0.12,2.22.83,2.22"/><polygon class="cls-3" points="92.48 44.06 94.24 44.06 95.08 48.28 95.1 48.28 95.94 44.06 97.7 44.06 97.7 50.04 96.61 50.04 96.61 45.26 96.59 45.26 95.55 50.04 94.63 50.04 93.58 45.26 93.57 45.26 93.57 50.04 92.48 50.04 92.48 44.06"/><polygon class="cls-3" points="98.61 44.06 100.37 44.06 101.21 48.28 101.23 48.28 102.08 44.06 103.83 44.06 103.83 50.04 102.74 50.04 102.74 45.26 102.73 45.26 101.68 50.04 100.76 50.04 99.71 45.26 99.7 45.26 99.7 50.04 98.61 50.04 98.61 44.06"/><rect class="cls-3" x="104.79" y="44.06" width="1.21" height="5.98"/><polygon class="cls-3" points="110.11 44.06 110.11 45.05 108.8 45.05 108.8 50.04 107.59 50.04 107.59 45.05 106.28 45.05 106.28 44.06 110.11 44.06"/><polygon class="cls-3" points="114.1 44.06 114.1 45.05 112.79 45.05 112.79 50.04 111.58 50.04 111.58 45.05 110.27 45.05 110.27 44.06 114.1 44.06"/><polygon class="cls-3" points="117.68 44.06 117.68 45.05 115.54 45.05 115.54 46.45 117.55 46.45 117.55 47.44 115.54 47.44 115.54 49.05 117.76 49.05 117.76 50.04 114.33 50.04 114.33 44.06 117.68 44.06"/><path class="cls-3" d="M118.39,44.06h2c1.68,0,2,1.15,2,2.91,0,2.12-.45,3.07-2.06,3.07h-1.91v-6Zm1.21,5.09h0.54c0.84,0,1-.53,1-2.15,0-1.36-.11-2.05-1-2.05h-0.51v4.2Z"/><polygon class="cls-3" points="128 44.06 128 45.05 126.69 45.05 126.69 50.04 125.48 50.04 125.48 45.05 124.17 45.05 124.17 44.06 128 44.06"/><path class="cls-3" d="M130.1,43.94c1.81,0,2,1.29,2,3.11s-0.23,3.11-2,3.11-2-1.29-2-3.11,0.23-3.11,2-3.11m0,5.33c0.71,0,.83-0.61.83-2.22s-0.12-2.22-.83-2.22-0.83.62-.83,2.22,0.12,2.22.83,2.22"/><path class="cls-3" d="M134.2,44.06h2a1.43,1.43,0,0,1,1.71,1.52,1.25,1.25,0,0,1-.91,1.31v0a1.27,1.27,0,0,1,1.09,1.39A1.63,1.63,0,0,1,136.24,50h-2v-6Zm1.21,2.45h0.35c0.66,0,1-.23,1-0.79a0.71,0.71,0,0,0-.87-0.78h-0.44v1.57Zm0,2.64h0.47a0.82,0.82,0,0,0,1-.9,0.8,0.8,0,0,0-.92-0.9h-0.52v1.8Z"/><polygon class="cls-3" points="142.01 44.06 142.01 45.05 139.87 45.05 139.87 46.45 141.88 46.45 141.88 47.44 139.87 47.44 139.87 49.05 142.09 49.05 142.09 50.04 138.66 50.04 138.66 44.06 142.01 44.06"/><polygon class="cls-3" points="146 44.06 146 45.05 144.69 45.05 144.69 50.04 143.48 50.04 143.48 45.05 142.17 45.05 142.17 44.06 146 44.06"/><polygon class="cls-3" points="149.99 44.06 149.99 45.05 148.68 45.05 148.68 50.04 147.47 50.04 147.47 45.05 146.16 45.05 146.16 44.06 149.99 44.06"/><polygon class="cls-3" points="153.57 44.06 153.57 45.05 151.43 45.05 151.43 46.45 153.44 46.45 153.44 47.44 151.43 47.44 151.43 49.05 153.65 49.05 153.65 50.04 150.22 50.04 150.22 44.06 153.57 44.06"/><path class="cls-3" d="M154.21,44.06h2.23A1.42,1.42,0,0,1,158,45.6a1.31,1.31,0,0,1-1,1.47v0c0.82,0.11.95,0.56,1,1.83a1.17,1.17,0,0,0,.27,1.07V50H157a1.18,1.18,0,0,1-.15-0.63l0-1.15a0.67,0.67,0,0,0-.71-0.75h-0.65V50h-1.21v-6Zm1.21,2.61h0.5a0.79,0.79,0,0,0,.91-0.9,0.74,0.74,0,0,0-.84-0.83h-0.57v1.72Z"/><polygon class="cls-3" points="163.58 44.06 163.58 45.05 161.44 45.05 161.44 46.45 163.45 46.45 163.45 47.44 161.44 47.44 161.44 49.05 163.66 49.05 163.66 50.04 160.23 50.04 160.23 44.06 163.58 44.06"/><polygon class="cls-3" points="165.62 44.06 167.08 48.15 167.1 48.15 167.1 44.06 168.21 44.06 168.21 50.04 166.83 50.04 165.35 45.85 165.33 45.85 165.33 50.04 164.23 50.04 164.23 44.06 165.62 44.06"/><polygon class="cls-3" points="172.44 44.06 172.44 45.05 170.3 45.05 170.3 46.45 172.31 46.45 172.31 47.44 170.3 47.44 170.3 49.05 172.52 49.05 172.52 50.04 169.09 50.04 169.09 44.06 172.44 44.06"/><path class="cls-3" d="M173.09,44.06h2.23a1.42,1.42,0,0,1,1.59,1.54,1.31,1.31,0,0,1-1,1.47v0c0.82,0.11.95,0.56,1,1.83a1.17,1.17,0,0,0,.27,1.07V50h-1.31a1.16,1.16,0,0,1-.15-0.63l0-1.15a0.67,0.67,0,0,0-.71-0.75H174.3V50h-1.21v-6Zm1.21,2.61h0.5a0.79,0.79,0,0,0,.91-0.9,0.74,0.74,0,0,0-.84-0.83H174.3v1.72Z"/><path class="cls-3" d="M180.17,45.83a0.88,0.88,0,0,0-.69-1c-0.59,0-.82.6-0.82,2.09s0.13,2.35.83,2.35a0.88,0.88,0,0,0,.75-1V47.7h-0.8V46.81h2V50H180.5V49.48h0a1.35,1.35,0,0,1-1.26.67c-1.49,0-1.78-1.11-1.78-3.17s0.47-3,2-3a1.65,1.65,0,0,1,1.86,1.89h-1.16Z"/><polygon class="cls-3" points="182.8 44.06 183.59 46.37 183.61 46.37 184.45 44.06 185.76 44.06 184.21 47.68 184.21 50.04 183 50.04 183 47.68 181.44 44.06 182.8 44.06"/><path class="cls-3" d="M69.09,40.38c0-.08-0.05-0.15-0.08-0.23-2.61,3-9,4.89-14.76,4.46a36.14,36.14,0,0,1-12.84-3.94,28.71,28.71,0,0,0,11.7,6.94c5.27,1.56,10.89,1.46,14.06-.19,2.33-1.56,2.85-4.36,1.92-7.05"/><path class="cls-3" d="M61.85,21.71c10.38,6.11,4.2,25.34-4.06,31.52C50.11,59,41.93,56.34,40.16,51a6.39,6.39,0,0,0,7.35,2.22c7.59-3,11.49-16.74,12-21.5,0.34-4.1-.2-6.85-1.62-8.58-1.64-1.72-4.14-2.56-7.8-1.41,2.52-2.06,7.92-2.31,11.77,0"/><path class="cls-3" d="M67.65,47.16l0.12-.08,0,0a4.92,4.92,0,0,0,.62-0.48l0.27-.27c4-4.09,4.89-15.45-5.06-20.83-3.54-1.92-11.77-4.6-20-.46a15.38,15.38,0,0,0-7,8.07c1.12-1.83,3-3.08,6.84-3.61A32.68,32.68,0,0,1,57.58,31.4a27.94,27.94,0,0,1,8,4.4A11.22,11.22,0,0,1,69,40.15c0,0.07.06,0.15,0.08,0.23,0.93,2.69.4,5.49-1.92,7.05h0l0.33-.18,0.05,0,0.1-.06"/><path class="cls-3" d="M37.91,39.64a12.47,12.47,0,0,0,.9,1.14c2-4.68,12.92-7.72,16.14-7.68-7.24-2.33-14.33-1.22-17.18,1.25-1,1.15-1.36,2.88.14,5.29"/><path class="cls-3" d="M59.22,50.25c-5.82-.32-14.29-2.56-20.29-9.34l-0.11-.13a12.38,12.38,0,0,1-.9-1.14c-1.5-2.41-1.18-4.14-.14-5.28h0a5.12,5.12,0,0,0-.68.72c-1.54,2-1.72,5.2-.68,8.61,2.29,7.4,12.29,11.86,20.41,10.63a18.68,18.68,0,0,0,9.79-4.88,20.84,20.84,0,0,1-7.4.82"/></g></svg>