<svg id="Layer_1" data-name="Layer 1" xmlns="http://www.w3.org/2000/svg" viewBox="0 0 254 77.11"><defs><style>.cls-1{fill:#fff;}</style></defs><title>LD_website logo</title><path class="cls-1" d="M80.13,21.68l-0.11,0a0.4,0.4,0,0,0-.17.19,1.31,1.31,0,0,0-.09.55c0,0.17,0,.32,0,0.47s0,0.33,0,.48a3,3,0,0,1-.25,1.17,2.92,2.92,0,0,1-.14.27,4.2,4.2,0,0,1-1.43,1.44,4.47,4.47,0,0,1-.44.25l-0.4.18q-0.44.21-.77,0.4a5.71,5.71,0,0,0-.55.36,2.42,2.42,0,0,0-.48.45,0.71,0.71,0,0,0-.17.61,0.49,0.49,0,0,0,.08.19,0.6,0.6,0,0,0,.44.23H76.2l0.6-.07c0.26,0,.53-0.06.8-0.08l0.63,0H78.6a2.79,2.79,0,0,1,1,.27,4.18,4.18,0,0,1,.45.25,4.94,4.94,0,0,1,1.45,1.78l0.14,0.25A3.1,3.1,0,0,0,83,32.74a1.21,1.21,0,0,0,.76,0,0.68,0.68,0,0,0,.45-0.58,2.27,2.27,0,0,0,0-.35c0-.07,0-0.13,0-0.17v0s0-.13,0-0.25a6.09,6.09,0,0,1,0-.74,2.79,2.79,0,0,1,.21-1,4.7,4.7,0,0,1,.29-0.56,3.08,3.08,0,0,1,.38-0.5,3.22,3.22,0,0,1,.57-0.47,2.78,2.78,0,0,0,.67-0.59,0.87,0.87,0,0,0,.21-0.78,1,1,0,0,0-.07-0.19,0.79,0.79,0,0,0-.36-0.36l-0.2-.07-0.12,0H85.72l-0.16,0-0.24,0-0.49,0-0.54-.06-0.36,0a2.8,2.8,0,0,1-1.12-.25l-0.28-.17a2.65,2.65,0,0,1-1.08-1.28,7.29,7.29,0,0,1-.31-0.94C81.1,23.06,81,22.89,81,22.74a2.45,2.45,0,0,0-.5-0.91,0.59,0.59,0,0,0-.19-0.13l-0.09,0H80.13"/><path class="cls-1" d="M70.06,51a1.43,1.43,0,0,0-1.15.43,1.55,1.55,0,0,0,.47,1.76,4.8,4.8,0,0,0,3.27,1.3c1.15,0.1,2.18.26,3,.26a10.94,10.94,0,0,0,2.89-.34L79.82,54l0.42-.11a1.17,1.17,0,0,0,1-.53c0-.12,0-0.18-0.27-0.21-0.55-.07-1.6,0-2.3,0a16,16,0,0,1-4-.72,10.84,10.84,0,0,1-1.23-.55,8.65,8.65,0,0,0-1.59-.6A6.63,6.63,0,0,0,70.06,51M88,35.9c1.21,0.32,2.44.6,3.24,0.88a14.49,14.49,0,0,1,1.84.72,10.39,10.39,0,0,1,2.45,1.59c0.47,0.51.11,0.94,0.11,1.45a4.35,4.35,0,0,0,.44,1.13,0.54,0.54,0,0,1-.59.54c-0.45-.08-1.71-0.72-2.3-0.92s-1.32-.48-2-0.69c-0.45-.13-2-0.55-2.85-0.74a17.46,17.46,0,0,0-4.14-.56,32.39,32.39,0,0,0-7.69.84,23.19,23.19,0,0,0-6.53,3A4.61,4.61,0,0,0,68.23,47a2.37,2.37,0,0,0,1.44,2.56c0.75,0.28.92-.14,0.94-0.51a10.8,10.8,0,0,1-.19-2,3,3,0,0,1,1.16-2.26A21.57,21.57,0,0,1,75,43c1.45-.61,3.35-1.21,4.31-0.89s-0.44,1-1.49,1.71a3.67,3.67,0,0,0-1.63,3,3.85,3.85,0,0,0,1.21,2.43,6.09,6.09,0,0,0,1.63,1,7.67,7.67,0,0,0,1.3.51c1.42,0.24,2.34-.2,3.42-0.22,0.77,0,3.34,0,4.16-.05a12.8,12.8,0,0,0,1.42-.32,0.74,0.74,0,0,1,.77,1,2.16,2.16,0,0,1-1.26,1c-0.31.16-2.13,0.84-2.65,1.06s-1.07.83-.28,1.51a2.1,2.1,0,0,0,2.25,0c0.64-.34,2.66-1.18,3.1-1.37A5.88,5.88,0,0,1,93,52.86c2.16,0,2,1.19,1.31,1.77a9.62,9.62,0,0,1-2,1.08c-0.57.25-1.47,0.53-2.63,0.91s-1.7.47-2.19,0.6-1.35.21-2.62,0.46a21.81,21.81,0,0,1-3.34.26c-0.61,0-1.81.19-2.64,0.13L77.08,58a71.92,71.92,0,0,1-7.9-.65,20,20,0,0,1-5.22-1.68c-1.19-.6-7-3.51-6.95-9.08,0.08-4.4,6.44-7.58,7.69-8.28C67,37,71.95,35.09,79.05,34.91a36.75,36.75,0,0,1,9,1"/><path class="cls-1" d="M72.65,54.46a4.79,4.79,0,0,1-3.27-1.3,1.55,1.55,0,0,1-.47-1.76A1.42,1.42,0,0,1,70.06,51a6.65,6.65,0,0,1,1.74.25,8.69,8.69,0,0,1,1.59.6,10.93,10.93,0,0,0,1.23.55,16,16,0,0,0,4,.72c0.31,0,.69,0,1.06,0a11,11,0,0,1,1.23,0c0.25,0,.29.09,0.27,0.21a1.17,1.17,0,0,1-1,.53L79.82,54l-1.33.38a10.91,10.91,0,0,1-2.89.34h0c-0.77,0-1.79-.16-2.94-0.26m6.41-19.55C71.95,35.09,67,37,64.69,38.26c-1.25.69-7.61,3.87-7.69,8.28,0,0,0,.07,0,0.1v0.09c0,5.45,5.77,8.3,6.95,8.89a20,20,0,0,0,5.22,1.68,72.39,72.39,0,0,0,7.9.66l1.77,0.12c0.83,0.06,2-.13,2.64-0.13a22,22,0,0,0,3.34-.26c1.27-.24,2.18-0.34,2.62-0.46s1.06-.23,2.19-0.6,2.06-.66,2.63-0.91a9.52,9.52,0,0,0,2-1.08c0.66-.57.86-1.73-1.31-1.77a5.92,5.92,0,0,0-1.75.38c-0.45.19-2.47,1-3.1,1.37a2.1,2.1,0,0,1-2.25,0c-0.79-.68-0.3-1.27.28-1.51s2.34-.9,2.65-1.06a2.16,2.16,0,0,0,1.26-1,0.74,0.74,0,0,0-.77-1,13.07,13.07,0,0,1-1.42.32c-0.55.06-1.9,0.06-3,.05h-1.2c-1.08,0-2,.46-3.42.22a7.92,7.92,0,0,1-1.3-.51,6.13,6.13,0,0,1-1.63-1,3.85,3.85,0,0,1-1.21-2.43,3.67,3.67,0,0,1,1.63-3c1.05-.75,2.45-1.39,1.49-1.71S76.41,42.39,75,43a21.49,21.49,0,0,0-3.38,1.72A3,3,0,0,0,70.42,47a10.69,10.69,0,0,0,.19,2c0,0.37-.18.78-0.94,0.51A2.36,2.36,0,0,1,68.23,47a4.61,4.61,0,0,1,1.69-3.8,23.17,23.17,0,0,1,6.53-3,32.33,32.33,0,0,1,7.7-.84,17.44,17.44,0,0,1,4.14.56c0.83,0.19,2.41.61,2.85,0.74,0.73,0.21,1.6.54,2,.69s1.86,0.84,2.3.92a0.59,0.59,0,0,0,.59-0.42V41.67h0a4.38,4.38,0,0,1-.44-1.13c0-.51.36-0.94-0.11-1.45a10.36,10.36,0,0,0-2.45-1.59,14.27,14.27,0,0,0-1.84-.72c-0.79-.28-2-0.56-3.24-0.88a37.24,37.24,0,0,0-7.57-1H79.05Z"/><path class="cls-1" d="M65.58,15.78a1.06,1.06,0,0,0-.22.22c-0.07.09-.13,0.18-0.2,0.28s-0.13.19-.2,0.27l-0.13.14-0.15.14-0.23.2-0.23.2L64,17.44l-0.27.23L63.37,18,63,18.28l-0.34.28a8.23,8.23,0,0,0-.65.61l-0.24.27-0.27.34L61.34,20a3.66,3.66,0,0,0-.22.39c-0.1.2-.2,0.42-0.25,0.54a1.13,1.13,0,0,0-.06.29,1.62,1.62,0,0,1-.19.67c0,0.06-.1.16-0.19,0.29L60,22.81a1.82,1.82,0,0,0-.29.85,4.34,4.34,0,0,1-.11.6c0,0.14-.07.28-0.09,0.39a3.21,3.21,0,0,0,0,.45,4.59,4.59,0,0,0,0,.47c0,0.07,0,.15,0,0.22s0,0.31,0,.47a1.25,1.25,0,0,1,0,.33,2.67,2.67,0,0,0-.11.58,2.57,2.57,0,0,0,0,.54,3.72,3.72,0,0,0,.14.59c0,0.09.05,0.17,0.07,0.25l0,0.11a15.61,15.61,0,0,0,.54,2.19l0.08,0.2,0.25,0.58L60.67,32l0.13,0.21a6.21,6.21,0,0,0,4.48,2.69,7.59,7.59,0,0,0,3.63-1.26,5,5,0,0,0,1.24-1.35,14.9,14.9,0,0,0,.73-1.74l0.1-.26a21.16,21.16,0,0,0,.57-2.8V27.29s0,0,0,0V26.86c0-.15,0-0.31-0.07-0.46s-0.09-.36-0.12-0.54-0.05-.31-0.08-0.51,0-.3-0.05-0.45,0-.38,0-0.47,0-.22,0-0.33,0-.27-0.06-0.4a1.49,1.49,0,0,0-.1-0.32l-0.11-.22a4.08,4.08,0,0,0-.24-0.34c-0.06-.08-0.12-0.16-0.17-0.25a2.12,2.12,0,0,1-.19-0.38l-0.11-.27c-0.08-.2-0.15-0.41-0.24-0.62a3.17,3.17,0,0,0-.29-0.54l-0.09-.13a3.18,3.18,0,0,1-.29-0.55,1.31,1.31,0,0,0-.22-0.35l-0.15-.2L68.56,19l-0.19-.27a3.22,3.22,0,0,1-.24-0.46,1.89,1.89,0,0,0-.34-0.55,2.71,2.71,0,0,0-.37-0.31A4,4,0,0,1,66.89,17c-0.08-.09-0.18-0.2-0.28-0.32l-0.13-.16-0.35-.42a1.28,1.28,0,0,0-.41-0.37h0a0.21,0.21,0,0,0-.11,0"/><path class="cls-1" d="M107.65,66A7.9,7.9,0,0,1,103,67.2c-3.33,0-6.81-2-6.81-6.16,0-5.61,4-8,7.51-8a6,6,0,0,1,3.39.85,4.47,4.47,0,0,1-.76,2.13h-0.17a4.12,4.12,0,0,0-3.42-1.6c-2.1,0-3.85,1.66-3.85,5,0,4.61,2.36,6.81,5.7,6.81a6.28,6.28,0,0,0,2.81-.91Z"/><path class="cls-1" d="M116.77,60V65a2.75,2.75,0,0,1-2.22,1.2,2.49,2.49,0,0,1-2.72-2.66c0-2.75,2.87-3.48,4.53-3.48h0.41Zm4.67,6a1,1,0,0,1-.53.12c-1.61,0-1.61-2.19-1.61-4.24V57.76c0-3-.7-4.73-4-4.73a7.28,7.28,0,0,0-5.84,3.12,3.37,3.37,0,0,0,.76,1.17h0.23c0.56-1.08,1.28-2.92,3.62-2.92s2.72,1.66,2.72,3.59v0.67c-2.57.76-7.63,1.9-7.63,5.7,0,1.61,1.46,2.83,3.62,2.83a6.87,6.87,0,0,0,4.3-1.23,2.18,2.18,0,0,0,2.31,1.23,3.49,3.49,0,0,0,2.22-.73Z"/><path class="cls-1" d="M122.88,66.12l0.7-.09c1-.12,1.29-0.12,1.29-2.14V58.2c0-3,0-3.65-.82-3.65a3.09,3.09,0,0,0-.7.18l-0.26.09-0.24-.7A17.9,17.9,0,0,1,127.09,53a8.19,8.19,0,0,1,.21,1.9c0.44-.47,1.69-1.9,3.18-1.9a4.62,4.62,0,0,1,2.22.88,5.4,5.4,0,0,1-1.49,1.67,14.62,14.62,0,0,0-2.4-.64,1.31,1.31,0,0,0-1.4,1.14V63.9c0,2,.23,2,1.78,2.14l0.67,0.09v0.64h-7V66.12Z"/><path class="cls-1" d="M133.85,66.12l0.7-.09c1-.12,1.28-0.18,1.28-2.14V58.23c0-2.86,0-3.68-.82-3.68-0.14,0-.35,0-0.41,0l-0.64.18-0.12-.7a24.34,24.34,0,0,1,4.53-1V63.9c0,2,.23,2,1.31,2.14l0.67,0.09v0.64h-6.52V66.12Zm1.31-18.06a1.64,1.64,0,1,1,3.27,0,1.64,1.64,0,0,1-3.27,0"/><path class="cls-1" d="M141.54,66.12l0.7-.09c1-.12,1.29-0.12,1.29-2.14V50.4c0-2.31,0-3.65-1.05-3.65-0.15,0-.35,0-0.41,0l-0.44.06-0.09-.64a30,30,0,0,1,4.53-.47V63.9c0,2,.24,2,1.32,2.14l0.67,0.09v0.64h-6.51V66.12Z"/><path class="cls-1" d="M150,66.12l0.7-.09c1-.12,1.28-0.12,1.28-2.14V50.4c0-2.31,0-3.65-1.05-3.65-0.15,0-.35,0-0.41,0l-0.44.06L150,46.19a30,30,0,0,1,4.53-.47V63.9c0,2,.23,2,1.31,2.14l0.67,0.09v0.64H150V66.12Z"/><path class="cls-1" d="M158.29,66.12L159,66c1-.12,1.28-0.18,1.28-2.14V58.23c0-2.86,0-3.68-.82-3.68-0.15,0-.35,0-0.41,0l-0.64.18-0.12-.7a24.38,24.38,0,0,1,4.53-1V63.9c0,2,.23,2,1.31,2.14l0.67,0.09v0.64h-6.51V66.12Zm1.31-18.06a1.64,1.64,0,1,1,1.64,1.63,1.63,1.63,0,0,1-1.64-1.63"/><path class="cls-1" d="M168.52,60c0-2.8,1.05-6,4.09-6,3.42,0,4.73,3,4.73,6.49,0,3.1-1.34,5.64-4,5.64-3.3,0-4.82-2.93-4.82-6.17m4.33,7.19c3.71,0,7.19-2.39,7.19-7.45,0-4-2.86-6.72-7-6.72a7,7,0,0,0-7.16,7.33c0,4.59,3.3,6.84,7,6.84"/><path class="cls-1" d="M181.45,66.12l0.7-.09c1-.12,1.29-0.26,1.29-2.14V58.23c0-2.86,0-3.68-.82-3.68-0.15,0-.35,0-0.41,0l-0.64.18-0.12-.7A24.33,24.33,0,0,1,186,53v1.84A6.73,6.73,0,0,1,190.45,53C195,53,195,56.18,195,59.54V63.9c0,1.87.23,2,1.31,2.14L197,66.12v0.64h-6.52V66.12l0.7-.09c1-.12,1.28-0.26,1.28-2.14V60c0-2.75,0-5.58-3.48-5.58A3.76,3.76,0,0,0,186,56V63.9c0,1.87.24,2,1.32,2.14L188,66.12v0.64h-6.52V66.12Z"/></svg>