<svg id="Layer_1" data-name="Layer 1" xmlns="http://www.w3.org/2000/svg" viewBox="0 0 230 138"><defs><style>.cls-1{fill:#fff;}.cls-2{fill:#b2b2b2;}.cls-3{fill:#9d9d9c;}.cls-4{fill:#c6c6c6;}.cls-5{fill:#9cd4db;}.cls-6{fill:#878787;}.cls-7{fill:#706f6f;}.cls-8{fill:#774a85;}.cls-9{fill:#443d71;}</style></defs><title>LD_website logo</title><path class="cls-1" d="M65.48,85.07a7.49,7.49,0,0,0,3.18-.71L68.87,85h0.86V77.8c0-1.82-.48-3.5-4-3.5a10,10,0,0,0-3,.44l-0.22.08v1.24L63,75.89a8.77,8.77,0,0,1,2.74-.4c1.88,0,2.67.32,2.67,2.29v0.4l-3,.18c-2.54.17-3.78,1.26-3.78,3.34,0,1,.37,3.36,3.78,3.36m3-2a6,6,0,0,1-2.92.77c-1.74,0-2.55-.69-2.55-2.17s0.71-2,2.31-2.13l3.16-.21v3.74Z"/><path class="cls-1" d="M73.38,76.16a5.31,5.31,0,0,1,2.82-.67c1.41,0,1.85.23,1.85,1.65V85h1.29V77.21a5.09,5.09,0,0,0-.08-0.91,5.5,5.5,0,0,1,2.9-.8c1.41,0,1.85.23,1.85,1.65V85h1.29V77.21c0-2.06-.91-2.91-3.14-2.91a6.87,6.87,0,0,0-3.34.94,3,3,0,0,0-2.62-.94,6.83,6.83,0,0,0-3.06.73l-1.06-.3V85h1.29v-8.8"/><path class="cls-1" d="M95.36,83.26l-0.43.14a9.15,9.15,0,0,1-3,.48c-2.06,0-3-1.11-3.15-3.59h7.12v-0.6c0-2.84-.3-5.38-4-5.38-3.93,0-4.43,2.88-4.43,5.38s0.5,5.38,4.43,5.38a10.33,10.33,0,0,0,3.27-.52l0.21-.08V83.26m-3.48-7.76c2.45,0,2.7,1.69,2.72,3.59H88.73c0.12-2.48,1.09-3.59,3.15-3.59"/><path class="cls-1" d="M102.12,74.3c-3.93,0-4.43,2.88-4.43,5.38s0.5,5.38,4.43,5.38a10.14,10.14,0,0,0,2.86-.41l0.23-.07v-1.2l-0.42.11a9,9,0,0,1-2.67.38c-1.56,0-3.16-.5-3.16-4.19,0-2.07.37-4.19,3.16-4.19a9,9,0,0,1,2.67.39L105.2,76v-1.2L105,74.71a10.14,10.14,0,0,0-2.86-.41"/><path class="cls-1" d="M63,106l1.25-.66V96.55h3.39V95.36H64.24V93.43c0-1.32.8-1.93,2.53-1.93a9.16,9.16,0,0,1,1.17.08l0.38,0.06V90.45l-0.26-.05a11.16,11.16,0,0,0-1.29-.09c-2.51,0-3.78,1.05-3.78,3.12v2l-1.88.32v0.84H63V106"/><path class="cls-1" d="M73.06,103.93c2.29,0,4.41-.65,4.41-5.38,0-2.8-.53-5.38-4.41-5.38-2.29,0-4.41.65-4.41,5.38,0,2.8.54,5.38,4.41,5.38m0-9.57c2.91,0,3.14,1.9,3.14,4.19s-0.24,4.19-3.14,4.19-3.14-1.9-3.14-4.19,0.24-4.19,3.14-4.19"/><path class="cls-1" d="M79.15,96.15c0,1.83.85,2.49,3.66,2.82,2.33,0.27,2.52.68,2.52,1.87s-0.94,1.89-3,1.89a9,9,0,0,1-2.67-.39l-0.41-.11v1.2l0.23,0.07a10.07,10.07,0,0,0,2.86.41c3.48,0,4.21-1.69,4.21-3.1,0-2-.86-2.72-3.68-3.06-2.18-.26-2.51-0.47-2.51-1.62s0.75-1.79,2.67-1.79a9,9,0,0,1,2.67.38l0.41,0.11v-1.2l-0.23-.07a10.12,10.12,0,0,0-2.86-.41c-2.6,0-3.92,1-3.92,3"/><path class="cls-1" d="M91,90.12l-1.26.69V93.3l-1.88.32v0.84h1.88v6.49c0,2.47,2,3,3.66,3H94V102.8H93.44c-1.62,0-2.41-.55-2.41-1.69V94.46h3.39V93.27H91V90.12"/><path class="cls-1" d="M99.86,93.17c-3.93,0-4.43,2.88-4.43,5.38s0.5,5.38,4.43,5.38a10.33,10.33,0,0,0,3.27-.52l0.21-.08v-1.21l-0.43.14a9.19,9.19,0,0,1-3,.48c-2.06,0-3-1.11-3.15-3.59h7.12V98.55c0-2.84-.3-5.38-4-5.38m-3.15,4.78c0.12-2.48,1.09-3.59,3.15-3.59,2.45,0,2.7,1.69,2.72,3.59H96.71Z"/><path class="cls-1" d="M107.2,95a7.55,7.55,0,0,1,4-.61l0.37,0.05v-1.2l-0.28,0a7.2,7.2,0,0,0-1-.06,8.24,8.24,0,0,0-3.39.75l-1-.29v10.21h1.29V95"/><polyline class="cls-1" points="70.59 121.05 68.21 113.18 68.14 112.95 66.94 112.95 64.49 121.05 62.37 113 62.36 112.95 61 112.95 63.97 123.57 63.98 123.62 64.95 123.62 67.54 115.17 70.06 123.38 70.13 123.62 71.1 123.62 73.96 113.37 74.08 112.95 72.72 112.95 70.59 121.05"/><path class="cls-1" d="M79.76,112.85a8.53,8.53,0,0,0-3.14.64V108l-1.25.67v14.89h1.25v-8.8a6.44,6.44,0,0,1,3.14-.67c1.48,0,2.29.3,2.29,1.85v7.62h1.29V116c0-2.17-1.07-3.1-3.58-3.1"/><path class="cls-1" d="M89.59,112.85c-3.93,0-4.43,2.88-4.43,5.38s0.5,5.38,4.43,5.38a10.37,10.37,0,0,0,3.27-.52l0.21-.08v-1.21l-0.43.14a9.18,9.18,0,0,1-3,.48c-2.06,0-3-1.11-3.15-3.59h7.12v-0.6c0-2.84-.3-5.38-4-5.38m0,1.19c2.45,0,2.7,1.69,2.72,3.59H86.44c0.12-2.48,1.09-3.59,3.15-3.59"/><path class="cls-1" d="M99.7,112.85c-3.93,0-4.43,2.88-4.43,5.38s0.5,5.38,4.43,5.38a10.36,10.36,0,0,0,3.27-.52l0.21-.08v-1.21l-0.43.14a9.17,9.17,0,0,1-3,.48c-2.06,0-3-1.11-3.15-3.59h7.12v-0.6c0-2.84-.3-5.38-4-5.38m0,1.19c2.45,0,2.7,1.69,2.72,3.59H96.55c0.12-2.48,1.09-3.59,3.15-3.59"/><path class="cls-1" d="M107.2,121.8V108l-1.25.69v13.2a1.6,1.6,0,0,0,1.83,1.77h0.33v-1.13h-0.33c-0.48,0-.58-0.06-0.58-0.68"/><path class="cls-1" d="M113.91,112.85c-3.93,0-4.43,2.88-4.43,5.38s0.5,5.38,4.43,5.38a10.36,10.36,0,0,0,3.27-.52l0.21-.08v-1.21l-0.43.14a9.18,9.18,0,0,1-3,.48c-2.06,0-3-1.11-3.15-3.59h7.12v-0.6c0-2.84-.3-5.38-4-5.38m0,1.19c2.45,0,2.7,1.69,2.72,3.59h-5.87c0.12-2.48,1.09-3.59,3.15-3.59"/><path class="cls-1" d="M125.26,112.92a6.91,6.91,0,0,0-1-.06,8.24,8.24,0,0,0-3.39.75l-1-.29v10.21h1.29v-8.8a6.44,6.44,0,0,1,3.14-.67,6.35,6.35,0,0,1,.89.06l0.37,0.05V113l-0.28,0"/><path class="cls-2" d="M118.58,45.95a11.29,11.29,0,0,1,5.34-6.69l-5.43-9.68h0a22.24,22.24,0,0,0-10.57,13.33l10.67,3"/><path class="cls-3" d="M118.58,45.95L129.4,49l-5.48-9.77a11.29,11.29,0,0,0-5.34,6.69"/><path class="cls-3" d="M158.32,54.38a22.25,22.25,0,0,0-2-16.89h0l-19.4,10.83,21.41,6.06"/><path class="cls-2" d="M140.22,52.08a11.25,11.25,0,0,0-1-8.48L129.4,49l10.83,3.05"/><path class="cls-4" d="M150.68,55a22.13,22.13,0,0,1-10.44,13.26l5.25,9.33A32.74,32.74,0,0,0,161,57.94h0L150.68,55"/><path class="cls-5" d="M129.4,49h0m10.84,19.26L129.4,49h0l10.84,19.26h0"/><path class="cls-6" d="M150.68,55L129.4,49l10.84,19.26A22.13,22.13,0,0,0,150.68,55"/><path class="cls-2" d="M137,69.76A22.13,22.13,0,0,1,126.79,71l-5.26,18.57a32.73,32.73,0,0,0,24.88-2.94h0L137,69.76"/><path class="cls-2" d="M137,69.76a22.37,22.37,0,0,0,3.2-1.47L129.4,49l-6,21.26a22.52,22.52,0,0,0,3.41.67l3.67-13L137,69.76"/><path class="cls-3" d="M118.11,23.53a22.24,22.24,0,0,1,16.89-2h0L129,43,118.11,23.53"/><path class="cls-3" d="M129.4,49l9.8-5.43a11.34,11.34,0,0,0-6.77-5.32h0a11.18,11.18,0,0,0-8.48,1L129.4,49"/><path class="cls-7" d="M93.77,65.61a32.73,32.73,0,0,1-2.89-24.89h0l31.5,8.92-28.61,16"/><path class="cls-4" d="M119.75,54.42h0l-9.61,5.36h0a22.11,22.11,0,0,0,13.24,10.49l3-10.6a11.13,11.13,0,0,1-6.63-5.26"/><path class="cls-8" d="M129.4,49h0m-3,10.66h0l0.57-2-0.57,2"/><polyline class="cls-9" points="126.38 59.69 126.38 59.69 126.95 57.68 129.4 49.03 126.38 59.69"/><path class="cls-6" d="M119.74,54.41h0a11.12,11.12,0,0,0,6.63,5.26l3-10.66-9.65,5.39"/><path class="cls-7" d="M137.05,31.79a12.32,12.32,0,0,1,7.34,5.84h0l-10.69,6,3.35-11.82"/><path class="cls-7" d="M134.92,39.33l-1.21,4.29,3.9-2.18a11.31,11.31,0,0,0-2.68-2.11"/><path class="cls-7" d="M140.62,49.37a11.23,11.23,0,0,0-.32-3l-3.4,1.9,3.72,1.05"/><path class="cls-3" d="M137,69.76L130.46,58l-3.67,13A22.13,22.13,0,0,0,137,69.76"/><path class="cls-2" d="M129,43l1.43-5.06a11.08,11.08,0,0,0-4.05.37L129,43"/></svg>