<svg id="Layer_1" data-name="Layer 1" xmlns="http://www.w3.org/2000/svg" viewBox="0 0 230 69"><defs><style>.cls-1{fill:#fff;fill-rule:evenodd;}</style></defs><title>LD_website logo</title><path class="cls-1" d="M68,57.36c-2.64,2.22-6.53,2.22-9.87,2.22H46V57.77c2.5,0,3.62-.69,3.62-3.48V34.83c0-2.78-1.11-3.48-3.62-3.48V29.55H58c1.39,0,2.92.14,4.31,0.28,3.89,0.42,7.09,2.92,7.09,7.09,0,3.75-2.5,5.84-6,6.53,4.31,0.56,7.23,3.34,7.23,7.79A7.81,7.81,0,0,1,68,57.36h0ZM57.54,32.05H55.32V42.62a4.29,4.29,0,0,0,1.39.14c3.48,0,7.09-1.53,7.09-5.56S61,32.05,57.54,32.05h0Zm4.73,14.18a8.21,8.21,0,0,0-4.73-1.11c-0.83,0-1.53.14-2.22,0.14v6.67c0,2.64,0,5.14,3.34,5.14A5.77,5.77,0,0,0,64.49,51a5.73,5.73,0,0,0-2.22-4.73h0Z"/><path class="cls-1" d="M116.35,59.58V57.91c1.25-.14,2.36-0.42,2.36-1.81a11.91,11.91,0,0,0-.56-2.5L117,50.41h-9.87l-1,2.64a10.67,10.67,0,0,0-.83,3.2c0,1.25,1.25,1.67,2.36,1.67v1.67H89.66V57.91c1.25,0,2.36-.56,2.36-1.81A11,11,0,0,0,91.19,53l-0.83-2.64h-10l-1,3.06a19.86,19.86,0,0,0-.7,2.78c0,1.25,1.11,1.53,2.36,1.53v1.81H71.86V57.77c2.36-.14,2.92-1.39,3.75-3.34l9-25h4l9,25.58c0.83,1.95,1.25,2.78,2.36,2.78s1.53-.83,2.5-3.48l8.76-24.89h4L124,53.19a17,17,0,0,0,1.67,3.75c0.42,0.56,1.11.7,2.22,1v1.67H116.35Zm-4.17-23.91L107.87,47.9h8.34l-4-12.24h0Zm-26.69,0L81.18,47.9h8.34l-4-12.24h0Z"/><path class="cls-1" d="M174.05,28.3L168.77,24,176,20.1l-1.95,8.2h0Zm-34.62,1.11h28.92l-28.92,30v-30h0Zm14,30,16.13-30v30H153.48Z"/></svg>