<svg id="Layer_1" data-name="Layer 1" xmlns="http://www.w3.org/2000/svg" viewBox="0 0 230 62"><defs><style>.cls-1{fill:#fff;}</style></defs><title>LD_website logo</title><path class="cls-1" d="M174.08,21.46c4,0,6.92,1.53,6.92,7.14V42.87h-6.56V29.37c0-2.38-.94-3.31-3.55-3.28a15.9,15.9,0,0,0-3.14.42,1,1,0,0,1,0,.26,4.89,4.89,0,0,1,.14,1.38V42.87h-6.56v-14c0-1.88-.82-2.81-3.31-2.81a15.62,15.62,0,0,0-3.14.39V42.87h-6.56v-21h6.34v1.4c3.43-1.29,4.94-1.81,7-1.81a6,6,0,0,1,4.7,1.82c4-1.35,5.65-1.83,7.68-1.83M136.81,33.09v5.67a10.62,10.62,0,0,1-2.4.29c-2,0-3.4-.81-3.4-2.95,0-1.57.9-2.47,2.63-2.78a21.46,21.46,0,0,1,3.17-.23M143,42.88V28.66c0-3.06-.74-4.7-2.17-5.76a9,9,0,0,0-5.36-1.41,38.17,38.17,0,0,0-9,1.43v3.37a41,41,0,0,1,6.76-.66c2.28,0,3.56.67,3.56,2.52V29.8a45.93,45.93,0,0,0-5.53.27c-4.16.47-6.68,2.41-6.68,6.63a6.11,6.11,0,0,0,6.41,6.5c1.87,0,3.42-.58,6-1.67v1.36h6ZM114.51,32.42c0,4.64-2.21,6.69-5.66,6.77a11.56,11.56,0,0,1-1.74-.1V26.36a10.91,10.91,0,0,1,2.24-.24c2.35,0,5.16,1.36,5.16,6.3m-1.63-10.93c-1.83,0-3.25.56-5.77,1.64V11.49h-6.54V41.81a34.44,34.44,0,0,0,8.74,1.4c6,0,11.86-3.6,11.86-11.51,0-6.86-3.82-10.21-8.29-10.21M54.2,47.3l5-4.53L72.92,51l18.93-27-9.5-2.08,2.84-9.28-9.62-1.1-5.25,2.38,10.49,1.59L78.09,25.72l-3-.83,1.5-6.67L65.42,16.09l-7,3.16,11.9,3.07L68.4,34.47l-4-1.7,0.69-7-12.29-4L41,27.16l12.42,6.26L54.2,47.3"/></svg>