<svg id="Layer_1" data-name="Layer 1" xmlns="http://www.w3.org/2000/svg" viewBox="0 0 254 135"><defs><style>.cls-1{fill:#fff;}</style></defs><title>LD_website logo</title><path class="cls-1" d="M97.69,76.26a10.59,10.59,0,0,1-.39-1.77c-0.09-.59-0.17-1.17-0.24-1.74l-0.39-3.34c-0.25-2.18-.49-4.28-0.8-6.43-0.61-4.28-1.5-8.73-2.76-14.31-0.26-1.16-.62-2.76-1-5-0.21-1.11-.44-2.39-0.62-3.79-0.09-.7-0.17-1.44-0.2-2.13a7.65,7.65,0,0,1,0-.86,0.75,0.75,0,0,0,0-.08,0,0,0,0,1,0,0h0v0.07l0,0.06v0l0,0.05a1.55,1.55,0,0,1-.15.3L91,37.48l-0.1.14a2.26,2.26,0,0,1-.22.26L90.5,38l-0.21.18a2.67,2.67,0,0,1-.47.29l-1.66.4a1.49,1.49,0,0,1-.64-0.12h0l0.12,0.1a6.43,6.43,0,0,1,.9,1,27.92,27.92,0,0,1,2.09,3.39c1.38,2.56,2.68,5.43,3.92,8.19s2.42,5.42,3.64,7.77c0.31,0.59.62,1.16,0.95,1.71a16.71,16.71,0,0,0,1.11,1.67L100.59,63l0.2,0.23L101,63.49l0.25,0.24,0.3,0.25,0.16,0.12,0.08,0.06,0.11,0.07,0.43,0.26,0.27,0.14,0.3,0.13,0.31,0.11,0.4,0.1a4.33,4.33,0,0,0,1.77,0,4.15,4.15,0,0,0,1.54-.66l0.29-.21,0.21-.19c0.14-.13.27-0.26,0.39-0.39l0.14-.15,0.12-.18a8.15,8.15,0,0,0,.78-1.5l0.13-.33,0.1-.3c0.07-.2.13-0.4,0.18-0.59a20,20,0,0,0,.47-2.09c0.23-1.3.36-2.48,0.47-3.61,0.21-2.25.32-4.27,0.41-6.12L111,39.6c0.11-2.38.23-4.12,0.31-5.28l0.13-1.72,0.09-1c0.06-.69.17-1.78,0.36-3.33a48.33,48.33,0,0,1,1.1-5.95,16.72,16.72,0,0,1,1.29-3.51,4.89,4.89,0,0,1,.87-1.23,2,2,0,0,1,.32-0.24l0.22-.07-1.77-.22a2.21,2.21,0,0,1,.42.37,7.58,7.58,0,0,1,1,1.48,19.37,19.37,0,0,1,1.07,2.42c0.35,0.92.67,2,1,3.05a113,113,0,0,1,2.82,15.39c0.69,5.5,1.17,11,1.53,15.73s0.6,8.61.74,10.87A111.56,111.56,0,0,0,124.26,81c0.42,2.15.91,4.24,1.49,6.39a69.18,69.18,0,0,0,2.14,6.72c0.24-2.49.62-4.73,0.91-6.92s0.56-4.3.75-6.47A103.11,103.11,0,0,0,129.71,66c-0.12-2.28-.35-6.21-0.71-11s-0.85-10.41-1.56-16.09a118.81,118.81,0,0,0-3-16.43c-0.35-1.26-.73-2.47-1.17-3.63a26.38,26.38,0,0,0-1.48-3.33,14.59,14.59,0,0,0-2.07-3,8.55,8.55,0,0,0-3.1-2.18L115.7,10l-0.9.12a8.36,8.36,0,0,0-2.62.82,9,9,0,0,0-2,1.43c-0.28.26-.5,0.52-0.74,0.78s-0.43.52-.6,0.78a13.59,13.59,0,0,0-.92,1.5A23.55,23.55,0,0,0,106,20.5a55,55,0,0,0-1.27,6.87c-0.21,1.69-.32,2.85-0.39,3.58l-0.09,1-0.14,1.8c-0.09,1.2-.21,3-0.33,5.44l-0.41,9.07c-0.09,1.8-.2,3.76-0.39,5.79-0.1,1-.22,2.05-0.39,3a13,13,0,0,1-.3,1.36c0,0.11-.06.19-0.08,0.27l0,0.13,0,0.09s0,0.07,0,.09l0,0v0s0,0,0,0a5.69,5.69,0,0,1,.65.43l1.36,0.75a1,1,0,0,1,.19.16l0.08,0.1,0.05,0.07a0.49,0.49,0,0,1,.07.14,0.09,0.09,0,0,1,0,0h0a0.16,0.16,0,0,1,0,0s0-.09,0-0.15l0-.09s0-.1,0-0.15l0.07-.15c0-.05.05-0.07,0.09-0.16a2.4,2.4,0,0,1,.24-0.39l0.07-.09,0.08-.12,0.18-.24,0.2-.23,0.1-.11,0.12-.14,0.26-.28,0.11-.12h0l0,0,0,0-0.1-.13a9.86,9.86,0,0,1-.62-0.95c-0.24-.4-0.49-0.86-0.75-1.36-1-2-2.2-4.62-3.45-7.4S98.57,42.72,97,39.82a34.55,34.55,0,0,0-2.69-4.32,13.32,13.32,0,0,0-2-2.16c-0.2-.18-0.46-0.37-0.7-0.54a7.53,7.53,0,0,0-.9-0.52,5.83,5.83,0,0,0-2.56-.62H87.26l-0.75.4a4.74,4.74,0,0,0-.62.4l-0.28.23-0.13.12-0.09.1c-0.12.13-.23,0.26-0.33,0.4l-0.15.21-0.12.19a6.58,6.58,0,0,0-.31.63l-0.05.13,0,0.12-0.07.23-0.07.24,0,0.18-0.07.36c0,0.22-.06.41-0.08,0.61A14.28,14.28,0,0,0,84,38c0,1.05.15,1.94,0.25,2.77,0.22,1.65.47,3,.7,4.22,0.46,2.39.85,4,1.12,5.25A77.33,77.33,0,0,0,90.8,64.47c0.9,2,1.88,3.94,3,5.89,0.55,1,1.13,2,1.76,3,0.32,0.5.64,1,1,1.5A10.35,10.35,0,0,0,97.69,76.26Z"/><path class="cls-1" d="M129.74,9.08c4,18.49,9.5,57.93,8.63,75.19m-1.75-49.64c1.31,4.51,19.93,45.63,29.59,31.17m0-47.78c-7.61-14.48-27.07,19.24-29.59,23.2"/><path class="cls-1" d="M166.22,18c0.12-.37.24-0.71,0.34-1a7.11,7.11,0,0,0,.14-1.08,6.37,6.37,0,0,0,0-1,4.85,4.85,0,0,0-.28-1,4.2,4.2,0,0,0-.56-1,4.34,4.34,0,0,0-.39-0.46q-0.23-.22-0.48-0.43a5.64,5.64,0,0,0-2.73-1.1,9,9,0,0,0-2.43.06,11.79,11.79,0,0,0-3,.93,22.16,22.16,0,0,0-5.3,3.61,45.94,45.94,0,0,0-3.73,3.74c-0.91,1-1.47,1.7-1.47,1.7s-0.57.66-1.42,1.71-2,2.48-3.06,4c-2.23,3.05-4.43,6.48-5.13,7.64-1.3,2.14-1,4-.07,6.95,3.05-.54,4.82-1.08,6.16-3.08,0.72-1.09,2.85-4.38,4.93-7.26,1-1.44,2.06-2.78,2.83-3.75s1.28-1.57,1.28-1.57,0.51-.61,1.32-1.5a40,40,0,0,1,3.16-3.14,15.72,15.72,0,0,1,3.52-2.45,5,5,0,0,1,1.14-.39,3,3,0,0,1,.47,0,1.07,1.07,0,0,0,.45-0.14l0.17-.06,0.2-.05a3.62,3.62,0,0,1,.52-0.09c0.2,0,.41,0,0.66,0l0.8,0c0.28,0,.58,0,0.92.09Z"/><path class="cls-1" d="M136.63,34.63a10.48,10.48,0,0,0-.49,1.08q-0.21.53-.37,1a9.85,9.85,0,0,0-.43,1.89,6.83,6.83,0,0,0,.59,3.69c0.61,1.42,2.61,5.6,4.7,9.32,1,1.86,2.08,3.62,2.88,4.91s1.35,2.1,1.35,2.1,0.53,0.83,1.4,2.09a57.26,57.26,0,0,0,3.58,4.67,28.11,28.11,0,0,0,5.08,4.76,14.4,14.4,0,0,0,2.86,1.57,11.64,11.64,0,0,0,1.33.44,10.82,10.82,0,0,0,1.1.21,7.94,7.94,0,0,0,.85.06c0.28,0,.56,0,0.83-0.05a6,6,0,0,0,1.52-.43,4.86,4.86,0,0,0,2.09-1.68,5.67,5.67,0,0,0,.74-4.48,8.13,8.13,0,0,1-3.63,0,2.83,2.83,0,0,1-.85-0.37,1.55,1.55,0,0,0-.56-0.24c-0.06,0-.16,0-0.27-0.06s-0.26-.08-0.45-0.17a7.64,7.64,0,0,1-1.42-.81,21.78,21.78,0,0,1-3.74-3.55c-1.24-1.43-2.35-2.93-3.14-4.07s-1.29-1.9-1.29-1.9-0.49-.76-1.23-2-1.71-2.85-2.68-4.62c-2-3.53-3.87-7.52-4.5-8.83a6.93,6.93,0,0,0-2.26-2.73,12.2,12.2,0,0,0-1.6-.95l-0.94-.46C137.33,35,137,34.84,136.63,34.63Z"/><path class="cls-1" d="M129.74,9.08c-0.38,1-.72,1.89-1,2.76a22.82,22.82,0,0,0-.64,2.52,15.32,15.32,0,0,0,0,5.39c0.39,2.25,1.53,9,2.44,15.26,0.24,1.56.45,3.08,0.65,4.49s0.38,2.7.52,3.81l0.47,3.62,0.12,1,0.31,2.64c0.27,2.2.58,5.19,0.89,8.32L134,63.6l0.35,4.45c0.17,2.76.33,5,.37,6.16a17.07,17.07,0,0,0,.37,2.82,13.26,13.26,0,0,0,.73,2.41c0.16,0.39.33,0.77,0.52,1.15s0.37,0.76.59,1.16c0.42,0.78.91,1.61,1.46,2.53,0.6-.86,1.13-1.67,1.59-2.47,0.23-.4.45-0.8,0.63-1.2s0.35-.79.49-1.2a14.12,14.12,0,0,0,.67-2.55,17.43,17.43,0,0,0,.15-3c0-1.18-.16-3.51-0.33-6.36L141.21,63l-0.45-4.81C140.12,51.8,139.38,46,139.38,46l-0.46-3.67c-0.14-1.12-.32-2.43-0.51-3.86s-0.4-3-.64-4.55c-0.91-6.32-2.06-13.2-2.52-15.48a14.67,14.67,0,0,0-1.94-5.17,15.27,15.27,0,0,0-1.56-2.09C131.15,10.53,130.49,9.83,129.74,9.08Z"/><path class="cls-1" d="M77,104.37h2v1.26H79a2.76,2.76,0,0,1,2.45-1.46,2.29,2.29,0,0,1,2,1.16,2.71,2.71,0,0,1,2.18-1.16A2.49,2.49,0,0,1,88.17,107v16H86.06V107.67c0-1-.27-1.6-1.06-1.6a1.51,1.51,0,0,0-1.36,1.7v15.15H81.53V107.67c0-1-.27-1.6-1.06-1.6a1.51,1.51,0,0,0-1.36,1.7v15.15H77V104.37Z"/><path class="cls-1" d="M90.38,98.34h2.25v2.59H90.38V98.34Zm0.07,6h2.11v18.56H90.45V104.37Z"/><path class="cls-1" d="M95,98.34h2.11v24.58H95V98.34Z"/><path class="cls-1" d="M99.61,101.89l2.11-.82v3.3h1.5v1.7h-1.5v14.1a0.91,0.91,0,0,0,1.06,1.06h0.44v1.7h-1c-1.77,0-2.59-.85-2.59-2.28V106.07H98.55v-1.7h1.06v-2.49Z"/><path class="cls-1" d="M104.44,107.74c0-2.83,1.7-3.57,3.51-3.57s3.51,0.75,3.51,3.57v11.81c0,2.83-1.7,3.58-3.51,3.58s-3.51-.75-3.51-3.58V107.74Zm4.9,0c0-1.36-.54-1.87-1.4-1.87s-1.4.51-1.4,1.87v11.81c0,1.36.54,1.87,1.4,1.87s1.4-.51,1.4-1.87V107.74Z"/><path class="cls-1" d="M113.4,104.37h2v1.26h0.07a2.94,2.94,0,0,1,2.45-1.46,2.49,2.49,0,0,1,2.52,2.79v16H118.3V107.78c0-1-.37-1.7-1.33-1.7a1.59,1.59,0,0,0-1.46,1.7v15.15H113.4V104.37Z"/><path class="cls-1" d="M126.54,98.34h2.11v13.52h0.07l3.06-7.49H134l-3.51,7.86,3.78,10.69h-2.25l-3.34-10h-0.07v10h-2.11V98.34Z"/><path class="cls-1" d="M140.4,116.93h2.11v2.62c0,2.83-1.7,3.58-3.51,3.58s-3.51-.75-3.51-3.58V107.74c0-2.83,1.7-3.57,3.51-3.57s3.51,0.75,3.51,3.57v6.43h-4.9v5.38c0,1.36.54,1.87,1.4,1.87s1.4-.51,1.4-1.87v-2.62Zm0-9.19c0-1.36-.54-1.87-1.4-1.87s-1.4.51-1.4,1.87v4.53h2.79v-4.53Z"/><path class="cls-1" d="M147.89,126.6h-2.11l0.75-3.68-2.69-18.56h2.11l1.5,12.5h0.07l1.8-12.5h2.11Z"/><path class="cls-1" d="M152.76,104.37h2v1.26h0.07a2.94,2.94,0,0,1,2.45-1.46,2.49,2.49,0,0,1,2.52,2.79v16h-2.11V107.78c0-1-.37-1.7-1.33-1.7a1.59,1.59,0,0,0-1.46,1.7v15.15h-2.11V104.37Z"/><path class="cls-1" d="M166.62,116.93h2.11v2.62c0,2.83-1.7,3.58-3.51,3.58s-3.51-.75-3.51-3.58V107.74c0-2.83,1.7-3.57,3.51-3.57s3.51,0.75,3.51,3.57v6.43h-4.9v5.38c0,1.36.54,1.87,1.4,1.87s1.4-.51,1.4-1.87v-2.62Zm0-9.19c0-1.36-.54-1.87-1.4-1.87s-1.4.51-1.4,1.87v4.53h2.79v-4.53Z"/><path class="cls-1" d="M175,107.13a1.06,1.06,0,0,0-1.09-1.26,1.09,1.09,0,0,0-1.09,1.33v2.08a3.26,3.26,0,0,0,.78,1.84l2.66,3.71a3.1,3.1,0,0,1,.75,2V120a2.85,2.85,0,0,1-3.17,3.13c-1.74,0-3.13-.82-3.13-2.89V117h2.11v2.86c0,0.85.14,1.57,1.06,1.57s1-.75,1-1.6v-2.25a3.42,3.42,0,0,0-.78-2l-2.42-3.3a3.82,3.82,0,0,1-1-2.49v-2.38a3,3,0,0,1,3.3-3.2,2.65,2.65,0,0,1,3,2.66v3.06h-2v-2.76Z"/></svg>