<svg id="Layer_1" data-name="Layer 1" xmlns="http://www.w3.org/2000/svg" viewBox="0 0 251 48"><defs><style>.cls-1{fill:#fff;fill-rule:evenodd;}</style></defs><title>LD_website logo</title><path class="cls-1" d="M120.16,31.25c0,2.05-.63,2.68-2.53,2.68a16.25,16.25,0,0,1-2.84-.16V12.14H120L129.32,26a7.9,7.9,0,0,1-.16-1.74V12.14h5.37V33.78a22.32,22.32,0,0,1-3.47.16c-2.05,0-2.68-.47-3.63-1.89-0.79-1.42-7.26-11.21-7.26-11.21V31.25h0Z"/><path class="cls-1" d="M57.79,12.14c-5.05.32-6.79,3.32-6.79,6.47,0,3.32,2.05,6.47,7.11,6.63h4.58a2.05,2.05,0,1,1,0,4.11H54.63c-2.68,0-3.47.79-3.47,3.32v1.26c2.53,0.16,6.95.16,12.16,0.16,5.21-.16,7.26-3.47,7.26-6.95s-2.21-6.79-7.26-6.79c-1.58-.16-4.11,0-4.89,0a1.94,1.94,0,0,1-1.74-2.05,1.9,1.9,0,0,1,1.74-1.89h7.26c2.68,0,3.47-.63,3.47-3.16V12.14c-1.58,0-7.42-.16-11.37,0h0Z"/><path class="cls-1" d="M144.32,12.14c-5.05.32-6.79,3.32-6.79,6.47,0,3.32,2.05,6.47,7.11,6.63h4.58a2.05,2.05,0,1,1,0,4.11h-8.05c-2.68,0-3.47.79-3.47,3.32v1.26c2.53,0.16,6.95.16,12.16,0.16,5.21-.16,7.26-3.47,7.26-6.95s-2.21-6.79-7.26-6.79c-1.58-.16-4.11,0-4.89,0a1.94,1.94,0,0,1-1.74-2.05,1.9,1.9,0,0,1,1.74-1.89h7.26c2.68,0,3.47-.63,3.47-3.16V12.14c-1.58,0-7.42-.16-11.37,0h0Z"/><path class="cls-1" d="M114.16,33.78a22.32,22.32,0,0,1-3.47.16c-1.74,0-3-.16-3.47-1.89l-0.79-2.37H98.37L97.58,32c-0.47,1.74-1.74,1.89-3.47,1.89a25.33,25.33,0,0,1-4.89,0c-1.74,0-2.53-.32-3.32-1.26l-7.11-8.05a1.22,1.22,0,0,1-.16-0.47v7.11c0,2.05-.63,2.68-2.53,2.68a23.37,23.37,0,0,1-3.47-.16V12.14h6v9.95a0.76,0.76,0,0,1,.16-0.63l7.26-9.32H93L84,22.72l7.42,8.05a2.27,2.27,0,0,1,.32.47V30.78c0.16-.16,7.42-18.63,7.42-18.63h6.32l8.68,21.63h0ZM105,25.41l-2.68-8.53-2.68,8.53a0.55,0.55,0,0,1,.32-0.16h4.89a0.15,0.15,0,0,1,.16.16h0Z"/><path class="cls-1" d="M201,33.78a21.29,21.29,0,0,1-3.47.16c-1.74,0-3-.16-3.47-1.89l-0.79-2.37h-8.05L184.42,32c-0.47,1.74-1.58,1.89-3.47,1.89a23.71,23.71,0,0,1-4.74,0c-1.89,0-2.68-.32-3.47-1.26l-6.95-8.05a0.86,0.86,0,0,1-.32-0.47v7.11c0,2.05-.63,2.68-2.53,2.68a21.21,21.21,0,0,1-3.32-.16V12.14h5.84v9.95a0.82,0.82,0,0,1,.32-0.63l7.11-9.32h6.95l-9,10.58s7.42,8.05,7.58,8.05a0.78,0.78,0,0,1,.16.47V30.78c0.16-.16,7.58-18.63,7.58-18.63h6.16L201,33.78h0Zm-9.16-8.37-2.68-8.53-2.68,8.53a0.55,0.55,0,0,1,.32-0.16h4.89a0.15,0.15,0,0,1,.16.16h0Z"/></svg>