<svg id="Layer_1" data-name="Layer 1" xmlns="http://www.w3.org/2000/svg" viewBox="0 0 230 98"><defs><style>.cls-1{fill:#fff;}</style></defs><title>LD_website logo</title><path class="cls-1" d="M56,19.32V63.51L91.21,83.89V39.7Zm28,30L69,40.76V56.16l14.77,8.54V71L66,60.77l-3.05-5V35.78l4.3-2.18L84,43.26v6Z"/><path class="cls-1" d="M94.83,31.41v34.4l27.73-16V15.46Zm21.94,15.27-4.42,2.56V43l-6.61,3.8V53l-4.67,2.68V37.65l3.18-5,8.85-5.11,3.68,1.06V46.68Z"/><polygon class="cls-1" points="105.73 42.57 112.34 38.77 112.34 32.66 105.73 36.46 105.73 42.57"/><polygon class="cls-1" points="133.59 55.78 133.59 51.98 139.01 55.1 139.01 58.9 133.59 55.78"/><polygon class="cls-1" points="133.59 55.78 133.59 51.98 139.01 55.1 139.01 58.9 133.59 55.78"/><path class="cls-1" d="M125.55,32.79V59.52L147.12,72V45.25ZM142.5,53l-1.87,1,1.87,2.37v5.3l-2.12,1.12-10.22-5.92V40.58l10.47,6L142.5,49v4Z"/><polygon class="cls-1" points="133.59 49.11 139.01 52.23 139.01 48.62 133.59 45.5 133.59 49.11"/><path class="cls-1" d="M149.55,33.53V53.91L166,44.44V24.06Zm12.84-.81-6.17,3.55v2.43l6-3.49v2.49l-6,3.49v2.56l6.17-3.55v2.62l-9,5.17V35.34l9-5.17v2.56Z"/></svg>