<svg id="Layer_1" data-name="Layer 1" xmlns="http://www.w3.org/2000/svg" viewBox="0 0 254 94"><defs><style>.cls-1{fill:#fff;}</style></defs><title>LD_website logo</title><path class="cls-1" d="M100.12,47.73c-1.66,0-2.5,1.43-2.5,4.28a7.73,7.73,0,0,0,0,1c0.23,3.25,1.3,5,3.05,5s2.62-1.71,2.62-4.58C103.33,50.1,102,47.73,100.12,47.73Z"/><path class="cls-1" d="M129.37,47.73c-1.66,0-2.5,1.43-2.5,4.28a7.71,7.71,0,0,0,0,1c0.23,3.25,1.3,5,3.05,5s2.62-1.71,2.62-4.58C132.58,50.1,131.23,47.73,129.37,47.73Z"/><path class="cls-1" d="M141.47,28.4c-1.23,0-1.87,1-2.07,3.26a39.31,39.31,0,0,0,4.37-.29C143.52,29.38,142.76,28.4,141.47,28.4Z"/><path class="cls-1" d="M61.69,13.25V78.55H192.31V13.25H61.69Zm101.65,28.2A1.54,1.54,0,0,1,164.87,43,1.53,1.53,0,1,1,163.34,41.45ZM80.14,58.57l-1.75,0-5.58,0-3.78,0L69.1,58c1.66,0,2.09-.5,2.09-2.21V45c0-1.71-.43-2.16-2.09-2.21L69,42.2l3.53,0,5.55-.07,1.46,0,0.09,3.35-0.91.07c-0.16-2.07-.55-2.3-3.82-2.3h-0.5l-0.23,0v6.19l1,0c0.36,0,.71,0,1,0,1.82,0,2.23-.39,2.25-2.12h0.77c-0.07,1.39-.07,2.09-0.07,2.78s0,1.32,0,2.34H78.48c-0.09-1.64-.46-2-2.21-2L75,50.6l-0.86,0v4.8c0,1.93.11,2,2,2,2.57,0,3.32-.57,3.55-2.78l0.91,0Zm8.4,0.25c-3,0-5-2.34-5-5.92s2.07-6,5.35-6a11.93,11.93,0,0,1,3.12.52l0,2.73-1,.07c-0.41-2-.82-2.53-2.14-2.53-1.71,0-2.59,1.53-2.59,4.46,0,3.46,1.07,5.39,3,5.39a3.61,3.61,0,0,0,2.73-1.39l0.34,0.82A5,5,0,0,1,88.54,58.82Zm11.86,0a5.32,5.32,0,0,1-5.55-5.53V52.94c0-3.85,2.07-6.08,5.62-6.08,3.3,0,5.62,2.46,5.62,6S103.83,58.82,100.39,58.82Zm18.71-.34c-0.64,0-1.59,0-2.85.09l0-.55c1.21-.18,1.34-0.41,1.34-2.44l0-1.43v-2c0-2.87-.52-3.82-2-3.82a2.34,2.34,0,0,0-2.09,1.32,3.22,3.22,0,0,0-.34,1.12v4.85c0,2,.14,2.25,1.34,2.44l0.07,0.55c-1.27,0-2.23-.09-2.87-0.09s-1.64,0-3,.09l0-.55c1.53,0,1.75-.3,1.75-2.44V50.3c0-2.12-.23-2.41-1.75-2.44l0-.52A21,21,0,0,0,113,46.8l0.11,2c1.3-1.46,2.3-2,3.69-2,2.21,0,3.46,1.43,3.46,4v4.71a4.34,4.34,0,0,0,0,.55c0,1.46.39,1.89,1.78,1.89l0,0.55C120.76,58.52,119.76,58.47,119.1,58.47Zm3.39-31.78c-0.06-2-.47-2.22-3.43-2.22h-0.64V35.7c0,1.54.39,2,1.91,2l0,0.53c-1.44,0-2.52,0-3.24,0s-1.87,0-3.35,0l0-.53c1.52,0,1.91-.45,1.91-2V24.48H115c-3,0-3.45.27-3.49,2.22l-0.76,0,0.08-3.18,6.26,0,6.06,0,0.08,3.18Zm7.15,32.12a5.32,5.32,0,0,1-5.55-5.53V52.94c0-3.85,2.07-6.08,5.62-6.08,3.3,0,5.62,2.46,5.62,6S133.08,58.82,129.64,58.82Zm3.27-20.67c-0.57,0-1.42,0-2.55.08l0-.49c1.09-.16,1.19-0.37,1.21-2.2V32.42c0-2.59-.45-3.45-1.81-3.45a2.11,2.11,0,0,0-1.87,1.19,5,5,0,0,0-.29.78,1.11,1.11,0,0,0,0,.23v4.37c0,1.83.12,2,1.21,2.2l0,0.49c-1.15,0-2-.08-2.57-0.08s-1.5,0-2.67.08l0-.49c1.38,0,1.56-.27,1.58-2.2V26.16c0-1.93-.21-2.2-1.58-2.2l0-.49a23.79,23.79,0,0,0,4-.47v6.36a4.08,4.08,0,0,1,3.22-1.68c2,0,3.12,1.27,3.12,3.61v4.25c0,1.93.21,2.2,1.58,2.2l0,0.49C134.41,38.19,133.51,38.15,132.91,38.15Zm8.95-10.47a3.68,3.68,0,0,1,3.45,1.83,4.94,4.94,0,0,1,.68,2.93h-6.53c0.08,3.12,1.21,4.88,3.1,4.88a4,4,0,0,0,3.08-1.68l0.31,0.58a5,5,0,0,1-4.17,2.24c-2.85,0-4.78-2.09-4.78-5.19C137,30,139,27.68,141.86,27.68Zm13.32,30.8c-0.64,0-1.57,0-2.82.09l0-.55c1.21-.18,1.32-0.41,1.34-2.44V52.12c0-2.82-.5-3.82-1.91-3.82a2.38,2.38,0,0,0-2.07,1.32,4.82,4.82,0,0,0-.3.87,2,2,0,0,0,0,.25v4.85c0,2,.14,2.25,1.34,2.44l0,0.55c-1.21,0-2.12-.09-2.73-0.09s-1.48,0-2.66.09l0-.55c1.21-.18,1.32-0.41,1.34-2.44V52.12c0-2.82-.5-3.82-1.91-3.82a2.35,2.35,0,0,0-2.07,1.32,3.36,3.36,0,0,0-.34,1.12v4.85c0,2,.14,2.25,1.34,2.44l0,0.55c-1.25,0-2.21-.09-2.85-0.09s-1.64,0-3,.09l0-.55c1.53,0,1.75-.3,1.75-2.44V50.3c0-2.12-.23-2.41-1.75-2.44l0-.52a21,21,0,0,0,4.21-.55l0.11,2c1.3-1.43,2.3-2,3.64-2A3.1,3.1,0,0,1,149.17,49c1.39-1.59,2.41-2.16,3.8-2.16,2.16,0,3.39,1.46,3.39,4v4.71c0,0.18,0,.36,0,0.55,0,1.46.41,1.89,1.78,1.89l0,0.55C156.84,58.52,155.84,58.47,155.17,58.47Zm8.26,0c-0.68,0-1.71,0-3.1.09l0-.55c1.53,0,1.75-.3,1.75-2.44l0-1.43V51.76l0-1.46c0-2.12-.23-2.41-1.75-2.44l0-.52a28.19,28.19,0,0,0,4.42-.55v7.35l0,1.43c0,2.14.2,2.44,1.75,2.44l0,0.55C165.16,58.52,164.14,58.47,163.43,58.47Zm9,0.34a9.63,9.63,0,0,1-3.1-.66l-0.09-2.32,1.16,0c0.52,1.75.86,2.09,2.07,2.09a1.49,1.49,0,0,0,1.73-1.37c0-.77-0.48-1.37-1.91-2.34-0.73-.5-1.23-0.84-1.5-1a3.68,3.68,0,0,1-1.25-1.62,3.47,3.47,0,0,1,3.35-4.64,11.8,11.8,0,0,1,3.1.5l0,2.3-1.16,0c-0.27-1.52-.75-2-1.82-2a1.55,1.55,0,0,0-1.75,1.43c0,0.8.36,1.27,1.55,2A23.43,23.43,0,0,1,175.36,53a3.1,3.1,0,0,1,1,2.28A3.69,3.69,0,0,1,172.47,58.82ZM186,58.09a6.21,6.21,0,0,1-2.94.68,2.66,2.66,0,0,1-2.37-1.41,6.27,6.27,0,0,1-.45-3V48.57h-1.46v-1c1.8-.14,2.5-0.91,3-3.28h1v3.07h2.87l-0.32,1.25h-2.55v5.6c0,2.8.36,3.46,1.91,3.46a4.16,4.16,0,0,0,1.25-.2v0.66Z"/></svg>