<svg id="Layer_1" data-name="Layer 1" xmlns="http://www.w3.org/2000/svg" viewBox="0 0 230 50"><defs><style>.cls-1{fill:#fff;fill-rule:evenodd;}</style></defs><title>LD_website logo</title><path class="cls-1" d="M50.61,18V33.51H207.19V18H50.61ZM66.69,31.21h-4V19.51h4c3.58,0,5.57,1.84,5.57,5.57C72.26,29,70.57,31.21,66.69,31.21ZM77.83,24c-2.2,0-3,1.28-3,3.42v3.78H73.38V22.73h1.33v1.79h0.05a3,3,0,0,1,3.07-1.94V24Zm4.24,6.18a2,2,0,0,0,2.15-1.69H85.6A3.37,3.37,0,0,1,82,31.42c-2.71,0-4-1.89-4.09-4.45s1.69-4.4,4-4.4c3,0,3.88,2.76,3.83,4.8H79.42A2.51,2.51,0,0,0,82.07,30.19Zm8.23,1.23c-1.89,0-3.48-.77-3.58-2.86h1.38c0.05,1.23,1.12,1.64,2.3,1.64,0.87,0,2-.2,2-1.28s-1.38-1.28-2.76-1.58-2.81-.77-2.81-2.35c0-1.74,1.69-2.4,3.17-2.4,1.89,0,3.37.56,3.48,2.61H92.14c-0.1-1.07-1.07-1.38-2-1.38s-1.79.2-1.79,1.07,1.48,1.12,2.76,1.48c1.43,0.31,2.76.77,2.76,2.4C93.88,30.75,92,31.42,90.3,31.42Zm12.37-.2h-1.38V30.09h-0.05a2.87,2.87,0,0,1-2.71,1.33c-2.61,0-3.88-2.1-3.88-4.45s1.28-4.4,3.88-4.4a3.13,3.13,0,0,1,2.71,1.33h0.05v-4.4h1.38V31.21Zm8.33,0h-1.38V25.49a1.6,1.6,0,0,0-1.74-1.69,2.36,2.36,0,0,0-2.5,2.61v4.8H104V22.73h1.28v1.38h0.05a2.92,2.92,0,0,1,2.76-1.53c2.2,0,2.91,1.28,2.91,3.07v5.57Zm5.06-1a2,2,0,0,0,2.2-1.69h1.38A3.42,3.42,0,0,1,116,31.42c-2.66,0-3.94-1.89-4-4.45s1.69-4.4,4-4.4c3,0,3.88,2.76,3.83,4.8h-6.34A2.49,2.49,0,0,0,116.06,30.19Zm9.4-6.18c-2.25,0-3.07,1.28-3.07,3.42v3.78H121V22.73h1.28v1.79h0.05a3.06,3.06,0,0,1,3.12-1.94V24Zm9.66,7.21h-5.67V19.51h4.24a6.69,6.69,0,0,1,3.12.46,2.71,2.71,0,0,1,1.33,2.4A2.68,2.68,0,0,1,136.41,25a2.67,2.67,0,0,1,2.25,2.81A3.31,3.31,0,0,1,135.13,31.21Zm12.32-.05a1.88,1.88,0,0,1-1,.26,1.13,1.13,0,0,1-1.18-1.33,3.68,3.68,0,0,1-3,1.33c-1.53,0-2.81-.72-2.81-2.4,0-1.89,1.43-2.3,2.86-2.61s2.86-.15,2.86-1.23c0-1.23-1-1.38-1.89-1.38-1.18,0-2,.36-2.1,1.58h-1.38c0.05-2.1,1.69-2.81,3.58-2.81,1.53,0,3.17.31,3.17,2.3v4.34c0,0.66,0,1,.41,1a1.88,1.88,0,0,0,.46-0.1v1.07Zm7.77,0.05h-1.38V25.49a1.58,1.58,0,0,0-1.69-1.69,2.36,2.36,0,0,0-2.5,2.61v4.8h-1.43V22.73h1.33v1.38h0.05a2.85,2.85,0,0,1,2.71-1.53c2.25,0,2.91,1.28,2.91,3.07v5.57Zm7.16,0-2.91-4.4L158.13,28v3.22h-1.38V19.51h1.38v7L162,22.73h1.84l-3.32,3.12,3.58,5.37h-1.74Z"/><path class="cls-1" d="M134.57,25.84H131v4h3.88a2,2,0,0,0,2.2-2.1C137.12,26.3,135.9,25.84,134.57,25.84Z"/><path class="cls-1" d="M98.69,23.8c-1.94,0-2.56,1.58-2.56,3.27s0.82,3.12,2.61,3.12,2.61-1.64,2.61-3.22S100.58,23.8,98.69,23.8Z"/><path class="cls-1" d="M81.82,23.8a2.39,2.39,0,0,0-2.4,2.35h4.86A2.4,2.4,0,0,0,81.82,23.8Z"/><path class="cls-1" d="M136.61,22.67c0-1.58-1.12-1.84-2.5-1.84H131v3.73h3.07C135.9,24.57,136.61,23.9,136.61,22.67Z"/><path class="cls-1" d="M66.84,20.83H64.23v9h2.56c1.07,0,3.94-.26,3.94-4.6C70.73,22.52,69.7,20.83,66.84,20.83Z"/><path class="cls-1" d="M141,28.91a1.37,1.37,0,0,0,1.64,1.28c1.84,0,2.61-1.18,2.61-1.94V26.82a7.81,7.81,0,0,1-2.56.61C141.72,27.58,141,27.89,141,28.91Z"/><path class="cls-1" d="M115.86,23.8a2.39,2.39,0,0,0-2.4,2.35h4.86A2.4,2.4,0,0,0,115.86,23.8Z"/><path class="cls-1" d="M36.37,35.61h-11l-2.57-4.48H39l-2.59,4.48h0Zm5.26-9L36.17,17,31,17.06l8.06,14,2.62-4.51h0Zm-21.5,0L25.65,17l5.21,0.05-8.08,14-2.64-4.51h0Z"/></svg>