<svg id="Layer_1" data-name="Layer 1" xmlns="http://www.w3.org/2000/svg" viewBox="0 0 251 74"><defs><style>.cls-1{fill:#fff;}</style></defs><title>LD_website logo</title><path class="cls-1" d="M166,34.9c0,13.89-17.91,25.15-40,25.15a59.72,59.72,0,0,1-18.09-2.72L115,30.95h3.47l-3.13,11.77h5.08L124,29.27h-8.54L118.15,19c0.34-1.28,1.72-3.21,3.6-3.21,1.12,0,2.5.56,2.56,1.27a2.79,2.79,0,0,0-2.6,2.85,2.68,2.68,0,0,0,2.6,2.72,3.19,3.19,0,0,0,2.88-3.34c-0.07-1.42-.9-4.23-5.45-4.33-5.27-.12-8.91,4.59-10.21,9.35-0.77,2.83-2.68,9.59-4.31,15.74l-4.17,15.42C92.74,51,86,43.42,86,34.9,86,21,103.91,9.74,126,9.74S166,21,166,34.9h0ZM96,42.71l1.66-6.21c8.51,0.13,10.15-1.93,11.33-7.24,0.83-3.72-1.23-6.6-4.94-6.6H93.91l-0.45,1.68h2.23L90.81,42.71H96Zm4.88-18.36c2.66-.1,3.69.53,2.66,4.91-1.34,5.65-3,5.56-5.44,5.56l2.77-10.47h0Zm62.86,7.29a2.66,2.66,0,0,0-2.54-2.77,4.89,4.89,0,0,0-3.86,2.57l0.56-2.19H151l-0.45,1.68h1.86l-3.13,11.77h5.08s1.91-7.1,1.89-7.11c0.76-2.2,2.15-4.76,2.56-4.41a2.51,2.51,0,0,0,2.43,3.22,2.66,2.66,0,0,0,2.54-2.77h0Zm-23.49,4.86h8.55a4.24,4.24,0,0,0,.14-0.58c0.94-4.46-1.27-7.31-4.8-7.31-3.81,0-7.34,1.29-8.81,7.31-1,4,1.15,7.18,4.93,7.31,3.39,0.12,6.6-.83,8.2-5.43h-5.2L142.94,39c-0.62,2.33-1.45,2.59-2.36,2.59s-1.36-1.16-1-2.59l0.66-2.46h0Zm1-3.62c0.38-1.42,1.24-2.65,2.36-2.59s1.36,1.16,1,2.59l-0.48,1.81h-3.34l0.48-1.81h0ZM133.47,41h-4.33l7.47-11.77H125.71l-0.45,1.68h4.33l-7.34,11.77H133L133.47,41h0Z"/></svg>