<svg id="Layer_1" data-name="Layer 1" xmlns="http://www.w3.org/2000/svg" viewBox="0 0 230 92"><defs><style>.cls-1{fill:#fff;}</style></defs><title>LD_website logo</title><polygon class="cls-1" points="52.39 58.65 54.69 58.65 54.69 66.08 63.78 66.08 63.78 58.65 66.08 58.65 66.08 75.93 63.78 75.93 63.78 68.01 54.69 68.01 54.69 75.93 52.39 75.93 52.39 58.65"/><path class="cls-1" d="M74,74.4c2.15,0,3.9-1.69,3.9-4.72S76.2,64.94,74,64.94s-3.9,1.69-3.9,4.74S71.89,74.4,74,74.4m0-11.28c4,0,6.07,2.88,6.07,6.56S78,76.22,74,76.22,68,73.34,68,69.68s2.11-6.56,6.08-6.56"/><path class="cls-1" d="M81.72,63.41h1.93v1.84h0a4.61,4.61,0,0,1,4-2.13,3.32,3.32,0,0,1,3.44,2.13,4.63,4.63,0,0,1,3.92-2.13c2.49,0,4.16,1,4.16,3.63v9.17H97.21V67.72c0-1.55-.41-2.78-2.42-2.78a3,3,0,0,0-3.27,3.19v7.79H89.46V67.72c0-1.62-.51-2.78-2.35-2.78a3.37,3.37,0,0,0-3.34,3.19v7.79H81.72V63.41Z"/><path class="cls-1" d="M110.32,68.47a3.6,3.6,0,0,0-3.61-3.53,3.56,3.56,0,0,0-3.58,3.53h7.19Zm2,3.48A5,5,0,0,1,107,76.22c-4,0-5.88-2.76-6-6.58s2.47-6.51,5.88-6.51c4.43,0,5.78,4.14,5.66,7.16h-9.37A3.69,3.69,0,0,0,107,74.4,3,3,0,0,0,110.27,72h2Z"/><path class="cls-1" d="M128.38,74.4c4.21,0,6-3.63,6-7.12s-1.77-7.12-6-7.12-6,3.63-6,7.12,1.77,7.12,6,7.12m0-16.17c5.49,0,8.28,4.36,8.28,9.05s-2.78,9.05-8.28,9.05S120.1,72,120.1,67.29s2.78-9.05,8.28-9.05"/><path class="cls-1" d="M139.71,65.23H137.6V63.41h2.11V61.55c0-2,1.21-3.1,3.46-3.1a5,5,0,0,1,1.33.19v1.79a3.9,3.9,0,0,0-1.16-.17c-1,0-1.57.31-1.57,1.4v1.74h2.42v1.81h-2.42v10.7h-2.06V65.23Z"/><path class="cls-1" d="M147,65.23h-2.11V63.41H147V61.55c0-2,1.21-3.1,3.46-3.1a5,5,0,0,1,1.33.19v1.79a3.9,3.9,0,0,0-1.16-.17c-1,0-1.57.31-1.57,1.4v1.74h2.42v1.81H149v10.7H147V65.23Z"/><path class="cls-1" d="M152.95,63.41H155V75.93h-2.06V63.41ZM155,61.16h-2.06V58.65H155v2.52Z"/><path class="cls-1" d="M166.11,67.43a2.91,2.91,0,0,0-3.1-2.49c-3,0-3.9,2.35-3.9,4.89,0,2.3,1,4.58,3.65,4.58a3.23,3.23,0,0,0,3.44-3h2.11c-0.46,3-2.37,4.86-5.52,4.86-3.82,0-5.86-2.66-5.86-6.39s1.94-6.7,5.91-6.7c2.83,0,5.11,1.33,5.4,4.31h-2.13Z"/><path class="cls-1" d="M178.81,68.47a3.6,3.6,0,0,0-3.61-3.53,3.56,3.56,0,0,0-3.58,3.53h7.19Zm2,3.48a5,5,0,0,1-5.35,4.26c-4,0-5.88-2.76-6-6.58s2.47-6.51,5.88-6.51c4.43,0,5.78,4.14,5.66,7.16h-9.37a3.69,3.69,0,0,0,3.9,4.11A3,3,0,0,0,178.77,72h2Z"/><path class="cls-1" d="M62.53,18.35v1.2a6.19,6.19,0,0,1,1.3.21,1.8,1.8,0,0,0-1.3-1.41"/><path class="cls-1" d="M61.78,17.5h0a1.44,1.44,0,0,1-.21.85,1.72,1.72,0,0,1,.48-0.07,2.89,2.89,0,0,1,.48.07,1.43,1.43,0,0,1-.21-0.85c0.91,0,1.13.42,1.13,0.78h0.17V16.19H63.45c0,0.35-.22.78-1.13,0.78,0-.91.42-1.13,0.78-1.13V15.66H61v0.17c0.35,0,.78.22,0.78,1.13-0.91,0-1.13-.43-1.13-0.78H60.48v2.09h0.17c0-.35.22-0.78,1.13-0.78"/><path class="cls-1" d="M61.57,18.35a1.81,1.81,0,0,0-1.3,1.41,5.77,5.77,0,0,1,1.3-.21V18.35Z"/><path class="cls-1" d="M63.08,48.37a0.38,0.38,0,1,1,.39.39,0.39,0.39,0,0,1-.39-0.39m-0.38,0a0.76,0.76,0,1,0,.76-0.76,0.76,0.76,0,0,0-.76.76"/><path class="cls-1" d="M60.62,38.59l-0.09.65-0.51-1a0.42,0.42,0,0,1,.18,0,0.41,0.41,0,0,1,.42.42m-0.21,1.5-0.79-1.6,0.24-.17,0.62,1.25Zm-0.12.85L59.17,38.7l0.27-.11,0.91,1.84Zm-0.12.85-1.49-3,0.3,0,1.25,2.54ZM60,42.65l-1.92-3.89,0.34,0,1.65,3.33Zm-2.21-4h0L60,43a3.5,3.5,0,0,1-2.15-4.27m3.47-.36a0.68,0.68,0,0,0-.68-0.68H56.8a0.59,0.59,0,0,0-.58.59,0.42,0.42,0,1,0,.84,0,2.32,2.32,0,0,0,.28.22,6.92,6.92,0,0,0-.14,1A0.29,0.29,0,0,0,57,39.27a0.29,0.29,0,1,0,.23.46,4.2,4.2,0,0,0,0,.64,0.29,0.29,0,0,0-.46.23,0.29,0.29,0,0,0,.53.15l0,0.07a3.73,3.73,0,0,0,.17.5,0.3,0.3,0,0,0-.14,0,0.29,0.29,0,1,0,0,.58,0.29,0.29,0,0,0,.28-0.24,3.37,3.37,0,0,0,.35.53H58a0.29,0.29,0,1,0,.29.29v0a5,5,0,0,0,1.69,1.1l-0.12.87a5,5,0,0,0,.7.25c0.41,0.12.81,0.18,0.81,0.18V38.34Z"/><path class="cls-1" d="M58.77,21.23a0.46,0.46,0,1,1,.46.45,0.46,0.46,0,0,1-.46-0.45"/><path class="cls-1" d="M52.89,24.36a0.45,0.45,0,1,1,.45.45,0.46,0.46,0,0,1-.45-0.45"/><path class="cls-1" d="M52.64,23.21a0.46,0.46,0,1,1,.46.45,0.46,0.46,0,0,1-.46-0.45"/><path class="cls-1" d="M52.76,22a0.46,0.46,0,1,1,.45.46A0.46,0.46,0,0,1,52.76,22"/><path class="cls-1" d="M53.37,21.06a0.45,0.45,0,1,1,.45.46,0.46,0.46,0,0,1-.45-0.46"/><path class="cls-1" d="M54.32,20.38a0.45,0.45,0,1,1,.45.46,0.46,0.46,0,0,1-.45-0.46"/><path class="cls-1" d="M55.47,20.17a0.46,0.46,0,1,1,.45.45,0.46,0.46,0,0,1-.45-0.45"/><path class="cls-1" d="M56.6,20.41a0.45,0.45,0,1,1,.45.46,0.46,0.46,0,0,1-.45-0.46"/><path class="cls-1" d="M57.69,20.83a0.45,0.45,0,1,1,.45.46,0.45,0.45,0,0,1-.45-0.46"/><path class="cls-1" d="M65.34,21.23a0.45,0.45,0,1,0-.46.45,0.46,0.46,0,0,0,.46-0.45"/><path class="cls-1" d="M71.22,24.36a0.45,0.45,0,1,0-.46.45,0.46,0.46,0,0,0,.46-0.45"/><path class="cls-1" d="M71.46,23.21a0.45,0.45,0,1,0-.46.45,0.46,0.46,0,0,0,.46-0.45"/><path class="cls-1" d="M71.35,22a0.45,0.45,0,1,0-.45.46A0.45,0.45,0,0,0,71.35,22"/><path class="cls-1" d="M70.74,21.06a0.45,0.45,0,1,0-.46.46,0.46,0.46,0,0,0,.46-0.46"/><path class="cls-1" d="M69.79,20.38a0.45,0.45,0,1,0-.45.46,0.46,0.46,0,0,0,.45-0.46"/><path class="cls-1" d="M68.64,20.17a0.45,0.45,0,1,0-.45.45,0.45,0.45,0,0,0,.45-0.45"/><path class="cls-1" d="M67.51,20.41a0.45,0.45,0,1,0-.46.46,0.46,0.46,0,0,0,.46-0.46"/><path class="cls-1" d="M66.41,20.83A0.45,0.45,0,0,0,66,20.38a0.46,0.46,0,1,0,.45.45"/><path class="cls-1" d="M65.95,27.75a0.5,0.5,0,1,0-.5.5,0.5,0.5,0,0,0,.5-0.5"/><path class="cls-1" d="M67.6,36.36H62.83V30.93H67.6v5.43Zm-4.92-5.58v5.73h5.07V30.78H62.68Z"/><path class="cls-1" d="M67.11,31.28v0.15h0.15v4.44H67.11V36H63.32V35.87H63.17V31.43h0.15V31.28h3.79Zm-3.79-.15H63v5h4.39v-5H63.32Z"/><path class="cls-1" d="M66.89,32.58l-0.24.22h0l0,0h0l-0.44.42a0.36,0.36,0,0,0-.07.47l0.26,0.36a0.14,0.14,0,0,1,0,.11,0.15,0.15,0,0,1-.06.1,0.13,0.13,0,0,1-.11,0,0.14,0.14,0,0,1-.1-0.06l-0.38-.52V33.25l0.62-.59V32.14l-0.22-.22,0.27-.27h-1.1L65,31.92v0.29a0.23,0.23,0,0,1,.12,0,0.23,0.23,0,1,1-.12.43V33H64.68l-0.45-.61a0.31,0.31,0,0,0,.1-0.23,0.3,0.3,0,0,0-.47-0.24v0.49h0L64.31,33l0.22,0.3H65l-0.28.28h-0.5A0.3,0.3,0,0,0,64,33.35a0.3,0.3,0,0,0-.28.19,0.25,0.25,0,0,0,0,.11,0.29,0.29,0,0,0,.07.19h1.21l0.21,0.28H64.34l0.31,0.43,0.17,0.23H64.4a0.3,0.3,0,0,0-.28-0.21,0.3,0.3,0,0,0-.29.21,0.37,0.37,0,0,0,0,.09,0.31,0.31,0,0,0,.08.21h1.48l-0.22-.3L65,34.57h0.48l0.17,0.23,0.22,0.3h0.7v0.34h-0.1a0.3,0.3,0,0,0-.57,0,0.36,0.36,0,0,0,0,.09,0.3,0.3,0,0,0,.08.21h0.9V34.8h-0.6L66,34.4a0.35,0.35,0,0,0,.21.12,0.34,0.34,0,0,0,.26-0.06A0.34,0.34,0,0,0,66.52,34l-0.26-.36a0.16,0.16,0,0,1,0-.22l0.13-.12a0.27,0.27,0,0,0,.38,0,0.28,0.28,0,0,0,.09-0.19v-0.5Z"/><polygon class="cls-1" points="61.37 27.75 62.05 27.06 62.74 27.75 62.05 28.44 61.37 27.75"/><path class="cls-1" d="M58.16,27.75a0.5,0.5,0,1,1,.5.5,0.5,0.5,0,0,1-.5-0.5"/><path class="cls-1" d="M64.13,40.67l-0.3-.3h0.6Zm3.27,0h0a0.4,0.4,0,0,0,0-.16,0.35,0.35,0,0,0-.35-0.35H65.79a0.29,0.29,0,0,0-.3-0.29,0.3,0.3,0,0,0-.21.09l-0.4.4h2.17a0.15,0.15,0,1,1,0,.31H64.55V40.28L65,39.84H63.26l0.44,0.44v0.65L63,40.36a0.31,0.31,0,0,0,.09-0.22,0.3,0.3,0,0,0-.3-0.3,0.3,0.3,0,0,0-.19.07v0.53l1.07,0.86-0.51.16a0.3,0.3,0,0,0-.59.1,0.3,0.3,0,0,0,.07.19h0.62L66,40.88v0.42l-0.35.16a0.3,0.3,0,0,0-.29-0.23,0.31,0.31,0,0,0-.3.31,0.32,0.32,0,0,0,.07.19h0.69l0.43-.2,0.28-.13-0.13-.28L66.31,41h1l0,0.12-0.07.21a0.29,0.29,0,0,0-.22-0.1,0.3,0.3,0,0,0-.31.31,0.3,0.3,0,0,0,.07.19h0.62a4.9,4.9,0,0,0,.19-0.51,5.25,5.25,0,0,0,.15-0.59H67.4"/><path class="cls-1" d="M64.13,38.48l-0.3-.3h0.6Zm3.32,0a0.35,0.35,0,0,0-.31-0.51H65.79a0.3,0.3,0,0,0-.51-0.2l-0.4.4h2.25a0.15,0.15,0,0,1,0,.31H64.55V38.09L65,37.65H63.26l0.44,0.44v0.65L63,38.17a0.29,0.29,0,0,0,.1-0.22,0.3,0.3,0,0,0-.3-0.3,0.3,0.3,0,0,0-.19.07v0.45h0v0.08l1.07,0.85-0.51.16A0.31,0.31,0,0,0,62.87,39a0.3,0.3,0,0,0-.24.5h0.62L66,38.69v0.45l-0.37.11a0.3,0.3,0,0,0-.59.1,0.31,0.31,0,0,0,.07.19h0.62l0.68-.21,0.33-.11L66.48,39l-0.18-.17h1.2v0.34A0.31,0.31,0,0,0,67.27,39a0.3,0.3,0,0,0-.23.5h0.77v-1.1H67.45Z"/><path class="cls-1" d="M64.12,42.86l-0.3-.3h0.6Zm-0.2.54h0Zm2.39-1.09H65.79A0.3,0.3,0,0,0,65.5,42a0.29,0.29,0,0,0-.21.09l-0.4.4h1.43a0.15,0.15,0,1,1,0,.31H64.55V42.46L65,42H63.26l0.44,0.44V43.2L63,42.56a0.3,0.3,0,0,0-.2-0.53,0.31,0.31,0,0,0-.19.07v0.52l1.13,1,0.05-.06-0.72.84a0.32,0.32,0,0,0-.22-0.06,0.3,0.3,0,0,0-.27.33,0.31,0.31,0,0,0,.07.17l0.5-.06,0.8-.94,0.33-.13L64.58,44l-0.19.09a0.32,0.32,0,0,0-.31-0.05,0.31,0.31,0,0,0-.17.4,0.41,0.41,0,0,0,.1.13l0.25-.09,0.23-.09h0l0.38-.18v-0.8A3.43,3.43,0,0,0,65.4,43L65.7,43.3l-0.2.15a0.29,0.29,0,0,0-.29,0,0.29,0.29,0,0,0-.14.18,0.28,0.28,0,0,0,0,.11,0.32,0.32,0,0,0,0,.11,0.36,0.36,0,0,0,.15.13l0.41-.27,0.29-.22L66,43.42V43h0.28a0.35,0.35,0,1,0,0-.7"/><path class="cls-1" d="M57.78,35.63l-0.3-.3h0.6Zm3.32,0a0.33,0.33,0,0,0,0-.15,0.35,0.35,0,0,0-.35-0.35H59.45a0.3,0.3,0,0,0-.3-0.29,0.29,0.29,0,0,0-.21.09l-0.4.4h2.25a0.15,0.15,0,0,1,0,.31H58.21V35.24l0.44-.44H56.91l0.44,0.44v0.65l-0.7-.56a0.31,0.31,0,0,0,.1-0.22,0.3,0.3,0,0,0-.5-0.23v0.53l1.07,0.86-0.51.16a0.3,0.3,0,0,0-.59.1,0.3,0.3,0,0,0,.07.19h0.62l2.73-.85v0.45l-0.37.11a0.3,0.3,0,0,0-.59.1,0.31,0.31,0,0,0,.07.19h0.62l0.68-.21,0.33-.1-0.25-.24L60,36h1.2v0.34a0.3,0.3,0,0,0-.53.2,0.31,0.31,0,0,0,.07.19h0.77v-1.1H61.1Z"/><path class="cls-1" d="M57.78,33.52l-0.3-.3h0.6Zm3.32,0a0.35,0.35,0,0,0,0-.16A0.35,0.35,0,0,0,60.79,33H59.45a0.3,0.3,0,0,0-.3-0.29,0.29,0.29,0,0,0-.21.09l-0.4.4h2.25a0.15,0.15,0,0,1,.15.15,0.16,0.16,0,0,1-.15.16H58.21V33.13l0.44-.44H56.91l0.44,0.44v0.65l-0.7-.56a0.31,0.31,0,0,0,.1-0.22,0.31,0.31,0,0,0-.5-0.24v0.53l1.07,0.86-0.51.16a0.3,0.3,0,0,0-.59.1,0.3,0.3,0,0,0,.07.19h0.62l2.73-.85v0.45l-0.37.11A0.31,0.31,0,0,0,59,34.09a0.3,0.3,0,0,0-.3.3,0.31,0.31,0,0,0,.07.19h0.62l0.68-.21,0.33-.1L60.14,34,60,33.85h1.2v0.34a0.3,0.3,0,0,0-.53.2,0.31,0.31,0,0,0,.07.19h0.77v-1.1H61.1Z"/><path class="cls-1" d="M57.78,31.41l-0.3-.3h0.6Zm3.32,0a0.35,0.35,0,0,0,0-.16,0.35,0.35,0,0,0-.35-0.35H59.45a0.3,0.3,0,0,0-.3-0.29,0.29,0.29,0,0,0-.21.09l-0.4.4h2.25a0.15,0.15,0,0,1,0,.31H58.21V31l0.44-.44H56.91L57.35,31v0.65l-0.7-.56a0.31,0.31,0,0,0,.1-0.22,0.31,0.31,0,0,0-.3-0.3,0.3,0.3,0,0,0-.19.07v0.53L57.32,32l-0.51.16a0.3,0.3,0,1,0-.52.29h0.62l2.73-.85v0.45l-0.37.11A0.31,0.31,0,0,0,59,32a0.3,0.3,0,0,0-.3.3,0.32,0.32,0,0,0,.07.2h0.62l0.68-.21,0.33-.11-0.25-.24L60,31.74h1.2v0.34a0.3,0.3,0,0,0-.53.19,0.32,0.32,0,0,0,.07.2h0.77v-1.1H61.1Z"/><path class="cls-1" d="M70.36,36.76h0a0.36,0.36,0,0,0,.07-0.67,0.37,0.37,0,0,0-.28,0,0.37,0.37,0,0,0-.21.17,0.35,0.35,0,0,0,0,.28,0.36,0.36,0,0,0,.45.25"/><path class="cls-1" d="M69.32,37.57l0,0.33,1.19-.17,1.2,0.59-0.06-.4-0.83-.41,0.68-.62-0.06-.4,0,0-0.94.87-1.2.17"/><path class="cls-1" d="M70.24,38.71a0.37,0.37,0,0,0,.11.26,0.36,0.36,0,0,0,.51,0A0.34,0.34,0,0,0,71,38.7a0.36,0.36,0,0,0-.37-0.36,0.36,0.36,0,0,0-.36.37"/><path class="cls-1" d="M71.32,39.89s0,0.31,0,.31a0.32,0.32,0,0,1-.64,0,0.48,0.48,0,0,1,0-.06l0-.3,0.64,0.09m-1.9-.59,0,0.31,1,0.13,0,0.28a0.93,0.93,0,0,0,0,.15,0.61,0.61,0,0,0,.56.64,0.63,0.63,0,0,0,.76-0.57l0.09-.65-2.28-.32v0Z"/><path class="cls-1" d="M69.21,40.65l-0.38,1.13,0.32,0.11,0.28-.83L70,41.26,69.79,42l0.32,0.11,0.26-.78,0.6,0.2-0.27.81L71,42.48l0.37-1.13-2.18-.73v0Z"/><path class="cls-1" d="M68.77,42l-0.16.25L70,43.13l-2.11.18-0.15.24,1.95,1.23,0.17-.27-1.43-.91,2.13-.19,0.14-.23L68.78,42v0Z"/><path class="cls-1" d="M68,44.75a0.63,0.63,0,0,1-.59-0.06,0.28,0.28,0,0,1,0-.4A0.63,0.63,0,0,1,68,44.16H68.1l-0.35-.36h0a0.87,0.87,0,0,0-.56.26,0.56,0.56,0,0,0-.18.41,0.66,0.66,0,0,0,.2.46,0.85,0.85,0,0,0,.9.16,0.55,0.55,0,0,1,.52,0,0.23,0.23,0,0,1,.06.16,0.32,0.32,0,0,1-.11.22,0.63,0.63,0,0,1-.48.16H68L68.34,46h0a0.79,0.79,0,0,0,.45-0.21A0.63,0.63,0,0,0,69,45.33a0.61,0.61,0,0,0-.19-0.44A0.83,0.83,0,0,0,68,44.75"/><path class="cls-1" d="M66.59,44.64l-1,.67,0.19,0.28,0.73-.49,0.36,0.54-0.68.46,0.19,0.28,0.68-.46,0.35,0.52-0.7.47,0.19,0.28,1-.66-1.29-1.91h0Z"/><path class="cls-1" d="M58,46.16l-0.91-.58,0.52-.83-0.29-.18v0l-1.22,1.92,0.29,0.19,0.52-.83,0.92,0.58-0.53.82,0.29,0.19,1.23-1.95-0.29-.18L58,46.16"/><path class="cls-1" d="M56.5,44.45a0.86,0.86,0,0,1-.3.59,0.77,0.77,0,0,1-1.13,0,0.75,0.75,0,0,1-.19-0.54,0.92,0.92,0,0,1,.93-0.82,0.74,0.74,0,0,1,.51.25,0.73,0.73,0,0,1,.19.53m0.35,0a1.05,1.05,0,0,0-.28-0.77,1.12,1.12,0,0,0-1.63-.05,1.21,1.21,0,0,0-.42.83,1.07,1.07,0,0,0,.28.78,1.13,1.13,0,0,0,1.62,0,1.24,1.24,0,0,0,.42-0.84"/><path class="cls-1" d="M55.65,42.52l-1.53.72,1-1.91L55,41.07h0l-2.06,1L53,42.34l1.53-.72-1,1.93,0.11,0.24,2.08-1Z"/><polygon class="cls-1" points="54.84 40.46 52.63 41.01 52.72 41.35 54.95 40.78 54.86 40.45 54.84 40.46"/><path class="cls-1" d="M53.8,39.69a0.36,0.36,0,0,0-.58.34,0.35,0.35,0,0,0,.14.24,0.36,0.36,0,0,0,.27.07,0.36,0.36,0,0,0,.17-0.65"/><path class="cls-1" d="M53.65,38.81a0.64,0.64,0,0,1,.46-0.38,0.26,0.26,0,0,1,.17.08,0.32,0.32,0,0,1,.09.23,0.64,0.64,0,0,1-.32.51L54,39.3h0.51a0.85,0.85,0,0,0,.22-0.58,0.57,0.57,0,0,0-.16-0.41,0.66,0.66,0,0,0-.47-0.19,0.87,0.87,0,0,0-.76.52,0.53,0.53,0,0,1-.39.34,0.22,0.22,0,0,1-.16-0.06,0.33,0.33,0,0,1-.08-0.23,0.63,0.63,0,0,1,.23-0.46l0,0H52.52a0.8,0.8,0,0,0-.17.47,0.65,0.65,0,0,0,.17.47,0.62,0.62,0,0,0,.45.17,0.84,0.84,0,0,0,.68-0.49"/><path class="cls-1" d="M53,36.57a0.74,0.74,0,0,1,.33-0.46,0.92,0.92,0,0,1,1.2.3,0.75,0.75,0,0,1,.08.56,0.79,0.79,0,0,1-1,.54A0.77,0.77,0,0,1,53,36.57m0.54,1.28a1.23,1.23,0,0,0,.93-0.12,1.06,1.06,0,0,0,.48-0.66,1.07,1.07,0,0,0-.11-0.83A1.24,1.24,0,0,0,54,35.68a1.11,1.11,0,0,0-1.41.8,1.13,1.13,0,0,0,0,.28,1.06,1.06,0,0,0,.15.54,1.22,1.22,0,0,0,.76.54"/><path class="cls-1" d="M68.85,33.92l0.74-.18-0.44.64-0.3-.45m0.09,0.75-0.12.17V34.49l0.12,0.18M67.38,47.35a19.13,19.13,0,0,1-3-.71l-0.17-.05A1.88,1.88,0,0,1,65,45.15a7,7,0,0,0,1.78-1.2,5.75,5.75,0,0,0,1.3-1.62A7,7,0,0,0,68.83,37V35.91l0.33,0.82,0.32-.12-0.33-.83L71,35.05l-0.12-.31h0l-2,.8V35.41l1.32-1.91L70,33.31h0l-1.18.28V31.37l0.35,0.33A10.07,10.07,0,0,1,70.8,43.81a10.17,10.17,0,0,1-3.41,3.55m2.09-.23a1.76,1.76,0,0,1-1.23.3,11,11,0,0,0,1.37-1.18,0.85,0.85,0,0,1-.14.88M63.9,49.83a41.66,41.66,0,0,1-4.69-1.35l0.49-1.24L60,47.37a0.34,0.34,0,0,0,0,.06,0.77,0.77,0,1,0,.2-0.51l-0.32-.13,0.43-1.09c1.12,0.48,2.57,1,4,1.47a17,17,0,0,0,3.56.79L63.9,49.83m-0.24,2.47a1.38,1.38,0,0,1-.13.6,0.46,0.46,0,0,1-.83-0.09l-0.07-.26a0.46,0.46,0,0,0,.17,0,0.46,0.46,0,0,0,0-.91,0.46,0.46,0,0,0-.34.15c-0.14-.59-0.29-1.24-0.29-1.24H61.94s-0.15.64-.29,1.24a0.46,0.46,0,1,0-.34.77,0.44,0.44,0,0,0,.17,0c0,0.13-.06.23-0.07,0.26a0.46,0.46,0,0,1-.44.31,0.46,0.46,0,0,1-.4-0.23,1.4,1.4,0,0,1-.13-0.59V49.46c1,0.3,2.12.64,3.22,0.88v2Zm-4.91-4-0.25-.09A10.06,10.06,0,0,1,54.95,31.7l0.35-.33v2.75l-0.92-.61,0.39-.59-0.28-.19,0,0-1,1.43,0.29,0.19,0.39-.58,1.11,0.74v1l-1.94-.9v0l-0.13.29,2.08,1V37A7,7,0,0,0,56,42.3,5.85,5.85,0,0,0,57.36,44a6.31,6.31,0,0,0,.65.52l0.05,0,0.08,0.05,0.09,0.06,0,0c0.18,0.12.36,0.22,0.55,0.32h0c0.26,0.13.62,0.3,1,.49l-0.44,1.1-0.2-.09a0.25,0.25,0,0,0-.32.13A0.25,0.25,0,0,0,59,47l0.21,0.09Zm-2.91-11h6.08v8a6.43,6.43,0,0,1-3.49-1.11h0l-0.11-.08,0,0L58.2,44,58.1,43.9l0,0A6.48,6.48,0,0,1,56.46,42a6.94,6.94,0,0,1-.62-3.19V37.29Zm0-1.73V30.24h6.07V37H55.83V35.56Zm0-6.45,1.54,0.32-1.54.32V29.11Zm2.78,0,1.54,0.32-1.54.32V29.11Zm2.84,0L63,29.43l-1.54.32V29.11Zm2.84,0,1.54,0.32-1.54.32V29.11ZM62.19,37V30.24h6.09V37H62.19ZM64,45.52a3.53,3.53,0,0,0-.27.9c-0.59-.2-1.17-0.41-1.71-0.61h0a7,7,0,0,0,2-.28m-1.85-.27v-8h6.09v1.52A6.9,6.9,0,0,1,67.65,42a6.48,6.48,0,0,1-1.17,1.47l-0.09.08a6.43,6.43,0,0,1-4.2,1.67m4.94-16.15,1.54,0.32-1.54.32V29.11Zm5.53,9.71a10.53,10.53,0,0,0-3.1-7.49c-0.24-.23-0.48-0.46-0.73-0.67V30.25a0.8,0.8,0,0,0,0-1.6H68.73l0.78-.36-0.3-.65,1.16-2.7-0.5-.22L68.7,27.46l-0.63.29,0.41,0.9H55.63l0.41-.9-0.64-.29-1.18-2.74-0.5.22,1.17,2.7-0.3.65,0.78,0.36h0a0.8,0.8,0,0,0-.06,1.6v0.41c-0.25.21-.5,0.43-0.73,0.66a10.6,10.6,0,0,0,3.74,17.41l0.3,0.11a0.73,0.73,0,0,0,1.28.44h0v3a2.13,2.13,0,0,0,4.26,0v-2l5.21-2.49a1.45,1.45,0,0,0,.46-0.28,1.51,1.51,0,0,0,.2-1.74,11,11,0,0,0,1.22-1.71,10.59,10.59,0,0,0,1.39-5.26"/><path class="cls-1" d="M69.51,24.15a1.32,1.32,0,0,0-2.38-.3,1.32,1.32,0,0,0-2.35-.11,1.32,1.32,0,0,0-1.15-.67h-0.1c0-.16.06-0.33,0.1-0.49A5.58,5.58,0,0,0,66.44,22a5.5,5.5,0,0,1,1.95-.54,1.43,1.43,0,0,1,1.13.64,2.33,2.33,0,0,1,0,2.07m-6.92-2.22a0.78,0.78,0,0,0-1.07,0v0a0.53,0.53,0,1,1,1.07,0s0,0,0,0m0,0.75a0.77,0.77,0,0,0-1,0,0.51,0.51,0,0,1,0-.18,0.53,0.53,0,0,1,1.07,0,0.5,0.5,0,0,1,0,.18m-0.5,1.14a0.54,0.54,0,1,1,.53-0.53,0.53,0.53,0,0,1-.53.53m0-3a0.54,0.54,0,0,1,.53.47,0.78,0.78,0,0,0-.53-0.21,0.77,0.77,0,0,0-.53.21,0.54,0.54,0,0,1,.53-0.47m0-.5a0.53,0.53,0,0,1,.53.46,0.78,0.78,0,0,0-1.06,0,0.53,0.53,0,0,1,.53-0.46m-1.57,2.74a1.32,1.32,0,0,0-1.15.67,1.32,1.32,0,0,0-2.35.11,1.32,1.32,0,0,0-2.38.3,2.32,2.32,0,0,1,0-2.07,1.43,1.43,0,0,1,1.12-.64,5.52,5.52,0,0,1,1.95.54,5.58,5.58,0,0,0,2.81.61c0,0.16.07,0.33,0.1,0.49h-0.1m9.5-1.3a2,2,0,0,0-1.6-.9,6,6,0,0,0-2.16.58,5.31,5.31,0,0,1-2.44.58,5.08,5.08,0,0,1,.36-0.84l-0.5-.25a1.79,1.79,0,0,0,.2-0.62A5.51,5.51,0,0,0,62,20.07a5.09,5.09,0,0,0-1.76.26,1.85,1.85,0,0,0,.2.62L60,21.2a5.17,5.17,0,0,1,.36.84,5.33,5.33,0,0,1-2.45-.58,6,6,0,0,0-2.16-.58,2,2,0,0,0-1.59.9c-0.33.51-.58,1.44,0.11,3v0l1-.45,0.08,0.17C55,24.59,54.66,25,55,25.86c0.88-.38.92-0.88,0.77-1.22L56,24.57l0.43,1,0.43,1-0.17.07c-0.15-.34-0.54-0.66-1.41-0.28a1.84,1.84,0,0,0,1.59,1.24,1.27,1.27,0,0,0,1.48-1.13,0.62,0.62,0,0,0-.6-0.54,0.34,0.34,0,0,0-.27.37,0.27,0.27,0,0,0,0,.09l0,0a0.56,0.56,0,1,1,.43-1L58,25.39a0.62,0.62,0,0,1-.33-0.44,1.21,1.21,0,0,1,.46-1,1.23,1.23,0,0,1,.78.71,0.63,0.63,0,0,1-.14.53l0.09,0.06a0.55,0.55,0,0,1,.4-0.32,0.56,0.56,0,0,1,.35,1l0,0a0.34,0.34,0,0,0,0-.1,0.33,0.33,0,0,0-.38-0.24,0.63,0.63,0,0,0-.36.72,1.48,1.48,0,0,0,1.46,1.22,1.49,1.49,0,0,0,1.47-1.48c-1,0-1.28.48-1.28,0.88h-0.2V24.65h0.2c0,0.4.25,0.88,1.28,0.88,0-1-.48-1.28-0.88-1.28V24h2.37v0.2c-0.4,0-.88.25-0.88,1.28,1,0,1.28-.48,1.28-0.88h0.2V27h-0.2c0-.4-0.25-0.88-1.28-0.88a1.49,1.49,0,0,0,1.47,1.48,1.48,1.48,0,0,0,1.46-1.22,0.63,0.63,0,0,0-.36-0.72,0.33,0.33,0,0,0-.38.24,0.34,0.34,0,0,0,0,.1l0,0a0.56,0.56,0,0,1,.35-1,0.57,0.57,0,0,1,.41.32l0.09-.06a0.63,0.63,0,0,1-.15-0.53A1.22,1.22,0,0,1,66,24a1.21,1.21,0,0,1,.46,1,0.62,0.62,0,0,1-.33.44l0.06,0.09a0.56,0.56,0,1,1,.44,1l0,0a0.31,0.31,0,0,0,0-.09,0.33,0.33,0,0,0-.27-0.37,0.62,0.62,0,0,0-.6.54,1.27,1.27,0,0,0,1.48,1.13,1.84,1.84,0,0,0,1.59-1.24c-0.87-.38-1.26-0.06-1.41.28l-0.17-.07,0.43-1,0.43-1,0.17,0.07c-0.14.34-.11,0.84,0.77,1.22,0.38-.88.06-1.27-0.28-1.41l0.07-.17,1,0.45v0c0.69-1.53.44-2.46,0.11-3"/><polygon class="cls-1" points="65.22 30.62 65.22 30.62 65.02 30.62 65.12 30.86 65.22 30.86 65.24 30.87 65.2 30.93 65.26 30.88 65.27 30.89 65.32 30.86 65.42 30.62 65.22 30.62"/><polygon class="cls-1" points="62.38 30.51 62.53 30.78 62.53 30.92 62.73 30.95 62.72 30.85 62.76 30.82 62.76 30.81 62.83 30.84 62.83 30.63 62.68 30.63 62.42 30.48 62.38 30.51"/><path class="cls-1" d="M62.91,30.78a0.07,0.07,0,1,1,0-.14,0.06,0.06,0,0,1,.05,0h0a0.17,0.17,0,0,0,0,0,0.15,0.15,0,1,0-.15.15h0.07"/><path class="cls-1" d="M62.68,31a0.07,0.07,0,0,0-.07-0.07,0.07,0.07,0,0,0-.07.07,0.06,0.06,0,0,0,0,.05v0h0a0.15,0.15,0,0,1-.15-0.15,0.15,0.15,0,1,1,.31,0V31h0Z"/><polygon class="cls-1" points="62.53 36.38 62.53 36.51 62.38 36.78 62.42 36.82 62.68 36.67 62.83 36.67 62.83 36.45 62.76 36.48 62.76 36.48 62.72 36.44 62.73 36.35 62.53 36.38"/><path class="cls-1" d="M62.91,36.51a0.07,0.07,0,0,0-.07.07,0.07,0.07,0,0,0,.07.07,0.06,0.06,0,0,0,.05,0h0a0.18,0.18,0,0,1,0,0,0.15,0.15,0,1,1-.15-0.16h0.07"/><path class="cls-1" d="M62.68,36.29a0.07,0.07,0,0,1-.07.07,0.07,0.07,0,0,1-.07-0.07,0.06,0.06,0,0,1,0-.05v0h0a0.15,0.15,0,0,0,0,.31,0.15,0.15,0,0,0,.16-0.16V36.29h0Z"/><polygon class="cls-1" points="67.71 36.44 67.67 36.48 67.68 36.48 67.6 36.45 67.6 36.67 67.76 36.67 68.02 36.82 68.05 36.78 67.91 36.51 67.91 36.38 67.71 36.35 67.71 36.44"/><path class="cls-1" d="M67.53,36.51a0.07,0.07,0,0,1,.07.07,0.07,0.07,0,0,1-.07.07,0.06,0.06,0,0,1-.05,0h0a0.18,0.18,0,0,0,0,0,0.15,0.15,0,1,0,.15-0.16H67.53"/><path class="cls-1" d="M67.75,36.29a0.07,0.07,0,0,0,.07.07,0.07,0.07,0,0,0,.07-0.07,0.06,0.06,0,0,0,0-.05v0h0a0.15,0.15,0,0,1,0,.31,0.16,0.16,0,0,1-.16-0.16V36.29h0Z"/><polygon class="cls-1" points="67.76 30.63 67.6 30.63 67.6 30.84 67.68 30.81 67.68 30.82 67.71 30.85 67.71 30.95 67.91 30.92 67.91 30.78 68.06 30.51 68.02 30.48 67.76 30.63"/><path class="cls-1" d="M67.53,30.78a0.07,0.07,0,1,0,0-.14,0.06,0.06,0,0,0-.05,0h0a0.17,0.17,0,0,1,0,0,0.16,0.16,0,0,1,.16-0.16,0.15,0.15,0,0,1,0,.31H67.53"/><path class="cls-1" d="M67.75,31a0.07,0.07,0,0,1,.07-0.07,0.07,0.07,0,0,1,.07.07,0.07,0.07,0,0,1,0,.05v0h0a0.15,0.15,0,0,0,.16-0.15,0.15,0.15,0,1,0-.31,0V31h0Z"/><rect class="cls-1" x="64.99" y="31.2" width="0.44" height="0.19"/><polygon class="cls-1" points="65.11 31.39 65.19 31.57 65.25 31.57 65.33 31.39 65.11 31.39"/><path class="cls-1" d="M65.53,31.36l0,0a0,0,0,1,1,0-.1h0a0.11,0.11,0,1,0,.11.11h0Z"/><path class="cls-1" d="M64.91,31.36l0,0a0.05,0.05,0,0,0,.05,0,0,0,0,0,0,0,0h0a0.11,0.11,0,0,1,0,.23,0.11,0.11,0,0,1-.11-0.11h0Z"/><polygon class="cls-1" points="65.18 36.42 65.17 36.41 65.12 36.44 65.02 36.67 65.22 36.67 65.22 36.67 65.42 36.67 65.32 36.43 65.22 36.43 65.2 36.43 65.23 36.36 65.18 36.42"/><rect class="cls-1" x="65" y="35.9" width="0.44" height="0.19"/><polygon class="cls-1" points="65.19 35.72 65.11 35.91 65.33 35.91 65.25 35.72 65.19 35.72"/><path class="cls-1" d="M64.91,35.94l0,0a0.05,0.05,0,0,1,0,0,0,0,0,0,1,0,0h0a0.11,0.11,0,0,0,.11-0.11,0.11,0.11,0,1,0-.22,0h0Z"/><path class="cls-1" d="M65.53,35.94l0,0a0,0,0,0,0,0,0,0,0,0,0,0,0,0h0a0.11,0.11,0,0,1-.11-0.11,0.11,0.11,0,0,1,.23,0h0Z"/><polygon class="cls-1" points="67.68 33.55 67.67 33.64 67.67 33.67 67.6 33.63 67.66 33.69 67.65 33.7 67.68 33.74 67.91 33.84 67.91 33.64 67.91 33.45 67.68 33.55"/><rect class="cls-1" x="67.14" y="33.43" width="0.19" height="0.44"/><polygon class="cls-1" points="66.97 33.62 66.97 33.67 67.15 33.76 67.15 33.53 66.97 33.62"/><path class="cls-1" d="M67.18,34a0.06,0.06,0,0,1,0,0,0,0,0,0,1,.05,0,0,0,0,0,1,0,0v0a0.11,0.11,0,0,0-.11-0.11,0.11,0.11,0,0,0-.11.11,0.11,0.11,0,0,0,.11.11h0Z"/><path class="cls-1" d="M67.18,33.33a0,0,0,0,0,0,0,0,0,0,1,0,.1,0v0a0.11,0.11,0,0,1-.11.11A0.11,0.11,0,0,1,67,33.42a0.11,0.11,0,0,1,.11-0.11h0Z"/><polygon class="cls-1" points="62.53 33.65 62.53 33.84 62.76 33.74 62.79 33.7 62.78 33.69 62.84 33.63 62.77 33.67 62.77 33.65 62.76 33.55 62.53 33.45 62.53 33.65"/><rect class="cls-1" x="63.1" y="33.43" width="0.19" height="0.44"/><polygon class="cls-1" points="63.29 33.76 63.47 33.67 63.47 33.62 63.29 33.53 63.29 33.76"/><polyline class="cls-1" points="63.18 33.92 63.18 33.92 63.18 33.92 63.18 33.92"/><path class="cls-1" d="M63.25,34a0.06,0.06,0,0,0,0,0,0,0,0,0,0,0,0,0,0,0,0,0,0,0v0a0.11,0.11,0,0,1,.11-0.11,0.11,0.11,0,0,1,.11.11,0.11,0.11,0,0,1-.11.11h0Z"/><polyline class="cls-1" points="63.18 33.37 63.18 33.37 63.18 33.37 63.18 33.37"/><path class="cls-1" d="M63.25,33.33a0,0,0,0,1,0,0,0,0,0,0,1,0,.05,0.05,0.05,0,0,1,0,0v0a0.11,0.11,0,0,0,.11.11,0.11,0.11,0,0,0,.11-0.11,0.11,0.11,0,0,0-.11-0.11h0Z"/><rect class="cls-1" x="41" y="16.19" width="2.04" height="59.9"/></svg>