<svg id="Layer_1" data-name="Layer 1" xmlns="http://www.w3.org/2000/svg" viewBox="0 0 288 44"><defs><style>.cls-1{fill:#fff;}</style></defs><title>LD_website logo</title><path class="cls-1" d="M235.44,11.58v15h36.35v-15H235.44Zm8.68,13.51-2.52-8.24-1.65,8.24h-3l2.54-11.9h4l2.47,8.25,1.67-8.25h3l-2.52,11.9h-4Zm12,0,1.06-5.1h-3.77l-1.06,5.1h-3.19l2.47-11.9h3.19l-0.94,4.55h3.77l0.94-4.55h3.19l-2.47,11.9H256.1ZM270,15.88a6,6,0,0,0-2.63-.55c-1.26,0-2.29.19-2.29,1.14,0,1.69,4.62,1.06,4.62,4.67,0,3.29-3.05,4.14-5.82,4.14a13.29,13.29,0,0,1-3.68-.61L261,22.26a6.2,6.2,0,0,0,2.93.68c1,0,2.54-.19,2.54-1.42,0-1.91-4.62-1.19-4.62-4.55,0-3.07,2.69-4,5.3-4a9.66,9.66,0,0,1,3.65.53Z"/><path class="cls-1" d="M27.09,22.94c0,2.49-1.26,3.82-3.44,3.82s-3.44-1.33-3.44-3.82V17.75h1.27v5c0,1.7.53,2.87,2.17,2.87s2.17-1.17,2.17-2.87v-5h1.27v5.19Z"/><path class="cls-1" d="M29.25,20.13H30.4v1h0A2.33,2.33,0,0,1,32.55,20C34.22,20,35,21,35,22.76v3.85H33.78V23.26c0-1.51-.33-2.25-1.37-2.31-1.36,0-2,1.09-2,2.67v3H29.25V20.13Z"/><path class="cls-1" d="M38.42,18.69H37.08V17.34h1.35v1.35Zm-1.27,1.45h1.19v6.47H37.15V20.13Z"/><path class="cls-1" d="M43.4,26.61H42l-2.32-6.47H41l1.75,5.28h0l1.79-5.28h1.19Z"/><path class="cls-1" d="M51.83,26.34a5,5,0,0,1-2,.42c-2.3,0-3.35-1.4-3.35-3.5a3,3,0,0,1,3-3.27c2.16,0,2.86,1.57,2.86,3.66H47.71a2.12,2.12,0,0,0,2.13,2.16,3.82,3.82,0,0,0,2-.65v1.19Zm-0.77-3.59a1.63,1.63,0,0,0-1.61-1.8,1.79,1.79,0,0,0-1.74,1.8h3.35Z"/><path class="cls-1" d="M53.93,20.13H55v1h0A2,2,0,0,1,56.76,20a3.37,3.37,0,0,1,.79.09v1.07A1.76,1.76,0,0,0,56.88,21c-1.07,0-1.76,1-1.76,2.64v2.94H53.93V20.13Z"/><path class="cls-1" d="M58.38,25.34a3.19,3.19,0,0,0,1.49.46,1,1,0,0,0,1.22-.93c0-1.18-2.81-1.08-2.81-2.89a2,2,0,0,1,2.28-2,5,5,0,0,1,1.48.25l-0.1,1a3.48,3.48,0,0,0-1.26-.33,1,1,0,0,0-1.14.79c0,1.32,2.81.94,2.81,3a2,2,0,0,1-2.26,2,3.72,3.72,0,0,1-1.78-.36Z"/><path class="cls-1" d="M65.22,18.69H63.88V17.34h1.35v1.35ZM64,20.13h1.19v6.47H64V20.13Z"/><path class="cls-1" d="M70.77,21.1H69.05v3.54a1,1,0,0,0,1,1.16,1.48,1.48,0,0,0,.81-0.23v1a3.74,3.74,0,0,1-1,.18,1.73,1.73,0,0,1-2-1.88V21.1H66.4v-1h1.46v-1.5l1.19-.38v1.88h1.71v1Z"/><path class="cls-1" d="M71.78,28.36a1.82,1.82,0,0,0,.56.1c1.07,0,1.42-1.47,1.42-1.6a3.58,3.58,0,0,0-.23-0.69l-2.2-6h1.31l1.74,5.36h0l1.78-5.36h1.21L75,26.75c-0.44,1.24-.91,2.68-2.49,2.68a3.92,3.92,0,0,1-.81-0.09Z"/><path class="cls-1" d="M88.37,19.21a3.56,3.56,0,0,0-1.83-.5,3.29,3.29,0,0,0-3.4,3.47,3.3,3.3,0,0,0,3.34,3.46,4.36,4.36,0,0,0,1.93-.43l0.08,1.23a5.53,5.53,0,0,1-2,.32,4.36,4.36,0,0,1-4.67-4.62,4.42,4.42,0,0,1,4.68-4.54,4.89,4.89,0,0,1,2,.38Z"/><path class="cls-1" d="M92.76,20A3.19,3.19,0,0,1,96,23.37a3.3,3.3,0,1,1-6.59,0A3.2,3.2,0,0,1,92.76,20Zm0,5.81a2.17,2.17,0,0,0,2-2.42,2.06,2.06,0,1,0-4,0A2.17,2.17,0,0,0,92.76,25.79Z"/><path class="cls-1" d="M97.79,17.09H99v9.52H97.79V17.09Z"/><path class="cls-1" d="M101.32,17.09h1.19v9.52h-1.19V17.09Z"/><path class="cls-1" d="M109.66,26.34a5,5,0,0,1-2,.42c-2.3,0-3.35-1.4-3.35-3.5a3,3,0,0,1,3-3.27c2.16,0,2.86,1.57,2.86,3.66h-4.62a2.12,2.12,0,0,0,2.13,2.16,3.83,3.83,0,0,0,2-.65v1.19Zm-0.77-3.59a1.63,1.63,0,0,0-1.61-1.8,1.79,1.79,0,0,0-1.74,1.8h3.35Z"/><path class="cls-1" d="M117.48,26.33c0,2-1,3.1-3.34,3.1a6.54,6.54,0,0,1-2.32-.44l0.13-1.1a4.93,4.93,0,0,0,2.34.58,2,2,0,0,0,2-2.22V25.6h0a2.7,2.7,0,0,1-2.17,1c-1.85,0-2.77-1.51-2.77-3.19S112.26,20,114.22,20a2.13,2.13,0,0,1,2.13,1.12h0v-1h1.1v6.19Zm-1.19-2.88c0-1.35-.62-2.5-1.89-2.5s-1.8,1.31-1.8,2.41A1.88,1.88,0,1,0,116.28,23.45Z"/><path class="cls-1" d="M124.47,26.34a5,5,0,0,1-2,.42c-2.3,0-3.35-1.4-3.35-3.5a3,3,0,0,1,3-3.27c2.16,0,2.86,1.57,2.86,3.66h-4.62a2.12,2.12,0,0,0,2.13,2.16,3.82,3.82,0,0,0,2-.65v1.19Zm-0.77-3.59a1.63,1.63,0,0,0-1.61-1.8,1.79,1.79,0,0,0-1.74,1.8h3.35Z"/><path class="cls-1" d="M130.19,17.75h1.27v7.74h3.71v1.12h-5V17.75Z"/><path class="cls-1" d="M139.3,20a3.19,3.19,0,0,1,3.29,3.39,3.3,3.3,0,1,1-6.59,0A3.2,3.2,0,0,1,139.3,20Zm0,5.81a2.17,2.17,0,0,0,2-2.42,2.06,2.06,0,1,0-4,0A2.17,2.17,0,0,0,139.3,25.79Z"/><path class="cls-1" d="M144.19,20.13h1.15v1h0A2.33,2.33,0,0,1,147.49,20c1.68,0,2.42,1,2.42,2.78v3.85h-1.19V23.26c0-1.51-.33-2.25-1.37-2.31-1.36,0-2,1.09-2,2.67v3h-1.19V20.13Z"/><path class="cls-1" d="M156.52,25.69h0a2.6,2.6,0,0,1-2.21,1.07c-2,0-2.78-1.74-2.78-3.5S152.42,20,154.3,20a2.31,2.31,0,0,1,2.15,1h0V17.09h1.19v9.52h-1.14V25.69Zm-2,.1c1.35,0,1.9-1.33,1.9-2.41s-0.62-2.44-1.92-2.44-1.8,1.22-1.78,2.4C152.75,24.36,153.28,25.79,154.57,25.79Z"/><path class="cls-1" d="M162.56,20a3.19,3.19,0,0,1,3.29,3.39,3.3,3.3,0,1,1-6.59,0A3.2,3.2,0,0,1,162.56,20Zm0,5.81a2.17,2.17,0,0,0,2-2.42,2.06,2.06,0,1,0-4,0A2.17,2.17,0,0,0,162.56,25.79Z"/><path class="cls-1" d="M167.45,20.13h1.15v1h0A2.33,2.33,0,0,1,170.75,20c1.68,0,2.42,1,2.42,2.78v3.85H172V23.26c0-1.51-.33-2.25-1.37-2.31-1.36,0-2,1.09-2,2.67v3h-1.19V20.13Z"/><path class="cls-1" d="M178.9,17.75h1.27v3.71h4.24V17.75h1.27v8.86h-1.27v-4h-4.24v4H178.9V17.75Z"/><path class="cls-1" d="M190.76,20A3.19,3.19,0,0,1,194,23.37a3.3,3.3,0,1,1-6.59,0A3.2,3.2,0,0,1,190.76,20Zm0,5.81a2.17,2.17,0,0,0,2-2.42,2.06,2.06,0,1,0-4,0A2.17,2.17,0,0,0,190.76,25.79Z"/><path class="cls-1" d="M195.16,25.34a3.19,3.19,0,0,0,1.49.46,1,1,0,0,0,1.22-.93c0-1.18-2.81-1.08-2.81-2.89a2,2,0,0,1,2.28-2,5,5,0,0,1,1.48.25l-0.1,1a3.48,3.48,0,0,0-1.26-.33,1,1,0,0,0-1.14.79c0,1.32,2.81.94,2.81,3a2,2,0,0,1-2.26,2,3.72,3.72,0,0,1-1.78-.36Z"/><path class="cls-1" d="M200.58,20.13h1.14V21h0a2.59,2.59,0,0,1,2.2-1.07c1.88,0,2.79,1.54,2.79,3.27s-0.83,3.5-2.78,3.5a2.32,2.32,0,0,1-2.16-1h0v3.55h-1.19V20.13Zm3.11,0.81c-1.29,0-1.92,1.23-1.92,2.44s0.56,2.41,1.9,2.41,1.82-1.43,1.79-2.45C205.49,22.18,205,20.95,203.69,20.95Z"/><path class="cls-1" d="M209.75,18.69h-1.35V17.34h1.35v1.35Zm-1.27,1.45h1.19v6.47h-1.19V20.13Z"/><path class="cls-1" d="M215.3,21.1h-1.71v3.54a1,1,0,0,0,1,1.16,1.48,1.48,0,0,0,.81-0.23v1a3.74,3.74,0,0,1-1,.18,1.73,1.73,0,0,1-2-1.88V21.1h-1.46v-1h1.46v-1.5l1.19-.38v1.88h1.71v1Z"/><path class="cls-1" d="M217.1,20.59a4.12,4.12,0,0,1,2.13-.61c1.85,0,2.6.91,2.6,2.68v2.68a10.34,10.34,0,0,0,.05,1.27h-1.12V25.77h0a2.4,2.4,0,0,1-2,1c-1.4,0-2.37-.61-2.37-2,0-1.62,1.78-2.13,3-2.13,0.47,0,.8,0,1.27,0a1.41,1.41,0,0,0-1.6-1.69,3,3,0,0,0-1.88.66Zm3.54,2.93-0.76,0c-0.65,0-2.25.1-2.25,1.24a1.14,1.14,0,0,0,1.21,1.05,1.63,1.63,0,0,0,1.8-1.7V23.52Z"/><path class="cls-1" d="M224,17.09h1.19v9.52H224V17.09Z"/><path class="cls-1" d="M226.9,25.34a3.19,3.19,0,0,0,1.49.46,1,1,0,0,0,1.22-.93c0-1.18-2.81-1.08-2.81-2.89a2,2,0,0,1,2.28-2,5,5,0,0,1,1.48.25l-0.1,1a3.48,3.48,0,0,0-1.26-.33,1,1,0,0,0-1.14.79c0,1.32,2.81.94,2.81,3a2,2,0,0,1-2.26,2,3.72,3.72,0,0,1-1.78-.36Z"/><path class="cls-1" d="M155,33.22h1l2.32,4.24h0V33.22h0.75v5.27h-1l-2.39-4.33h0v4.33H155V33.22Z"/><path class="cls-1" d="M160.57,33.22h0.75v2.2h2.52v-2.2h0.75v5.27h-0.75v-2.4h-2.52v2.4h-0.75V33.22Z"/><path class="cls-1" d="M168.42,34a2.32,2.32,0,0,0-1-.22,0.77,0.77,0,0,0-.92.7c0,1,2.26.78,2.26,2.51,0,1.12-.87,1.57-1.92,1.57a3.53,3.53,0,0,1-1.08-.22l0.08-.7a3.2,3.2,0,0,0,1.09.26,0.94,0.94,0,0,0,1-.86c0-1.18-2.26-.85-2.26-2.49a1.48,1.48,0,0,1,1.69-1.43,3.52,3.52,0,0,1,1.12.19Z"/><path class="cls-1" d="M171.95,33.22h2.8v0.66h-2v1.54h2v0.66h-2v2.4h-0.75V33.22Z"/><path class="cls-1" d="M177.44,34.55a1.9,1.9,0,0,1,2,2,2,2,0,1,1-3.92,0A1.9,1.9,0,0,1,177.44,34.55Zm0,3.46a1.29,1.29,0,0,0,1.2-1.44,1.22,1.22,0,1,0-2.41,0A1.29,1.29,0,0,0,177.44,38Z"/><path class="cls-1" d="M183.8,38.49h-0.69V37.87h0a1.46,1.46,0,0,1-2.7-1V34.64h0.71v2c0,0.9.2,1.34,0.82,1.37,0.81,0,1.17-.65,1.17-1.59V34.64h0.71v3.85Z"/><path class="cls-1" d="M185.06,34.64h0.69v0.61h0a1.46,1.46,0,0,1,2.7,1v2.29h-0.71v-2c0-.9-0.2-1.34-0.82-1.37-0.81,0-1.17.65-1.17,1.59v1.78h-0.71V34.64Z"/><path class="cls-1" d="M192.44,37.94h0a1.55,1.55,0,0,1-1.31.63c-1.16,0-1.65-1-1.65-2.08a1.72,1.72,0,0,1,1.66-1.95,1.37,1.37,0,0,1,1.28.62h0V32.82h0.71v5.66h-0.68V37.94Zm-1.16.06a1.48,1.48,0,0,0,0-2.88,1.2,1.2,0,0,0-1.06,1.43A1.29,1.29,0,0,0,191.28,38Z"/><path class="cls-1" d="M194.56,34.91a2.45,2.45,0,0,1,1.27-.36,1.37,1.37,0,0,1,1.55,1.59v1.59a6.24,6.24,0,0,0,0,.75h-0.66V38h0a1.43,1.43,0,0,1-1.19.59,1.19,1.19,0,0,1-1.41-1.2c0-1,1.06-1.27,1.79-1.27h0.75a0.84,0.84,0,0,0-1-1,1.81,1.81,0,0,0-1.12.39Zm2.11,1.74h-0.45c-0.39,0-1.34.06-1.34,0.74a0.68,0.68,0,0,0,.72.63,1,1,0,0,0,1.07-1V36.65Z"/><path class="cls-1" d="M200.66,35.21h-1v2.11a0.61,0.61,0,0,0,.6.69,0.88,0.88,0,0,0,.48-0.14v0.6a2.22,2.22,0,0,1-.6.11,1,1,0,0,1-1.18-1.12V35.21h-0.87V34.64h0.87V33.75l0.71-.23v1.12h1v0.57Z"/><path class="cls-1" d="M202.44,33.78h-0.8V33h0.8v0.8Zm-0.75.86h0.71v3.85h-0.71V34.64Z"/><path class="cls-1" d="M205.44,34.55a1.9,1.9,0,0,1,2,2,2,2,0,1,1-3.92,0A1.9,1.9,0,0,1,205.44,34.55Zm0,3.46a1.29,1.29,0,0,0,1.2-1.44,1.22,1.22,0,1,0-2.41,0A1.29,1.29,0,0,0,205.44,38Z"/><path class="cls-1" d="M208.4,34.64h0.69v0.61h0a1.46,1.46,0,0,1,2.7,1v2.29h-0.71v-2c0-.9-0.2-1.34-0.82-1.37-0.81,0-1.17.65-1.17,1.59v1.78H208.4V34.64Z"/><path class="cls-1" d="M216.31,33.88h-1.64V33.22h4v0.66h-1.64v4.6h-0.75v-4.6Z"/><path class="cls-1" d="M218.89,34.64h0.66v0.6h0a1.17,1.17,0,0,1,1-.69,2,2,0,0,1,.47.05v0.63a1.05,1.05,0,0,0-.39-0.07c-0.63,0-1,.6-1,1.57v1.75h-0.71V34.64Z"/><path class="cls-1" d="M225.28,38.49h-0.69V37.87h0a1.46,1.46,0,0,1-2.7-1V34.64h0.71v2c0,0.9.2,1.34,0.82,1.37,0.81,0,1.17-.65,1.17-1.59V34.64h0.71v3.85Z"/><path class="cls-1" d="M226.25,37.73a1.9,1.9,0,0,0,.88.27,0.62,0.62,0,0,0,.72-0.55c0-.7-1.67-0.64-1.67-1.72a1.19,1.19,0,0,1,1.36-1.19,3,3,0,0,1,.88.15l-0.06.62a2.08,2.08,0,0,0-.75-0.2,0.57,0.57,0,0,0-.68.47c0,0.78,1.67.56,1.67,1.79a1.21,1.21,0,0,1-1.34,1.2,2.21,2.21,0,0,1-1.06-.21Z"/><path class="cls-1" d="M231.56,35.21h-1v2.11a0.61,0.61,0,0,0,.6.69,0.88,0.88,0,0,0,.48-0.14v0.6a2.22,2.22,0,0,1-.6.11,1,1,0,0,1-1.18-1.12V35.21H229V34.64h0.87V33.75l0.71-.23v1.12h1v0.57Z"/></svg>